%TF.GenerationSoftware,KiCad,Pcbnew,8.0.5*%
%TF.CreationDate,2024-10-29T18:05:36-05:00*%
%TF.ProjectId,Dumb_MoCo,44756d62-5f4d-46f4-936f-2e6b69636164,rev?*%
%TF.SameCoordinates,Original*%
%TF.FileFunction,Soldermask,Top*%
%TF.FilePolarity,Negative*%
%FSLAX46Y46*%
G04 Gerber Fmt 4.6, Leading zero omitted, Abs format (unit mm)*
G04 Created by KiCad (PCBNEW 8.0.5) date 2024-10-29 18:05:36*
%MOMM*%
%LPD*%
G01*
G04 APERTURE LIST*
G04 Aperture macros list*
%AMRoundRect*
0 Rectangle with rounded corners*
0 $1 Rounding radius*
0 $2 $3 $4 $5 $6 $7 $8 $9 X,Y pos of 4 corners*
0 Add a 4 corners polygon primitive as box body*
4,1,4,$2,$3,$4,$5,$6,$7,$8,$9,$2,$3,0*
0 Add four circle primitives for the rounded corners*
1,1,$1+$1,$2,$3*
1,1,$1+$1,$4,$5*
1,1,$1+$1,$6,$7*
1,1,$1+$1,$8,$9*
0 Add four rect primitives between the rounded corners*
20,1,$1+$1,$2,$3,$4,$5,0*
20,1,$1+$1,$4,$5,$6,$7,0*
20,1,$1+$1,$6,$7,$8,$9,0*
20,1,$1+$1,$8,$9,$2,$3,0*%
G04 Aperture macros list end*
%ADD10C,2.946400*%
%ADD11RoundRect,0.237500X-0.250000X-0.237500X0.250000X-0.237500X0.250000X0.237500X-0.250000X0.237500X0*%
%ADD12RoundRect,0.237500X-0.237500X0.250000X-0.237500X-0.250000X0.237500X-0.250000X0.237500X0.250000X0*%
%ADD13R,1.600000X1.600000*%
%ADD14C,1.600000*%
%ADD15R,1.700000X0.350000*%
%ADD16RoundRect,0.250000X-0.800000X-1.375000X0.800000X-1.375000X0.800000X1.375000X-0.800000X1.375000X0*%
%ADD17RoundRect,0.250000X-2.225000X-1.375000X2.225000X-1.375000X2.225000X1.375000X-2.225000X1.375000X0*%
%ADD18RoundRect,0.237500X0.237500X-0.300000X0.237500X0.300000X-0.237500X0.300000X-0.237500X-0.300000X0*%
%ADD19C,3.450000*%
%ADD20C,1.524000*%
%ADD21O,5.100000X3.000000*%
G04 APERTURE END LIST*
D10*
%TO.C,H4*%
X177927000Y-41148000D03*
%TD*%
D11*
%TO.C,R2*%
X201525500Y-64516000D03*
X203350500Y-64516000D03*
%TD*%
D12*
%TO.C,R5*%
X176530000Y-62587500D03*
X176530000Y-64412500D03*
%TD*%
D10*
%TO.C,H2*%
X177927000Y-85852000D03*
%TD*%
D12*
%TO.C,R7*%
X178562000Y-62587500D03*
X178562000Y-64412500D03*
%TD*%
%TO.C,R3*%
X180594000Y-62587500D03*
X180594000Y-64412500D03*
%TD*%
D10*
%TO.C,H1*%
X203073000Y-41148000D03*
%TD*%
D13*
%TO.C,C3*%
X180252380Y-71628000D03*
D14*
X177752380Y-71628000D03*
%TD*%
D10*
%TO.C,H3*%
X203073000Y-85852000D03*
%TD*%
D12*
%TO.C,R4*%
X201549000Y-60428500D03*
X201549000Y-62253500D03*
%TD*%
D15*
%TO.C,U1*%
X185627500Y-59250000D03*
X185627500Y-59750000D03*
X185627500Y-60250000D03*
X185627500Y-60750000D03*
X185627500Y-61250000D03*
X185627500Y-61750000D03*
X185627500Y-62250000D03*
X185627500Y-62750000D03*
X185627500Y-63250000D03*
X185627500Y-63750000D03*
X185627500Y-64250000D03*
X185627500Y-64750000D03*
X185627500Y-65250000D03*
X185627500Y-65750000D03*
X185627500Y-66250000D03*
X185627500Y-66750000D03*
X185627500Y-67250000D03*
X185627500Y-67750000D03*
X195492500Y-67750000D03*
X195492500Y-67250000D03*
X195492500Y-66750000D03*
X195492500Y-66250000D03*
X195492500Y-65750000D03*
X195492500Y-65250000D03*
X195492500Y-64750000D03*
X195492500Y-64250000D03*
X195492500Y-63750000D03*
X195492500Y-63250000D03*
X195492500Y-62750000D03*
X195492500Y-62250000D03*
X195492500Y-61750000D03*
X195492500Y-61250000D03*
X195492500Y-60750000D03*
X195492500Y-60250000D03*
X195492500Y-59750000D03*
X195492500Y-59250000D03*
D16*
X189050000Y-61475000D03*
X191950000Y-61475000D03*
D17*
X190500000Y-65525000D03*
%TD*%
D18*
%TO.C,C4*%
X205359000Y-66267500D03*
X205359000Y-64542500D03*
%TD*%
D19*
%TO.C,Conn3*%
X184150000Y-41783000D03*
X196850000Y-41783000D03*
D20*
X185420000Y-50419000D03*
X187960000Y-50419000D03*
X190500000Y-50419000D03*
X193040000Y-50419000D03*
X195580000Y-50419000D03*
%TD*%
D12*
%TO.C,R6*%
X203581000Y-60428500D03*
X203581000Y-62253500D03*
%TD*%
D11*
%TO.C,R1*%
X201525500Y-66421000D03*
X203350500Y-66421000D03*
%TD*%
D21*
%TO.C,Conn1*%
X186623000Y-55372000D03*
X194497000Y-55372000D03*
%TD*%
%TO.C,Conn2*%
X194497000Y-71628000D03*
X186623000Y-71628000D03*
%TD*%
M02*
