M48
; DRILL file {KiCad 8.0.5} date 2024-10-31T23:17:34-0500
; FORMAT={-:-/ absolute / metric / decimal}
; #@! TF.CreationDate,2024-10-31T23:17:34-05:00
; #@! TF.GenerationSoftware,Kicad,Pcbnew,8.0.5
; #@! TF.FileFunction,Plated,1,2,PTH
FMAT,2
METRIC
; #@! TA.AperFunction,Plated,PTH,ViaDrill
T1C0.400
; #@! TA.AperFunction,Plated,PTH,ComponentDrill
T2C0.800
; #@! TA.AperFunction,Plated,PTH,ComponentDrill
T3C0.900
; #@! TA.AperFunction,Plated,PTH,ComponentDrill
T4C2.000
%
G90
G05
T1
X178.562Y-56.134
X180.594Y-56.134
X182.88Y-59.69
X182.88Y-60.706
X182.88Y-61.722
X183.896Y-59.182
X183.896Y-60.198
X183.896Y-61.214
X183.896Y-62.23
X184.785Y-58.42
X186.055Y-58.42
X187.198Y-60.325
X187.198Y-61.595
X187.198Y-62.865
X187.198Y-64.135
X187.833Y-57.785
X188.722Y-58.801
X189.611Y-57.785
X191.389Y-57.785
X192.278Y-58.801
X193.167Y-57.785
X193.802Y-60.325
X193.802Y-61.595
X193.802Y-62.865
X193.802Y-64.135
X195.072Y-58.42
X196.342Y-58.42
X197.231Y-59.182
X197.231Y-60.198
X197.231Y-61.214
X197.231Y-62.23
X198.247Y-59.69
X198.247Y-60.706
X198.247Y-61.722
X199.136Y-66.675
X200.279Y-65.532
T2
X177.752Y-71.628
X180.252Y-71.628
T3
X185.42Y-50.419
X187.96Y-50.419
X190.5Y-50.419
X193.04Y-50.419
X195.58Y-50.419
T4
X187.673Y-55.372G85X185.573Y-55.372
G05
X185.573Y-71.628G85X187.673Y-71.628
G05
X195.547Y-55.372G85X193.447Y-55.372
G05
X193.447Y-71.628G85X195.547Y-71.628
G05
M30
