%TF.GenerationSoftware,KiCad,Pcbnew,8.0.5*%
%TF.CreationDate,2024-10-29T18:05:36-05:00*%
%TF.ProjectId,Dumb_MoCo,44756d62-5f4d-46f4-936f-2e6b69636164,rev?*%
%TF.SameCoordinates,Original*%
%TF.FileFunction,Copper,L2,Bot*%
%TF.FilePolarity,Positive*%
%FSLAX46Y46*%
G04 Gerber Fmt 4.6, Leading zero omitted, Abs format (unit mm)*
G04 Created by KiCad (PCBNEW 8.0.5) date 2024-10-29 18:05:36*
%MOMM*%
%LPD*%
G01*
G04 APERTURE LIST*
%TA.AperFunction,ComponentPad*%
%ADD10R,1.600000X1.600000*%
%TD*%
%TA.AperFunction,ComponentPad*%
%ADD11C,1.600000*%
%TD*%
%TA.AperFunction,ComponentPad*%
%ADD12C,1.524000*%
%TD*%
%TA.AperFunction,ComponentPad*%
%ADD13O,5.100000X3.000000*%
%TD*%
%TA.AperFunction,ViaPad*%
%ADD14C,0.800000*%
%TD*%
%TA.AperFunction,Conductor*%
%ADD15C,0.250000*%
%TD*%
G04 APERTURE END LIST*
D10*
%TO.P,C3,1*%
%TO.N,+12V*%
X180252380Y-71628000D03*
D11*
%TO.P,C3,2*%
%TO.N,GND*%
X177752380Y-71628000D03*
%TD*%
D12*
%TO.P,Conn3,1*%
%TO.N,IN_B*%
X185420000Y-50419000D03*
%TO.P,Conn3,2*%
%TO.N,PWM*%
X187960000Y-50419000D03*
%TO.P,Conn3,3*%
%TO.N,CS*%
X190500000Y-50419000D03*
%TO.P,Conn3,4*%
%TO.N,IN_A*%
X193040000Y-50419000D03*
%TO.P,Conn3,5*%
%TO.N,+3V3*%
X195580000Y-50419000D03*
%TD*%
D13*
%TO.P,Conn1,1,GND*%
%TO.N,Net-(Conn1A-GND)*%
X186623000Y-55372000D03*
%TO.P,Conn1,2,V+Log*%
%TO.N,Net-(Conn1B-V+Log)*%
X194497000Y-55372000D03*
%TD*%
%TO.P,Conn2,1,GND*%
%TO.N,GND*%
X194497000Y-71628000D03*
%TO.P,Conn2,2,V+Log*%
%TO.N,+12V*%
X186623000Y-71628000D03*
%TD*%
D14*
%TO.N,GND*%
X199136000Y-66675000D03*
X200279000Y-65532000D03*
X182880000Y-59690000D03*
X198247000Y-59690000D03*
X198247000Y-60706000D03*
X183896000Y-59182000D03*
X183896000Y-60198000D03*
X197231000Y-59182000D03*
X183896000Y-61214000D03*
X198247000Y-61722000D03*
X197231000Y-61214000D03*
X182880000Y-61722000D03*
X195072000Y-58420000D03*
X197231000Y-62230000D03*
X197231000Y-60198000D03*
X182880000Y-60706000D03*
X184785000Y-58420000D03*
X196342000Y-58420000D03*
X183896000Y-62230000D03*
X186055000Y-58420000D03*
%TO.N,Net-(Conn1B-V+Log)*%
X192278000Y-58801000D03*
X191389000Y-57785000D03*
X193802000Y-61595000D03*
X193167000Y-57785000D03*
X193802000Y-60325000D03*
X193802000Y-64135000D03*
X193802000Y-62865000D03*
%TO.N,Net-(Conn1A-GND)*%
X189611000Y-57785000D03*
X187833000Y-57785000D03*
X187198000Y-62865000D03*
X187198000Y-64135000D03*
X187198000Y-60325000D03*
X188722000Y-58801000D03*
X187198000Y-61595000D03*
%TO.N,IN_A*%
X180594000Y-56134000D03*
%TO.N,+3V3*%
X178562000Y-56134000D03*
%TD*%
D15*
%TO.N,IN_A*%
X182500396Y-51689000D02*
X191770000Y-51689000D01*
X180594000Y-53595396D02*
X182500396Y-51689000D01*
X191770000Y-51689000D02*
X193040000Y-50419000D01*
X180594000Y-56134000D02*
X180594000Y-53595396D01*
%TO.N,+3V3*%
X194310000Y-49149000D02*
X195580000Y-50419000D01*
X178562000Y-54991000D02*
X184404000Y-49149000D01*
X184404000Y-49149000D02*
X194310000Y-49149000D01*
X178562000Y-56134000D02*
X178562000Y-54991000D01*
%TD*%
%TA.AperFunction,Conductor*%
%TO.N,Net-(Conn1A-GND)*%
G36*
X188610931Y-53360002D02*
G01*
X188631905Y-53376905D01*
X190293594Y-55038594D01*
X190327620Y-55100906D01*
X190323050Y-55164786D01*
X190324570Y-55165233D01*
X190302826Y-55239285D01*
X190302824Y-55239294D01*
X190294500Y-55297192D01*
X190294500Y-63628000D01*
X190274498Y-63696121D01*
X190220842Y-63742614D01*
X190168500Y-63754000D01*
X187960000Y-63754000D01*
X187960000Y-64771000D01*
X187939998Y-64839121D01*
X187886342Y-64885614D01*
X187834000Y-64897000D01*
X184784000Y-64897000D01*
X184715879Y-64876998D01*
X184669386Y-64823342D01*
X184658000Y-64771000D01*
X184658000Y-59689000D01*
X184678002Y-59620879D01*
X184731658Y-59574386D01*
X184784000Y-59563000D01*
X186944000Y-59563000D01*
X186944000Y-57404000D01*
X184710190Y-57404000D01*
X184642069Y-57383998D01*
X184621095Y-57367095D01*
X183551905Y-56297905D01*
X183517879Y-56235593D01*
X183515000Y-56208810D01*
X183515000Y-54535190D01*
X183535002Y-54467069D01*
X183551905Y-54446095D01*
X184621095Y-53376905D01*
X184683407Y-53342879D01*
X184710190Y-53340000D01*
X188542810Y-53340000D01*
X188610931Y-53360002D01*
G37*
%TD.AperFunction*%
%TD*%
%TA.AperFunction,Conductor*%
%TO.N,GND*%
G36*
X202006166Y-37102103D02*
G01*
X202052664Y-37155755D01*
X202062773Y-37226028D01*
X202033285Y-37290611D01*
X201974630Y-37328680D01*
X201732708Y-37402066D01*
X201732687Y-37402073D01*
X201371974Y-37551486D01*
X201027643Y-37735535D01*
X200703021Y-37952440D01*
X200703006Y-37952451D01*
X200401214Y-38200126D01*
X200401194Y-38200144D01*
X200125144Y-38476194D01*
X200125126Y-38476214D01*
X199877451Y-38778006D01*
X199877440Y-38778021D01*
X199660535Y-39102643D01*
X199476486Y-39446974D01*
X199327073Y-39807687D01*
X199327072Y-39807690D01*
X199213734Y-40181318D01*
X199137570Y-40564228D01*
X199137567Y-40564248D01*
X199099300Y-40952778D01*
X199099300Y-41343221D01*
X199137567Y-41731751D01*
X199137570Y-41731771D01*
X199213734Y-42114681D01*
X199213737Y-42114692D01*
X199213738Y-42114695D01*
X199231902Y-42174573D01*
X199327072Y-42488309D01*
X199327073Y-42488312D01*
X199476486Y-42849025D01*
X199660535Y-43193356D01*
X199877440Y-43517978D01*
X199877451Y-43517993D01*
X200125126Y-43819785D01*
X200125144Y-43819805D01*
X200401194Y-44095855D01*
X200401204Y-44095864D01*
X200401208Y-44095868D01*
X200703015Y-44343555D01*
X201027646Y-44560466D01*
X201371975Y-44744514D01*
X201732686Y-44893926D01*
X202106305Y-45007262D01*
X202106314Y-45007263D01*
X202106318Y-45007265D01*
X202236230Y-45033105D01*
X202489234Y-45083431D01*
X202877785Y-45121700D01*
X202877794Y-45121700D01*
X203268206Y-45121700D01*
X203268215Y-45121700D01*
X203656766Y-45083431D01*
X203972163Y-45020694D01*
X204039681Y-45007265D01*
X204039683Y-45007264D01*
X204039695Y-45007262D01*
X204413314Y-44893926D01*
X204774025Y-44744514D01*
X205118354Y-44560466D01*
X205442985Y-44343555D01*
X205744792Y-44095868D01*
X206020868Y-43819792D01*
X206268555Y-43517985D01*
X206485466Y-43193354D01*
X206669514Y-42849025D01*
X206818926Y-42488314D01*
X206892358Y-42246238D01*
X206931272Y-42186859D01*
X206996114Y-42157944D01*
X207066295Y-42168674D01*
X207119533Y-42215643D01*
X207138932Y-42282822D01*
X207137050Y-84710985D01*
X207117045Y-84779104D01*
X207063387Y-84825595D01*
X206993113Y-84835696D01*
X206928533Y-84806200D01*
X206890476Y-84747556D01*
X206818926Y-84511686D01*
X206669514Y-84150975D01*
X206485466Y-83806646D01*
X206268555Y-83482015D01*
X206020868Y-83180208D01*
X206020864Y-83180204D01*
X206020855Y-83180194D01*
X205744805Y-82904144D01*
X205744785Y-82904126D01*
X205442993Y-82656451D01*
X205442978Y-82656440D01*
X205118356Y-82439535D01*
X204774025Y-82255486D01*
X204413312Y-82106073D01*
X204413309Y-82106072D01*
X204166003Y-82031053D01*
X204039695Y-81992738D01*
X204039692Y-81992737D01*
X204039681Y-81992734D01*
X203656771Y-81916570D01*
X203656766Y-81916569D01*
X203656761Y-81916568D01*
X203656751Y-81916567D01*
X203268221Y-81878300D01*
X203268215Y-81878300D01*
X202877785Y-81878300D01*
X202877778Y-81878300D01*
X202489248Y-81916567D01*
X202489235Y-81916568D01*
X202489234Y-81916569D01*
X202489231Y-81916569D01*
X202489228Y-81916570D01*
X202106318Y-81992734D01*
X201732690Y-82106072D01*
X201732687Y-82106073D01*
X201371974Y-82255486D01*
X201027643Y-82439535D01*
X200703021Y-82656440D01*
X200703006Y-82656451D01*
X200401214Y-82904126D01*
X200401194Y-82904144D01*
X200125144Y-83180194D01*
X200125126Y-83180214D01*
X199877451Y-83482006D01*
X199877440Y-83482021D01*
X199660535Y-83806643D01*
X199476486Y-84150974D01*
X199327073Y-84511687D01*
X199327072Y-84511690D01*
X199213734Y-84885318D01*
X199137570Y-85268228D01*
X199137567Y-85268248D01*
X199099300Y-85656778D01*
X199099300Y-86047221D01*
X199137567Y-86435751D01*
X199137570Y-86435771D01*
X199213734Y-86818681D01*
X199327072Y-87192309D01*
X199327073Y-87192312D01*
X199476486Y-87553025D01*
X199660535Y-87897356D01*
X199877440Y-88221978D01*
X199877451Y-88221993D01*
X200125126Y-88523785D01*
X200125144Y-88523805D01*
X200401194Y-88799855D01*
X200401204Y-88799864D01*
X200401208Y-88799868D01*
X200703015Y-89047555D01*
X201027646Y-89264466D01*
X201371975Y-89448514D01*
X201732686Y-89597926D01*
X201968390Y-89669426D01*
X202027770Y-89708340D01*
X202056686Y-89773182D01*
X202045955Y-89843363D01*
X201998985Y-89896602D01*
X201931813Y-89916000D01*
X179068187Y-89916000D01*
X179000066Y-89895998D01*
X178953573Y-89842342D01*
X178943469Y-89772068D01*
X178972963Y-89707488D01*
X179031609Y-89669426D01*
X179267314Y-89597926D01*
X179628025Y-89448514D01*
X179972354Y-89264466D01*
X180296985Y-89047555D01*
X180598792Y-88799868D01*
X180874868Y-88523792D01*
X181122555Y-88221985D01*
X181339466Y-87897354D01*
X181523514Y-87553025D01*
X181672926Y-87192314D01*
X181786262Y-86818695D01*
X181862431Y-86435766D01*
X181900700Y-86047215D01*
X181900700Y-85656785D01*
X181862431Y-85268234D01*
X181786262Y-84885305D01*
X181672926Y-84511686D01*
X181523514Y-84150975D01*
X181339466Y-83806646D01*
X181122555Y-83482015D01*
X180874868Y-83180208D01*
X180874864Y-83180204D01*
X180874855Y-83180194D01*
X180598805Y-82904144D01*
X180598785Y-82904126D01*
X180296993Y-82656451D01*
X180296978Y-82656440D01*
X179972356Y-82439535D01*
X179628025Y-82255486D01*
X179267312Y-82106073D01*
X179267309Y-82106072D01*
X179020003Y-82031053D01*
X178893695Y-81992738D01*
X178893692Y-81992737D01*
X178893681Y-81992734D01*
X178510771Y-81916570D01*
X178510766Y-81916569D01*
X178510761Y-81916568D01*
X178510751Y-81916567D01*
X178122221Y-81878300D01*
X178122215Y-81878300D01*
X177731785Y-81878300D01*
X177731778Y-81878300D01*
X177343248Y-81916567D01*
X177343235Y-81916568D01*
X177343234Y-81916569D01*
X177343231Y-81916569D01*
X177343228Y-81916570D01*
X176960318Y-81992734D01*
X176586690Y-82106072D01*
X176586687Y-82106073D01*
X176225974Y-82255486D01*
X175881643Y-82439535D01*
X175557021Y-82656440D01*
X175557006Y-82656451D01*
X175255214Y-82904126D01*
X175255194Y-82904144D01*
X174979144Y-83180194D01*
X174979126Y-83180214D01*
X174731451Y-83482006D01*
X174731440Y-83482021D01*
X174514535Y-83806643D01*
X174330486Y-84150974D01*
X174181073Y-84511687D01*
X174181072Y-84511690D01*
X174132305Y-84672452D01*
X174120618Y-84710985D01*
X174109575Y-84747388D01*
X174070659Y-84806769D01*
X174005818Y-84835685D01*
X173935637Y-84824954D01*
X173882398Y-84777984D01*
X173863000Y-84710812D01*
X173863000Y-69722002D01*
X178864500Y-69722002D01*
X178864500Y-73534006D01*
X178869196Y-73577681D01*
X178880582Y-73630023D01*
X178883070Y-73640203D01*
X178926079Y-73720916D01*
X178972572Y-73774572D01*
X178990165Y-73792527D01*
X178990167Y-73792528D01*
X179069986Y-73837176D01*
X179128524Y-73854363D01*
X179138104Y-73857176D01*
X179196000Y-73865500D01*
X179196003Y-73865500D01*
X188415821Y-73865500D01*
X188415821Y-73865499D01*
X188437773Y-73864323D01*
X188464556Y-73861444D01*
X188541081Y-73837483D01*
X188603393Y-73803457D01*
X188650215Y-73768405D01*
X194545405Y-67873215D01*
X194560102Y-67856855D01*
X194577005Y-67835881D01*
X194614174Y-67764827D01*
X194634176Y-67696706D01*
X194642500Y-67638810D01*
X194642500Y-65863500D01*
X194662502Y-65795379D01*
X194716158Y-65748886D01*
X194768500Y-65737500D01*
X196215994Y-65737500D01*
X196216000Y-65737500D01*
X196259681Y-65732804D01*
X196312023Y-65721418D01*
X196322203Y-65718930D01*
X196402916Y-65675921D01*
X196456572Y-65629428D01*
X196474527Y-65611835D01*
X196519174Y-65532017D01*
X196519174Y-65532016D01*
X196519176Y-65532013D01*
X196539172Y-65463908D01*
X196539176Y-65463896D01*
X196547500Y-65406000D01*
X196547500Y-65228500D01*
X196542804Y-65184819D01*
X196531418Y-65132477D01*
X196528930Y-65122297D01*
X196495046Y-65058709D01*
X196480664Y-64989187D01*
X196496280Y-64937946D01*
X196519175Y-64897015D01*
X196519175Y-64897014D01*
X196539172Y-64828908D01*
X196539176Y-64828896D01*
X196547500Y-64771000D01*
X196547500Y-59689000D01*
X196542804Y-59645319D01*
X196531418Y-59592977D01*
X196528930Y-59582797D01*
X196485921Y-59502084D01*
X196439428Y-59448428D01*
X196421835Y-59430473D01*
X196421832Y-59430471D01*
X196342013Y-59385823D01*
X196273908Y-59365827D01*
X196273899Y-59365825D01*
X196273896Y-59365824D01*
X196216000Y-59357500D01*
X196215997Y-59357500D01*
X194387500Y-59357500D01*
X194319379Y-59337498D01*
X194272886Y-59283842D01*
X194261500Y-59231500D01*
X194261500Y-57735500D01*
X194281502Y-57667379D01*
X194335158Y-57620886D01*
X194387500Y-57609500D01*
X196289821Y-57609500D01*
X196289821Y-57609499D01*
X196311773Y-57608323D01*
X196338556Y-57605444D01*
X196415081Y-57581483D01*
X196477393Y-57547457D01*
X196524215Y-57512405D01*
X197593405Y-56443215D01*
X197608102Y-56426855D01*
X197625005Y-56405881D01*
X197662174Y-56334827D01*
X197682176Y-56266706D01*
X197690500Y-56208810D01*
X197690500Y-54535190D01*
X197690500Y-54535179D01*
X197690499Y-54535178D01*
X197689323Y-54513234D01*
X197689323Y-54513227D01*
X197686444Y-54486444D01*
X197662483Y-54409919D01*
X197628457Y-54347607D01*
X197621351Y-54338115D01*
X197593410Y-54300791D01*
X197593397Y-54300776D01*
X196524234Y-53231613D01*
X196524203Y-53231584D01*
X196507859Y-53216901D01*
X196507858Y-53216900D01*
X196486884Y-53199996D01*
X196449851Y-53180624D01*
X196415827Y-53162826D01*
X196415825Y-53162825D01*
X196415823Y-53162824D01*
X196347714Y-53142826D01*
X196347709Y-53142824D01*
X196347706Y-53142824D01*
X196289810Y-53134500D01*
X192457190Y-53134500D01*
X192457179Y-53134500D01*
X192435234Y-53135676D01*
X192435199Y-53135679D01*
X192408452Y-53138554D01*
X192408446Y-53138555D01*
X192331918Y-53162517D01*
X192269603Y-53196545D01*
X192222791Y-53231589D01*
X192222776Y-53231602D01*
X190589095Y-54865284D01*
X190526783Y-54899310D01*
X190455968Y-54894245D01*
X190410905Y-54865284D01*
X188777234Y-53231613D01*
X188777203Y-53231584D01*
X188760859Y-53216901D01*
X188760858Y-53216900D01*
X188739884Y-53199996D01*
X188702851Y-53180624D01*
X188668827Y-53162826D01*
X188668825Y-53162825D01*
X188668823Y-53162824D01*
X188600714Y-53142826D01*
X188600709Y-53142824D01*
X188600706Y-53142824D01*
X188542810Y-53134500D01*
X184710190Y-53134500D01*
X184710179Y-53134500D01*
X184688234Y-53135676D01*
X184688199Y-53135679D01*
X184661452Y-53138554D01*
X184661446Y-53138555D01*
X184584918Y-53162517D01*
X184522603Y-53196545D01*
X184475791Y-53231589D01*
X184475776Y-53231602D01*
X183406613Y-54300765D01*
X183406584Y-54300796D01*
X183391901Y-54317140D01*
X183391900Y-54317141D01*
X183374996Y-54338115D01*
X183337826Y-54409173D01*
X183337824Y-54409176D01*
X183317826Y-54477285D01*
X183317824Y-54477294D01*
X183316509Y-54486444D01*
X183309500Y-54535192D01*
X183309500Y-56208821D01*
X183310676Y-56230765D01*
X183310679Y-56230800D01*
X183313554Y-56257547D01*
X183313555Y-56257553D01*
X183337517Y-56334081D01*
X183371545Y-56396396D01*
X183406589Y-56443208D01*
X183406602Y-56443223D01*
X184475765Y-57512386D01*
X184475796Y-57512415D01*
X184492140Y-57527098D01*
X184492141Y-57527099D01*
X184513115Y-57544003D01*
X184513119Y-57544005D01*
X184584173Y-57581174D01*
X184652294Y-57601176D01*
X184710190Y-57609500D01*
X186612500Y-57609500D01*
X186680621Y-57629502D01*
X186727114Y-57683158D01*
X186738500Y-57735500D01*
X186738500Y-59231500D01*
X186718498Y-59299621D01*
X186664842Y-59346114D01*
X186612500Y-59357500D01*
X184783993Y-59357500D01*
X184740318Y-59362196D01*
X184723641Y-59365824D01*
X184687977Y-59373582D01*
X184687965Y-59373584D01*
X184687960Y-59373586D01*
X184677797Y-59376070D01*
X184597084Y-59419079D01*
X184597081Y-59419081D01*
X184597080Y-59419082D01*
X184543433Y-59465567D01*
X184525471Y-59483167D01*
X184480823Y-59562986D01*
X184460827Y-59631091D01*
X184460824Y-59631104D01*
X184452500Y-59689002D01*
X184452500Y-64771006D01*
X184457196Y-64814681D01*
X184468582Y-64867023D01*
X184468586Y-64867039D01*
X184471070Y-64877203D01*
X184471071Y-64877206D01*
X184504952Y-64940788D01*
X184519335Y-65010313D01*
X184503721Y-65061550D01*
X184480824Y-65102485D01*
X184460827Y-65170591D01*
X184460824Y-65170604D01*
X184452500Y-65228502D01*
X184452500Y-65406006D01*
X184457196Y-65449681D01*
X184468582Y-65502023D01*
X184471070Y-65512203D01*
X184514079Y-65592916D01*
X184560572Y-65646572D01*
X184578165Y-65664527D01*
X184578167Y-65664528D01*
X184657986Y-65709176D01*
X184716524Y-65726363D01*
X184726104Y-65729176D01*
X184784000Y-65737500D01*
X186358500Y-65737500D01*
X186426621Y-65757502D01*
X186473114Y-65811158D01*
X186484500Y-65863500D01*
X186484500Y-67934690D01*
X186464498Y-68002811D01*
X186447595Y-68023785D01*
X185117785Y-69353595D01*
X185055473Y-69387621D01*
X185028690Y-69390500D01*
X179195993Y-69390500D01*
X179152318Y-69395196D01*
X179130394Y-69399965D01*
X179099977Y-69406582D01*
X179099965Y-69406584D01*
X179099960Y-69406586D01*
X179089797Y-69409070D01*
X179009084Y-69452079D01*
X179009081Y-69452081D01*
X179009080Y-69452082D01*
X178955433Y-69498567D01*
X178937471Y-69516167D01*
X178892823Y-69595986D01*
X178872827Y-69664091D01*
X178872824Y-69664104D01*
X178864500Y-69722002D01*
X173863000Y-69722002D01*
X173863000Y-56133999D01*
X177956318Y-56133999D01*
X177956318Y-56134000D01*
X177976955Y-56290760D01*
X178033328Y-56426855D01*
X178037464Y-56436841D01*
X178133718Y-56562282D01*
X178259159Y-56658536D01*
X178405238Y-56719044D01*
X178562000Y-56739682D01*
X178718762Y-56719044D01*
X178864841Y-56658536D01*
X178990282Y-56562282D01*
X179086536Y-56436841D01*
X179147044Y-56290762D01*
X179167682Y-56134000D01*
X179147044Y-55977238D01*
X179086536Y-55831159D01*
X178990282Y-55705718D01*
X178990280Y-55705716D01*
X178990279Y-55705715D01*
X178936796Y-55664676D01*
X178894929Y-55607338D01*
X178887500Y-55564714D01*
X178887500Y-55178016D01*
X178907502Y-55109895D01*
X178924405Y-55088921D01*
X180053405Y-53959921D01*
X180115717Y-53925895D01*
X180186532Y-53930960D01*
X180243368Y-53973507D01*
X180268179Y-54040027D01*
X180268500Y-54049016D01*
X180268500Y-55564714D01*
X180248498Y-55632835D01*
X180219204Y-55664676D01*
X180165720Y-55705715D01*
X180069465Y-55831157D01*
X180069463Y-55831160D01*
X180008955Y-55977239D01*
X179988318Y-56133999D01*
X179988318Y-56134000D01*
X180008955Y-56290760D01*
X180065328Y-56426855D01*
X180069464Y-56436841D01*
X180165718Y-56562282D01*
X180291159Y-56658536D01*
X180437238Y-56719044D01*
X180594000Y-56739682D01*
X180750762Y-56719044D01*
X180896841Y-56658536D01*
X181022282Y-56562282D01*
X181118536Y-56436841D01*
X181179044Y-56290762D01*
X181199682Y-56134000D01*
X181179044Y-55977238D01*
X181118536Y-55831159D01*
X181022282Y-55705718D01*
X181022280Y-55705716D01*
X181022279Y-55705715D01*
X180968796Y-55664676D01*
X180926929Y-55607338D01*
X180919500Y-55564714D01*
X180919500Y-53782413D01*
X180939502Y-53714292D01*
X180956405Y-53693318D01*
X182598318Y-52051405D01*
X182660630Y-52017379D01*
X182687413Y-52014500D01*
X191812851Y-52014500D01*
X191812853Y-52014500D01*
X191895639Y-51992318D01*
X191969862Y-51949465D01*
X192568072Y-51351253D01*
X192630385Y-51317229D01*
X192693742Y-51319773D01*
X192851317Y-51367573D01*
X192851321Y-51367573D01*
X192851323Y-51367574D01*
X193039997Y-51386157D01*
X193040000Y-51386157D01*
X193040003Y-51386157D01*
X193228676Y-51367574D01*
X193228677Y-51367573D01*
X193228683Y-51367573D01*
X193410115Y-51312537D01*
X193577324Y-51223162D01*
X193723883Y-51102883D01*
X193844162Y-50956324D01*
X193933537Y-50789115D01*
X193988573Y-50607683D01*
X194007157Y-50419000D01*
X193988573Y-50230317D01*
X193933537Y-50048885D01*
X193844162Y-49881676D01*
X193723883Y-49735117D01*
X193678532Y-49697898D01*
X193638564Y-49639222D01*
X193636664Y-49568251D01*
X193673435Y-49507518D01*
X193737203Y-49476307D01*
X193758467Y-49474500D01*
X194122983Y-49474500D01*
X194191104Y-49494502D01*
X194212078Y-49511405D01*
X194647746Y-49947073D01*
X194681772Y-50009385D01*
X194679226Y-50072743D01*
X194631425Y-50230323D01*
X194612843Y-50418997D01*
X194612843Y-50419002D01*
X194631425Y-50607676D01*
X194631426Y-50607682D01*
X194631427Y-50607683D01*
X194686463Y-50789115D01*
X194775838Y-50956324D01*
X194896117Y-51102883D01*
X195042676Y-51223162D01*
X195209885Y-51312537D01*
X195391317Y-51367573D01*
X195391321Y-51367573D01*
X195391323Y-51367574D01*
X195579997Y-51386157D01*
X195580000Y-51386157D01*
X195580003Y-51386157D01*
X195768676Y-51367574D01*
X195768677Y-51367573D01*
X195768683Y-51367573D01*
X195950115Y-51312537D01*
X196117324Y-51223162D01*
X196263883Y-51102883D01*
X196384162Y-50956324D01*
X196473537Y-50789115D01*
X196528573Y-50607683D01*
X196547157Y-50419000D01*
X196528573Y-50230317D01*
X196473537Y-50048885D01*
X196384162Y-49881676D01*
X196263883Y-49735117D01*
X196117324Y-49614838D01*
X195950115Y-49525463D01*
X195768683Y-49470427D01*
X195768682Y-49470426D01*
X195768676Y-49470425D01*
X195580003Y-49451843D01*
X195579997Y-49451843D01*
X195391323Y-49470425D01*
X195233743Y-49518226D01*
X195162749Y-49518859D01*
X195108074Y-49486747D01*
X194509862Y-48888535D01*
X194509860Y-48888534D01*
X194509858Y-48888532D01*
X194435643Y-48845684D01*
X194435641Y-48845683D01*
X194435639Y-48845682D01*
X194352853Y-48823500D01*
X194352851Y-48823500D01*
X184454587Y-48823500D01*
X184454571Y-48823499D01*
X184446853Y-48823499D01*
X184361147Y-48823499D01*
X184361143Y-48823499D01*
X184278365Y-48845680D01*
X184204139Y-48888534D01*
X184204136Y-48888536D01*
X184173836Y-48918837D01*
X184143535Y-48949138D01*
X184143533Y-48949140D01*
X178301540Y-54791131D01*
X178301532Y-54791141D01*
X178258681Y-54865361D01*
X178258681Y-54865365D01*
X178236500Y-54948146D01*
X178236500Y-55564714D01*
X178216498Y-55632835D01*
X178187204Y-55664676D01*
X178133720Y-55705715D01*
X178037465Y-55831157D01*
X178037463Y-55831160D01*
X177976955Y-55977239D01*
X177956318Y-56133999D01*
X173863000Y-56133999D01*
X173863000Y-42289187D01*
X173883002Y-42221066D01*
X173936658Y-42174573D01*
X174006932Y-42164469D01*
X174071512Y-42193963D01*
X174109573Y-42252609D01*
X174118739Y-42282822D01*
X174181072Y-42488309D01*
X174181073Y-42488312D01*
X174330486Y-42849025D01*
X174514535Y-43193356D01*
X174731440Y-43517978D01*
X174731451Y-43517993D01*
X174979126Y-43819785D01*
X174979144Y-43819805D01*
X175255194Y-44095855D01*
X175255204Y-44095864D01*
X175255208Y-44095868D01*
X175557015Y-44343555D01*
X175881646Y-44560466D01*
X176225975Y-44744514D01*
X176586686Y-44893926D01*
X176960305Y-45007262D01*
X176960314Y-45007263D01*
X176960318Y-45007265D01*
X177090230Y-45033105D01*
X177343234Y-45083431D01*
X177731785Y-45121700D01*
X177731794Y-45121700D01*
X178122206Y-45121700D01*
X178122215Y-45121700D01*
X178510766Y-45083431D01*
X178826163Y-45020694D01*
X178893681Y-45007265D01*
X178893683Y-45007264D01*
X178893695Y-45007262D01*
X179267314Y-44893926D01*
X179628025Y-44744514D01*
X179972354Y-44560466D01*
X180296985Y-44343555D01*
X180598792Y-44095868D01*
X180874868Y-43819792D01*
X181122555Y-43517985D01*
X181339466Y-43193354D01*
X181523514Y-42849025D01*
X181672926Y-42488314D01*
X181786262Y-42114695D01*
X181862431Y-41731766D01*
X181870138Y-41653516D01*
X182174500Y-41653516D01*
X182174500Y-41912483D01*
X182208299Y-42169221D01*
X182208301Y-42169228D01*
X182275325Y-42419366D01*
X182374426Y-42658616D01*
X182374427Y-42658617D01*
X182374432Y-42658628D01*
X182503904Y-42882880D01*
X182661553Y-43088333D01*
X182661562Y-43088343D01*
X182844656Y-43271437D01*
X182844666Y-43271446D01*
X183050119Y-43429095D01*
X183274371Y-43558567D01*
X183274375Y-43558568D01*
X183274384Y-43558574D01*
X183513634Y-43657675D01*
X183763772Y-43724699D01*
X183763776Y-43724699D01*
X183763778Y-43724700D01*
X183829949Y-43733411D01*
X184020519Y-43758500D01*
X184020526Y-43758500D01*
X184279474Y-43758500D01*
X184279481Y-43758500D01*
X184511514Y-43727952D01*
X184536221Y-43724700D01*
X184536221Y-43724699D01*
X184536228Y-43724699D01*
X184786366Y-43657675D01*
X185025616Y-43558574D01*
X185249884Y-43429093D01*
X185455333Y-43271447D01*
X185638447Y-43088333D01*
X185796093Y-42882884D01*
X185925574Y-42658616D01*
X186024675Y-42419366D01*
X186091699Y-42169228D01*
X186125500Y-41912481D01*
X186125500Y-41653519D01*
X186125500Y-41653516D01*
X194874500Y-41653516D01*
X194874500Y-41912483D01*
X194908299Y-42169221D01*
X194908301Y-42169228D01*
X194975325Y-42419366D01*
X195074426Y-42658616D01*
X195074427Y-42658617D01*
X195074432Y-42658628D01*
X195203904Y-42882880D01*
X195361553Y-43088333D01*
X195361562Y-43088343D01*
X195544656Y-43271437D01*
X195544666Y-43271446D01*
X195750119Y-43429095D01*
X195974371Y-43558567D01*
X195974375Y-43558568D01*
X195974384Y-43558574D01*
X196213634Y-43657675D01*
X196463772Y-43724699D01*
X196463776Y-43724699D01*
X196463778Y-43724700D01*
X196529949Y-43733411D01*
X196720519Y-43758500D01*
X196720526Y-43758500D01*
X196979474Y-43758500D01*
X196979481Y-43758500D01*
X197211514Y-43727952D01*
X197236221Y-43724700D01*
X197236221Y-43724699D01*
X197236228Y-43724699D01*
X197486366Y-43657675D01*
X197725616Y-43558574D01*
X197949884Y-43429093D01*
X198155333Y-43271447D01*
X198338447Y-43088333D01*
X198496093Y-42882884D01*
X198625574Y-42658616D01*
X198724675Y-42419366D01*
X198791699Y-42169228D01*
X198825500Y-41912481D01*
X198825500Y-41653519D01*
X198791699Y-41396772D01*
X198724675Y-41146634D01*
X198625574Y-40907384D01*
X198625568Y-40907375D01*
X198625567Y-40907371D01*
X198496095Y-40683119D01*
X198404882Y-40564248D01*
X198338447Y-40477667D01*
X198338446Y-40477666D01*
X198338437Y-40477656D01*
X198155343Y-40294562D01*
X198155333Y-40294553D01*
X197949880Y-40136904D01*
X197725628Y-40007432D01*
X197725620Y-40007428D01*
X197725616Y-40007426D01*
X197486366Y-39908325D01*
X197236228Y-39841301D01*
X197236221Y-39841299D01*
X196979483Y-39807500D01*
X196979481Y-39807500D01*
X196720519Y-39807500D01*
X196720516Y-39807500D01*
X196463778Y-39841299D01*
X196213634Y-39908325D01*
X195974382Y-40007427D01*
X195974371Y-40007432D01*
X195750119Y-40136904D01*
X195544666Y-40294553D01*
X195544656Y-40294562D01*
X195361562Y-40477656D01*
X195361553Y-40477666D01*
X195203904Y-40683119D01*
X195074432Y-40907371D01*
X195074427Y-40907382D01*
X195074426Y-40907384D01*
X194975325Y-41146634D01*
X194908299Y-41396778D01*
X194874500Y-41653516D01*
X186125500Y-41653516D01*
X186091699Y-41396772D01*
X186024675Y-41146634D01*
X185925574Y-40907384D01*
X185925568Y-40907375D01*
X185925567Y-40907371D01*
X185796095Y-40683119D01*
X185704882Y-40564248D01*
X185638447Y-40477667D01*
X185638446Y-40477666D01*
X185638437Y-40477656D01*
X185455343Y-40294562D01*
X185455333Y-40294553D01*
X185249880Y-40136904D01*
X185025628Y-40007432D01*
X185025620Y-40007428D01*
X185025616Y-40007426D01*
X184786366Y-39908325D01*
X184536228Y-39841301D01*
X184536221Y-39841299D01*
X184279483Y-39807500D01*
X184279481Y-39807500D01*
X184020519Y-39807500D01*
X184020516Y-39807500D01*
X183763778Y-39841299D01*
X183513634Y-39908325D01*
X183274382Y-40007427D01*
X183274371Y-40007432D01*
X183050119Y-40136904D01*
X182844666Y-40294553D01*
X182844656Y-40294562D01*
X182661562Y-40477656D01*
X182661553Y-40477666D01*
X182503904Y-40683119D01*
X182374432Y-40907371D01*
X182374427Y-40907382D01*
X182374426Y-40907384D01*
X182275325Y-41146634D01*
X182208299Y-41396778D01*
X182174500Y-41653516D01*
X181870138Y-41653516D01*
X181900700Y-41343215D01*
X181900700Y-40952785D01*
X181862431Y-40564234D01*
X181786262Y-40181305D01*
X181672926Y-39807686D01*
X181523514Y-39446975D01*
X181339466Y-39102646D01*
X181122555Y-38778015D01*
X180874868Y-38476208D01*
X180874864Y-38476204D01*
X180874855Y-38476194D01*
X180598805Y-38200144D01*
X180598785Y-38200126D01*
X180296993Y-37952451D01*
X180296978Y-37952440D01*
X179972356Y-37735535D01*
X179628025Y-37551486D01*
X179267312Y-37402073D01*
X179267309Y-37402072D01*
X179175863Y-37374332D01*
X179031311Y-37330483D01*
X178971933Y-37291570D01*
X178943017Y-37226728D01*
X178953748Y-37156547D01*
X179000718Y-37103308D01*
X179067879Y-37083910D01*
X201938045Y-37082106D01*
X202006166Y-37102103D01*
G37*
%TD.AperFunction*%
%TD*%
%TA.AperFunction,Conductor*%
%TO.N,Net-(Conn1B-V+Log)*%
G36*
X196357931Y-53360002D02*
G01*
X196378905Y-53376905D01*
X197448095Y-54446095D01*
X197482121Y-54508407D01*
X197485000Y-54535190D01*
X197485000Y-56208810D01*
X197464998Y-56276931D01*
X197448095Y-56297905D01*
X196378905Y-57367095D01*
X196316593Y-57401121D01*
X196289810Y-57404000D01*
X194056000Y-57404000D01*
X194056000Y-59563000D01*
X196216000Y-59563000D01*
X196284121Y-59583002D01*
X196330614Y-59636658D01*
X196342000Y-59689000D01*
X196342000Y-64771000D01*
X196321998Y-64839121D01*
X196268342Y-64885614D01*
X196216000Y-64897000D01*
X193166000Y-64897000D01*
X193097879Y-64876998D01*
X193051386Y-64823342D01*
X193040000Y-64771000D01*
X193040000Y-63754000D01*
X190626000Y-63754000D01*
X190557879Y-63733998D01*
X190511386Y-63680342D01*
X190500000Y-63628000D01*
X190500000Y-55297190D01*
X190520002Y-55229069D01*
X190536905Y-55208095D01*
X192368095Y-53376905D01*
X192430407Y-53342879D01*
X192457190Y-53340000D01*
X196289810Y-53340000D01*
X196357931Y-53360002D01*
G37*
%TD.AperFunction*%
%TD*%
%TA.AperFunction,Conductor*%
%TO.N,+12V*%
G36*
X190459052Y-63908279D02*
G01*
X190499986Y-63931176D01*
X190558524Y-63948363D01*
X190568104Y-63951176D01*
X190626000Y-63959500D01*
X192708500Y-63959500D01*
X192776621Y-63979502D01*
X192823114Y-64033158D01*
X192834500Y-64085500D01*
X192834500Y-64771006D01*
X192839196Y-64814681D01*
X192850582Y-64867023D01*
X192853070Y-64877203D01*
X192896079Y-64957916D01*
X192942572Y-65011572D01*
X192960165Y-65029527D01*
X192960167Y-65029528D01*
X193039986Y-65074176D01*
X193098524Y-65091363D01*
X193108104Y-65094176D01*
X193166000Y-65102500D01*
X193166003Y-65102500D01*
X196216000Y-65102500D01*
X196284121Y-65122502D01*
X196330614Y-65176158D01*
X196342000Y-65228500D01*
X196342000Y-65406000D01*
X196321998Y-65474121D01*
X196268342Y-65520614D01*
X196216000Y-65532000D01*
X194437000Y-65532000D01*
X194437000Y-67638810D01*
X194416998Y-67706931D01*
X194400095Y-67727905D01*
X188504905Y-73623095D01*
X188442593Y-73657121D01*
X188415810Y-73660000D01*
X183515000Y-73660000D01*
X182880000Y-73660000D01*
X179196000Y-73660000D01*
X179127879Y-73639998D01*
X179081386Y-73586342D01*
X179070000Y-73534000D01*
X179070000Y-69722000D01*
X179090002Y-69653879D01*
X179143658Y-69607386D01*
X179196000Y-69596000D01*
X185166000Y-69596000D01*
X186690000Y-68072000D01*
X186690000Y-65532000D01*
X184784000Y-65532000D01*
X184715879Y-65511998D01*
X184669386Y-65458342D01*
X184658000Y-65406000D01*
X184658000Y-65228500D01*
X184678002Y-65160379D01*
X184731658Y-65113886D01*
X184784000Y-65102500D01*
X187833994Y-65102500D01*
X187834000Y-65102500D01*
X187877681Y-65097804D01*
X187930023Y-65086418D01*
X187940203Y-65083930D01*
X188020916Y-65040921D01*
X188074572Y-64994428D01*
X188092527Y-64976835D01*
X188137174Y-64897017D01*
X188137174Y-64897016D01*
X188137176Y-64897013D01*
X188157172Y-64828908D01*
X188157176Y-64828896D01*
X188165500Y-64771000D01*
X188165500Y-64085500D01*
X188185502Y-64017379D01*
X188239158Y-63970886D01*
X188291500Y-63959500D01*
X190168494Y-63959500D01*
X190168500Y-63959500D01*
X190212181Y-63954804D01*
X190264523Y-63943418D01*
X190274703Y-63940930D01*
X190338288Y-63907047D01*
X190407811Y-63892664D01*
X190459052Y-63908279D01*
G37*
%TD.AperFunction*%
%TD*%
M02*
