%TF.GenerationSoftware,KiCad,Pcbnew,8.0.5*%
%TF.CreationDate,2024-10-29T18:05:36-05:00*%
%TF.ProjectId,Dumb_MoCo,44756d62-5f4d-46f4-936f-2e6b69636164,rev?*%
%TF.SameCoordinates,Original*%
%TF.FileFunction,Legend,Bot*%
%TF.FilePolarity,Positive*%
%FSLAX46Y46*%
G04 Gerber Fmt 4.6, Leading zero omitted, Abs format (unit mm)*
G04 Created by KiCad (PCBNEW 8.0.5) date 2024-10-29 18:05:36*
%MOMM*%
%LPD*%
G01*
G04 APERTURE LIST*
%ADD10C,0.150000*%
%ADD11C,0.000000*%
G04 APERTURE END LIST*
D10*
X199832580Y-48322790D02*
X199880200Y-48275171D01*
X199880200Y-48275171D02*
X199927819Y-48132314D01*
X199927819Y-48132314D02*
X199927819Y-48037076D01*
X199927819Y-48037076D02*
X199880200Y-47894219D01*
X199880200Y-47894219D02*
X199784961Y-47798981D01*
X199784961Y-47798981D02*
X199689723Y-47751362D01*
X199689723Y-47751362D02*
X199499247Y-47703743D01*
X199499247Y-47703743D02*
X199356390Y-47703743D01*
X199356390Y-47703743D02*
X199165914Y-47751362D01*
X199165914Y-47751362D02*
X199070676Y-47798981D01*
X199070676Y-47798981D02*
X198975438Y-47894219D01*
X198975438Y-47894219D02*
X198927819Y-48037076D01*
X198927819Y-48037076D02*
X198927819Y-48132314D01*
X198927819Y-48132314D02*
X198975438Y-48275171D01*
X198975438Y-48275171D02*
X199023057Y-48322790D01*
X199927819Y-48894219D02*
X199880200Y-48798981D01*
X199880200Y-48798981D02*
X199832580Y-48751362D01*
X199832580Y-48751362D02*
X199737342Y-48703743D01*
X199737342Y-48703743D02*
X199451628Y-48703743D01*
X199451628Y-48703743D02*
X199356390Y-48751362D01*
X199356390Y-48751362D02*
X199308771Y-48798981D01*
X199308771Y-48798981D02*
X199261152Y-48894219D01*
X199261152Y-48894219D02*
X199261152Y-49037076D01*
X199261152Y-49037076D02*
X199308771Y-49132314D01*
X199308771Y-49132314D02*
X199356390Y-49179933D01*
X199356390Y-49179933D02*
X199451628Y-49227552D01*
X199451628Y-49227552D02*
X199737342Y-49227552D01*
X199737342Y-49227552D02*
X199832580Y-49179933D01*
X199832580Y-49179933D02*
X199880200Y-49132314D01*
X199880200Y-49132314D02*
X199927819Y-49037076D01*
X199927819Y-49037076D02*
X199927819Y-48894219D01*
X199261152Y-49656124D02*
X199927819Y-49656124D01*
X199356390Y-49656124D02*
X199308771Y-49703743D01*
X199308771Y-49703743D02*
X199261152Y-49798981D01*
X199261152Y-49798981D02*
X199261152Y-49941838D01*
X199261152Y-49941838D02*
X199308771Y-50037076D01*
X199308771Y-50037076D02*
X199404009Y-50084695D01*
X199404009Y-50084695D02*
X199927819Y-50084695D01*
X199261152Y-50560886D02*
X199927819Y-50560886D01*
X199356390Y-50560886D02*
X199308771Y-50608505D01*
X199308771Y-50608505D02*
X199261152Y-50703743D01*
X199261152Y-50703743D02*
X199261152Y-50846600D01*
X199261152Y-50846600D02*
X199308771Y-50941838D01*
X199308771Y-50941838D02*
X199404009Y-50989457D01*
X199404009Y-50989457D02*
X199927819Y-50989457D01*
X199927819Y-51989457D02*
X199927819Y-51418029D01*
X199927819Y-51703743D02*
X198927819Y-51703743D01*
X198927819Y-51703743D02*
X199070676Y-51608505D01*
X199070676Y-51608505D02*
X199165914Y-51513267D01*
X199165914Y-51513267D02*
X199213533Y-51418029D01*
X182006580Y-75629590D02*
X182054200Y-75581971D01*
X182054200Y-75581971D02*
X182101819Y-75439114D01*
X182101819Y-75439114D02*
X182101819Y-75343876D01*
X182101819Y-75343876D02*
X182054200Y-75201019D01*
X182054200Y-75201019D02*
X181958961Y-75105781D01*
X181958961Y-75105781D02*
X181863723Y-75058162D01*
X181863723Y-75058162D02*
X181673247Y-75010543D01*
X181673247Y-75010543D02*
X181530390Y-75010543D01*
X181530390Y-75010543D02*
X181339914Y-75058162D01*
X181339914Y-75058162D02*
X181244676Y-75105781D01*
X181244676Y-75105781D02*
X181149438Y-75201019D01*
X181149438Y-75201019D02*
X181101819Y-75343876D01*
X181101819Y-75343876D02*
X181101819Y-75439114D01*
X181101819Y-75439114D02*
X181149438Y-75581971D01*
X181149438Y-75581971D02*
X181197057Y-75629590D01*
X182101819Y-76201019D02*
X182054200Y-76105781D01*
X182054200Y-76105781D02*
X182006580Y-76058162D01*
X182006580Y-76058162D02*
X181911342Y-76010543D01*
X181911342Y-76010543D02*
X181625628Y-76010543D01*
X181625628Y-76010543D02*
X181530390Y-76058162D01*
X181530390Y-76058162D02*
X181482771Y-76105781D01*
X181482771Y-76105781D02*
X181435152Y-76201019D01*
X181435152Y-76201019D02*
X181435152Y-76343876D01*
X181435152Y-76343876D02*
X181482771Y-76439114D01*
X181482771Y-76439114D02*
X181530390Y-76486733D01*
X181530390Y-76486733D02*
X181625628Y-76534352D01*
X181625628Y-76534352D02*
X181911342Y-76534352D01*
X181911342Y-76534352D02*
X182006580Y-76486733D01*
X182006580Y-76486733D02*
X182054200Y-76439114D01*
X182054200Y-76439114D02*
X182101819Y-76343876D01*
X182101819Y-76343876D02*
X182101819Y-76201019D01*
X181435152Y-76962924D02*
X182101819Y-76962924D01*
X181530390Y-76962924D02*
X181482771Y-77010543D01*
X181482771Y-77010543D02*
X181435152Y-77105781D01*
X181435152Y-77105781D02*
X181435152Y-77248638D01*
X181435152Y-77248638D02*
X181482771Y-77343876D01*
X181482771Y-77343876D02*
X181578009Y-77391495D01*
X181578009Y-77391495D02*
X182101819Y-77391495D01*
X181435152Y-77867686D02*
X182101819Y-77867686D01*
X181530390Y-77867686D02*
X181482771Y-77915305D01*
X181482771Y-77915305D02*
X181435152Y-78010543D01*
X181435152Y-78010543D02*
X181435152Y-78153400D01*
X181435152Y-78153400D02*
X181482771Y-78248638D01*
X181482771Y-78248638D02*
X181578009Y-78296257D01*
X181578009Y-78296257D02*
X182101819Y-78296257D01*
X181197057Y-78724829D02*
X181149438Y-78772448D01*
X181149438Y-78772448D02*
X181101819Y-78867686D01*
X181101819Y-78867686D02*
X181101819Y-79105781D01*
X181101819Y-79105781D02*
X181149438Y-79201019D01*
X181149438Y-79201019D02*
X181197057Y-79248638D01*
X181197057Y-79248638D02*
X181292295Y-79296257D01*
X181292295Y-79296257D02*
X181387533Y-79296257D01*
X181387533Y-79296257D02*
X181530390Y-79248638D01*
X181530390Y-79248638D02*
X182101819Y-78677210D01*
X182101819Y-78677210D02*
X182101819Y-79296257D01*
%TO.C,Conn1*%
X182686000Y-34848800D02*
X182686000Y-36068000D01*
X182686000Y-34925000D02*
X182686000Y-27178000D01*
X182686000Y-38379400D02*
X182686000Y-39471600D01*
X182686000Y-51790600D02*
X182686000Y-39497000D01*
X184997400Y-37211000D02*
X183829000Y-37211000D01*
X184997400Y-37211000D02*
X188274000Y-37211000D01*
X189417000Y-37211000D02*
X188274000Y-37211000D01*
X190534600Y-36068000D02*
X190534600Y-27178000D01*
X190560000Y-38354000D02*
X190560000Y-39497000D01*
X190560000Y-51790600D02*
X190560000Y-39497000D01*
X191703000Y-37211000D02*
X192846000Y-37211000D01*
X196148000Y-37211000D02*
X192846000Y-37211000D01*
X197291000Y-37211000D02*
X196122600Y-37211000D01*
X198434000Y-27152600D02*
X182686000Y-27152600D01*
X198434000Y-27178000D02*
X198434000Y-34925000D01*
X198434000Y-36068000D02*
X198434000Y-34899600D01*
X198434000Y-38328600D02*
X198434000Y-39522400D01*
X198434000Y-51790600D02*
X182686000Y-51790600D01*
X198434000Y-51790600D02*
X198434000Y-39497000D01*
X182686000Y-36068000D02*
G75*
G02*
X183829000Y-37211000I0J-1143000D01*
G01*
X183829000Y-37211000D02*
G75*
G02*
X182686000Y-38354000I-1143000J0D01*
G01*
X197316400Y-37211000D02*
G75*
G02*
X198434000Y-36093400I1117598J2D01*
G01*
X198434000Y-38328600D02*
G75*
G02*
X197316400Y-37211000I-2J1117598D01*
G01*
X191703000Y-37211000D02*
G75*
G02*
X189417000Y-37211000I-1143000J0D01*
G01*
X189417000Y-37211000D02*
G75*
G02*
X191703000Y-37211000I1143000J0D01*
G01*
%TO.C,Conn2*%
X182686000Y-75209400D02*
X182686000Y-87503000D01*
X182686000Y-75209400D02*
X198434000Y-75209400D01*
X182686000Y-88671400D02*
X182686000Y-87477600D01*
X182686000Y-90932000D02*
X182686000Y-92100400D01*
X182686000Y-99822000D02*
X182686000Y-92075000D01*
X182686000Y-99847400D02*
X198434000Y-99847400D01*
X183829000Y-89789000D02*
X184997400Y-89789000D01*
X184972000Y-89789000D02*
X188274000Y-89789000D01*
X189417000Y-89789000D02*
X188274000Y-89789000D01*
X190560000Y-75209400D02*
X190560000Y-87503000D01*
X190560000Y-88646000D02*
X190560000Y-87503000D01*
X190585400Y-90932000D02*
X190585400Y-99822000D01*
X191703000Y-89789000D02*
X192846000Y-89789000D01*
X196122600Y-89789000D02*
X192846000Y-89789000D01*
X196122600Y-89789000D02*
X197291000Y-89789000D01*
X198434000Y-75209400D02*
X198434000Y-87503000D01*
X198434000Y-88620600D02*
X198434000Y-87528400D01*
X198434000Y-92075000D02*
X198434000Y-99822000D01*
X198434000Y-92151200D02*
X198434000Y-90932000D01*
X182686000Y-88671400D02*
G75*
G02*
X183803600Y-89789000I2J-1117598D01*
G01*
X183803600Y-89789000D02*
G75*
G02*
X182686000Y-90906600I-1117598J-2D01*
G01*
X197291000Y-89789000D02*
G75*
G02*
X198434000Y-88646000I1143000J0D01*
G01*
X198434000Y-90932000D02*
G75*
G02*
X197291000Y-89789000I0J1143000D01*
G01*
X191703000Y-89789000D02*
G75*
G02*
X189417000Y-89789000I-1143000J0D01*
G01*
X189417000Y-89789000D02*
G75*
G02*
X191703000Y-89789000I1143000J0D01*
G01*
D11*
%TO.C,G\u002A\u002A\u002A*%
G36*
X192331515Y-61528865D02*
G01*
X192478860Y-61550031D01*
X192532000Y-61585779D01*
X192530655Y-61592809D01*
X192479891Y-61670603D01*
X192370410Y-61797362D01*
X192222395Y-61949383D01*
X192092653Y-62066401D01*
X191716040Y-62329802D01*
X191301165Y-62530612D01*
X190888257Y-62647772D01*
X190435046Y-62680409D01*
X189931716Y-62617172D01*
X189448686Y-62455957D01*
X189006395Y-62203810D01*
X188625283Y-61867775D01*
X188336953Y-61552667D01*
X188715742Y-61535913D01*
X188914255Y-61531181D01*
X189057879Y-61545365D01*
X189165014Y-61589000D01*
X189275155Y-61671671D01*
X189589402Y-61882605D01*
X189989200Y-62035159D01*
X190412960Y-62093407D01*
X190840007Y-62057100D01*
X191249662Y-61925989D01*
X191621250Y-61699828D01*
X191696202Y-61642984D01*
X191829619Y-61566962D01*
X191976924Y-61532532D01*
X192187345Y-61524445D01*
X192331515Y-61528865D01*
G37*
G36*
X195749333Y-63509711D02*
G01*
X195749333Y-66391222D01*
X195523555Y-66660889D01*
X195419568Y-66790686D01*
X195339566Y-66924051D01*
X195305140Y-67061884D01*
X195297777Y-67252705D01*
X195297777Y-67574855D01*
X194672038Y-68274983D01*
X194046298Y-68975111D01*
X193119816Y-68975111D01*
X192974304Y-68974993D01*
X192666270Y-68972948D01*
X192446027Y-68966828D01*
X192295450Y-68954664D01*
X192196410Y-68934488D01*
X192130784Y-68904330D01*
X192080444Y-68862223D01*
X192052061Y-68836443D01*
X192006904Y-68808961D01*
X191940743Y-68787951D01*
X191840453Y-68772546D01*
X191692908Y-68761883D01*
X191484980Y-68755095D01*
X191203543Y-68751317D01*
X190835471Y-68749685D01*
X190367637Y-68749334D01*
X189991781Y-68749524D01*
X189603620Y-68750779D01*
X189305076Y-68753971D01*
X189083108Y-68759964D01*
X188924678Y-68769624D01*
X188816747Y-68783815D01*
X188746276Y-68803402D01*
X188700225Y-68829249D01*
X188665555Y-68862223D01*
X188664466Y-68863422D01*
X188615661Y-68907136D01*
X188549453Y-68937743D01*
X188446746Y-68957543D01*
X188288446Y-68968837D01*
X188055458Y-68973926D01*
X187728688Y-68975111D01*
X186893983Y-68975111D01*
X186271534Y-68283667D01*
X185649086Y-67592223D01*
X185647432Y-67261389D01*
X185642642Y-67101543D01*
X185615510Y-66954095D01*
X185547510Y-66823616D01*
X185420000Y-66660889D01*
X185194222Y-66391222D01*
X185194222Y-63498479D01*
X185194222Y-60831060D01*
X185702222Y-60831060D01*
X185702222Y-63515588D01*
X185702222Y-66200116D01*
X185956222Y-66497684D01*
X185976835Y-66521900D01*
X186104717Y-66681755D01*
X186174787Y-66806127D01*
X186204227Y-66936823D01*
X186210222Y-67115650D01*
X186210222Y-67436046D01*
X186667269Y-67951579D01*
X187124316Y-68467111D01*
X187786319Y-68467111D01*
X187979829Y-68466694D01*
X188203848Y-68462534D01*
X188352868Y-68450486D01*
X188449985Y-68426449D01*
X188518293Y-68386321D01*
X188580889Y-68326000D01*
X188713456Y-68184889D01*
X190500000Y-68184889D01*
X192286544Y-68184889D01*
X192419111Y-68326000D01*
X192450906Y-68358682D01*
X192514965Y-68409412D01*
X192596631Y-68441234D01*
X192719723Y-68458534D01*
X192908060Y-68465698D01*
X193185458Y-68467111D01*
X193819239Y-68467111D01*
X194276286Y-67951579D01*
X194733333Y-67436046D01*
X194733333Y-67106796D01*
X194733402Y-67073853D01*
X194741205Y-66901171D01*
X194774391Y-66774988D01*
X194850566Y-66652662D01*
X194987333Y-66491556D01*
X195241333Y-66205565D01*
X195241333Y-63518313D01*
X195241333Y-60831060D01*
X194987333Y-60533750D01*
X194965990Y-60508696D01*
X194838424Y-60349288D01*
X194768583Y-60225120D01*
X194739281Y-60094331D01*
X194733333Y-59915061D01*
X194731672Y-59786644D01*
X194718341Y-59676672D01*
X194680719Y-59576409D01*
X194606184Y-59462285D01*
X194482114Y-59310731D01*
X194295889Y-59098176D01*
X193858444Y-58602671D01*
X193191605Y-58581891D01*
X193005551Y-58576475D01*
X192777748Y-58573276D01*
X192626416Y-58579792D01*
X192528996Y-58599070D01*
X192462929Y-58634160D01*
X192405655Y-58688111D01*
X192378873Y-58715628D01*
X192340996Y-58745147D01*
X192288492Y-58768159D01*
X192209081Y-58785476D01*
X192090477Y-58797906D01*
X191920400Y-58806260D01*
X191686565Y-58811347D01*
X191376690Y-58813978D01*
X190978492Y-58814963D01*
X190479687Y-58815111D01*
X190243294Y-58815074D01*
X189789931Y-58814459D01*
X189431624Y-58812506D01*
X189156043Y-58808474D01*
X188950860Y-58801624D01*
X188803746Y-58791214D01*
X188702374Y-58776504D01*
X188634414Y-58756754D01*
X188587538Y-58731223D01*
X188549417Y-58699170D01*
X188542193Y-58692490D01*
X188475620Y-58643953D01*
X188388083Y-58611897D01*
X188256606Y-58592790D01*
X188058216Y-58583098D01*
X187769937Y-58579287D01*
X187113870Y-58575345D01*
X186662046Y-59086716D01*
X186659069Y-59090085D01*
X186470171Y-59305434D01*
X186343469Y-59459348D01*
X186266544Y-59574657D01*
X186226974Y-59674192D01*
X186212340Y-59780784D01*
X186210222Y-59917263D01*
X186210174Y-59941960D01*
X186202258Y-60112517D01*
X186168765Y-60240160D01*
X186092488Y-60366651D01*
X185956222Y-60533750D01*
X185702222Y-60831060D01*
X185194222Y-60831060D01*
X185194222Y-60605736D01*
X185420000Y-60360796D01*
X185525485Y-60241203D01*
X185605480Y-60117369D01*
X185638995Y-59983247D01*
X185645778Y-59788804D01*
X185645778Y-59461753D01*
X186279654Y-58743321D01*
X186913530Y-58024889D01*
X187738461Y-58024889D01*
X188057535Y-58026046D01*
X188290272Y-58031143D01*
X188448208Y-58042523D01*
X188550578Y-58062527D01*
X188616616Y-58093498D01*
X188665555Y-58137778D01*
X188694210Y-58165931D01*
X188737353Y-58192727D01*
X188802729Y-58213194D01*
X188903288Y-58228183D01*
X189051981Y-58238542D01*
X189261759Y-58245120D01*
X189545573Y-58248768D01*
X189916373Y-58250334D01*
X190387111Y-58250667D01*
X190791171Y-58250446D01*
X191176742Y-58249128D01*
X191473302Y-58245862D01*
X191693801Y-58239798D01*
X191851190Y-58230086D01*
X191958420Y-58215877D01*
X192028443Y-58196322D01*
X192074208Y-58170572D01*
X192108666Y-58137778D01*
X192124174Y-58121481D01*
X192174053Y-58083542D01*
X192246145Y-58057075D01*
X192358582Y-58040070D01*
X192529498Y-58030517D01*
X192777028Y-58026404D01*
X193119303Y-58025722D01*
X194027777Y-58026554D01*
X194662778Y-58742670D01*
X195297778Y-59458787D01*
X195297777Y-59782627D01*
X195301575Y-59937014D01*
X195327755Y-60081954D01*
X195395434Y-60209042D01*
X195523555Y-60367334D01*
X195749333Y-60628199D01*
X195749333Y-60831060D01*
X195749333Y-63509711D01*
G37*
G36*
X193801498Y-60126096D02*
G01*
X193946014Y-60298996D01*
X194037150Y-60426059D01*
X194087124Y-60527634D01*
X194108150Y-60624074D01*
X194111533Y-60712039D01*
X194112444Y-60735731D01*
X194121064Y-60886880D01*
X194169694Y-61026851D01*
X194281777Y-61157556D01*
X194451111Y-61319787D01*
X194451111Y-61394489D01*
X194451111Y-63498582D01*
X194451111Y-63817356D01*
X194451111Y-65677376D01*
X194284071Y-65872799D01*
X194240345Y-65926749D01*
X194143197Y-66103871D01*
X194120912Y-66265778D01*
X194114738Y-66310636D01*
X194112915Y-66368479D01*
X194097338Y-66469612D01*
X194055423Y-66571225D01*
X193974682Y-66694000D01*
X193842770Y-66858445D01*
X193842630Y-66858620D01*
X193646777Y-67085771D01*
X193181111Y-67618492D01*
X192891689Y-67619469D01*
X192865964Y-67619369D01*
X192649830Y-67596652D01*
X192532000Y-67535778D01*
X192514706Y-67520969D01*
X192464707Y-67500957D01*
X192377715Y-67485060D01*
X192242888Y-67472830D01*
X192049385Y-67463823D01*
X191786364Y-67457593D01*
X191442984Y-67453695D01*
X191008402Y-67451683D01*
X190471777Y-67451111D01*
X190123535Y-67451324D01*
X189652018Y-67452745D01*
X189275761Y-67455885D01*
X188983923Y-67461189D01*
X188765662Y-67469104D01*
X188610136Y-67480075D01*
X188506504Y-67494547D01*
X188443925Y-67512966D01*
X188411555Y-67535778D01*
X188404502Y-67543463D01*
X188276708Y-67600628D01*
X188051866Y-67619678D01*
X187762444Y-67618912D01*
X187296777Y-67088603D01*
X187183356Y-66958721D01*
X187098884Y-66858445D01*
X189632921Y-66858445D01*
X189656902Y-66897582D01*
X189744039Y-66943111D01*
X189780586Y-66933346D01*
X189822666Y-66858445D01*
X190387111Y-66858445D01*
X190396945Y-66897929D01*
X190471777Y-66943111D01*
X190511262Y-66933277D01*
X190556444Y-66858445D01*
X191120889Y-66858445D01*
X191130723Y-66897929D01*
X191205555Y-66943111D01*
X191245040Y-66933277D01*
X191290222Y-66858445D01*
X191280388Y-66818960D01*
X191205555Y-66773778D01*
X191166071Y-66783612D01*
X191120889Y-66858445D01*
X190556444Y-66858445D01*
X190546610Y-66818960D01*
X190471777Y-66773778D01*
X190432293Y-66783612D01*
X190387111Y-66858445D01*
X189822666Y-66858445D01*
X189802086Y-66809490D01*
X189711549Y-66773778D01*
X189642099Y-66788835D01*
X189632921Y-66858445D01*
X187098884Y-66858445D01*
X187023220Y-66768625D01*
X186920229Y-66629792D01*
X186861852Y-66521462D01*
X186835558Y-66422872D01*
X186828817Y-66313258D01*
X186826917Y-66265778D01*
X190387111Y-66265778D01*
X190402825Y-66331609D01*
X190471777Y-66378667D01*
X190521151Y-66357714D01*
X190556444Y-66265778D01*
X190540730Y-66199947D01*
X190471777Y-66152889D01*
X190422404Y-66173842D01*
X190387111Y-66265778D01*
X186826917Y-66265778D01*
X186825981Y-66242378D01*
X186780210Y-66051829D01*
X186659484Y-65872799D01*
X186492444Y-65677376D01*
X186492444Y-63817356D01*
X187339111Y-63817356D01*
X187339111Y-65644889D01*
X187536666Y-65644889D01*
X187734222Y-65644889D01*
X187734222Y-64233778D01*
X187734698Y-63918906D01*
X187736489Y-63564563D01*
X187739422Y-63262654D01*
X187743294Y-63028292D01*
X187747905Y-62876592D01*
X187753052Y-62822667D01*
X187788661Y-62847770D01*
X187886468Y-62931480D01*
X188021163Y-63053611D01*
X188433494Y-63371333D01*
X188933050Y-63643737D01*
X189484967Y-63851087D01*
X190062555Y-63981255D01*
X190274222Y-64013116D01*
X190274222Y-64829002D01*
X190274222Y-65644889D01*
X190471777Y-65644889D01*
X190669333Y-65644889D01*
X190669333Y-64827520D01*
X190669416Y-64663571D01*
X190671097Y-64392219D01*
X190677017Y-64207791D01*
X190689839Y-64092668D01*
X190712225Y-64029233D01*
X190746835Y-63999866D01*
X190796333Y-63986948D01*
X190881037Y-63971507D01*
X191057188Y-63939457D01*
X191262000Y-63902236D01*
X191458288Y-63854440D01*
X191819321Y-63721874D01*
X192194867Y-63539316D01*
X192545763Y-63326670D01*
X192832846Y-63103841D01*
X192854752Y-63083898D01*
X193005017Y-62951534D01*
X193119502Y-62858075D01*
X193174914Y-62822667D01*
X193182594Y-62858319D01*
X193191237Y-62992559D01*
X193198601Y-63212338D01*
X193204318Y-63502543D01*
X193208018Y-63848061D01*
X193209333Y-64233778D01*
X193209333Y-65644889D01*
X193406889Y-65644889D01*
X193604444Y-65644889D01*
X193604444Y-63817356D01*
X193604425Y-63716461D01*
X193603507Y-63222334D01*
X193600851Y-62827777D01*
X193595959Y-62521519D01*
X193588331Y-62292286D01*
X193577470Y-62128806D01*
X193562877Y-62019806D01*
X193544052Y-61954012D01*
X193520496Y-61920152D01*
X193516299Y-61916723D01*
X193425856Y-61874788D01*
X193331093Y-61905367D01*
X193217378Y-62018313D01*
X193070079Y-62223480D01*
X192947969Y-62394044D01*
X192577388Y-62798375D01*
X192146142Y-63135894D01*
X191675984Y-63391274D01*
X191188666Y-63549186D01*
X191125308Y-63561546D01*
X190764399Y-63602068D01*
X190362138Y-63608680D01*
X189968449Y-63582205D01*
X189633258Y-63523470D01*
X189143079Y-63348468D01*
X188657067Y-63063879D01*
X188230404Y-62689235D01*
X187874984Y-62233263D01*
X187868635Y-62223361D01*
X187724255Y-62017150D01*
X187611087Y-61904268D01*
X187515300Y-61875130D01*
X187423059Y-61920152D01*
X187418425Y-61924418D01*
X187395762Y-61963219D01*
X187377739Y-62035993D01*
X187363858Y-62154014D01*
X187353619Y-62328553D01*
X187346523Y-62570884D01*
X187342073Y-62892280D01*
X187339768Y-63304013D01*
X187339111Y-63817356D01*
X186492444Y-63817356D01*
X186492444Y-63498582D01*
X186492444Y-61473398D01*
X187969002Y-61473398D01*
X188035526Y-61640640D01*
X188186663Y-61850044D01*
X188427490Y-62111199D01*
X188480136Y-62163412D01*
X188924167Y-62531027D01*
X189387929Y-62788065D01*
X189872704Y-62935258D01*
X189970780Y-62951219D01*
X190351326Y-62981915D01*
X190751697Y-62975453D01*
X191108623Y-62932000D01*
X191110130Y-62931702D01*
X191406316Y-62841243D01*
X191738118Y-62689177D01*
X192064858Y-62496767D01*
X192345858Y-62285275D01*
X192521787Y-62112836D01*
X192696002Y-61908210D01*
X192843394Y-61703012D01*
X192945425Y-61523139D01*
X192983555Y-61394489D01*
X192979315Y-61351864D01*
X192957894Y-61309351D01*
X192909626Y-61274828D01*
X192824953Y-61247570D01*
X192694315Y-61226852D01*
X192508153Y-61211948D01*
X192256908Y-61202133D01*
X191931020Y-61196683D01*
X191520930Y-61194872D01*
X191017080Y-61195976D01*
X190409909Y-61199268D01*
X189937851Y-61202459D01*
X189437377Y-61206758D01*
X189031707Y-61211781D01*
X188710766Y-61217968D01*
X188464478Y-61225756D01*
X188282766Y-61235582D01*
X188155554Y-61247886D01*
X188072766Y-61263105D01*
X188024327Y-61281678D01*
X188000159Y-61304042D01*
X187982012Y-61338726D01*
X187969002Y-61473398D01*
X186492444Y-61473398D01*
X186492444Y-61319787D01*
X186661777Y-61157556D01*
X186754985Y-61055043D01*
X186815898Y-60922134D01*
X186831111Y-60735731D01*
X186832791Y-60679550D01*
X190387111Y-60679550D01*
X190402792Y-60743798D01*
X190471777Y-60790667D01*
X190511131Y-60781598D01*
X190556444Y-60712039D01*
X190546794Y-60671990D01*
X190471777Y-60600922D01*
X190414457Y-60598686D01*
X190387111Y-60679550D01*
X186832791Y-60679550D01*
X186833994Y-60639340D01*
X186851735Y-60541915D01*
X186896593Y-60442406D01*
X186980783Y-60320459D01*
X187116522Y-60155723D01*
X187178342Y-60085111D01*
X189653333Y-60085111D01*
X189663167Y-60124596D01*
X189738000Y-60169778D01*
X189777484Y-60159944D01*
X189822666Y-60085111D01*
X190387111Y-60085111D01*
X190396945Y-60124596D01*
X190471777Y-60169778D01*
X190511262Y-60159944D01*
X190556444Y-60085111D01*
X191120889Y-60085111D01*
X191130723Y-60124596D01*
X191205555Y-60169778D01*
X191245040Y-60159944D01*
X191290222Y-60085111D01*
X191280388Y-60045627D01*
X191205555Y-60000445D01*
X191166071Y-60010279D01*
X191120889Y-60085111D01*
X190556444Y-60085111D01*
X190546610Y-60045627D01*
X190471777Y-60000445D01*
X190432293Y-60010279D01*
X190387111Y-60085111D01*
X189822666Y-60085111D01*
X189812832Y-60045627D01*
X189738000Y-60000445D01*
X189698515Y-60010279D01*
X189653333Y-60085111D01*
X187178342Y-60085111D01*
X187316026Y-59927847D01*
X187800940Y-59379556D01*
X188071114Y-59379556D01*
X188095911Y-59379777D01*
X188297280Y-59403929D01*
X188411555Y-59464223D01*
X188428849Y-59479032D01*
X188478848Y-59499043D01*
X188565840Y-59514941D01*
X188700667Y-59527170D01*
X188894170Y-59536177D01*
X189157191Y-59542407D01*
X189500571Y-59546305D01*
X189935153Y-59548317D01*
X190471777Y-59548889D01*
X190820020Y-59548676D01*
X191291537Y-59547256D01*
X191667794Y-59544116D01*
X191959632Y-59538811D01*
X192177893Y-59530896D01*
X192333419Y-59519925D01*
X192437051Y-59505453D01*
X192499630Y-59487034D01*
X192532000Y-59464223D01*
X192539108Y-59456509D01*
X192663334Y-59399686D01*
X192872441Y-59379556D01*
X193142615Y-59379556D01*
X193627529Y-59927847D01*
X193765533Y-60085111D01*
X193801498Y-60126096D01*
G37*
%TD*%
M02*
