%TF.GenerationSoftware,KiCad,Pcbnew,7.0.7*%
%TF.CreationDate,2023-11-05T22:28:57-06:00*%
%TF.ProjectId,BrushedMOCO_Breakout,42727573-6865-4644-9d4f-434f5f427265,rev?*%
%TF.SameCoordinates,Original*%
%TF.FileFunction,Paste,Top*%
%TF.FilePolarity,Positive*%
%FSLAX46Y46*%
G04 Gerber Fmt 4.6, Leading zero omitted, Abs format (unit mm)*
G04 Created by KiCad (PCBNEW 7.0.7) date 2023-11-05 22:28:57*
%MOMM*%
%LPD*%
G01*
G04 APERTURE LIST*
G04 Aperture macros list*
%AMRoundRect*
0 Rectangle with rounded corners*
0 $1 Rounding radius*
0 $2 $3 $4 $5 $6 $7 $8 $9 X,Y pos of 4 corners*
0 Add a 4 corners polygon primitive as box body*
4,1,4,$2,$3,$4,$5,$6,$7,$8,$9,$2,$3,0*
0 Add four circle primitives for the rounded corners*
1,1,$1+$1,$2,$3*
1,1,$1+$1,$4,$5*
1,1,$1+$1,$6,$7*
1,1,$1+$1,$8,$9*
0 Add four rect primitives between the rounded corners*
20,1,$1+$1,$2,$3,$4,$5,0*
20,1,$1+$1,$4,$5,$6,$7,0*
20,1,$1+$1,$6,$7,$8,$9,0*
20,1,$1+$1,$8,$9,$2,$3,0*%
G04 Aperture macros list end*
%ADD10RoundRect,0.150000X0.150000X-0.825000X0.150000X0.825000X-0.150000X0.825000X-0.150000X-0.825000X0*%
%ADD11RoundRect,0.237500X0.237500X-0.250000X0.237500X0.250000X-0.237500X0.250000X-0.237500X-0.250000X0*%
%ADD12R,1.560000X0.650000*%
%ADD13RoundRect,0.237500X0.250000X0.237500X-0.250000X0.237500X-0.250000X-0.237500X0.250000X-0.237500X0*%
%ADD14RoundRect,0.237500X-0.237500X0.287500X-0.237500X-0.287500X0.237500X-0.287500X0.237500X0.287500X0*%
%ADD15RoundRect,0.237500X-0.250000X-0.237500X0.250000X-0.237500X0.250000X0.237500X-0.250000X0.237500X0*%
%ADD16RoundRect,0.150000X-0.150000X0.825000X-0.150000X-0.825000X0.150000X-0.825000X0.150000X0.825000X0*%
%ADD17RoundRect,0.237500X0.287500X0.237500X-0.287500X0.237500X-0.287500X-0.237500X0.287500X-0.237500X0*%
%ADD18RoundRect,0.237500X0.300000X0.237500X-0.300000X0.237500X-0.300000X-0.237500X0.300000X-0.237500X0*%
%ADD19RoundRect,0.237500X-0.300000X-0.237500X0.300000X-0.237500X0.300000X0.237500X-0.300000X0.237500X0*%
G04 APERTURE END LIST*
D10*
%TO.C,U3*%
X116205000Y-114808000D03*
X117475000Y-114808000D03*
X118745000Y-114808000D03*
X120015000Y-114808000D03*
X120015000Y-109858000D03*
X118745000Y-109858000D03*
X117475000Y-109858000D03*
X116205000Y-109858000D03*
%TD*%
D11*
%TO.C,R5*%
X106553000Y-97940500D03*
X106553000Y-96115500D03*
%TD*%
D12*
%TO.C,U1*%
X108538000Y-89215000D03*
X108538000Y-88265000D03*
X108538000Y-87315000D03*
X105838000Y-87315000D03*
X105838000Y-88265000D03*
X105838000Y-89215000D03*
%TD*%
D13*
%TO.C,R1*%
X113665000Y-83947000D03*
X111840000Y-83947000D03*
%TD*%
D14*
%TO.C,D2*%
X137287000Y-106426000D03*
X137287000Y-108176000D03*
%TD*%
D15*
%TO.C,R2*%
X129286000Y-115316000D03*
X131111000Y-115316000D03*
%TD*%
D16*
%TO.C,Q2*%
X133731000Y-96142000D03*
X132461000Y-96142000D03*
X131191000Y-96142000D03*
X129921000Y-96142000D03*
X129921000Y-101092000D03*
X131191000Y-101092000D03*
X132461000Y-101092000D03*
X133731000Y-101092000D03*
%TD*%
D17*
%TO.C,D1*%
X113627500Y-81026000D03*
X111877500Y-81026000D03*
%TD*%
D13*
%TO.C,R6*%
X131318000Y-83947000D03*
X129493000Y-83947000D03*
%TD*%
D18*
%TO.C,C3*%
X122401500Y-101092000D03*
X120676500Y-101092000D03*
%TD*%
D13*
%TO.C,R4*%
X113839000Y-115316000D03*
X112014000Y-115316000D03*
%TD*%
D16*
%TO.C,Q1*%
X133731000Y-106807000D03*
X132461000Y-106807000D03*
X131191000Y-106807000D03*
X129921000Y-106807000D03*
X129921000Y-111757000D03*
X131191000Y-111757000D03*
X132461000Y-111757000D03*
X133731000Y-111757000D03*
%TD*%
D14*
%TO.C,D3*%
X105791000Y-106426000D03*
X105791000Y-108176000D03*
%TD*%
D11*
%TO.C,R3*%
X136398000Y-97940500D03*
X136398000Y-96115500D03*
%TD*%
D10*
%TO.C,U2*%
X123063000Y-114808000D03*
X124333000Y-114808000D03*
X125603000Y-114808000D03*
X126873000Y-114808000D03*
X126873000Y-109858000D03*
X125603000Y-109858000D03*
X124333000Y-109858000D03*
X123063000Y-109858000D03*
%TD*%
D17*
%TO.C,D4*%
X131280500Y-81026000D03*
X129530500Y-81026000D03*
%TD*%
D16*
%TO.C,Q4*%
X113157000Y-96142000D03*
X111887000Y-96142000D03*
X110617000Y-96142000D03*
X109347000Y-96142000D03*
X109347000Y-101092000D03*
X110617000Y-101092000D03*
X111887000Y-101092000D03*
X113157000Y-101092000D03*
%TD*%
D19*
%TO.C,C4*%
X105817500Y-103886000D03*
X107542500Y-103886000D03*
%TD*%
D16*
%TO.C,Q3*%
X113157000Y-106807000D03*
X111887000Y-106807000D03*
X110617000Y-106807000D03*
X109347000Y-106807000D03*
X109347000Y-111757000D03*
X110617000Y-111757000D03*
X111887000Y-111757000D03*
X113157000Y-111757000D03*
%TD*%
D18*
%TO.C,C2*%
X137287000Y-103886000D03*
X135562000Y-103886000D03*
%TD*%
M02*
