%TF.GenerationSoftware,KiCad,Pcbnew,7.0.7*%
%TF.CreationDate,2023-11-05T22:28:57-06:00*%
%TF.ProjectId,BrushedMOCO_Breakout,42727573-6865-4644-9d4f-434f5f427265,rev?*%
%TF.SameCoordinates,Original*%
%TF.FileFunction,Legend,Top*%
%TF.FilePolarity,Positive*%
%FSLAX46Y46*%
G04 Gerber Fmt 4.6, Leading zero omitted, Abs format (unit mm)*
G04 Created by KiCad (PCBNEW 7.0.7) date 2023-11-05 22:28:57*
%MOMM*%
%LPD*%
G01*
G04 APERTURE LIST*
%ADD10C,0.150000*%
%ADD11C,0.177800*%
%ADD12C,0.254000*%
%ADD13C,0.120000*%
G04 APERTURE END LIST*
D10*
X124856952Y-98879819D02*
X124285524Y-98879819D01*
X124571238Y-98879819D02*
X124571238Y-97879819D01*
X124571238Y-97879819D02*
X124476000Y-98022676D01*
X124476000Y-98022676D02*
X124380762Y-98117914D01*
X124380762Y-98117914D02*
X124285524Y-98165533D01*
X125237905Y-97975057D02*
X125285524Y-97927438D01*
X125285524Y-97927438D02*
X125380762Y-97879819D01*
X125380762Y-97879819D02*
X125618857Y-97879819D01*
X125618857Y-97879819D02*
X125714095Y-97927438D01*
X125714095Y-97927438D02*
X125761714Y-97975057D01*
X125761714Y-97975057D02*
X125809333Y-98070295D01*
X125809333Y-98070295D02*
X125809333Y-98165533D01*
X125809333Y-98165533D02*
X125761714Y-98308390D01*
X125761714Y-98308390D02*
X125190286Y-98879819D01*
X125190286Y-98879819D02*
X125809333Y-98879819D01*
X126095048Y-97879819D02*
X126428381Y-98879819D01*
X126428381Y-98879819D02*
X126761714Y-97879819D01*
X124523619Y-103451819D02*
X124523619Y-102451819D01*
X124523619Y-102451819D02*
X124856952Y-103166104D01*
X124856952Y-103166104D02*
X125190285Y-102451819D01*
X125190285Y-102451819D02*
X125190285Y-103451819D01*
X125666476Y-103070866D02*
X126428381Y-103070866D01*
X126047428Y-103451819D02*
X126047428Y-102689914D01*
D11*
X111495973Y-118058421D02*
X111622973Y-118100755D01*
X111622973Y-118100755D02*
X111665306Y-118143088D01*
X111665306Y-118143088D02*
X111707639Y-118227755D01*
X111707639Y-118227755D02*
X111707639Y-118354755D01*
X111707639Y-118354755D02*
X111665306Y-118439421D01*
X111665306Y-118439421D02*
X111622973Y-118481755D01*
X111622973Y-118481755D02*
X111538306Y-118524088D01*
X111538306Y-118524088D02*
X111199639Y-118524088D01*
X111199639Y-118524088D02*
X111199639Y-117635088D01*
X111199639Y-117635088D02*
X111495973Y-117635088D01*
X111495973Y-117635088D02*
X111580639Y-117677421D01*
X111580639Y-117677421D02*
X111622973Y-117719755D01*
X111622973Y-117719755D02*
X111665306Y-117804421D01*
X111665306Y-117804421D02*
X111665306Y-117889088D01*
X111665306Y-117889088D02*
X111622973Y-117973755D01*
X111622973Y-117973755D02*
X111580639Y-118016088D01*
X111580639Y-118016088D02*
X111495973Y-118058421D01*
X111495973Y-118058421D02*
X111199639Y-118058421D01*
X112088639Y-118524088D02*
X112088639Y-117931421D01*
X112088639Y-118100755D02*
X112130973Y-118016088D01*
X112130973Y-118016088D02*
X112173306Y-117973755D01*
X112173306Y-117973755D02*
X112257973Y-117931421D01*
X112257973Y-117931421D02*
X112342639Y-117931421D01*
X113019972Y-117931421D02*
X113019972Y-118524088D01*
X112638972Y-117931421D02*
X112638972Y-118397088D01*
X112638972Y-118397088D02*
X112681306Y-118481755D01*
X112681306Y-118481755D02*
X112765972Y-118524088D01*
X112765972Y-118524088D02*
X112892972Y-118524088D01*
X112892972Y-118524088D02*
X112977639Y-118481755D01*
X112977639Y-118481755D02*
X113019972Y-118439421D01*
X113400972Y-118481755D02*
X113485639Y-118524088D01*
X113485639Y-118524088D02*
X113654972Y-118524088D01*
X113654972Y-118524088D02*
X113739639Y-118481755D01*
X113739639Y-118481755D02*
X113781972Y-118397088D01*
X113781972Y-118397088D02*
X113781972Y-118354755D01*
X113781972Y-118354755D02*
X113739639Y-118270088D01*
X113739639Y-118270088D02*
X113654972Y-118227755D01*
X113654972Y-118227755D02*
X113527972Y-118227755D01*
X113527972Y-118227755D02*
X113443305Y-118185421D01*
X113443305Y-118185421D02*
X113400972Y-118100755D01*
X113400972Y-118100755D02*
X113400972Y-118058421D01*
X113400972Y-118058421D02*
X113443305Y-117973755D01*
X113443305Y-117973755D02*
X113527972Y-117931421D01*
X113527972Y-117931421D02*
X113654972Y-117931421D01*
X113654972Y-117931421D02*
X113739639Y-117973755D01*
X114162972Y-118524088D02*
X114162972Y-117635088D01*
X114543972Y-118524088D02*
X114543972Y-118058421D01*
X114543972Y-118058421D02*
X114501639Y-117973755D01*
X114501639Y-117973755D02*
X114416972Y-117931421D01*
X114416972Y-117931421D02*
X114289972Y-117931421D01*
X114289972Y-117931421D02*
X114205306Y-117973755D01*
X114205306Y-117973755D02*
X114162972Y-118016088D01*
X115305972Y-118481755D02*
X115221305Y-118524088D01*
X115221305Y-118524088D02*
X115051972Y-118524088D01*
X115051972Y-118524088D02*
X114967305Y-118481755D01*
X114967305Y-118481755D02*
X114924972Y-118397088D01*
X114924972Y-118397088D02*
X114924972Y-118058421D01*
X114924972Y-118058421D02*
X114967305Y-117973755D01*
X114967305Y-117973755D02*
X115051972Y-117931421D01*
X115051972Y-117931421D02*
X115221305Y-117931421D01*
X115221305Y-117931421D02*
X115305972Y-117973755D01*
X115305972Y-117973755D02*
X115348305Y-118058421D01*
X115348305Y-118058421D02*
X115348305Y-118143088D01*
X115348305Y-118143088D02*
X114924972Y-118227755D01*
X116110305Y-118524088D02*
X116110305Y-117635088D01*
X116110305Y-118481755D02*
X116025639Y-118524088D01*
X116025639Y-118524088D02*
X115856305Y-118524088D01*
X115856305Y-118524088D02*
X115771639Y-118481755D01*
X115771639Y-118481755D02*
X115729305Y-118439421D01*
X115729305Y-118439421D02*
X115686972Y-118354755D01*
X115686972Y-118354755D02*
X115686972Y-118100755D01*
X115686972Y-118100755D02*
X115729305Y-118016088D01*
X115729305Y-118016088D02*
X115771639Y-117973755D01*
X115771639Y-117973755D02*
X115856305Y-117931421D01*
X115856305Y-117931421D02*
X116025639Y-117931421D01*
X116025639Y-117931421D02*
X116110305Y-117973755D01*
X117210971Y-118524088D02*
X117210971Y-117635088D01*
X117210971Y-117635088D02*
X117507305Y-118270088D01*
X117507305Y-118270088D02*
X117803638Y-117635088D01*
X117803638Y-117635088D02*
X117803638Y-118524088D01*
X118353971Y-118524088D02*
X118269305Y-118481755D01*
X118269305Y-118481755D02*
X118226971Y-118439421D01*
X118226971Y-118439421D02*
X118184638Y-118354755D01*
X118184638Y-118354755D02*
X118184638Y-118100755D01*
X118184638Y-118100755D02*
X118226971Y-118016088D01*
X118226971Y-118016088D02*
X118269305Y-117973755D01*
X118269305Y-117973755D02*
X118353971Y-117931421D01*
X118353971Y-117931421D02*
X118480971Y-117931421D01*
X118480971Y-117931421D02*
X118565638Y-117973755D01*
X118565638Y-117973755D02*
X118607971Y-118016088D01*
X118607971Y-118016088D02*
X118650305Y-118100755D01*
X118650305Y-118100755D02*
X118650305Y-118354755D01*
X118650305Y-118354755D02*
X118607971Y-118439421D01*
X118607971Y-118439421D02*
X118565638Y-118481755D01*
X118565638Y-118481755D02*
X118480971Y-118524088D01*
X118480971Y-118524088D02*
X118353971Y-118524088D01*
X119539304Y-118439421D02*
X119496971Y-118481755D01*
X119496971Y-118481755D02*
X119369971Y-118524088D01*
X119369971Y-118524088D02*
X119285304Y-118524088D01*
X119285304Y-118524088D02*
X119158304Y-118481755D01*
X119158304Y-118481755D02*
X119073638Y-118397088D01*
X119073638Y-118397088D02*
X119031304Y-118312421D01*
X119031304Y-118312421D02*
X118988971Y-118143088D01*
X118988971Y-118143088D02*
X118988971Y-118016088D01*
X118988971Y-118016088D02*
X119031304Y-117846755D01*
X119031304Y-117846755D02*
X119073638Y-117762088D01*
X119073638Y-117762088D02*
X119158304Y-117677421D01*
X119158304Y-117677421D02*
X119285304Y-117635088D01*
X119285304Y-117635088D02*
X119369971Y-117635088D01*
X119369971Y-117635088D02*
X119496971Y-117677421D01*
X119496971Y-117677421D02*
X119539304Y-117719755D01*
X120047304Y-118524088D02*
X119962638Y-118481755D01*
X119962638Y-118481755D02*
X119920304Y-118439421D01*
X119920304Y-118439421D02*
X119877971Y-118354755D01*
X119877971Y-118354755D02*
X119877971Y-118100755D01*
X119877971Y-118100755D02*
X119920304Y-118016088D01*
X119920304Y-118016088D02*
X119962638Y-117973755D01*
X119962638Y-117973755D02*
X120047304Y-117931421D01*
X120047304Y-117931421D02*
X120174304Y-117931421D01*
X120174304Y-117931421D02*
X120258971Y-117973755D01*
X120258971Y-117973755D02*
X120301304Y-118016088D01*
X120301304Y-118016088D02*
X120343638Y-118100755D01*
X120343638Y-118100755D02*
X120343638Y-118354755D01*
X120343638Y-118354755D02*
X120301304Y-118439421D01*
X120301304Y-118439421D02*
X120258971Y-118481755D01*
X120258971Y-118481755D02*
X120174304Y-118524088D01*
X120174304Y-118524088D02*
X120047304Y-118524088D01*
X121698304Y-118058421D02*
X121825304Y-118100755D01*
X121825304Y-118100755D02*
X121867637Y-118143088D01*
X121867637Y-118143088D02*
X121909970Y-118227755D01*
X121909970Y-118227755D02*
X121909970Y-118354755D01*
X121909970Y-118354755D02*
X121867637Y-118439421D01*
X121867637Y-118439421D02*
X121825304Y-118481755D01*
X121825304Y-118481755D02*
X121740637Y-118524088D01*
X121740637Y-118524088D02*
X121401970Y-118524088D01*
X121401970Y-118524088D02*
X121401970Y-117635088D01*
X121401970Y-117635088D02*
X121698304Y-117635088D01*
X121698304Y-117635088D02*
X121782970Y-117677421D01*
X121782970Y-117677421D02*
X121825304Y-117719755D01*
X121825304Y-117719755D02*
X121867637Y-117804421D01*
X121867637Y-117804421D02*
X121867637Y-117889088D01*
X121867637Y-117889088D02*
X121825304Y-117973755D01*
X121825304Y-117973755D02*
X121782970Y-118016088D01*
X121782970Y-118016088D02*
X121698304Y-118058421D01*
X121698304Y-118058421D02*
X121401970Y-118058421D01*
X122290970Y-118524088D02*
X122290970Y-117931421D01*
X122290970Y-118100755D02*
X122333304Y-118016088D01*
X122333304Y-118016088D02*
X122375637Y-117973755D01*
X122375637Y-117973755D02*
X122460304Y-117931421D01*
X122460304Y-117931421D02*
X122544970Y-117931421D01*
X123179970Y-118481755D02*
X123095303Y-118524088D01*
X123095303Y-118524088D02*
X122925970Y-118524088D01*
X122925970Y-118524088D02*
X122841303Y-118481755D01*
X122841303Y-118481755D02*
X122798970Y-118397088D01*
X122798970Y-118397088D02*
X122798970Y-118058421D01*
X122798970Y-118058421D02*
X122841303Y-117973755D01*
X122841303Y-117973755D02*
X122925970Y-117931421D01*
X122925970Y-117931421D02*
X123095303Y-117931421D01*
X123095303Y-117931421D02*
X123179970Y-117973755D01*
X123179970Y-117973755D02*
X123222303Y-118058421D01*
X123222303Y-118058421D02*
X123222303Y-118143088D01*
X123222303Y-118143088D02*
X122798970Y-118227755D01*
X123984303Y-118524088D02*
X123984303Y-118058421D01*
X123984303Y-118058421D02*
X123941970Y-117973755D01*
X123941970Y-117973755D02*
X123857303Y-117931421D01*
X123857303Y-117931421D02*
X123687970Y-117931421D01*
X123687970Y-117931421D02*
X123603303Y-117973755D01*
X123984303Y-118481755D02*
X123899637Y-118524088D01*
X123899637Y-118524088D02*
X123687970Y-118524088D01*
X123687970Y-118524088D02*
X123603303Y-118481755D01*
X123603303Y-118481755D02*
X123560970Y-118397088D01*
X123560970Y-118397088D02*
X123560970Y-118312421D01*
X123560970Y-118312421D02*
X123603303Y-118227755D01*
X123603303Y-118227755D02*
X123687970Y-118185421D01*
X123687970Y-118185421D02*
X123899637Y-118185421D01*
X123899637Y-118185421D02*
X123984303Y-118143088D01*
X124407636Y-118524088D02*
X124407636Y-117635088D01*
X124492303Y-118185421D02*
X124746303Y-118524088D01*
X124746303Y-117931421D02*
X124407636Y-118270088D01*
X125254303Y-118524088D02*
X125169637Y-118481755D01*
X125169637Y-118481755D02*
X125127303Y-118439421D01*
X125127303Y-118439421D02*
X125084970Y-118354755D01*
X125084970Y-118354755D02*
X125084970Y-118100755D01*
X125084970Y-118100755D02*
X125127303Y-118016088D01*
X125127303Y-118016088D02*
X125169637Y-117973755D01*
X125169637Y-117973755D02*
X125254303Y-117931421D01*
X125254303Y-117931421D02*
X125381303Y-117931421D01*
X125381303Y-117931421D02*
X125465970Y-117973755D01*
X125465970Y-117973755D02*
X125508303Y-118016088D01*
X125508303Y-118016088D02*
X125550637Y-118100755D01*
X125550637Y-118100755D02*
X125550637Y-118354755D01*
X125550637Y-118354755D02*
X125508303Y-118439421D01*
X125508303Y-118439421D02*
X125465970Y-118481755D01*
X125465970Y-118481755D02*
X125381303Y-118524088D01*
X125381303Y-118524088D02*
X125254303Y-118524088D01*
X126312636Y-117931421D02*
X126312636Y-118524088D01*
X125931636Y-117931421D02*
X125931636Y-118397088D01*
X125931636Y-118397088D02*
X125973970Y-118481755D01*
X125973970Y-118481755D02*
X126058636Y-118524088D01*
X126058636Y-118524088D02*
X126185636Y-118524088D01*
X126185636Y-118524088D02*
X126270303Y-118481755D01*
X126270303Y-118481755D02*
X126312636Y-118439421D01*
X126608969Y-117931421D02*
X126947636Y-117931421D01*
X126735969Y-117635088D02*
X126735969Y-118397088D01*
X126735969Y-118397088D02*
X126778303Y-118481755D01*
X126778303Y-118481755D02*
X126862969Y-118524088D01*
X126862969Y-118524088D02*
X126947636Y-118524088D01*
X127286303Y-118481755D02*
X127286303Y-118524088D01*
X127286303Y-118524088D02*
X127243969Y-118608755D01*
X127243969Y-118608755D02*
X127201636Y-118651088D01*
X128852635Y-118524088D02*
X128556302Y-118100755D01*
X128344635Y-118524088D02*
X128344635Y-117635088D01*
X128344635Y-117635088D02*
X128683302Y-117635088D01*
X128683302Y-117635088D02*
X128767969Y-117677421D01*
X128767969Y-117677421D02*
X128810302Y-117719755D01*
X128810302Y-117719755D02*
X128852635Y-117804421D01*
X128852635Y-117804421D02*
X128852635Y-117931421D01*
X128852635Y-117931421D02*
X128810302Y-118016088D01*
X128810302Y-118016088D02*
X128767969Y-118058421D01*
X128767969Y-118058421D02*
X128683302Y-118100755D01*
X128683302Y-118100755D02*
X128344635Y-118100755D01*
X129572302Y-118481755D02*
X129487635Y-118524088D01*
X129487635Y-118524088D02*
X129318302Y-118524088D01*
X129318302Y-118524088D02*
X129233635Y-118481755D01*
X129233635Y-118481755D02*
X129191302Y-118397088D01*
X129191302Y-118397088D02*
X129191302Y-118058421D01*
X129191302Y-118058421D02*
X129233635Y-117973755D01*
X129233635Y-117973755D02*
X129318302Y-117931421D01*
X129318302Y-117931421D02*
X129487635Y-117931421D01*
X129487635Y-117931421D02*
X129572302Y-117973755D01*
X129572302Y-117973755D02*
X129614635Y-118058421D01*
X129614635Y-118058421D02*
X129614635Y-118143088D01*
X129614635Y-118143088D02*
X129191302Y-118227755D01*
X129910969Y-117931421D02*
X130122635Y-118524088D01*
X130122635Y-118524088D02*
X130334302Y-117931421D01*
X131138635Y-118524088D02*
X130630635Y-118524088D01*
X130884635Y-118524088D02*
X130884635Y-117635088D01*
X130884635Y-117635088D02*
X130799968Y-117762088D01*
X130799968Y-117762088D02*
X130715302Y-117846755D01*
X130715302Y-117846755D02*
X130630635Y-117889088D01*
X111199639Y-119955378D02*
X111199639Y-119066378D01*
X111199639Y-119066378D02*
X111495973Y-119701378D01*
X111495973Y-119701378D02*
X111792306Y-119066378D01*
X111792306Y-119066378D02*
X111792306Y-119955378D01*
X112596639Y-119955378D02*
X112596639Y-119489711D01*
X112596639Y-119489711D02*
X112554306Y-119405045D01*
X112554306Y-119405045D02*
X112469639Y-119362711D01*
X112469639Y-119362711D02*
X112300306Y-119362711D01*
X112300306Y-119362711D02*
X112215639Y-119405045D01*
X112596639Y-119913045D02*
X112511973Y-119955378D01*
X112511973Y-119955378D02*
X112300306Y-119955378D01*
X112300306Y-119955378D02*
X112215639Y-119913045D01*
X112215639Y-119913045D02*
X112173306Y-119828378D01*
X112173306Y-119828378D02*
X112173306Y-119743711D01*
X112173306Y-119743711D02*
X112215639Y-119659045D01*
X112215639Y-119659045D02*
X112300306Y-119616711D01*
X112300306Y-119616711D02*
X112511973Y-119616711D01*
X112511973Y-119616711D02*
X112596639Y-119574378D01*
X113019972Y-119955378D02*
X113019972Y-119362711D01*
X113019972Y-119532045D02*
X113062306Y-119447378D01*
X113062306Y-119447378D02*
X113104639Y-119405045D01*
X113104639Y-119405045D02*
X113189306Y-119362711D01*
X113189306Y-119362711D02*
X113273972Y-119362711D01*
X113527972Y-119913045D02*
X113612639Y-119955378D01*
X113612639Y-119955378D02*
X113781972Y-119955378D01*
X113781972Y-119955378D02*
X113866639Y-119913045D01*
X113866639Y-119913045D02*
X113908972Y-119828378D01*
X113908972Y-119828378D02*
X113908972Y-119786045D01*
X113908972Y-119786045D02*
X113866639Y-119701378D01*
X113866639Y-119701378D02*
X113781972Y-119659045D01*
X113781972Y-119659045D02*
X113654972Y-119659045D01*
X113654972Y-119659045D02*
X113570305Y-119616711D01*
X113570305Y-119616711D02*
X113527972Y-119532045D01*
X113527972Y-119532045D02*
X113527972Y-119489711D01*
X113527972Y-119489711D02*
X113570305Y-119405045D01*
X113570305Y-119405045D02*
X113654972Y-119362711D01*
X113654972Y-119362711D02*
X113781972Y-119362711D01*
X113781972Y-119362711D02*
X113866639Y-119405045D01*
X115475305Y-119955378D02*
X115178972Y-119532045D01*
X114967305Y-119955378D02*
X114967305Y-119066378D01*
X114967305Y-119066378D02*
X115305972Y-119066378D01*
X115305972Y-119066378D02*
X115390639Y-119108711D01*
X115390639Y-119108711D02*
X115432972Y-119151045D01*
X115432972Y-119151045D02*
X115475305Y-119235711D01*
X115475305Y-119235711D02*
X115475305Y-119362711D01*
X115475305Y-119362711D02*
X115432972Y-119447378D01*
X115432972Y-119447378D02*
X115390639Y-119489711D01*
X115390639Y-119489711D02*
X115305972Y-119532045D01*
X115305972Y-119532045D02*
X114967305Y-119532045D01*
X115983305Y-119955378D02*
X115898639Y-119913045D01*
X115898639Y-119913045D02*
X115856305Y-119870711D01*
X115856305Y-119870711D02*
X115813972Y-119786045D01*
X115813972Y-119786045D02*
X115813972Y-119532045D01*
X115813972Y-119532045D02*
X115856305Y-119447378D01*
X115856305Y-119447378D02*
X115898639Y-119405045D01*
X115898639Y-119405045D02*
X115983305Y-119362711D01*
X115983305Y-119362711D02*
X116110305Y-119362711D01*
X116110305Y-119362711D02*
X116194972Y-119405045D01*
X116194972Y-119405045D02*
X116237305Y-119447378D01*
X116237305Y-119447378D02*
X116279639Y-119532045D01*
X116279639Y-119532045D02*
X116279639Y-119786045D01*
X116279639Y-119786045D02*
X116237305Y-119870711D01*
X116237305Y-119870711D02*
X116194972Y-119913045D01*
X116194972Y-119913045D02*
X116110305Y-119955378D01*
X116110305Y-119955378D02*
X115983305Y-119955378D01*
X116575972Y-119362711D02*
X116787638Y-119955378D01*
X116787638Y-119955378D02*
X116999305Y-119362711D01*
X117676638Y-119913045D02*
X117591971Y-119955378D01*
X117591971Y-119955378D02*
X117422638Y-119955378D01*
X117422638Y-119955378D02*
X117337971Y-119913045D01*
X117337971Y-119913045D02*
X117295638Y-119828378D01*
X117295638Y-119828378D02*
X117295638Y-119489711D01*
X117295638Y-119489711D02*
X117337971Y-119405045D01*
X117337971Y-119405045D02*
X117422638Y-119362711D01*
X117422638Y-119362711D02*
X117591971Y-119362711D01*
X117591971Y-119362711D02*
X117676638Y-119405045D01*
X117676638Y-119405045D02*
X117718971Y-119489711D01*
X117718971Y-119489711D02*
X117718971Y-119574378D01*
X117718971Y-119574378D02*
X117295638Y-119659045D01*
X118099971Y-119955378D02*
X118099971Y-119362711D01*
X118099971Y-119532045D02*
X118142305Y-119447378D01*
X118142305Y-119447378D02*
X118184638Y-119405045D01*
X118184638Y-119405045D02*
X118269305Y-119362711D01*
X118269305Y-119362711D02*
X118353971Y-119362711D01*
X119327637Y-119955378D02*
X119327637Y-119066378D01*
X119327637Y-119066378D02*
X119539304Y-119066378D01*
X119539304Y-119066378D02*
X119666304Y-119108711D01*
X119666304Y-119108711D02*
X119750971Y-119193378D01*
X119750971Y-119193378D02*
X119793304Y-119278045D01*
X119793304Y-119278045D02*
X119835637Y-119447378D01*
X119835637Y-119447378D02*
X119835637Y-119574378D01*
X119835637Y-119574378D02*
X119793304Y-119743711D01*
X119793304Y-119743711D02*
X119750971Y-119828378D01*
X119750971Y-119828378D02*
X119666304Y-119913045D01*
X119666304Y-119913045D02*
X119539304Y-119955378D01*
X119539304Y-119955378D02*
X119327637Y-119955378D01*
X120555304Y-119913045D02*
X120470637Y-119955378D01*
X120470637Y-119955378D02*
X120301304Y-119955378D01*
X120301304Y-119955378D02*
X120216637Y-119913045D01*
X120216637Y-119913045D02*
X120174304Y-119828378D01*
X120174304Y-119828378D02*
X120174304Y-119489711D01*
X120174304Y-119489711D02*
X120216637Y-119405045D01*
X120216637Y-119405045D02*
X120301304Y-119362711D01*
X120301304Y-119362711D02*
X120470637Y-119362711D01*
X120470637Y-119362711D02*
X120555304Y-119405045D01*
X120555304Y-119405045D02*
X120597637Y-119489711D01*
X120597637Y-119489711D02*
X120597637Y-119574378D01*
X120597637Y-119574378D02*
X120174304Y-119659045D01*
X120936304Y-119913045D02*
X121020971Y-119955378D01*
X121020971Y-119955378D02*
X121190304Y-119955378D01*
X121190304Y-119955378D02*
X121274971Y-119913045D01*
X121274971Y-119913045D02*
X121317304Y-119828378D01*
X121317304Y-119828378D02*
X121317304Y-119786045D01*
X121317304Y-119786045D02*
X121274971Y-119701378D01*
X121274971Y-119701378D02*
X121190304Y-119659045D01*
X121190304Y-119659045D02*
X121063304Y-119659045D01*
X121063304Y-119659045D02*
X120978637Y-119616711D01*
X120978637Y-119616711D02*
X120936304Y-119532045D01*
X120936304Y-119532045D02*
X120936304Y-119489711D01*
X120936304Y-119489711D02*
X120978637Y-119405045D01*
X120978637Y-119405045D02*
X121063304Y-119362711D01*
X121063304Y-119362711D02*
X121190304Y-119362711D01*
X121190304Y-119362711D02*
X121274971Y-119405045D01*
X121698304Y-119955378D02*
X121698304Y-119362711D01*
X121698304Y-119066378D02*
X121655971Y-119108711D01*
X121655971Y-119108711D02*
X121698304Y-119151045D01*
X121698304Y-119151045D02*
X121740638Y-119108711D01*
X121740638Y-119108711D02*
X121698304Y-119066378D01*
X121698304Y-119066378D02*
X121698304Y-119151045D01*
X122502637Y-119362711D02*
X122502637Y-120082378D01*
X122502637Y-120082378D02*
X122460304Y-120167045D01*
X122460304Y-120167045D02*
X122417971Y-120209378D01*
X122417971Y-120209378D02*
X122333304Y-120251711D01*
X122333304Y-120251711D02*
X122206304Y-120251711D01*
X122206304Y-120251711D02*
X122121637Y-120209378D01*
X122502637Y-119913045D02*
X122417971Y-119955378D01*
X122417971Y-119955378D02*
X122248637Y-119955378D01*
X122248637Y-119955378D02*
X122163971Y-119913045D01*
X122163971Y-119913045D02*
X122121637Y-119870711D01*
X122121637Y-119870711D02*
X122079304Y-119786045D01*
X122079304Y-119786045D02*
X122079304Y-119532045D01*
X122079304Y-119532045D02*
X122121637Y-119447378D01*
X122121637Y-119447378D02*
X122163971Y-119405045D01*
X122163971Y-119405045D02*
X122248637Y-119362711D01*
X122248637Y-119362711D02*
X122417971Y-119362711D01*
X122417971Y-119362711D02*
X122502637Y-119405045D01*
X122925970Y-119362711D02*
X122925970Y-119955378D01*
X122925970Y-119447378D02*
X122968304Y-119405045D01*
X122968304Y-119405045D02*
X123052970Y-119362711D01*
X123052970Y-119362711D02*
X123179970Y-119362711D01*
X123179970Y-119362711D02*
X123264637Y-119405045D01*
X123264637Y-119405045D02*
X123306970Y-119489711D01*
X123306970Y-119489711D02*
X123306970Y-119955378D01*
X124280636Y-119066378D02*
X124788636Y-119066378D01*
X124534636Y-119955378D02*
X124534636Y-119066378D01*
X125423636Y-119913045D02*
X125338969Y-119955378D01*
X125338969Y-119955378D02*
X125169636Y-119955378D01*
X125169636Y-119955378D02*
X125084969Y-119913045D01*
X125084969Y-119913045D02*
X125042636Y-119828378D01*
X125042636Y-119828378D02*
X125042636Y-119489711D01*
X125042636Y-119489711D02*
X125084969Y-119405045D01*
X125084969Y-119405045D02*
X125169636Y-119362711D01*
X125169636Y-119362711D02*
X125338969Y-119362711D01*
X125338969Y-119362711D02*
X125423636Y-119405045D01*
X125423636Y-119405045D02*
X125465969Y-119489711D01*
X125465969Y-119489711D02*
X125465969Y-119574378D01*
X125465969Y-119574378D02*
X125042636Y-119659045D01*
X126227969Y-119955378D02*
X126227969Y-119489711D01*
X126227969Y-119489711D02*
X126185636Y-119405045D01*
X126185636Y-119405045D02*
X126100969Y-119362711D01*
X126100969Y-119362711D02*
X125931636Y-119362711D01*
X125931636Y-119362711D02*
X125846969Y-119405045D01*
X126227969Y-119913045D02*
X126143303Y-119955378D01*
X126143303Y-119955378D02*
X125931636Y-119955378D01*
X125931636Y-119955378D02*
X125846969Y-119913045D01*
X125846969Y-119913045D02*
X125804636Y-119828378D01*
X125804636Y-119828378D02*
X125804636Y-119743711D01*
X125804636Y-119743711D02*
X125846969Y-119659045D01*
X125846969Y-119659045D02*
X125931636Y-119616711D01*
X125931636Y-119616711D02*
X126143303Y-119616711D01*
X126143303Y-119616711D02*
X126227969Y-119574378D01*
X126651302Y-119955378D02*
X126651302Y-119362711D01*
X126651302Y-119447378D02*
X126693636Y-119405045D01*
X126693636Y-119405045D02*
X126778302Y-119362711D01*
X126778302Y-119362711D02*
X126905302Y-119362711D01*
X126905302Y-119362711D02*
X126989969Y-119405045D01*
X126989969Y-119405045D02*
X127032302Y-119489711D01*
X127032302Y-119489711D02*
X127032302Y-119955378D01*
X127032302Y-119489711D02*
X127074636Y-119405045D01*
X127074636Y-119405045D02*
X127159302Y-119362711D01*
X127159302Y-119362711D02*
X127286302Y-119362711D01*
X127286302Y-119362711D02*
X127370969Y-119405045D01*
X127370969Y-119405045D02*
X127413302Y-119489711D01*
X127413302Y-119489711D02*
X127413302Y-119955378D01*
X111199639Y-121386668D02*
X111199639Y-120497668D01*
X111199639Y-120497668D02*
X111495973Y-121132668D01*
X111495973Y-121132668D02*
X111792306Y-120497668D01*
X111792306Y-120497668D02*
X111792306Y-121386668D01*
X112215639Y-121386668D02*
X112215639Y-120794001D01*
X112215639Y-120497668D02*
X112173306Y-120540001D01*
X112173306Y-120540001D02*
X112215639Y-120582335D01*
X112215639Y-120582335D02*
X112257973Y-120540001D01*
X112257973Y-120540001D02*
X112215639Y-120497668D01*
X112215639Y-120497668D02*
X112215639Y-120582335D01*
X112596639Y-121344335D02*
X112681306Y-121386668D01*
X112681306Y-121386668D02*
X112850639Y-121386668D01*
X112850639Y-121386668D02*
X112935306Y-121344335D01*
X112935306Y-121344335D02*
X112977639Y-121259668D01*
X112977639Y-121259668D02*
X112977639Y-121217335D01*
X112977639Y-121217335D02*
X112935306Y-121132668D01*
X112935306Y-121132668D02*
X112850639Y-121090335D01*
X112850639Y-121090335D02*
X112723639Y-121090335D01*
X112723639Y-121090335D02*
X112638972Y-121048001D01*
X112638972Y-121048001D02*
X112596639Y-120963335D01*
X112596639Y-120963335D02*
X112596639Y-120921001D01*
X112596639Y-120921001D02*
X112638972Y-120836335D01*
X112638972Y-120836335D02*
X112723639Y-120794001D01*
X112723639Y-120794001D02*
X112850639Y-120794001D01*
X112850639Y-120794001D02*
X112935306Y-120836335D01*
X113316306Y-121344335D02*
X113400973Y-121386668D01*
X113400973Y-121386668D02*
X113570306Y-121386668D01*
X113570306Y-121386668D02*
X113654973Y-121344335D01*
X113654973Y-121344335D02*
X113697306Y-121259668D01*
X113697306Y-121259668D02*
X113697306Y-121217335D01*
X113697306Y-121217335D02*
X113654973Y-121132668D01*
X113654973Y-121132668D02*
X113570306Y-121090335D01*
X113570306Y-121090335D02*
X113443306Y-121090335D01*
X113443306Y-121090335D02*
X113358639Y-121048001D01*
X113358639Y-121048001D02*
X113316306Y-120963335D01*
X113316306Y-120963335D02*
X113316306Y-120921001D01*
X113316306Y-120921001D02*
X113358639Y-120836335D01*
X113358639Y-120836335D02*
X113443306Y-120794001D01*
X113443306Y-120794001D02*
X113570306Y-120794001D01*
X113570306Y-120794001D02*
X113654973Y-120836335D01*
X114205306Y-121386668D02*
X114120640Y-121344335D01*
X114120640Y-121344335D02*
X114078306Y-121302001D01*
X114078306Y-121302001D02*
X114035973Y-121217335D01*
X114035973Y-121217335D02*
X114035973Y-120963335D01*
X114035973Y-120963335D02*
X114078306Y-120878668D01*
X114078306Y-120878668D02*
X114120640Y-120836335D01*
X114120640Y-120836335D02*
X114205306Y-120794001D01*
X114205306Y-120794001D02*
X114332306Y-120794001D01*
X114332306Y-120794001D02*
X114416973Y-120836335D01*
X114416973Y-120836335D02*
X114459306Y-120878668D01*
X114459306Y-120878668D02*
X114501640Y-120963335D01*
X114501640Y-120963335D02*
X114501640Y-121217335D01*
X114501640Y-121217335D02*
X114459306Y-121302001D01*
X114459306Y-121302001D02*
X114416973Y-121344335D01*
X114416973Y-121344335D02*
X114332306Y-121386668D01*
X114332306Y-121386668D02*
X114205306Y-121386668D01*
X115263639Y-120794001D02*
X115263639Y-121386668D01*
X114882639Y-120794001D02*
X114882639Y-121259668D01*
X114882639Y-121259668D02*
X114924973Y-121344335D01*
X114924973Y-121344335D02*
X115009639Y-121386668D01*
X115009639Y-121386668D02*
X115136639Y-121386668D01*
X115136639Y-121386668D02*
X115221306Y-121344335D01*
X115221306Y-121344335D02*
X115263639Y-121302001D01*
X115686972Y-121386668D02*
X115686972Y-120794001D01*
X115686972Y-120963335D02*
X115729306Y-120878668D01*
X115729306Y-120878668D02*
X115771639Y-120836335D01*
X115771639Y-120836335D02*
X115856306Y-120794001D01*
X115856306Y-120794001D02*
X115940972Y-120794001D01*
X116237305Y-121386668D02*
X116237305Y-120794001D01*
X116237305Y-120497668D02*
X116194972Y-120540001D01*
X116194972Y-120540001D02*
X116237305Y-120582335D01*
X116237305Y-120582335D02*
X116279639Y-120540001D01*
X116279639Y-120540001D02*
X116237305Y-120497668D01*
X116237305Y-120497668D02*
X116237305Y-120582335D01*
X117295638Y-121344335D02*
X117422638Y-121386668D01*
X117422638Y-121386668D02*
X117634305Y-121386668D01*
X117634305Y-121386668D02*
X117718971Y-121344335D01*
X117718971Y-121344335D02*
X117761305Y-121302001D01*
X117761305Y-121302001D02*
X117803638Y-121217335D01*
X117803638Y-121217335D02*
X117803638Y-121132668D01*
X117803638Y-121132668D02*
X117761305Y-121048001D01*
X117761305Y-121048001D02*
X117718971Y-121005668D01*
X117718971Y-121005668D02*
X117634305Y-120963335D01*
X117634305Y-120963335D02*
X117464971Y-120921001D01*
X117464971Y-120921001D02*
X117380305Y-120878668D01*
X117380305Y-120878668D02*
X117337971Y-120836335D01*
X117337971Y-120836335D02*
X117295638Y-120751668D01*
X117295638Y-120751668D02*
X117295638Y-120667001D01*
X117295638Y-120667001D02*
X117337971Y-120582335D01*
X117337971Y-120582335D02*
X117380305Y-120540001D01*
X117380305Y-120540001D02*
X117464971Y-120497668D01*
X117464971Y-120497668D02*
X117676638Y-120497668D01*
X117676638Y-120497668D02*
X117803638Y-120540001D01*
X118904305Y-121386668D02*
X118861972Y-121386668D01*
X118861972Y-121386668D02*
X118777305Y-121344335D01*
X118777305Y-121344335D02*
X118650305Y-121217335D01*
X118650305Y-121217335D02*
X118438638Y-120963335D01*
X118438638Y-120963335D02*
X118353972Y-120836335D01*
X118353972Y-120836335D02*
X118311638Y-120709335D01*
X118311638Y-120709335D02*
X118311638Y-120624668D01*
X118311638Y-120624668D02*
X118353972Y-120540001D01*
X118353972Y-120540001D02*
X118438638Y-120497668D01*
X118438638Y-120497668D02*
X118480972Y-120497668D01*
X118480972Y-120497668D02*
X118565638Y-120540001D01*
X118565638Y-120540001D02*
X118607972Y-120624668D01*
X118607972Y-120624668D02*
X118607972Y-120667001D01*
X118607972Y-120667001D02*
X118565638Y-120751668D01*
X118565638Y-120751668D02*
X118523305Y-120794001D01*
X118523305Y-120794001D02*
X118269305Y-120963335D01*
X118269305Y-120963335D02*
X118226972Y-121005668D01*
X118226972Y-121005668D02*
X118184638Y-121090335D01*
X118184638Y-121090335D02*
X118184638Y-121217335D01*
X118184638Y-121217335D02*
X118226972Y-121302001D01*
X118226972Y-121302001D02*
X118269305Y-121344335D01*
X118269305Y-121344335D02*
X118353972Y-121386668D01*
X118353972Y-121386668D02*
X118480972Y-121386668D01*
X118480972Y-121386668D02*
X118565638Y-121344335D01*
X118565638Y-121344335D02*
X118607972Y-121302001D01*
X118607972Y-121302001D02*
X118734972Y-121132668D01*
X118734972Y-121132668D02*
X118777305Y-121005668D01*
X118777305Y-121005668D02*
X118777305Y-120921001D01*
X119158305Y-120497668D02*
X119666305Y-120497668D01*
X119412305Y-121386668D02*
X119412305Y-120497668D01*
X120004972Y-121344335D02*
X120004972Y-121386668D01*
X120004972Y-121386668D02*
X119962638Y-121471335D01*
X119962638Y-121471335D02*
X119920305Y-121513668D01*
X121020971Y-120582335D02*
X121063304Y-120540001D01*
X121063304Y-120540001D02*
X121147971Y-120497668D01*
X121147971Y-120497668D02*
X121359638Y-120497668D01*
X121359638Y-120497668D02*
X121444304Y-120540001D01*
X121444304Y-120540001D02*
X121486638Y-120582335D01*
X121486638Y-120582335D02*
X121528971Y-120667001D01*
X121528971Y-120667001D02*
X121528971Y-120751668D01*
X121528971Y-120751668D02*
X121486638Y-120878668D01*
X121486638Y-120878668D02*
X120978638Y-121386668D01*
X120978638Y-121386668D02*
X121528971Y-121386668D01*
X122079305Y-120497668D02*
X122163971Y-120497668D01*
X122163971Y-120497668D02*
X122248638Y-120540001D01*
X122248638Y-120540001D02*
X122290971Y-120582335D01*
X122290971Y-120582335D02*
X122333305Y-120667001D01*
X122333305Y-120667001D02*
X122375638Y-120836335D01*
X122375638Y-120836335D02*
X122375638Y-121048001D01*
X122375638Y-121048001D02*
X122333305Y-121217335D01*
X122333305Y-121217335D02*
X122290971Y-121302001D01*
X122290971Y-121302001D02*
X122248638Y-121344335D01*
X122248638Y-121344335D02*
X122163971Y-121386668D01*
X122163971Y-121386668D02*
X122079305Y-121386668D01*
X122079305Y-121386668D02*
X121994638Y-121344335D01*
X121994638Y-121344335D02*
X121952305Y-121302001D01*
X121952305Y-121302001D02*
X121909971Y-121217335D01*
X121909971Y-121217335D02*
X121867638Y-121048001D01*
X121867638Y-121048001D02*
X121867638Y-120836335D01*
X121867638Y-120836335D02*
X121909971Y-120667001D01*
X121909971Y-120667001D02*
X121952305Y-120582335D01*
X121952305Y-120582335D02*
X121994638Y-120540001D01*
X121994638Y-120540001D02*
X122079305Y-120497668D01*
X122714305Y-120582335D02*
X122756638Y-120540001D01*
X122756638Y-120540001D02*
X122841305Y-120497668D01*
X122841305Y-120497668D02*
X123052972Y-120497668D01*
X123052972Y-120497668D02*
X123137638Y-120540001D01*
X123137638Y-120540001D02*
X123179972Y-120582335D01*
X123179972Y-120582335D02*
X123222305Y-120667001D01*
X123222305Y-120667001D02*
X123222305Y-120751668D01*
X123222305Y-120751668D02*
X123179972Y-120878668D01*
X123179972Y-120878668D02*
X122671972Y-121386668D01*
X122671972Y-121386668D02*
X123222305Y-121386668D01*
X123984305Y-120794001D02*
X123984305Y-121386668D01*
X123772639Y-120455335D02*
X123560972Y-121090335D01*
X123560972Y-121090335D02*
X124111305Y-121090335D01*
X111199639Y-122817958D02*
X111199639Y-121928958D01*
X111199639Y-121928958D02*
X111707639Y-122817958D01*
X111707639Y-122817958D02*
X111707639Y-121928958D01*
X112130972Y-122817958D02*
X112130972Y-122225291D01*
X112130972Y-121928958D02*
X112088639Y-121971291D01*
X112088639Y-121971291D02*
X112130972Y-122013625D01*
X112130972Y-122013625D02*
X112173306Y-121971291D01*
X112173306Y-121971291D02*
X112130972Y-121928958D01*
X112130972Y-121928958D02*
X112130972Y-122013625D01*
X112554305Y-122817958D02*
X112554305Y-121928958D01*
X112638972Y-122479291D02*
X112892972Y-122817958D01*
X112892972Y-122225291D02*
X112554305Y-122563958D01*
X113400972Y-122817958D02*
X113316306Y-122775625D01*
X113316306Y-122775625D02*
X113273972Y-122733291D01*
X113273972Y-122733291D02*
X113231639Y-122648625D01*
X113231639Y-122648625D02*
X113231639Y-122394625D01*
X113231639Y-122394625D02*
X113273972Y-122309958D01*
X113273972Y-122309958D02*
X113316306Y-122267625D01*
X113316306Y-122267625D02*
X113400972Y-122225291D01*
X113400972Y-122225291D02*
X113527972Y-122225291D01*
X113527972Y-122225291D02*
X113612639Y-122267625D01*
X113612639Y-122267625D02*
X113654972Y-122309958D01*
X113654972Y-122309958D02*
X113697306Y-122394625D01*
X113697306Y-122394625D02*
X113697306Y-122648625D01*
X113697306Y-122648625D02*
X113654972Y-122733291D01*
X113654972Y-122733291D02*
X113612639Y-122775625D01*
X113612639Y-122775625D02*
X113527972Y-122817958D01*
X113527972Y-122817958D02*
X113400972Y-122817958D01*
X114205305Y-122817958D02*
X114120639Y-122775625D01*
X114120639Y-122775625D02*
X114078305Y-122690958D01*
X114078305Y-122690958D02*
X114078305Y-121928958D01*
X114924972Y-122817958D02*
X114924972Y-122352291D01*
X114924972Y-122352291D02*
X114882639Y-122267625D01*
X114882639Y-122267625D02*
X114797972Y-122225291D01*
X114797972Y-122225291D02*
X114628639Y-122225291D01*
X114628639Y-122225291D02*
X114543972Y-122267625D01*
X114924972Y-122775625D02*
X114840306Y-122817958D01*
X114840306Y-122817958D02*
X114628639Y-122817958D01*
X114628639Y-122817958D02*
X114543972Y-122775625D01*
X114543972Y-122775625D02*
X114501639Y-122690958D01*
X114501639Y-122690958D02*
X114501639Y-122606291D01*
X114501639Y-122606291D02*
X114543972Y-122521625D01*
X114543972Y-122521625D02*
X114628639Y-122479291D01*
X114628639Y-122479291D02*
X114840306Y-122479291D01*
X114840306Y-122479291D02*
X114924972Y-122436958D01*
X115305972Y-122775625D02*
X115390639Y-122817958D01*
X115390639Y-122817958D02*
X115559972Y-122817958D01*
X115559972Y-122817958D02*
X115644639Y-122775625D01*
X115644639Y-122775625D02*
X115686972Y-122690958D01*
X115686972Y-122690958D02*
X115686972Y-122648625D01*
X115686972Y-122648625D02*
X115644639Y-122563958D01*
X115644639Y-122563958D02*
X115559972Y-122521625D01*
X115559972Y-122521625D02*
X115432972Y-122521625D01*
X115432972Y-122521625D02*
X115348305Y-122479291D01*
X115348305Y-122479291D02*
X115305972Y-122394625D01*
X115305972Y-122394625D02*
X115305972Y-122352291D01*
X115305972Y-122352291D02*
X115348305Y-122267625D01*
X115348305Y-122267625D02*
X115432972Y-122225291D01*
X115432972Y-122225291D02*
X115559972Y-122225291D01*
X115559972Y-122225291D02*
X115644639Y-122267625D01*
X116745305Y-122817958D02*
X116745305Y-121928958D01*
X116745305Y-122352291D02*
X117253305Y-122352291D01*
X117253305Y-122817958D02*
X117253305Y-121928958D01*
X117676638Y-122817958D02*
X117676638Y-122225291D01*
X117676638Y-121928958D02*
X117634305Y-121971291D01*
X117634305Y-121971291D02*
X117676638Y-122013625D01*
X117676638Y-122013625D02*
X117718972Y-121971291D01*
X117718972Y-121971291D02*
X117676638Y-121928958D01*
X117676638Y-121928958D02*
X117676638Y-122013625D01*
X118480971Y-122817958D02*
X118480971Y-121928958D01*
X118480971Y-122775625D02*
X118396305Y-122817958D01*
X118396305Y-122817958D02*
X118226971Y-122817958D01*
X118226971Y-122817958D02*
X118142305Y-122775625D01*
X118142305Y-122775625D02*
X118099971Y-122733291D01*
X118099971Y-122733291D02*
X118057638Y-122648625D01*
X118057638Y-122648625D02*
X118057638Y-122394625D01*
X118057638Y-122394625D02*
X118099971Y-122309958D01*
X118099971Y-122309958D02*
X118142305Y-122267625D01*
X118142305Y-122267625D02*
X118226971Y-122225291D01*
X118226971Y-122225291D02*
X118396305Y-122225291D01*
X118396305Y-122225291D02*
X118480971Y-122267625D01*
X119285304Y-122817958D02*
X119285304Y-122352291D01*
X119285304Y-122352291D02*
X119242971Y-122267625D01*
X119242971Y-122267625D02*
X119158304Y-122225291D01*
X119158304Y-122225291D02*
X118988971Y-122225291D01*
X118988971Y-122225291D02*
X118904304Y-122267625D01*
X119285304Y-122775625D02*
X119200638Y-122817958D01*
X119200638Y-122817958D02*
X118988971Y-122817958D01*
X118988971Y-122817958D02*
X118904304Y-122775625D01*
X118904304Y-122775625D02*
X118861971Y-122690958D01*
X118861971Y-122690958D02*
X118861971Y-122606291D01*
X118861971Y-122606291D02*
X118904304Y-122521625D01*
X118904304Y-122521625D02*
X118988971Y-122479291D01*
X118988971Y-122479291D02*
X119200638Y-122479291D01*
X119200638Y-122479291D02*
X119285304Y-122436958D01*
X119623971Y-122225291D02*
X119835637Y-122817958D01*
X120047304Y-122225291D02*
X119835637Y-122817958D01*
X119835637Y-122817958D02*
X119750971Y-123029625D01*
X119750971Y-123029625D02*
X119708637Y-123071958D01*
X119708637Y-123071958D02*
X119623971Y-123114291D01*
X120766970Y-122817958D02*
X120766970Y-122352291D01*
X120766970Y-122352291D02*
X120724637Y-122267625D01*
X120724637Y-122267625D02*
X120639970Y-122225291D01*
X120639970Y-122225291D02*
X120470637Y-122225291D01*
X120470637Y-122225291D02*
X120385970Y-122267625D01*
X120766970Y-122775625D02*
X120682304Y-122817958D01*
X120682304Y-122817958D02*
X120470637Y-122817958D01*
X120470637Y-122817958D02*
X120385970Y-122775625D01*
X120385970Y-122775625D02*
X120343637Y-122690958D01*
X120343637Y-122690958D02*
X120343637Y-122606291D01*
X120343637Y-122606291D02*
X120385970Y-122521625D01*
X120385970Y-122521625D02*
X120470637Y-122479291D01*
X120470637Y-122479291D02*
X120682304Y-122479291D01*
X120682304Y-122479291D02*
X120766970Y-122436958D01*
X121063303Y-122225291D02*
X121401970Y-122225291D01*
X121190303Y-121928958D02*
X121190303Y-122690958D01*
X121190303Y-122690958D02*
X121232637Y-122775625D01*
X121232637Y-122775625D02*
X121317303Y-122817958D01*
X121317303Y-122817958D02*
X121401970Y-122817958D01*
X121740637Y-122775625D02*
X121740637Y-122817958D01*
X121740637Y-122817958D02*
X121698303Y-122902625D01*
X121698303Y-122902625D02*
X121655970Y-122944958D01*
X122798969Y-122352291D02*
X123095303Y-122352291D01*
X123222303Y-122817958D02*
X122798969Y-122817958D01*
X122798969Y-122817958D02*
X122798969Y-121928958D01*
X122798969Y-121928958D02*
X123222303Y-121928958D01*
X123518636Y-122225291D02*
X123730302Y-122817958D01*
X123730302Y-122817958D02*
X123941969Y-122225291D01*
X124661635Y-122817958D02*
X124661635Y-122352291D01*
X124661635Y-122352291D02*
X124619302Y-122267625D01*
X124619302Y-122267625D02*
X124534635Y-122225291D01*
X124534635Y-122225291D02*
X124365302Y-122225291D01*
X124365302Y-122225291D02*
X124280635Y-122267625D01*
X124661635Y-122775625D02*
X124576969Y-122817958D01*
X124576969Y-122817958D02*
X124365302Y-122817958D01*
X124365302Y-122817958D02*
X124280635Y-122775625D01*
X124280635Y-122775625D02*
X124238302Y-122690958D01*
X124238302Y-122690958D02*
X124238302Y-122606291D01*
X124238302Y-122606291D02*
X124280635Y-122521625D01*
X124280635Y-122521625D02*
X124365302Y-122479291D01*
X124365302Y-122479291D02*
X124576969Y-122479291D01*
X124576969Y-122479291D02*
X124661635Y-122436958D01*
X125084968Y-122225291D02*
X125084968Y-122817958D01*
X125084968Y-122309958D02*
X125127302Y-122267625D01*
X125127302Y-122267625D02*
X125211968Y-122225291D01*
X125211968Y-122225291D02*
X125338968Y-122225291D01*
X125338968Y-122225291D02*
X125423635Y-122267625D01*
X125423635Y-122267625D02*
X125465968Y-122352291D01*
X125465968Y-122352291D02*
X125465968Y-122817958D01*
X126566634Y-122817958D02*
X126566634Y-121928958D01*
X126566634Y-121928958D02*
X126862968Y-122563958D01*
X126862968Y-122563958D02*
X127159301Y-121928958D01*
X127159301Y-121928958D02*
X127159301Y-122817958D01*
X127963634Y-122775625D02*
X127878968Y-122817958D01*
X127878968Y-122817958D02*
X127709634Y-122817958D01*
X127709634Y-122817958D02*
X127624968Y-122775625D01*
X127624968Y-122775625D02*
X127582634Y-122733291D01*
X127582634Y-122733291D02*
X127540301Y-122648625D01*
X127540301Y-122648625D02*
X127540301Y-122394625D01*
X127540301Y-122394625D02*
X127582634Y-122309958D01*
X127582634Y-122309958D02*
X127624968Y-122267625D01*
X127624968Y-122267625D02*
X127709634Y-122225291D01*
X127709634Y-122225291D02*
X127878968Y-122225291D01*
X127878968Y-122225291D02*
X127963634Y-122267625D01*
X128810301Y-121971291D02*
X128725634Y-121928958D01*
X128725634Y-121928958D02*
X128598634Y-121928958D01*
X128598634Y-121928958D02*
X128471634Y-121971291D01*
X128471634Y-121971291D02*
X128386968Y-122055958D01*
X128386968Y-122055958D02*
X128344634Y-122140625D01*
X128344634Y-122140625D02*
X128302301Y-122309958D01*
X128302301Y-122309958D02*
X128302301Y-122436958D01*
X128302301Y-122436958D02*
X128344634Y-122606291D01*
X128344634Y-122606291D02*
X128386968Y-122690958D01*
X128386968Y-122690958D02*
X128471634Y-122775625D01*
X128471634Y-122775625D02*
X128598634Y-122817958D01*
X128598634Y-122817958D02*
X128683301Y-122817958D01*
X128683301Y-122817958D02*
X128810301Y-122775625D01*
X128810301Y-122775625D02*
X128852634Y-122733291D01*
X128852634Y-122733291D02*
X128852634Y-122436958D01*
X128852634Y-122436958D02*
X128683301Y-122436958D01*
X129233634Y-122817958D02*
X129233634Y-122225291D01*
X129233634Y-121928958D02*
X129191301Y-121971291D01*
X129191301Y-121971291D02*
X129233634Y-122013625D01*
X129233634Y-122013625D02*
X129275968Y-121971291D01*
X129275968Y-121971291D02*
X129233634Y-121928958D01*
X129233634Y-121928958D02*
X129233634Y-122013625D01*
X129656967Y-122817958D02*
X129656967Y-121928958D01*
X129656967Y-122267625D02*
X129741634Y-122225291D01*
X129741634Y-122225291D02*
X129910967Y-122225291D01*
X129910967Y-122225291D02*
X129995634Y-122267625D01*
X129995634Y-122267625D02*
X130037967Y-122309958D01*
X130037967Y-122309958D02*
X130080301Y-122394625D01*
X130080301Y-122394625D02*
X130080301Y-122648625D01*
X130080301Y-122648625D02*
X130037967Y-122733291D01*
X130037967Y-122733291D02*
X129995634Y-122775625D01*
X129995634Y-122775625D02*
X129910967Y-122817958D01*
X129910967Y-122817958D02*
X129741634Y-122817958D01*
X129741634Y-122817958D02*
X129656967Y-122775625D01*
X130461300Y-122225291D02*
X130461300Y-122817958D01*
X130461300Y-122309958D02*
X130503634Y-122267625D01*
X130503634Y-122267625D02*
X130588300Y-122225291D01*
X130588300Y-122225291D02*
X130715300Y-122225291D01*
X130715300Y-122225291D02*
X130799967Y-122267625D01*
X130799967Y-122267625D02*
X130842300Y-122352291D01*
X130842300Y-122352291D02*
X130842300Y-122817958D01*
X131604300Y-122775625D02*
X131519633Y-122817958D01*
X131519633Y-122817958D02*
X131350300Y-122817958D01*
X131350300Y-122817958D02*
X131265633Y-122775625D01*
X131265633Y-122775625D02*
X131223300Y-122690958D01*
X131223300Y-122690958D02*
X131223300Y-122352291D01*
X131223300Y-122352291D02*
X131265633Y-122267625D01*
X131265633Y-122267625D02*
X131350300Y-122225291D01*
X131350300Y-122225291D02*
X131519633Y-122225291D01*
X131519633Y-122225291D02*
X131604300Y-122267625D01*
X131604300Y-122267625D02*
X131646633Y-122352291D01*
X131646633Y-122352291D02*
X131646633Y-122436958D01*
X131646633Y-122436958D02*
X131223300Y-122521625D01*
X131942967Y-122225291D02*
X132154633Y-122817958D01*
X132366300Y-122225291D02*
X132154633Y-122817958D01*
X132154633Y-122817958D02*
X132069967Y-123029625D01*
X132069967Y-123029625D02*
X132027633Y-123071958D01*
X132027633Y-123071958D02*
X131942967Y-123114291D01*
D12*
X111845357Y-79558823D02*
X111337357Y-78833109D01*
X110974500Y-79558823D02*
X110974500Y-78034823D01*
X110974500Y-78034823D02*
X111555071Y-78034823D01*
X111555071Y-78034823D02*
X111700214Y-78107394D01*
X111700214Y-78107394D02*
X111772785Y-78179966D01*
X111772785Y-78179966D02*
X111845357Y-78325109D01*
X111845357Y-78325109D02*
X111845357Y-78542823D01*
X111845357Y-78542823D02*
X111772785Y-78687966D01*
X111772785Y-78687966D02*
X111700214Y-78760537D01*
X111700214Y-78760537D02*
X111555071Y-78833109D01*
X111555071Y-78833109D02*
X110974500Y-78833109D01*
X112280785Y-78034823D02*
X112788785Y-79558823D01*
X112788785Y-79558823D02*
X113296785Y-78034823D01*
X113732214Y-79486252D02*
X113949929Y-79558823D01*
X113949929Y-79558823D02*
X114312786Y-79558823D01*
X114312786Y-79558823D02*
X114457929Y-79486252D01*
X114457929Y-79486252D02*
X114530500Y-79413680D01*
X114530500Y-79413680D02*
X114603071Y-79268537D01*
X114603071Y-79268537D02*
X114603071Y-79123394D01*
X114603071Y-79123394D02*
X114530500Y-78978252D01*
X114530500Y-78978252D02*
X114457929Y-78905680D01*
X114457929Y-78905680D02*
X114312786Y-78833109D01*
X114312786Y-78833109D02*
X114022500Y-78760537D01*
X114022500Y-78760537D02*
X113877357Y-78687966D01*
X113877357Y-78687966D02*
X113804786Y-78615394D01*
X113804786Y-78615394D02*
X113732214Y-78470252D01*
X113732214Y-78470252D02*
X113732214Y-78325109D01*
X113732214Y-78325109D02*
X113804786Y-78179966D01*
X113804786Y-78179966D02*
X113877357Y-78107394D01*
X113877357Y-78107394D02*
X114022500Y-78034823D01*
X114022500Y-78034823D02*
X114385357Y-78034823D01*
X114385357Y-78034823D02*
X114603071Y-78107394D01*
D10*
X116840095Y-97927438D02*
X116744857Y-97879819D01*
X116744857Y-97879819D02*
X116602000Y-97879819D01*
X116602000Y-97879819D02*
X116459143Y-97927438D01*
X116459143Y-97927438D02*
X116363905Y-98022676D01*
X116363905Y-98022676D02*
X116316286Y-98117914D01*
X116316286Y-98117914D02*
X116268667Y-98308390D01*
X116268667Y-98308390D02*
X116268667Y-98451247D01*
X116268667Y-98451247D02*
X116316286Y-98641723D01*
X116316286Y-98641723D02*
X116363905Y-98736961D01*
X116363905Y-98736961D02*
X116459143Y-98832200D01*
X116459143Y-98832200D02*
X116602000Y-98879819D01*
X116602000Y-98879819D02*
X116697238Y-98879819D01*
X116697238Y-98879819D02*
X116840095Y-98832200D01*
X116840095Y-98832200D02*
X116887714Y-98784580D01*
X116887714Y-98784580D02*
X116887714Y-98451247D01*
X116887714Y-98451247D02*
X116697238Y-98451247D01*
X117316286Y-98879819D02*
X117316286Y-97879819D01*
X117316286Y-97879819D02*
X117887714Y-98879819D01*
X117887714Y-98879819D02*
X117887714Y-97879819D01*
X118363905Y-98879819D02*
X118363905Y-97879819D01*
X118363905Y-97879819D02*
X118602000Y-97879819D01*
X118602000Y-97879819D02*
X118744857Y-97927438D01*
X118744857Y-97927438D02*
X118840095Y-98022676D01*
X118840095Y-98022676D02*
X118887714Y-98117914D01*
X118887714Y-98117914D02*
X118935333Y-98308390D01*
X118935333Y-98308390D02*
X118935333Y-98451247D01*
X118935333Y-98451247D02*
X118887714Y-98641723D01*
X118887714Y-98641723D02*
X118840095Y-98736961D01*
X118840095Y-98736961D02*
X118744857Y-98832200D01*
X118744857Y-98832200D02*
X118602000Y-98879819D01*
X118602000Y-98879819D02*
X118363905Y-98879819D01*
D12*
X128990357Y-78760537D02*
X128482357Y-78760537D01*
X128482357Y-79558823D02*
X128482357Y-78034823D01*
X128482357Y-78034823D02*
X129208071Y-78034823D01*
X129643500Y-78034823D02*
X130006357Y-79558823D01*
X130006357Y-79558823D02*
X130296643Y-78470252D01*
X130296643Y-78470252D02*
X130586928Y-79558823D01*
X130586928Y-79558823D02*
X130949786Y-78034823D01*
X131530357Y-79558823D02*
X131530357Y-78034823D01*
X131530357Y-78034823D02*
X131893214Y-78034823D01*
X131893214Y-78034823D02*
X132110928Y-78107394D01*
X132110928Y-78107394D02*
X132256071Y-78252537D01*
X132256071Y-78252537D02*
X132328642Y-78397680D01*
X132328642Y-78397680D02*
X132401214Y-78687966D01*
X132401214Y-78687966D02*
X132401214Y-78905680D01*
X132401214Y-78905680D02*
X132328642Y-79195966D01*
X132328642Y-79195966D02*
X132256071Y-79341109D01*
X132256071Y-79341109D02*
X132110928Y-79486252D01*
X132110928Y-79486252D02*
X131893214Y-79558823D01*
X131893214Y-79558823D02*
X131530357Y-79558823D01*
D10*
X116649619Y-103451819D02*
X116649619Y-102451819D01*
X116649619Y-102451819D02*
X116982952Y-103166104D01*
X116982952Y-103166104D02*
X117316285Y-102451819D01*
X117316285Y-102451819D02*
X117316285Y-103451819D01*
X117792476Y-103070866D02*
X118554381Y-103070866D01*
X117348095Y-107404819D02*
X117348095Y-108214342D01*
X117348095Y-108214342D02*
X117395714Y-108309580D01*
X117395714Y-108309580D02*
X117443333Y-108357200D01*
X117443333Y-108357200D02*
X117538571Y-108404819D01*
X117538571Y-108404819D02*
X117729047Y-108404819D01*
X117729047Y-108404819D02*
X117824285Y-108357200D01*
X117824285Y-108357200D02*
X117871904Y-108309580D01*
X117871904Y-108309580D02*
X117919523Y-108214342D01*
X117919523Y-108214342D02*
X117919523Y-107404819D01*
X118300476Y-107404819D02*
X118919523Y-107404819D01*
X118919523Y-107404819D02*
X118586190Y-107785771D01*
X118586190Y-107785771D02*
X118729047Y-107785771D01*
X118729047Y-107785771D02*
X118824285Y-107833390D01*
X118824285Y-107833390D02*
X118871904Y-107881009D01*
X118871904Y-107881009D02*
X118919523Y-107976247D01*
X118919523Y-107976247D02*
X118919523Y-108214342D01*
X118919523Y-108214342D02*
X118871904Y-108309580D01*
X118871904Y-108309580D02*
X118824285Y-108357200D01*
X118824285Y-108357200D02*
X118729047Y-108404819D01*
X118729047Y-108404819D02*
X118443333Y-108404819D01*
X118443333Y-108404819D02*
X118348095Y-108357200D01*
X118348095Y-108357200D02*
X118300476Y-108309580D01*
X120015190Y-93069580D02*
X119967571Y-93117200D01*
X119967571Y-93117200D02*
X119824714Y-93164819D01*
X119824714Y-93164819D02*
X119729476Y-93164819D01*
X119729476Y-93164819D02*
X119586619Y-93117200D01*
X119586619Y-93117200D02*
X119491381Y-93021961D01*
X119491381Y-93021961D02*
X119443762Y-92926723D01*
X119443762Y-92926723D02*
X119396143Y-92736247D01*
X119396143Y-92736247D02*
X119396143Y-92593390D01*
X119396143Y-92593390D02*
X119443762Y-92402914D01*
X119443762Y-92402914D02*
X119491381Y-92307676D01*
X119491381Y-92307676D02*
X119586619Y-92212438D01*
X119586619Y-92212438D02*
X119729476Y-92164819D01*
X119729476Y-92164819D02*
X119824714Y-92164819D01*
X119824714Y-92164819D02*
X119967571Y-92212438D01*
X119967571Y-92212438D02*
X120015190Y-92260057D01*
X120586619Y-93164819D02*
X120491381Y-93117200D01*
X120491381Y-93117200D02*
X120443762Y-93069580D01*
X120443762Y-93069580D02*
X120396143Y-92974342D01*
X120396143Y-92974342D02*
X120396143Y-92688628D01*
X120396143Y-92688628D02*
X120443762Y-92593390D01*
X120443762Y-92593390D02*
X120491381Y-92545771D01*
X120491381Y-92545771D02*
X120586619Y-92498152D01*
X120586619Y-92498152D02*
X120729476Y-92498152D01*
X120729476Y-92498152D02*
X120824714Y-92545771D01*
X120824714Y-92545771D02*
X120872333Y-92593390D01*
X120872333Y-92593390D02*
X120919952Y-92688628D01*
X120919952Y-92688628D02*
X120919952Y-92974342D01*
X120919952Y-92974342D02*
X120872333Y-93069580D01*
X120872333Y-93069580D02*
X120824714Y-93117200D01*
X120824714Y-93117200D02*
X120729476Y-93164819D01*
X120729476Y-93164819D02*
X120586619Y-93164819D01*
X121348524Y-92498152D02*
X121348524Y-93164819D01*
X121348524Y-92593390D02*
X121396143Y-92545771D01*
X121396143Y-92545771D02*
X121491381Y-92498152D01*
X121491381Y-92498152D02*
X121634238Y-92498152D01*
X121634238Y-92498152D02*
X121729476Y-92545771D01*
X121729476Y-92545771D02*
X121777095Y-92641009D01*
X121777095Y-92641009D02*
X121777095Y-93164819D01*
X122253286Y-92498152D02*
X122253286Y-93164819D01*
X122253286Y-92593390D02*
X122300905Y-92545771D01*
X122300905Y-92545771D02*
X122396143Y-92498152D01*
X122396143Y-92498152D02*
X122539000Y-92498152D01*
X122539000Y-92498152D02*
X122634238Y-92545771D01*
X122634238Y-92545771D02*
X122681857Y-92641009D01*
X122681857Y-92641009D02*
X122681857Y-93164819D01*
X123062810Y-92164819D02*
X123681857Y-92164819D01*
X123681857Y-92164819D02*
X123348524Y-92545771D01*
X123348524Y-92545771D02*
X123491381Y-92545771D01*
X123491381Y-92545771D02*
X123586619Y-92593390D01*
X123586619Y-92593390D02*
X123634238Y-92641009D01*
X123634238Y-92641009D02*
X123681857Y-92736247D01*
X123681857Y-92736247D02*
X123681857Y-92974342D01*
X123681857Y-92974342D02*
X123634238Y-93069580D01*
X123634238Y-93069580D02*
X123586619Y-93117200D01*
X123586619Y-93117200D02*
X123491381Y-93164819D01*
X123491381Y-93164819D02*
X123205667Y-93164819D01*
X123205667Y-93164819D02*
X123110429Y-93117200D01*
X123110429Y-93117200D02*
X123062810Y-93069580D01*
X106386333Y-95196819D02*
X106053000Y-94720628D01*
X105814905Y-95196819D02*
X105814905Y-94196819D01*
X105814905Y-94196819D02*
X106195857Y-94196819D01*
X106195857Y-94196819D02*
X106291095Y-94244438D01*
X106291095Y-94244438D02*
X106338714Y-94292057D01*
X106338714Y-94292057D02*
X106386333Y-94387295D01*
X106386333Y-94387295D02*
X106386333Y-94530152D01*
X106386333Y-94530152D02*
X106338714Y-94625390D01*
X106338714Y-94625390D02*
X106291095Y-94673009D01*
X106291095Y-94673009D02*
X106195857Y-94720628D01*
X106195857Y-94720628D02*
X105814905Y-94720628D01*
X107291095Y-94196819D02*
X106814905Y-94196819D01*
X106814905Y-94196819D02*
X106767286Y-94673009D01*
X106767286Y-94673009D02*
X106814905Y-94625390D01*
X106814905Y-94625390D02*
X106910143Y-94577771D01*
X106910143Y-94577771D02*
X107148238Y-94577771D01*
X107148238Y-94577771D02*
X107243476Y-94625390D01*
X107243476Y-94625390D02*
X107291095Y-94673009D01*
X107291095Y-94673009D02*
X107338714Y-94768247D01*
X107338714Y-94768247D02*
X107338714Y-95006342D01*
X107338714Y-95006342D02*
X107291095Y-95101580D01*
X107291095Y-95101580D02*
X107243476Y-95149200D01*
X107243476Y-95149200D02*
X107148238Y-95196819D01*
X107148238Y-95196819D02*
X106910143Y-95196819D01*
X106910143Y-95196819D02*
X106814905Y-95149200D01*
X106814905Y-95149200D02*
X106767286Y-95101580D01*
X106426095Y-90386819D02*
X106426095Y-91196342D01*
X106426095Y-91196342D02*
X106473714Y-91291580D01*
X106473714Y-91291580D02*
X106521333Y-91339200D01*
X106521333Y-91339200D02*
X106616571Y-91386819D01*
X106616571Y-91386819D02*
X106807047Y-91386819D01*
X106807047Y-91386819D02*
X106902285Y-91339200D01*
X106902285Y-91339200D02*
X106949904Y-91291580D01*
X106949904Y-91291580D02*
X106997523Y-91196342D01*
X106997523Y-91196342D02*
X106997523Y-90386819D01*
X107997523Y-91386819D02*
X107426095Y-91386819D01*
X107711809Y-91386819D02*
X107711809Y-90386819D01*
X107711809Y-90386819D02*
X107616571Y-90529676D01*
X107616571Y-90529676D02*
X107521333Y-90624914D01*
X107521333Y-90624914D02*
X107426095Y-90672533D01*
X137392580Y-89320666D02*
X137440200Y-89368285D01*
X137440200Y-89368285D02*
X137487819Y-89511142D01*
X137487819Y-89511142D02*
X137487819Y-89606380D01*
X137487819Y-89606380D02*
X137440200Y-89749237D01*
X137440200Y-89749237D02*
X137344961Y-89844475D01*
X137344961Y-89844475D02*
X137249723Y-89892094D01*
X137249723Y-89892094D02*
X137059247Y-89939713D01*
X137059247Y-89939713D02*
X136916390Y-89939713D01*
X136916390Y-89939713D02*
X136725914Y-89892094D01*
X136725914Y-89892094D02*
X136630676Y-89844475D01*
X136630676Y-89844475D02*
X136535438Y-89749237D01*
X136535438Y-89749237D02*
X136487819Y-89606380D01*
X136487819Y-89606380D02*
X136487819Y-89511142D01*
X136487819Y-89511142D02*
X136535438Y-89368285D01*
X136535438Y-89368285D02*
X136583057Y-89320666D01*
X137487819Y-88368285D02*
X137487819Y-88939713D01*
X137487819Y-88653999D02*
X136487819Y-88653999D01*
X136487819Y-88653999D02*
X136630676Y-88749237D01*
X136630676Y-88749237D02*
X136725914Y-88844475D01*
X136725914Y-88844475D02*
X136773533Y-88939713D01*
X112482333Y-85925819D02*
X112149000Y-85449628D01*
X111910905Y-85925819D02*
X111910905Y-84925819D01*
X111910905Y-84925819D02*
X112291857Y-84925819D01*
X112291857Y-84925819D02*
X112387095Y-84973438D01*
X112387095Y-84973438D02*
X112434714Y-85021057D01*
X112434714Y-85021057D02*
X112482333Y-85116295D01*
X112482333Y-85116295D02*
X112482333Y-85259152D01*
X112482333Y-85259152D02*
X112434714Y-85354390D01*
X112434714Y-85354390D02*
X112387095Y-85402009D01*
X112387095Y-85402009D02*
X112291857Y-85449628D01*
X112291857Y-85449628D02*
X111910905Y-85449628D01*
X113434714Y-85925819D02*
X112863286Y-85925819D01*
X113149000Y-85925819D02*
X113149000Y-84925819D01*
X113149000Y-84925819D02*
X113053762Y-85068676D01*
X113053762Y-85068676D02*
X112958524Y-85163914D01*
X112958524Y-85163914D02*
X112863286Y-85211533D01*
X139171819Y-108039094D02*
X138171819Y-108039094D01*
X138171819Y-108039094D02*
X138171819Y-107800999D01*
X138171819Y-107800999D02*
X138219438Y-107658142D01*
X138219438Y-107658142D02*
X138314676Y-107562904D01*
X138314676Y-107562904D02*
X138409914Y-107515285D01*
X138409914Y-107515285D02*
X138600390Y-107467666D01*
X138600390Y-107467666D02*
X138743247Y-107467666D01*
X138743247Y-107467666D02*
X138933723Y-107515285D01*
X138933723Y-107515285D02*
X139028961Y-107562904D01*
X139028961Y-107562904D02*
X139124200Y-107658142D01*
X139124200Y-107658142D02*
X139171819Y-107800999D01*
X139171819Y-107800999D02*
X139171819Y-108039094D01*
X138267057Y-107086713D02*
X138219438Y-107039094D01*
X138219438Y-107039094D02*
X138171819Y-106943856D01*
X138171819Y-106943856D02*
X138171819Y-106705761D01*
X138171819Y-106705761D02*
X138219438Y-106610523D01*
X138219438Y-106610523D02*
X138267057Y-106562904D01*
X138267057Y-106562904D02*
X138362295Y-106515285D01*
X138362295Y-106515285D02*
X138457533Y-106515285D01*
X138457533Y-106515285D02*
X138600390Y-106562904D01*
X138600390Y-106562904D02*
X139171819Y-107134332D01*
X139171819Y-107134332D02*
X139171819Y-106515285D01*
X132571833Y-115770819D02*
X132238500Y-115294628D01*
X132000405Y-115770819D02*
X132000405Y-114770819D01*
X132000405Y-114770819D02*
X132381357Y-114770819D01*
X132381357Y-114770819D02*
X132476595Y-114818438D01*
X132476595Y-114818438D02*
X132524214Y-114866057D01*
X132524214Y-114866057D02*
X132571833Y-114961295D01*
X132571833Y-114961295D02*
X132571833Y-115104152D01*
X132571833Y-115104152D02*
X132524214Y-115199390D01*
X132524214Y-115199390D02*
X132476595Y-115247009D01*
X132476595Y-115247009D02*
X132381357Y-115294628D01*
X132381357Y-115294628D02*
X132000405Y-115294628D01*
X132952786Y-114866057D02*
X133000405Y-114818438D01*
X133000405Y-114818438D02*
X133095643Y-114770819D01*
X133095643Y-114770819D02*
X133333738Y-114770819D01*
X133333738Y-114770819D02*
X133428976Y-114818438D01*
X133428976Y-114818438D02*
X133476595Y-114866057D01*
X133476595Y-114866057D02*
X133524214Y-114961295D01*
X133524214Y-114961295D02*
X133524214Y-115056533D01*
X133524214Y-115056533D02*
X133476595Y-115199390D01*
X133476595Y-115199390D02*
X132905167Y-115770819D01*
X132905167Y-115770819D02*
X133524214Y-115770819D01*
X131857761Y-94784057D02*
X131762523Y-94736438D01*
X131762523Y-94736438D02*
X131667285Y-94641200D01*
X131667285Y-94641200D02*
X131524428Y-94498342D01*
X131524428Y-94498342D02*
X131429190Y-94450723D01*
X131429190Y-94450723D02*
X131333952Y-94450723D01*
X131381571Y-94688819D02*
X131286333Y-94641200D01*
X131286333Y-94641200D02*
X131191095Y-94545961D01*
X131191095Y-94545961D02*
X131143476Y-94355485D01*
X131143476Y-94355485D02*
X131143476Y-94022152D01*
X131143476Y-94022152D02*
X131191095Y-93831676D01*
X131191095Y-93831676D02*
X131286333Y-93736438D01*
X131286333Y-93736438D02*
X131381571Y-93688819D01*
X131381571Y-93688819D02*
X131572047Y-93688819D01*
X131572047Y-93688819D02*
X131667285Y-93736438D01*
X131667285Y-93736438D02*
X131762523Y-93831676D01*
X131762523Y-93831676D02*
X131810142Y-94022152D01*
X131810142Y-94022152D02*
X131810142Y-94355485D01*
X131810142Y-94355485D02*
X131762523Y-94545961D01*
X131762523Y-94545961D02*
X131667285Y-94641200D01*
X131667285Y-94641200D02*
X131572047Y-94688819D01*
X131572047Y-94688819D02*
X131381571Y-94688819D01*
X132191095Y-93784057D02*
X132238714Y-93736438D01*
X132238714Y-93736438D02*
X132333952Y-93688819D01*
X132333952Y-93688819D02*
X132572047Y-93688819D01*
X132572047Y-93688819D02*
X132667285Y-93736438D01*
X132667285Y-93736438D02*
X132714904Y-93784057D01*
X132714904Y-93784057D02*
X132762523Y-93879295D01*
X132762523Y-93879295D02*
X132762523Y-93974533D01*
X132762523Y-93974533D02*
X132714904Y-94117390D01*
X132714904Y-94117390D02*
X132143476Y-94688819D01*
X132143476Y-94688819D02*
X132762523Y-94688819D01*
X112014405Y-83004819D02*
X112014405Y-82004819D01*
X112014405Y-82004819D02*
X112252500Y-82004819D01*
X112252500Y-82004819D02*
X112395357Y-82052438D01*
X112395357Y-82052438D02*
X112490595Y-82147676D01*
X112490595Y-82147676D02*
X112538214Y-82242914D01*
X112538214Y-82242914D02*
X112585833Y-82433390D01*
X112585833Y-82433390D02*
X112585833Y-82576247D01*
X112585833Y-82576247D02*
X112538214Y-82766723D01*
X112538214Y-82766723D02*
X112490595Y-82861961D01*
X112490595Y-82861961D02*
X112395357Y-82957200D01*
X112395357Y-82957200D02*
X112252500Y-83004819D01*
X112252500Y-83004819D02*
X112014405Y-83004819D01*
X113538214Y-83004819D02*
X112966786Y-83004819D01*
X113252500Y-83004819D02*
X113252500Y-82004819D01*
X113252500Y-82004819D02*
X113157262Y-82147676D01*
X113157262Y-82147676D02*
X113062024Y-82242914D01*
X113062024Y-82242914D02*
X112966786Y-82290533D01*
X130262333Y-85798819D02*
X129929000Y-85322628D01*
X129690905Y-85798819D02*
X129690905Y-84798819D01*
X129690905Y-84798819D02*
X130071857Y-84798819D01*
X130071857Y-84798819D02*
X130167095Y-84846438D01*
X130167095Y-84846438D02*
X130214714Y-84894057D01*
X130214714Y-84894057D02*
X130262333Y-84989295D01*
X130262333Y-84989295D02*
X130262333Y-85132152D01*
X130262333Y-85132152D02*
X130214714Y-85227390D01*
X130214714Y-85227390D02*
X130167095Y-85275009D01*
X130167095Y-85275009D02*
X130071857Y-85322628D01*
X130071857Y-85322628D02*
X129690905Y-85322628D01*
X131119476Y-84798819D02*
X130929000Y-84798819D01*
X130929000Y-84798819D02*
X130833762Y-84846438D01*
X130833762Y-84846438D02*
X130786143Y-84894057D01*
X130786143Y-84894057D02*
X130690905Y-85036914D01*
X130690905Y-85036914D02*
X130643286Y-85227390D01*
X130643286Y-85227390D02*
X130643286Y-85608342D01*
X130643286Y-85608342D02*
X130690905Y-85703580D01*
X130690905Y-85703580D02*
X130738524Y-85751200D01*
X130738524Y-85751200D02*
X130833762Y-85798819D01*
X130833762Y-85798819D02*
X131024238Y-85798819D01*
X131024238Y-85798819D02*
X131119476Y-85751200D01*
X131119476Y-85751200D02*
X131167095Y-85703580D01*
X131167095Y-85703580D02*
X131214714Y-85608342D01*
X131214714Y-85608342D02*
X131214714Y-85370247D01*
X131214714Y-85370247D02*
X131167095Y-85275009D01*
X131167095Y-85275009D02*
X131119476Y-85227390D01*
X131119476Y-85227390D02*
X131024238Y-85179771D01*
X131024238Y-85179771D02*
X130833762Y-85179771D01*
X130833762Y-85179771D02*
X130738524Y-85227390D01*
X130738524Y-85227390D02*
X130690905Y-85275009D01*
X130690905Y-85275009D02*
X130643286Y-85370247D01*
X121372333Y-102881580D02*
X121324714Y-102929200D01*
X121324714Y-102929200D02*
X121181857Y-102976819D01*
X121181857Y-102976819D02*
X121086619Y-102976819D01*
X121086619Y-102976819D02*
X120943762Y-102929200D01*
X120943762Y-102929200D02*
X120848524Y-102833961D01*
X120848524Y-102833961D02*
X120800905Y-102738723D01*
X120800905Y-102738723D02*
X120753286Y-102548247D01*
X120753286Y-102548247D02*
X120753286Y-102405390D01*
X120753286Y-102405390D02*
X120800905Y-102214914D01*
X120800905Y-102214914D02*
X120848524Y-102119676D01*
X120848524Y-102119676D02*
X120943762Y-102024438D01*
X120943762Y-102024438D02*
X121086619Y-101976819D01*
X121086619Y-101976819D02*
X121181857Y-101976819D01*
X121181857Y-101976819D02*
X121324714Y-102024438D01*
X121324714Y-102024438D02*
X121372333Y-102072057D01*
X121705667Y-101976819D02*
X122324714Y-101976819D01*
X122324714Y-101976819D02*
X121991381Y-102357771D01*
X121991381Y-102357771D02*
X122134238Y-102357771D01*
X122134238Y-102357771D02*
X122229476Y-102405390D01*
X122229476Y-102405390D02*
X122277095Y-102453009D01*
X122277095Y-102453009D02*
X122324714Y-102548247D01*
X122324714Y-102548247D02*
X122324714Y-102786342D01*
X122324714Y-102786342D02*
X122277095Y-102881580D01*
X122277095Y-102881580D02*
X122229476Y-102929200D01*
X122229476Y-102929200D02*
X122134238Y-102976819D01*
X122134238Y-102976819D02*
X121848524Y-102976819D01*
X121848524Y-102976819D02*
X121753286Y-102929200D01*
X121753286Y-102929200D02*
X121705667Y-102881580D01*
X110069333Y-115770819D02*
X109736000Y-115294628D01*
X109497905Y-115770819D02*
X109497905Y-114770819D01*
X109497905Y-114770819D02*
X109878857Y-114770819D01*
X109878857Y-114770819D02*
X109974095Y-114818438D01*
X109974095Y-114818438D02*
X110021714Y-114866057D01*
X110021714Y-114866057D02*
X110069333Y-114961295D01*
X110069333Y-114961295D02*
X110069333Y-115104152D01*
X110069333Y-115104152D02*
X110021714Y-115199390D01*
X110021714Y-115199390D02*
X109974095Y-115247009D01*
X109974095Y-115247009D02*
X109878857Y-115294628D01*
X109878857Y-115294628D02*
X109497905Y-115294628D01*
X110926476Y-115104152D02*
X110926476Y-115770819D01*
X110688381Y-114723200D02*
X110450286Y-115437485D01*
X110450286Y-115437485D02*
X111069333Y-115437485D01*
X135776057Y-109377238D02*
X135728438Y-109472476D01*
X135728438Y-109472476D02*
X135633200Y-109567714D01*
X135633200Y-109567714D02*
X135490342Y-109710571D01*
X135490342Y-109710571D02*
X135442723Y-109805809D01*
X135442723Y-109805809D02*
X135442723Y-109901047D01*
X135680819Y-109853428D02*
X135633200Y-109948666D01*
X135633200Y-109948666D02*
X135537961Y-110043904D01*
X135537961Y-110043904D02*
X135347485Y-110091523D01*
X135347485Y-110091523D02*
X135014152Y-110091523D01*
X135014152Y-110091523D02*
X134823676Y-110043904D01*
X134823676Y-110043904D02*
X134728438Y-109948666D01*
X134728438Y-109948666D02*
X134680819Y-109853428D01*
X134680819Y-109853428D02*
X134680819Y-109662952D01*
X134680819Y-109662952D02*
X134728438Y-109567714D01*
X134728438Y-109567714D02*
X134823676Y-109472476D01*
X134823676Y-109472476D02*
X135014152Y-109424857D01*
X135014152Y-109424857D02*
X135347485Y-109424857D01*
X135347485Y-109424857D02*
X135537961Y-109472476D01*
X135537961Y-109472476D02*
X135633200Y-109567714D01*
X135633200Y-109567714D02*
X135680819Y-109662952D01*
X135680819Y-109662952D02*
X135680819Y-109853428D01*
X135680819Y-108472476D02*
X135680819Y-109043904D01*
X135680819Y-108758190D02*
X134680819Y-108758190D01*
X134680819Y-108758190D02*
X134823676Y-108853428D01*
X134823676Y-108853428D02*
X134918914Y-108948666D01*
X134918914Y-108948666D02*
X134966533Y-109043904D01*
X104721819Y-107938594D02*
X103721819Y-107938594D01*
X103721819Y-107938594D02*
X103721819Y-107700499D01*
X103721819Y-107700499D02*
X103769438Y-107557642D01*
X103769438Y-107557642D02*
X103864676Y-107462404D01*
X103864676Y-107462404D02*
X103959914Y-107414785D01*
X103959914Y-107414785D02*
X104150390Y-107367166D01*
X104150390Y-107367166D02*
X104293247Y-107367166D01*
X104293247Y-107367166D02*
X104483723Y-107414785D01*
X104483723Y-107414785D02*
X104578961Y-107462404D01*
X104578961Y-107462404D02*
X104674200Y-107557642D01*
X104674200Y-107557642D02*
X104721819Y-107700499D01*
X104721819Y-107700499D02*
X104721819Y-107938594D01*
X103721819Y-107033832D02*
X103721819Y-106414785D01*
X103721819Y-106414785D02*
X104102771Y-106748118D01*
X104102771Y-106748118D02*
X104102771Y-106605261D01*
X104102771Y-106605261D02*
X104150390Y-106510023D01*
X104150390Y-106510023D02*
X104198009Y-106462404D01*
X104198009Y-106462404D02*
X104293247Y-106414785D01*
X104293247Y-106414785D02*
X104531342Y-106414785D01*
X104531342Y-106414785D02*
X104626580Y-106462404D01*
X104626580Y-106462404D02*
X104674200Y-106510023D01*
X104674200Y-106510023D02*
X104721819Y-106605261D01*
X104721819Y-106605261D02*
X104721819Y-106890975D01*
X104721819Y-106890975D02*
X104674200Y-106986213D01*
X104674200Y-106986213D02*
X104626580Y-107033832D01*
X136231333Y-95196819D02*
X135898000Y-94720628D01*
X135659905Y-95196819D02*
X135659905Y-94196819D01*
X135659905Y-94196819D02*
X136040857Y-94196819D01*
X136040857Y-94196819D02*
X136136095Y-94244438D01*
X136136095Y-94244438D02*
X136183714Y-94292057D01*
X136183714Y-94292057D02*
X136231333Y-94387295D01*
X136231333Y-94387295D02*
X136231333Y-94530152D01*
X136231333Y-94530152D02*
X136183714Y-94625390D01*
X136183714Y-94625390D02*
X136136095Y-94673009D01*
X136136095Y-94673009D02*
X136040857Y-94720628D01*
X136040857Y-94720628D02*
X135659905Y-94720628D01*
X136564667Y-94196819D02*
X137183714Y-94196819D01*
X137183714Y-94196819D02*
X136850381Y-94577771D01*
X136850381Y-94577771D02*
X136993238Y-94577771D01*
X136993238Y-94577771D02*
X137088476Y-94625390D01*
X137088476Y-94625390D02*
X137136095Y-94673009D01*
X137136095Y-94673009D02*
X137183714Y-94768247D01*
X137183714Y-94768247D02*
X137183714Y-95006342D01*
X137183714Y-95006342D02*
X137136095Y-95101580D01*
X137136095Y-95101580D02*
X137088476Y-95149200D01*
X137088476Y-95149200D02*
X136993238Y-95196819D01*
X136993238Y-95196819D02*
X136707524Y-95196819D01*
X136707524Y-95196819D02*
X136612286Y-95149200D01*
X136612286Y-95149200D02*
X136564667Y-95101580D01*
X124206095Y-107404819D02*
X124206095Y-108214342D01*
X124206095Y-108214342D02*
X124253714Y-108309580D01*
X124253714Y-108309580D02*
X124301333Y-108357200D01*
X124301333Y-108357200D02*
X124396571Y-108404819D01*
X124396571Y-108404819D02*
X124587047Y-108404819D01*
X124587047Y-108404819D02*
X124682285Y-108357200D01*
X124682285Y-108357200D02*
X124729904Y-108309580D01*
X124729904Y-108309580D02*
X124777523Y-108214342D01*
X124777523Y-108214342D02*
X124777523Y-107404819D01*
X125206095Y-107500057D02*
X125253714Y-107452438D01*
X125253714Y-107452438D02*
X125348952Y-107404819D01*
X125348952Y-107404819D02*
X125587047Y-107404819D01*
X125587047Y-107404819D02*
X125682285Y-107452438D01*
X125682285Y-107452438D02*
X125729904Y-107500057D01*
X125729904Y-107500057D02*
X125777523Y-107595295D01*
X125777523Y-107595295D02*
X125777523Y-107690533D01*
X125777523Y-107690533D02*
X125729904Y-107833390D01*
X125729904Y-107833390D02*
X125158476Y-108404819D01*
X125158476Y-108404819D02*
X125777523Y-108404819D01*
X129667405Y-83004819D02*
X129667405Y-82004819D01*
X129667405Y-82004819D02*
X129905500Y-82004819D01*
X129905500Y-82004819D02*
X130048357Y-82052438D01*
X130048357Y-82052438D02*
X130143595Y-82147676D01*
X130143595Y-82147676D02*
X130191214Y-82242914D01*
X130191214Y-82242914D02*
X130238833Y-82433390D01*
X130238833Y-82433390D02*
X130238833Y-82576247D01*
X130238833Y-82576247D02*
X130191214Y-82766723D01*
X130191214Y-82766723D02*
X130143595Y-82861961D01*
X130143595Y-82861961D02*
X130048357Y-82957200D01*
X130048357Y-82957200D02*
X129905500Y-83004819D01*
X129905500Y-83004819D02*
X129667405Y-83004819D01*
X131095976Y-82338152D02*
X131095976Y-83004819D01*
X130857881Y-81957200D02*
X130619786Y-82671485D01*
X130619786Y-82671485D02*
X131238833Y-82671485D01*
X111283761Y-94784057D02*
X111188523Y-94736438D01*
X111188523Y-94736438D02*
X111093285Y-94641200D01*
X111093285Y-94641200D02*
X110950428Y-94498342D01*
X110950428Y-94498342D02*
X110855190Y-94450723D01*
X110855190Y-94450723D02*
X110759952Y-94450723D01*
X110807571Y-94688819D02*
X110712333Y-94641200D01*
X110712333Y-94641200D02*
X110617095Y-94545961D01*
X110617095Y-94545961D02*
X110569476Y-94355485D01*
X110569476Y-94355485D02*
X110569476Y-94022152D01*
X110569476Y-94022152D02*
X110617095Y-93831676D01*
X110617095Y-93831676D02*
X110712333Y-93736438D01*
X110712333Y-93736438D02*
X110807571Y-93688819D01*
X110807571Y-93688819D02*
X110998047Y-93688819D01*
X110998047Y-93688819D02*
X111093285Y-93736438D01*
X111093285Y-93736438D02*
X111188523Y-93831676D01*
X111188523Y-93831676D02*
X111236142Y-94022152D01*
X111236142Y-94022152D02*
X111236142Y-94355485D01*
X111236142Y-94355485D02*
X111188523Y-94545961D01*
X111188523Y-94545961D02*
X111093285Y-94641200D01*
X111093285Y-94641200D02*
X110998047Y-94688819D01*
X110998047Y-94688819D02*
X110807571Y-94688819D01*
X112093285Y-94022152D02*
X112093285Y-94688819D01*
X111855190Y-93641200D02*
X111617095Y-94355485D01*
X111617095Y-94355485D02*
X112236142Y-94355485D01*
X106613833Y-102975580D02*
X106566214Y-103023200D01*
X106566214Y-103023200D02*
X106423357Y-103070819D01*
X106423357Y-103070819D02*
X106328119Y-103070819D01*
X106328119Y-103070819D02*
X106185262Y-103023200D01*
X106185262Y-103023200D02*
X106090024Y-102927961D01*
X106090024Y-102927961D02*
X106042405Y-102832723D01*
X106042405Y-102832723D02*
X105994786Y-102642247D01*
X105994786Y-102642247D02*
X105994786Y-102499390D01*
X105994786Y-102499390D02*
X106042405Y-102308914D01*
X106042405Y-102308914D02*
X106090024Y-102213676D01*
X106090024Y-102213676D02*
X106185262Y-102118438D01*
X106185262Y-102118438D02*
X106328119Y-102070819D01*
X106328119Y-102070819D02*
X106423357Y-102070819D01*
X106423357Y-102070819D02*
X106566214Y-102118438D01*
X106566214Y-102118438D02*
X106613833Y-102166057D01*
X107470976Y-102404152D02*
X107470976Y-103070819D01*
X107232881Y-102023200D02*
X106994786Y-102737485D01*
X106994786Y-102737485D02*
X107613833Y-102737485D01*
X108246057Y-109377238D02*
X108198438Y-109472476D01*
X108198438Y-109472476D02*
X108103200Y-109567714D01*
X108103200Y-109567714D02*
X107960342Y-109710571D01*
X107960342Y-109710571D02*
X107912723Y-109805809D01*
X107912723Y-109805809D02*
X107912723Y-109901047D01*
X108150819Y-109853428D02*
X108103200Y-109948666D01*
X108103200Y-109948666D02*
X108007961Y-110043904D01*
X108007961Y-110043904D02*
X107817485Y-110091523D01*
X107817485Y-110091523D02*
X107484152Y-110091523D01*
X107484152Y-110091523D02*
X107293676Y-110043904D01*
X107293676Y-110043904D02*
X107198438Y-109948666D01*
X107198438Y-109948666D02*
X107150819Y-109853428D01*
X107150819Y-109853428D02*
X107150819Y-109662952D01*
X107150819Y-109662952D02*
X107198438Y-109567714D01*
X107198438Y-109567714D02*
X107293676Y-109472476D01*
X107293676Y-109472476D02*
X107484152Y-109424857D01*
X107484152Y-109424857D02*
X107817485Y-109424857D01*
X107817485Y-109424857D02*
X108007961Y-109472476D01*
X108007961Y-109472476D02*
X108103200Y-109567714D01*
X108103200Y-109567714D02*
X108150819Y-109662952D01*
X108150819Y-109662952D02*
X108150819Y-109853428D01*
X107150819Y-109091523D02*
X107150819Y-108472476D01*
X107150819Y-108472476D02*
X107531771Y-108805809D01*
X107531771Y-108805809D02*
X107531771Y-108662952D01*
X107531771Y-108662952D02*
X107579390Y-108567714D01*
X107579390Y-108567714D02*
X107627009Y-108520095D01*
X107627009Y-108520095D02*
X107722247Y-108472476D01*
X107722247Y-108472476D02*
X107960342Y-108472476D01*
X107960342Y-108472476D02*
X108055580Y-108520095D01*
X108055580Y-108520095D02*
X108103200Y-108567714D01*
X108103200Y-108567714D02*
X108150819Y-108662952D01*
X108150819Y-108662952D02*
X108150819Y-108948666D01*
X108150819Y-108948666D02*
X108103200Y-109043904D01*
X108103200Y-109043904D02*
X108055580Y-109091523D01*
X136257833Y-102721580D02*
X136210214Y-102769200D01*
X136210214Y-102769200D02*
X136067357Y-102816819D01*
X136067357Y-102816819D02*
X135972119Y-102816819D01*
X135972119Y-102816819D02*
X135829262Y-102769200D01*
X135829262Y-102769200D02*
X135734024Y-102673961D01*
X135734024Y-102673961D02*
X135686405Y-102578723D01*
X135686405Y-102578723D02*
X135638786Y-102388247D01*
X135638786Y-102388247D02*
X135638786Y-102245390D01*
X135638786Y-102245390D02*
X135686405Y-102054914D01*
X135686405Y-102054914D02*
X135734024Y-101959676D01*
X135734024Y-101959676D02*
X135829262Y-101864438D01*
X135829262Y-101864438D02*
X135972119Y-101816819D01*
X135972119Y-101816819D02*
X136067357Y-101816819D01*
X136067357Y-101816819D02*
X136210214Y-101864438D01*
X136210214Y-101864438D02*
X136257833Y-101912057D01*
X136638786Y-101912057D02*
X136686405Y-101864438D01*
X136686405Y-101864438D02*
X136781643Y-101816819D01*
X136781643Y-101816819D02*
X137019738Y-101816819D01*
X137019738Y-101816819D02*
X137114976Y-101864438D01*
X137114976Y-101864438D02*
X137162595Y-101912057D01*
X137162595Y-101912057D02*
X137210214Y-102007295D01*
X137210214Y-102007295D02*
X137210214Y-102102533D01*
X137210214Y-102102533D02*
X137162595Y-102245390D01*
X137162595Y-102245390D02*
X136591167Y-102816819D01*
X136591167Y-102816819D02*
X137210214Y-102816819D01*
%TO.C,REF\u002A\u002A*%
X141432283Y-81534000D02*
G75*
G03*
X141432283Y-81534000I-4018283J0D01*
G01*
D13*
%TO.C,U3*%
X115550000Y-112333000D02*
X115550000Y-115783000D01*
X115550000Y-112333000D02*
X115550000Y-110383000D01*
X120670000Y-112333000D02*
X120670000Y-114283000D01*
X120670000Y-112333000D02*
X120670000Y-110383000D01*
D10*
%TO.C,REF\u002A\u002A*%
X109682283Y-119634000D02*
G75*
G03*
X109682283Y-119634000I-4018283J0D01*
G01*
%TO.C,Conn3*%
X115824000Y-89408000D02*
X115824000Y-77470000D01*
X117729000Y-89408000D02*
X115824000Y-89408000D01*
X117729000Y-91948000D02*
X117729000Y-89408000D01*
X120269000Y-77470000D02*
X120269000Y-77978000D01*
X120269000Y-81788000D02*
X120269000Y-77978000D01*
X120269000Y-81788000D02*
X120269000Y-83058000D01*
X122809000Y-77470000D02*
X122809000Y-83058000D01*
X122809000Y-83058000D02*
X120269000Y-83058000D01*
X125349000Y-89408000D02*
X125349000Y-91948000D01*
X125349000Y-91948000D02*
X117729000Y-91948000D01*
X127254000Y-77470000D02*
X115824000Y-77470000D01*
X127254000Y-89408000D02*
X117729000Y-89408000D01*
X127254000Y-89408000D02*
X127254000Y-77470000D01*
D13*
%TO.C,R5*%
X106030500Y-97282724D02*
X106030500Y-96773276D01*
X107075500Y-97282724D02*
X107075500Y-96773276D01*
%TO.C,U1*%
X108088000Y-86655000D02*
X106288000Y-86655000D01*
X106288000Y-89875000D02*
X109238000Y-89875000D01*
%TO.C,C1*%
X131003000Y-92674241D02*
X131003000Y-92044241D01*
X130688000Y-92359241D02*
X131318000Y-92359241D01*
X129612000Y-89174000D02*
X136072000Y-89174000D01*
X129612000Y-89134000D02*
X136072000Y-89134000D01*
X129612000Y-89094000D02*
X136072000Y-89094000D01*
X129614000Y-89054000D02*
X136070000Y-89054000D01*
X129615000Y-89014000D02*
X136069000Y-89014000D01*
X129618000Y-88974000D02*
X136066000Y-88974000D01*
X129620000Y-88934000D02*
X131802000Y-88934000D01*
X133882000Y-88934000D02*
X136064000Y-88934000D01*
X129624000Y-88894000D02*
X131802000Y-88894000D01*
X133882000Y-88894000D02*
X136060000Y-88894000D01*
X129627000Y-88854000D02*
X131802000Y-88854000D01*
X133882000Y-88854000D02*
X136057000Y-88854000D01*
X129631000Y-88814000D02*
X131802000Y-88814000D01*
X133882000Y-88814000D02*
X136053000Y-88814000D01*
X129636000Y-88774000D02*
X131802000Y-88774000D01*
X133882000Y-88774000D02*
X136048000Y-88774000D01*
X129641000Y-88734000D02*
X131802000Y-88734000D01*
X133882000Y-88734000D02*
X136043000Y-88734000D01*
X129647000Y-88694000D02*
X131802000Y-88694000D01*
X133882000Y-88694000D02*
X136037000Y-88694000D01*
X129653000Y-88654000D02*
X131802000Y-88654000D01*
X133882000Y-88654000D02*
X136031000Y-88654000D01*
X129660000Y-88614000D02*
X131802000Y-88614000D01*
X133882000Y-88614000D02*
X136024000Y-88614000D01*
X129667000Y-88574000D02*
X131802000Y-88574000D01*
X133882000Y-88574000D02*
X136017000Y-88574000D01*
X129675000Y-88534000D02*
X131802000Y-88534000D01*
X133882000Y-88534000D02*
X136009000Y-88534000D01*
X129683000Y-88494000D02*
X131802000Y-88494000D01*
X133882000Y-88494000D02*
X136001000Y-88494000D01*
X129692000Y-88453000D02*
X131802000Y-88453000D01*
X133882000Y-88453000D02*
X135992000Y-88453000D01*
X129701000Y-88413000D02*
X131802000Y-88413000D01*
X133882000Y-88413000D02*
X135983000Y-88413000D01*
X129711000Y-88373000D02*
X131802000Y-88373000D01*
X133882000Y-88373000D02*
X135973000Y-88373000D01*
X129721000Y-88333000D02*
X131802000Y-88333000D01*
X133882000Y-88333000D02*
X135963000Y-88333000D01*
X129732000Y-88293000D02*
X131802000Y-88293000D01*
X133882000Y-88293000D02*
X135952000Y-88293000D01*
X129744000Y-88253000D02*
X131802000Y-88253000D01*
X133882000Y-88253000D02*
X135940000Y-88253000D01*
X129756000Y-88213000D02*
X131802000Y-88213000D01*
X133882000Y-88213000D02*
X135928000Y-88213000D01*
X129768000Y-88173000D02*
X131802000Y-88173000D01*
X133882000Y-88173000D02*
X135916000Y-88173000D01*
X129781000Y-88133000D02*
X131802000Y-88133000D01*
X133882000Y-88133000D02*
X135903000Y-88133000D01*
X129795000Y-88093000D02*
X131802000Y-88093000D01*
X133882000Y-88093000D02*
X135889000Y-88093000D01*
X129809000Y-88053000D02*
X131802000Y-88053000D01*
X133882000Y-88053000D02*
X135875000Y-88053000D01*
X129824000Y-88013000D02*
X131802000Y-88013000D01*
X133882000Y-88013000D02*
X135860000Y-88013000D01*
X129840000Y-87973000D02*
X131802000Y-87973000D01*
X133882000Y-87973000D02*
X135844000Y-87973000D01*
X129856000Y-87933000D02*
X131802000Y-87933000D01*
X133882000Y-87933000D02*
X135828000Y-87933000D01*
X129872000Y-87893000D02*
X131802000Y-87893000D01*
X133882000Y-87893000D02*
X135812000Y-87893000D01*
X129890000Y-87853000D02*
X131802000Y-87853000D01*
X133882000Y-87853000D02*
X135794000Y-87853000D01*
X129908000Y-87813000D02*
X131802000Y-87813000D01*
X133882000Y-87813000D02*
X135776000Y-87813000D01*
X129926000Y-87773000D02*
X131802000Y-87773000D01*
X133882000Y-87773000D02*
X135758000Y-87773000D01*
X129946000Y-87733000D02*
X131802000Y-87733000D01*
X133882000Y-87733000D02*
X135738000Y-87733000D01*
X129966000Y-87693000D02*
X131802000Y-87693000D01*
X133882000Y-87693000D02*
X135718000Y-87693000D01*
X129986000Y-87653000D02*
X131802000Y-87653000D01*
X133882000Y-87653000D02*
X135698000Y-87653000D01*
X130008000Y-87613000D02*
X131802000Y-87613000D01*
X133882000Y-87613000D02*
X135676000Y-87613000D01*
X130030000Y-87573000D02*
X131802000Y-87573000D01*
X133882000Y-87573000D02*
X135654000Y-87573000D01*
X130052000Y-87533000D02*
X131802000Y-87533000D01*
X133882000Y-87533000D02*
X135632000Y-87533000D01*
X130076000Y-87493000D02*
X131802000Y-87493000D01*
X133882000Y-87493000D02*
X135608000Y-87493000D01*
X130100000Y-87453000D02*
X131802000Y-87453000D01*
X133882000Y-87453000D02*
X135584000Y-87453000D01*
X130126000Y-87413000D02*
X131802000Y-87413000D01*
X133882000Y-87413000D02*
X135558000Y-87413000D01*
X130152000Y-87373000D02*
X131802000Y-87373000D01*
X133882000Y-87373000D02*
X135532000Y-87373000D01*
X130178000Y-87333000D02*
X131802000Y-87333000D01*
X133882000Y-87333000D02*
X135506000Y-87333000D01*
X130206000Y-87293000D02*
X131802000Y-87293000D01*
X133882000Y-87293000D02*
X135478000Y-87293000D01*
X130235000Y-87253000D02*
X131802000Y-87253000D01*
X133882000Y-87253000D02*
X135449000Y-87253000D01*
X130264000Y-87213000D02*
X131802000Y-87213000D01*
X133882000Y-87213000D02*
X135420000Y-87213000D01*
X130294000Y-87173000D02*
X131802000Y-87173000D01*
X133882000Y-87173000D02*
X135390000Y-87173000D01*
X130326000Y-87133000D02*
X131802000Y-87133000D01*
X133882000Y-87133000D02*
X135358000Y-87133000D01*
X130358000Y-87093000D02*
X131802000Y-87093000D01*
X133882000Y-87093000D02*
X135326000Y-87093000D01*
X130392000Y-87053000D02*
X131802000Y-87053000D01*
X133882000Y-87053000D02*
X135292000Y-87053000D01*
X130426000Y-87013000D02*
X131802000Y-87013000D01*
X133882000Y-87013000D02*
X135258000Y-87013000D01*
X130462000Y-86973000D02*
X131802000Y-86973000D01*
X133882000Y-86973000D02*
X135222000Y-86973000D01*
X130499000Y-86933000D02*
X131802000Y-86933000D01*
X133882000Y-86933000D02*
X135185000Y-86933000D01*
X130537000Y-86893000D02*
X131802000Y-86893000D01*
X133882000Y-86893000D02*
X135147000Y-86893000D01*
X130577000Y-86853000D02*
X135107000Y-86853000D01*
X130618000Y-86813000D02*
X135066000Y-86813000D01*
X130660000Y-86773000D02*
X135024000Y-86773000D01*
X130705000Y-86733000D02*
X134979000Y-86733000D01*
X130750000Y-86693000D02*
X134934000Y-86693000D01*
X130798000Y-86653000D02*
X134886000Y-86653000D01*
X130847000Y-86613000D02*
X134837000Y-86613000D01*
X130898000Y-86573000D02*
X134786000Y-86573000D01*
X130952000Y-86533000D02*
X134732000Y-86533000D01*
X131008000Y-86493000D02*
X134676000Y-86493000D01*
X131066000Y-86453000D02*
X134618000Y-86453000D01*
X131128000Y-86413000D02*
X134556000Y-86413000D01*
X131192000Y-86373000D02*
X134492000Y-86373000D01*
X131261000Y-86333000D02*
X134423000Y-86333000D01*
X131333000Y-86293000D02*
X134351000Y-86293000D01*
X131410000Y-86253000D02*
X134274000Y-86253000D01*
X131492000Y-86213000D02*
X134192000Y-86213000D01*
X131580000Y-86173000D02*
X134104000Y-86173000D01*
X131677000Y-86133000D02*
X134007000Y-86133000D01*
X131783000Y-86093000D02*
X133901000Y-86093000D01*
X131902000Y-86053000D02*
X133782000Y-86053000D01*
X132040000Y-86013000D02*
X133644000Y-86013000D01*
X132209000Y-85973000D02*
X133475000Y-85973000D01*
X132440000Y-85933000D02*
X133244000Y-85933000D01*
X136112000Y-89174000D02*
G75*
G03*
X136112000Y-89174000I-3270000J0D01*
G01*
D10*
%TO.C,REF\u002A\u002A*%
X141432283Y-119634000D02*
G75*
G03*
X141432283Y-119634000I-4018283J0D01*
G01*
D13*
%TO.C,R1*%
X113007224Y-84469500D02*
X112497776Y-84469500D01*
X113007224Y-83424500D02*
X112497776Y-83424500D01*
%TO.C,D2*%
X138022000Y-105641000D02*
X136552000Y-105641000D01*
X136552000Y-105641000D02*
X136552000Y-108101000D01*
X138022000Y-108101000D02*
X138022000Y-105641000D01*
%TO.C,R2*%
X129943776Y-114793500D02*
X130453224Y-114793500D01*
X129943776Y-115838500D02*
X130453224Y-115838500D01*
D10*
%TO.C,REF\u002A\u002A*%
X109682283Y-81534000D02*
G75*
G03*
X109682283Y-81534000I-4018283J0D01*
G01*
D13*
%TO.C,Q2*%
X134386000Y-98617000D02*
X134386000Y-95167000D01*
X134386000Y-98617000D02*
X134386000Y-100567000D01*
X129266000Y-98617000D02*
X129266000Y-96667000D01*
X129266000Y-98617000D02*
X129266000Y-100567000D01*
%TO.C,D1*%
X114412500Y-81761000D02*
X114412500Y-80291000D01*
X114412500Y-80291000D02*
X111952500Y-80291000D01*
X111952500Y-81761000D02*
X114412500Y-81761000D01*
%TO.C,R6*%
X130660224Y-84469500D02*
X130150776Y-84469500D01*
X130660224Y-83424500D02*
X130150776Y-83424500D01*
%TO.C,C3*%
X121685267Y-101602000D02*
X121392733Y-101602000D01*
X121685267Y-100582000D02*
X121392733Y-100582000D01*
%TO.C,R4*%
X113181224Y-115838500D02*
X112671776Y-115838500D01*
X113181224Y-114793500D02*
X112671776Y-114793500D01*
%TO.C,Q1*%
X134386000Y-109282000D02*
X134386000Y-105832000D01*
X134386000Y-109282000D02*
X134386000Y-111232000D01*
X129266000Y-109282000D02*
X129266000Y-107332000D01*
X129266000Y-109282000D02*
X129266000Y-111232000D01*
%TO.C,D3*%
X106526000Y-105641000D02*
X105056000Y-105641000D01*
X105056000Y-105641000D02*
X105056000Y-108101000D01*
X106526000Y-108101000D02*
X106526000Y-105641000D01*
%TO.C,R3*%
X135875500Y-97282724D02*
X135875500Y-96773276D01*
X136920500Y-97282724D02*
X136920500Y-96773276D01*
%TO.C,U2*%
X122408000Y-112333000D02*
X122408000Y-115783000D01*
X122408000Y-112333000D02*
X122408000Y-110383000D01*
X127528000Y-112333000D02*
X127528000Y-114283000D01*
X127528000Y-112333000D02*
X127528000Y-110383000D01*
%TO.C,D4*%
X132065500Y-81761000D02*
X132065500Y-80291000D01*
X132065500Y-80291000D02*
X129605500Y-80291000D01*
X129605500Y-81761000D02*
X132065500Y-81761000D01*
%TO.C,G\u002A\u002A\u002A*%
G36*
X103699777Y-93099720D02*
G01*
X103734635Y-93128961D01*
X103759600Y-93167735D01*
X103762868Y-93200968D01*
X103736492Y-93223263D01*
X103695280Y-93222440D01*
X103661303Y-93202621D01*
X103639841Y-93161814D01*
X103642879Y-93119366D01*
X103667350Y-93093835D01*
X103699777Y-93099720D01*
G37*
G36*
X103807309Y-97553918D02*
G01*
X103821303Y-97562621D01*
X103834430Y-97597515D01*
X103818165Y-97630718D01*
X103780599Y-97646564D01*
X103777931Y-97646621D01*
X103746741Y-97632003D01*
X103736735Y-97599547D01*
X103749614Y-97566351D01*
X103768648Y-97553337D01*
X103807309Y-97553918D01*
G37*
G36*
X103791542Y-91423993D02*
G01*
X103870661Y-91445875D01*
X103957689Y-91480731D01*
X104046059Y-91526610D01*
X104129204Y-91581559D01*
X104152886Y-91600125D01*
X104237778Y-91674190D01*
X104291350Y-91734078D01*
X104316677Y-91786032D01*
X104316835Y-91836294D01*
X104295593Y-91889817D01*
X104249640Y-91935455D01*
X104165025Y-91973619D01*
X104042405Y-92004187D01*
X103882435Y-92027036D01*
X103685773Y-92042045D01*
X103453075Y-92049090D01*
X103440184Y-92049235D01*
X103349949Y-92051007D01*
X103254854Y-92054277D01*
X103160985Y-92058635D01*
X103074429Y-92063670D01*
X103001275Y-92068972D01*
X102947609Y-92074131D01*
X102919519Y-92078737D01*
X102923091Y-92082378D01*
X102933473Y-92083387D01*
X102975725Y-92090144D01*
X103047754Y-92105530D01*
X103140829Y-92127353D01*
X103246217Y-92153420D01*
X103355189Y-92181540D01*
X103459011Y-92209521D01*
X103548953Y-92235171D01*
X103597303Y-92250026D01*
X103719999Y-92292697D01*
X103848169Y-92342878D01*
X103974126Y-92397014D01*
X104090184Y-92451551D01*
X104188656Y-92502934D01*
X104261855Y-92547608D01*
X104292303Y-92571424D01*
X104331908Y-92632204D01*
X104335725Y-92700124D01*
X104304394Y-92765794D01*
X104277208Y-92793631D01*
X104248574Y-92815113D01*
X104216321Y-92831789D01*
X104174699Y-92844561D01*
X104117957Y-92854331D01*
X104040344Y-92862001D01*
X103936108Y-92868472D01*
X103799498Y-92874647D01*
X103747303Y-92876735D01*
X103567247Y-92885556D01*
X103391752Y-92897433D01*
X103225509Y-92911780D01*
X103073207Y-92928010D01*
X102939537Y-92945537D01*
X102829187Y-92963774D01*
X102746847Y-92982136D01*
X102697207Y-93000036D01*
X102685524Y-93009499D01*
X102684505Y-93043104D01*
X102717031Y-93077815D01*
X102776822Y-93110999D01*
X102857599Y-93140027D01*
X102953082Y-93162265D01*
X103056992Y-93175084D01*
X103084149Y-93176532D01*
X103200010Y-93187336D01*
X103281722Y-93209200D01*
X103327533Y-93241472D01*
X103337303Y-93270458D01*
X103328034Y-93302323D01*
X103296859Y-93319886D01*
X103238723Y-93324105D01*
X103148575Y-93315934D01*
X103118654Y-93311809D01*
X103001748Y-93299594D01*
X102918343Y-93301371D01*
X102869904Y-93316978D01*
X102857303Y-93340077D01*
X102874636Y-93368805D01*
X102927339Y-93398279D01*
X103016472Y-93428841D01*
X103143095Y-93460836D01*
X103308266Y-93494606D01*
X103367821Y-93505554D01*
X103525511Y-93532236D01*
X103657667Y-93550307D01*
X103777497Y-93561105D01*
X103898208Y-93565969D01*
X103970088Y-93566601D01*
X104080862Y-93567332D01*
X104159114Y-93570101D01*
X104212304Y-93575801D01*
X104247893Y-93585326D01*
X104273341Y-93599567D01*
X104278423Y-93603505D01*
X104310691Y-93644792D01*
X104304885Y-93681442D01*
X104262930Y-93708834D01*
X104231037Y-93717240D01*
X104182049Y-93720704D01*
X104105599Y-93719637D01*
X104013927Y-93714393D01*
X103954986Y-93709218D01*
X103869171Y-93703727D01*
X103762258Y-93701548D01*
X103643138Y-93702351D01*
X103520702Y-93705806D01*
X103403843Y-93711580D01*
X103301451Y-93719345D01*
X103222419Y-93728768D01*
X103179581Y-93738058D01*
X103169232Y-93756026D01*
X103187004Y-93787066D01*
X103226623Y-93823824D01*
X103281818Y-93858950D01*
X103283451Y-93859800D01*
X103331846Y-93890715D01*
X103336391Y-93894219D01*
X103390733Y-93936111D01*
X103418498Y-93960079D01*
X103475519Y-94027982D01*
X103496374Y-94090574D01*
X103484889Y-94143195D01*
X103444894Y-94181183D01*
X103380215Y-94199880D01*
X103294682Y-94194623D01*
X103238467Y-94179262D01*
X103183431Y-94161973D01*
X103148551Y-94160999D01*
X103116266Y-94179331D01*
X103085798Y-94205260D01*
X103025788Y-94247939D01*
X102952680Y-94287049D01*
X102928304Y-94297302D01*
X102872836Y-94322301D01*
X102854989Y-94341000D01*
X102861201Y-94349452D01*
X102910169Y-94365759D01*
X102948695Y-94352835D01*
X102962306Y-94329650D01*
X102987779Y-94293534D01*
X103040416Y-94281758D01*
X103122519Y-94293964D01*
X103147303Y-94300559D01*
X103148066Y-94300762D01*
X103167303Y-94305890D01*
X103231610Y-94323034D01*
X103339082Y-94349552D01*
X103462025Y-94378451D01*
X103591984Y-94407864D01*
X103720503Y-94435925D01*
X103839127Y-94460769D01*
X103939399Y-94480530D01*
X104012864Y-94493342D01*
X104033770Y-94496210D01*
X104123088Y-94513622D01*
X104198979Y-94541437D01*
X104253038Y-94575489D01*
X104276858Y-94611608D01*
X104277303Y-94616954D01*
X104272727Y-94638571D01*
X104255523Y-94652235D01*
X104220482Y-94658116D01*
X104162394Y-94656384D01*
X104076048Y-94647211D01*
X103956235Y-94630764D01*
X103937559Y-94628047D01*
X103834623Y-94613206D01*
X103745378Y-94600718D01*
X103677522Y-94591633D01*
X103638748Y-94586998D01*
X103633373Y-94586621D01*
X103633860Y-94599676D01*
X103656781Y-94633378D01*
X103684976Y-94666678D01*
X103736697Y-94742398D01*
X103756714Y-94814531D01*
X103746589Y-94876655D01*
X103707886Y-94922348D01*
X103642167Y-94945185D01*
X103616871Y-94946621D01*
X103577687Y-94955510D01*
X103551334Y-94989035D01*
X103540027Y-95016621D01*
X103514212Y-95064924D01*
X103484550Y-95088369D01*
X103481009Y-95088924D01*
X103387867Y-95081992D01*
X103297188Y-95045532D01*
X103200378Y-94975979D01*
X103192573Y-94969280D01*
X103147238Y-94937416D01*
X103088664Y-94912380D01*
X103006560Y-94890382D01*
X102942972Y-94877303D01*
X102806839Y-94856971D01*
X102704802Y-94855056D01*
X102635388Y-94871682D01*
X102597547Y-94906166D01*
X102578618Y-94968560D01*
X102585537Y-95040877D01*
X102619750Y-95126674D01*
X102682703Y-95229507D01*
X102775842Y-95352931D01*
X102782615Y-95361307D01*
X102833597Y-95423479D01*
X102865215Y-95458118D01*
X102883233Y-95468813D01*
X102893411Y-95459154D01*
X102894248Y-95456458D01*
X103005628Y-95456458D01*
X103023684Y-95482580D01*
X103027303Y-95486609D01*
X103028651Y-95488110D01*
X103063549Y-95511854D01*
X103125708Y-95541038D01*
X103203804Y-95570570D01*
X103233965Y-95580409D01*
X103403620Y-95633304D01*
X103437391Y-95594043D01*
X103450462Y-95578847D01*
X103490098Y-95509632D01*
X103493577Y-95443362D01*
X103464585Y-95386522D01*
X103406809Y-95345598D01*
X103323934Y-95327075D01*
X103307106Y-95326621D01*
X103194919Y-95333704D01*
X103111476Y-95356635D01*
X103047808Y-95397931D01*
X103045432Y-95400107D01*
X103011924Y-95433968D01*
X103005628Y-95456458D01*
X102894248Y-95456458D01*
X102900903Y-95435010D01*
X102943358Y-95350232D01*
X103017693Y-95284558D01*
X103119351Y-95240591D01*
X103243776Y-95220932D01*
X103277303Y-95220120D01*
X103307106Y-95223903D01*
X103391054Y-95234557D01*
X103483680Y-95274540D01*
X103551422Y-95335208D01*
X103590525Y-95411703D01*
X103597232Y-95499165D01*
X103567786Y-95592735D01*
X103566823Y-95594596D01*
X103547694Y-95635005D01*
X103541623Y-95655734D01*
X103541946Y-95656181D01*
X103562369Y-95662357D01*
X103612718Y-95675932D01*
X103684127Y-95694544D01*
X103727303Y-95705597D01*
X103929769Y-95764338D01*
X104093890Y-95828207D01*
X104221114Y-95898241D01*
X104312888Y-95975480D01*
X104370658Y-96060962D01*
X104395871Y-96155725D01*
X104397303Y-96186621D01*
X104379678Y-96292814D01*
X104330513Y-96380715D01*
X104255374Y-96446970D01*
X104159826Y-96488225D01*
X104049436Y-96501128D01*
X103929768Y-96482325D01*
X103914413Y-96477571D01*
X103852822Y-96454455D01*
X103790706Y-96423931D01*
X103722335Y-96382176D01*
X103641975Y-96325369D01*
X103543895Y-96249690D01*
X103422363Y-96151317D01*
X103410957Y-96141942D01*
X103317945Y-96067092D01*
X103250523Y-96017061D01*
X103204981Y-95989437D01*
X103177607Y-95981810D01*
X103169323Y-95984944D01*
X103135405Y-96026378D01*
X103097207Y-96092409D01*
X103061450Y-96169177D01*
X103034852Y-96242822D01*
X103025929Y-96280706D01*
X103027637Y-96393248D01*
X103067682Y-96502315D01*
X103122164Y-96579100D01*
X103170246Y-96628354D01*
X103223085Y-96668981D01*
X103286877Y-96703501D01*
X103367820Y-96734434D01*
X103472110Y-96764300D01*
X103605945Y-96795620D01*
X103707303Y-96817043D01*
X103875414Y-96852528D01*
X104008308Y-96882828D01*
X104110238Y-96909271D01*
X104185454Y-96933184D01*
X104238207Y-96955893D01*
X104272748Y-96978727D01*
X104291011Y-96999296D01*
X104308255Y-97035317D01*
X104296612Y-97063599D01*
X104284090Y-97076977D01*
X104237208Y-97098819D01*
X104159903Y-97105991D01*
X104058482Y-97099663D01*
X103939250Y-97081010D01*
X103808514Y-97051204D01*
X103672579Y-97011417D01*
X103537752Y-96962822D01*
X103437303Y-96919508D01*
X103349903Y-96882358D01*
X103266037Y-96856483D01*
X103170175Y-96837860D01*
X103074024Y-96825437D01*
X102934209Y-96813833D01*
X102828081Y-96813138D01*
X102756508Y-96821923D01*
X102720353Y-96838763D01*
X102720485Y-96862230D01*
X102757767Y-96890898D01*
X102833066Y-96923341D01*
X102947248Y-96958131D01*
X102987303Y-96968344D01*
X103112361Y-97001812D01*
X103200399Y-97032052D01*
X103254154Y-97060257D01*
X103276360Y-97087616D01*
X103277303Y-97094685D01*
X103259596Y-97138730D01*
X103207328Y-97164760D01*
X103121780Y-97172520D01*
X103004230Y-97161756D01*
X102969034Y-97155972D01*
X102869863Y-97140302D01*
X102787166Y-97130805D01*
X102726326Y-97127695D01*
X102692727Y-97131186D01*
X102691753Y-97141491D01*
X102697303Y-97145194D01*
X102727723Y-97156862D01*
X102788078Y-97175646D01*
X102869510Y-97198915D01*
X102905817Y-97208667D01*
X102959338Y-97223042D01*
X103007303Y-97236752D01*
X103047303Y-97248185D01*
X103087303Y-97259618D01*
X103105670Y-97264868D01*
X103110148Y-97266398D01*
X103127303Y-97272257D01*
X103234970Y-97309033D01*
X103267303Y-97322406D01*
X103342040Y-97353318D01*
X103421683Y-97395506D01*
X103468702Y-97433378D01*
X103475558Y-97443360D01*
X103485852Y-97478061D01*
X103466132Y-97505588D01*
X103452924Y-97515437D01*
X103398790Y-97539043D01*
X103349753Y-97546621D01*
X103321912Y-97548238D01*
X103316443Y-97556086D01*
X103336833Y-97574658D01*
X103347303Y-97581770D01*
X103386574Y-97608447D01*
X103409203Y-97623170D01*
X103495893Y-97683240D01*
X103551139Y-97732062D01*
X103579918Y-97774928D01*
X103587303Y-97812480D01*
X103593068Y-97830200D01*
X103613916Y-97848346D01*
X103655180Y-97869497D01*
X103722190Y-97896231D01*
X103820280Y-97931126D01*
X103862759Y-97945682D01*
X103998566Y-97993763D01*
X104100121Y-98034549D01*
X104171931Y-98070642D01*
X104218500Y-98104640D01*
X104244334Y-98139142D01*
X104253385Y-98171043D01*
X104250750Y-98211317D01*
X104228243Y-98231152D01*
X104182214Y-98230528D01*
X104109015Y-98209424D01*
X104009354Y-98169690D01*
X103904079Y-98125744D01*
X103789507Y-98079781D01*
X103674236Y-98035062D01*
X103566863Y-97994843D01*
X103475988Y-97962385D01*
X103410208Y-97940946D01*
X103393925Y-97936452D01*
X103354273Y-97931952D01*
X103337570Y-97951331D01*
X103333925Y-97969859D01*
X103322973Y-98000435D01*
X103293892Y-98017255D01*
X103239027Y-98026621D01*
X103150751Y-98036621D01*
X103224585Y-98071563D01*
X103277250Y-98099676D01*
X103348835Y-98141984D01*
X103425238Y-98190103D01*
X103437250Y-98197967D01*
X103553354Y-98278820D01*
X103634262Y-98346085D01*
X103681482Y-98402069D01*
X103696524Y-98449079D01*
X103680897Y-98489421D01*
X103647070Y-98518613D01*
X103614430Y-98535218D01*
X103577299Y-98541479D01*
X103529126Y-98536109D01*
X103463357Y-98517818D01*
X103373439Y-98485317D01*
X103270819Y-98444623D01*
X103185098Y-98410081D01*
X103111268Y-98380638D01*
X103058352Y-98359873D01*
X103037303Y-98351971D01*
X103039791Y-98357162D01*
X103070655Y-98379396D01*
X103124217Y-98414737D01*
X103167883Y-98442479D01*
X103284361Y-98519745D01*
X103365993Y-98583988D01*
X103414970Y-98637293D01*
X103433481Y-98681748D01*
X103433217Y-98695262D01*
X103422225Y-98722272D01*
X103392129Y-98734280D01*
X103344816Y-98736621D01*
X103289068Y-98741276D01*
X103270609Y-98755607D01*
X103271614Y-98760731D01*
X103265102Y-98792446D01*
X103234226Y-98830707D01*
X103190751Y-98864887D01*
X103146439Y-98884361D01*
X103133213Y-98885743D01*
X103084548Y-98878463D01*
X103022548Y-98861584D01*
X103009364Y-98857089D01*
X102976069Y-98845376D01*
X102956468Y-98840286D01*
X102953468Y-98845006D01*
X102969972Y-98862725D01*
X103008888Y-98896631D01*
X103073120Y-98949912D01*
X103155657Y-99017625D01*
X103262548Y-99113290D01*
X103365979Y-99220550D01*
X103461544Y-99333382D01*
X103544834Y-99445761D01*
X103611444Y-99551662D01*
X103656966Y-99645062D01*
X103676993Y-99719935D01*
X103677551Y-99731050D01*
X103697726Y-99779184D01*
X103750504Y-99823740D01*
X103793923Y-99847979D01*
X103813474Y-99850130D01*
X103813170Y-99843740D01*
X103773230Y-99728416D01*
X103751462Y-99646862D01*
X103747486Y-99597407D01*
X103753755Y-99582169D01*
X103781217Y-99567764D01*
X103809147Y-99582405D01*
X103839770Y-99628966D01*
X103875310Y-99710323D01*
X103896020Y-99766068D01*
X103961601Y-99949406D01*
X104167555Y-100045820D01*
X104285002Y-100105326D01*
X104366666Y-100157971D01*
X104415604Y-100206453D01*
X104434873Y-100253470D01*
X104433755Y-100280637D01*
X104414481Y-100312346D01*
X104371920Y-100319228D01*
X104303787Y-100300971D01*
X104207797Y-100257259D01*
X104187626Y-100246790D01*
X104113742Y-100208458D01*
X104068867Y-100187679D01*
X104046871Y-100182898D01*
X104041623Y-100192559D01*
X104045696Y-100210776D01*
X104081201Y-100337538D01*
X104118043Y-100480111D01*
X104155134Y-100633160D01*
X104191386Y-100791348D01*
X104225711Y-100949341D01*
X104257021Y-101101803D01*
X104284227Y-101243398D01*
X104306243Y-101368792D01*
X104321979Y-101472648D01*
X104330348Y-101549632D01*
X104330262Y-101594407D01*
X104328917Y-101599627D01*
X104300625Y-101621451D01*
X104263008Y-101622960D01*
X104208486Y-101616621D01*
X104124233Y-101156621D01*
X104096109Y-101006948D01*
X104065947Y-100853099D01*
X104035838Y-100705291D01*
X104007877Y-100573746D01*
X103984154Y-100468681D01*
X103978855Y-100446621D01*
X103946574Y-100313821D01*
X103921832Y-100214313D01*
X103901849Y-100142742D01*
X103883850Y-100093753D01*
X103865057Y-100061991D01*
X103842691Y-100042101D01*
X103813976Y-100028728D01*
X103776134Y-100016516D01*
X103751764Y-100008795D01*
X103603442Y-99965594D01*
X103447493Y-99929520D01*
X103292673Y-99901868D01*
X103147739Y-99883929D01*
X103021446Y-99876999D01*
X102922551Y-99882369D01*
X102909943Y-99884440D01*
X102788371Y-99920170D01*
X102699886Y-99977543D01*
X102642607Y-100058773D01*
X102614656Y-100166074D01*
X102611100Y-100236621D01*
X102627480Y-100373331D01*
X102675822Y-100517489D01*
X102757346Y-100671530D01*
X102873272Y-100837889D01*
X102974219Y-100961436D01*
X103027721Y-101025638D01*
X103069473Y-101079621D01*
X103093631Y-101115626D01*
X103097303Y-101124829D01*
X103081634Y-101149117D01*
X103055647Y-101167507D01*
X103030811Y-101175828D01*
X103005106Y-101168523D01*
X102970379Y-101140727D01*
X102918481Y-101087575D01*
X102914397Y-101083211D01*
X102769388Y-100912595D01*
X102654058Y-100744499D01*
X102568506Y-100581408D01*
X102512829Y-100425810D01*
X102487122Y-100280189D01*
X102491484Y-100147033D01*
X102526011Y-100028828D01*
X102590801Y-99928060D01*
X102685949Y-99847215D01*
X102811554Y-99788781D01*
X102863334Y-99773933D01*
X102998978Y-99740460D01*
X102983021Y-99726183D01*
X103286658Y-99726183D01*
X103289229Y-99734426D01*
X103316628Y-99767156D01*
X103331712Y-99775545D01*
X103363327Y-99783594D01*
X103361590Y-99771760D01*
X103326800Y-99741780D01*
X103325724Y-99740973D01*
X103293790Y-99720282D01*
X103286658Y-99726183D01*
X102983021Y-99726183D01*
X102853141Y-99609974D01*
X102737675Y-99504062D01*
X102638643Y-99408016D01*
X102559482Y-99325459D01*
X102503626Y-99260015D01*
X102474513Y-99215308D01*
X102471844Y-99207902D01*
X102477803Y-99161713D01*
X102482807Y-99156621D01*
X102577303Y-99156621D01*
X102587303Y-99166621D01*
X102597303Y-99156621D01*
X102587303Y-99146621D01*
X102577303Y-99156621D01*
X102482807Y-99156621D01*
X102500448Y-99138669D01*
X102519013Y-99122749D01*
X102520410Y-99106339D01*
X102500273Y-99082475D01*
X102454239Y-99044195D01*
X102428615Y-99024083D01*
X102356291Y-98959552D01*
X102321127Y-98908068D01*
X102323279Y-98869923D01*
X102338440Y-98855918D01*
X102385534Y-98849901D01*
X102450896Y-98877093D01*
X102532274Y-98936365D01*
X102574861Y-98974462D01*
X102587303Y-98985611D01*
X102649307Y-99041169D01*
X102740336Y-99117462D01*
X102843334Y-99199993D01*
X102953686Y-99285411D01*
X103066777Y-99370368D01*
X103177992Y-99451514D01*
X103282716Y-99525499D01*
X103293790Y-99533007D01*
X103376335Y-99588975D01*
X103454233Y-99638591D01*
X103511796Y-99670998D01*
X103544408Y-99682846D01*
X103549053Y-99681538D01*
X103542325Y-99662746D01*
X103518129Y-99619324D01*
X103481314Y-99559838D01*
X103472069Y-99545547D01*
X103421056Y-99476388D01*
X103347677Y-99388771D01*
X103259488Y-99290785D01*
X103164047Y-99190516D01*
X103068908Y-99096054D01*
X102981629Y-99015487D01*
X102957303Y-98994558D01*
X102882278Y-98924714D01*
X102823447Y-98856855D01*
X102786747Y-98798562D01*
X102777303Y-98764657D01*
X102793013Y-98720918D01*
X102836473Y-98700561D01*
X102902176Y-98704739D01*
X102964527Y-98725431D01*
X103035852Y-98751109D01*
X103096830Y-98764353D01*
X103139142Y-98764288D01*
X103154469Y-98750035D01*
X103153550Y-98745359D01*
X103135105Y-98725252D01*
X103091259Y-98688469D01*
X103029507Y-98641095D01*
X102986883Y-98610049D01*
X102898511Y-98542771D01*
X102841364Y-98488748D01*
X102810839Y-98443455D01*
X102806896Y-98433175D01*
X102778251Y-98375765D01*
X102748530Y-98336621D01*
X102977303Y-98336621D01*
X102987303Y-98346621D01*
X102997303Y-98336621D01*
X102987303Y-98326621D01*
X102977303Y-98336621D01*
X102748530Y-98336621D01*
X102735649Y-98319657D01*
X102730982Y-98314844D01*
X102690308Y-98257174D01*
X102685335Y-98204634D01*
X102716392Y-98162680D01*
X102721631Y-98159190D01*
X102757652Y-98155350D01*
X102823948Y-98166188D01*
X102914388Y-98189814D01*
X102987303Y-98213026D01*
X103022839Y-98224339D01*
X103143168Y-98267874D01*
X103269244Y-98318528D01*
X103343075Y-98350646D01*
X103421026Y-98383871D01*
X103486297Y-98408512D01*
X103529741Y-98421278D01*
X103541229Y-98421979D01*
X103536513Y-98409015D01*
X103502419Y-98380470D01*
X103444643Y-98339996D01*
X103368882Y-98291243D01*
X103280831Y-98237860D01*
X103186187Y-98183499D01*
X103090646Y-98131810D01*
X103079048Y-98125783D01*
X102949532Y-98052141D01*
X102901545Y-98016621D01*
X103117303Y-98016621D01*
X103127303Y-98026621D01*
X103137303Y-98016621D01*
X103127303Y-98006621D01*
X103117303Y-98016621D01*
X102901545Y-98016621D01*
X102874525Y-97996621D01*
X103077303Y-97996621D01*
X103087303Y-98006621D01*
X103097303Y-97996621D01*
X103087303Y-97986621D01*
X103077303Y-97996621D01*
X102874525Y-97996621D01*
X102857748Y-97984203D01*
X102851131Y-97976621D01*
X103037303Y-97976621D01*
X103047303Y-97986621D01*
X103057303Y-97976621D01*
X103047303Y-97966621D01*
X103037303Y-97976621D01*
X102851131Y-97976621D01*
X102802086Y-97920427D01*
X102783009Y-97865259D01*
X102897303Y-97865259D01*
X102912330Y-97887494D01*
X102949677Y-97919616D01*
X102962303Y-97928669D01*
X103027303Y-97973440D01*
X102968562Y-97910030D01*
X102930848Y-97870528D01*
X103097551Y-97870528D01*
X103115774Y-97884119D01*
X103127303Y-97889920D01*
X103157303Y-97905015D01*
X103190511Y-97920069D01*
X103190387Y-97915801D01*
X103168481Y-97897724D01*
X103131293Y-97873676D01*
X103110148Y-97866621D01*
X103097551Y-97870528D01*
X102930848Y-97870528D01*
X102927201Y-97866708D01*
X102905817Y-97849512D01*
X102898061Y-97854452D01*
X102897303Y-97865259D01*
X102783009Y-97865259D01*
X102780938Y-97859271D01*
X102781171Y-97840277D01*
X102801813Y-97780969D01*
X102837303Y-97752371D01*
X102862955Y-97736621D01*
X103117303Y-97736621D01*
X103127303Y-97746621D01*
X103137303Y-97736621D01*
X103127303Y-97726621D01*
X103117303Y-97736621D01*
X102862955Y-97736621D01*
X102866203Y-97734627D01*
X102866185Y-97726922D01*
X102865903Y-97726915D01*
X102844093Y-97716621D01*
X103077303Y-97716621D01*
X103087303Y-97726621D01*
X103097303Y-97716621D01*
X103337303Y-97716621D01*
X103347303Y-97726621D01*
X103357303Y-97716621D01*
X103347303Y-97706621D01*
X103337303Y-97716621D01*
X103097303Y-97716621D01*
X103087303Y-97706621D01*
X103077303Y-97716621D01*
X102844093Y-97716621D01*
X102839822Y-97714605D01*
X102814425Y-97696621D01*
X103037303Y-97696621D01*
X103047303Y-97706621D01*
X103057303Y-97696621D01*
X103047303Y-97686621D01*
X103037303Y-97696621D01*
X102814425Y-97696621D01*
X102795560Y-97683262D01*
X102787398Y-97676621D01*
X102997303Y-97676621D01*
X103007303Y-97686621D01*
X103017303Y-97676621D01*
X103007303Y-97666621D01*
X102997303Y-97676621D01*
X102787398Y-97676621D01*
X102760903Y-97655062D01*
X102705547Y-97596494D01*
X102678926Y-97543126D01*
X102679505Y-97536621D01*
X103257303Y-97536621D01*
X103267303Y-97546621D01*
X103277303Y-97536621D01*
X103267303Y-97526621D01*
X103257303Y-97536621D01*
X102679505Y-97536621D01*
X102682689Y-97500830D01*
X102711174Y-97477903D01*
X102729709Y-97465834D01*
X102722661Y-97446694D01*
X102691174Y-97414953D01*
X102647862Y-97359291D01*
X102639236Y-97307842D01*
X102657441Y-97274483D01*
X102658289Y-97249374D01*
X102621394Y-97212846D01*
X102617441Y-97209884D01*
X102570910Y-97161600D01*
X102557303Y-97106825D01*
X102562397Y-97067785D01*
X102584833Y-97044100D01*
X102635346Y-97024851D01*
X102638962Y-97023761D01*
X102688681Y-97007530D01*
X102705288Y-96994865D01*
X102694211Y-96978614D01*
X102681303Y-96967958D01*
X102629158Y-96908636D01*
X102607815Y-96843158D01*
X102610872Y-96809053D01*
X102638376Y-96762634D01*
X102694715Y-96730820D01*
X102783061Y-96712514D01*
X102906588Y-96706621D01*
X102907253Y-96706621D01*
X103079188Y-96706621D01*
X103020429Y-96631621D01*
X102953037Y-96514913D01*
X102921926Y-96386191D01*
X102926832Y-96249705D01*
X102967492Y-96109703D01*
X103043643Y-95970437D01*
X103063100Y-95943058D01*
X103103608Y-95888268D01*
X103087508Y-95871427D01*
X103282187Y-95871427D01*
X103389304Y-95968432D01*
X103455915Y-96026839D01*
X103539203Y-96097167D01*
X103624215Y-96166848D01*
X103649093Y-96186761D01*
X103761409Y-96271959D01*
X103853342Y-96331476D01*
X103931877Y-96368804D01*
X104004001Y-96387434D01*
X104058212Y-96391236D01*
X104155177Y-96376441D01*
X104229271Y-96336315D01*
X104277087Y-96277244D01*
X104295216Y-96205618D01*
X104280250Y-96127823D01*
X104235941Y-96058124D01*
X104177535Y-96003939D01*
X104099879Y-95954639D01*
X103998531Y-95908377D01*
X103869049Y-95863304D01*
X103706991Y-95817571D01*
X103585573Y-95787447D01*
X103437391Y-95752142D01*
X103359789Y-95811785D01*
X103282187Y-95871427D01*
X103087508Y-95871427D01*
X102923462Y-95699832D01*
X102853033Y-95623861D01*
X103027303Y-95623861D01*
X103116250Y-95715019D01*
X103205197Y-95806177D01*
X103253001Y-95761399D01*
X103283238Y-95730489D01*
X103285003Y-95716022D01*
X103264054Y-95709270D01*
X103224856Y-95697977D01*
X103165197Y-95677222D01*
X103127303Y-95662890D01*
X103027303Y-95623861D01*
X102853033Y-95623861D01*
X102782103Y-95547349D01*
X102670170Y-95415622D01*
X102585355Y-95301057D01*
X102525349Y-95200061D01*
X102487842Y-95109041D01*
X102470527Y-95024403D01*
X102468744Y-94992044D01*
X102471126Y-94925147D01*
X102485161Y-94879690D01*
X102517722Y-94837403D01*
X102532688Y-94822044D01*
X102565642Y-94790809D01*
X102595339Y-94771534D01*
X102632499Y-94761334D01*
X102687839Y-94757325D01*
X102772077Y-94756621D01*
X102775748Y-94756621D01*
X102953423Y-94756621D01*
X102863015Y-94659967D01*
X102813698Y-94604294D01*
X102788056Y-94564332D01*
X102780484Y-94528537D01*
X102781594Y-94516621D01*
X103137303Y-94516621D01*
X103147303Y-94526621D01*
X103151419Y-94522505D01*
X103167303Y-94522505D01*
X103317303Y-94663987D01*
X103400265Y-94736988D01*
X103475133Y-94793005D01*
X103533703Y-94826023D01*
X103542945Y-94829403D01*
X103607780Y-94842479D01*
X103642708Y-94833183D01*
X103648568Y-94804730D01*
X103626197Y-94760335D01*
X103576435Y-94703214D01*
X103500120Y-94636582D01*
X103490760Y-94629287D01*
X103414883Y-94577617D01*
X103345232Y-94548712D01*
X103277189Y-94535900D01*
X103167303Y-94522505D01*
X103151419Y-94522505D01*
X103157303Y-94516621D01*
X103147303Y-94506621D01*
X103137303Y-94516621D01*
X102781594Y-94516621D01*
X102783497Y-94496205D01*
X102783160Y-94434034D01*
X102764834Y-94404571D01*
X102744390Y-94367359D01*
X102741292Y-94328332D01*
X102752026Y-94296525D01*
X102781064Y-94266597D01*
X102835825Y-94232163D01*
X102880467Y-94208546D01*
X103013631Y-94140471D01*
X102945467Y-94076184D01*
X102938663Y-94067853D01*
X103265848Y-94067853D01*
X103269870Y-94077478D01*
X103282070Y-94081088D01*
X103330963Y-94085180D01*
X103360371Y-94083042D01*
X103389317Y-94074845D01*
X103382203Y-94059484D01*
X103375604Y-94053924D01*
X103336391Y-94041473D01*
X103297303Y-94051970D01*
X103265848Y-94067853D01*
X102938663Y-94067853D01*
X102892895Y-94011812D01*
X102879984Y-93965440D01*
X102977303Y-93965440D01*
X102991841Y-93992527D01*
X102997303Y-93996621D01*
X103014426Y-93992087D01*
X103017303Y-93977801D01*
X103006862Y-93950437D01*
X102997303Y-93946621D01*
X102977876Y-93960975D01*
X102977303Y-93965440D01*
X102879984Y-93965440D01*
X102876871Y-93954259D01*
X102866858Y-93907766D01*
X102830714Y-93875629D01*
X102813185Y-93866621D01*
X102748199Y-93826059D01*
X102724205Y-93786621D01*
X102927303Y-93786621D01*
X102954539Y-93801053D01*
X102993484Y-93805215D01*
X102997303Y-93804951D01*
X103028534Y-93802791D01*
X103026637Y-93795635D01*
X103007303Y-93786621D01*
X102958246Y-93770636D01*
X102928853Y-93770840D01*
X102927303Y-93786621D01*
X102724205Y-93786621D01*
X102722801Y-93784314D01*
X102736582Y-93740466D01*
X102749981Y-93725054D01*
X102782491Y-93702513D01*
X102834939Y-93683306D01*
X102914411Y-93665349D01*
X102958246Y-93657943D01*
X103004703Y-93650095D01*
X103091091Y-93635770D01*
X103160589Y-93622377D01*
X103205108Y-93611594D01*
X103217303Y-93605941D01*
X103199389Y-93596398D01*
X103152636Y-93582654D01*
X103093382Y-93569028D01*
X102963034Y-93533164D01*
X102861762Y-93486558D01*
X102792058Y-93431430D01*
X102756414Y-93369997D01*
X102757323Y-93304478D01*
X102767700Y-93279109D01*
X102783401Y-93240655D01*
X102775523Y-93227008D01*
X102770760Y-93226620D01*
X102730048Y-93212998D01*
X102676876Y-93179032D01*
X102624430Y-93135079D01*
X102585893Y-93091491D01*
X102576264Y-93073885D01*
X102571422Y-93008904D01*
X102601617Y-92945623D01*
X102635570Y-92912425D01*
X102691554Y-92885247D01*
X102784520Y-92859627D01*
X102911464Y-92835964D01*
X103069384Y-92814654D01*
X103255279Y-92796096D01*
X103466147Y-92780686D01*
X103698985Y-92768822D01*
X103729222Y-92767619D01*
X103870687Y-92761136D01*
X103993206Y-92753507D01*
X104091504Y-92745177D01*
X104160309Y-92736593D01*
X104194222Y-92728270D01*
X104228696Y-92702594D01*
X104234161Y-92675385D01*
X104208372Y-92643926D01*
X104149086Y-92605505D01*
X104054060Y-92557406D01*
X104052303Y-92556575D01*
X103910449Y-92492166D01*
X103773023Y-92436049D01*
X103630785Y-92385079D01*
X103474492Y-92336107D01*
X103294904Y-92285988D01*
X103139950Y-92245899D01*
X102987264Y-92206498D01*
X102869493Y-92173729D01*
X102782435Y-92145860D01*
X102721891Y-92121159D01*
X102683659Y-92097893D01*
X102663537Y-92074330D01*
X102657326Y-92048738D01*
X102657303Y-92046863D01*
X102659849Y-92025899D01*
X102669748Y-92008250D01*
X102690390Y-91993464D01*
X102725168Y-91981095D01*
X102777473Y-91970693D01*
X102850697Y-91961808D01*
X102948230Y-91953992D01*
X103073465Y-91946796D01*
X103229792Y-91939771D01*
X103420604Y-91932468D01*
X103558330Y-91927583D01*
X103735584Y-91920567D01*
X103877112Y-91912765D01*
X103987188Y-91903502D01*
X104070086Y-91892102D01*
X104130079Y-91877892D01*
X104171443Y-91860196D01*
X104198450Y-91838341D01*
X104208308Y-91824996D01*
X104205199Y-91794880D01*
X104172250Y-91752981D01*
X104116147Y-91703815D01*
X104043581Y-91651896D01*
X103961238Y-91601738D01*
X103875808Y-91557856D01*
X103793978Y-91524764D01*
X103742221Y-91510395D01*
X103689483Y-91493253D01*
X103668588Y-91467546D01*
X103667303Y-91455725D01*
X103683297Y-91426966D01*
X103726898Y-91417039D01*
X103791542Y-91423993D01*
G37*
G36*
X139557515Y-94368807D02*
G01*
X139602550Y-94409487D01*
X139649277Y-94464929D01*
X139688845Y-94525024D01*
X139707093Y-94563246D01*
X139724605Y-94630126D01*
X139722806Y-94680906D01*
X139708804Y-94701885D01*
X139671385Y-94705739D01*
X139638065Y-94677631D01*
X139619901Y-94632507D01*
X139599803Y-94584252D01*
X139561393Y-94525436D01*
X139535461Y-94493931D01*
X139490011Y-94433032D01*
X139475183Y-94387001D01*
X139491291Y-94359422D01*
X139523025Y-94353000D01*
X139557515Y-94368807D01*
G37*
G36*
X140383724Y-99072430D02*
G01*
X140402227Y-99106595D01*
X140413394Y-99152298D01*
X140422220Y-99209403D01*
X140415828Y-99245665D01*
X140388535Y-99279091D01*
X140367196Y-99298651D01*
X140339208Y-99322611D01*
X140313341Y-99338504D01*
X140281183Y-99347728D01*
X140234322Y-99351683D01*
X140164346Y-99351765D01*
X140062844Y-99349372D01*
X140062158Y-99349354D01*
X139944017Y-99347945D01*
X139864271Y-99351036D01*
X139821560Y-99358714D01*
X139813249Y-99365219D01*
X139826320Y-99385111D01*
X139872235Y-99412568D01*
X139945188Y-99444837D01*
X140039378Y-99479164D01*
X140083267Y-99493343D01*
X140147993Y-99523146D01*
X140204129Y-99565578D01*
X140243048Y-99612038D01*
X140256122Y-99653927D01*
X140254024Y-99663542D01*
X140234106Y-99681327D01*
X140187157Y-99690646D01*
X140118682Y-99693001D01*
X140038056Y-99698248D01*
X139976118Y-99712214D01*
X139938643Y-99732230D01*
X139931404Y-99755629D01*
X139947000Y-99772314D01*
X139984068Y-99784330D01*
X140043406Y-99791668D01*
X140073977Y-99792694D01*
X140189466Y-99807728D01*
X140280556Y-99850612D01*
X140343963Y-99919220D01*
X140371097Y-99985160D01*
X140370266Y-100041943D01*
X140341150Y-100081550D01*
X140301006Y-100093637D01*
X140271173Y-100096775D01*
X140277861Y-100109763D01*
X140289468Y-100118990D01*
X140328563Y-100160559D01*
X140367259Y-100219465D01*
X140396387Y-100279770D01*
X140406850Y-100323000D01*
X140389969Y-100387379D01*
X140345951Y-100453827D01*
X140284732Y-100509393D01*
X140247652Y-100530481D01*
X140169132Y-100565636D01*
X140229267Y-100601158D01*
X140279657Y-100644466D01*
X140320119Y-100701223D01*
X140321927Y-100704888D01*
X140341635Y-100752145D01*
X140341129Y-100784152D01*
X140319036Y-100820943D01*
X140313450Y-100828553D01*
X140272448Y-100884012D01*
X140339365Y-100961423D01*
X140396138Y-101046530D01*
X140421571Y-101129842D01*
X140415901Y-101205032D01*
X140379363Y-101265771D01*
X140326750Y-101300264D01*
X140266529Y-101325586D01*
X140313893Y-101370082D01*
X140381124Y-101452650D01*
X140432927Y-101554213D01*
X140466641Y-101664283D01*
X140479605Y-101772370D01*
X140469158Y-101867985D01*
X140451644Y-101913000D01*
X140403407Y-101973396D01*
X140338431Y-102020560D01*
X140337057Y-102021251D01*
X140270436Y-102043251D01*
X140198399Y-102042890D01*
X140116291Y-102018483D01*
X140019457Y-101968343D01*
X139903244Y-101890784D01*
X139833116Y-101838682D01*
X139767000Y-101788253D01*
X139767000Y-101837140D01*
X139748519Y-101899775D01*
X139696186Y-101948344D01*
X139614664Y-101979577D01*
X139550623Y-101988866D01*
X139499431Y-101991201D01*
X139455448Y-101987957D01*
X139409435Y-101976314D01*
X139352158Y-101953457D01*
X139274379Y-101916567D01*
X139212339Y-101885678D01*
X139094923Y-101823494D01*
X139008307Y-101767798D01*
X138945632Y-101711608D01*
X138900035Y-101647937D01*
X138864657Y-101569802D01*
X138845093Y-101511831D01*
X138820957Y-101430247D01*
X138810505Y-101377098D01*
X138814309Y-101343026D01*
X138832942Y-101318677D01*
X138858026Y-101300488D01*
X138906065Y-101281346D01*
X138937668Y-101290332D01*
X138944833Y-101321731D01*
X138931611Y-101353049D01*
X138920110Y-101382771D01*
X138922731Y-101421708D01*
X138940863Y-101481463D01*
X138949951Y-101506298D01*
X138981238Y-101576933D01*
X139016764Y-101638418D01*
X139039364Y-101667183D01*
X139086502Y-101703355D01*
X139158635Y-101746270D01*
X139245385Y-101791070D01*
X139336378Y-101832900D01*
X139421235Y-101866903D01*
X139489582Y-101888223D01*
X139521863Y-101893000D01*
X139603858Y-101882729D01*
X139651455Y-101853397D01*
X139663513Y-101807230D01*
X139638891Y-101746450D01*
X139614076Y-101713173D01*
X139581800Y-101671613D01*
X139573986Y-101646187D01*
X139587828Y-101623763D01*
X139593682Y-101617747D01*
X139619291Y-101597764D01*
X139647121Y-101597757D01*
X139691606Y-101616449D01*
X139735255Y-101641727D01*
X139800263Y-101684711D01*
X139876448Y-101738504D01*
X139927000Y-101775894D01*
X140030635Y-101851685D01*
X140110341Y-101903458D01*
X140172030Y-101933830D01*
X140221614Y-101945420D01*
X140265007Y-101940842D01*
X140284405Y-101934075D01*
X140347310Y-101889096D01*
X140379610Y-101820861D01*
X140380813Y-101732447D01*
X140350423Y-101626929D01*
X140338178Y-101598981D01*
X140260626Y-101473965D01*
X140158529Y-101373705D01*
X140038584Y-101304137D01*
X139984533Y-101285510D01*
X139892874Y-101250751D01*
X139819954Y-101205265D01*
X139770056Y-101154162D01*
X139747465Y-101102553D01*
X139756463Y-101055548D01*
X139774567Y-101035019D01*
X139810877Y-101023020D01*
X139863596Y-101036653D01*
X139936331Y-101077396D01*
X140015529Y-101133645D01*
X140099016Y-101185103D01*
X140180732Y-101215169D01*
X140251973Y-101221916D01*
X140304036Y-101203416D01*
X140309295Y-101198705D01*
X140324378Y-101157290D01*
X140308153Y-101099676D01*
X140263020Y-101031196D01*
X140207013Y-100971511D01*
X140134313Y-100911041D01*
X140064922Y-100874353D01*
X139999707Y-100855355D01*
X139907598Y-100827199D01*
X139831325Y-100789598D01*
X139778600Y-100747416D01*
X139757135Y-100705519D01*
X139757000Y-100702204D01*
X139772587Y-100667030D01*
X139815669Y-100653658D01*
X139880726Y-100661305D01*
X139962237Y-100689189D01*
X140054682Y-100736528D01*
X140071602Y-100746772D01*
X140134866Y-100778434D01*
X140187427Y-100791849D01*
X140223100Y-100788386D01*
X140235701Y-100769412D01*
X140219044Y-100736294D01*
X140201383Y-100718079D01*
X140160995Y-100688598D01*
X140098003Y-100650659D01*
X140038029Y-100618822D01*
X140027000Y-100612967D01*
X139900702Y-100544289D01*
X139809581Y-100479152D01*
X139749609Y-100413152D01*
X139716760Y-100341885D01*
X139707152Y-100264230D01*
X139870455Y-100264230D01*
X139889669Y-100335890D01*
X139926802Y-100398348D01*
X139970219Y-100434724D01*
X140038029Y-100453572D01*
X140121586Y-100453210D01*
X140201969Y-100434387D01*
X140223722Y-100424695D01*
X140283014Y-100383060D01*
X140304194Y-100336513D01*
X140287921Y-100280706D01*
X140252933Y-100231816D01*
X140187775Y-100174118D01*
X140109521Y-100133817D01*
X140028555Y-100113470D01*
X139955260Y-100115637D01*
X139900019Y-100142878D01*
X139898428Y-100144429D01*
X139872321Y-100196150D01*
X139870455Y-100264230D01*
X139707152Y-100264230D01*
X139707000Y-100263000D01*
X139718452Y-100171726D01*
X139754882Y-100101737D01*
X139819394Y-100050822D01*
X139915095Y-100016773D01*
X140045090Y-99997376D01*
X140084252Y-99994500D01*
X140271504Y-99983000D01*
X140228346Y-99944081D01*
X140176399Y-99915951D01*
X140090528Y-99896219D01*
X140041094Y-99889920D01*
X139960040Y-99879023D01*
X139907314Y-99864539D01*
X139871248Y-99842338D01*
X139852269Y-99823038D01*
X139823282Y-99783440D01*
X139819582Y-99748914D01*
X139833721Y-99707232D01*
X139866563Y-99656370D01*
X139923144Y-99619664D01*
X139948451Y-99609121D01*
X139992109Y-99589746D01*
X140007852Y-99576948D01*
X140000761Y-99574088D01*
X139957476Y-99563751D01*
X139894645Y-99538942D01*
X139826242Y-99506372D01*
X139766241Y-99472746D01*
X139728617Y-99444775D01*
X139726547Y-99442455D01*
X139703242Y-99386291D01*
X139710406Y-99323262D01*
X139745910Y-99269682D01*
X139749500Y-99266627D01*
X139772900Y-99250349D01*
X139800645Y-99240070D01*
X139840732Y-99235074D01*
X139901161Y-99234649D01*
X139989929Y-99238081D01*
X140040667Y-99240664D01*
X140149467Y-99245819D01*
X140224636Y-99246211D01*
X140272477Y-99239399D01*
X140299293Y-99222945D01*
X140311386Y-99194408D01*
X140315057Y-99151348D01*
X140315480Y-99134279D01*
X140321101Y-99085205D01*
X140339055Y-99065279D01*
X140356367Y-99063000D01*
X140383724Y-99072430D01*
G37*
G36*
X139839061Y-91018123D02*
G01*
X139898237Y-91064349D01*
X139979164Y-91138266D01*
X139996603Y-91154926D01*
X140081854Y-91240221D01*
X140145949Y-91314620D01*
X140199259Y-91391851D01*
X140252152Y-91485637D01*
X140264798Y-91509926D01*
X140310042Y-91596027D01*
X140344147Y-91653922D01*
X140373610Y-91691307D01*
X140404928Y-91715880D01*
X140444598Y-91735336D01*
X140460664Y-91741959D01*
X140544060Y-91786758D01*
X140624037Y-91849248D01*
X140695759Y-91922862D01*
X140754385Y-92001033D01*
X140795079Y-92077196D01*
X140813000Y-92144783D01*
X140803311Y-92197228D01*
X140799924Y-92202383D01*
X140757190Y-92231796D01*
X140712585Y-92239667D01*
X140692044Y-92235672D01*
X140637795Y-92225122D01*
X140562861Y-92179760D01*
X140484640Y-92100986D01*
X140399988Y-91986210D01*
X140393610Y-91976563D01*
X140345868Y-91903954D01*
X140320076Y-91864814D01*
X140453287Y-91864814D01*
X140469617Y-91896590D01*
X140479738Y-91914355D01*
X140520488Y-91976054D01*
X140568172Y-92034179D01*
X140616712Y-92083290D01*
X140660029Y-92117950D01*
X140692044Y-92132721D01*
X140706677Y-92122165D01*
X140707000Y-92117657D01*
X140694730Y-92095991D01*
X140662501Y-92053651D01*
X140617176Y-91999635D01*
X140615241Y-91997419D01*
X140562790Y-91940920D01*
X140514846Y-91895166D01*
X140482979Y-91870849D01*
X140457570Y-91858524D01*
X140453287Y-91864814D01*
X140320076Y-91864814D01*
X140306860Y-91844759D01*
X140281435Y-91806326D01*
X140274246Y-91795616D01*
X140251986Y-91794611D01*
X140201564Y-91803374D01*
X140132875Y-91819355D01*
X140055812Y-91840003D01*
X139980271Y-91862768D01*
X139916144Y-91885100D01*
X139897066Y-91892839D01*
X139797132Y-91935809D01*
X139948894Y-92019405D01*
X140029192Y-92065465D01*
X140105211Y-92112185D01*
X140162929Y-92150882D01*
X140171780Y-92157457D01*
X140240627Y-92229259D01*
X140293931Y-92321019D01*
X140323559Y-92417023D01*
X140327000Y-92457274D01*
X140337383Y-92519331D01*
X140363628Y-92590486D01*
X140376759Y-92615959D01*
X140411413Y-92701402D01*
X140426698Y-92794397D01*
X140421831Y-92881263D01*
X140396029Y-92948315D01*
X140395785Y-92948665D01*
X140344327Y-93002744D01*
X140277617Y-93034107D01*
X140187991Y-93045117D01*
X140096472Y-93041028D01*
X140019452Y-93035131D01*
X139974157Y-93035397D01*
X139952654Y-93042793D01*
X139947008Y-93058283D01*
X139947000Y-93059224D01*
X139963228Y-93092985D01*
X140003323Y-93132662D01*
X140054395Y-93168386D01*
X140103559Y-93190285D01*
X140121672Y-93193000D01*
X140170755Y-93205469D01*
X140214212Y-93235782D01*
X140240168Y-93273300D01*
X140240962Y-93299885D01*
X140211126Y-93327710D01*
X140157392Y-93329346D01*
X140097941Y-93309790D01*
X140044679Y-93299502D01*
X139992709Y-93310212D01*
X139956049Y-93336979D01*
X139947000Y-93363000D01*
X139954272Y-93384954D01*
X139980165Y-93405014D01*
X140030798Y-93426157D01*
X140112285Y-93451364D01*
X140150268Y-93461983D01*
X140245302Y-93500244D01*
X140314606Y-93552706D01*
X140355125Y-93614004D01*
X140363803Y-93678773D01*
X140337583Y-93741647D01*
X140320663Y-93761155D01*
X140274326Y-93807492D01*
X140320663Y-93861361D01*
X140364374Y-93939791D01*
X140373263Y-94025742D01*
X140348973Y-94110299D01*
X140293148Y-94184542D01*
X140255707Y-94213849D01*
X140202211Y-94248941D01*
X140254253Y-94283040D01*
X140321359Y-94345306D01*
X140366095Y-94423821D01*
X140386272Y-94508621D01*
X140379703Y-94589742D01*
X140344198Y-94657222D01*
X140337909Y-94663910D01*
X140269484Y-94707404D01*
X140184449Y-94716459D01*
X140080894Y-94691201D01*
X140058177Y-94682203D01*
X139992219Y-94654644D01*
X140044609Y-94752906D01*
X140088094Y-94819632D01*
X140130295Y-94857686D01*
X140142504Y-94862592D01*
X140198995Y-94890773D01*
X140264535Y-94944334D01*
X140329192Y-95013441D01*
X140383037Y-95088265D01*
X140398553Y-95116067D01*
X140438428Y-95231678D01*
X140438652Y-95342448D01*
X140399334Y-95447928D01*
X140320580Y-95547670D01*
X140287915Y-95577577D01*
X140207450Y-95646452D01*
X140256722Y-95692739D01*
X140294890Y-95740996D01*
X140330539Y-95805482D01*
X140339465Y-95826672D01*
X140359610Y-95918091D01*
X140350122Y-95999950D01*
X140313182Y-96064011D01*
X140268221Y-96095666D01*
X140210136Y-96121376D01*
X140309397Y-96178066D01*
X140387155Y-96233476D01*
X140433199Y-96290987D01*
X140444312Y-96346087D01*
X140440256Y-96361725D01*
X140425317Y-96379444D01*
X140394361Y-96389190D01*
X140343308Y-96390652D01*
X140268080Y-96383517D01*
X140164600Y-96367476D01*
X140028788Y-96342216D01*
X139932397Y-96322976D01*
X139725928Y-96285005D01*
X139554811Y-96262358D01*
X139417436Y-96255059D01*
X139312194Y-96263136D01*
X139237479Y-96286613D01*
X139191681Y-96325516D01*
X139185970Y-96334924D01*
X139180175Y-96386273D01*
X139207149Y-96450000D01*
X139264102Y-96520161D01*
X139280214Y-96535717D01*
X139370522Y-96603019D01*
X139473886Y-96644892D01*
X139567000Y-96663141D01*
X139663689Y-96679365D01*
X139725696Y-96698368D01*
X139758337Y-96722483D01*
X139767000Y-96750916D01*
X139749719Y-96785746D01*
X139700847Y-96802545D01*
X139624839Y-96800624D01*
X139547000Y-96785017D01*
X139445782Y-96769403D01*
X139350117Y-96773862D01*
X139267505Y-96795939D01*
X139205449Y-96833183D01*
X139171452Y-96883143D01*
X139167306Y-96909125D01*
X139185415Y-96935716D01*
X139234606Y-96964416D01*
X139306310Y-96992047D01*
X139391960Y-97015428D01*
X139482989Y-97031380D01*
X139502544Y-97033543D01*
X139612110Y-97051865D01*
X139684633Y-97082150D01*
X139721461Y-97125132D01*
X139727000Y-97155719D01*
X139710033Y-97190066D01*
X139664192Y-97206816D01*
X139597063Y-97204825D01*
X139525148Y-97186215D01*
X139460447Y-97166392D01*
X139404521Y-97154513D01*
X139386962Y-97153001D01*
X139349642Y-97166117D01*
X139301615Y-97199242D01*
X139252763Y-97243038D01*
X139212967Y-97288170D01*
X139192110Y-97325299D01*
X139191711Y-97337486D01*
X139212643Y-97355039D01*
X139262903Y-97382960D01*
X139334528Y-97417140D01*
X139404281Y-97447227D01*
X139504156Y-97490883D01*
X139605311Y-97539211D01*
X139692734Y-97584868D01*
X139730964Y-97607065D01*
X139790066Y-97642040D01*
X139838981Y-97664827D01*
X139890053Y-97678705D01*
X139955625Y-97686955D01*
X140048040Y-97692857D01*
X140055232Y-97693235D01*
X140179752Y-97703652D01*
X140272554Y-97721621D01*
X140341602Y-97749677D01*
X140394861Y-97790354D01*
X140409437Y-97805953D01*
X140438829Y-97847265D01*
X140451083Y-97873000D01*
X140450259Y-97902637D01*
X140441709Y-97957696D01*
X140428174Y-98025617D01*
X140412392Y-98093840D01*
X140397100Y-98149804D01*
X140385038Y-98180948D01*
X140383530Y-98182848D01*
X140359007Y-98190120D01*
X140315348Y-98195090D01*
X140273419Y-98195426D01*
X140272000Y-98195304D01*
X140251748Y-98178231D01*
X140248121Y-98145866D01*
X140260469Y-98118536D01*
X140274625Y-98113000D01*
X140294033Y-98095346D01*
X140315190Y-98050819D01*
X140333717Y-97992074D01*
X140345234Y-97931767D01*
X140347000Y-97903850D01*
X140328036Y-97860460D01*
X140273536Y-97826686D01*
X140187090Y-97803815D01*
X140072284Y-97793137D01*
X140037000Y-97792512D01*
X139943368Y-97790505D01*
X139876858Y-97783688D01*
X139824666Y-97769677D01*
X139773987Y-97746093D01*
X139767000Y-97742286D01*
X139709328Y-97711917D01*
X139628462Y-97671138D01*
X139537445Y-97626475D01*
X139487000Y-97602243D01*
X139354005Y-97538639D01*
X139253118Y-97488980D01*
X139180251Y-97450177D01*
X139131319Y-97419144D01*
X139102237Y-97392790D01*
X139088920Y-97368029D01*
X139087281Y-97341771D01*
X139093235Y-97310929D01*
X139094562Y-97305592D01*
X139115877Y-97259217D01*
X139154722Y-97202309D01*
X139177507Y-97175072D01*
X139216832Y-97129751D01*
X139242022Y-97097274D01*
X139246999Y-97088003D01*
X139230603Y-97074296D01*
X139190679Y-97054552D01*
X139186203Y-97052671D01*
X139113084Y-97005570D01*
X139074356Y-96943274D01*
X139071442Y-96872647D01*
X139105766Y-96800557D01*
X139128538Y-96774539D01*
X139168992Y-96736849D01*
X139197862Y-96714926D01*
X139203538Y-96712694D01*
X139230399Y-96702929D01*
X139245398Y-96694413D01*
X139255476Y-96678685D01*
X139244974Y-96651604D01*
X139210517Y-96606786D01*
X139181873Y-96574196D01*
X139109820Y-96478850D01*
X139075921Y-96394779D01*
X139080264Y-96320964D01*
X139122939Y-96256386D01*
X139204036Y-96200026D01*
X139215241Y-96194316D01*
X139280465Y-96166746D01*
X139345713Y-96152096D01*
X139427722Y-96147216D01*
X139465241Y-96147251D01*
X139542129Y-96152500D01*
X139649747Y-96166071D01*
X139780018Y-96186577D01*
X139924869Y-96212632D01*
X140076224Y-96242851D01*
X140226007Y-96275848D01*
X140257000Y-96283117D01*
X140257196Y-96279236D01*
X140226734Y-96261372D01*
X140171150Y-96232567D01*
X140112385Y-96203721D01*
X139941648Y-96113994D01*
X139809841Y-96027745D01*
X139716117Y-95944224D01*
X139659632Y-95862683D01*
X139639632Y-95785091D01*
X139643954Y-95739027D01*
X139666729Y-95719530D01*
X139678545Y-95717062D01*
X139709043Y-95723261D01*
X139743937Y-95754181D01*
X139789238Y-95815315D01*
X139794215Y-95822764D01*
X139872193Y-95920943D01*
X139955663Y-95984710D01*
X140052424Y-96019585D01*
X140079061Y-96024355D01*
X140163770Y-96024635D01*
X140220485Y-95998679D01*
X140247459Y-95950434D01*
X140242945Y-95883848D01*
X140205196Y-95802869D01*
X140188171Y-95777792D01*
X140138151Y-95708741D01*
X140129342Y-95696581D01*
X140009884Y-95707413D01*
X139973190Y-95709811D01*
X139940924Y-95711920D01*
X139897374Y-95707430D01*
X139865021Y-95690433D01*
X139836847Y-95664666D01*
X139803936Y-95625423D01*
X139789885Y-95584320D01*
X139789365Y-95523951D01*
X139789459Y-95522491D01*
X139890348Y-95522491D01*
X139898423Y-95569004D01*
X139934248Y-95603311D01*
X139973190Y-95613000D01*
X139996393Y-95610375D01*
X139996038Y-95597426D01*
X139969966Y-95566544D01*
X139955741Y-95551530D01*
X139917756Y-95515524D01*
X139897792Y-95508416D01*
X139890348Y-95522491D01*
X139789459Y-95522491D01*
X139790134Y-95512031D01*
X139793062Y-95453263D01*
X139787479Y-95424039D01*
X139767843Y-95414018D01*
X139737000Y-95412873D01*
X139674838Y-95408910D01*
X139592305Y-95398407D01*
X139539395Y-95389803D01*
X139952379Y-95389803D01*
X140045265Y-95481292D01*
X140138151Y-95572782D01*
X140214990Y-95509445D01*
X140295790Y-95424637D01*
X140336942Y-95335681D01*
X140338657Y-95241772D01*
X140308178Y-95155310D01*
X140268154Y-95094346D01*
X140213889Y-95031890D01*
X140193336Y-95012467D01*
X140117316Y-94945720D01*
X140093046Y-95054360D01*
X140069285Y-95135129D01*
X140034508Y-95225149D01*
X140010577Y-95276402D01*
X139967186Y-95360951D01*
X139952379Y-95389803D01*
X139539395Y-95389803D01*
X139498723Y-95383189D01*
X139403413Y-95365081D01*
X139315697Y-95345911D01*
X139244897Y-95327503D01*
X139200334Y-95311683D01*
X139191444Y-95306017D01*
X139170345Y-95266808D01*
X139186421Y-95233169D01*
X139236873Y-95209222D01*
X139260607Y-95204146D01*
X139340495Y-95199050D01*
X139442215Y-95204134D01*
X139551925Y-95217501D01*
X139655782Y-95237254D01*
X139739947Y-95261496D01*
X139768472Y-95273752D01*
X139822461Y-95298377D01*
X139853034Y-95302844D01*
X139869687Y-95289791D01*
X139882524Y-95249947D01*
X139865897Y-95208617D01*
X139816652Y-95159636D01*
X139793872Y-95141632D01*
X139678874Y-95068909D01*
X139547286Y-95009801D01*
X139413182Y-94969481D01*
X139290635Y-94953121D01*
X139280606Y-94953000D01*
X139193401Y-94948629D01*
X139135923Y-94934229D01*
X139117523Y-94923000D01*
X139637000Y-94923000D01*
X139738165Y-94976394D01*
X139808957Y-95018629D01*
X139875967Y-95066399D01*
X139903258Y-95089505D01*
X139967186Y-95149223D01*
X139978842Y-95096112D01*
X139989939Y-95049140D01*
X139997170Y-95023000D01*
X140006356Y-94972127D01*
X139987807Y-94941927D01*
X139936048Y-94925104D01*
X139922000Y-94922817D01*
X139847386Y-94916362D01*
X139763064Y-94915435D01*
X139737000Y-94916591D01*
X139637000Y-94923000D01*
X139117523Y-94923000D01*
X139109330Y-94918000D01*
X139082955Y-94892602D01*
X139074135Y-94872492D01*
X139086203Y-94856899D01*
X139122493Y-94845050D01*
X139186336Y-94836172D01*
X139281066Y-94829493D01*
X139410015Y-94824241D01*
X139528457Y-94820843D01*
X139654959Y-94817310D01*
X139767239Y-94813652D01*
X139859399Y-94810104D01*
X139925541Y-94806901D01*
X139959769Y-94804279D01*
X139963163Y-94803504D01*
X139955107Y-94786277D01*
X139927466Y-94749975D01*
X139910154Y-94729648D01*
X139858184Y-94656708D01*
X139841478Y-94599887D01*
X139857689Y-94561692D01*
X139904469Y-94544630D01*
X139979470Y-94551208D01*
X140055710Y-94574236D01*
X140154577Y-94604315D01*
X140224279Y-94609006D01*
X140266769Y-94588056D01*
X140283641Y-94544753D01*
X140274409Y-94466688D01*
X140227476Y-94401756D01*
X140142938Y-94349993D01*
X140020889Y-94311437D01*
X139861425Y-94286123D01*
X139664641Y-94274088D01*
X139574559Y-94273000D01*
X139447796Y-94267587D01*
X139353472Y-94251766D01*
X139293598Y-94226164D01*
X139270186Y-94191408D01*
X139270756Y-94178282D01*
X139287967Y-94150803D01*
X139329355Y-94133566D01*
X139398456Y-94126257D01*
X139498804Y-94128562D01*
X139633935Y-94140169D01*
X139663867Y-94143404D01*
X139811041Y-94158763D01*
X139924936Y-94168031D01*
X140011812Y-94171173D01*
X140077929Y-94168157D01*
X140129548Y-94158948D01*
X140172928Y-94143512D01*
X140179194Y-94140619D01*
X140236821Y-94095182D01*
X140264399Y-94034904D01*
X140261574Y-93970578D01*
X140227986Y-93912998D01*
X140187703Y-93883364D01*
X140121254Y-93857776D01*
X140062683Y-93859846D01*
X139997269Y-93891020D01*
X139977415Y-93904010D01*
X139924928Y-93933759D01*
X139881328Y-93948575D01*
X139869854Y-93948780D01*
X139837307Y-93927026D01*
X139829283Y-93885936D01*
X139842920Y-93835334D01*
X139875358Y-93785040D01*
X139923735Y-93744876D01*
X139930299Y-93741294D01*
X139981256Y-93725715D01*
X140055637Y-93715557D01*
X140116634Y-93713000D01*
X140191770Y-93710797D01*
X140235757Y-93702861D01*
X140257272Y-93687201D01*
X140260962Y-93679885D01*
X140256116Y-93640497D01*
X140212526Y-93600755D01*
X140131433Y-93561514D01*
X140048343Y-93533401D01*
X139975351Y-93507943D01*
X139914731Y-93480150D01*
X139880194Y-93456530D01*
X139850867Y-93397174D01*
X139854462Y-93329927D01*
X139890057Y-93268224D01*
X139893336Y-93264846D01*
X139939673Y-93218509D01*
X139893336Y-93164640D01*
X139854799Y-93098225D01*
X139849240Y-93033128D01*
X139876467Y-92978432D01*
X139897614Y-92960759D01*
X139934093Y-92943117D01*
X139980755Y-92935670D01*
X140049409Y-92937203D01*
X140092619Y-92940679D01*
X140174956Y-92946039D01*
X140229422Y-92943174D01*
X140267526Y-92930881D01*
X140284287Y-92920649D01*
X140312660Y-92895327D01*
X140324513Y-92863102D01*
X140323935Y-92809742D01*
X140322104Y-92789091D01*
X140309634Y-92710987D01*
X140288547Y-92668536D01*
X140255292Y-92657712D01*
X140216601Y-92669543D01*
X140134626Y-92690999D01*
X140088666Y-92690202D01*
X140044312Y-92689433D01*
X139954327Y-92668352D01*
X139873335Y-92631262D01*
X139810003Y-92581670D01*
X139772995Y-92523080D01*
X139767906Y-92493000D01*
X139877000Y-92493000D01*
X139894826Y-92523300D01*
X139940407Y-92553615D01*
X140001889Y-92578348D01*
X140067422Y-92591902D01*
X140088666Y-92592969D01*
X140156108Y-92586208D01*
X140185943Y-92566963D01*
X140177617Y-92536902D01*
X140130579Y-92497696D01*
X140122000Y-92492266D01*
X140067323Y-92469222D01*
X140004013Y-92457543D01*
X139943558Y-92457194D01*
X139897446Y-92468143D01*
X139877165Y-92490353D01*
X139877000Y-92493000D01*
X139767906Y-92493000D01*
X139766999Y-92487641D01*
X139780436Y-92449207D01*
X139813083Y-92405167D01*
X139816090Y-92402091D01*
X139878008Y-92365963D01*
X139961893Y-92351956D01*
X140056148Y-92360437D01*
X140148877Y-92391626D01*
X140228822Y-92430251D01*
X140215737Y-92386626D01*
X140181103Y-92324745D01*
X140115546Y-92255747D01*
X140025912Y-92185675D01*
X139919052Y-92120576D01*
X139907299Y-92114372D01*
X139832457Y-92072961D01*
X139768040Y-92032872D01*
X139725215Y-92001186D01*
X139718490Y-91994647D01*
X139694657Y-91963521D01*
X139695281Y-91937132D01*
X139716058Y-91901631D01*
X139765240Y-91854184D01*
X139847771Y-91806524D01*
X139957139Y-91761768D01*
X140086832Y-91723036D01*
X140091323Y-91721911D01*
X140225646Y-91688477D01*
X140195515Y-91615739D01*
X140125178Y-91482180D01*
X140024535Y-91343112D01*
X139900438Y-91207835D01*
X139881856Y-91189986D01*
X139808686Y-91117015D01*
X139766130Y-91065018D01*
X139752331Y-91031608D01*
X139753470Y-91024986D01*
X139770534Y-91000503D01*
X139797779Y-90997528D01*
X139839061Y-91018123D01*
G37*
%TO.C,Q4*%
X113812000Y-98617000D02*
X113812000Y-95167000D01*
X113812000Y-98617000D02*
X113812000Y-100567000D01*
X108692000Y-98617000D02*
X108692000Y-96667000D01*
X108692000Y-98617000D02*
X108692000Y-100567000D01*
%TO.C,C4*%
X106533733Y-103376000D02*
X106826267Y-103376000D01*
X106533733Y-104396000D02*
X106826267Y-104396000D01*
%TO.C,Q3*%
X113812000Y-109282000D02*
X113812000Y-105832000D01*
X113812000Y-109282000D02*
X113812000Y-111232000D01*
X108692000Y-109282000D02*
X108692000Y-107332000D01*
X108692000Y-109282000D02*
X108692000Y-111232000D01*
%TO.C,C2*%
X136570767Y-104396000D02*
X136278233Y-104396000D01*
X136570767Y-103376000D02*
X136278233Y-103376000D01*
%TD*%
M02*
