M48
; DRILL file {KiCad 7.0.7} date Sun Nov  5 22:29:05 2023
; FORMAT={-:-/ absolute / inch / decimal}
; #@! TF.CreationDate,2023-11-05T22:29:05-06:00
; #@! TF.GenerationSoftware,Kicad,Pcbnew,7.0.7
; #@! TF.FileFunction,Plated,1,2,PTH
FMAT,2
INCH
; #@! TA.AperFunction,Plated,PTH,ViaDrill
T1C0.0157
; #@! TA.AperFunction,Plated,PTH,ComponentDrill
T2C0.0300
; #@! TA.AperFunction,Plated,PTH,ComponentDrill
T3C0.0315
; #@! TA.AperFunction,Plated,PTH,ComponentDrill
T4C0.0354
; #@! TA.AperFunction,Plated,PTH,ComponentDrill
T5C0.0787
%
G90
G05
T1
X4.09Y-3.515
X4.105Y-3.475
X4.165Y-3.58
X4.305Y-4.33
X4.305Y-4.47
X4.31Y-3.55
X4.34Y-3.58
X4.355Y-4.33
X4.355Y-4.47
X4.3711Y-3.5036
X4.405Y-4.33
X4.405Y-4.47
X4.455Y-4.33
X4.455Y-4.47
X4.575Y-4.4551
X4.59Y-4.585
X4.65Y-4.5873
X4.845Y-4.4551
X4.915Y-4.59
X4.965Y-4.59
X5.015Y-4.59
X5.115Y-4.33
X5.115Y-4.47
X5.165Y-4.33
X5.165Y-4.47
X5.215Y-4.33
X5.215Y-4.47
X5.265Y-4.33
X5.265Y-4.47
T2
X4.885Y-3.57
T3
X5.23Y-3.4616
X5.23Y-3.56
T4
X4.685Y-3.57
X4.785Y-3.57
T5
G00X4.6713Y-3.7674
M15
G01X4.5887Y-3.7674
M16
G05
G00X4.5887Y-4.1526
M15
G01X4.6713Y-4.1526
M16
G05
G00X4.9813Y-3.7674
M15
G01X4.8987Y-3.7674
M16
G05
G00X4.8987Y-4.1526
M15
G01X4.9813Y-4.1526
M16
G05
T0
M30
