%TF.GenerationSoftware,KiCad,Pcbnew,7.0.7*%
%TF.CreationDate,2023-11-05T22:28:57-06:00*%
%TF.ProjectId,BrushedMOCO_Breakout,42727573-6865-4644-9d4f-434f5f427265,rev?*%
%TF.SameCoordinates,Original*%
%TF.FileFunction,Copper,L2,Bot*%
%TF.FilePolarity,Positive*%
%FSLAX46Y46*%
G04 Gerber Fmt 4.6, Leading zero omitted, Abs format (unit mm)*
G04 Created by KiCad (PCBNEW 7.0.7) date 2023-11-05 22:28:57*
%MOMM*%
%LPD*%
G01*
G04 APERTURE LIST*
%TA.AperFunction,ComponentPad*%
%ADD10C,1.524000*%
%TD*%
%TA.AperFunction,ComponentPad*%
%ADD11R,1.600000X1.600000*%
%TD*%
%TA.AperFunction,ComponentPad*%
%ADD12C,1.600000*%
%TD*%
%TA.AperFunction,ComponentPad*%
%ADD13O,5.100000X3.000000*%
%TD*%
%TA.AperFunction,ViaPad*%
%ADD14C,0.800000*%
%TD*%
%TA.AperFunction,Conductor*%
%ADD15C,0.254000*%
%TD*%
G04 APERTURE END LIST*
D10*
%TO.P,Conn3,1*%
%TO.N,PWM_RVS*%
X118999000Y-90678000D03*
%TO.P,Conn3,2*%
%TO.N,PWM_FWD*%
X121539000Y-90678000D03*
%TO.P,Conn3,3*%
%TO.N,+3V3*%
X124079000Y-90678000D03*
%TD*%
D11*
%TO.P,C1,1*%
%TO.N,+12V*%
X132842000Y-90424000D03*
D12*
%TO.P,C1,2*%
%TO.N,GND*%
X132842000Y-87924000D03*
%TD*%
D13*
%TO.P,Conn1,1,GND*%
%TO.N,GND*%
X117602000Y-95693200D03*
%TO.P,Conn1,2,V+Log*%
%TO.N,+12V*%
X125476000Y-95693200D03*
%TD*%
%TO.P,Conn2,1,GND*%
%TO.N,/M+*%
X125476000Y-105474800D03*
%TO.P,Conn2,2,V+Log*%
%TO.N,/M-*%
X117602000Y-105474800D03*
%TD*%
D14*
%TO.N,GND*%
X127381000Y-116586000D03*
%TO.N,PWM_FWD*%
X111025500Y-88991500D03*
X124841000Y-116586000D03*
X109474000Y-90170000D03*
%TO.N,PWM_RVS*%
X116586000Y-116459000D03*
X110236000Y-90932000D03*
%TO.N,+3V3*%
X104267000Y-88265000D03*
%TO.N,+12V*%
X116205000Y-113160000D03*
X129921000Y-109982000D03*
X133731000Y-113538000D03*
X131191000Y-113538000D03*
X113157000Y-113538000D03*
X131191000Y-109982000D03*
X129921000Y-113538000D03*
X111887000Y-113538000D03*
X133731000Y-109982000D03*
X109347000Y-113538000D03*
X111887000Y-109982000D03*
X123063000Y-113160000D03*
X113157000Y-109982000D03*
X132461000Y-113538000D03*
X110617000Y-109982000D03*
X132461000Y-109982000D03*
X109347000Y-109982000D03*
X110617000Y-113538000D03*
%TO.N,Net-(U3-LIN)*%
X103886000Y-89281000D03*
X118110000Y-116516786D03*
%TO.N,Net-(U2-LIN)*%
X105791000Y-90932000D03*
X126111000Y-116586000D03*
%TD*%
D15*
%TO.N,PWM_FWD*%
X111623000Y-89589000D02*
X120450000Y-89589000D01*
X116887134Y-117186000D02*
X117313000Y-116760134D01*
X116284866Y-117186000D02*
X116887134Y-117186000D01*
X109474000Y-90170000D02*
X108450948Y-90170000D01*
X110998000Y-90170000D02*
X111188500Y-89979500D01*
X111579000Y-89589000D02*
X111188500Y-89979500D01*
X120450000Y-89589000D02*
X121539000Y-90678000D01*
X109474000Y-90170000D02*
X110998000Y-90170000D01*
X111623000Y-89589000D02*
X111579000Y-89589000D01*
X117313000Y-116240000D02*
X117856000Y-115697000D01*
X117313000Y-116760134D02*
X117313000Y-116240000D01*
X111025500Y-88991500D02*
X111623000Y-89589000D01*
X117856000Y-115697000D02*
X123952000Y-115697000D01*
X123952000Y-115697000D02*
X124841000Y-116586000D01*
X107888948Y-114881000D02*
X113979866Y-114881000D01*
X107261000Y-114253053D02*
X107888948Y-114881000D01*
X107261000Y-91359948D02*
X107261000Y-114253053D01*
X113979866Y-114881000D02*
X116284866Y-117186000D01*
X108450948Y-90170000D02*
X107261000Y-91359948D01*
%TO.N,PWM_RVS*%
X108077000Y-114427000D02*
X114554000Y-114427000D01*
X110878052Y-90932000D02*
X111767052Y-90043000D01*
X110236000Y-90932000D02*
X108331000Y-90932000D01*
X107715000Y-114065000D02*
X108077000Y-114427000D01*
X107715000Y-91548000D02*
X107715000Y-114065000D01*
X110236000Y-90932000D02*
X110878052Y-90932000D01*
X114554000Y-114427000D02*
X116586000Y-116459000D01*
X118364000Y-90043000D02*
X118999000Y-90678000D01*
X111767052Y-90043000D02*
X118364000Y-90043000D01*
X108331000Y-90932000D02*
X107715000Y-91548000D01*
%TO.N,+3V3*%
X104267000Y-88265000D02*
X106807000Y-88265000D01*
X112197134Y-89135000D02*
X122536000Y-89135000D01*
X111326634Y-88264500D02*
X112197134Y-89135000D01*
X106807500Y-88264500D02*
X111326634Y-88264500D01*
X122536000Y-89135000D02*
X124079000Y-90678000D01*
X106807000Y-88265000D02*
X106807500Y-88264500D01*
%TO.N,Net-(U3-LIN)*%
X107701079Y-115335186D02*
X113792000Y-115335186D01*
X106807000Y-114441106D02*
X107701079Y-115335186D01*
X105930134Y-90043000D02*
X106807000Y-90919866D01*
X113792000Y-115335186D02*
X116096814Y-117640000D01*
X106807000Y-90919866D02*
X106807000Y-114441106D01*
X117075187Y-117640000D02*
X118110000Y-116605187D01*
X118110000Y-116605187D02*
X118110000Y-116516786D01*
X103886000Y-89281000D02*
X104648000Y-90043000D01*
X104648000Y-90043000D02*
X105930134Y-90043000D01*
X116096814Y-117640000D02*
X117075187Y-117640000D01*
%TO.N,Net-(U2-LIN)*%
X106353000Y-114629158D02*
X106353000Y-91567000D01*
X106353000Y-91567000D02*
X105791000Y-91005000D01*
X105791000Y-91005000D02*
X105791000Y-90932000D01*
X126111000Y-116586000D02*
X125349000Y-117348000D01*
X113495948Y-115789000D02*
X107512842Y-115789000D01*
X117263239Y-118094000D02*
X115800948Y-118094000D01*
X118009239Y-117348000D02*
X117263239Y-118094000D01*
X107512842Y-115789000D02*
X106353000Y-114629158D01*
X125349000Y-117348000D02*
X118009239Y-117348000D01*
X115800948Y-118094000D02*
X113495948Y-115789000D01*
%TD*%
%TA.AperFunction,Conductor*%
%TO.N,GND*%
G36*
X136346238Y-77490185D02*
G01*
X136391993Y-77542989D01*
X136401937Y-77612147D01*
X136372912Y-77675703D01*
X136314134Y-77713477D01*
X136309797Y-77714666D01*
X136241272Y-77732114D01*
X135868549Y-77867774D01*
X135511191Y-78039869D01*
X135172753Y-78246684D01*
X135172742Y-78246692D01*
X134856575Y-78486180D01*
X134856572Y-78486182D01*
X134565813Y-78755968D01*
X134303365Y-79053359D01*
X134071839Y-79375393D01*
X134071826Y-79375413D01*
X133873516Y-79718896D01*
X133710382Y-80080437D01*
X133584059Y-80456419D01*
X133495799Y-80843111D01*
X133446478Y-81236681D01*
X133436590Y-81633173D01*
X133436590Y-81633187D01*
X133466230Y-82028711D01*
X133466231Y-82028724D01*
X133535108Y-82419339D01*
X133642530Y-82801137D01*
X133642534Y-82801151D01*
X133787435Y-83170353D01*
X133787440Y-83170365D01*
X133968386Y-83523314D01*
X133968397Y-83523333D01*
X133978385Y-83538797D01*
X134183586Y-83856509D01*
X134252018Y-83942320D01*
X134430895Y-84166625D01*
X134707823Y-84450544D01*
X134707833Y-84450554D01*
X135011676Y-84705508D01*
X135339394Y-84928942D01*
X135687730Y-85118636D01*
X136053223Y-85272704D01*
X136053232Y-85272706D01*
X136053238Y-85272709D01*
X136432235Y-85389614D01*
X136432248Y-85389617D01*
X136820999Y-85468205D01*
X136821014Y-85468208D01*
X137159299Y-85502058D01*
X137215680Y-85507700D01*
X137215681Y-85507700D01*
X137513103Y-85507700D01*
X137711130Y-85497816D01*
X137810145Y-85492875D01*
X138202353Y-85433759D01*
X138586726Y-85335886D01*
X138959445Y-85200228D01*
X139316803Y-85028133D01*
X139655251Y-84821312D01*
X139971424Y-84581820D01*
X140262181Y-84312037D01*
X140524631Y-84014645D01*
X140756166Y-83692600D01*
X140954485Y-83349101D01*
X141117617Y-82987563D01*
X141235957Y-82635340D01*
X141275968Y-82578061D01*
X141340594Y-82551506D01*
X141409318Y-82564107D01*
X141460321Y-82611862D01*
X141477500Y-82674833D01*
X141477500Y-118506243D01*
X141457815Y-118573282D01*
X141405011Y-118619037D01*
X141335853Y-118628981D01*
X141272297Y-118599956D01*
X141234523Y-118541178D01*
X141234135Y-118539827D01*
X141185469Y-118366862D01*
X141185465Y-118366848D01*
X141040564Y-117997646D01*
X141040559Y-117997634D01*
X140859613Y-117644685D01*
X140859609Y-117644677D01*
X140644414Y-117311491D01*
X140397114Y-117001386D01*
X140397111Y-117001383D01*
X140397104Y-117001374D01*
X140120176Y-116717455D01*
X140120173Y-116717452D01*
X140120172Y-116717451D01*
X140120167Y-116717446D01*
X139816324Y-116462492D01*
X139664535Y-116359004D01*
X139488605Y-116239057D01*
X139362713Y-116170500D01*
X139140270Y-116049364D01*
X139140262Y-116049360D01*
X139140259Y-116049359D01*
X138774777Y-115895296D01*
X138774761Y-115895290D01*
X138395764Y-115778385D01*
X138395751Y-115778382D01*
X138007000Y-115699794D01*
X138006979Y-115699791D01*
X137612320Y-115660300D01*
X137612319Y-115660300D01*
X137314899Y-115660300D01*
X137314897Y-115660300D01*
X137017855Y-115675124D01*
X136625647Y-115734241D01*
X136241272Y-115832114D01*
X135868549Y-115967774D01*
X135511191Y-116139869D01*
X135172753Y-116346684D01*
X135172742Y-116346692D01*
X134856575Y-116586180D01*
X134856572Y-116586182D01*
X134565813Y-116855968D01*
X134303365Y-117153359D01*
X134071839Y-117475393D01*
X134071826Y-117475413D01*
X133873516Y-117818896D01*
X133710382Y-118180437D01*
X133584059Y-118556419D01*
X133495799Y-118943111D01*
X133446478Y-119336681D01*
X133436590Y-119733173D01*
X133436590Y-119733187D01*
X133466230Y-120128711D01*
X133466231Y-120128724D01*
X133535108Y-120519339D01*
X133642530Y-120901137D01*
X133642534Y-120901151D01*
X133787435Y-121270353D01*
X133787440Y-121270365D01*
X133968386Y-121623314D01*
X133968391Y-121623323D01*
X134183586Y-121956509D01*
X134430886Y-122266614D01*
X134430895Y-122266625D01*
X134707823Y-122550544D01*
X134707833Y-122550554D01*
X135011676Y-122805508D01*
X135339394Y-123028942D01*
X135687730Y-123218636D01*
X136053223Y-123372704D01*
X136053232Y-123372706D01*
X136053238Y-123372709D01*
X136320048Y-123455009D01*
X136378307Y-123493579D01*
X136406464Y-123557524D01*
X136395581Y-123626541D01*
X136349113Y-123678717D01*
X136283498Y-123697500D01*
X106798801Y-123697500D01*
X106731762Y-123677815D01*
X106686007Y-123625011D01*
X106676063Y-123555853D01*
X106705088Y-123492297D01*
X106763866Y-123454523D01*
X106768203Y-123453334D01*
X106836726Y-123435886D01*
X107209445Y-123300228D01*
X107566803Y-123128133D01*
X107905251Y-122921312D01*
X108221424Y-122681820D01*
X108512181Y-122412037D01*
X108774631Y-122114645D01*
X109006166Y-121792600D01*
X109204485Y-121449101D01*
X109367617Y-121087563D01*
X109493941Y-120711578D01*
X109582201Y-120324885D01*
X109631521Y-119931325D01*
X109636462Y-119733173D01*
X109641409Y-119534826D01*
X109641409Y-119534810D01*
X109641408Y-119534809D01*
X109611769Y-119139280D01*
X109542893Y-118748668D01*
X109506420Y-118619037D01*
X109466405Y-118476815D01*
X109435467Y-118366854D01*
X109431188Y-118355952D01*
X109290564Y-117997646D01*
X109290559Y-117997634D01*
X109109613Y-117644685D01*
X109109609Y-117644677D01*
X108894414Y-117311491D01*
X108647114Y-117001386D01*
X108647111Y-117001383D01*
X108647104Y-117001374D01*
X108370176Y-116717455D01*
X108370173Y-116717452D01*
X108370172Y-116717451D01*
X108370167Y-116717446D01*
X108066324Y-116462492D01*
X107970196Y-116396953D01*
X107925896Y-116342925D01*
X107917836Y-116273522D01*
X107948579Y-116210779D01*
X108008363Y-116174617D01*
X108040049Y-116170500D01*
X113286564Y-116170500D01*
X113353603Y-116190185D01*
X113374245Y-116206819D01*
X115494110Y-118326684D01*
X115510237Y-118346543D01*
X115516384Y-118355952D01*
X115516386Y-118355954D01*
X115516387Y-118355955D01*
X115516388Y-118355956D01*
X115544904Y-118378150D01*
X115550656Y-118383230D01*
X115553539Y-118386113D01*
X115572837Y-118399891D01*
X115616863Y-118434158D01*
X115616865Y-118434158D01*
X115623887Y-118437959D01*
X115631073Y-118441471D01*
X115631078Y-118441475D01*
X115684537Y-118457390D01*
X115737287Y-118475500D01*
X115737288Y-118475500D01*
X115745170Y-118476815D01*
X115753105Y-118477804D01*
X115753106Y-118477805D01*
X115753106Y-118477804D01*
X115753107Y-118477805D01*
X115780968Y-118476652D01*
X115808832Y-118475500D01*
X117210812Y-118475500D01*
X117236257Y-118478139D01*
X117240200Y-118478965D01*
X117247256Y-118480445D01*
X117265815Y-118478131D01*
X117283105Y-118475977D01*
X117290781Y-118475500D01*
X117294847Y-118475500D01*
X117294850Y-118475500D01*
X117318243Y-118471596D01*
X117373599Y-118464696D01*
X117381252Y-118462416D01*
X117388821Y-118459818D01*
X117388825Y-118459818D01*
X117437880Y-118433270D01*
X117487985Y-118408776D01*
X117487986Y-118408774D01*
X117494502Y-118404122D01*
X117500797Y-118399223D01*
X117500798Y-118399221D01*
X117500801Y-118399220D01*
X117538580Y-118358180D01*
X118130941Y-117765819D01*
X118192265Y-117732334D01*
X118218623Y-117729500D01*
X125296573Y-117729500D01*
X125322018Y-117732139D01*
X125325961Y-117732965D01*
X125333017Y-117734445D01*
X125351576Y-117732131D01*
X125368866Y-117729977D01*
X125376542Y-117729500D01*
X125380608Y-117729500D01*
X125380611Y-117729500D01*
X125404004Y-117725596D01*
X125459360Y-117718696D01*
X125467013Y-117716416D01*
X125474582Y-117713818D01*
X125474586Y-117713818D01*
X125523641Y-117687270D01*
X125573746Y-117662776D01*
X125573747Y-117662774D01*
X125580263Y-117658122D01*
X125586558Y-117653223D01*
X125586559Y-117653221D01*
X125586562Y-117653220D01*
X125624341Y-117612180D01*
X125959702Y-117276819D01*
X126021025Y-117243334D01*
X126047383Y-117240500D01*
X126190472Y-117240500D01*
X126241911Y-117227820D01*
X126344793Y-117202463D01*
X126485529Y-117128599D01*
X126604498Y-117023201D01*
X126694787Y-116892395D01*
X126751149Y-116743782D01*
X126770307Y-116586000D01*
X126751149Y-116428218D01*
X126694787Y-116279605D01*
X126604498Y-116148799D01*
X126604495Y-116148796D01*
X126604493Y-116148794D01*
X126485530Y-116043401D01*
X126344791Y-115969536D01*
X126190472Y-115931500D01*
X126190471Y-115931500D01*
X126031529Y-115931500D01*
X126031528Y-115931500D01*
X125877208Y-115969536D01*
X125736469Y-116043401D01*
X125617506Y-116148794D01*
X125617500Y-116148801D01*
X125578050Y-116205955D01*
X125523767Y-116249945D01*
X125454318Y-116257605D01*
X125391754Y-116226501D01*
X125373950Y-116205955D01*
X125334499Y-116148801D01*
X125334498Y-116148799D01*
X125334495Y-116148796D01*
X125334493Y-116148794D01*
X125215530Y-116043401D01*
X125074791Y-115969536D01*
X124920472Y-115931500D01*
X124920471Y-115931500D01*
X124777384Y-115931500D01*
X124710345Y-115911815D01*
X124689703Y-115895181D01*
X124258833Y-115464310D01*
X124242705Y-115444450D01*
X124236560Y-115435044D01*
X124208049Y-115412853D01*
X124202287Y-115407764D01*
X124199409Y-115404886D01*
X124180099Y-115391099D01*
X124158091Y-115373970D01*
X124136086Y-115356842D01*
X124129070Y-115353045D01*
X124121872Y-115349526D01*
X124121870Y-115349525D01*
X124121867Y-115349524D01*
X124068413Y-115333609D01*
X124015662Y-115315499D01*
X124007779Y-115314184D01*
X123999839Y-115313194D01*
X123946167Y-115315415D01*
X123944116Y-115315500D01*
X117908427Y-115315500D01*
X117882982Y-115312861D01*
X117871984Y-115310555D01*
X117871980Y-115310555D01*
X117836134Y-115315023D01*
X117828458Y-115315500D01*
X117824389Y-115315500D01*
X117816590Y-115316801D01*
X117800993Y-115319403D01*
X117745644Y-115326302D01*
X117737966Y-115328588D01*
X117730413Y-115331181D01*
X117681359Y-115357728D01*
X117631252Y-115382225D01*
X117624742Y-115386872D01*
X117618435Y-115391781D01*
X117580659Y-115432818D01*
X117114386Y-115899089D01*
X117053063Y-115932574D01*
X116983371Y-115927590D01*
X116967477Y-115919302D01*
X116967171Y-115919887D01*
X116819791Y-115842536D01*
X116665472Y-115804500D01*
X116665471Y-115804500D01*
X116522384Y-115804500D01*
X116455345Y-115784815D01*
X116434703Y-115768181D01*
X115437704Y-114771181D01*
X115404219Y-114709858D01*
X115409203Y-114640166D01*
X115451075Y-114584233D01*
X115516539Y-114559816D01*
X115525385Y-114559500D01*
X134749991Y-114559500D01*
X134750000Y-114559500D01*
X134805163Y-114553569D01*
X134841877Y-114545581D01*
X134856684Y-114542361D01*
X134856683Y-114542361D01*
X134870332Y-114538615D01*
X134883461Y-114535014D01*
X134971448Y-114484911D01*
X135024252Y-114439156D01*
X135056371Y-114405869D01*
X135103303Y-114316151D01*
X135122988Y-114249112D01*
X135133500Y-114176000D01*
X135133500Y-89405000D01*
X135127569Y-89349837D01*
X135116363Y-89298326D01*
X135116361Y-89298317D01*
X135116360Y-89298316D01*
X135109013Y-89271536D01*
X135081239Y-89222763D01*
X135058911Y-89183552D01*
X135013156Y-89130748D01*
X134979869Y-89098629D01*
X134890151Y-89051697D01*
X134890150Y-89051696D01*
X134890147Y-89051695D01*
X134823117Y-89032013D01*
X134823105Y-89032010D01*
X134750001Y-89021500D01*
X134750000Y-89021500D01*
X131188000Y-89021500D01*
X131187991Y-89021500D01*
X131132838Y-89027430D01*
X131081316Y-89038639D01*
X131081317Y-89038639D01*
X131054536Y-89045986D01*
X130966553Y-89096088D01*
X130935244Y-89123218D01*
X130913748Y-89141844D01*
X130896563Y-89159653D01*
X130881630Y-89175129D01*
X130834695Y-89264852D01*
X130815013Y-89331882D01*
X130815010Y-89331894D01*
X130804500Y-89404998D01*
X130804500Y-91437500D01*
X130784815Y-91504539D01*
X130732011Y-91550294D01*
X130680500Y-91561500D01*
X124931095Y-91561500D01*
X124864056Y-91541815D01*
X124818301Y-91489011D01*
X124808357Y-91419853D01*
X124835241Y-91358836D01*
X124838430Y-91354949D01*
X124928278Y-91245469D01*
X125022667Y-91068880D01*
X125080792Y-90877269D01*
X125100418Y-90678000D01*
X125080792Y-90478731D01*
X125022667Y-90287120D01*
X125018046Y-90278475D01*
X124928281Y-90110536D01*
X124928280Y-90110534D01*
X124928278Y-90110531D01*
X124843165Y-90006819D01*
X124801252Y-89955747D01*
X124690406Y-89864780D01*
X124646469Y-89828722D01*
X124646465Y-89828720D01*
X124646463Y-89828718D01*
X124469881Y-89734333D01*
X124278271Y-89676208D01*
X124079000Y-89656582D01*
X123879732Y-89676207D01*
X123749064Y-89715845D01*
X123679197Y-89716468D01*
X123625388Y-89684865D01*
X122842833Y-88902310D01*
X122826705Y-88882450D01*
X122826060Y-88881463D01*
X122820560Y-88873044D01*
X122792049Y-88850853D01*
X122786287Y-88845764D01*
X122783409Y-88842886D01*
X122764099Y-88829099D01*
X122742092Y-88811970D01*
X122720086Y-88794842D01*
X122713070Y-88791045D01*
X122705872Y-88787526D01*
X122705870Y-88787525D01*
X122705867Y-88787524D01*
X122652413Y-88771609D01*
X122599662Y-88753499D01*
X122591779Y-88752184D01*
X122583839Y-88751194D01*
X122530167Y-88753415D01*
X122528116Y-88753500D01*
X112406518Y-88753500D01*
X112339479Y-88733815D01*
X112318837Y-88717181D01*
X111633467Y-88031810D01*
X111617339Y-88011950D01*
X111611194Y-88002544D01*
X111582683Y-87980353D01*
X111576921Y-87975264D01*
X111574043Y-87972386D01*
X111554733Y-87958599D01*
X111532726Y-87941470D01*
X111510720Y-87924342D01*
X111503704Y-87920545D01*
X111496506Y-87917026D01*
X111496504Y-87917025D01*
X111496501Y-87917024D01*
X111443047Y-87901109D01*
X111390296Y-87882999D01*
X111382413Y-87881684D01*
X111374473Y-87880694D01*
X111320801Y-87882915D01*
X111318750Y-87883000D01*
X106859927Y-87883000D01*
X106834482Y-87880361D01*
X106823484Y-87878055D01*
X106823480Y-87878055D01*
X106787634Y-87882523D01*
X106779958Y-87883000D01*
X106775888Y-87883000D01*
X106772409Y-87883288D01*
X106767288Y-87883500D01*
X104864026Y-87883500D01*
X104796987Y-87863815D01*
X104765519Y-87833369D01*
X104765471Y-87833413D01*
X104764909Y-87832779D01*
X104761977Y-87829942D01*
X104760499Y-87827801D01*
X104760498Y-87827799D01*
X104760494Y-87827796D01*
X104760493Y-87827794D01*
X104641530Y-87722401D01*
X104500791Y-87648536D01*
X104346472Y-87610500D01*
X104346471Y-87610500D01*
X104187529Y-87610500D01*
X104187528Y-87610500D01*
X104033208Y-87648536D01*
X103892469Y-87722401D01*
X103773506Y-87827794D01*
X103773500Y-87827801D01*
X103683214Y-87958602D01*
X103626850Y-88107218D01*
X103607693Y-88264999D01*
X103607693Y-88265000D01*
X103626850Y-88422781D01*
X103648094Y-88478797D01*
X103668571Y-88532787D01*
X103673938Y-88602449D01*
X103640791Y-88663956D01*
X103610255Y-88686554D01*
X103511472Y-88738399D01*
X103511470Y-88738401D01*
X103392506Y-88843794D01*
X103392500Y-88843801D01*
X103302214Y-88974602D01*
X103245850Y-89123218D01*
X103226693Y-89280999D01*
X103226693Y-89281000D01*
X103245850Y-89438781D01*
X103302214Y-89587397D01*
X103369492Y-89684865D01*
X103392502Y-89718201D01*
X103392504Y-89718203D01*
X103392506Y-89718205D01*
X103511469Y-89823598D01*
X103511471Y-89823599D01*
X103652207Y-89897463D01*
X103686060Y-89905807D01*
X103806528Y-89935500D01*
X103949616Y-89935500D01*
X104016655Y-89955185D01*
X104037296Y-89971818D01*
X104218430Y-90152953D01*
X104341165Y-90275688D01*
X104357293Y-90295548D01*
X104363438Y-90304954D01*
X104363439Y-90304955D01*
X104363440Y-90304956D01*
X104391944Y-90327141D01*
X104397701Y-90332224D01*
X104400591Y-90335114D01*
X104419898Y-90348898D01*
X104463915Y-90383158D01*
X104463921Y-90383160D01*
X104470950Y-90386964D01*
X104478128Y-90390473D01*
X104478131Y-90390475D01*
X104531582Y-90406388D01*
X104584339Y-90424500D01*
X104584342Y-90424500D01*
X104592223Y-90425815D01*
X104600158Y-90426804D01*
X104600159Y-90426805D01*
X104600159Y-90426804D01*
X104600160Y-90426805D01*
X104628021Y-90425652D01*
X104655884Y-90424500D01*
X105109763Y-90424500D01*
X105176802Y-90444185D01*
X105222557Y-90496989D01*
X105232501Y-90566147D01*
X105211815Y-90618938D01*
X105207214Y-90625603D01*
X105150850Y-90774218D01*
X105131693Y-90931999D01*
X105131693Y-90932000D01*
X105150850Y-91089781D01*
X105191203Y-91196180D01*
X105206767Y-91237220D01*
X105207214Y-91238397D01*
X105259054Y-91313499D01*
X105297502Y-91369201D01*
X105297504Y-91369203D01*
X105297506Y-91369205D01*
X105416469Y-91474598D01*
X105416471Y-91474599D01*
X105557207Y-91548463D01*
X105610100Y-91561500D01*
X105711528Y-91586500D01*
X105711529Y-91586500D01*
X105781614Y-91586500D01*
X105848653Y-91606185D01*
X105869295Y-91622818D01*
X105935181Y-91688703D01*
X105968666Y-91750026D01*
X105971500Y-91776385D01*
X105971500Y-114576730D01*
X105968861Y-114602178D01*
X105966554Y-114613175D01*
X105971023Y-114649023D01*
X105971500Y-114656699D01*
X105971500Y-114660769D01*
X105974427Y-114678313D01*
X105975403Y-114684163D01*
X105982304Y-114739519D01*
X105984580Y-114747167D01*
X105987181Y-114754743D01*
X106013729Y-114803799D01*
X106038224Y-114853905D01*
X106042869Y-114860411D01*
X106047781Y-114866722D01*
X106088819Y-114904499D01*
X106752334Y-115568014D01*
X106785819Y-115629337D01*
X106780835Y-115699028D01*
X106738964Y-115754962D01*
X106673499Y-115779379D01*
X106640083Y-115777236D01*
X106257000Y-115699794D01*
X106256979Y-115699791D01*
X105862320Y-115660300D01*
X105862319Y-115660300D01*
X105564899Y-115660300D01*
X105564897Y-115660300D01*
X105267855Y-115675124D01*
X104875647Y-115734241D01*
X104491272Y-115832114D01*
X104118549Y-115967774D01*
X103761191Y-116139869D01*
X103422753Y-116346684D01*
X103422742Y-116346692D01*
X103106575Y-116586180D01*
X103106572Y-116586182D01*
X102815813Y-116855968D01*
X102553365Y-117153359D01*
X102321839Y-117475393D01*
X102321826Y-117475413D01*
X102123516Y-117818896D01*
X101960382Y-118180437D01*
X101842043Y-118532658D01*
X101802032Y-118589938D01*
X101737406Y-118616493D01*
X101668682Y-118603892D01*
X101617679Y-118556137D01*
X101600500Y-118493166D01*
X101600500Y-82661756D01*
X101620185Y-82594717D01*
X101672989Y-82548962D01*
X101742147Y-82539018D01*
X101805703Y-82568043D01*
X101843477Y-82626821D01*
X101843865Y-82628172D01*
X101892530Y-82801137D01*
X101892534Y-82801151D01*
X102037435Y-83170353D01*
X102037440Y-83170365D01*
X102218386Y-83523314D01*
X102218397Y-83523333D01*
X102228385Y-83538797D01*
X102433586Y-83856509D01*
X102502018Y-83942320D01*
X102680895Y-84166625D01*
X102957823Y-84450544D01*
X102957833Y-84450554D01*
X103261676Y-84705508D01*
X103589394Y-84928942D01*
X103937730Y-85118636D01*
X104303223Y-85272704D01*
X104303232Y-85272706D01*
X104303238Y-85272709D01*
X104682235Y-85389614D01*
X104682248Y-85389617D01*
X105070999Y-85468205D01*
X105071014Y-85468208D01*
X105409299Y-85502058D01*
X105465680Y-85507700D01*
X105465681Y-85507700D01*
X105763103Y-85507700D01*
X105961130Y-85497816D01*
X106060145Y-85492875D01*
X106452353Y-85433759D01*
X106836726Y-85335886D01*
X107209445Y-85200228D01*
X107566803Y-85028133D01*
X107905251Y-84821312D01*
X108221424Y-84581820D01*
X108512181Y-84312037D01*
X108774631Y-84014645D01*
X109006166Y-83692600D01*
X109204485Y-83349101D01*
X109367617Y-82987563D01*
X109493941Y-82611578D01*
X109582201Y-82224885D01*
X109605120Y-82042001D01*
X115748454Y-82042001D01*
X115768613Y-82323866D01*
X115827534Y-82594717D01*
X115828680Y-82599984D01*
X115851720Y-82661756D01*
X115927432Y-82864750D01*
X115927434Y-82864754D01*
X116062855Y-83112758D01*
X116062860Y-83112766D01*
X116232196Y-83338974D01*
X116232212Y-83338992D01*
X116432007Y-83538787D01*
X116432025Y-83538803D01*
X116658233Y-83708139D01*
X116658241Y-83708144D01*
X116906245Y-83843565D01*
X116906249Y-83843567D01*
X116906251Y-83843568D01*
X117171016Y-83942320D01*
X117309077Y-83972353D01*
X117447133Y-84002386D01*
X117447135Y-84002386D01*
X117447139Y-84002387D01*
X117658447Y-84017500D01*
X117799553Y-84017500D01*
X118010861Y-84002387D01*
X118286984Y-83942320D01*
X118551749Y-83843568D01*
X118799764Y-83708141D01*
X119025982Y-83538797D01*
X119225797Y-83338982D01*
X119395141Y-83112764D01*
X119530568Y-82864749D01*
X119629320Y-82599984D01*
X119689387Y-82323861D01*
X119709546Y-82042001D01*
X123368454Y-82042001D01*
X123388613Y-82323866D01*
X123447534Y-82594717D01*
X123448680Y-82599984D01*
X123471720Y-82661756D01*
X123547432Y-82864750D01*
X123547434Y-82864754D01*
X123682855Y-83112758D01*
X123682860Y-83112766D01*
X123852196Y-83338974D01*
X123852212Y-83338992D01*
X124052007Y-83538787D01*
X124052025Y-83538803D01*
X124278233Y-83708139D01*
X124278241Y-83708144D01*
X124526245Y-83843565D01*
X124526249Y-83843567D01*
X124526251Y-83843568D01*
X124791016Y-83942320D01*
X124929077Y-83972353D01*
X125067133Y-84002386D01*
X125067135Y-84002386D01*
X125067139Y-84002387D01*
X125278447Y-84017500D01*
X125419553Y-84017500D01*
X125630861Y-84002387D01*
X125906984Y-83942320D01*
X126171749Y-83843568D01*
X126419764Y-83708141D01*
X126645982Y-83538797D01*
X126845797Y-83338982D01*
X127015141Y-83112764D01*
X127150568Y-82864749D01*
X127249320Y-82599984D01*
X127309387Y-82323861D01*
X127329546Y-82042000D01*
X127328596Y-82028724D01*
X127314478Y-81831325D01*
X127309387Y-81760139D01*
X127249320Y-81484016D01*
X127150568Y-81219251D01*
X127117705Y-81159068D01*
X127015144Y-80971241D01*
X127015139Y-80971233D01*
X126845803Y-80745025D01*
X126845787Y-80745007D01*
X126645992Y-80545212D01*
X126645974Y-80545196D01*
X126419766Y-80375860D01*
X126419758Y-80375855D01*
X126171754Y-80240434D01*
X126171750Y-80240432D01*
X126071372Y-80202993D01*
X125906984Y-80141680D01*
X125906980Y-80141679D01*
X125906977Y-80141678D01*
X125630866Y-80081613D01*
X125419553Y-80066500D01*
X125278447Y-80066500D01*
X125067133Y-80081613D01*
X124791022Y-80141678D01*
X124791017Y-80141679D01*
X124791016Y-80141680D01*
X124727003Y-80165555D01*
X124526249Y-80240432D01*
X124526245Y-80240434D01*
X124278241Y-80375855D01*
X124278233Y-80375860D01*
X124052025Y-80545196D01*
X124052007Y-80545212D01*
X123852212Y-80745007D01*
X123852196Y-80745025D01*
X123682860Y-80971233D01*
X123682855Y-80971241D01*
X123547434Y-81219245D01*
X123547432Y-81219249D01*
X123448678Y-81484022D01*
X123388613Y-81760133D01*
X123368454Y-82041998D01*
X123368454Y-82042001D01*
X119709546Y-82042001D01*
X119709546Y-82042000D01*
X119708596Y-82028724D01*
X119694478Y-81831325D01*
X119689387Y-81760139D01*
X119629320Y-81484016D01*
X119530568Y-81219251D01*
X119497705Y-81159068D01*
X119395144Y-80971241D01*
X119395139Y-80971233D01*
X119225803Y-80745025D01*
X119225787Y-80745007D01*
X119025992Y-80545212D01*
X119025974Y-80545196D01*
X118799766Y-80375860D01*
X118799758Y-80375855D01*
X118551754Y-80240434D01*
X118551750Y-80240432D01*
X118451372Y-80202993D01*
X118286984Y-80141680D01*
X118286980Y-80141679D01*
X118286977Y-80141678D01*
X118010866Y-80081613D01*
X117799553Y-80066500D01*
X117658447Y-80066500D01*
X117447133Y-80081613D01*
X117171022Y-80141678D01*
X117171017Y-80141679D01*
X117171016Y-80141680D01*
X117107003Y-80165555D01*
X116906249Y-80240432D01*
X116906245Y-80240434D01*
X116658241Y-80375855D01*
X116658233Y-80375860D01*
X116432025Y-80545196D01*
X116432007Y-80545212D01*
X116232212Y-80745007D01*
X116232196Y-80745025D01*
X116062860Y-80971233D01*
X116062855Y-80971241D01*
X115927434Y-81219245D01*
X115927432Y-81219249D01*
X115828678Y-81484022D01*
X115768613Y-81760133D01*
X115748454Y-82041998D01*
X115748454Y-82042001D01*
X109605120Y-82042001D01*
X109631521Y-81831325D01*
X109638923Y-81534500D01*
X109641409Y-81434826D01*
X109641409Y-81434810D01*
X109634760Y-81346087D01*
X109611769Y-81039280D01*
X109542893Y-80648668D01*
X109513782Y-80545203D01*
X109479110Y-80421970D01*
X109435467Y-80266854D01*
X109425303Y-80240957D01*
X109290564Y-79897646D01*
X109290559Y-79897634D01*
X109109613Y-79544685D01*
X109109609Y-79544677D01*
X108894414Y-79211491D01*
X108647114Y-78901386D01*
X108647111Y-78901383D01*
X108647104Y-78901374D01*
X108370176Y-78617455D01*
X108370173Y-78617452D01*
X108370172Y-78617451D01*
X108370167Y-78617446D01*
X108066324Y-78362492D01*
X107961841Y-78291257D01*
X107738605Y-78139057D01*
X107622493Y-78075826D01*
X107390270Y-77949364D01*
X107390262Y-77949360D01*
X107390259Y-77949359D01*
X107024777Y-77795296D01*
X107024761Y-77795290D01*
X106757952Y-77712991D01*
X106699693Y-77674421D01*
X106671536Y-77610476D01*
X106682419Y-77541459D01*
X106728887Y-77489283D01*
X106794502Y-77470500D01*
X136279199Y-77470500D01*
X136346238Y-77490185D01*
G37*
%TD.AperFunction*%
%TA.AperFunction,Conductor*%
G36*
X118710237Y-94198372D02*
G01*
X118866175Y-94210056D01*
X118884490Y-94212817D01*
X119084819Y-94258540D01*
X119102528Y-94264002D01*
X119293828Y-94339080D01*
X119310527Y-94347122D01*
X119488473Y-94449859D01*
X119503787Y-94460299D01*
X119664450Y-94588424D01*
X119678029Y-94601024D01*
X119817794Y-94751656D01*
X119829346Y-94766142D01*
X119945104Y-94935927D01*
X119954371Y-94951978D01*
X120043525Y-95137110D01*
X120050296Y-95154361D01*
X120110863Y-95350715D01*
X120114987Y-95368783D01*
X120145615Y-95571977D01*
X120147000Y-95590459D01*
X120147000Y-95795939D01*
X120145615Y-95814421D01*
X120114987Y-96017615D01*
X120110863Y-96035683D01*
X120050296Y-96232037D01*
X120043525Y-96249288D01*
X119954371Y-96434420D01*
X119945104Y-96450471D01*
X119829346Y-96620256D01*
X119817792Y-96634745D01*
X119678032Y-96785371D01*
X119664446Y-96797977D01*
X119503786Y-96926099D01*
X119488473Y-96936539D01*
X119310525Y-97039277D01*
X119293828Y-97047318D01*
X119102547Y-97122391D01*
X119084836Y-97127854D01*
X118884495Y-97173580D01*
X118866171Y-97176342D01*
X118796330Y-97181576D01*
X118710253Y-97188027D01*
X118705637Y-97188200D01*
X116498367Y-97188200D01*
X116493750Y-97188027D01*
X116392658Y-97180451D01*
X116337833Y-97176343D01*
X116319508Y-97173581D01*
X116119164Y-97127854D01*
X116101454Y-97122391D01*
X115910170Y-97047318D01*
X115893472Y-97039277D01*
X115715525Y-96936539D01*
X115700212Y-96926099D01*
X115539552Y-96797977D01*
X115525966Y-96785371D01*
X115386202Y-96634741D01*
X115374652Y-96620256D01*
X115258894Y-96450471D01*
X115249627Y-96434420D01*
X115160473Y-96249289D01*
X115153702Y-96232038D01*
X115144920Y-96203570D01*
X115093130Y-96035672D01*
X115089011Y-96017622D01*
X115058385Y-95814426D01*
X115057000Y-95795946D01*
X115057000Y-95590449D01*
X115058385Y-95571969D01*
X115059608Y-95563853D01*
X115089009Y-95368779D01*
X115093127Y-95350735D01*
X115153706Y-95154348D01*
X115160466Y-95137122D01*
X115249631Y-94951969D01*
X115258886Y-94935938D01*
X115374656Y-94766134D01*
X115386195Y-94751665D01*
X115525970Y-94601023D01*
X115539553Y-94588421D01*
X115700224Y-94460290D01*
X115715509Y-94449869D01*
X115893480Y-94347116D01*
X115910164Y-94339081D01*
X116101461Y-94264003D01*
X116119145Y-94258549D01*
X116319511Y-94212816D01*
X116337829Y-94210055D01*
X116493744Y-94198372D01*
X116498360Y-94198200D01*
X118705622Y-94198200D01*
X118710237Y-94198372D01*
G37*
%TD.AperFunction*%
%TD*%
%TA.AperFunction,Conductor*%
%TO.N,+12V*%
G36*
X134817039Y-89300685D02*
G01*
X134862794Y-89353489D01*
X134874000Y-89405000D01*
X134874000Y-114176000D01*
X134854315Y-114243039D01*
X134801511Y-114288794D01*
X134750000Y-114300000D01*
X115017885Y-114300000D01*
X114950846Y-114280315D01*
X114930204Y-114263681D01*
X114860833Y-114194310D01*
X114844705Y-114174450D01*
X114838560Y-114165044D01*
X114810049Y-114142853D01*
X114804287Y-114137764D01*
X114801409Y-114134886D01*
X114782099Y-114121099D01*
X114760091Y-114103970D01*
X114738086Y-114086842D01*
X114731070Y-114083045D01*
X114723872Y-114079526D01*
X114723870Y-114079525D01*
X114723867Y-114079524D01*
X114670413Y-114063609D01*
X114617662Y-114045499D01*
X114609779Y-114044184D01*
X114601839Y-114043194D01*
X114548167Y-114045415D01*
X114546116Y-114045500D01*
X108328000Y-114045500D01*
X108260961Y-114025815D01*
X108215206Y-113973011D01*
X108204000Y-113921500D01*
X108204000Y-105606289D01*
X114797500Y-105606289D01*
X114836690Y-105866303D01*
X114836692Y-105866309D01*
X114914202Y-106117588D01*
X115028295Y-106354505D01*
X115028297Y-106354507D01*
X115028298Y-106354510D01*
X115176430Y-106571780D01*
X115355290Y-106764546D01*
X115560883Y-106928501D01*
X115788616Y-107059983D01*
X116033402Y-107156054D01*
X116289772Y-107214569D01*
X116289778Y-107214569D01*
X116289781Y-107214570D01*
X116486340Y-107229300D01*
X116486346Y-107229300D01*
X118717660Y-107229300D01*
X118914218Y-107214570D01*
X118914220Y-107214569D01*
X118914228Y-107214569D01*
X119170598Y-107156054D01*
X119415384Y-107059983D01*
X119643117Y-106928501D01*
X119848710Y-106764546D01*
X120027570Y-106571780D01*
X120175702Y-106354510D01*
X120289798Y-106117588D01*
X120367308Y-105866308D01*
X120406499Y-105606289D01*
X122671500Y-105606289D01*
X122710690Y-105866303D01*
X122710692Y-105866309D01*
X122788202Y-106117588D01*
X122902295Y-106354505D01*
X122902297Y-106354507D01*
X122902298Y-106354510D01*
X123050430Y-106571780D01*
X123229290Y-106764546D01*
X123434883Y-106928501D01*
X123662616Y-107059983D01*
X123907402Y-107156054D01*
X124163772Y-107214569D01*
X124163778Y-107214569D01*
X124163781Y-107214570D01*
X124360340Y-107229300D01*
X124360346Y-107229300D01*
X126591660Y-107229300D01*
X126788218Y-107214570D01*
X126788220Y-107214569D01*
X126788228Y-107214569D01*
X127044598Y-107156054D01*
X127289384Y-107059983D01*
X127517117Y-106928501D01*
X127722710Y-106764546D01*
X127901570Y-106571780D01*
X128049702Y-106354510D01*
X128163798Y-106117588D01*
X128241308Y-105866308D01*
X128280500Y-105606282D01*
X128280500Y-105343318D01*
X128241308Y-105083292D01*
X128163798Y-104832012D01*
X128049702Y-104595090D01*
X127901570Y-104377820D01*
X127722710Y-104185054D01*
X127517117Y-104021099D01*
X127289384Y-103889617D01*
X127044598Y-103793546D01*
X127044593Y-103793544D01*
X127044584Y-103793542D01*
X126826501Y-103743766D01*
X126788228Y-103735031D01*
X126788227Y-103735030D01*
X126788223Y-103735030D01*
X126788218Y-103735029D01*
X126591660Y-103720300D01*
X126591654Y-103720300D01*
X124360346Y-103720300D01*
X124360340Y-103720300D01*
X124163781Y-103735029D01*
X124163776Y-103735030D01*
X123907415Y-103793542D01*
X123907396Y-103793548D01*
X123662615Y-103889617D01*
X123434883Y-104021099D01*
X123229290Y-104185054D01*
X123229288Y-104185056D01*
X123050430Y-104377819D01*
X122902295Y-104595094D01*
X122788202Y-104832011D01*
X122710692Y-105083290D01*
X122710690Y-105083296D01*
X122671500Y-105343310D01*
X122671500Y-105606289D01*
X120406499Y-105606289D01*
X120406500Y-105606282D01*
X120406500Y-105343318D01*
X120367308Y-105083292D01*
X120289798Y-104832012D01*
X120175702Y-104595090D01*
X120027570Y-104377820D01*
X119848710Y-104185054D01*
X119643117Y-104021099D01*
X119415384Y-103889617D01*
X119170598Y-103793546D01*
X119170593Y-103793544D01*
X119170584Y-103793542D01*
X118952501Y-103743766D01*
X118914228Y-103735031D01*
X118914227Y-103735030D01*
X118914223Y-103735030D01*
X118914218Y-103735029D01*
X118717660Y-103720300D01*
X118717654Y-103720300D01*
X116486346Y-103720300D01*
X116486340Y-103720300D01*
X116289781Y-103735029D01*
X116289776Y-103735030D01*
X116033415Y-103793542D01*
X116033396Y-103793548D01*
X115788615Y-103889617D01*
X115560883Y-104021099D01*
X115355290Y-104185054D01*
X115355288Y-104185056D01*
X115176430Y-104377819D01*
X115028295Y-104595094D01*
X114914202Y-104832011D01*
X114836692Y-105083290D01*
X114836690Y-105083296D01*
X114797500Y-105343310D01*
X114797500Y-105606289D01*
X108204000Y-105606289D01*
X108204000Y-95824689D01*
X114797500Y-95824689D01*
X114836690Y-96084703D01*
X114836692Y-96084709D01*
X114914202Y-96335988D01*
X115028295Y-96572905D01*
X115028297Y-96572907D01*
X115028298Y-96572910D01*
X115176430Y-96790180D01*
X115355290Y-96982946D01*
X115560883Y-97146901D01*
X115788616Y-97278383D01*
X116033402Y-97374454D01*
X116289772Y-97432969D01*
X116289778Y-97432969D01*
X116289781Y-97432970D01*
X116486340Y-97447700D01*
X116486346Y-97447700D01*
X118717660Y-97447700D01*
X118914218Y-97432970D01*
X118914220Y-97432969D01*
X118914228Y-97432969D01*
X119170598Y-97374454D01*
X119415384Y-97278383D01*
X119643117Y-97146901D01*
X119848710Y-96982946D01*
X120027570Y-96790180D01*
X120175702Y-96572910D01*
X120289798Y-96335988D01*
X120367308Y-96084708D01*
X120406500Y-95824682D01*
X120406500Y-95561718D01*
X120367308Y-95301692D01*
X120289798Y-95050412D01*
X120175702Y-94813490D01*
X120027570Y-94596220D01*
X119848710Y-94403454D01*
X119643117Y-94239499D01*
X119415384Y-94108017D01*
X119170598Y-94011946D01*
X119170593Y-94011944D01*
X119170584Y-94011942D01*
X118952501Y-93962166D01*
X118914228Y-93953431D01*
X118914227Y-93953430D01*
X118914223Y-93953430D01*
X118914218Y-93953429D01*
X118717660Y-93938700D01*
X118717654Y-93938700D01*
X116486346Y-93938700D01*
X116486340Y-93938700D01*
X116289781Y-93953429D01*
X116289776Y-93953430D01*
X116033415Y-94011942D01*
X116033396Y-94011948D01*
X115788615Y-94108017D01*
X115560883Y-94239499D01*
X115355290Y-94403454D01*
X115355288Y-94403456D01*
X115176430Y-94596219D01*
X115028295Y-94813494D01*
X114914202Y-95050411D01*
X114836692Y-95301690D01*
X114836690Y-95301696D01*
X114797500Y-95561710D01*
X114797500Y-95824689D01*
X108204000Y-95824689D01*
X108204000Y-91945000D01*
X108223685Y-91877961D01*
X108276489Y-91832206D01*
X108328000Y-91821000D01*
X131064000Y-91821000D01*
X131064000Y-89405000D01*
X131083685Y-89337961D01*
X131136489Y-89292206D01*
X131188000Y-89281000D01*
X134750000Y-89281000D01*
X134817039Y-89300685D01*
G37*
%TD.AperFunction*%
%TD*%
M02*
