%TF.GenerationSoftware,KiCad,Pcbnew,7.0.7*%
%TF.CreationDate,2023-11-05T22:28:57-06:00*%
%TF.ProjectId,BrushedMOCO_Breakout,42727573-6865-4644-9d4f-434f5f427265,rev?*%
%TF.SameCoordinates,Original*%
%TF.FileFunction,Copper,L1,Top*%
%TF.FilePolarity,Positive*%
%FSLAX46Y46*%
G04 Gerber Fmt 4.6, Leading zero omitted, Abs format (unit mm)*
G04 Created by KiCad (PCBNEW 7.0.7) date 2023-11-05 22:28:57*
%MOMM*%
%LPD*%
G01*
G04 APERTURE LIST*
G04 Aperture macros list*
%AMRoundRect*
0 Rectangle with rounded corners*
0 $1 Rounding radius*
0 $2 $3 $4 $5 $6 $7 $8 $9 X,Y pos of 4 corners*
0 Add a 4 corners polygon primitive as box body*
4,1,4,$2,$3,$4,$5,$6,$7,$8,$9,$2,$3,0*
0 Add four circle primitives for the rounded corners*
1,1,$1+$1,$2,$3*
1,1,$1+$1,$4,$5*
1,1,$1+$1,$6,$7*
1,1,$1+$1,$8,$9*
0 Add four rect primitives between the rounded corners*
20,1,$1+$1,$2,$3,$4,$5,0*
20,1,$1+$1,$4,$5,$6,$7,0*
20,1,$1+$1,$6,$7,$8,$9,0*
20,1,$1+$1,$8,$9,$2,$3,0*%
G04 Aperture macros list end*
%TA.AperFunction,SMDPad,CuDef*%
%ADD10RoundRect,0.150000X0.150000X-0.825000X0.150000X0.825000X-0.150000X0.825000X-0.150000X-0.825000X0*%
%TD*%
%TA.AperFunction,ComponentPad*%
%ADD11C,1.524000*%
%TD*%
%TA.AperFunction,SMDPad,CuDef*%
%ADD12RoundRect,0.237500X0.237500X-0.250000X0.237500X0.250000X-0.237500X0.250000X-0.237500X-0.250000X0*%
%TD*%
%TA.AperFunction,SMDPad,CuDef*%
%ADD13R,1.560000X0.650000*%
%TD*%
%TA.AperFunction,ComponentPad*%
%ADD14R,1.600000X1.600000*%
%TD*%
%TA.AperFunction,ComponentPad*%
%ADD15C,1.600000*%
%TD*%
%TA.AperFunction,SMDPad,CuDef*%
%ADD16RoundRect,0.237500X0.250000X0.237500X-0.250000X0.237500X-0.250000X-0.237500X0.250000X-0.237500X0*%
%TD*%
%TA.AperFunction,SMDPad,CuDef*%
%ADD17RoundRect,0.237500X-0.237500X0.287500X-0.237500X-0.287500X0.237500X-0.287500X0.237500X0.287500X0*%
%TD*%
%TA.AperFunction,SMDPad,CuDef*%
%ADD18RoundRect,0.237500X-0.250000X-0.237500X0.250000X-0.237500X0.250000X0.237500X-0.250000X0.237500X0*%
%TD*%
%TA.AperFunction,SMDPad,CuDef*%
%ADD19RoundRect,0.150000X-0.150000X0.825000X-0.150000X-0.825000X0.150000X-0.825000X0.150000X0.825000X0*%
%TD*%
%TA.AperFunction,SMDPad,CuDef*%
%ADD20RoundRect,0.237500X0.287500X0.237500X-0.287500X0.237500X-0.287500X-0.237500X0.287500X-0.237500X0*%
%TD*%
%TA.AperFunction,SMDPad,CuDef*%
%ADD21RoundRect,0.237500X0.300000X0.237500X-0.300000X0.237500X-0.300000X-0.237500X0.300000X-0.237500X0*%
%TD*%
%TA.AperFunction,SMDPad,CuDef*%
%ADD22RoundRect,0.237500X-0.300000X-0.237500X0.300000X-0.237500X0.300000X0.237500X-0.300000X0.237500X0*%
%TD*%
%TA.AperFunction,ComponentPad*%
%ADD23O,5.100000X3.000000*%
%TD*%
%TA.AperFunction,ViaPad*%
%ADD24C,0.800000*%
%TD*%
%TA.AperFunction,Conductor*%
%ADD25C,0.254000*%
%TD*%
G04 APERTURE END LIST*
D10*
%TO.P,U3,1,VCC*%
%TO.N,+12V*%
X116205000Y-114808000D03*
%TO.P,U3,2,HIN*%
%TO.N,PWM_RVS*%
X117475000Y-114808000D03*
%TO.P,U3,3,LIN*%
%TO.N,Net-(U3-LIN)*%
X118745000Y-114808000D03*
%TO.P,U3,4,COM*%
%TO.N,GND*%
X120015000Y-114808000D03*
%TO.P,U3,5,LO*%
%TO.N,Net-(U3-LO)*%
X120015000Y-109858000D03*
%TO.P,U3,6,VS*%
%TO.N,/M-*%
X118745000Y-109858000D03*
%TO.P,U3,7,HO*%
%TO.N,Net-(U3-HO)*%
X117475000Y-109858000D03*
%TO.P,U3,8,VB*%
%TO.N,Net-(D3-K)*%
X116205000Y-109858000D03*
%TD*%
D11*
%TO.P,Conn3,1*%
%TO.N,PWM_RVS*%
X118999000Y-90678000D03*
%TO.P,Conn3,2*%
%TO.N,PWM_FWD*%
X121539000Y-90678000D03*
%TO.P,Conn3,3*%
%TO.N,+3V3*%
X124079000Y-90678000D03*
%TD*%
D12*
%TO.P,R5,1*%
%TO.N,Net-(U3-LO)*%
X106553000Y-97940500D03*
%TO.P,R5,2*%
%TO.N,Net-(Q4-G)*%
X106553000Y-96115500D03*
%TD*%
D13*
%TO.P,U1,1*%
%TO.N,PWM_FWD*%
X108538000Y-89215000D03*
%TO.P,U1,2,GND*%
%TO.N,GND*%
X108538000Y-88265000D03*
%TO.P,U1,3*%
%TO.N,PWM_RVS*%
X108538000Y-87315000D03*
%TO.P,U1,4*%
%TO.N,Net-(U3-LIN)*%
X105838000Y-87315000D03*
%TO.P,U1,5,VCC*%
%TO.N,+3V3*%
X105838000Y-88265000D03*
%TO.P,U1,6*%
%TO.N,Net-(U2-LIN)*%
X105838000Y-89215000D03*
%TD*%
D14*
%TO.P,C1,1*%
%TO.N,+12V*%
X132842000Y-90424000D03*
D15*
%TO.P,C1,2*%
%TO.N,GND*%
X132842000Y-87924000D03*
%TD*%
D16*
%TO.P,R1,1*%
%TO.N,Net-(D1-K)*%
X113665000Y-83947000D03*
%TO.P,R1,2*%
%TO.N,GND*%
X111840000Y-83947000D03*
%TD*%
D17*
%TO.P,D2,1,K*%
%TO.N,Net-(D2-K)*%
X137287000Y-106426000D03*
%TO.P,D2,2,A*%
%TO.N,+12V*%
X137287000Y-108176000D03*
%TD*%
D18*
%TO.P,R2,1*%
%TO.N,Net-(U2-HO)*%
X129286000Y-115316000D03*
%TO.P,R2,2*%
%TO.N,Net-(Q1-G)*%
X131111000Y-115316000D03*
%TD*%
D19*
%TO.P,Q2,1,S*%
%TO.N,GND*%
X133731000Y-96142000D03*
%TO.P,Q2,2,S*%
X132461000Y-96142000D03*
%TO.P,Q2,3,S*%
X131191000Y-96142000D03*
%TO.P,Q2,4,G*%
%TO.N,Net-(Q2-G)*%
X129921000Y-96142000D03*
%TO.P,Q2,5,D*%
%TO.N,/M+*%
X129921000Y-101092000D03*
%TO.P,Q2,6,D*%
X131191000Y-101092000D03*
%TO.P,Q2,7,D*%
X132461000Y-101092000D03*
%TO.P,Q2,8,D*%
X133731000Y-101092000D03*
%TD*%
D20*
%TO.P,D1,1,K*%
%TO.N,Net-(D1-K)*%
X113627500Y-81026000D03*
%TO.P,D1,2,A*%
%TO.N,PWM_FWD*%
X111877500Y-81026000D03*
%TD*%
D16*
%TO.P,R6,1*%
%TO.N,Net-(D4-K)*%
X131318000Y-83947000D03*
%TO.P,R6,2*%
%TO.N,GND*%
X129493000Y-83947000D03*
%TD*%
D21*
%TO.P,C3,1*%
%TO.N,/M+*%
X122401500Y-101092000D03*
%TO.P,C3,2*%
%TO.N,/M-*%
X120676500Y-101092000D03*
%TD*%
D16*
%TO.P,R4,1*%
%TO.N,Net-(U3-HO)*%
X113839000Y-115316000D03*
%TO.P,R4,2*%
%TO.N,Net-(Q3-G)*%
X112014000Y-115316000D03*
%TD*%
D19*
%TO.P,Q1,1,S*%
%TO.N,/M+*%
X133731000Y-106807000D03*
%TO.P,Q1,2,S*%
X132461000Y-106807000D03*
%TO.P,Q1,3,S*%
X131191000Y-106807000D03*
%TO.P,Q1,4,G*%
%TO.N,Net-(Q1-G)*%
X129921000Y-106807000D03*
%TO.P,Q1,5,D*%
%TO.N,+12V*%
X129921000Y-111757000D03*
%TO.P,Q1,6,D*%
X131191000Y-111757000D03*
%TO.P,Q1,7,D*%
X132461000Y-111757000D03*
%TO.P,Q1,8,D*%
X133731000Y-111757000D03*
%TD*%
D17*
%TO.P,D3,1,K*%
%TO.N,Net-(D3-K)*%
X105791000Y-106426000D03*
%TO.P,D3,2,A*%
%TO.N,+12V*%
X105791000Y-108176000D03*
%TD*%
D12*
%TO.P,R3,1*%
%TO.N,Net-(U2-LO)*%
X136398000Y-97940500D03*
%TO.P,R3,2*%
%TO.N,Net-(Q2-G)*%
X136398000Y-96115500D03*
%TD*%
D10*
%TO.P,U2,1,VCC*%
%TO.N,+12V*%
X123063000Y-114808000D03*
%TO.P,U2,2,HIN*%
%TO.N,PWM_FWD*%
X124333000Y-114808000D03*
%TO.P,U2,3,LIN*%
%TO.N,Net-(U2-LIN)*%
X125603000Y-114808000D03*
%TO.P,U2,4,COM*%
%TO.N,GND*%
X126873000Y-114808000D03*
%TO.P,U2,5,LO*%
%TO.N,Net-(U2-LO)*%
X126873000Y-109858000D03*
%TO.P,U2,6,VS*%
%TO.N,/M+*%
X125603000Y-109858000D03*
%TO.P,U2,7,HO*%
%TO.N,Net-(U2-HO)*%
X124333000Y-109858000D03*
%TO.P,U2,8,VB*%
%TO.N,Net-(D2-K)*%
X123063000Y-109858000D03*
%TD*%
D20*
%TO.P,D4,1,K*%
%TO.N,Net-(D4-K)*%
X131280500Y-81026000D03*
%TO.P,D4,2,A*%
%TO.N,PWM_RVS*%
X129530500Y-81026000D03*
%TD*%
D19*
%TO.P,Q4,1,S*%
%TO.N,GND*%
X113157000Y-96142000D03*
%TO.P,Q4,2,S*%
X111887000Y-96142000D03*
%TO.P,Q4,3,S*%
X110617000Y-96142000D03*
%TO.P,Q4,4,G*%
%TO.N,Net-(Q4-G)*%
X109347000Y-96142000D03*
%TO.P,Q4,5,D*%
%TO.N,/M-*%
X109347000Y-101092000D03*
%TO.P,Q4,6,D*%
X110617000Y-101092000D03*
%TO.P,Q4,7,D*%
X111887000Y-101092000D03*
%TO.P,Q4,8,D*%
X113157000Y-101092000D03*
%TD*%
D22*
%TO.P,C4,1*%
%TO.N,Net-(D3-K)*%
X105817500Y-103886000D03*
%TO.P,C4,2*%
%TO.N,/M-*%
X107542500Y-103886000D03*
%TD*%
D19*
%TO.P,Q3,1,S*%
%TO.N,/M-*%
X113157000Y-106807000D03*
%TO.P,Q3,2,S*%
X111887000Y-106807000D03*
%TO.P,Q3,3,S*%
X110617000Y-106807000D03*
%TO.P,Q3,4,G*%
%TO.N,Net-(Q3-G)*%
X109347000Y-106807000D03*
%TO.P,Q3,5,D*%
%TO.N,+12V*%
X109347000Y-111757000D03*
%TO.P,Q3,6,D*%
X110617000Y-111757000D03*
%TO.P,Q3,7,D*%
X111887000Y-111757000D03*
%TO.P,Q3,8,D*%
X113157000Y-111757000D03*
%TD*%
D21*
%TO.P,C2,1*%
%TO.N,Net-(D2-K)*%
X137287000Y-103886000D03*
%TO.P,C2,2*%
%TO.N,/M+*%
X135562000Y-103886000D03*
%TD*%
D23*
%TO.P,Conn1,1,GND*%
%TO.N,GND*%
X117602000Y-95693200D03*
%TO.P,Conn1,2,V+Log*%
%TO.N,+12V*%
X125476000Y-95693200D03*
%TD*%
%TO.P,Conn2,1,GND*%
%TO.N,/M+*%
X125476000Y-105474800D03*
%TO.P,Conn2,2,V+Log*%
%TO.N,/M-*%
X117602000Y-105474800D03*
%TD*%
D24*
%TO.N,GND*%
X127381000Y-116586000D03*
%TO.N,PWM_FWD*%
X111025500Y-88991500D03*
X124841000Y-116586000D03*
X109474000Y-90170000D03*
%TO.N,PWM_RVS*%
X116586000Y-116459000D03*
X110236000Y-90932000D03*
%TO.N,+3V3*%
X104267000Y-88265000D03*
%TO.N,+12V*%
X116205000Y-113160000D03*
X129921000Y-109982000D03*
X133731000Y-113538000D03*
X131191000Y-113538000D03*
X113157000Y-113538000D03*
X131191000Y-109982000D03*
X129921000Y-113538000D03*
X111887000Y-113538000D03*
X133731000Y-109982000D03*
X109347000Y-113538000D03*
X111887000Y-109982000D03*
X123063000Y-113160000D03*
X113157000Y-109982000D03*
X132461000Y-113538000D03*
X110617000Y-109982000D03*
X132461000Y-109982000D03*
X109347000Y-109982000D03*
X110617000Y-113538000D03*
%TO.N,Net-(U3-LIN)*%
X103886000Y-89281000D03*
X118110000Y-116516786D03*
%TO.N,Net-(U2-LIN)*%
X105791000Y-90932000D03*
X126111000Y-116586000D03*
%TD*%
D25*
%TO.N,GND*%
X126873000Y-114808000D02*
X126873000Y-116078000D01*
X129530500Y-83528500D02*
X129493000Y-83566000D01*
X126873000Y-116078000D02*
X127381000Y-116586000D01*
%TO.N,Net-(D2-K)*%
X123063000Y-109858000D02*
X122336000Y-110585000D01*
X138089000Y-109053000D02*
X138089000Y-107228000D01*
X122336000Y-115732000D02*
X123952000Y-117348000D01*
X134747000Y-114681000D02*
X135255000Y-114173000D01*
X122336000Y-110585000D02*
X122336000Y-115732000D01*
X137287000Y-106426000D02*
X137287000Y-103886000D01*
X133223000Y-114681000D02*
X134747000Y-114681000D01*
X130556000Y-117348000D02*
X133223000Y-114681000D01*
X135255000Y-111887000D02*
X138089000Y-109053000D01*
X135255000Y-114173000D02*
X135255000Y-111887000D01*
X138089000Y-107228000D02*
X137287000Y-106426000D01*
X123952000Y-117348000D02*
X130556000Y-117348000D01*
X123063000Y-109858000D02*
X123063000Y-110237580D01*
%TO.N,/M+*%
X125603000Y-109858000D02*
X125603000Y-107569000D01*
%TO.N,/M-*%
X118745000Y-109858000D02*
X118745000Y-107569000D01*
%TO.N,Net-(D3-K)*%
X108204000Y-108839000D02*
X105791000Y-106426000D01*
X105817500Y-106399500D02*
X105791000Y-106426000D01*
X105817500Y-103886000D02*
X105817500Y-106399500D01*
X114935000Y-108839000D02*
X108204000Y-108839000D01*
X116205000Y-109858000D02*
X115186000Y-108839000D01*
X115186000Y-108839000D02*
X114935000Y-108839000D01*
%TO.N,PWM_FWD*%
X111025500Y-81878000D02*
X111877500Y-81026000D01*
X124333000Y-116078000D02*
X124333000Y-114808000D01*
X124841000Y-116586000D02*
X124333000Y-116078000D01*
X108538000Y-89234000D02*
X108538000Y-89215000D01*
X109474000Y-90170000D02*
X108538000Y-89234000D01*
X111025500Y-88991500D02*
X111025500Y-81878000D01*
%TO.N,PWM_RVS*%
X110236000Y-90932000D02*
X110236000Y-88029500D01*
X117475000Y-114808000D02*
X117475000Y-115570000D01*
X127625500Y-79121000D02*
X129530500Y-81026000D01*
X117475000Y-115570000D02*
X116586000Y-116459000D01*
X109521500Y-87315000D02*
X110236000Y-88029500D01*
X111506000Y-79121000D02*
X127625500Y-79121000D01*
X110236000Y-80391000D02*
X111506000Y-79121000D01*
X109521500Y-87315000D02*
X108538000Y-87315000D01*
X110236000Y-88029500D02*
X110236000Y-80391000D01*
%TO.N,+3V3*%
X104267000Y-88265000D02*
X105838000Y-88265000D01*
%TO.N,Net-(D1-K)*%
X113627500Y-83991750D02*
X113665000Y-84029250D01*
X113627500Y-83909500D02*
X113665000Y-83947000D01*
X113627500Y-81026000D02*
X113627500Y-83909500D01*
%TO.N,Net-(U2-HO)*%
X124333000Y-112395000D02*
X124714000Y-112776000D01*
X124333000Y-109858000D02*
X124333000Y-112395000D01*
X127635000Y-114681000D02*
X128270000Y-115316000D01*
X124714000Y-112776000D02*
X126873000Y-112776000D01*
X126873000Y-112776000D02*
X127635000Y-113538000D01*
X127635000Y-113538000D02*
X127635000Y-114681000D01*
X128270000Y-115316000D02*
X129286000Y-115316000D01*
%TO.N,+12V*%
X135509000Y-109855000D02*
X134493000Y-109855000D01*
X107597000Y-109982000D02*
X108585000Y-109982000D01*
X116205000Y-114808000D02*
X116205000Y-113160000D01*
X137287000Y-108176000D02*
X135608000Y-109855000D01*
X123063000Y-114808000D02*
X123063000Y-113160000D01*
X135608000Y-109855000D02*
X135509000Y-109855000D01*
X105791000Y-108176000D02*
X107597000Y-109982000D01*
%TO.N,Net-(D4-K)*%
X131280500Y-81026000D02*
X131280500Y-83909500D01*
X131280500Y-83909500D02*
X131318000Y-83947000D01*
%TO.N,Net-(U3-LIN)*%
X103505000Y-88900000D02*
X103505000Y-87884000D01*
X118110000Y-116516786D02*
X118745000Y-115881786D01*
X103505000Y-87884000D02*
X104074000Y-87315000D01*
X104074000Y-87315000D02*
X105838000Y-87315000D01*
X103886000Y-89281000D02*
X103505000Y-88900000D01*
X118745000Y-115881786D02*
X118745000Y-114808000D01*
%TO.N,Net-(Q1-G)*%
X128524000Y-108839000D02*
X128270000Y-109093000D01*
X128270000Y-114173000D02*
X128524000Y-114427000D01*
X129286000Y-108839000D02*
X128524000Y-108839000D01*
X130222000Y-114427000D02*
X131111000Y-115316000D01*
X129921000Y-108204000D02*
X129286000Y-108839000D01*
X128524000Y-114427000D02*
X130222000Y-114427000D01*
X129921000Y-106807000D02*
X129921000Y-108204000D01*
X128270000Y-109093000D02*
X128270000Y-114173000D01*
%TO.N,Net-(Q2-G)*%
X135382000Y-98044000D02*
X135382000Y-97131500D01*
X130937000Y-99060000D02*
X134366000Y-99060000D01*
X129921000Y-96142000D02*
X129921000Y-98044000D01*
X134366000Y-99060000D02*
X135382000Y-98044000D01*
X129921000Y-98044000D02*
X130937000Y-99060000D01*
X135382000Y-97131500D02*
X136398000Y-96115500D01*
%TO.N,Net-(Q3-G)*%
X116832000Y-108835420D02*
X116832000Y-111506948D01*
X116518882Y-111820066D02*
X115874747Y-111820066D01*
X109347000Y-108077000D02*
X109655000Y-108385000D01*
X116832000Y-111506948D02*
X116518882Y-111820066D01*
X114982933Y-114252067D02*
X114721000Y-114514000D01*
X112816000Y-114514000D02*
X112014000Y-115316000D01*
X115874747Y-111820066D02*
X114982933Y-112711881D01*
X109347000Y-106807000D02*
X109347000Y-108077000D01*
X114721000Y-114514000D02*
X112816000Y-114514000D01*
X109655000Y-108385000D02*
X116381580Y-108385000D01*
X114982933Y-112711881D02*
X114982933Y-114252067D01*
X116381580Y-108385000D02*
X116832000Y-108835420D01*
%TO.N,Net-(Q4-G)*%
X109347000Y-96142000D02*
X106579500Y-96142000D01*
X106579500Y-96142000D02*
X106553000Y-96115500D01*
%TO.N,Net-(U2-LO)*%
X135709000Y-114361053D02*
X134935052Y-115135000D01*
X126873000Y-110744000D02*
X126873000Y-109858000D01*
X138543000Y-109241052D02*
X135709000Y-112075052D01*
X125347420Y-111252000D02*
X126365000Y-111252000D01*
X122682000Y-108331000D02*
X124587000Y-108331000D01*
X124968000Y-110872580D02*
X125347420Y-111252000D01*
X133411052Y-115135000D02*
X130744052Y-117802000D01*
X136398000Y-97940500D02*
X136398000Y-99187000D01*
X126365000Y-111252000D02*
X126873000Y-110744000D01*
X135709000Y-112075052D02*
X135709000Y-114361053D01*
X124587000Y-108331000D02*
X124968000Y-108712000D01*
X138543000Y-101332000D02*
X138543000Y-109241052D01*
X136398000Y-99187000D02*
X138543000Y-101332000D01*
X134935052Y-115135000D02*
X133411052Y-115135000D01*
X124968000Y-108712000D02*
X124968000Y-110872580D01*
X123763948Y-117802000D02*
X121882000Y-115920052D01*
X121882000Y-115920052D02*
X121882000Y-109131000D01*
X121882000Y-109131000D02*
X122682000Y-108331000D01*
X130744052Y-117802000D02*
X123763948Y-117802000D01*
%TO.N,Net-(U3-LO)*%
X106553000Y-101346000D02*
X104775000Y-103124000D01*
X107823000Y-110850052D02*
X107823000Y-114173000D01*
X116446866Y-117348000D02*
X118364000Y-117348000D01*
X108331000Y-114681000D02*
X110109000Y-114681000D01*
X111199500Y-115787324D02*
X111530176Y-116118000D01*
X107823000Y-114173000D02*
X108331000Y-114681000D01*
X119380000Y-110493000D02*
X120015000Y-109858000D01*
X115229000Y-116118000D02*
X115859000Y-116748000D01*
X119380000Y-116332000D02*
X119380000Y-110493000D01*
X111199500Y-115771500D02*
X111199500Y-115787324D01*
X104775000Y-103124000D02*
X104775000Y-108483324D01*
X106118974Y-109146026D02*
X107823000Y-110850052D01*
X110109000Y-114681000D02*
X111199500Y-115771500D01*
X115859000Y-116748000D02*
X115859000Y-116760134D01*
X118364000Y-117348000D02*
X119380000Y-116332000D01*
X104775000Y-108483324D02*
X105437702Y-109146026D01*
X106553000Y-97940500D02*
X106553000Y-101346000D01*
X105437702Y-109146026D02*
X106118974Y-109146026D01*
X115859000Y-116760134D02*
X116446866Y-117348000D01*
X111530176Y-116118000D02*
X115229000Y-116118000D01*
%TO.N,Net-(U2-LIN)*%
X125603000Y-116078000D02*
X126111000Y-116586000D01*
X125603000Y-114808000D02*
X125603000Y-116078000D01*
X105791000Y-89262000D02*
X105838000Y-89215000D01*
X105791000Y-90932000D02*
X105791000Y-89262000D01*
%TO.N,Net-(U3-HO)*%
X115436933Y-114687067D02*
X115436933Y-112899933D01*
X117475000Y-110368632D02*
X117475000Y-109347000D01*
X115436933Y-112899933D02*
X116062800Y-112274066D01*
X113839000Y-115316000D02*
X114808000Y-115316000D01*
X116706934Y-112274066D02*
X117475000Y-111506000D01*
X116062800Y-112274066D02*
X116706934Y-112274066D01*
X117475000Y-111506000D02*
X117475000Y-109858000D01*
X114808000Y-115316000D02*
X115436933Y-114687067D01*
%TD*%
%TA.AperFunction,Conductor*%
%TO.N,/M-*%
G36*
X121222539Y-99455183D02*
G01*
X121268294Y-99507987D01*
X121279500Y-99559498D01*
X121279500Y-107947498D01*
X121259815Y-108014537D01*
X121207011Y-108060292D01*
X121155500Y-108071498D01*
X116642482Y-108071498D01*
X116575443Y-108051813D01*
X116566319Y-108045351D01*
X116565663Y-108044840D01*
X116558650Y-108041045D01*
X116551452Y-108037526D01*
X116551450Y-108037525D01*
X116551141Y-108037433D01*
X116497993Y-108021609D01*
X116445242Y-108003499D01*
X116437359Y-108002184D01*
X116429419Y-108001194D01*
X116375747Y-108003415D01*
X116373696Y-108003500D01*
X109964042Y-108003500D01*
X109897003Y-107983815D01*
X109851248Y-107931011D01*
X109841304Y-107861853D01*
X109853557Y-107823205D01*
X109871784Y-107787433D01*
X109886498Y-107758555D01*
X109886498Y-107758553D01*
X109886499Y-107758552D01*
X109901500Y-107663839D01*
X109901500Y-105950160D01*
X109886499Y-105855447D01*
X109879839Y-105842376D01*
X109828326Y-105741277D01*
X109828322Y-105741273D01*
X109828321Y-105741271D01*
X109737728Y-105650678D01*
X109737725Y-105650676D01*
X109737723Y-105650674D01*
X109623555Y-105592502D01*
X109623554Y-105592501D01*
X109623551Y-105592500D01*
X109623552Y-105592500D01*
X109528839Y-105577500D01*
X109528834Y-105577500D01*
X109165166Y-105577500D01*
X109165161Y-105577500D01*
X109070447Y-105592500D01*
X108994333Y-105631283D01*
X108956277Y-105650674D01*
X108956276Y-105650675D01*
X108956271Y-105650678D01*
X108865678Y-105741271D01*
X108865675Y-105741276D01*
X108807500Y-105855447D01*
X108792500Y-105950160D01*
X108792500Y-107663839D01*
X108807500Y-107758552D01*
X108865675Y-107872725D01*
X108867048Y-107874614D01*
X108868005Y-107877297D01*
X108870105Y-107881418D01*
X108869572Y-107881689D01*
X108890527Y-107940421D01*
X108874701Y-108008474D01*
X108824594Y-108057169D01*
X108766729Y-108071498D01*
X108027382Y-108071498D01*
X107960343Y-108051813D01*
X107939701Y-108035179D01*
X107389531Y-107485009D01*
X106716319Y-106811796D01*
X106682834Y-106750473D01*
X106680000Y-106724115D01*
X106680000Y-101809884D01*
X106699685Y-101742845D01*
X106716313Y-101722208D01*
X106785697Y-101652824D01*
X106805542Y-101636709D01*
X106814956Y-101630560D01*
X106837155Y-101602036D01*
X106842226Y-101596296D01*
X106845114Y-101593409D01*
X106858898Y-101574101D01*
X106893158Y-101530085D01*
X106893159Y-101530081D01*
X106896946Y-101523083D01*
X106900471Y-101515873D01*
X106900475Y-101515869D01*
X106916388Y-101462417D01*
X106934500Y-101409661D01*
X106934500Y-101409657D01*
X106934501Y-101409655D01*
X106935815Y-101401780D01*
X106936805Y-101393839D01*
X106934500Y-101338116D01*
X106934500Y-99559498D01*
X106954185Y-99492459D01*
X107006989Y-99446704D01*
X107058500Y-99435498D01*
X121155500Y-99435498D01*
X121222539Y-99455183D01*
G37*
%TD.AperFunction*%
%TD*%
%TA.AperFunction,Conductor*%
%TO.N,+12V*%
G36*
X134817039Y-109239685D02*
G01*
X134862794Y-109292489D01*
X134874000Y-109344000D01*
X134874000Y-111810070D01*
X134872435Y-111828962D01*
X134872466Y-111828966D01*
X134872375Y-111829695D01*
X134872311Y-111830469D01*
X134872182Y-111831237D01*
X134871194Y-111839162D01*
X134873500Y-111894883D01*
X134873500Y-113963615D01*
X134853815Y-114030654D01*
X134837181Y-114051296D01*
X134625296Y-114263181D01*
X134563973Y-114296666D01*
X134537615Y-114299500D01*
X133275428Y-114299500D01*
X133249983Y-114296861D01*
X133238985Y-114294555D01*
X133238981Y-114294555D01*
X133203134Y-114299023D01*
X133195458Y-114299500D01*
X133191388Y-114299500D01*
X133187909Y-114299788D01*
X133182788Y-114300000D01*
X130685885Y-114300000D01*
X130618846Y-114280315D01*
X130598204Y-114263681D01*
X130528833Y-114194310D01*
X130512705Y-114174450D01*
X130506560Y-114165044D01*
X130478049Y-114142853D01*
X130472287Y-114137764D01*
X130469409Y-114134886D01*
X130450099Y-114121099D01*
X130428092Y-114103970D01*
X130406086Y-114086842D01*
X130399070Y-114083045D01*
X130391872Y-114079526D01*
X130391870Y-114079525D01*
X130391867Y-114079524D01*
X130338413Y-114063609D01*
X130285662Y-114045499D01*
X130277779Y-114044184D01*
X130269839Y-114043194D01*
X130216167Y-114045415D01*
X130214116Y-114045500D01*
X128775500Y-114045500D01*
X128708461Y-114025815D01*
X128662706Y-113973011D01*
X128651500Y-113921500D01*
X128651500Y-109344500D01*
X128671185Y-109277461D01*
X128723989Y-109231706D01*
X128775500Y-109220500D01*
X129233573Y-109220500D01*
X129259018Y-109223139D01*
X129262961Y-109223965D01*
X129270017Y-109225445D01*
X129288576Y-109223131D01*
X129305866Y-109220977D01*
X129313542Y-109220500D01*
X129317612Y-109220500D01*
X129321091Y-109220212D01*
X129326212Y-109220000D01*
X134750000Y-109220000D01*
X134817039Y-109239685D01*
G37*
%TD.AperFunction*%
%TD*%
%TA.AperFunction,Conductor*%
%TO.N,/M+*%
G36*
X130863146Y-99440167D02*
G01*
X130863206Y-99439809D01*
X130881219Y-99442815D01*
X130889158Y-99443804D01*
X130889159Y-99443805D01*
X130889159Y-99443804D01*
X130889160Y-99443805D01*
X130933352Y-99441977D01*
X130944884Y-99441500D01*
X134313573Y-99441500D01*
X134339018Y-99444139D01*
X134342961Y-99444965D01*
X134350017Y-99446445D01*
X134368576Y-99444131D01*
X134385866Y-99441977D01*
X134393542Y-99441500D01*
X134397608Y-99441500D01*
X134397611Y-99441500D01*
X134421004Y-99437596D01*
X134434014Y-99435975D01*
X134441691Y-99435498D01*
X136055613Y-99435498D01*
X136122652Y-99455183D01*
X136143294Y-99471817D01*
X136361681Y-99690203D01*
X136395166Y-99751526D01*
X136398000Y-99777884D01*
X136398000Y-107947498D01*
X136378315Y-108014537D01*
X136325511Y-108060292D01*
X136274000Y-108071498D01*
X130501271Y-108071498D01*
X130434232Y-108051813D01*
X130388477Y-107999009D01*
X130378533Y-107929851D01*
X130398139Y-107881542D01*
X130397895Y-107881418D01*
X130399347Y-107878567D01*
X130400952Y-107874614D01*
X130402324Y-107872725D01*
X130402323Y-107872724D01*
X130402326Y-107872723D01*
X130460498Y-107758555D01*
X130460498Y-107758553D01*
X130460499Y-107758552D01*
X130475500Y-107663839D01*
X130475500Y-105950160D01*
X130460499Y-105855447D01*
X130425636Y-105787026D01*
X130402326Y-105741277D01*
X130402322Y-105741273D01*
X130402321Y-105741271D01*
X130311728Y-105650678D01*
X130311725Y-105650676D01*
X130311723Y-105650674D01*
X130197555Y-105592502D01*
X130197554Y-105592501D01*
X130197551Y-105592500D01*
X130197552Y-105592500D01*
X130102839Y-105577500D01*
X130102834Y-105577500D01*
X129739166Y-105577500D01*
X129739161Y-105577500D01*
X129644447Y-105592500D01*
X129568333Y-105631283D01*
X129530277Y-105650674D01*
X129530275Y-105650674D01*
X129530276Y-105650675D01*
X129530271Y-105650678D01*
X129439678Y-105741271D01*
X129439675Y-105741276D01*
X129381500Y-105855447D01*
X129366500Y-105950160D01*
X129366500Y-107663839D01*
X129381500Y-107758552D01*
X129439675Y-107872725D01*
X129441048Y-107874614D01*
X129442005Y-107877297D01*
X129444105Y-107881418D01*
X129443572Y-107881689D01*
X129464527Y-107940421D01*
X129448701Y-108008474D01*
X129398594Y-108057169D01*
X129340729Y-108071498D01*
X124918370Y-108071498D01*
X124851331Y-108051813D01*
X124838239Y-108042129D01*
X124834414Y-108038890D01*
X124834410Y-108038887D01*
X124834409Y-108038886D01*
X124815099Y-108025099D01*
X124793092Y-108007970D01*
X124771086Y-107990842D01*
X124764070Y-107987045D01*
X124756872Y-107983526D01*
X124756870Y-107983525D01*
X124756867Y-107983524D01*
X124703413Y-107967609D01*
X124650662Y-107949499D01*
X124642779Y-107948184D01*
X124634839Y-107947194D01*
X124581167Y-107949415D01*
X124579116Y-107949500D01*
X122734428Y-107949500D01*
X122708983Y-107946861D01*
X122697985Y-107944555D01*
X122697981Y-107944555D01*
X122662134Y-107949023D01*
X122654458Y-107949500D01*
X122650388Y-107949500D01*
X122626993Y-107953404D01*
X122571636Y-107960304D01*
X122563987Y-107962581D01*
X122556413Y-107965181D01*
X122507359Y-107991728D01*
X122457252Y-108016225D01*
X122450742Y-108020872D01*
X122444438Y-108025779D01*
X122439189Y-108031482D01*
X122379302Y-108067472D01*
X122347960Y-108071498D01*
X121663000Y-108071498D01*
X121595961Y-108051813D01*
X121550206Y-107999009D01*
X121539000Y-107947498D01*
X121539000Y-99559498D01*
X121558685Y-99492459D01*
X121611489Y-99446704D01*
X121663000Y-99435498D01*
X130835165Y-99435498D01*
X130863146Y-99440167D01*
G37*
%TD.AperFunction*%
%TD*%
%TA.AperFunction,Conductor*%
%TO.N,+12V*%
G36*
X114497039Y-109240185D02*
G01*
X114542794Y-109292989D01*
X114554000Y-109344500D01*
X114554000Y-114008500D01*
X114534315Y-114075539D01*
X114481511Y-114121294D01*
X114430000Y-114132500D01*
X112868427Y-114132500D01*
X112842982Y-114129861D01*
X112831984Y-114127555D01*
X112831980Y-114127555D01*
X112796134Y-114132023D01*
X112788458Y-114132500D01*
X112784389Y-114132500D01*
X112778797Y-114133433D01*
X112760993Y-114136403D01*
X112705644Y-114143302D01*
X112697966Y-114145588D01*
X112690413Y-114148181D01*
X112641359Y-114174728D01*
X112591252Y-114199225D01*
X112584742Y-114203872D01*
X112578435Y-114208781D01*
X112540658Y-114249819D01*
X112526796Y-114263681D01*
X112465473Y-114297166D01*
X112439115Y-114300000D01*
X110185935Y-114300000D01*
X110167041Y-114298433D01*
X110167038Y-114298466D01*
X110166261Y-114298369D01*
X110165523Y-114298308D01*
X110164792Y-114298186D01*
X110156839Y-114297194D01*
X110103167Y-114299415D01*
X110101116Y-114299500D01*
X108540384Y-114299500D01*
X108473345Y-114279815D01*
X108452703Y-114263181D01*
X108240819Y-114051296D01*
X108207334Y-113989973D01*
X108204500Y-113963615D01*
X108204500Y-110902480D01*
X108207139Y-110877035D01*
X108207810Y-110873832D01*
X108209445Y-110866036D01*
X108207353Y-110849253D01*
X108204977Y-110830186D01*
X108204500Y-110822510D01*
X108204500Y-110818438D01*
X108204212Y-110814959D01*
X108204000Y-110809838D01*
X108204000Y-109344500D01*
X108223685Y-109277461D01*
X108276489Y-109231706D01*
X108328000Y-109220500D01*
X114430000Y-109220500D01*
X114497039Y-109240185D01*
G37*
%TD.AperFunction*%
%TD*%
%TA.AperFunction,Conductor*%
%TO.N,GND*%
G36*
X123769446Y-110793906D02*
G01*
X123808483Y-110838956D01*
X123851674Y-110923723D01*
X123851676Y-110923725D01*
X123851678Y-110923728D01*
X123915181Y-110987231D01*
X123948666Y-111048554D01*
X123951500Y-111074912D01*
X123951500Y-112342572D01*
X123948861Y-112368020D01*
X123946554Y-112379017D01*
X123951023Y-112414865D01*
X123951500Y-112422541D01*
X123951500Y-112426611D01*
X123953040Y-112435842D01*
X123955403Y-112450005D01*
X123962304Y-112505361D01*
X123964580Y-112513009D01*
X123967181Y-112520585D01*
X123993729Y-112569641D01*
X124018224Y-112619747D01*
X124022869Y-112626253D01*
X124027781Y-112632564D01*
X124068819Y-112670341D01*
X124407162Y-113008684D01*
X124423289Y-113028543D01*
X124429436Y-113037952D01*
X124429438Y-113037954D01*
X124429439Y-113037955D01*
X124429440Y-113037956D01*
X124457956Y-113060150D01*
X124463708Y-113065230D01*
X124466591Y-113068113D01*
X124485889Y-113081891D01*
X124529915Y-113116158D01*
X124529917Y-113116158D01*
X124536939Y-113119959D01*
X124544125Y-113123471D01*
X124544130Y-113123475D01*
X124597589Y-113139390D01*
X124650339Y-113157500D01*
X124650340Y-113157500D01*
X124658222Y-113158815D01*
X124666157Y-113159804D01*
X124666158Y-113159805D01*
X124666158Y-113159804D01*
X124666159Y-113159805D01*
X124694020Y-113158652D01*
X124721884Y-113157500D01*
X126663616Y-113157500D01*
X126730655Y-113177185D01*
X126751297Y-113193819D01*
X127217181Y-113659703D01*
X127250666Y-113721026D01*
X127253500Y-113747384D01*
X127253500Y-114628572D01*
X127250861Y-114654020D01*
X127248554Y-114665017D01*
X127253023Y-114700865D01*
X127253500Y-114708541D01*
X127253500Y-114712616D01*
X127257402Y-114735994D01*
X127264304Y-114791363D01*
X127266578Y-114799003D01*
X127269181Y-114806585D01*
X127295729Y-114855641D01*
X127320224Y-114905747D01*
X127324869Y-114912253D01*
X127329781Y-114918563D01*
X127370818Y-114956340D01*
X127963165Y-115548688D01*
X127979293Y-115568548D01*
X127985438Y-115577954D01*
X127985439Y-115577955D01*
X127985440Y-115577956D01*
X127988299Y-115580181D01*
X128013944Y-115600141D01*
X128019701Y-115605224D01*
X128022591Y-115608114D01*
X128041898Y-115621898D01*
X128085915Y-115656158D01*
X128085921Y-115656160D01*
X128092950Y-115659964D01*
X128100128Y-115663473D01*
X128100131Y-115663475D01*
X128153582Y-115679388D01*
X128206339Y-115697500D01*
X128206342Y-115697500D01*
X128214220Y-115698815D01*
X128222157Y-115699804D01*
X128222159Y-115699805D01*
X128222160Y-115699804D01*
X128222161Y-115699805D01*
X128277895Y-115697500D01*
X128478507Y-115697500D01*
X128545546Y-115717185D01*
X128591301Y-115769989D01*
X128594688Y-115778165D01*
X128599742Y-115791716D01*
X128599743Y-115791717D01*
X128684525Y-115904973D01*
X128684526Y-115904974D01*
X128797785Y-115989758D01*
X128917602Y-116034448D01*
X128928286Y-116038433D01*
X128930343Y-116039200D01*
X128988943Y-116045500D01*
X129583056Y-116045499D01*
X129641657Y-116039200D01*
X129774215Y-115989758D01*
X129887474Y-115904974D01*
X129972258Y-115791715D01*
X130019890Y-115664011D01*
X130021699Y-115659160D01*
X130021699Y-115659159D01*
X130021700Y-115659157D01*
X130027188Y-115608114D01*
X130027999Y-115600573D01*
X130027999Y-115600562D01*
X130028000Y-115600557D01*
X130027999Y-115071882D01*
X130047683Y-115004844D01*
X130100487Y-114959089D01*
X130169646Y-114949145D01*
X130233202Y-114978170D01*
X130239680Y-114984202D01*
X130332681Y-115077203D01*
X130366166Y-115138526D01*
X130369000Y-115164884D01*
X130369000Y-115600553D01*
X130369001Y-115600562D01*
X130375300Y-115659159D01*
X130424739Y-115791709D01*
X130424741Y-115791713D01*
X130424742Y-115791715D01*
X130509526Y-115904974D01*
X130622785Y-115989758D01*
X130742602Y-116034448D01*
X130753286Y-116038433D01*
X130755343Y-116039200D01*
X130813943Y-116045500D01*
X131019615Y-116045499D01*
X131086653Y-116065183D01*
X131132408Y-116117987D01*
X131142352Y-116187145D01*
X131113327Y-116250701D01*
X131107295Y-116257180D01*
X130434296Y-116930181D01*
X130372973Y-116963666D01*
X130346615Y-116966500D01*
X126846328Y-116966500D01*
X126779289Y-116946815D01*
X126733534Y-116894011D01*
X126723590Y-116824853D01*
X126730386Y-116798528D01*
X126740424Y-116772062D01*
X126751149Y-116743782D01*
X126770307Y-116586000D01*
X126751149Y-116428218D01*
X126694787Y-116279605D01*
X126604498Y-116148799D01*
X126604495Y-116148796D01*
X126604493Y-116148794D01*
X126485530Y-116043401D01*
X126344791Y-115969536D01*
X126221792Y-115939220D01*
X126161411Y-115904064D01*
X126129623Y-115841844D01*
X126136519Y-115772316D01*
X126140974Y-115762544D01*
X126142498Y-115759555D01*
X126143281Y-115754610D01*
X126157500Y-115664839D01*
X126157500Y-113951160D01*
X126142499Y-113856447D01*
X126142498Y-113856445D01*
X126084326Y-113742277D01*
X126084322Y-113742273D01*
X126084321Y-113742271D01*
X125993728Y-113651678D01*
X125993725Y-113651676D01*
X125993723Y-113651674D01*
X125879555Y-113593502D01*
X125879554Y-113593501D01*
X125879551Y-113593500D01*
X125879552Y-113593500D01*
X125784839Y-113578500D01*
X125784834Y-113578500D01*
X125421166Y-113578500D01*
X125421161Y-113578500D01*
X125326447Y-113593500D01*
X125250333Y-113632283D01*
X125212277Y-113651674D01*
X125212276Y-113651674D01*
X125212276Y-113651675D01*
X125212271Y-113651678D01*
X125121678Y-113742271D01*
X125121673Y-113742278D01*
X125078484Y-113827041D01*
X125030510Y-113877836D01*
X124962689Y-113894631D01*
X124896554Y-113872093D01*
X124857516Y-113827041D01*
X124816928Y-113747384D01*
X124814326Y-113742277D01*
X124814323Y-113742274D01*
X124814321Y-113742271D01*
X124723728Y-113651678D01*
X124723725Y-113651676D01*
X124723723Y-113651674D01*
X124609555Y-113593502D01*
X124609554Y-113593501D01*
X124609551Y-113593500D01*
X124609552Y-113593500D01*
X124514839Y-113578500D01*
X124514834Y-113578500D01*
X124151166Y-113578500D01*
X124151161Y-113578500D01*
X124056447Y-113593500D01*
X123980332Y-113632283D01*
X123942277Y-113651674D01*
X123942275Y-113651675D01*
X123942276Y-113651675D01*
X123942271Y-113651678D01*
X123851678Y-113742271D01*
X123851673Y-113742278D01*
X123808484Y-113827041D01*
X123760510Y-113877836D01*
X123692689Y-113894631D01*
X123626554Y-113872093D01*
X123587515Y-113827040D01*
X123546928Y-113747384D01*
X123544326Y-113742277D01*
X123544325Y-113742276D01*
X123540198Y-113734176D01*
X123527302Y-113665507D01*
X123552457Y-113603526D01*
X123552237Y-113603374D01*
X123552923Y-113602379D01*
X123553578Y-113600767D01*
X123556163Y-113597685D01*
X123556495Y-113597203D01*
X123556498Y-113597201D01*
X123646787Y-113466395D01*
X123703149Y-113317782D01*
X123722307Y-113160000D01*
X123703149Y-113002218D01*
X123646787Y-112853605D01*
X123556498Y-112722799D01*
X123556495Y-112722796D01*
X123556493Y-112722794D01*
X123437530Y-112617401D01*
X123296791Y-112543536D01*
X123142472Y-112505500D01*
X123142471Y-112505500D01*
X122983529Y-112505500D01*
X122983527Y-112505500D01*
X122871173Y-112533192D01*
X122801371Y-112530123D01*
X122744309Y-112489802D01*
X122718104Y-112425033D01*
X122717499Y-112412795D01*
X122717499Y-112042428D01*
X122717499Y-111206759D01*
X122737184Y-111139724D01*
X122789988Y-111093969D01*
X122859146Y-111084025D01*
X122860865Y-111084284D01*
X122869880Y-111085712D01*
X122881164Y-111087500D01*
X122881166Y-111087500D01*
X123244839Y-111087500D01*
X123339552Y-111072499D01*
X123339553Y-111072498D01*
X123339555Y-111072498D01*
X123453723Y-111014326D01*
X123544326Y-110923723D01*
X123587516Y-110838957D01*
X123635490Y-110788163D01*
X123703311Y-110771368D01*
X123769446Y-110793906D01*
G37*
%TD.AperFunction*%
%TA.AperFunction,Conductor*%
G36*
X136346238Y-77490185D02*
G01*
X136391993Y-77542989D01*
X136401937Y-77612147D01*
X136372912Y-77675703D01*
X136314134Y-77713477D01*
X136309797Y-77714666D01*
X136241272Y-77732114D01*
X135868549Y-77867774D01*
X135511191Y-78039869D01*
X135172753Y-78246684D01*
X135172742Y-78246692D01*
X134856575Y-78486180D01*
X134856572Y-78486182D01*
X134565813Y-78755968D01*
X134303365Y-79053359D01*
X134071839Y-79375393D01*
X134071826Y-79375413D01*
X133873516Y-79718896D01*
X133710382Y-80080437D01*
X133584059Y-80456419D01*
X133495799Y-80843111D01*
X133446478Y-81236681D01*
X133436590Y-81633173D01*
X133436590Y-81633187D01*
X133466230Y-82028711D01*
X133466231Y-82028724D01*
X133535108Y-82419339D01*
X133642530Y-82801137D01*
X133642534Y-82801151D01*
X133787435Y-83170353D01*
X133787440Y-83170365D01*
X133968386Y-83523314D01*
X133968397Y-83523333D01*
X133978385Y-83538797D01*
X134183586Y-83856509D01*
X134252018Y-83942320D01*
X134430895Y-84166625D01*
X134707823Y-84450544D01*
X134707833Y-84450554D01*
X135011676Y-84705508D01*
X135339394Y-84928942D01*
X135687730Y-85118636D01*
X136053223Y-85272704D01*
X136053232Y-85272706D01*
X136053238Y-85272709D01*
X136432235Y-85389614D01*
X136432248Y-85389617D01*
X136820999Y-85468205D01*
X136821014Y-85468208D01*
X137159299Y-85502058D01*
X137215680Y-85507700D01*
X137215681Y-85507700D01*
X137513103Y-85507700D01*
X137711130Y-85497816D01*
X137810145Y-85492875D01*
X138202353Y-85433759D01*
X138586726Y-85335886D01*
X138959445Y-85200228D01*
X139316803Y-85028133D01*
X139655251Y-84821312D01*
X139971424Y-84581820D01*
X140262181Y-84312037D01*
X140524631Y-84014645D01*
X140756166Y-83692600D01*
X140954485Y-83349101D01*
X141117617Y-82987563D01*
X141235957Y-82635340D01*
X141275968Y-82578061D01*
X141340594Y-82551506D01*
X141409318Y-82564107D01*
X141460321Y-82611862D01*
X141477500Y-82674833D01*
X141477500Y-118506243D01*
X141457815Y-118573282D01*
X141405011Y-118619037D01*
X141335853Y-118628981D01*
X141272297Y-118599956D01*
X141234523Y-118541178D01*
X141234135Y-118539827D01*
X141185469Y-118366862D01*
X141185465Y-118366848D01*
X141040564Y-117997646D01*
X141040559Y-117997634D01*
X140893810Y-117711389D01*
X140859609Y-117644677D01*
X140854800Y-117637232D01*
X140750286Y-117475413D01*
X140644414Y-117311491D01*
X140397114Y-117001386D01*
X140397111Y-117001383D01*
X140397104Y-117001374D01*
X140120176Y-116717455D01*
X140120173Y-116717452D01*
X140120172Y-116717451D01*
X140120167Y-116717446D01*
X139816324Y-116462492D01*
X139718296Y-116395658D01*
X139488605Y-116239057D01*
X139365228Y-116171870D01*
X139140270Y-116049364D01*
X139140262Y-116049360D01*
X139140259Y-116049359D01*
X138774777Y-115895296D01*
X138774761Y-115895290D01*
X138395764Y-115778385D01*
X138395751Y-115778382D01*
X138007000Y-115699794D01*
X138006979Y-115699791D01*
X137612320Y-115660300D01*
X137612319Y-115660300D01*
X137314899Y-115660300D01*
X137314897Y-115660300D01*
X137017855Y-115675124D01*
X136625647Y-115734241D01*
X136241272Y-115832114D01*
X135868549Y-115967774D01*
X135511191Y-116139869D01*
X135172753Y-116346684D01*
X135172742Y-116346692D01*
X134856575Y-116586180D01*
X134856572Y-116586182D01*
X134565813Y-116855968D01*
X134303365Y-117153359D01*
X134071839Y-117475393D01*
X134071826Y-117475413D01*
X133873516Y-117818896D01*
X133710382Y-118180437D01*
X133584059Y-118556419D01*
X133495799Y-118943111D01*
X133446478Y-119336681D01*
X133436590Y-119733173D01*
X133436590Y-119733187D01*
X133466230Y-120128711D01*
X133466231Y-120128724D01*
X133535108Y-120519339D01*
X133642530Y-120901137D01*
X133642534Y-120901151D01*
X133787435Y-121270353D01*
X133787440Y-121270365D01*
X133968386Y-121623314D01*
X133968391Y-121623323D01*
X134183586Y-121956509D01*
X134430886Y-122266614D01*
X134430895Y-122266625D01*
X134707823Y-122550544D01*
X134707833Y-122550554D01*
X135011676Y-122805508D01*
X135339394Y-123028942D01*
X135687730Y-123218636D01*
X136053223Y-123372704D01*
X136053232Y-123372706D01*
X136053238Y-123372709D01*
X136320048Y-123455009D01*
X136378307Y-123493579D01*
X136406464Y-123557524D01*
X136395581Y-123626541D01*
X136349113Y-123678717D01*
X136283498Y-123697500D01*
X106798801Y-123697500D01*
X106731762Y-123677815D01*
X106686007Y-123625011D01*
X106676063Y-123555853D01*
X106705088Y-123492297D01*
X106763866Y-123454523D01*
X106768203Y-123453334D01*
X106836726Y-123435886D01*
X107209445Y-123300228D01*
X107566803Y-123128133D01*
X107905251Y-122921312D01*
X108221424Y-122681820D01*
X108512181Y-122412037D01*
X108774631Y-122114645D01*
X109006166Y-121792600D01*
X109204485Y-121449101D01*
X109367617Y-121087563D01*
X109493941Y-120711578D01*
X109582201Y-120324885D01*
X109631521Y-119931325D01*
X109636462Y-119733173D01*
X109641409Y-119534826D01*
X109641409Y-119534810D01*
X109641408Y-119534809D01*
X109611769Y-119139280D01*
X109542893Y-118748668D01*
X109506420Y-118619037D01*
X109435469Y-118366862D01*
X109435465Y-118366848D01*
X109290564Y-117997646D01*
X109290559Y-117997634D01*
X109143810Y-117711389D01*
X109109609Y-117644677D01*
X109104800Y-117637232D01*
X109000286Y-117475413D01*
X108894414Y-117311491D01*
X108647114Y-117001386D01*
X108647111Y-117001383D01*
X108647104Y-117001374D01*
X108370176Y-116717455D01*
X108370173Y-116717452D01*
X108370172Y-116717451D01*
X108370167Y-116717446D01*
X108066324Y-116462492D01*
X107968296Y-116395658D01*
X107738605Y-116239057D01*
X107615228Y-116171870D01*
X107390270Y-116049364D01*
X107390262Y-116049360D01*
X107390259Y-116049359D01*
X107024777Y-115895296D01*
X107024761Y-115895290D01*
X106645764Y-115778385D01*
X106645751Y-115778382D01*
X106257000Y-115699794D01*
X106256979Y-115699791D01*
X105862320Y-115660300D01*
X105862319Y-115660300D01*
X105564899Y-115660300D01*
X105564897Y-115660300D01*
X105267855Y-115675124D01*
X104875647Y-115734241D01*
X104491272Y-115832114D01*
X104118549Y-115967774D01*
X103761191Y-116139869D01*
X103422753Y-116346684D01*
X103422742Y-116346692D01*
X103106575Y-116586180D01*
X103106572Y-116586182D01*
X102815813Y-116855968D01*
X102553365Y-117153359D01*
X102321839Y-117475393D01*
X102321826Y-117475413D01*
X102123516Y-117818896D01*
X101960382Y-118180437D01*
X101842043Y-118532658D01*
X101802032Y-118589938D01*
X101737406Y-118616493D01*
X101668682Y-118603892D01*
X101617679Y-118556137D01*
X101600500Y-118493166D01*
X101600500Y-108467341D01*
X104388554Y-108467341D01*
X104393023Y-108503189D01*
X104393500Y-108510865D01*
X104393500Y-108514935D01*
X104395050Y-108524224D01*
X104397403Y-108538329D01*
X104404304Y-108593685D01*
X104406580Y-108601333D01*
X104409181Y-108608909D01*
X104435729Y-108657965D01*
X104460224Y-108708071D01*
X104464869Y-108714577D01*
X104469781Y-108720888D01*
X104510819Y-108758665D01*
X105130864Y-109378710D01*
X105146991Y-109398569D01*
X105153138Y-109407978D01*
X105153140Y-109407980D01*
X105153141Y-109407981D01*
X105153142Y-109407982D01*
X105181658Y-109430176D01*
X105187410Y-109435256D01*
X105190293Y-109438139D01*
X105209591Y-109451917D01*
X105253617Y-109486184D01*
X105253619Y-109486184D01*
X105260641Y-109489985D01*
X105267827Y-109493497D01*
X105267832Y-109493501D01*
X105321291Y-109509416D01*
X105374041Y-109527526D01*
X105374042Y-109527526D01*
X105381924Y-109528841D01*
X105389859Y-109529830D01*
X105389860Y-109529831D01*
X105389860Y-109529830D01*
X105389861Y-109529831D01*
X105417723Y-109528678D01*
X105445586Y-109527526D01*
X105909590Y-109527526D01*
X105976629Y-109547211D01*
X105997271Y-109563845D01*
X107405181Y-110971755D01*
X107438666Y-111033078D01*
X107441500Y-111059436D01*
X107441500Y-114120572D01*
X107438861Y-114146020D01*
X107436554Y-114157017D01*
X107441023Y-114192865D01*
X107441500Y-114200541D01*
X107441500Y-114204611D01*
X107444427Y-114222155D01*
X107445403Y-114228005D01*
X107452304Y-114283361D01*
X107454580Y-114291009D01*
X107457181Y-114298585D01*
X107483729Y-114347641D01*
X107508224Y-114397747D01*
X107512869Y-114404253D01*
X107517781Y-114410564D01*
X107558819Y-114448341D01*
X108024162Y-114913684D01*
X108040289Y-114933543D01*
X108046436Y-114942952D01*
X108046438Y-114942954D01*
X108046439Y-114942955D01*
X108046440Y-114942956D01*
X108074956Y-114965150D01*
X108080708Y-114970230D01*
X108083591Y-114973113D01*
X108102889Y-114986891D01*
X108146915Y-115021158D01*
X108146917Y-115021158D01*
X108153939Y-115024959D01*
X108161127Y-115028473D01*
X108161130Y-115028475D01*
X108161132Y-115028475D01*
X108161133Y-115028476D01*
X108214578Y-115044386D01*
X108214579Y-115044387D01*
X108267339Y-115062500D01*
X108267344Y-115062500D01*
X108275197Y-115063811D01*
X108283155Y-115064803D01*
X108283158Y-115064804D01*
X108283160Y-115064803D01*
X108283161Y-115064804D01*
X108338870Y-115062500D01*
X109899616Y-115062500D01*
X109966655Y-115082185D01*
X109987296Y-115098818D01*
X110423379Y-115534902D01*
X110854957Y-115966480D01*
X110878675Y-115999697D01*
X110884724Y-116012070D01*
X110889382Y-116018594D01*
X110894281Y-116024888D01*
X110935319Y-116062665D01*
X111223338Y-116350684D01*
X111239465Y-116370543D01*
X111245612Y-116379952D01*
X111245614Y-116379954D01*
X111245615Y-116379955D01*
X111245616Y-116379956D01*
X111274132Y-116402150D01*
X111279884Y-116407230D01*
X111282767Y-116410113D01*
X111302065Y-116423891D01*
X111346091Y-116458158D01*
X111346093Y-116458158D01*
X111353115Y-116461959D01*
X111360303Y-116465473D01*
X111360306Y-116465475D01*
X111413755Y-116481387D01*
X111466515Y-116499500D01*
X111466520Y-116499500D01*
X111474373Y-116500811D01*
X111482331Y-116501803D01*
X111482334Y-116501804D01*
X111482336Y-116501803D01*
X111482337Y-116501804D01*
X111538046Y-116499500D01*
X115019616Y-116499500D01*
X115086655Y-116519185D01*
X115107297Y-116535819D01*
X115517987Y-116946510D01*
X115541705Y-116979727D01*
X115544225Y-116984882D01*
X115548873Y-116991392D01*
X115553781Y-116997697D01*
X115594818Y-117035474D01*
X116140031Y-117580688D01*
X116156159Y-117600548D01*
X116162304Y-117609954D01*
X116162305Y-117609955D01*
X116162306Y-117609956D01*
X116190810Y-117632141D01*
X116196567Y-117637224D01*
X116199457Y-117640114D01*
X116218766Y-117653900D01*
X116262781Y-117688158D01*
X116262788Y-117688160D01*
X116269818Y-117691965D01*
X116276991Y-117695471D01*
X116276996Y-117695475D01*
X116312633Y-117706084D01*
X116330451Y-117711389D01*
X116356828Y-117720444D01*
X116383205Y-117729500D01*
X116383206Y-117729500D01*
X116391085Y-117730815D01*
X116399024Y-117731804D01*
X116399025Y-117731805D01*
X116399025Y-117731804D01*
X116399026Y-117731805D01*
X116443218Y-117729977D01*
X116454750Y-117729500D01*
X118311573Y-117729500D01*
X118337018Y-117732139D01*
X118340961Y-117732965D01*
X118348017Y-117734445D01*
X118366576Y-117732131D01*
X118383866Y-117729977D01*
X118391542Y-117729500D01*
X118395608Y-117729500D01*
X118395611Y-117729500D01*
X118419004Y-117725596D01*
X118474360Y-117718696D01*
X118482013Y-117716416D01*
X118489582Y-117713818D01*
X118489586Y-117713818D01*
X118538641Y-117687270D01*
X118588746Y-117662776D01*
X118588747Y-117662774D01*
X118595263Y-117658122D01*
X118601558Y-117653223D01*
X118601559Y-117653221D01*
X118601562Y-117653220D01*
X118639341Y-117612180D01*
X119612693Y-116638828D01*
X119632542Y-116622709D01*
X119641956Y-116616560D01*
X119664155Y-116588036D01*
X119669226Y-116582296D01*
X119672114Y-116579409D01*
X119685900Y-116560099D01*
X119720158Y-116516085D01*
X119720159Y-116516079D01*
X119723957Y-116509064D01*
X119727468Y-116501878D01*
X119727475Y-116501870D01*
X119737257Y-116469009D01*
X119743390Y-116448413D01*
X119758461Y-116404512D01*
X119761500Y-116395661D01*
X119761500Y-116395658D01*
X119762815Y-116387780D01*
X119763805Y-116379839D01*
X119761500Y-116324116D01*
X119761500Y-111211500D01*
X119781185Y-111144461D01*
X119833989Y-111098706D01*
X119885500Y-111087500D01*
X120196839Y-111087500D01*
X120291552Y-111072499D01*
X120291553Y-111072498D01*
X120291555Y-111072498D01*
X120405723Y-111014326D01*
X120496326Y-110923723D01*
X120554498Y-110809555D01*
X120554498Y-110809553D01*
X120554499Y-110809552D01*
X120569500Y-110714839D01*
X120569500Y-109001160D01*
X120554499Y-108906447D01*
X120541378Y-108880696D01*
X120496326Y-108792277D01*
X120496322Y-108792273D01*
X120496321Y-108792271D01*
X120405728Y-108701678D01*
X120405725Y-108701676D01*
X120405723Y-108701674D01*
X120291555Y-108643502D01*
X120291554Y-108643501D01*
X120291551Y-108643500D01*
X120291552Y-108643500D01*
X120196839Y-108628500D01*
X120196834Y-108628500D01*
X119833166Y-108628500D01*
X119833161Y-108628500D01*
X119738447Y-108643500D01*
X119662332Y-108682283D01*
X119624277Y-108701674D01*
X119624276Y-108701675D01*
X119624271Y-108701678D01*
X119533678Y-108792271D01*
X119533673Y-108792278D01*
X119490484Y-108877041D01*
X119442510Y-108927836D01*
X119374689Y-108944631D01*
X119308554Y-108922093D01*
X119269516Y-108877041D01*
X119252016Y-108842696D01*
X119226326Y-108792277D01*
X119226323Y-108792274D01*
X119226321Y-108792271D01*
X119162819Y-108728769D01*
X119129334Y-108667446D01*
X119126500Y-108641088D01*
X119126500Y-108454998D01*
X119146185Y-108387959D01*
X119198989Y-108342204D01*
X119250500Y-108330998D01*
X121155491Y-108330998D01*
X121155500Y-108330998D01*
X121210663Y-108325067D01*
X121258952Y-108314562D01*
X121262184Y-108313859D01*
X121262183Y-108313859D01*
X121273772Y-108310679D01*
X121288961Y-108306512D01*
X121347334Y-108273271D01*
X121415331Y-108257204D01*
X121466168Y-108271150D01*
X121518087Y-108298310D01*
X121522851Y-108300802D01*
X121522850Y-108300802D01*
X121556489Y-108310679D01*
X121589888Y-108320486D01*
X121589892Y-108320486D01*
X121589894Y-108320487D01*
X121601707Y-108322185D01*
X121663000Y-108330998D01*
X121843117Y-108330998D01*
X121910156Y-108350683D01*
X121955911Y-108403487D01*
X121965855Y-108472645D01*
X121936830Y-108536201D01*
X121930809Y-108542667D01*
X121718179Y-108755297D01*
X121649309Y-108824167D01*
X121629454Y-108840291D01*
X121620045Y-108846438D01*
X121620041Y-108846442D01*
X121597856Y-108874944D01*
X121592778Y-108880696D01*
X121589898Y-108883577D01*
X121589884Y-108883593D01*
X121576098Y-108902901D01*
X121541843Y-108946912D01*
X121538035Y-108953947D01*
X121534524Y-108961131D01*
X121518609Y-109014586D01*
X121500499Y-109067340D01*
X121499185Y-109075214D01*
X121498194Y-109083162D01*
X121500500Y-109138883D01*
X121500500Y-115867624D01*
X121497861Y-115893072D01*
X121495554Y-115904069D01*
X121500023Y-115939917D01*
X121500500Y-115947593D01*
X121500500Y-115951663D01*
X121502613Y-115964326D01*
X121504403Y-115975057D01*
X121511304Y-116030413D01*
X121513580Y-116038061D01*
X121516181Y-116045637D01*
X121542729Y-116094693D01*
X121567224Y-116144799D01*
X121571869Y-116151305D01*
X121576782Y-116157616D01*
X121617819Y-116195394D01*
X123457110Y-118034684D01*
X123473237Y-118054543D01*
X123479384Y-118063952D01*
X123479386Y-118063954D01*
X123479387Y-118063955D01*
X123479388Y-118063956D01*
X123507904Y-118086150D01*
X123513656Y-118091230D01*
X123516539Y-118094113D01*
X123535837Y-118107891D01*
X123579863Y-118142158D01*
X123579865Y-118142158D01*
X123586887Y-118145959D01*
X123594073Y-118149471D01*
X123594078Y-118149475D01*
X123647537Y-118165390D01*
X123700287Y-118183500D01*
X123700288Y-118183500D01*
X123708170Y-118184815D01*
X123716105Y-118185804D01*
X123716106Y-118185805D01*
X123716106Y-118185804D01*
X123716107Y-118185805D01*
X123743968Y-118184652D01*
X123771832Y-118183500D01*
X130691625Y-118183500D01*
X130717070Y-118186139D01*
X130721013Y-118186965D01*
X130728069Y-118188445D01*
X130746628Y-118186131D01*
X130763918Y-118183977D01*
X130771594Y-118183500D01*
X130775660Y-118183500D01*
X130775663Y-118183500D01*
X130799056Y-118179596D01*
X130854412Y-118172696D01*
X130862065Y-118170416D01*
X130869634Y-118167818D01*
X130869638Y-118167818D01*
X130918693Y-118141270D01*
X130968798Y-118116776D01*
X130968799Y-118116774D01*
X130975315Y-118112122D01*
X130981610Y-118107223D01*
X130981611Y-118107221D01*
X130981614Y-118107220D01*
X131019393Y-118066180D01*
X132898429Y-116187145D01*
X133532756Y-115552819D01*
X133594079Y-115519334D01*
X133620437Y-115516500D01*
X134882624Y-115516500D01*
X134908069Y-115519139D01*
X134912012Y-115519965D01*
X134919068Y-115521445D01*
X134937568Y-115519139D01*
X134954918Y-115516977D01*
X134962594Y-115516500D01*
X134966662Y-115516500D01*
X134966663Y-115516500D01*
X134966669Y-115516499D01*
X134990057Y-115512596D01*
X135019856Y-115508881D01*
X135045412Y-115505696D01*
X135045414Y-115505694D01*
X135053055Y-115503420D01*
X135060632Y-115500818D01*
X135060638Y-115500818D01*
X135109683Y-115474276D01*
X135159798Y-115449777D01*
X135159798Y-115449776D01*
X135159800Y-115449776D01*
X135166283Y-115445146D01*
X135172608Y-115440223D01*
X135172614Y-115440220D01*
X135210382Y-115399192D01*
X135941689Y-114667884D01*
X135961539Y-114651764D01*
X135970956Y-114645613D01*
X135993159Y-114617084D01*
X135998230Y-114611344D01*
X136001113Y-114608462D01*
X136014891Y-114589163D01*
X136049158Y-114545138D01*
X136049159Y-114545132D01*
X136052956Y-114538119D01*
X136056471Y-114530927D01*
X136056475Y-114530923D01*
X136062414Y-114510970D01*
X136072391Y-114477463D01*
X136082388Y-114448341D01*
X136090500Y-114424714D01*
X136090500Y-114424710D01*
X136091815Y-114416830D01*
X136092805Y-114408893D01*
X136090500Y-114353170D01*
X136090500Y-112284435D01*
X136110185Y-112217396D01*
X136126814Y-112196759D01*
X138775689Y-109547883D01*
X138795539Y-109531763D01*
X138804956Y-109525612D01*
X138827159Y-109497083D01*
X138832230Y-109491343D01*
X138835113Y-109488461D01*
X138848891Y-109469162D01*
X138883158Y-109425137D01*
X138883159Y-109425131D01*
X138886956Y-109418118D01*
X138890471Y-109410926D01*
X138890475Y-109410922D01*
X138897356Y-109387807D01*
X138906391Y-109357462D01*
X138915311Y-109331475D01*
X138924500Y-109304713D01*
X138924500Y-109304710D01*
X138925815Y-109296829D01*
X138926805Y-109288892D01*
X138924500Y-109233169D01*
X138924500Y-101384427D01*
X138927139Y-101358982D01*
X138927810Y-101355779D01*
X138929445Y-101347983D01*
X138927353Y-101331200D01*
X138924977Y-101312133D01*
X138924500Y-101304457D01*
X138924500Y-101300393D01*
X138924499Y-101300385D01*
X138920596Y-101276995D01*
X138920596Y-101276994D01*
X138913696Y-101221640D01*
X138913695Y-101221637D01*
X138911419Y-101213994D01*
X138908816Y-101206409D01*
X138882270Y-101157358D01*
X138872129Y-101136614D01*
X138857776Y-101107254D01*
X138857773Y-101107251D01*
X138857773Y-101107250D01*
X138853131Y-101100747D01*
X138848220Y-101094437D01*
X138807180Y-101056658D01*
X136815819Y-99065296D01*
X136782334Y-99003973D01*
X136779500Y-98977615D01*
X136779500Y-98747993D01*
X136799185Y-98680954D01*
X136851989Y-98635199D01*
X136860160Y-98631813D01*
X136873715Y-98626758D01*
X136986974Y-98541974D01*
X137071758Y-98428715D01*
X137121200Y-98296157D01*
X137124685Y-98263734D01*
X137127499Y-98237573D01*
X137127499Y-98237562D01*
X137127500Y-98237557D01*
X137127499Y-97643444D01*
X137121200Y-97584843D01*
X137071758Y-97452285D01*
X136986974Y-97339026D01*
X136896410Y-97271231D01*
X136873718Y-97254244D01*
X136873717Y-97254243D01*
X136873715Y-97254242D01*
X136821035Y-97234593D01*
X136741159Y-97204800D01*
X136682573Y-97198500D01*
X136153882Y-97198500D01*
X136086843Y-97178815D01*
X136041088Y-97126011D01*
X136031144Y-97056853D01*
X136060169Y-96993297D01*
X136066169Y-96986851D01*
X136159205Y-96893815D01*
X136220527Y-96860333D01*
X136246884Y-96857499D01*
X136682553Y-96857499D01*
X136682556Y-96857499D01*
X136741157Y-96851200D01*
X136873715Y-96801758D01*
X136986974Y-96716974D01*
X137071758Y-96603715D01*
X137121200Y-96471157D01*
X137124685Y-96438734D01*
X137127499Y-96412573D01*
X137127499Y-96412562D01*
X137127500Y-96412557D01*
X137127499Y-95818444D01*
X137121200Y-95759843D01*
X137121199Y-95759839D01*
X137071760Y-95627290D01*
X137071759Y-95627288D01*
X137071758Y-95627285D01*
X136986974Y-95514026D01*
X136873715Y-95429242D01*
X136821035Y-95409593D01*
X136741159Y-95379800D01*
X136682565Y-95373500D01*
X136113446Y-95373500D01*
X136113437Y-95373501D01*
X136054840Y-95379800D01*
X135922290Y-95429239D01*
X135922281Y-95429244D01*
X135809026Y-95514026D01*
X135724244Y-95627281D01*
X135724241Y-95627288D01*
X135674800Y-95759839D01*
X135674800Y-95759841D01*
X135668500Y-95818426D01*
X135668500Y-96254113D01*
X135648815Y-96321152D01*
X135632181Y-96341794D01*
X135149309Y-96824666D01*
X135129454Y-96840791D01*
X135120045Y-96846938D01*
X135120041Y-96846942D01*
X135097856Y-96875444D01*
X135092778Y-96881196D01*
X135089898Y-96884077D01*
X135089884Y-96884093D01*
X135076098Y-96903401D01*
X135041843Y-96947412D01*
X135038035Y-96954447D01*
X135034524Y-96961631D01*
X135018609Y-97015086D01*
X135000499Y-97067840D01*
X134999185Y-97075714D01*
X134998194Y-97083662D01*
X135000500Y-97139383D01*
X135000500Y-97834615D01*
X134980815Y-97901654D01*
X134964181Y-97922296D01*
X134244296Y-98642181D01*
X134182973Y-98675666D01*
X134156615Y-98678500D01*
X131146384Y-98678500D01*
X131079345Y-98658815D01*
X131058703Y-98642181D01*
X130707717Y-98291195D01*
X130338816Y-97922293D01*
X130305333Y-97860973D01*
X130302500Y-97834624D01*
X130302500Y-97358911D01*
X130322185Y-97291872D01*
X130338819Y-97271231D01*
X130402321Y-97207728D01*
X130402326Y-97207723D01*
X130460498Y-97093555D01*
X130460498Y-97093553D01*
X130460499Y-97093552D01*
X130475500Y-96998839D01*
X130475500Y-95285160D01*
X130460499Y-95190447D01*
X130460498Y-95190445D01*
X130402326Y-95076277D01*
X130402322Y-95076273D01*
X130402321Y-95076271D01*
X130311728Y-94985678D01*
X130311725Y-94985676D01*
X130311723Y-94985674D01*
X130197555Y-94927502D01*
X130197554Y-94927501D01*
X130197551Y-94927500D01*
X130197552Y-94927500D01*
X130102839Y-94912500D01*
X130102834Y-94912500D01*
X129739166Y-94912500D01*
X129739161Y-94912500D01*
X129644447Y-94927500D01*
X129568333Y-94966283D01*
X129530277Y-94985674D01*
X129530275Y-94985675D01*
X129530276Y-94985675D01*
X129530271Y-94985678D01*
X129439678Y-95076271D01*
X129439675Y-95076276D01*
X129381500Y-95190447D01*
X129366500Y-95285160D01*
X129366500Y-96998839D01*
X129381500Y-97093552D01*
X129381502Y-97093555D01*
X129439674Y-97207723D01*
X129439676Y-97207725D01*
X129439678Y-97207728D01*
X129503180Y-97271230D01*
X129536665Y-97332553D01*
X129539499Y-97358911D01*
X129539499Y-97991572D01*
X129536861Y-98017014D01*
X129534554Y-98028015D01*
X129539023Y-98063865D01*
X129539500Y-98071541D01*
X129539500Y-98075611D01*
X129542427Y-98093155D01*
X129543403Y-98099005D01*
X129550304Y-98154361D01*
X129552580Y-98162009D01*
X129555181Y-98169585D01*
X129581729Y-98218641D01*
X129606224Y-98268747D01*
X129610869Y-98275253D01*
X129615782Y-98281564D01*
X129656819Y-98319342D01*
X130301794Y-98964317D01*
X130335279Y-99025640D01*
X130330295Y-99095332D01*
X130288423Y-99151265D01*
X130222959Y-99175682D01*
X130214113Y-99175998D01*
X121662991Y-99175998D01*
X121607838Y-99181928D01*
X121556316Y-99193137D01*
X121556317Y-99193137D01*
X121529538Y-99200484D01*
X121471165Y-99233724D01*
X121403168Y-99249791D01*
X121352330Y-99235844D01*
X121295649Y-99206194D01*
X121295649Y-99206193D01*
X121228617Y-99186511D01*
X121228605Y-99186508D01*
X121155501Y-99175998D01*
X121155500Y-99175998D01*
X107058500Y-99175998D01*
X107058499Y-99175998D01*
X106991460Y-99156313D01*
X106945705Y-99103509D01*
X106934499Y-99051998D01*
X106934499Y-98964317D01*
X106934499Y-98747990D01*
X106954184Y-98680954D01*
X107006988Y-98635199D01*
X107015170Y-98631810D01*
X107015962Y-98631514D01*
X107028715Y-98626758D01*
X107141974Y-98541974D01*
X107226758Y-98428715D01*
X107276200Y-98296157D01*
X107279685Y-98263734D01*
X107282499Y-98237573D01*
X107282499Y-98237562D01*
X107282500Y-98237557D01*
X107282499Y-97643444D01*
X107276200Y-97584843D01*
X107226758Y-97452285D01*
X107141974Y-97339026D01*
X107051410Y-97271231D01*
X107028718Y-97254244D01*
X107028717Y-97254243D01*
X107028715Y-97254242D01*
X106976035Y-97234593D01*
X106896159Y-97204800D01*
X106837565Y-97198500D01*
X106268446Y-97198500D01*
X106268437Y-97198501D01*
X106209840Y-97204800D01*
X106077290Y-97254239D01*
X106077281Y-97254244D01*
X105964026Y-97339026D01*
X105879244Y-97452281D01*
X105879241Y-97452288D01*
X105829800Y-97584839D01*
X105829800Y-97584841D01*
X105823500Y-97643426D01*
X105823500Y-98237553D01*
X105823501Y-98237562D01*
X105829800Y-98296159D01*
X105879239Y-98428709D01*
X105879244Y-98428718D01*
X105900198Y-98456709D01*
X105964026Y-98541974D01*
X106077285Y-98626758D01*
X106090831Y-98631810D01*
X106146765Y-98673680D01*
X106171184Y-98739144D01*
X106171500Y-98747993D01*
X106171500Y-101136614D01*
X106151815Y-101203653D01*
X106135181Y-101224295D01*
X104542309Y-102817166D01*
X104522454Y-102833291D01*
X104513045Y-102839438D01*
X104513041Y-102839442D01*
X104490856Y-102867944D01*
X104485778Y-102873696D01*
X104482898Y-102876577D01*
X104482884Y-102876593D01*
X104469098Y-102895901D01*
X104434843Y-102939912D01*
X104431035Y-102946947D01*
X104427524Y-102954131D01*
X104411610Y-103007585D01*
X104393500Y-103060339D01*
X104392182Y-103068233D01*
X104391194Y-103076158D01*
X104393500Y-103131883D01*
X104393500Y-108430896D01*
X104390861Y-108456344D01*
X104388554Y-108467341D01*
X101600500Y-108467341D01*
X101600500Y-96412553D01*
X105823500Y-96412553D01*
X105823501Y-96412562D01*
X105829800Y-96471159D01*
X105879239Y-96603709D01*
X105879241Y-96603713D01*
X105879242Y-96603715D01*
X105964026Y-96716974D01*
X106077285Y-96801758D01*
X106209843Y-96851200D01*
X106268443Y-96857500D01*
X106837556Y-96857499D01*
X106896157Y-96851200D01*
X107028715Y-96801758D01*
X107141974Y-96716974D01*
X107226758Y-96603715D01*
X107226759Y-96603709D01*
X107231006Y-96595935D01*
X107232244Y-96596611D01*
X107268462Y-96548232D01*
X107333927Y-96523816D01*
X107342771Y-96523500D01*
X108668500Y-96523500D01*
X108735539Y-96543185D01*
X108781294Y-96595989D01*
X108792500Y-96647500D01*
X108792500Y-96998839D01*
X108807500Y-97093552D01*
X108807502Y-97093555D01*
X108865674Y-97207723D01*
X108865676Y-97207725D01*
X108865678Y-97207728D01*
X108956271Y-97298321D01*
X108956273Y-97298322D01*
X108956277Y-97298326D01*
X109070445Y-97356498D01*
X109070446Y-97356498D01*
X109070448Y-97356499D01*
X109070447Y-97356499D01*
X109165161Y-97371500D01*
X109165166Y-97371500D01*
X109528839Y-97371500D01*
X109623552Y-97356499D01*
X109623553Y-97356498D01*
X109623555Y-97356498D01*
X109737723Y-97298326D01*
X109828326Y-97207723D01*
X109886498Y-97093555D01*
X109886498Y-97093553D01*
X109886499Y-97093552D01*
X109901500Y-96998839D01*
X109901500Y-95824689D01*
X122671500Y-95824689D01*
X122710690Y-96084703D01*
X122710692Y-96084709D01*
X122788202Y-96335988D01*
X122902295Y-96572905D01*
X122902297Y-96572907D01*
X122902298Y-96572910D01*
X123050430Y-96790180D01*
X123229290Y-96982946D01*
X123434883Y-97146901D01*
X123662616Y-97278383D01*
X123907402Y-97374454D01*
X124163772Y-97432969D01*
X124163778Y-97432969D01*
X124163781Y-97432970D01*
X124360340Y-97447700D01*
X124360346Y-97447700D01*
X126591660Y-97447700D01*
X126788218Y-97432970D01*
X126788220Y-97432969D01*
X126788228Y-97432969D01*
X127044598Y-97374454D01*
X127289384Y-97278383D01*
X127517117Y-97146901D01*
X127722710Y-96982946D01*
X127901570Y-96790180D01*
X128049702Y-96572910D01*
X128163798Y-96335988D01*
X128241308Y-96084708D01*
X128280500Y-95824682D01*
X128280500Y-95561718D01*
X128260533Y-95429241D01*
X128241309Y-95301696D01*
X128241307Y-95301690D01*
X128236210Y-95285166D01*
X128163798Y-95050412D01*
X128049702Y-94813490D01*
X127901570Y-94596220D01*
X127722710Y-94403454D01*
X127517117Y-94239499D01*
X127289384Y-94108017D01*
X127044598Y-94011946D01*
X127044593Y-94011944D01*
X127044584Y-94011942D01*
X126826501Y-93962166D01*
X126788228Y-93953431D01*
X126788227Y-93953430D01*
X126788223Y-93953430D01*
X126788218Y-93953429D01*
X126591660Y-93938700D01*
X126591654Y-93938700D01*
X124360346Y-93938700D01*
X124360340Y-93938700D01*
X124163781Y-93953429D01*
X124163776Y-93953430D01*
X123907415Y-94011942D01*
X123907396Y-94011948D01*
X123662615Y-94108017D01*
X123434883Y-94239499D01*
X123229290Y-94403454D01*
X123229288Y-94403456D01*
X123050430Y-94596219D01*
X122902295Y-94813494D01*
X122788202Y-95050411D01*
X122710692Y-95301690D01*
X122710690Y-95301696D01*
X122671500Y-95561710D01*
X122671500Y-95824689D01*
X109901500Y-95824689D01*
X109901500Y-95285160D01*
X109886499Y-95190447D01*
X109886498Y-95190445D01*
X109828326Y-95076277D01*
X109828322Y-95076273D01*
X109828321Y-95076271D01*
X109737728Y-94985678D01*
X109737725Y-94985676D01*
X109737723Y-94985674D01*
X109623555Y-94927502D01*
X109623554Y-94927501D01*
X109623551Y-94927500D01*
X109623552Y-94927500D01*
X109528839Y-94912500D01*
X109528834Y-94912500D01*
X109165166Y-94912500D01*
X109165161Y-94912500D01*
X109070447Y-94927500D01*
X108994333Y-94966283D01*
X108956277Y-94985674D01*
X108956276Y-94985675D01*
X108956271Y-94985678D01*
X108865678Y-95076271D01*
X108865675Y-95076276D01*
X108807500Y-95190447D01*
X108792500Y-95285160D01*
X108792500Y-95636500D01*
X108772815Y-95703539D01*
X108720011Y-95749294D01*
X108668500Y-95760500D01*
X107362539Y-95760500D01*
X107295500Y-95740815D01*
X107249745Y-95688011D01*
X107246366Y-95679856D01*
X107226758Y-95627285D01*
X107141974Y-95514026D01*
X107028715Y-95429242D01*
X106976035Y-95409593D01*
X106896159Y-95379800D01*
X106837565Y-95373500D01*
X106268446Y-95373500D01*
X106268437Y-95373501D01*
X106209840Y-95379800D01*
X106077290Y-95429239D01*
X106077281Y-95429244D01*
X105964026Y-95514026D01*
X105879244Y-95627281D01*
X105879241Y-95627288D01*
X105829800Y-95759839D01*
X105829800Y-95759841D01*
X105823500Y-95818426D01*
X105823500Y-96412553D01*
X101600500Y-96412553D01*
X101600500Y-88884015D01*
X103118554Y-88884015D01*
X103123023Y-88919865D01*
X103123500Y-88927541D01*
X103123500Y-88931611D01*
X103125492Y-88943550D01*
X103127403Y-88955005D01*
X103134304Y-89010361D01*
X103136580Y-89018009D01*
X103139181Y-89025585D01*
X103165729Y-89074641D01*
X103190224Y-89124747D01*
X103194863Y-89131245D01*
X103206091Y-89145670D01*
X103203008Y-89148069D01*
X103228864Y-89191087D01*
X103231988Y-89237378D01*
X103226693Y-89280996D01*
X103226693Y-89281000D01*
X103245850Y-89438781D01*
X103302214Y-89587397D01*
X103316410Y-89607963D01*
X103392502Y-89718201D01*
X103392504Y-89718203D01*
X103392506Y-89718205D01*
X103511469Y-89823598D01*
X103511471Y-89823599D01*
X103652207Y-89897463D01*
X103729367Y-89916481D01*
X103806528Y-89935500D01*
X103806529Y-89935500D01*
X103965472Y-89935500D01*
X104016911Y-89922820D01*
X104119793Y-89897463D01*
X104260529Y-89823599D01*
X104379498Y-89718201D01*
X104469787Y-89587395D01*
X104526149Y-89438782D01*
X104545307Y-89281000D01*
X104526149Y-89123218D01*
X104484427Y-89013208D01*
X104479061Y-88943550D01*
X104512208Y-88882044D01*
X104542740Y-88859447D01*
X104621875Y-88817913D01*
X104690383Y-88804190D01*
X104755436Y-88829682D01*
X104796380Y-88886298D01*
X104803500Y-88927711D01*
X104803500Y-89565063D01*
X104818266Y-89639301D01*
X104874515Y-89723484D01*
X104890752Y-89734333D01*
X104958699Y-89779734D01*
X104958702Y-89779734D01*
X104958703Y-89779735D01*
X104983666Y-89784700D01*
X105032933Y-89794500D01*
X105285501Y-89794499D01*
X105352539Y-89814183D01*
X105398294Y-89866987D01*
X105409500Y-89918499D01*
X105409500Y-90339768D01*
X105389815Y-90406807D01*
X105367728Y-90432582D01*
X105297507Y-90494793D01*
X105297500Y-90494801D01*
X105207214Y-90625602D01*
X105150850Y-90774218D01*
X105131693Y-90931999D01*
X105131693Y-90932000D01*
X105150850Y-91089781D01*
X105207214Y-91238397D01*
X105214579Y-91249067D01*
X105297502Y-91369201D01*
X105297504Y-91369203D01*
X105297506Y-91369205D01*
X105416469Y-91474598D01*
X105416471Y-91474599D01*
X105557207Y-91548463D01*
X105634368Y-91567481D01*
X105711528Y-91586500D01*
X105711529Y-91586500D01*
X105870472Y-91586500D01*
X105921911Y-91573820D01*
X106024793Y-91548463D01*
X106165529Y-91474599D01*
X106284498Y-91369201D01*
X106374787Y-91238395D01*
X106431149Y-91089782D01*
X106450307Y-90932000D01*
X106431149Y-90774218D01*
X106374787Y-90625605D01*
X106284498Y-90494799D01*
X106214270Y-90432582D01*
X106177145Y-90373393D01*
X106172499Y-90339768D01*
X106172500Y-89918499D01*
X106192185Y-89851459D01*
X106244989Y-89805705D01*
X106296500Y-89794499D01*
X106643064Y-89794499D01*
X106643066Y-89794499D01*
X106717301Y-89779734D01*
X106801484Y-89723484D01*
X106857734Y-89639301D01*
X106872500Y-89565067D01*
X106872499Y-88864934D01*
X106857734Y-88790699D01*
X106857732Y-88790696D01*
X106856389Y-88787453D01*
X106855566Y-88779806D01*
X106855351Y-88778721D01*
X106855448Y-88778701D01*
X106848920Y-88717984D01*
X106856391Y-88692541D01*
X106857731Y-88689304D01*
X106857734Y-88689301D01*
X106857734Y-88689296D01*
X106857736Y-88689294D01*
X106872499Y-88615071D01*
X106872500Y-88615067D01*
X106872499Y-87914934D01*
X106857734Y-87840699D01*
X106857732Y-87840696D01*
X106856389Y-87837453D01*
X106855566Y-87829806D01*
X106855351Y-87828721D01*
X106855448Y-87828701D01*
X106848920Y-87767984D01*
X106856391Y-87742541D01*
X106857731Y-87739304D01*
X106857734Y-87739301D01*
X106857734Y-87739296D01*
X106857736Y-87739294D01*
X106872499Y-87665071D01*
X106872500Y-87665067D01*
X106872499Y-86964934D01*
X106857734Y-86890699D01*
X106839068Y-86862764D01*
X106801484Y-86806515D01*
X106751019Y-86772796D01*
X106717301Y-86750266D01*
X106717299Y-86750265D01*
X106717296Y-86750264D01*
X106643069Y-86735500D01*
X105032936Y-86735500D01*
X104958698Y-86750266D01*
X104874515Y-86806515D01*
X104826490Y-86878391D01*
X104772878Y-86923196D01*
X104723388Y-86933500D01*
X104126432Y-86933500D01*
X104100986Y-86930861D01*
X104089984Y-86928554D01*
X104089982Y-86928554D01*
X104054129Y-86933023D01*
X104046452Y-86933500D01*
X104042387Y-86933500D01*
X104019003Y-86937402D01*
X103963644Y-86944302D01*
X103955982Y-86946584D01*
X103948411Y-86949183D01*
X103899368Y-86975723D01*
X103849254Y-87000222D01*
X103842753Y-87004863D01*
X103836440Y-87009777D01*
X103798669Y-87050807D01*
X103272309Y-87577166D01*
X103252454Y-87593291D01*
X103243045Y-87599438D01*
X103243041Y-87599442D01*
X103220856Y-87627944D01*
X103215778Y-87633696D01*
X103212898Y-87636577D01*
X103212884Y-87636593D01*
X103199098Y-87655901D01*
X103164843Y-87699912D01*
X103161035Y-87706947D01*
X103157524Y-87714131D01*
X103141609Y-87767586D01*
X103123499Y-87820340D01*
X103122182Y-87828235D01*
X103121194Y-87836158D01*
X103123499Y-87891883D01*
X103123499Y-88847572D01*
X103120861Y-88873014D01*
X103118554Y-88884015D01*
X101600500Y-88884015D01*
X101600500Y-82661756D01*
X101620185Y-82594717D01*
X101672989Y-82548962D01*
X101742147Y-82539018D01*
X101805703Y-82568043D01*
X101843477Y-82626821D01*
X101843865Y-82628172D01*
X101892530Y-82801137D01*
X101892534Y-82801151D01*
X102037435Y-83170353D01*
X102037440Y-83170365D01*
X102218386Y-83523314D01*
X102218397Y-83523333D01*
X102228385Y-83538797D01*
X102433586Y-83856509D01*
X102502018Y-83942320D01*
X102680895Y-84166625D01*
X102957823Y-84450544D01*
X102957833Y-84450554D01*
X103261676Y-84705508D01*
X103589394Y-84928942D01*
X103937730Y-85118636D01*
X104303223Y-85272704D01*
X104303232Y-85272706D01*
X104303238Y-85272709D01*
X104682235Y-85389614D01*
X104682248Y-85389617D01*
X105070999Y-85468205D01*
X105071014Y-85468208D01*
X105409299Y-85502058D01*
X105465680Y-85507700D01*
X105465681Y-85507700D01*
X105763103Y-85507700D01*
X105961130Y-85497816D01*
X106060145Y-85492875D01*
X106452353Y-85433759D01*
X106836726Y-85335886D01*
X107209445Y-85200228D01*
X107566803Y-85028133D01*
X107905251Y-84821312D01*
X108221424Y-84581820D01*
X108512181Y-84312037D01*
X108774631Y-84014645D01*
X109006166Y-83692600D01*
X109204485Y-83349101D01*
X109367617Y-82987563D01*
X109493941Y-82611578D01*
X109582201Y-82224885D01*
X109607462Y-82023301D01*
X109635330Y-81959233D01*
X109693414Y-81920399D01*
X109763272Y-81919132D01*
X109822725Y-81955834D01*
X109852898Y-82018853D01*
X109854500Y-82038723D01*
X109854499Y-86849795D01*
X109834814Y-86916834D01*
X109782010Y-86962589D01*
X109712852Y-86972533D01*
X109695117Y-86968640D01*
X109637911Y-86951609D01*
X109626263Y-86947610D01*
X109569250Y-86907222D01*
X109563429Y-86899222D01*
X109501483Y-86806515D01*
X109473549Y-86787850D01*
X109417301Y-86750266D01*
X109417299Y-86750265D01*
X109417296Y-86750264D01*
X109343069Y-86735500D01*
X107732936Y-86735500D01*
X107658698Y-86750266D01*
X107574515Y-86806515D01*
X107518266Y-86890699D01*
X107518264Y-86890703D01*
X107503500Y-86964928D01*
X107503500Y-87665063D01*
X107518266Y-87739301D01*
X107574515Y-87823484D01*
X107600278Y-87840698D01*
X107658699Y-87879734D01*
X107658702Y-87879734D01*
X107658703Y-87879735D01*
X107677632Y-87883500D01*
X107732933Y-87894500D01*
X109343066Y-87894499D01*
X109417301Y-87879734D01*
X109417303Y-87879732D01*
X109428585Y-87875060D01*
X109429920Y-87878283D01*
X109476914Y-87863558D01*
X109544298Y-87882029D01*
X109566835Y-87899857D01*
X109818181Y-88151203D01*
X109851666Y-88212526D01*
X109854500Y-88238884D01*
X109854500Y-89431422D01*
X109834815Y-89498461D01*
X109782011Y-89544216D01*
X109712853Y-89554160D01*
X109700823Y-89551818D01*
X109666822Y-89543437D01*
X109606442Y-89508280D01*
X109574654Y-89446060D01*
X109572499Y-89423041D01*
X109572499Y-88864936D01*
X109572499Y-88864934D01*
X109557734Y-88790699D01*
X109509147Y-88717984D01*
X109501484Y-88706515D01*
X109451019Y-88672796D01*
X109417301Y-88650266D01*
X109417299Y-88650265D01*
X109417296Y-88650264D01*
X109343069Y-88635500D01*
X107732936Y-88635500D01*
X107658698Y-88650266D01*
X107574515Y-88706515D01*
X107518266Y-88790699D01*
X107518264Y-88790703D01*
X107503500Y-88864928D01*
X107503500Y-89565063D01*
X107518266Y-89639301D01*
X107574515Y-89723484D01*
X107590752Y-89734333D01*
X107658699Y-89779734D01*
X107658702Y-89779734D01*
X107658703Y-89779735D01*
X107683666Y-89784700D01*
X107732933Y-89794500D01*
X108507614Y-89794499D01*
X108574653Y-89814183D01*
X108595295Y-89830818D01*
X108691451Y-89926973D01*
X108784971Y-90020493D01*
X108818455Y-90081815D01*
X108820385Y-90123118D01*
X108814693Y-90169999D01*
X108814693Y-90170000D01*
X108833850Y-90327781D01*
X108890214Y-90476397D01*
X108966343Y-90586689D01*
X108980502Y-90607201D01*
X108980504Y-90607203D01*
X108980506Y-90607205D01*
X109099469Y-90712598D01*
X109099471Y-90712599D01*
X109240207Y-90786463D01*
X109317367Y-90805481D01*
X109394528Y-90824500D01*
X109453786Y-90824500D01*
X109520825Y-90844185D01*
X109566580Y-90896989D01*
X109576882Y-90933554D01*
X109595850Y-91089781D01*
X109652214Y-91238397D01*
X109659579Y-91249067D01*
X109742502Y-91369201D01*
X109742504Y-91369203D01*
X109742506Y-91369205D01*
X109861469Y-91474598D01*
X109861471Y-91474599D01*
X110002207Y-91548463D01*
X110079367Y-91567481D01*
X110156528Y-91586500D01*
X110156529Y-91586500D01*
X110315472Y-91586500D01*
X110366911Y-91573820D01*
X110469793Y-91548463D01*
X110610529Y-91474599D01*
X110729498Y-91369201D01*
X110819787Y-91238395D01*
X110876149Y-91089782D01*
X110895307Y-90932000D01*
X110876149Y-90774218D01*
X110839658Y-90678000D01*
X117977582Y-90678000D01*
X117997208Y-90877271D01*
X118055333Y-91068881D01*
X118149718Y-91245463D01*
X118149720Y-91245465D01*
X118149722Y-91245469D01*
X118210724Y-91319801D01*
X118276747Y-91400252D01*
X118342770Y-91454434D01*
X118431531Y-91527278D01*
X118431534Y-91527280D01*
X118431536Y-91527281D01*
X118471165Y-91548463D01*
X118608120Y-91621667D01*
X118799731Y-91679792D01*
X118999000Y-91699418D01*
X119198269Y-91679792D01*
X119389880Y-91621667D01*
X119566469Y-91527278D01*
X119721252Y-91400252D01*
X119848278Y-91245469D01*
X119942667Y-91068880D01*
X120000792Y-90877269D01*
X120020418Y-90678000D01*
X120020418Y-90677999D01*
X120517582Y-90677999D01*
X120537208Y-90877271D01*
X120595333Y-91068881D01*
X120689718Y-91245463D01*
X120689720Y-91245465D01*
X120689722Y-91245469D01*
X120750724Y-91319801D01*
X120816747Y-91400252D01*
X120882770Y-91454434D01*
X120971531Y-91527278D01*
X120971534Y-91527280D01*
X120971536Y-91527281D01*
X121011165Y-91548463D01*
X121148120Y-91621667D01*
X121339731Y-91679792D01*
X121539000Y-91699418D01*
X121738269Y-91679792D01*
X121929880Y-91621667D01*
X122106469Y-91527278D01*
X122261252Y-91400252D01*
X122388278Y-91245469D01*
X122482667Y-91068880D01*
X122540792Y-90877269D01*
X122560418Y-90678000D01*
X123057582Y-90678000D01*
X123077208Y-90877271D01*
X123135333Y-91068881D01*
X123229718Y-91245463D01*
X123229720Y-91245465D01*
X123229722Y-91245469D01*
X123290724Y-91319801D01*
X123356747Y-91400252D01*
X123422770Y-91454434D01*
X123511531Y-91527278D01*
X123511534Y-91527280D01*
X123511536Y-91527281D01*
X123551165Y-91548463D01*
X123688120Y-91621667D01*
X123879731Y-91679792D01*
X124079000Y-91699418D01*
X124278269Y-91679792D01*
X124469880Y-91621667D01*
X124646469Y-91527278D01*
X124801252Y-91400252D01*
X124925329Y-91249063D01*
X131787500Y-91249063D01*
X131802266Y-91323301D01*
X131858515Y-91407484D01*
X131892234Y-91430014D01*
X131942699Y-91463734D01*
X131942702Y-91463734D01*
X131942703Y-91463735D01*
X131967666Y-91468700D01*
X132016933Y-91478500D01*
X133667066Y-91478499D01*
X133741301Y-91463734D01*
X133825484Y-91407484D01*
X133881734Y-91323301D01*
X133896500Y-91249067D01*
X133896499Y-89598934D01*
X133881734Y-89524699D01*
X133863068Y-89496765D01*
X133825484Y-89440515D01*
X133775019Y-89406796D01*
X133741301Y-89384266D01*
X133741299Y-89384265D01*
X133741296Y-89384264D01*
X133667069Y-89369500D01*
X132016936Y-89369500D01*
X131942698Y-89384266D01*
X131858515Y-89440515D01*
X131802266Y-89524699D01*
X131802264Y-89524703D01*
X131787500Y-89598928D01*
X131787500Y-91249063D01*
X124925329Y-91249063D01*
X124928278Y-91245469D01*
X125022667Y-91068880D01*
X125080792Y-90877269D01*
X125100418Y-90678000D01*
X125080792Y-90478731D01*
X125022667Y-90287120D01*
X124960065Y-90170000D01*
X124928281Y-90110536D01*
X124928280Y-90110534D01*
X124928278Y-90110531D01*
X124854386Y-90020492D01*
X124801252Y-89955747D01*
X124674174Y-89851459D01*
X124646469Y-89828722D01*
X124646465Y-89828720D01*
X124646463Y-89828718D01*
X124469881Y-89734333D01*
X124278271Y-89676208D01*
X124079000Y-89656582D01*
X123879728Y-89676208D01*
X123688118Y-89734333D01*
X123511536Y-89828718D01*
X123356747Y-89955747D01*
X123229718Y-90110536D01*
X123135333Y-90287118D01*
X123077208Y-90478728D01*
X123057582Y-90678000D01*
X122560418Y-90678000D01*
X122540792Y-90478731D01*
X122482667Y-90287120D01*
X122420065Y-90170000D01*
X122388281Y-90110536D01*
X122388280Y-90110534D01*
X122388278Y-90110531D01*
X122314386Y-90020492D01*
X122261252Y-89955747D01*
X122134174Y-89851459D01*
X122106469Y-89828722D01*
X122106465Y-89828720D01*
X122106463Y-89828718D01*
X121929881Y-89734333D01*
X121738271Y-89676208D01*
X121539000Y-89656582D01*
X121339728Y-89676208D01*
X121148118Y-89734333D01*
X120971536Y-89828718D01*
X120816747Y-89955747D01*
X120689718Y-90110536D01*
X120595333Y-90287118D01*
X120537208Y-90478728D01*
X120517582Y-90677999D01*
X120020418Y-90677999D01*
X120000792Y-90478731D01*
X119942667Y-90287120D01*
X119880065Y-90170000D01*
X119848281Y-90110536D01*
X119848280Y-90110534D01*
X119848278Y-90110531D01*
X119774386Y-90020492D01*
X119721252Y-89955747D01*
X119594174Y-89851459D01*
X119566469Y-89828722D01*
X119566465Y-89828720D01*
X119566463Y-89828718D01*
X119389881Y-89734333D01*
X119198271Y-89676208D01*
X118999000Y-89656582D01*
X118799728Y-89676208D01*
X118608118Y-89734333D01*
X118431536Y-89828718D01*
X118276747Y-89955747D01*
X118149718Y-90110536D01*
X118055333Y-90287118D01*
X117997208Y-90478728D01*
X117977582Y-90678000D01*
X110839658Y-90678000D01*
X110819787Y-90625605D01*
X110729498Y-90494799D01*
X110729494Y-90494796D01*
X110729492Y-90494793D01*
X110659272Y-90432582D01*
X110622146Y-90373392D01*
X110617500Y-90339768D01*
X110617500Y-89721539D01*
X110637185Y-89654500D01*
X110689989Y-89608745D01*
X110759147Y-89598801D01*
X110785481Y-89605601D01*
X110791701Y-89607960D01*
X110791707Y-89607963D01*
X110870570Y-89627401D01*
X110946028Y-89646000D01*
X110946029Y-89646000D01*
X111104972Y-89646000D01*
X111180430Y-89627401D01*
X111259293Y-89607963D01*
X111400029Y-89534099D01*
X111518998Y-89428701D01*
X111609287Y-89297895D01*
X111665649Y-89149282D01*
X111684807Y-88991500D01*
X111665649Y-88833718D01*
X111609287Y-88685105D01*
X111518998Y-88554299D01*
X111448770Y-88492081D01*
X111411645Y-88432893D01*
X111407000Y-88399275D01*
X111407000Y-82087383D01*
X111426685Y-82020344D01*
X111443315Y-81999706D01*
X111651203Y-81791817D01*
X111712526Y-81758333D01*
X111738884Y-81755499D01*
X112212053Y-81755499D01*
X112212056Y-81755499D01*
X112270657Y-81749200D01*
X112403215Y-81699758D01*
X112516474Y-81614974D01*
X112601258Y-81501715D01*
X112621623Y-81447114D01*
X112636319Y-81407715D01*
X112678190Y-81351781D01*
X112743655Y-81327365D01*
X112811928Y-81342217D01*
X112861333Y-81391623D01*
X112868681Y-81407715D01*
X112903739Y-81501709D01*
X112903741Y-81501713D01*
X112903742Y-81501715D01*
X112988526Y-81614974D01*
X113101785Y-81699758D01*
X113153879Y-81719188D01*
X113165334Y-81723461D01*
X113221267Y-81765332D01*
X113245683Y-81830797D01*
X113245999Y-81839642D01*
X113245999Y-83161875D01*
X113226314Y-83228914D01*
X113181429Y-83270706D01*
X113176781Y-83273243D01*
X113063526Y-83358025D01*
X112978744Y-83471281D01*
X112978741Y-83471288D01*
X112929300Y-83603839D01*
X112929300Y-83603841D01*
X112923000Y-83662426D01*
X112923000Y-84231553D01*
X112923001Y-84231562D01*
X112929300Y-84290159D01*
X112978739Y-84422709D01*
X112978741Y-84422713D01*
X112978742Y-84422715D01*
X113063526Y-84535974D01*
X113176785Y-84620758D01*
X113309343Y-84670200D01*
X113367943Y-84676500D01*
X113962056Y-84676499D01*
X114020657Y-84670200D01*
X114153215Y-84620758D01*
X114266474Y-84535974D01*
X114351258Y-84422715D01*
X114400700Y-84290157D01*
X114404185Y-84257734D01*
X114406999Y-84231573D01*
X114406999Y-84231562D01*
X114407000Y-84231557D01*
X114406999Y-83662444D01*
X114400700Y-83603843D01*
X114351258Y-83471285D01*
X114266474Y-83358026D01*
X114153215Y-83273242D01*
X114153213Y-83273241D01*
X114153211Y-83273240D01*
X114089664Y-83249538D01*
X114033731Y-83207666D01*
X114009315Y-83142202D01*
X114009000Y-83133384D01*
X114009000Y-82042001D01*
X115748454Y-82042001D01*
X115768613Y-82323866D01*
X115827534Y-82594717D01*
X115828680Y-82599984D01*
X115851720Y-82661756D01*
X115927432Y-82864750D01*
X115927434Y-82864754D01*
X116062855Y-83112758D01*
X116062860Y-83112766D01*
X116232196Y-83338974D01*
X116232212Y-83338992D01*
X116432007Y-83538787D01*
X116432025Y-83538803D01*
X116658233Y-83708139D01*
X116658241Y-83708144D01*
X116906245Y-83843565D01*
X116906249Y-83843567D01*
X116906251Y-83843568D01*
X117171016Y-83942320D01*
X117309077Y-83972353D01*
X117447133Y-84002386D01*
X117447135Y-84002386D01*
X117447139Y-84002387D01*
X117658447Y-84017500D01*
X117799553Y-84017500D01*
X118010861Y-84002387D01*
X118286984Y-83942320D01*
X118551749Y-83843568D01*
X118799764Y-83708141D01*
X119025982Y-83538797D01*
X119225797Y-83338982D01*
X119395141Y-83112764D01*
X119530568Y-82864749D01*
X119629320Y-82599984D01*
X119689387Y-82323861D01*
X119709546Y-82042001D01*
X123368454Y-82042001D01*
X123388613Y-82323866D01*
X123447534Y-82594717D01*
X123448680Y-82599984D01*
X123471720Y-82661756D01*
X123547432Y-82864750D01*
X123547434Y-82864754D01*
X123682855Y-83112758D01*
X123682860Y-83112766D01*
X123852196Y-83338974D01*
X123852212Y-83338992D01*
X124052007Y-83538787D01*
X124052025Y-83538803D01*
X124278233Y-83708139D01*
X124278241Y-83708144D01*
X124526245Y-83843565D01*
X124526249Y-83843567D01*
X124526251Y-83843568D01*
X124791016Y-83942320D01*
X124929077Y-83972353D01*
X125067133Y-84002386D01*
X125067135Y-84002386D01*
X125067139Y-84002387D01*
X125278447Y-84017500D01*
X125419553Y-84017500D01*
X125630861Y-84002387D01*
X125906984Y-83942320D01*
X126171749Y-83843568D01*
X126419764Y-83708141D01*
X126645982Y-83538797D01*
X126845797Y-83338982D01*
X127015141Y-83112764D01*
X127150568Y-82864749D01*
X127249320Y-82599984D01*
X127309387Y-82323861D01*
X127329546Y-82042000D01*
X127329118Y-82036022D01*
X127314478Y-81831325D01*
X127309387Y-81760139D01*
X127308377Y-81755498D01*
X127270257Y-81580261D01*
X127249320Y-81484016D01*
X127150568Y-81219251D01*
X127148035Y-81214613D01*
X127015144Y-80971241D01*
X127015139Y-80971233D01*
X126845803Y-80745025D01*
X126845787Y-80745007D01*
X126645992Y-80545212D01*
X126645974Y-80545196D01*
X126419766Y-80375860D01*
X126419758Y-80375855D01*
X126171754Y-80240434D01*
X126171750Y-80240432D01*
X126071372Y-80202993D01*
X125906984Y-80141680D01*
X125906980Y-80141679D01*
X125906977Y-80141678D01*
X125630866Y-80081613D01*
X125419553Y-80066500D01*
X125278447Y-80066500D01*
X125067133Y-80081613D01*
X124791022Y-80141678D01*
X124791017Y-80141679D01*
X124791016Y-80141680D01*
X124734123Y-80162900D01*
X124526249Y-80240432D01*
X124526245Y-80240434D01*
X124278241Y-80375855D01*
X124278233Y-80375860D01*
X124052025Y-80545196D01*
X124052007Y-80545212D01*
X123852212Y-80745007D01*
X123852196Y-80745025D01*
X123682860Y-80971233D01*
X123682855Y-80971241D01*
X123547434Y-81219245D01*
X123547432Y-81219249D01*
X123448678Y-81484022D01*
X123388613Y-81760133D01*
X123368454Y-82041998D01*
X123368454Y-82042001D01*
X119709546Y-82042001D01*
X119709546Y-82042000D01*
X119709118Y-82036022D01*
X119694478Y-81831325D01*
X119689387Y-81760139D01*
X119688377Y-81755498D01*
X119650257Y-81580261D01*
X119629320Y-81484016D01*
X119530568Y-81219251D01*
X119528035Y-81214613D01*
X119395144Y-80971241D01*
X119395139Y-80971233D01*
X119225803Y-80745025D01*
X119225787Y-80745007D01*
X119025992Y-80545212D01*
X119025974Y-80545196D01*
X118799766Y-80375860D01*
X118799758Y-80375855D01*
X118551754Y-80240434D01*
X118551750Y-80240432D01*
X118451372Y-80202993D01*
X118286984Y-80141680D01*
X118286980Y-80141679D01*
X118286977Y-80141678D01*
X118010866Y-80081613D01*
X117799553Y-80066500D01*
X117658447Y-80066500D01*
X117447133Y-80081613D01*
X117171022Y-80141678D01*
X117171017Y-80141679D01*
X117171016Y-80141680D01*
X117114123Y-80162900D01*
X116906249Y-80240432D01*
X116906245Y-80240434D01*
X116658241Y-80375855D01*
X116658233Y-80375860D01*
X116432025Y-80545196D01*
X116432007Y-80545212D01*
X116232212Y-80745007D01*
X116232196Y-80745025D01*
X116062860Y-80971233D01*
X116062855Y-80971241D01*
X115927434Y-81219245D01*
X115927432Y-81219249D01*
X115828678Y-81484022D01*
X115768613Y-81760133D01*
X115748454Y-82041998D01*
X115748454Y-82042001D01*
X114009000Y-82042001D01*
X114009000Y-81839641D01*
X114028685Y-81772602D01*
X114081489Y-81726848D01*
X114089647Y-81723467D01*
X114153215Y-81699758D01*
X114266474Y-81614974D01*
X114351258Y-81501715D01*
X114400700Y-81369157D01*
X114405193Y-81327365D01*
X114406999Y-81310573D01*
X114406999Y-81310562D01*
X114407000Y-81310557D01*
X114406999Y-80741444D01*
X114400700Y-80682843D01*
X114386318Y-80644284D01*
X114351260Y-80550290D01*
X114351258Y-80550286D01*
X114351258Y-80550285D01*
X114266474Y-80437026D01*
X114153215Y-80352242D01*
X114086448Y-80327339D01*
X114020659Y-80302800D01*
X113962065Y-80296500D01*
X113292946Y-80296500D01*
X113292937Y-80296501D01*
X113234340Y-80302800D01*
X113101790Y-80352239D01*
X113101781Y-80352244D01*
X112988526Y-80437026D01*
X112903744Y-80550281D01*
X112903741Y-80550286D01*
X112868680Y-80644286D01*
X112826808Y-80700218D01*
X112761343Y-80724634D01*
X112693070Y-80709781D01*
X112643666Y-80660375D01*
X112636323Y-80644297D01*
X112601258Y-80550285D01*
X112516474Y-80437026D01*
X112403215Y-80352242D01*
X112336448Y-80327339D01*
X112270659Y-80302800D01*
X112212065Y-80296500D01*
X111542946Y-80296500D01*
X111542937Y-80296501D01*
X111484340Y-80302800D01*
X111351790Y-80352239D01*
X111351781Y-80352244D01*
X111238526Y-80437026D01*
X111153744Y-80550281D01*
X111153741Y-80550288D01*
X111104300Y-80682839D01*
X111104300Y-80682841D01*
X111098000Y-80741426D01*
X111098000Y-81214613D01*
X111078315Y-81281652D01*
X111061681Y-81302294D01*
X110829181Y-81534795D01*
X110767858Y-81568280D01*
X110698167Y-81563296D01*
X110642233Y-81521425D01*
X110617816Y-81455960D01*
X110617500Y-81447114D01*
X110617500Y-80600384D01*
X110637185Y-80533345D01*
X110653819Y-80512703D01*
X111627703Y-79538819D01*
X111689026Y-79505334D01*
X111715384Y-79502500D01*
X127416116Y-79502500D01*
X127483155Y-79522185D01*
X127503797Y-79538819D01*
X128714681Y-80749703D01*
X128748166Y-80811026D01*
X128751000Y-80837384D01*
X128751000Y-81310553D01*
X128751001Y-81310562D01*
X128757300Y-81369159D01*
X128806739Y-81501709D01*
X128806741Y-81501713D01*
X128806742Y-81501715D01*
X128891526Y-81614974D01*
X129004785Y-81699758D01*
X129137343Y-81749200D01*
X129195943Y-81755500D01*
X129865056Y-81755499D01*
X129923657Y-81749200D01*
X130056215Y-81699758D01*
X130169474Y-81614974D01*
X130254258Y-81501715D01*
X130274623Y-81447114D01*
X130289319Y-81407715D01*
X130331190Y-81351781D01*
X130396655Y-81327365D01*
X130464928Y-81342217D01*
X130514333Y-81391623D01*
X130521681Y-81407715D01*
X130556739Y-81501709D01*
X130556741Y-81501713D01*
X130556742Y-81501715D01*
X130641526Y-81614974D01*
X130754785Y-81699758D01*
X130806879Y-81719188D01*
X130818334Y-81723461D01*
X130874267Y-81765332D01*
X130898683Y-81830797D01*
X130898999Y-81839642D01*
X130898999Y-83161875D01*
X130879314Y-83228914D01*
X130834429Y-83270706D01*
X130829781Y-83273243D01*
X130716526Y-83358025D01*
X130631744Y-83471281D01*
X130631741Y-83471288D01*
X130582300Y-83603839D01*
X130582300Y-83603841D01*
X130576000Y-83662426D01*
X130576000Y-84231553D01*
X130576001Y-84231562D01*
X130582300Y-84290159D01*
X130631739Y-84422709D01*
X130631741Y-84422713D01*
X130631742Y-84422715D01*
X130716526Y-84535974D01*
X130829785Y-84620758D01*
X130962343Y-84670200D01*
X131020943Y-84676500D01*
X131615056Y-84676499D01*
X131673657Y-84670200D01*
X131806215Y-84620758D01*
X131919474Y-84535974D01*
X132004258Y-84422715D01*
X132053700Y-84290157D01*
X132057185Y-84257734D01*
X132059999Y-84231573D01*
X132059999Y-84231562D01*
X132060000Y-84231557D01*
X132059999Y-83662444D01*
X132053700Y-83603843D01*
X132004258Y-83471285D01*
X131919474Y-83358026D01*
X131806215Y-83273242D01*
X131806213Y-83273241D01*
X131806211Y-83273240D01*
X131742664Y-83249538D01*
X131686731Y-83207666D01*
X131662315Y-83142202D01*
X131661999Y-83133357D01*
X131661999Y-81839642D01*
X131681684Y-81772603D01*
X131734488Y-81726848D01*
X131742637Y-81723471D01*
X131806215Y-81699758D01*
X131919474Y-81614974D01*
X132004258Y-81501715D01*
X132053700Y-81369157D01*
X132058193Y-81327365D01*
X132059999Y-81310573D01*
X132059999Y-81310562D01*
X132060000Y-81310557D01*
X132059999Y-80741444D01*
X132053700Y-80682843D01*
X132039318Y-80644284D01*
X132004260Y-80550290D01*
X132004258Y-80550286D01*
X132004258Y-80550285D01*
X131919474Y-80437026D01*
X131806215Y-80352242D01*
X131739448Y-80327339D01*
X131673659Y-80302800D01*
X131615065Y-80296500D01*
X130945946Y-80296500D01*
X130945937Y-80296501D01*
X130887340Y-80302800D01*
X130754790Y-80352239D01*
X130754781Y-80352244D01*
X130641526Y-80437026D01*
X130556744Y-80550281D01*
X130556741Y-80550286D01*
X130521680Y-80644286D01*
X130479808Y-80700218D01*
X130414343Y-80724634D01*
X130346070Y-80709781D01*
X130296666Y-80660375D01*
X130289323Y-80644297D01*
X130254258Y-80550285D01*
X130169474Y-80437026D01*
X130056215Y-80352242D01*
X129989448Y-80327339D01*
X129923659Y-80302800D01*
X129865073Y-80296500D01*
X129865057Y-80296500D01*
X129391885Y-80296500D01*
X129324846Y-80276815D01*
X129304204Y-80260181D01*
X127932333Y-78888310D01*
X127916205Y-78868450D01*
X127910060Y-78859044D01*
X127881549Y-78836853D01*
X127875787Y-78831764D01*
X127872909Y-78828886D01*
X127853599Y-78815099D01*
X127829623Y-78796438D01*
X127809586Y-78780842D01*
X127802570Y-78777045D01*
X127795372Y-78773526D01*
X127795370Y-78773525D01*
X127795367Y-78773524D01*
X127741913Y-78757609D01*
X127689162Y-78739499D01*
X127681279Y-78738184D01*
X127673339Y-78737194D01*
X127619667Y-78739415D01*
X127617616Y-78739500D01*
X111558427Y-78739500D01*
X111532982Y-78736861D01*
X111521984Y-78734555D01*
X111521980Y-78734555D01*
X111486134Y-78739023D01*
X111478458Y-78739500D01*
X111474389Y-78739500D01*
X111466590Y-78740801D01*
X111450993Y-78743403D01*
X111395644Y-78750302D01*
X111387966Y-78752588D01*
X111380413Y-78755181D01*
X111331359Y-78781728D01*
X111281252Y-78806225D01*
X111274742Y-78810872D01*
X111268435Y-78815781D01*
X111230658Y-78856819D01*
X110003309Y-80084166D01*
X109983454Y-80100291D01*
X109974045Y-80106438D01*
X109974041Y-80106442D01*
X109951856Y-80134944D01*
X109946778Y-80140696D01*
X109943898Y-80143577D01*
X109943884Y-80143593D01*
X109930098Y-80162901D01*
X109895843Y-80206912D01*
X109892035Y-80213947D01*
X109888524Y-80221131D01*
X109872609Y-80274586D01*
X109854499Y-80327340D01*
X109853185Y-80335214D01*
X109852194Y-80343162D01*
X109854500Y-80398883D01*
X109854500Y-80998550D01*
X109834815Y-81065589D01*
X109782011Y-81111344D01*
X109712853Y-81121288D01*
X109649297Y-81092263D01*
X109611523Y-81033485D01*
X109608384Y-81020083D01*
X109599770Y-80971233D01*
X109542893Y-80648668D01*
X109513782Y-80545203D01*
X109479110Y-80421970D01*
X109435467Y-80266854D01*
X109425303Y-80240957D01*
X109290564Y-79897646D01*
X109290559Y-79897634D01*
X109109613Y-79544685D01*
X109109609Y-79544677D01*
X109105825Y-79538819D01*
X109095082Y-79522185D01*
X108894414Y-79211491D01*
X108647114Y-78901386D01*
X108647111Y-78901383D01*
X108647104Y-78901374D01*
X108370176Y-78617455D01*
X108370173Y-78617452D01*
X108370172Y-78617451D01*
X108370167Y-78617446D01*
X108066324Y-78362492D01*
X107961841Y-78291257D01*
X107738605Y-78139057D01*
X107622493Y-78075826D01*
X107390270Y-77949364D01*
X107390262Y-77949360D01*
X107390259Y-77949359D01*
X107024777Y-77795296D01*
X107024761Y-77795290D01*
X106757952Y-77712991D01*
X106699693Y-77674421D01*
X106671536Y-77610476D01*
X106682419Y-77541459D01*
X106728887Y-77489283D01*
X106794502Y-77470500D01*
X136279199Y-77470500D01*
X136346238Y-77490185D01*
G37*
%TD.AperFunction*%
%TD*%
M02*
