G04 #@! TF.GenerationSoftware,KiCad,Pcbnew,(6.0.7)*
G04 #@! TF.CreationDate,2023-03-21T11:33:27-05:00*
G04 #@! TF.ProjectId,RoveSoMoCo,526f7665-536f-44d6-9f43-6f2e6b696361,rev?*
G04 #@! TF.SameCoordinates,Original*
G04 #@! TF.FileFunction,Soldermask,Bot*
G04 #@! TF.FilePolarity,Negative*
%FSLAX46Y46*%
G04 Gerber Fmt 4.6, Leading zero omitted, Abs format (unit mm)*
G04 Created by KiCad (PCBNEW (6.0.7)) date 2023-03-21 11:33:27*
%MOMM*%
%LPD*%
G01*
G04 APERTURE LIST*
G04 Aperture macros list*
%AMRoundRect*
0 Rectangle with rounded corners*
0 $1 Rounding radius*
0 $2 $3 $4 $5 $6 $7 $8 $9 X,Y pos of 4 corners*
0 Add a 4 corners polygon primitive as box body*
4,1,4,$2,$3,$4,$5,$6,$7,$8,$9,$2,$3,0*
0 Add four circle primitives for the rounded corners*
1,1,$1+$1,$2,$3*
1,1,$1+$1,$4,$5*
1,1,$1+$1,$6,$7*
1,1,$1+$1,$8,$9*
0 Add four rect primitives between the rounded corners*
20,1,$1+$1,$2,$3,$4,$5,0*
20,1,$1+$1,$4,$5,$6,$7,0*
20,1,$1+$1,$6,$7,$8,$9,0*
20,1,$1+$1,$8,$9,$2,$3,0*%
G04 Aperture macros list end*
%ADD10C,2.946400*%
%ADD11C,1.524000*%
%ADD12R,1.600000X1.600000*%
%ADD13C,1.600000*%
%ADD14RoundRect,0.237500X0.250000X0.237500X-0.250000X0.237500X-0.250000X-0.237500X0.250000X-0.237500X0*%
%ADD15RoundRect,0.237500X0.300000X0.237500X-0.300000X0.237500X-0.300000X-0.237500X0.300000X-0.237500X0*%
%ADD16RoundRect,0.237500X0.237500X-0.300000X0.237500X0.300000X-0.237500X0.300000X-0.237500X-0.300000X0*%
%ADD17RoundRect,0.150000X0.825000X0.150000X-0.825000X0.150000X-0.825000X-0.150000X0.825000X-0.150000X0*%
%ADD18RoundRect,0.237500X0.237500X-0.287500X0.237500X0.287500X-0.237500X0.287500X-0.237500X-0.287500X0*%
%ADD19O,5.100000X3.000000*%
%ADD20RoundRect,0.150000X-0.825000X-0.150000X0.825000X-0.150000X0.825000X0.150000X-0.825000X0.150000X0*%
G04 APERTURE END LIST*
D10*
X108148120Y-47197140D03*
X80212060Y-75128120D03*
D11*
X100584000Y-51308000D03*
X100584000Y-48768000D03*
X100584000Y-46228000D03*
D12*
X98044000Y-69429621D03*
D13*
X98044000Y-71929621D03*
D10*
X80212060Y-47197140D03*
X108148120Y-75128120D03*
D12*
X90424000Y-69429621D03*
D13*
X90424000Y-71929621D03*
D14*
X110721500Y-52578000D03*
X108896500Y-52578000D03*
X79566750Y-52578000D03*
X77741750Y-52578000D03*
D15*
X110717500Y-68834000D03*
X108992500Y-68834000D03*
D16*
X79248000Y-69596000D03*
X79248000Y-67871000D03*
D14*
X106934000Y-52578000D03*
X105109000Y-52578000D03*
D17*
X86041000Y-55499000D03*
X86041000Y-56769000D03*
X86041000Y-58039000D03*
X86041000Y-59309000D03*
X81091000Y-59309000D03*
X81091000Y-58039000D03*
X81091000Y-56769000D03*
X81091000Y-55499000D03*
D14*
X83354250Y-52578000D03*
X81529250Y-52578000D03*
D18*
X110744000Y-66915000D03*
X110744000Y-65165000D03*
D19*
X98171000Y-64834800D03*
X90297000Y-64834800D03*
D20*
X102427000Y-59309000D03*
X102427000Y-58039000D03*
X102427000Y-56769000D03*
X102427000Y-55499000D03*
X107377000Y-55499000D03*
X107377000Y-56769000D03*
X107377000Y-58039000D03*
X107377000Y-59309000D03*
D18*
X77216000Y-68185000D03*
X77216000Y-66435000D03*
D19*
X90297000Y-57283400D03*
X98171000Y-57283400D03*
M02*
