G04 #@! TF.GenerationSoftware,KiCad,Pcbnew,(6.0.7)*
G04 #@! TF.CreationDate,2023-03-21T01:22:40-05:00*
G04 #@! TF.ProjectId,RoveSoMoCo,526f7665-536f-44d6-9f43-6f2e6b696361,rev?*
G04 #@! TF.SameCoordinates,Original*
G04 #@! TF.FileFunction,Paste,Top*
G04 #@! TF.FilePolarity,Positive*
%FSLAX46Y46*%
G04 Gerber Fmt 4.6, Leading zero omitted, Abs format (unit mm)*
G04 Created by KiCad (PCBNEW (6.0.7)) date 2023-03-21 01:22:40*
%MOMM*%
%LPD*%
G01*
G04 APERTURE LIST*
G04 Aperture macros list*
%AMRoundRect*
0 Rectangle with rounded corners*
0 $1 Rounding radius*
0 $2 $3 $4 $5 $6 $7 $8 $9 X,Y pos of 4 corners*
0 Add a 4 corners polygon primitive as box body*
4,1,4,$2,$3,$4,$5,$6,$7,$8,$9,$2,$3,0*
0 Add four circle primitives for the rounded corners*
1,1,$1+$1,$2,$3*
1,1,$1+$1,$4,$5*
1,1,$1+$1,$6,$7*
1,1,$1+$1,$8,$9*
0 Add four rect primitives between the rounded corners*
20,1,$1+$1,$2,$3,$4,$5,0*
20,1,$1+$1,$4,$5,$6,$7,0*
20,1,$1+$1,$6,$7,$8,$9,0*
20,1,$1+$1,$8,$9,$2,$3,0*%
G04 Aperture macros list end*
%ADD10RoundRect,0.237500X-0.300000X-0.237500X0.300000X-0.237500X0.300000X0.237500X-0.300000X0.237500X0*%
%ADD11RoundRect,0.150000X-0.825000X-0.150000X0.825000X-0.150000X0.825000X0.150000X-0.825000X0.150000X0*%
%ADD12RoundRect,0.237500X0.237500X-0.250000X0.237500X0.250000X-0.237500X0.250000X-0.237500X-0.250000X0*%
%ADD13RoundRect,0.237500X0.237500X-0.287500X0.237500X0.287500X-0.237500X0.287500X-0.237500X-0.287500X0*%
%ADD14RoundRect,0.237500X-0.287500X-0.237500X0.287500X-0.237500X0.287500X0.237500X-0.287500X0.237500X0*%
%ADD15RoundRect,0.150000X0.825000X0.150000X-0.825000X0.150000X-0.825000X-0.150000X0.825000X-0.150000X0*%
%ADD16RoundRect,0.150000X-0.837500X-0.150000X0.837500X-0.150000X0.837500X0.150000X-0.837500X0.150000X0*%
%ADD17RoundRect,0.237500X0.250000X0.237500X-0.250000X0.237500X-0.250000X-0.237500X0.250000X-0.237500X0*%
%ADD18RoundRect,0.237500X0.287500X0.237500X-0.287500X0.237500X-0.287500X-0.237500X0.287500X-0.237500X0*%
%ADD19RoundRect,0.237500X-0.250000X-0.237500X0.250000X-0.237500X0.250000X0.237500X-0.250000X0.237500X0*%
%ADD20R,0.650000X1.560000*%
G04 APERTURE END LIST*
D10*
X93371500Y-59690000D03*
X95096500Y-59690000D03*
D11*
X104205000Y-65659000D03*
X104205000Y-66929000D03*
X104205000Y-68199000D03*
X104205000Y-69469000D03*
X109155000Y-69469000D03*
X109155000Y-68199000D03*
X109155000Y-66929000D03*
X109155000Y-65659000D03*
D12*
X87884000Y-78025000D03*
X87884000Y-76200000D03*
D13*
X85852000Y-77987500D03*
X85852000Y-76237500D03*
D14*
X108956500Y-52578000D03*
X110706500Y-52578000D03*
D15*
X107377000Y-59309000D03*
X107377000Y-58039000D03*
X107377000Y-56769000D03*
X107377000Y-55499000D03*
X102427000Y-55499000D03*
X102427000Y-56769000D03*
X102427000Y-58039000D03*
X102427000Y-59309000D03*
D16*
X86453500Y-44958000D03*
X86453500Y-46228000D03*
X86453500Y-47498000D03*
X86453500Y-48768000D03*
X86453500Y-50038000D03*
X86453500Y-51308000D03*
X86453500Y-52578000D03*
X93378500Y-52578000D03*
X93378500Y-51308000D03*
X93378500Y-50038000D03*
X93378500Y-48768000D03*
X93378500Y-47498000D03*
X93378500Y-46228000D03*
X93378500Y-44958000D03*
D17*
X106934000Y-52578000D03*
X105109000Y-52578000D03*
D18*
X79506750Y-52578000D03*
X77756750Y-52578000D03*
D15*
X84263000Y-69469000D03*
X84263000Y-68199000D03*
X84263000Y-66929000D03*
X84263000Y-65659000D03*
X79313000Y-65659000D03*
X79313000Y-66929000D03*
X79313000Y-68199000D03*
X79313000Y-69469000D03*
D19*
X81529250Y-52578000D03*
X83354250Y-52578000D03*
D12*
X100602750Y-78232000D03*
X100602750Y-76407000D03*
D11*
X81091000Y-55499000D03*
X81091000Y-56769000D03*
X81091000Y-58039000D03*
X81091000Y-59309000D03*
X86041000Y-59309000D03*
X86041000Y-58039000D03*
X86041000Y-56769000D03*
X86041000Y-55499000D03*
D20*
X93284000Y-77804000D03*
X94234000Y-77804000D03*
X95184000Y-77804000D03*
X95184000Y-75104000D03*
X94234000Y-75104000D03*
X93284000Y-75104000D03*
D13*
X102634750Y-78194500D03*
X102634750Y-76444500D03*
M02*
