G04 #@! TF.GenerationSoftware,KiCad,Pcbnew,(6.0.7)*
G04 #@! TF.CreationDate,2023-03-21T01:22:40-05:00*
G04 #@! TF.ProjectId,RoveSoMoCo,526f7665-536f-44d6-9f43-6f2e6b696361,rev?*
G04 #@! TF.SameCoordinates,Original*
G04 #@! TF.FileFunction,Copper,L4,Bot*
G04 #@! TF.FilePolarity,Positive*
%FSLAX46Y46*%
G04 Gerber Fmt 4.6, Leading zero omitted, Abs format (unit mm)*
G04 Created by KiCad (PCBNEW (6.0.7)) date 2023-03-21 01:22:40*
%MOMM*%
%LPD*%
G01*
G04 APERTURE LIST*
G04 Aperture macros list*
%AMRoundRect*
0 Rectangle with rounded corners*
0 $1 Rounding radius*
0 $2 $3 $4 $5 $6 $7 $8 $9 X,Y pos of 4 corners*
0 Add a 4 corners polygon primitive as box body*
4,1,4,$2,$3,$4,$5,$6,$7,$8,$9,$2,$3,0*
0 Add four circle primitives for the rounded corners*
1,1,$1+$1,$2,$3*
1,1,$1+$1,$4,$5*
1,1,$1+$1,$6,$7*
1,1,$1+$1,$8,$9*
0 Add four rect primitives between the rounded corners*
20,1,$1+$1,$2,$3,$4,$5,0*
20,1,$1+$1,$4,$5,$6,$7,0*
20,1,$1+$1,$6,$7,$8,$9,0*
20,1,$1+$1,$8,$9,$2,$3,0*%
G04 Aperture macros list end*
G04 #@! TA.AperFunction,ComponentPad*
%ADD10C,1.524000*%
G04 #@! TD*
G04 #@! TA.AperFunction,ComponentPad*
%ADD11R,1.600000X1.600000*%
G04 #@! TD*
G04 #@! TA.AperFunction,ComponentPad*
%ADD12C,1.600000*%
G04 #@! TD*
G04 #@! TA.AperFunction,SMDPad,CuDef*
%ADD13RoundRect,0.237500X0.250000X0.237500X-0.250000X0.237500X-0.250000X-0.237500X0.250000X-0.237500X0*%
G04 #@! TD*
G04 #@! TA.AperFunction,SMDPad,CuDef*
%ADD14RoundRect,0.237500X0.300000X0.237500X-0.300000X0.237500X-0.300000X-0.237500X0.300000X-0.237500X0*%
G04 #@! TD*
G04 #@! TA.AperFunction,SMDPad,CuDef*
%ADD15RoundRect,0.237500X0.237500X-0.300000X0.237500X0.300000X-0.237500X0.300000X-0.237500X-0.300000X0*%
G04 #@! TD*
G04 #@! TA.AperFunction,SMDPad,CuDef*
%ADD16RoundRect,0.150000X0.825000X0.150000X-0.825000X0.150000X-0.825000X-0.150000X0.825000X-0.150000X0*%
G04 #@! TD*
G04 #@! TA.AperFunction,SMDPad,CuDef*
%ADD17RoundRect,0.237500X0.237500X-0.287500X0.237500X0.287500X-0.237500X0.287500X-0.237500X-0.287500X0*%
G04 #@! TD*
G04 #@! TA.AperFunction,ComponentPad*
%ADD18O,5.100000X3.000000*%
G04 #@! TD*
G04 #@! TA.AperFunction,SMDPad,CuDef*
%ADD19RoundRect,0.150000X-0.825000X-0.150000X0.825000X-0.150000X0.825000X0.150000X-0.825000X0.150000X0*%
G04 #@! TD*
G04 #@! TA.AperFunction,ViaPad*
%ADD20C,0.800000*%
G04 #@! TD*
G04 #@! TA.AperFunction,Conductor*
%ADD21C,0.254000*%
G04 #@! TD*
G04 #@! TA.AperFunction,Conductor*
%ADD22C,0.200000*%
G04 #@! TD*
G04 #@! TA.AperFunction,Conductor*
%ADD23C,0.250000*%
G04 #@! TD*
G04 APERTURE END LIST*
D10*
X100584000Y-51308000D03*
X100584000Y-48768000D03*
X100584000Y-46228000D03*
D11*
X98044000Y-69429621D03*
D12*
X98044000Y-71929621D03*
D11*
X90424000Y-69429621D03*
D12*
X90424000Y-71929621D03*
D13*
X110721500Y-52578000D03*
X108896500Y-52578000D03*
X79566750Y-52578000D03*
X77741750Y-52578000D03*
D14*
X110717500Y-68834000D03*
X108992500Y-68834000D03*
D15*
X79248000Y-69596000D03*
X79248000Y-67871000D03*
D13*
X106934000Y-52578000D03*
X105109000Y-52578000D03*
D16*
X86041000Y-55499000D03*
X86041000Y-56769000D03*
X86041000Y-58039000D03*
X86041000Y-59309000D03*
X81091000Y-59309000D03*
X81091000Y-58039000D03*
X81091000Y-56769000D03*
X81091000Y-55499000D03*
D13*
X83354250Y-52578000D03*
X81529250Y-52578000D03*
D17*
X110744000Y-66915000D03*
X110744000Y-65165000D03*
D18*
X98171000Y-64834800D03*
X90297000Y-64834800D03*
D19*
X102427000Y-59309000D03*
X102427000Y-58039000D03*
X102427000Y-56769000D03*
X102427000Y-55499000D03*
X107377000Y-55499000D03*
X107377000Y-56769000D03*
X107377000Y-58039000D03*
X107377000Y-59309000D03*
D17*
X77216000Y-68185000D03*
X77216000Y-66435000D03*
D18*
X90297000Y-57283400D03*
X98171000Y-57283400D03*
D20*
X82032496Y-69013923D03*
X85598000Y-61214000D03*
X102616000Y-59944000D03*
X109728000Y-70612000D03*
X77749000Y-69596000D03*
X111252000Y-70358000D03*
X84714714Y-70225286D03*
X103124000Y-75184000D03*
X76962000Y-59944000D03*
X96647000Y-76327000D03*
X111506000Y-62230000D03*
X76962000Y-63754000D03*
X111506000Y-60960000D03*
X111506000Y-57150000D03*
X111506000Y-59690000D03*
X76962000Y-54864000D03*
X76962000Y-56134000D03*
X76962000Y-57404000D03*
X111506000Y-58420000D03*
X76962000Y-62484000D03*
X111506000Y-54610000D03*
X111506000Y-63500000D03*
X76962000Y-58674000D03*
X111506000Y-55880000D03*
X76962000Y-61214000D03*
X91694000Y-76327000D03*
X94234000Y-73406000D03*
X94996000Y-44958000D03*
X84836000Y-44958000D03*
X84836000Y-48768000D03*
X84836000Y-46228000D03*
X94742000Y-50800000D03*
X92202000Y-74422000D03*
X82296000Y-70612000D03*
X79350049Y-53754549D03*
X96139000Y-74549000D03*
X103165299Y-73627299D03*
X111760000Y-53340000D03*
X82496310Y-53390808D03*
X85341500Y-60214497D03*
X77210325Y-53611444D03*
X76962000Y-65024000D03*
X109220000Y-53652500D03*
X84582000Y-52832000D03*
X81305996Y-69748996D03*
X103632000Y-52832000D03*
X106907597Y-69876403D03*
X78232000Y-53848000D03*
X78994000Y-64770000D03*
X108113743Y-53441806D03*
X107906447Y-69912500D03*
X85598000Y-70866000D03*
X84698666Y-51800149D03*
X91948000Y-77851000D03*
X84836000Y-47498000D03*
X103378000Y-71120000D03*
X96520000Y-77724000D03*
X95087500Y-52837714D03*
X84836000Y-50038000D03*
D21*
X79248000Y-67871000D02*
X80390923Y-69013923D01*
X80390923Y-69013923D02*
X82032496Y-69013923D01*
D22*
X108992500Y-68834000D02*
X108992500Y-69876500D01*
X108992500Y-69876500D02*
X109728000Y-70612000D01*
D21*
X79248000Y-69596000D02*
X77749000Y-69596000D01*
X77749000Y-69596000D02*
X77216000Y-69063000D01*
X77216000Y-69063000D02*
X77216000Y-68185000D01*
D23*
X110744000Y-68807500D02*
X110717500Y-68834000D01*
X110744000Y-66915000D02*
X110744000Y-68807500D01*
X110717500Y-69823500D02*
X111252000Y-70358000D01*
X110717500Y-68834000D02*
X110717500Y-69823500D01*
X81529250Y-52578000D02*
X81683502Y-52578000D01*
X86041000Y-59514997D02*
X85341500Y-60214497D01*
X86041000Y-59309000D02*
X86041000Y-59514997D01*
X81683502Y-52578000D02*
X82496310Y-53390808D01*
D21*
X106132000Y-53380000D02*
X106934000Y-52578000D01*
X106132000Y-53380000D02*
X104180000Y-53380000D01*
X102427000Y-55133000D02*
X102427000Y-55499000D01*
X104180000Y-53380000D02*
X102427000Y-55133000D01*
X77741750Y-53080019D02*
X77210325Y-53611444D01*
X77741750Y-52578000D02*
X77741750Y-53080019D01*
D23*
X110721500Y-52578000D02*
X110294500Y-52578000D01*
X110294500Y-52578000D02*
X109220000Y-53652500D01*
D21*
X84328000Y-52578000D02*
X84582000Y-52832000D01*
X83354250Y-52578000D02*
X84328000Y-52578000D01*
D23*
X103886000Y-52578000D02*
X103632000Y-52832000D01*
X105109000Y-52578000D02*
X103886000Y-52578000D01*
X79502000Y-52578000D02*
X78232000Y-53848000D01*
X79566750Y-52578000D02*
X79502000Y-52578000D01*
X108896500Y-52578000D02*
X108896500Y-52659049D01*
X108896500Y-52659049D02*
X108113743Y-53441806D01*
G04 #@! TA.AperFunction,Conductor*
G36*
X96733674Y-75940002D02*
G01*
X96765439Y-75948514D01*
X96830883Y-75975621D01*
X96859367Y-75992067D01*
X96915558Y-76035184D01*
X96938816Y-76058442D01*
X96981933Y-76114633D01*
X96998379Y-76143117D01*
X97025486Y-76208561D01*
X97033998Y-76240326D01*
X97043244Y-76310556D01*
X97043244Y-76343444D01*
X97033998Y-76413673D01*
X97025486Y-76445439D01*
X96998380Y-76510881D01*
X96981933Y-76539367D01*
X96938816Y-76595558D01*
X96915558Y-76618816D01*
X96859367Y-76661933D01*
X96830880Y-76678380D01*
X96765441Y-76705485D01*
X96736239Y-76713311D01*
X96736280Y-76713544D01*
X96733685Y-76713996D01*
X96731091Y-76714338D01*
X96713400Y-76718187D01*
X96700243Y-76721049D01*
X96700236Y-76721051D01*
X96697675Y-76721608D01*
X96657722Y-76733858D01*
X96656931Y-76731277D01*
X96598773Y-76738589D01*
X96554617Y-76722570D01*
X96519499Y-76701733D01*
X96463117Y-76678379D01*
X96434635Y-76661935D01*
X96378438Y-76618813D01*
X96355184Y-76595558D01*
X96312067Y-76539367D01*
X96295620Y-76510881D01*
X96268514Y-76445439D01*
X96260002Y-76413673D01*
X96250756Y-76343444D01*
X96250756Y-76310556D01*
X96260002Y-76240326D01*
X96268514Y-76208561D01*
X96295621Y-76143117D01*
X96312067Y-76114633D01*
X96355184Y-76058442D01*
X96378442Y-76035184D01*
X96434633Y-75992067D01*
X96463117Y-75975621D01*
X96528561Y-75948514D01*
X96560326Y-75940002D01*
X96630556Y-75930756D01*
X96663444Y-75930756D01*
X96733674Y-75940002D01*
G37*
G04 #@! TD.AperFunction*
G04 #@! TA.AperFunction,Conductor*
G36*
X91780674Y-75940002D02*
G01*
X91812439Y-75948514D01*
X91877883Y-75975621D01*
X91906367Y-75992067D01*
X91962558Y-76035184D01*
X91985816Y-76058442D01*
X92028933Y-76114633D01*
X92045379Y-76143117D01*
X92072486Y-76208561D01*
X92080998Y-76240326D01*
X92090244Y-76310556D01*
X92090244Y-76343444D01*
X92080998Y-76413673D01*
X92072486Y-76445439D01*
X92045380Y-76510881D01*
X92028933Y-76539367D01*
X91985816Y-76595558D01*
X91962558Y-76618816D01*
X91906367Y-76661933D01*
X91877883Y-76678379D01*
X91812439Y-76705486D01*
X91780674Y-76713998D01*
X91710444Y-76723244D01*
X91677556Y-76723244D01*
X91607326Y-76713998D01*
X91575561Y-76705486D01*
X91510117Y-76678379D01*
X91481633Y-76661933D01*
X91425442Y-76618816D01*
X91402184Y-76595558D01*
X91359067Y-76539367D01*
X91342620Y-76510881D01*
X91315514Y-76445439D01*
X91307002Y-76413673D01*
X91297756Y-76343444D01*
X91297756Y-76310556D01*
X91307002Y-76240326D01*
X91315514Y-76208561D01*
X91342621Y-76143117D01*
X91359067Y-76114633D01*
X91402184Y-76058442D01*
X91425442Y-76035184D01*
X91481633Y-75992067D01*
X91510117Y-75975621D01*
X91575561Y-75948514D01*
X91607326Y-75940002D01*
X91677556Y-75930756D01*
X91710444Y-75930756D01*
X91780674Y-75940002D01*
G37*
G04 #@! TD.AperFunction*
G04 #@! TA.AperFunction,Conductor*
G36*
X90441860Y-71132075D02*
G01*
X90476916Y-71135760D01*
X90572344Y-71145790D01*
X90596433Y-71150735D01*
X90668139Y-71172932D01*
X90721770Y-71189534D01*
X90744430Y-71199059D01*
X90859851Y-71261466D01*
X90880235Y-71275216D01*
X90981327Y-71358846D01*
X90998655Y-71376296D01*
X91081573Y-71477964D01*
X91095181Y-71498445D01*
X91156781Y-71614297D01*
X91166148Y-71637021D01*
X91204072Y-71762634D01*
X91208846Y-71786746D01*
X91221762Y-71918467D01*
X91221762Y-71918471D01*
X91222571Y-71926724D01*
X91222179Y-71954807D01*
X91204551Y-72094355D01*
X91199102Y-72118336D01*
X91168004Y-72211822D01*
X91157692Y-72242820D01*
X91147691Y-72265282D01*
X91092539Y-72362367D01*
X91082881Y-72379368D01*
X91068712Y-72399454D01*
X90982979Y-72498779D01*
X90965175Y-72515733D01*
X90861779Y-72596514D01*
X90841016Y-72609690D01*
X90723915Y-72668841D01*
X90700990Y-72677733D01*
X90647179Y-72692758D01*
X90574615Y-72713019D01*
X90550403Y-72717288D01*
X90476330Y-72722988D01*
X90419587Y-72727354D01*
X90395003Y-72726839D01*
X90310116Y-72716717D01*
X90264726Y-72711305D01*
X90240710Y-72706024D01*
X90178321Y-72685753D01*
X90115933Y-72665481D01*
X90093400Y-72655636D01*
X89978861Y-72591623D01*
X89958668Y-72577589D01*
X89858763Y-72492564D01*
X89841680Y-72474874D01*
X89760180Y-72372046D01*
X89746862Y-72351380D01*
X89686890Y-72234685D01*
X89677838Y-72211822D01*
X89641673Y-72085703D01*
X89637234Y-72061515D01*
X89626256Y-71930780D01*
X89626599Y-71906192D01*
X89641224Y-71775810D01*
X89646337Y-71751757D01*
X89686009Y-71626693D01*
X89695694Y-71604096D01*
X89758903Y-71489121D01*
X89772794Y-71468833D01*
X89857129Y-71368325D01*
X89874699Y-71351120D01*
X89976946Y-71268911D01*
X89997523Y-71255445D01*
X90113796Y-71194659D01*
X90136596Y-71185447D01*
X90262465Y-71148402D01*
X90286619Y-71143795D01*
X90329410Y-71139900D01*
X90417271Y-71131904D01*
X90441860Y-71132075D01*
G37*
G04 #@! TD.AperFunction*
G04 #@! TA.AperFunction,Conductor*
G36*
X98061860Y-71132075D02*
G01*
X98096916Y-71135760D01*
X98192344Y-71145790D01*
X98216433Y-71150735D01*
X98288139Y-71172932D01*
X98341770Y-71189534D01*
X98364430Y-71199059D01*
X98479851Y-71261466D01*
X98500229Y-71275211D01*
X98504007Y-71278336D01*
X98504013Y-71278341D01*
X98601327Y-71358846D01*
X98618655Y-71376296D01*
X98701573Y-71477964D01*
X98715181Y-71498445D01*
X98776781Y-71614297D01*
X98786148Y-71637021D01*
X98824072Y-71762634D01*
X98828846Y-71786746D01*
X98842571Y-71926719D01*
X98842179Y-71954806D01*
X98824551Y-72094355D01*
X98819102Y-72118336D01*
X98788004Y-72211822D01*
X98777692Y-72242820D01*
X98767691Y-72265282D01*
X98712539Y-72362367D01*
X98702881Y-72379368D01*
X98688712Y-72399454D01*
X98602979Y-72498779D01*
X98585175Y-72515733D01*
X98481779Y-72596514D01*
X98461016Y-72609690D01*
X98343915Y-72668841D01*
X98320990Y-72677733D01*
X98267179Y-72692758D01*
X98194615Y-72713019D01*
X98170403Y-72717288D01*
X98096330Y-72722988D01*
X98039587Y-72727354D01*
X98015003Y-72726839D01*
X97930116Y-72716717D01*
X97884726Y-72711305D01*
X97860710Y-72706024D01*
X97798321Y-72685753D01*
X97735933Y-72665481D01*
X97713400Y-72655636D01*
X97598861Y-72591623D01*
X97578668Y-72577589D01*
X97478763Y-72492564D01*
X97461680Y-72474874D01*
X97380180Y-72372046D01*
X97366862Y-72351380D01*
X97306890Y-72234685D01*
X97297838Y-72211822D01*
X97261673Y-72085703D01*
X97257234Y-72061515D01*
X97246256Y-71930780D01*
X97246599Y-71906192D01*
X97261224Y-71775810D01*
X97266337Y-71751757D01*
X97306009Y-71626693D01*
X97315694Y-71604096D01*
X97378903Y-71489121D01*
X97392794Y-71468833D01*
X97477129Y-71368325D01*
X97494699Y-71351120D01*
X97596946Y-71268911D01*
X97617523Y-71255445D01*
X97733796Y-71194659D01*
X97756596Y-71185447D01*
X97882465Y-71148402D01*
X97906619Y-71143795D01*
X97949410Y-71139900D01*
X98037271Y-71131904D01*
X98061860Y-71132075D01*
G37*
G04 #@! TD.AperFunction*
G04 #@! TA.AperFunction,Conductor*
G36*
X99314408Y-63339973D02*
G01*
X99367253Y-63342742D01*
X99383291Y-63344619D01*
X99592055Y-63382746D01*
X99610540Y-63387596D01*
X99807437Y-63455585D01*
X99824969Y-63463172D01*
X100009307Y-63560156D01*
X100025489Y-63570307D01*
X100134581Y-63650884D01*
X100193038Y-63694061D01*
X100207506Y-63706550D01*
X100271071Y-63770448D01*
X100354399Y-63854214D01*
X100366810Y-63868745D01*
X100489685Y-64036941D01*
X100499757Y-64053185D01*
X100595775Y-64238027D01*
X100603270Y-64255598D01*
X100622464Y-64312142D01*
X100670221Y-64452830D01*
X100674974Y-64471340D01*
X100711324Y-64676445D01*
X100713222Y-64695464D01*
X100718130Y-64903691D01*
X100717130Y-64922780D01*
X100690483Y-65129352D01*
X100686607Y-65148068D01*
X100629017Y-65348250D01*
X100622354Y-65366165D01*
X100535158Y-65555310D01*
X100525868Y-65572002D01*
X100485796Y-65632659D01*
X100411051Y-65745800D01*
X100399336Y-65760902D01*
X100259556Y-65915329D01*
X100245693Y-65928485D01*
X100084167Y-66059988D01*
X100068472Y-66070896D01*
X99888908Y-66176457D01*
X99871743Y-66184866D01*
X99678290Y-66262045D01*
X99660058Y-66267759D01*
X99474023Y-66310880D01*
X99457136Y-66314794D01*
X99438242Y-66317685D01*
X99283749Y-66329437D01*
X99274192Y-66329800D01*
X97034186Y-66329800D01*
X97027592Y-66329627D01*
X97023966Y-66329437D01*
X96974747Y-66326858D01*
X96958709Y-66324981D01*
X96749945Y-66286854D01*
X96731459Y-66282004D01*
X96673654Y-66262044D01*
X96534563Y-66214015D01*
X96517031Y-66206428D01*
X96332693Y-66109444D01*
X96316511Y-66099293D01*
X96148960Y-65975537D01*
X96134494Y-65963050D01*
X96059556Y-65887719D01*
X95987601Y-65815386D01*
X95975190Y-65800855D01*
X95852315Y-65632659D01*
X95842243Y-65616415D01*
X95819177Y-65572012D01*
X95746225Y-65431573D01*
X95738728Y-65413997D01*
X95722492Y-65366165D01*
X95671778Y-65216767D01*
X95667025Y-65198257D01*
X95663925Y-65180762D01*
X95630676Y-64993154D01*
X95628778Y-64974136D01*
X95623870Y-64765909D01*
X95624870Y-64746820D01*
X95651517Y-64540248D01*
X95655393Y-64521532D01*
X95712983Y-64321350D01*
X95719646Y-64303435D01*
X95751315Y-64234739D01*
X95806844Y-64114286D01*
X95816132Y-64097598D01*
X95930949Y-63923800D01*
X95942664Y-63908698D01*
X96082444Y-63754271D01*
X96096309Y-63741113D01*
X96148250Y-63698827D01*
X96257835Y-63609611D01*
X96273528Y-63598704D01*
X96453092Y-63493143D01*
X96470257Y-63484734D01*
X96543325Y-63455583D01*
X96663710Y-63407555D01*
X96681942Y-63401841D01*
X96884864Y-63354806D01*
X96903758Y-63351915D01*
X97058251Y-63340163D01*
X97067808Y-63339800D01*
X99307814Y-63339800D01*
X99314408Y-63339973D01*
G37*
G04 #@! TD.AperFunction*
G04 #@! TA.AperFunction,Conductor*
G36*
X77047837Y-63300401D02*
G01*
X77059804Y-63313792D01*
X77062639Y-63318552D01*
X77110825Y-63369086D01*
X77116247Y-63372803D01*
X77116248Y-63372804D01*
X77127499Y-63380518D01*
X77140157Y-63391956D01*
X77139741Y-63392498D01*
X77146476Y-63397666D01*
X77146485Y-63397674D01*
X77230560Y-63462187D01*
X77253818Y-63485445D01*
X77296933Y-63541633D01*
X77313379Y-63570117D01*
X77340486Y-63635561D01*
X77348998Y-63667326D01*
X77358244Y-63737556D01*
X77358244Y-63770444D01*
X77351047Y-63825109D01*
X77348998Y-63840673D01*
X77340486Y-63872439D01*
X77313380Y-63937881D01*
X77296933Y-63966367D01*
X77253818Y-64022555D01*
X77230560Y-64045813D01*
X77139899Y-64115380D01*
X77129412Y-64122615D01*
X77124651Y-64125556D01*
X77089739Y-64155807D01*
X77085387Y-64161919D01*
X77065750Y-64189495D01*
X77009943Y-64233382D01*
X76939268Y-64240131D01*
X76876163Y-64207599D01*
X76864196Y-64194208D01*
X76861361Y-64189448D01*
X76813175Y-64138914D01*
X76807752Y-64135196D01*
X76796501Y-64127482D01*
X76783843Y-64116044D01*
X76784259Y-64115502D01*
X76658818Y-64019248D01*
X76655831Y-64017443D01*
X76655823Y-64017438D01*
X76639685Y-64007689D01*
X76619833Y-63995696D01*
X76619010Y-63995523D01*
X76618978Y-63995505D01*
X76618987Y-63995485D01*
X76556802Y-63967085D01*
X76554991Y-63966388D01*
X76554983Y-63966385D01*
X76541749Y-63961294D01*
X76541746Y-63961293D01*
X76533338Y-63958059D01*
X76485471Y-63954145D01*
X76443230Y-63950690D01*
X76376966Y-63925202D01*
X76335001Y-63867935D01*
X76327500Y-63825109D01*
X76327500Y-63682821D01*
X76347502Y-63614700D01*
X76401158Y-63568207D01*
X76461761Y-63557273D01*
X76461766Y-63557150D01*
X76462317Y-63557172D01*
X76462486Y-63557142D01*
X76463702Y-63557229D01*
X76463713Y-63557229D01*
X76465622Y-63557366D01*
X76467535Y-63557386D01*
X76467546Y-63557386D01*
X76481748Y-63557531D01*
X76481749Y-63557531D01*
X76490759Y-63557623D01*
X76578769Y-63532753D01*
X76584975Y-63529364D01*
X76584978Y-63529363D01*
X76630849Y-63504315D01*
X76630918Y-63504442D01*
X76643124Y-63495952D01*
X76652384Y-63491704D01*
X76652387Y-63491702D01*
X76658818Y-63488752D01*
X76784104Y-63392617D01*
X76794591Y-63385383D01*
X76795045Y-63385103D01*
X76795047Y-63385101D01*
X76799349Y-63382444D01*
X76834261Y-63352193D01*
X76858250Y-63318505D01*
X76914057Y-63274618D01*
X76984732Y-63267869D01*
X77047837Y-63300401D01*
G37*
G04 #@! TD.AperFunction*
G04 #@! TA.AperFunction,Conductor*
G36*
X111591837Y-63046401D02*
G01*
X111603804Y-63059792D01*
X111606639Y-63064552D01*
X111654825Y-63115086D01*
X111660247Y-63118803D01*
X111660248Y-63118804D01*
X111671499Y-63126518D01*
X111684157Y-63137956D01*
X111683741Y-63138498D01*
X111809182Y-63234752D01*
X111812169Y-63236557D01*
X111812177Y-63236562D01*
X111828315Y-63246311D01*
X111848167Y-63258304D01*
X111848990Y-63258477D01*
X111849022Y-63258495D01*
X111849013Y-63258515D01*
X111911198Y-63286915D01*
X111913009Y-63287612D01*
X111913017Y-63287615D01*
X111926251Y-63292706D01*
X111926254Y-63292707D01*
X111934662Y-63295941D01*
X111982529Y-63299855D01*
X112024770Y-63303310D01*
X112091034Y-63328798D01*
X112132999Y-63386065D01*
X112140500Y-63428891D01*
X112140500Y-63571179D01*
X112120498Y-63639300D01*
X112066842Y-63685793D01*
X112006239Y-63696727D01*
X112006234Y-63696850D01*
X112005683Y-63696828D01*
X112005514Y-63696858D01*
X112004298Y-63696771D01*
X112004287Y-63696771D01*
X112002378Y-63696634D01*
X112000465Y-63696614D01*
X112000454Y-63696614D01*
X111986252Y-63696469D01*
X111986251Y-63696469D01*
X111977241Y-63696377D01*
X111889231Y-63721247D01*
X111883025Y-63724636D01*
X111883022Y-63724637D01*
X111837151Y-63749685D01*
X111837082Y-63749558D01*
X111824876Y-63758048D01*
X111815616Y-63762296D01*
X111815613Y-63762298D01*
X111809182Y-63765248D01*
X111787718Y-63781718D01*
X111718367Y-63834933D01*
X111689883Y-63851379D01*
X111624439Y-63878486D01*
X111592674Y-63886998D01*
X111522444Y-63896244D01*
X111489556Y-63896244D01*
X111419326Y-63886998D01*
X111387561Y-63878486D01*
X111322117Y-63851379D01*
X111293633Y-63834933D01*
X111237442Y-63791816D01*
X111214184Y-63768558D01*
X111171067Y-63712367D01*
X111154620Y-63683881D01*
X111154181Y-63682821D01*
X111127514Y-63618439D01*
X111119002Y-63586673D01*
X111116848Y-63570311D01*
X111109756Y-63516444D01*
X111109756Y-63483556D01*
X111119002Y-63413326D01*
X111127514Y-63381561D01*
X111154621Y-63316117D01*
X111171067Y-63287633D01*
X111214182Y-63231445D01*
X111237440Y-63208187D01*
X111328101Y-63138620D01*
X111338591Y-63131383D01*
X111339045Y-63131103D01*
X111339047Y-63131101D01*
X111343349Y-63128444D01*
X111378261Y-63098193D01*
X111402250Y-63064505D01*
X111458057Y-63020618D01*
X111528732Y-63013869D01*
X111591837Y-63046401D01*
G37*
G04 #@! TD.AperFunction*
G04 #@! TA.AperFunction,Conductor*
G36*
X77047837Y-62030401D02*
G01*
X77059804Y-62043792D01*
X77062639Y-62048552D01*
X77110825Y-62099086D01*
X77116247Y-62102803D01*
X77116248Y-62102804D01*
X77127499Y-62110518D01*
X77140157Y-62121956D01*
X77139741Y-62122498D01*
X77146476Y-62127666D01*
X77146485Y-62127674D01*
X77230560Y-62192187D01*
X77253818Y-62215445D01*
X77296933Y-62271633D01*
X77313379Y-62300117D01*
X77340486Y-62365561D01*
X77348998Y-62397326D01*
X77358244Y-62467556D01*
X77358244Y-62500444D01*
X77356760Y-62511718D01*
X77348998Y-62570673D01*
X77340486Y-62602439D01*
X77314368Y-62665495D01*
X77313380Y-62667881D01*
X77296933Y-62696367D01*
X77253818Y-62752555D01*
X77230560Y-62775813D01*
X77139899Y-62845380D01*
X77129412Y-62852615D01*
X77124651Y-62855556D01*
X77089739Y-62885807D01*
X77069430Y-62914327D01*
X77065750Y-62919495D01*
X77009943Y-62963382D01*
X76939268Y-62970131D01*
X76876163Y-62937599D01*
X76864196Y-62924208D01*
X76861361Y-62919448D01*
X76813175Y-62868914D01*
X76807752Y-62865196D01*
X76796501Y-62857482D01*
X76783843Y-62846044D01*
X76784259Y-62845502D01*
X76658818Y-62749248D01*
X76655831Y-62747443D01*
X76655823Y-62747438D01*
X76639685Y-62737689D01*
X76619833Y-62725696D01*
X76619010Y-62725523D01*
X76618978Y-62725505D01*
X76618987Y-62725485D01*
X76556802Y-62697085D01*
X76554991Y-62696388D01*
X76554983Y-62696385D01*
X76541749Y-62691294D01*
X76541746Y-62691293D01*
X76533338Y-62688059D01*
X76485471Y-62684145D01*
X76443230Y-62680690D01*
X76376966Y-62655202D01*
X76335001Y-62597935D01*
X76327500Y-62555109D01*
X76327500Y-62412821D01*
X76347502Y-62344700D01*
X76401158Y-62298207D01*
X76461761Y-62287273D01*
X76461766Y-62287150D01*
X76462317Y-62287172D01*
X76462486Y-62287142D01*
X76463702Y-62287229D01*
X76463713Y-62287229D01*
X76465622Y-62287366D01*
X76467535Y-62287386D01*
X76467546Y-62287386D01*
X76481748Y-62287531D01*
X76481749Y-62287531D01*
X76490759Y-62287623D01*
X76578769Y-62262753D01*
X76584975Y-62259364D01*
X76584978Y-62259363D01*
X76630849Y-62234315D01*
X76630918Y-62234442D01*
X76643124Y-62225952D01*
X76652384Y-62221704D01*
X76652387Y-62221702D01*
X76658818Y-62218752D01*
X76784104Y-62122617D01*
X76794591Y-62115383D01*
X76795045Y-62115103D01*
X76795047Y-62115101D01*
X76799349Y-62112444D01*
X76834261Y-62082193D01*
X76858250Y-62048505D01*
X76914057Y-62004618D01*
X76984732Y-61997869D01*
X77047837Y-62030401D01*
G37*
G04 #@! TD.AperFunction*
G04 #@! TA.AperFunction,Conductor*
G36*
X111591837Y-61776401D02*
G01*
X111603804Y-61789792D01*
X111606639Y-61794552D01*
X111654825Y-61845086D01*
X111660247Y-61848803D01*
X111660248Y-61848804D01*
X111671499Y-61856518D01*
X111684157Y-61867956D01*
X111683741Y-61868498D01*
X111809182Y-61964752D01*
X111812169Y-61966557D01*
X111812177Y-61966562D01*
X111828315Y-61976311D01*
X111848167Y-61988304D01*
X111848990Y-61988477D01*
X111849022Y-61988495D01*
X111849013Y-61988515D01*
X111911198Y-62016915D01*
X111913009Y-62017612D01*
X111913017Y-62017615D01*
X111926251Y-62022706D01*
X111926254Y-62022707D01*
X111934662Y-62025941D01*
X111982529Y-62029855D01*
X112024770Y-62033310D01*
X112091034Y-62058798D01*
X112132999Y-62116065D01*
X112140500Y-62158891D01*
X112140500Y-62301179D01*
X112120498Y-62369300D01*
X112066842Y-62415793D01*
X112006239Y-62426727D01*
X112006234Y-62426850D01*
X112005683Y-62426828D01*
X112005514Y-62426858D01*
X112004298Y-62426771D01*
X112004287Y-62426771D01*
X112002378Y-62426634D01*
X112000465Y-62426614D01*
X112000454Y-62426614D01*
X111986252Y-62426469D01*
X111986251Y-62426469D01*
X111977241Y-62426377D01*
X111889231Y-62451247D01*
X111883025Y-62454636D01*
X111883022Y-62454637D01*
X111837151Y-62479685D01*
X111837082Y-62479558D01*
X111824876Y-62488048D01*
X111815616Y-62492296D01*
X111815613Y-62492298D01*
X111809182Y-62495248D01*
X111803571Y-62499553D01*
X111803570Y-62499554D01*
X111683899Y-62591381D01*
X111673412Y-62598615D01*
X111668651Y-62601556D01*
X111633739Y-62631807D01*
X111629387Y-62637919D01*
X111609750Y-62665495D01*
X111553943Y-62709382D01*
X111483268Y-62716131D01*
X111420163Y-62683599D01*
X111408196Y-62670208D01*
X111405361Y-62665448D01*
X111357175Y-62614914D01*
X111351752Y-62611196D01*
X111340501Y-62603482D01*
X111327843Y-62592044D01*
X111328259Y-62591502D01*
X111321524Y-62586334D01*
X111321515Y-62586326D01*
X111237440Y-62521813D01*
X111214182Y-62498555D01*
X111171067Y-62442367D01*
X111154620Y-62413881D01*
X111154181Y-62412821D01*
X111127514Y-62348439D01*
X111119002Y-62316673D01*
X111116962Y-62301179D01*
X111109756Y-62246444D01*
X111109756Y-62213556D01*
X111119002Y-62143326D01*
X111127514Y-62111561D01*
X111154621Y-62046117D01*
X111171067Y-62017633D01*
X111214182Y-61961445D01*
X111237440Y-61938187D01*
X111328101Y-61868620D01*
X111338591Y-61861383D01*
X111339045Y-61861103D01*
X111339047Y-61861101D01*
X111343349Y-61858444D01*
X111378261Y-61828193D01*
X111402250Y-61794505D01*
X111458057Y-61750618D01*
X111528732Y-61743869D01*
X111591837Y-61776401D01*
G37*
G04 #@! TD.AperFunction*
G04 #@! TA.AperFunction,Conductor*
G36*
X77047837Y-60760401D02*
G01*
X77059804Y-60773792D01*
X77062639Y-60778552D01*
X77110825Y-60829086D01*
X77116247Y-60832803D01*
X77116248Y-60832804D01*
X77127499Y-60840518D01*
X77140157Y-60851956D01*
X77139741Y-60852498D01*
X77146476Y-60857666D01*
X77146485Y-60857674D01*
X77230560Y-60922187D01*
X77253818Y-60945445D01*
X77296933Y-61001633D01*
X77313379Y-61030117D01*
X77340486Y-61095561D01*
X77348998Y-61127326D01*
X77358244Y-61197556D01*
X77358244Y-61230444D01*
X77356760Y-61241718D01*
X77348998Y-61300673D01*
X77340486Y-61332439D01*
X77314368Y-61395495D01*
X77313380Y-61397881D01*
X77296933Y-61426367D01*
X77253818Y-61482555D01*
X77230560Y-61505813D01*
X77139899Y-61575380D01*
X77129412Y-61582615D01*
X77124651Y-61585556D01*
X77089739Y-61615807D01*
X77069430Y-61644327D01*
X77065750Y-61649495D01*
X77009943Y-61693382D01*
X76939268Y-61700131D01*
X76876163Y-61667599D01*
X76864196Y-61654208D01*
X76861361Y-61649448D01*
X76813175Y-61598914D01*
X76807752Y-61595196D01*
X76796501Y-61587482D01*
X76783843Y-61576044D01*
X76784259Y-61575502D01*
X76658818Y-61479248D01*
X76655831Y-61477443D01*
X76655823Y-61477438D01*
X76639685Y-61467689D01*
X76619833Y-61455696D01*
X76619010Y-61455523D01*
X76618978Y-61455505D01*
X76618987Y-61455485D01*
X76556802Y-61427085D01*
X76554991Y-61426388D01*
X76554983Y-61426385D01*
X76541749Y-61421294D01*
X76541746Y-61421293D01*
X76533338Y-61418059D01*
X76485471Y-61414145D01*
X76443230Y-61410690D01*
X76376966Y-61385202D01*
X76335001Y-61327935D01*
X76327500Y-61285109D01*
X76327500Y-61142821D01*
X76347502Y-61074700D01*
X76401158Y-61028207D01*
X76461761Y-61017273D01*
X76461766Y-61017150D01*
X76462317Y-61017172D01*
X76462486Y-61017142D01*
X76463702Y-61017229D01*
X76463713Y-61017229D01*
X76465622Y-61017366D01*
X76467535Y-61017386D01*
X76467546Y-61017386D01*
X76481748Y-61017531D01*
X76481749Y-61017531D01*
X76490759Y-61017623D01*
X76578769Y-60992753D01*
X76584975Y-60989364D01*
X76584978Y-60989363D01*
X76630849Y-60964315D01*
X76630918Y-60964442D01*
X76643124Y-60955952D01*
X76652384Y-60951704D01*
X76652387Y-60951702D01*
X76658818Y-60948752D01*
X76784104Y-60852617D01*
X76794591Y-60845383D01*
X76795045Y-60845103D01*
X76795047Y-60845101D01*
X76799349Y-60842444D01*
X76834261Y-60812193D01*
X76858250Y-60778505D01*
X76914057Y-60734618D01*
X76984732Y-60727869D01*
X77047837Y-60760401D01*
G37*
G04 #@! TD.AperFunction*
G04 #@! TA.AperFunction,Conductor*
G36*
X111591837Y-60506401D02*
G01*
X111603804Y-60519792D01*
X111606639Y-60524552D01*
X111654825Y-60575086D01*
X111660247Y-60578803D01*
X111660248Y-60578804D01*
X111671499Y-60586518D01*
X111684157Y-60597956D01*
X111683741Y-60598498D01*
X111809182Y-60694752D01*
X111812169Y-60696557D01*
X111812177Y-60696562D01*
X111828315Y-60706311D01*
X111848167Y-60718304D01*
X111848990Y-60718477D01*
X111849022Y-60718495D01*
X111849013Y-60718515D01*
X111911198Y-60746915D01*
X111913009Y-60747612D01*
X111913017Y-60747615D01*
X111926251Y-60752706D01*
X111926254Y-60752707D01*
X111934662Y-60755941D01*
X111982529Y-60759855D01*
X112024770Y-60763310D01*
X112091034Y-60788798D01*
X112132999Y-60846065D01*
X112140500Y-60888891D01*
X112140500Y-61031179D01*
X112120498Y-61099300D01*
X112066842Y-61145793D01*
X112006239Y-61156727D01*
X112006234Y-61156850D01*
X112005683Y-61156828D01*
X112005514Y-61156858D01*
X112004298Y-61156771D01*
X112004287Y-61156771D01*
X112002378Y-61156634D01*
X112000465Y-61156614D01*
X112000454Y-61156614D01*
X111986252Y-61156469D01*
X111986251Y-61156469D01*
X111977241Y-61156377D01*
X111889231Y-61181247D01*
X111883025Y-61184636D01*
X111883022Y-61184637D01*
X111837151Y-61209685D01*
X111837082Y-61209558D01*
X111824876Y-61218048D01*
X111815616Y-61222296D01*
X111815613Y-61222298D01*
X111809182Y-61225248D01*
X111803571Y-61229553D01*
X111803570Y-61229554D01*
X111683899Y-61321381D01*
X111673412Y-61328615D01*
X111668651Y-61331556D01*
X111633739Y-61361807D01*
X111629387Y-61367919D01*
X111609750Y-61395495D01*
X111553943Y-61439382D01*
X111483268Y-61446131D01*
X111420163Y-61413599D01*
X111408196Y-61400208D01*
X111405361Y-61395448D01*
X111357175Y-61344914D01*
X111351752Y-61341196D01*
X111340501Y-61333482D01*
X111327843Y-61322044D01*
X111328259Y-61321502D01*
X111321524Y-61316334D01*
X111321515Y-61316326D01*
X111237440Y-61251813D01*
X111214182Y-61228555D01*
X111171067Y-61172367D01*
X111154620Y-61143881D01*
X111154181Y-61142821D01*
X111127514Y-61078439D01*
X111119002Y-61046673D01*
X111116962Y-61031179D01*
X111109756Y-60976444D01*
X111109756Y-60943556D01*
X111119002Y-60873326D01*
X111127514Y-60841561D01*
X111154621Y-60776117D01*
X111171067Y-60747633D01*
X111214182Y-60691445D01*
X111237440Y-60668187D01*
X111328101Y-60598620D01*
X111338591Y-60591383D01*
X111339045Y-60591103D01*
X111339047Y-60591101D01*
X111343349Y-60588444D01*
X111378261Y-60558193D01*
X111402250Y-60524505D01*
X111458057Y-60480618D01*
X111528732Y-60473869D01*
X111591837Y-60506401D01*
G37*
G04 #@! TD.AperFunction*
G04 #@! TA.AperFunction,Conductor*
G36*
X77047837Y-59490401D02*
G01*
X77059804Y-59503792D01*
X77062639Y-59508552D01*
X77110825Y-59559086D01*
X77116247Y-59562803D01*
X77116248Y-59562804D01*
X77127499Y-59570518D01*
X77140157Y-59581956D01*
X77139741Y-59582498D01*
X77146476Y-59587666D01*
X77146485Y-59587674D01*
X77230560Y-59652187D01*
X77253818Y-59675445D01*
X77296933Y-59731633D01*
X77313379Y-59760117D01*
X77340486Y-59825561D01*
X77348998Y-59857326D01*
X77358244Y-59927556D01*
X77358244Y-59960444D01*
X77356760Y-59971718D01*
X77348998Y-60030673D01*
X77340486Y-60062439D01*
X77314368Y-60125495D01*
X77313380Y-60127881D01*
X77296933Y-60156367D01*
X77253818Y-60212555D01*
X77230560Y-60235813D01*
X77139899Y-60305380D01*
X77129412Y-60312615D01*
X77124651Y-60315556D01*
X77089739Y-60345807D01*
X77069430Y-60374327D01*
X77065750Y-60379495D01*
X77009943Y-60423382D01*
X76939268Y-60430131D01*
X76876163Y-60397599D01*
X76864196Y-60384208D01*
X76861361Y-60379448D01*
X76813175Y-60328914D01*
X76807752Y-60325196D01*
X76796501Y-60317482D01*
X76783843Y-60306044D01*
X76784259Y-60305502D01*
X76658818Y-60209248D01*
X76655831Y-60207443D01*
X76655823Y-60207438D01*
X76639685Y-60197689D01*
X76619833Y-60185696D01*
X76619010Y-60185523D01*
X76618978Y-60185505D01*
X76618987Y-60185485D01*
X76556802Y-60157085D01*
X76554991Y-60156388D01*
X76554983Y-60156385D01*
X76541749Y-60151294D01*
X76541746Y-60151293D01*
X76533338Y-60148059D01*
X76485471Y-60144145D01*
X76443230Y-60140690D01*
X76376966Y-60115202D01*
X76335001Y-60057935D01*
X76327500Y-60015109D01*
X76327500Y-59872821D01*
X76347502Y-59804700D01*
X76401158Y-59758207D01*
X76461761Y-59747273D01*
X76461766Y-59747150D01*
X76462317Y-59747172D01*
X76462486Y-59747142D01*
X76463702Y-59747229D01*
X76463713Y-59747229D01*
X76465622Y-59747366D01*
X76467535Y-59747386D01*
X76467546Y-59747386D01*
X76481748Y-59747531D01*
X76481749Y-59747531D01*
X76490759Y-59747623D01*
X76578769Y-59722753D01*
X76584975Y-59719364D01*
X76584978Y-59719363D01*
X76630849Y-59694315D01*
X76630918Y-59694442D01*
X76643124Y-59685952D01*
X76652384Y-59681704D01*
X76652387Y-59681702D01*
X76658818Y-59678752D01*
X76784104Y-59582617D01*
X76794591Y-59575383D01*
X76795045Y-59575103D01*
X76795047Y-59575101D01*
X76799349Y-59572444D01*
X76834261Y-59542193D01*
X76858250Y-59508505D01*
X76914057Y-59464618D01*
X76984732Y-59457869D01*
X77047837Y-59490401D01*
G37*
G04 #@! TD.AperFunction*
G04 #@! TA.AperFunction,Conductor*
G36*
X111591837Y-59236401D02*
G01*
X111603804Y-59249792D01*
X111606639Y-59254552D01*
X111654825Y-59305086D01*
X111660247Y-59308803D01*
X111660248Y-59308804D01*
X111671499Y-59316518D01*
X111684157Y-59327956D01*
X111683741Y-59328498D01*
X111809182Y-59424752D01*
X111812169Y-59426557D01*
X111812177Y-59426562D01*
X111828315Y-59436311D01*
X111848167Y-59448304D01*
X111848990Y-59448477D01*
X111849022Y-59448495D01*
X111849013Y-59448515D01*
X111911198Y-59476915D01*
X111913009Y-59477612D01*
X111913017Y-59477615D01*
X111926251Y-59482706D01*
X111926254Y-59482707D01*
X111934662Y-59485941D01*
X111982529Y-59489855D01*
X112024770Y-59493310D01*
X112091034Y-59518798D01*
X112132999Y-59576065D01*
X112140500Y-59618891D01*
X112140500Y-59761179D01*
X112120498Y-59829300D01*
X112066842Y-59875793D01*
X112006239Y-59886727D01*
X112006234Y-59886850D01*
X112005683Y-59886828D01*
X112005514Y-59886858D01*
X112004298Y-59886771D01*
X112004287Y-59886771D01*
X112002378Y-59886634D01*
X112000465Y-59886614D01*
X112000454Y-59886614D01*
X111986252Y-59886469D01*
X111986251Y-59886469D01*
X111977241Y-59886377D01*
X111889231Y-59911247D01*
X111883025Y-59914636D01*
X111883022Y-59914637D01*
X111837151Y-59939685D01*
X111837082Y-59939558D01*
X111824876Y-59948048D01*
X111815616Y-59952296D01*
X111815613Y-59952298D01*
X111809182Y-59955248D01*
X111803571Y-59959553D01*
X111803570Y-59959554D01*
X111683899Y-60051381D01*
X111673412Y-60058615D01*
X111668651Y-60061556D01*
X111633739Y-60091807D01*
X111629387Y-60097919D01*
X111609750Y-60125495D01*
X111553943Y-60169382D01*
X111483268Y-60176131D01*
X111420163Y-60143599D01*
X111408196Y-60130208D01*
X111405361Y-60125448D01*
X111357175Y-60074914D01*
X111351752Y-60071196D01*
X111340501Y-60063482D01*
X111327843Y-60052044D01*
X111328259Y-60051502D01*
X111321524Y-60046334D01*
X111321515Y-60046326D01*
X111237440Y-59981813D01*
X111214182Y-59958555D01*
X111171067Y-59902367D01*
X111154620Y-59873881D01*
X111154181Y-59872821D01*
X111127514Y-59808439D01*
X111119002Y-59776673D01*
X111116962Y-59761179D01*
X111109756Y-59706444D01*
X111109756Y-59673556D01*
X111119002Y-59603326D01*
X111127514Y-59571561D01*
X111154621Y-59506117D01*
X111171067Y-59477633D01*
X111214182Y-59421445D01*
X111237440Y-59398187D01*
X111328101Y-59328620D01*
X111338591Y-59321383D01*
X111339045Y-59321103D01*
X111339047Y-59321101D01*
X111343349Y-59318444D01*
X111378261Y-59288193D01*
X111402250Y-59254505D01*
X111458057Y-59210618D01*
X111528732Y-59203869D01*
X111591837Y-59236401D01*
G37*
G04 #@! TD.AperFunction*
G04 #@! TA.AperFunction,Conductor*
G36*
X77047837Y-58220401D02*
G01*
X77059804Y-58233792D01*
X77062639Y-58238552D01*
X77110825Y-58289086D01*
X77116247Y-58292803D01*
X77116248Y-58292804D01*
X77127499Y-58300518D01*
X77140157Y-58311956D01*
X77139741Y-58312498D01*
X77146476Y-58317666D01*
X77146485Y-58317674D01*
X77230560Y-58382187D01*
X77253818Y-58405445D01*
X77296933Y-58461633D01*
X77313379Y-58490117D01*
X77340486Y-58555561D01*
X77348998Y-58587326D01*
X77358244Y-58657556D01*
X77358244Y-58690444D01*
X77356760Y-58701718D01*
X77348998Y-58760673D01*
X77340486Y-58792439D01*
X77314368Y-58855495D01*
X77313380Y-58857881D01*
X77296933Y-58886367D01*
X77253818Y-58942555D01*
X77230560Y-58965813D01*
X77139899Y-59035380D01*
X77129412Y-59042615D01*
X77124651Y-59045556D01*
X77089739Y-59075807D01*
X77069430Y-59104327D01*
X77065750Y-59109495D01*
X77009943Y-59153382D01*
X76939268Y-59160131D01*
X76876163Y-59127599D01*
X76864196Y-59114208D01*
X76861361Y-59109448D01*
X76813175Y-59058914D01*
X76807752Y-59055196D01*
X76796501Y-59047482D01*
X76783843Y-59036044D01*
X76784259Y-59035502D01*
X76658818Y-58939248D01*
X76655831Y-58937443D01*
X76655823Y-58937438D01*
X76639685Y-58927689D01*
X76619833Y-58915696D01*
X76619010Y-58915523D01*
X76618978Y-58915505D01*
X76618987Y-58915485D01*
X76556802Y-58887085D01*
X76554991Y-58886388D01*
X76554983Y-58886385D01*
X76541749Y-58881294D01*
X76541746Y-58881293D01*
X76533338Y-58878059D01*
X76485471Y-58874145D01*
X76443230Y-58870690D01*
X76376966Y-58845202D01*
X76335001Y-58787935D01*
X76327500Y-58745109D01*
X76327500Y-58602821D01*
X76347502Y-58534700D01*
X76401158Y-58488207D01*
X76461761Y-58477273D01*
X76461766Y-58477150D01*
X76462317Y-58477172D01*
X76462486Y-58477142D01*
X76463702Y-58477229D01*
X76463713Y-58477229D01*
X76465622Y-58477366D01*
X76467535Y-58477386D01*
X76467546Y-58477386D01*
X76481748Y-58477531D01*
X76481749Y-58477531D01*
X76490759Y-58477623D01*
X76578769Y-58452753D01*
X76584975Y-58449364D01*
X76584978Y-58449363D01*
X76630849Y-58424315D01*
X76630918Y-58424442D01*
X76643124Y-58415952D01*
X76652384Y-58411704D01*
X76652387Y-58411702D01*
X76658818Y-58408752D01*
X76784104Y-58312617D01*
X76794591Y-58305383D01*
X76795045Y-58305103D01*
X76795047Y-58305101D01*
X76799349Y-58302444D01*
X76834261Y-58272193D01*
X76858250Y-58238505D01*
X76914057Y-58194618D01*
X76984732Y-58187869D01*
X77047837Y-58220401D01*
G37*
G04 #@! TD.AperFunction*
G04 #@! TA.AperFunction,Conductor*
G36*
X111591837Y-57966401D02*
G01*
X111603804Y-57979792D01*
X111606639Y-57984552D01*
X111654825Y-58035086D01*
X111660247Y-58038803D01*
X111660248Y-58038804D01*
X111671499Y-58046518D01*
X111684157Y-58057956D01*
X111683741Y-58058498D01*
X111809182Y-58154752D01*
X111812169Y-58156557D01*
X111812177Y-58156562D01*
X111828315Y-58166311D01*
X111848167Y-58178304D01*
X111848990Y-58178477D01*
X111849022Y-58178495D01*
X111849013Y-58178515D01*
X111911198Y-58206915D01*
X111913009Y-58207612D01*
X111913017Y-58207615D01*
X111926251Y-58212706D01*
X111926254Y-58212707D01*
X111934662Y-58215941D01*
X111982529Y-58219855D01*
X112024770Y-58223310D01*
X112091034Y-58248798D01*
X112132999Y-58306065D01*
X112140500Y-58348891D01*
X112140500Y-58491179D01*
X112120498Y-58559300D01*
X112066842Y-58605793D01*
X112006239Y-58616727D01*
X112006234Y-58616850D01*
X112005683Y-58616828D01*
X112005514Y-58616858D01*
X112004298Y-58616771D01*
X112004287Y-58616771D01*
X112002378Y-58616634D01*
X112000465Y-58616614D01*
X112000454Y-58616614D01*
X111986252Y-58616469D01*
X111986251Y-58616469D01*
X111977241Y-58616377D01*
X111889231Y-58641247D01*
X111883025Y-58644636D01*
X111883022Y-58644637D01*
X111837151Y-58669685D01*
X111837082Y-58669558D01*
X111824876Y-58678048D01*
X111815616Y-58682296D01*
X111815613Y-58682298D01*
X111809182Y-58685248D01*
X111803571Y-58689553D01*
X111803570Y-58689554D01*
X111683899Y-58781381D01*
X111673412Y-58788615D01*
X111668651Y-58791556D01*
X111633739Y-58821807D01*
X111629387Y-58827919D01*
X111609750Y-58855495D01*
X111553943Y-58899382D01*
X111483268Y-58906131D01*
X111420163Y-58873599D01*
X111408196Y-58860208D01*
X111405361Y-58855448D01*
X111357175Y-58804914D01*
X111351752Y-58801196D01*
X111340501Y-58793482D01*
X111327843Y-58782044D01*
X111328259Y-58781502D01*
X111321524Y-58776334D01*
X111321515Y-58776326D01*
X111237440Y-58711813D01*
X111214182Y-58688555D01*
X111171067Y-58632367D01*
X111154620Y-58603881D01*
X111154181Y-58602821D01*
X111127514Y-58538439D01*
X111119002Y-58506673D01*
X111116962Y-58491179D01*
X111109756Y-58436444D01*
X111109756Y-58403556D01*
X111119002Y-58333326D01*
X111127514Y-58301561D01*
X111154621Y-58236117D01*
X111171067Y-58207633D01*
X111214182Y-58151445D01*
X111237440Y-58128187D01*
X111328101Y-58058620D01*
X111338591Y-58051383D01*
X111339045Y-58051103D01*
X111339047Y-58051101D01*
X111343349Y-58048444D01*
X111378261Y-58018193D01*
X111402250Y-57984505D01*
X111458057Y-57940618D01*
X111528732Y-57933869D01*
X111591837Y-57966401D01*
G37*
G04 #@! TD.AperFunction*
G04 #@! TA.AperFunction,Conductor*
G36*
X77047837Y-56950401D02*
G01*
X77059804Y-56963792D01*
X77062639Y-56968552D01*
X77110825Y-57019086D01*
X77116247Y-57022803D01*
X77116248Y-57022804D01*
X77127499Y-57030518D01*
X77140157Y-57041956D01*
X77139741Y-57042498D01*
X77146476Y-57047666D01*
X77146485Y-57047674D01*
X77230560Y-57112187D01*
X77253818Y-57135445D01*
X77296933Y-57191633D01*
X77313379Y-57220117D01*
X77340486Y-57285561D01*
X77348998Y-57317326D01*
X77358244Y-57387556D01*
X77358244Y-57420444D01*
X77356760Y-57431718D01*
X77348998Y-57490673D01*
X77340486Y-57522439D01*
X77314368Y-57585495D01*
X77313380Y-57587881D01*
X77296933Y-57616367D01*
X77253818Y-57672555D01*
X77230560Y-57695813D01*
X77139899Y-57765380D01*
X77129412Y-57772615D01*
X77124651Y-57775556D01*
X77089739Y-57805807D01*
X77069430Y-57834327D01*
X77065750Y-57839495D01*
X77009943Y-57883382D01*
X76939268Y-57890131D01*
X76876163Y-57857599D01*
X76864196Y-57844208D01*
X76861361Y-57839448D01*
X76813175Y-57788914D01*
X76807752Y-57785196D01*
X76796501Y-57777482D01*
X76783843Y-57766044D01*
X76784259Y-57765502D01*
X76658818Y-57669248D01*
X76655831Y-57667443D01*
X76655823Y-57667438D01*
X76639685Y-57657689D01*
X76619833Y-57645696D01*
X76619010Y-57645523D01*
X76618978Y-57645505D01*
X76618987Y-57645485D01*
X76556802Y-57617085D01*
X76554991Y-57616388D01*
X76554983Y-57616385D01*
X76541749Y-57611294D01*
X76541746Y-57611293D01*
X76533338Y-57608059D01*
X76485471Y-57604145D01*
X76443230Y-57600690D01*
X76376966Y-57575202D01*
X76335001Y-57517935D01*
X76327500Y-57475109D01*
X76327500Y-57332821D01*
X76347502Y-57264700D01*
X76401158Y-57218207D01*
X76461761Y-57207273D01*
X76461766Y-57207150D01*
X76462317Y-57207172D01*
X76462486Y-57207142D01*
X76463702Y-57207229D01*
X76463713Y-57207229D01*
X76465622Y-57207366D01*
X76467535Y-57207386D01*
X76467546Y-57207386D01*
X76481748Y-57207531D01*
X76481749Y-57207531D01*
X76490759Y-57207623D01*
X76578769Y-57182753D01*
X76584975Y-57179364D01*
X76584978Y-57179363D01*
X76630849Y-57154315D01*
X76630918Y-57154442D01*
X76643124Y-57145952D01*
X76652384Y-57141704D01*
X76652387Y-57141702D01*
X76658818Y-57138752D01*
X76784104Y-57042617D01*
X76794591Y-57035383D01*
X76795045Y-57035103D01*
X76795047Y-57035101D01*
X76799349Y-57032444D01*
X76834261Y-57002193D01*
X76858250Y-56968505D01*
X76914057Y-56924618D01*
X76984732Y-56917869D01*
X77047837Y-56950401D01*
G37*
G04 #@! TD.AperFunction*
G04 #@! TA.AperFunction,Conductor*
G36*
X111591837Y-56696401D02*
G01*
X111603804Y-56709792D01*
X111606639Y-56714552D01*
X111654825Y-56765086D01*
X111660247Y-56768803D01*
X111660248Y-56768804D01*
X111671499Y-56776518D01*
X111684157Y-56787956D01*
X111683741Y-56788498D01*
X111809182Y-56884752D01*
X111812169Y-56886557D01*
X111812177Y-56886562D01*
X111828315Y-56896311D01*
X111848167Y-56908304D01*
X111848990Y-56908477D01*
X111849022Y-56908495D01*
X111849013Y-56908515D01*
X111911198Y-56936915D01*
X111913009Y-56937612D01*
X111913017Y-56937615D01*
X111926251Y-56942706D01*
X111926254Y-56942707D01*
X111934662Y-56945941D01*
X111982529Y-56949855D01*
X112024770Y-56953310D01*
X112091034Y-56978798D01*
X112132999Y-57036065D01*
X112140500Y-57078891D01*
X112140500Y-57221179D01*
X112120498Y-57289300D01*
X112066842Y-57335793D01*
X112006239Y-57346727D01*
X112006234Y-57346850D01*
X112005683Y-57346828D01*
X112005514Y-57346858D01*
X112004298Y-57346771D01*
X112004287Y-57346771D01*
X112002378Y-57346634D01*
X112000465Y-57346614D01*
X112000454Y-57346614D01*
X111986252Y-57346469D01*
X111986251Y-57346469D01*
X111977241Y-57346377D01*
X111889231Y-57371247D01*
X111883025Y-57374636D01*
X111883022Y-57374637D01*
X111837151Y-57399685D01*
X111837082Y-57399558D01*
X111824876Y-57408048D01*
X111815616Y-57412296D01*
X111815613Y-57412298D01*
X111809182Y-57415248D01*
X111803571Y-57419553D01*
X111803570Y-57419554D01*
X111683899Y-57511381D01*
X111673412Y-57518615D01*
X111668651Y-57521556D01*
X111633739Y-57551807D01*
X111629387Y-57557919D01*
X111609750Y-57585495D01*
X111553943Y-57629382D01*
X111483268Y-57636131D01*
X111420163Y-57603599D01*
X111408196Y-57590208D01*
X111405361Y-57585448D01*
X111357175Y-57534914D01*
X111351752Y-57531196D01*
X111340501Y-57523482D01*
X111327843Y-57512044D01*
X111328259Y-57511502D01*
X111321524Y-57506334D01*
X111321515Y-57506326D01*
X111237440Y-57441813D01*
X111214182Y-57418555D01*
X111171067Y-57362367D01*
X111154620Y-57333881D01*
X111154181Y-57332821D01*
X111127514Y-57268439D01*
X111119002Y-57236673D01*
X111116962Y-57221179D01*
X111109756Y-57166444D01*
X111109756Y-57133556D01*
X111119002Y-57063326D01*
X111127514Y-57031561D01*
X111154621Y-56966117D01*
X111171067Y-56937633D01*
X111214182Y-56881445D01*
X111237440Y-56858187D01*
X111328101Y-56788620D01*
X111338591Y-56781383D01*
X111339045Y-56781103D01*
X111339047Y-56781101D01*
X111343349Y-56778444D01*
X111378261Y-56748193D01*
X111402250Y-56714505D01*
X111458057Y-56670618D01*
X111528732Y-56663869D01*
X111591837Y-56696401D01*
G37*
G04 #@! TD.AperFunction*
G04 #@! TA.AperFunction,Conductor*
G36*
X77047837Y-55680401D02*
G01*
X77059804Y-55693792D01*
X77062639Y-55698552D01*
X77110825Y-55749086D01*
X77116247Y-55752803D01*
X77116248Y-55752804D01*
X77127499Y-55760518D01*
X77140157Y-55771956D01*
X77139741Y-55772498D01*
X77146476Y-55777666D01*
X77146485Y-55777674D01*
X77230560Y-55842187D01*
X77253818Y-55865445D01*
X77296933Y-55921633D01*
X77313379Y-55950117D01*
X77340486Y-56015561D01*
X77348998Y-56047326D01*
X77358244Y-56117556D01*
X77358244Y-56150444D01*
X77356760Y-56161718D01*
X77348998Y-56220673D01*
X77340486Y-56252439D01*
X77314368Y-56315495D01*
X77313380Y-56317881D01*
X77296933Y-56346367D01*
X77253818Y-56402555D01*
X77230560Y-56425813D01*
X77139899Y-56495380D01*
X77129412Y-56502615D01*
X77124651Y-56505556D01*
X77089739Y-56535807D01*
X77069430Y-56564327D01*
X77065750Y-56569495D01*
X77009943Y-56613382D01*
X76939268Y-56620131D01*
X76876163Y-56587599D01*
X76864196Y-56574208D01*
X76861361Y-56569448D01*
X76813175Y-56518914D01*
X76807752Y-56515196D01*
X76796501Y-56507482D01*
X76783843Y-56496044D01*
X76784259Y-56495502D01*
X76658818Y-56399248D01*
X76655831Y-56397443D01*
X76655823Y-56397438D01*
X76639685Y-56387689D01*
X76619833Y-56375696D01*
X76619010Y-56375523D01*
X76618978Y-56375505D01*
X76618987Y-56375485D01*
X76556802Y-56347085D01*
X76554991Y-56346388D01*
X76554983Y-56346385D01*
X76541749Y-56341294D01*
X76541746Y-56341293D01*
X76533338Y-56338059D01*
X76485471Y-56334145D01*
X76443230Y-56330690D01*
X76376966Y-56305202D01*
X76335001Y-56247935D01*
X76327500Y-56205109D01*
X76327500Y-56062821D01*
X76347502Y-55994700D01*
X76401158Y-55948207D01*
X76461761Y-55937273D01*
X76461766Y-55937150D01*
X76462317Y-55937172D01*
X76462486Y-55937142D01*
X76463702Y-55937229D01*
X76463713Y-55937229D01*
X76465622Y-55937366D01*
X76467535Y-55937386D01*
X76467546Y-55937386D01*
X76481748Y-55937531D01*
X76481749Y-55937531D01*
X76490759Y-55937623D01*
X76578769Y-55912753D01*
X76584975Y-55909364D01*
X76584978Y-55909363D01*
X76630849Y-55884315D01*
X76630918Y-55884442D01*
X76643124Y-55875952D01*
X76652384Y-55871704D01*
X76652387Y-55871702D01*
X76658818Y-55868752D01*
X76784104Y-55772617D01*
X76794591Y-55765383D01*
X76795045Y-55765103D01*
X76795047Y-55765101D01*
X76799349Y-55762444D01*
X76834261Y-55732193D01*
X76858250Y-55698505D01*
X76914057Y-55654618D01*
X76984732Y-55647869D01*
X77047837Y-55680401D01*
G37*
G04 #@! TD.AperFunction*
G04 #@! TA.AperFunction,Conductor*
G36*
X111591837Y-55426401D02*
G01*
X111603804Y-55439792D01*
X111606639Y-55444552D01*
X111654825Y-55495086D01*
X111660247Y-55498803D01*
X111660248Y-55498804D01*
X111671499Y-55506518D01*
X111684157Y-55517956D01*
X111683741Y-55518498D01*
X111809182Y-55614752D01*
X111812169Y-55616557D01*
X111812177Y-55616562D01*
X111828315Y-55626311D01*
X111848167Y-55638304D01*
X111848990Y-55638477D01*
X111849022Y-55638495D01*
X111849013Y-55638515D01*
X111911198Y-55666915D01*
X111913009Y-55667612D01*
X111913017Y-55667615D01*
X111926251Y-55672706D01*
X111926254Y-55672707D01*
X111934662Y-55675941D01*
X111982529Y-55679855D01*
X112024770Y-55683310D01*
X112091034Y-55708798D01*
X112132999Y-55766065D01*
X112140500Y-55808891D01*
X112140500Y-55951179D01*
X112120498Y-56019300D01*
X112066842Y-56065793D01*
X112006239Y-56076727D01*
X112006234Y-56076850D01*
X112005683Y-56076828D01*
X112005514Y-56076858D01*
X112004298Y-56076771D01*
X112004287Y-56076771D01*
X112002378Y-56076634D01*
X112000465Y-56076614D01*
X112000454Y-56076614D01*
X111986252Y-56076469D01*
X111986251Y-56076469D01*
X111977241Y-56076377D01*
X111889231Y-56101247D01*
X111883025Y-56104636D01*
X111883022Y-56104637D01*
X111837151Y-56129685D01*
X111837082Y-56129558D01*
X111824876Y-56138048D01*
X111815616Y-56142296D01*
X111815613Y-56142298D01*
X111809182Y-56145248D01*
X111803571Y-56149553D01*
X111803570Y-56149554D01*
X111683899Y-56241381D01*
X111673412Y-56248615D01*
X111668651Y-56251556D01*
X111633739Y-56281807D01*
X111629387Y-56287919D01*
X111609750Y-56315495D01*
X111553943Y-56359382D01*
X111483268Y-56366131D01*
X111420163Y-56333599D01*
X111408196Y-56320208D01*
X111405361Y-56315448D01*
X111357175Y-56264914D01*
X111351752Y-56261196D01*
X111340501Y-56253482D01*
X111327843Y-56242044D01*
X111328259Y-56241502D01*
X111321524Y-56236334D01*
X111321515Y-56236326D01*
X111237440Y-56171813D01*
X111214182Y-56148555D01*
X111171067Y-56092367D01*
X111154620Y-56063881D01*
X111154181Y-56062821D01*
X111127514Y-55998439D01*
X111119002Y-55966673D01*
X111116962Y-55951179D01*
X111109756Y-55896444D01*
X111109756Y-55863556D01*
X111119002Y-55793326D01*
X111127514Y-55761561D01*
X111154621Y-55696117D01*
X111171067Y-55667633D01*
X111214182Y-55611445D01*
X111237440Y-55588187D01*
X111328101Y-55518620D01*
X111338591Y-55511383D01*
X111339045Y-55511103D01*
X111339047Y-55511101D01*
X111343349Y-55508444D01*
X111378261Y-55478193D01*
X111402250Y-55444505D01*
X111458057Y-55400618D01*
X111528732Y-55393869D01*
X111591837Y-55426401D01*
G37*
G04 #@! TD.AperFunction*
G04 #@! TA.AperFunction,Conductor*
G36*
X77078180Y-54351602D02*
G01*
X77114277Y-54399442D01*
X77144985Y-54470818D01*
X77149156Y-54476530D01*
X77149157Y-54476532D01*
X77165944Y-54499522D01*
X77186852Y-54528156D01*
X77227718Y-54570005D01*
X77231295Y-54572750D01*
X77234654Y-54575731D01*
X77234396Y-54576022D01*
X77253813Y-54595438D01*
X77296937Y-54651637D01*
X77313379Y-54680117D01*
X77340486Y-54745561D01*
X77348998Y-54777326D01*
X77358244Y-54847556D01*
X77358244Y-54880444D01*
X77351047Y-54935109D01*
X77348998Y-54950673D01*
X77340486Y-54982439D01*
X77314368Y-55045495D01*
X77313380Y-55047881D01*
X77296933Y-55076367D01*
X77253818Y-55132555D01*
X77230560Y-55155813D01*
X77139899Y-55225380D01*
X77129412Y-55232615D01*
X77124651Y-55235556D01*
X77089739Y-55265807D01*
X77069430Y-55294327D01*
X77065750Y-55299495D01*
X77009943Y-55343382D01*
X76939268Y-55350131D01*
X76876163Y-55317599D01*
X76864196Y-55304208D01*
X76861361Y-55299448D01*
X76813175Y-55248914D01*
X76807752Y-55245196D01*
X76796501Y-55237482D01*
X76783843Y-55226044D01*
X76784259Y-55225502D01*
X76658818Y-55129248D01*
X76655831Y-55127443D01*
X76655823Y-55127438D01*
X76639685Y-55117689D01*
X76619833Y-55105696D01*
X76619010Y-55105523D01*
X76618978Y-55105505D01*
X76618987Y-55105485D01*
X76556802Y-55077085D01*
X76554991Y-55076388D01*
X76554983Y-55076385D01*
X76541749Y-55071294D01*
X76541746Y-55071293D01*
X76533338Y-55068059D01*
X76485471Y-55064145D01*
X76443230Y-55060690D01*
X76376966Y-55035202D01*
X76335001Y-54977935D01*
X76327500Y-54935109D01*
X76327500Y-54792821D01*
X76347502Y-54724700D01*
X76401158Y-54678207D01*
X76461761Y-54667273D01*
X76461766Y-54667150D01*
X76462317Y-54667172D01*
X76462486Y-54667142D01*
X76463702Y-54667229D01*
X76463713Y-54667229D01*
X76465622Y-54667366D01*
X76467535Y-54667386D01*
X76467546Y-54667386D01*
X76481748Y-54667531D01*
X76481749Y-54667531D01*
X76490759Y-54667623D01*
X76578769Y-54642753D01*
X76584975Y-54639364D01*
X76584978Y-54639363D01*
X76630849Y-54614315D01*
X76630918Y-54614442D01*
X76643124Y-54605952D01*
X76652384Y-54601704D01*
X76652387Y-54601702D01*
X76658818Y-54598752D01*
X76777689Y-54507539D01*
X76789458Y-54499522D01*
X76792753Y-54497541D01*
X76792757Y-54497538D01*
X76796775Y-54495122D01*
X76828441Y-54468976D01*
X76884528Y-54395883D01*
X76887488Y-54389401D01*
X76890558Y-54384297D01*
X76942808Y-54336230D01*
X77012751Y-54324042D01*
X77078180Y-54351602D01*
G37*
G04 #@! TD.AperFunction*
G04 #@! TA.AperFunction,Conductor*
G36*
X110242121Y-53194871D02*
G01*
X110256765Y-53201446D01*
X110264232Y-53206961D01*
X110292258Y-53216803D01*
X110381252Y-53248056D01*
X110381254Y-53248057D01*
X110388500Y-53250601D01*
X110396144Y-53251324D01*
X110396146Y-53251324D01*
X110403532Y-53252022D01*
X110419167Y-53253500D01*
X110721347Y-53253500D01*
X111023832Y-53253499D01*
X111026491Y-53253248D01*
X111095430Y-53270007D01*
X111144399Y-53321413D01*
X111157300Y-53362650D01*
X111174956Y-53496762D01*
X111235464Y-53642841D01*
X111286162Y-53708912D01*
X111323680Y-53757806D01*
X111331718Y-53768282D01*
X111457159Y-53864536D01*
X111603238Y-53925044D01*
X111611426Y-53926122D01*
X111631175Y-53928722D01*
X111760000Y-53945682D01*
X111768188Y-53944604D01*
X111908574Y-53926122D01*
X111916762Y-53925044D01*
X111966282Y-53904532D01*
X112036871Y-53896943D01*
X112100358Y-53928722D01*
X112136586Y-53989780D01*
X112140500Y-54020941D01*
X112140500Y-54681179D01*
X112120498Y-54749300D01*
X112066842Y-54795793D01*
X112006239Y-54806727D01*
X112006234Y-54806850D01*
X112005683Y-54806828D01*
X112005514Y-54806858D01*
X112004298Y-54806771D01*
X112004287Y-54806771D01*
X112002378Y-54806634D01*
X112000465Y-54806614D01*
X112000454Y-54806614D01*
X111986252Y-54806469D01*
X111986251Y-54806469D01*
X111977241Y-54806377D01*
X111889231Y-54831247D01*
X111883025Y-54834636D01*
X111883022Y-54834637D01*
X111837151Y-54859685D01*
X111837082Y-54859558D01*
X111824876Y-54868048D01*
X111815616Y-54872296D01*
X111815613Y-54872298D01*
X111809182Y-54875248D01*
X111803571Y-54879553D01*
X111803570Y-54879554D01*
X111683899Y-54971381D01*
X111673412Y-54978615D01*
X111668651Y-54981556D01*
X111633739Y-55011807D01*
X111629387Y-55017919D01*
X111609750Y-55045495D01*
X111553943Y-55089382D01*
X111483268Y-55096131D01*
X111420163Y-55063599D01*
X111408196Y-55050208D01*
X111405361Y-55045448D01*
X111357175Y-54994914D01*
X111351752Y-54991196D01*
X111340501Y-54983482D01*
X111327843Y-54972044D01*
X111328259Y-54971502D01*
X111321524Y-54966334D01*
X111321515Y-54966326D01*
X111237440Y-54901813D01*
X111214182Y-54878555D01*
X111171067Y-54822367D01*
X111154620Y-54793881D01*
X111154181Y-54792821D01*
X111127514Y-54728439D01*
X111119002Y-54696673D01*
X111116962Y-54681179D01*
X111109756Y-54626444D01*
X111109756Y-54593556D01*
X111118366Y-54528156D01*
X111119002Y-54523329D01*
X111127515Y-54491560D01*
X111159846Y-54413504D01*
X111165289Y-54402468D01*
X111165222Y-54402434D01*
X111166818Y-54399273D01*
X111168587Y-54396208D01*
X111186999Y-54353999D01*
X111187241Y-54350766D01*
X111188400Y-54347278D01*
X111196917Y-54327060D01*
X111197485Y-54325712D01*
X111204057Y-54307838D01*
X111211511Y-54216686D01*
X111201407Y-54146412D01*
X111196315Y-54121797D01*
X111153306Y-54041084D01*
X111106813Y-53987428D01*
X111089220Y-53969473D01*
X111009402Y-53924826D01*
X110975937Y-53915000D01*
X110945604Y-53906093D01*
X110945600Y-53906092D01*
X110941281Y-53904824D01*
X110936833Y-53904184D01*
X110936826Y-53904183D01*
X110887833Y-53897139D01*
X110887826Y-53897138D01*
X110883385Y-53896500D01*
X109937234Y-53896500D01*
X109869113Y-53876498D01*
X109822620Y-53822842D01*
X109812312Y-53754054D01*
X109813551Y-53744647D01*
X109825682Y-53652500D01*
X109816882Y-53585657D01*
X109827821Y-53515510D01*
X109852709Y-53480117D01*
X110108994Y-53223832D01*
X110171306Y-53189806D01*
X110242121Y-53194871D01*
G37*
G04 #@! TD.AperFunction*
G04 #@! TA.AperFunction,Conductor*
G36*
X93922121Y-43327502D02*
G01*
X93968614Y-43381158D01*
X93980000Y-43433500D01*
X93980000Y-61596000D01*
X93959998Y-61664121D01*
X93906342Y-61710614D01*
X93854000Y-61722000D01*
X87248000Y-61722000D01*
X87179879Y-61701998D01*
X87133386Y-61648342D01*
X87122000Y-61596000D01*
X87122000Y-59749413D01*
X87145422Y-59676244D01*
X87147935Y-59672721D01*
X87155293Y-59665350D01*
X87206536Y-59560518D01*
X87216500Y-59492218D01*
X87216500Y-59125782D01*
X87206358Y-59056888D01*
X87154932Y-58952145D01*
X87147562Y-58944788D01*
X87145549Y-58941976D01*
X87122000Y-58868629D01*
X87122000Y-58674000D01*
X84962000Y-58674000D01*
X84893879Y-58653998D01*
X84847386Y-58600342D01*
X84836000Y-58548000D01*
X84836000Y-53456150D01*
X84856002Y-53388029D01*
X84885296Y-53356187D01*
X85003736Y-53265305D01*
X85010282Y-53260282D01*
X85017711Y-53250601D01*
X85038059Y-53224082D01*
X85106536Y-53134841D01*
X85167044Y-52988762D01*
X85187682Y-52832000D01*
X85167044Y-52675238D01*
X85106536Y-52529159D01*
X85101508Y-52522606D01*
X85101506Y-52522603D01*
X85045565Y-52449699D01*
X85019964Y-52383479D01*
X85034229Y-52313930D01*
X85068823Y-52273033D01*
X85120398Y-52233458D01*
X85120402Y-52233454D01*
X85126948Y-52228431D01*
X85223202Y-52102990D01*
X85283710Y-51956911D01*
X85304348Y-51800149D01*
X85283710Y-51643387D01*
X85223202Y-51497308D01*
X85126948Y-51371867D01*
X85001507Y-51275613D01*
X84913782Y-51239276D01*
X84858501Y-51194728D01*
X84836000Y-51122867D01*
X84836000Y-50754181D01*
X84856002Y-50686060D01*
X84909658Y-50639567D01*
X84945554Y-50629259D01*
X84984574Y-50624122D01*
X84992762Y-50623044D01*
X85138841Y-50562536D01*
X85264282Y-50466282D01*
X85360536Y-50340841D01*
X85421044Y-50194762D01*
X85441682Y-50038000D01*
X85421044Y-49881238D01*
X85360536Y-49735159D01*
X85264282Y-49609718D01*
X85138841Y-49513464D01*
X85133550Y-49511272D01*
X85085364Y-49460738D01*
X85071926Y-49391025D01*
X85098312Y-49325114D01*
X85133224Y-49294863D01*
X85138841Y-49292536D01*
X85264282Y-49196282D01*
X85360536Y-49070841D01*
X85421044Y-48924762D01*
X85441682Y-48768000D01*
X85421044Y-48611238D01*
X85360536Y-48465159D01*
X85264282Y-48339718D01*
X85138841Y-48243464D01*
X85133550Y-48241272D01*
X85085364Y-48190738D01*
X85071926Y-48121025D01*
X85098312Y-48055114D01*
X85133224Y-48024863D01*
X85138841Y-48022536D01*
X85264282Y-47926282D01*
X85360536Y-47800841D01*
X85421044Y-47654762D01*
X85441682Y-47498000D01*
X85421044Y-47341238D01*
X85360536Y-47195159D01*
X85264282Y-47069718D01*
X85138841Y-46973464D01*
X85133550Y-46971272D01*
X85085364Y-46920738D01*
X85071926Y-46851025D01*
X85098312Y-46785114D01*
X85133224Y-46754863D01*
X85138841Y-46752536D01*
X85264282Y-46656282D01*
X85360536Y-46530841D01*
X85421044Y-46384762D01*
X85441682Y-46228000D01*
X85421044Y-46071238D01*
X85360536Y-45925159D01*
X85264282Y-45799718D01*
X85138841Y-45703464D01*
X85133550Y-45701272D01*
X85085364Y-45650738D01*
X85071926Y-45581025D01*
X85098312Y-45515114D01*
X85133224Y-45484863D01*
X85138841Y-45482536D01*
X85264282Y-45386282D01*
X85360536Y-45260841D01*
X85421044Y-45114762D01*
X85441682Y-44958000D01*
X85421044Y-44801238D01*
X85360536Y-44655159D01*
X85264282Y-44529718D01*
X85138841Y-44433464D01*
X84992762Y-44372956D01*
X84945554Y-44366741D01*
X84880627Y-44338019D01*
X84841535Y-44278754D01*
X84836000Y-44241819D01*
X84836000Y-43433500D01*
X84856002Y-43365379D01*
X84909658Y-43318886D01*
X84962000Y-43307500D01*
X93854000Y-43307500D01*
X93922121Y-43327502D01*
G37*
G04 #@! TD.AperFunction*
G04 #@! TA.AperFunction,Conductor*
G36*
X103447121Y-43327502D02*
G01*
X103493614Y-43381158D01*
X103505000Y-43433500D01*
X103505000Y-52150438D01*
X103484998Y-52218559D01*
X103427219Y-52266846D01*
X103329159Y-52307464D01*
X103203718Y-52403718D01*
X103198695Y-52410264D01*
X103194311Y-52415978D01*
X103107464Y-52529159D01*
X103046956Y-52675238D01*
X103026318Y-52832000D01*
X103046956Y-52988762D01*
X103107464Y-53134841D01*
X103203718Y-53260282D01*
X103329159Y-53356536D01*
X103427219Y-53397154D01*
X103482499Y-53441701D01*
X103505000Y-53513562D01*
X103505000Y-53539655D01*
X103484998Y-53607776D01*
X103468100Y-53628746D01*
X102523749Y-54573096D01*
X102461439Y-54607120D01*
X102434656Y-54610000D01*
X101346000Y-54610000D01*
X101346000Y-55058587D01*
X101322578Y-55131756D01*
X101320065Y-55135279D01*
X101312707Y-55142650D01*
X101261464Y-55247482D01*
X101251500Y-55315782D01*
X101251500Y-55682218D01*
X101261642Y-55751112D01*
X101313068Y-55855855D01*
X101320438Y-55863212D01*
X101322451Y-55866024D01*
X101346000Y-55939371D01*
X101346000Y-56134000D01*
X103379000Y-56134000D01*
X103447121Y-56154002D01*
X103493614Y-56207658D01*
X103505000Y-56260000D01*
X103505000Y-61596000D01*
X103484998Y-61664121D01*
X103431342Y-61710614D01*
X103379000Y-61722000D01*
X94614000Y-61722000D01*
X94545879Y-61701998D01*
X94499386Y-61648342D01*
X94488000Y-61596000D01*
X94488000Y-53390119D01*
X94508002Y-53321998D01*
X94561658Y-53275505D01*
X94631932Y-53265401D01*
X94690704Y-53290156D01*
X94784659Y-53362250D01*
X94930738Y-53422758D01*
X95087500Y-53443396D01*
X95095688Y-53442318D01*
X95236074Y-53423836D01*
X95244262Y-53422758D01*
X95390341Y-53362250D01*
X95515782Y-53265996D01*
X95612036Y-53140555D01*
X95672544Y-52994476D01*
X95693182Y-52837714D01*
X95672544Y-52680952D01*
X95612036Y-52534873D01*
X95515782Y-52409432D01*
X95390341Y-52313178D01*
X95244262Y-52252670D01*
X95199022Y-52246714D01*
X95095688Y-52233110D01*
X95087500Y-52232032D01*
X95079312Y-52233110D01*
X94975979Y-52246714D01*
X94930738Y-52252670D01*
X94784659Y-52313178D01*
X94693654Y-52383009D01*
X94690704Y-52385272D01*
X94624483Y-52410872D01*
X94554935Y-52396607D01*
X94504139Y-52347006D01*
X94488000Y-52285309D01*
X94488000Y-51515918D01*
X94508002Y-51447797D01*
X94561658Y-51401304D01*
X94630446Y-51390996D01*
X94733812Y-51404604D01*
X94742000Y-51405682D01*
X94750188Y-51404604D01*
X94890574Y-51386122D01*
X94898762Y-51385044D01*
X95044841Y-51324536D01*
X95083990Y-51294496D01*
X99616937Y-51294496D01*
X99632732Y-51482590D01*
X99684760Y-51664034D01*
X99771040Y-51831917D01*
X99774865Y-51836743D01*
X99774867Y-51836746D01*
X99884456Y-51975014D01*
X99884460Y-51975019D01*
X99888285Y-51979844D01*
X100032030Y-52102180D01*
X100037408Y-52105186D01*
X100037410Y-52105187D01*
X100087591Y-52133232D01*
X100196800Y-52194267D01*
X100376317Y-52252595D01*
X100563745Y-52274945D01*
X100569880Y-52274473D01*
X100569882Y-52274473D01*
X100745803Y-52260937D01*
X100745807Y-52260936D01*
X100751945Y-52260464D01*
X100757877Y-52258808D01*
X100757881Y-52258807D01*
X100927804Y-52211363D01*
X100927808Y-52211362D01*
X100933748Y-52209703D01*
X101051074Y-52150438D01*
X101096728Y-52127377D01*
X101096730Y-52127376D01*
X101102229Y-52124598D01*
X101250970Y-52008388D01*
X101254996Y-52003724D01*
X101254999Y-52003721D01*
X101370278Y-51870169D01*
X101370279Y-51870167D01*
X101374307Y-51865501D01*
X101467542Y-51701378D01*
X101527123Y-51522272D01*
X101550780Y-51335005D01*
X101551157Y-51308000D01*
X101532738Y-51120145D01*
X101478181Y-50939445D01*
X101389566Y-50772783D01*
X101270266Y-50626508D01*
X101264475Y-50621717D01*
X101129577Y-50510120D01*
X101129574Y-50510118D01*
X101124827Y-50506191D01*
X100958788Y-50416414D01*
X100778474Y-50360597D01*
X100772356Y-50359954D01*
X100772351Y-50359953D01*
X100596881Y-50341511D01*
X100596879Y-50341511D01*
X100590752Y-50340867D01*
X100475125Y-50351390D01*
X100408914Y-50357415D01*
X100408913Y-50357415D01*
X100402773Y-50357974D01*
X100221697Y-50411268D01*
X100054420Y-50498718D01*
X99907316Y-50616993D01*
X99785986Y-50761588D01*
X99695052Y-50926996D01*
X99637978Y-51106917D01*
X99637292Y-51113036D01*
X99637291Y-51113039D01*
X99624364Y-51228282D01*
X99616937Y-51294496D01*
X95083990Y-51294496D01*
X95170282Y-51228282D01*
X95266536Y-51102841D01*
X95327044Y-50956762D01*
X95347682Y-50800000D01*
X95327044Y-50643238D01*
X95322093Y-50631284D01*
X95314572Y-50613129D01*
X95266536Y-50497159D01*
X95170282Y-50371718D01*
X95044841Y-50275464D01*
X94898762Y-50214956D01*
X94742000Y-50194318D01*
X94733812Y-50195396D01*
X94630446Y-50209004D01*
X94560297Y-50198064D01*
X94507199Y-50150936D01*
X94488000Y-50084082D01*
X94488000Y-48754496D01*
X99616937Y-48754496D01*
X99632732Y-48942590D01*
X99684760Y-49124034D01*
X99771040Y-49291917D01*
X99774865Y-49296743D01*
X99774867Y-49296746D01*
X99884456Y-49435014D01*
X99884460Y-49435019D01*
X99888285Y-49439844D01*
X100032030Y-49562180D01*
X100037408Y-49565186D01*
X100037410Y-49565187D01*
X100114415Y-49608224D01*
X100196800Y-49654267D01*
X100376317Y-49712595D01*
X100563745Y-49734945D01*
X100569880Y-49734473D01*
X100569882Y-49734473D01*
X100745803Y-49720937D01*
X100745807Y-49720936D01*
X100751945Y-49720464D01*
X100757877Y-49718808D01*
X100757881Y-49718807D01*
X100927804Y-49671363D01*
X100927808Y-49671362D01*
X100933748Y-49669703D01*
X101013297Y-49629520D01*
X101096728Y-49587377D01*
X101096730Y-49587376D01*
X101102229Y-49584598D01*
X101250970Y-49468388D01*
X101254996Y-49463724D01*
X101254999Y-49463721D01*
X101370278Y-49330169D01*
X101370279Y-49330167D01*
X101374307Y-49325501D01*
X101467542Y-49161378D01*
X101527123Y-48982272D01*
X101550780Y-48795005D01*
X101551157Y-48768000D01*
X101532738Y-48580145D01*
X101478181Y-48399445D01*
X101389566Y-48232783D01*
X101270266Y-48086508D01*
X101264475Y-48081717D01*
X101129577Y-47970120D01*
X101129574Y-47970118D01*
X101124827Y-47966191D01*
X100958788Y-47876414D01*
X100778474Y-47820597D01*
X100772356Y-47819954D01*
X100772351Y-47819953D01*
X100596881Y-47801511D01*
X100596879Y-47801511D01*
X100590752Y-47800867D01*
X100475125Y-47811390D01*
X100408914Y-47817415D01*
X100408913Y-47817415D01*
X100402773Y-47817974D01*
X100221697Y-47871268D01*
X100054420Y-47958718D01*
X99907316Y-48076993D01*
X99785986Y-48221588D01*
X99695052Y-48386996D01*
X99637978Y-48566917D01*
X99616937Y-48754496D01*
X94488000Y-48754496D01*
X94488000Y-46214496D01*
X99616937Y-46214496D01*
X99632732Y-46402590D01*
X99684760Y-46584034D01*
X99771040Y-46751917D01*
X99774865Y-46756743D01*
X99774867Y-46756746D01*
X99884456Y-46895014D01*
X99884460Y-46895019D01*
X99888285Y-46899844D01*
X100032030Y-47022180D01*
X100037408Y-47025186D01*
X100037410Y-47025187D01*
X100114415Y-47068224D01*
X100196800Y-47114267D01*
X100376317Y-47172595D01*
X100563745Y-47194945D01*
X100569880Y-47194473D01*
X100569882Y-47194473D01*
X100745803Y-47180937D01*
X100745807Y-47180936D01*
X100751945Y-47180464D01*
X100757877Y-47178808D01*
X100757881Y-47178807D01*
X100927804Y-47131363D01*
X100927808Y-47131362D01*
X100933748Y-47129703D01*
X101013297Y-47089520D01*
X101096728Y-47047377D01*
X101096730Y-47047376D01*
X101102229Y-47044598D01*
X101250970Y-46928388D01*
X101254996Y-46923724D01*
X101254999Y-46923721D01*
X101370278Y-46790169D01*
X101370279Y-46790167D01*
X101374307Y-46785501D01*
X101467542Y-46621378D01*
X101527123Y-46442272D01*
X101550780Y-46255005D01*
X101551157Y-46228000D01*
X101532738Y-46040145D01*
X101478181Y-45859445D01*
X101389566Y-45692783D01*
X101270266Y-45546508D01*
X101262259Y-45539884D01*
X101129577Y-45430120D01*
X101129574Y-45430118D01*
X101124827Y-45426191D01*
X100958788Y-45336414D01*
X100778474Y-45280597D01*
X100772356Y-45279954D01*
X100772351Y-45279953D01*
X100596881Y-45261511D01*
X100596879Y-45261511D01*
X100590752Y-45260867D01*
X100475125Y-45271390D01*
X100408914Y-45277415D01*
X100408913Y-45277415D01*
X100402773Y-45277974D01*
X100221697Y-45331268D01*
X100216232Y-45334125D01*
X100116465Y-45386282D01*
X100054420Y-45418718D01*
X99907316Y-45536993D01*
X99785986Y-45681588D01*
X99695052Y-45846996D01*
X99637978Y-46026917D01*
X99616937Y-46214496D01*
X94488000Y-46214496D01*
X94488000Y-45580615D01*
X94508002Y-45512494D01*
X94561658Y-45466001D01*
X94631932Y-45455897D01*
X94678276Y-45475420D01*
X94679454Y-45473379D01*
X94686607Y-45477509D01*
X94693159Y-45482536D01*
X94839238Y-45543044D01*
X94996000Y-45563682D01*
X95004188Y-45562604D01*
X95144574Y-45544122D01*
X95152762Y-45543044D01*
X95298841Y-45482536D01*
X95424282Y-45386282D01*
X95520536Y-45260841D01*
X95581044Y-45114762D01*
X95601682Y-44958000D01*
X95581044Y-44801238D01*
X95520536Y-44655159D01*
X95424282Y-44529718D01*
X95298841Y-44433464D01*
X95152762Y-44372956D01*
X94996000Y-44352318D01*
X94839238Y-44372956D01*
X94693159Y-44433464D01*
X94686607Y-44438491D01*
X94679454Y-44442621D01*
X94678073Y-44440229D01*
X94624490Y-44460948D01*
X94554941Y-44446687D01*
X94504142Y-44397088D01*
X94488000Y-44335385D01*
X94488000Y-43433500D01*
X94508002Y-43365379D01*
X94561658Y-43318886D01*
X94614000Y-43307500D01*
X103379000Y-43307500D01*
X103447121Y-43327502D01*
G37*
G04 #@! TD.AperFunction*
G04 #@! TA.AperFunction,Conductor*
G36*
X77675971Y-54122002D02*
G01*
X77707813Y-54151296D01*
X77780430Y-54245932D01*
X77803718Y-54276282D01*
X77929159Y-54372536D01*
X78075238Y-54433044D01*
X78232000Y-54453682D01*
X78240188Y-54452604D01*
X78380574Y-54434122D01*
X78388762Y-54433044D01*
X78534841Y-54372536D01*
X78660282Y-54276282D01*
X78727584Y-54188573D01*
X78784921Y-54146706D01*
X78855792Y-54142484D01*
X78916641Y-54176182D01*
X78916744Y-54176285D01*
X78921767Y-54182831D01*
X79047208Y-54279085D01*
X79193287Y-54339593D01*
X79350049Y-54360231D01*
X79358237Y-54359153D01*
X79498623Y-54340671D01*
X79506811Y-54339593D01*
X79652890Y-54279085D01*
X79778331Y-54182831D01*
X79802530Y-54151294D01*
X79859867Y-54109428D01*
X79902491Y-54102000D01*
X84504500Y-54102000D01*
X84572621Y-54122002D01*
X84619114Y-54175658D01*
X84630500Y-54228000D01*
X84630500Y-58548000D01*
X84635196Y-58591681D01*
X84646582Y-58644023D01*
X84649070Y-58654203D01*
X84692079Y-58734916D01*
X84738572Y-58788572D01*
X84756165Y-58806527D01*
X84813130Y-58838391D01*
X84835983Y-58851174D01*
X84835375Y-58852261D01*
X84884841Y-58892544D01*
X84906915Y-58960021D01*
X84894174Y-59019205D01*
X84875464Y-59057482D01*
X84874052Y-59067162D01*
X84868196Y-59107305D01*
X84865500Y-59125782D01*
X84865500Y-59492218D01*
X84866170Y-59496768D01*
X84866170Y-59496771D01*
X84872140Y-59537325D01*
X84875642Y-59561112D01*
X84923236Y-59658051D01*
X84935304Y-59728012D01*
X84910096Y-59790283D01*
X84816964Y-59911656D01*
X84756456Y-60057735D01*
X84735818Y-60214497D01*
X84756456Y-60371259D01*
X84816964Y-60517338D01*
X84913218Y-60642779D01*
X84919764Y-60647802D01*
X85038659Y-60739033D01*
X85037782Y-60740175D01*
X85080640Y-60785121D01*
X85094078Y-60854834D01*
X85077938Y-60905328D01*
X85073464Y-60911159D01*
X85070305Y-60918785D01*
X85070304Y-60918787D01*
X85056625Y-60951812D01*
X85012956Y-61057238D01*
X84992318Y-61214000D01*
X85012956Y-61370762D01*
X85073464Y-61516841D01*
X85078491Y-61523392D01*
X85155780Y-61624117D01*
X85169718Y-61642282D01*
X85176264Y-61647305D01*
X85205918Y-61670059D01*
X85295159Y-61738536D01*
X85441238Y-61799044D01*
X85598000Y-61819682D01*
X85606188Y-61818604D01*
X85746574Y-61800122D01*
X85754762Y-61799044D01*
X85900841Y-61738536D01*
X85990082Y-61670059D01*
X86019736Y-61647305D01*
X86026282Y-61642282D01*
X86040221Y-61624117D01*
X86117509Y-61523392D01*
X86122536Y-61516841D01*
X86183044Y-61370762D01*
X86203682Y-61214000D01*
X86183044Y-61057238D01*
X86122536Y-60911159D01*
X86026282Y-60785718D01*
X85900841Y-60689464D01*
X85901718Y-60688322D01*
X85858860Y-60643376D01*
X85845422Y-60573663D01*
X85861562Y-60523169D01*
X85866036Y-60517338D01*
X85869197Y-60509708D01*
X85923384Y-60378888D01*
X85926544Y-60371259D01*
X85947182Y-60214497D01*
X85938382Y-60147656D01*
X85949321Y-60077508D01*
X85974209Y-60042115D01*
X86169919Y-59846405D01*
X86232231Y-59812379D01*
X86259014Y-59809500D01*
X86790500Y-59809500D01*
X86858621Y-59829502D01*
X86905114Y-59883158D01*
X86916500Y-59935500D01*
X86916500Y-61596000D01*
X86916860Y-61599346D01*
X86916860Y-61599351D01*
X86919523Y-61624117D01*
X86921196Y-61639681D01*
X86932582Y-61692023D01*
X86935070Y-61702203D01*
X86978079Y-61782916D01*
X86982711Y-61788262D01*
X86982712Y-61788263D01*
X86990672Y-61797449D01*
X87024572Y-61836572D01*
X87042165Y-61854527D01*
X87121983Y-61899174D01*
X87142588Y-61905224D01*
X87185781Y-61917907D01*
X87185785Y-61917908D01*
X87190104Y-61919176D01*
X87194552Y-61919816D01*
X87194559Y-61919817D01*
X87243552Y-61926861D01*
X87243559Y-61926862D01*
X87248000Y-61927500D01*
X93854000Y-61927500D01*
X93857346Y-61927140D01*
X93857351Y-61927140D01*
X93894317Y-61923166D01*
X93894323Y-61923165D01*
X93897681Y-61922804D01*
X93950023Y-61911418D01*
X93950717Y-61911248D01*
X93950736Y-61911244D01*
X93951870Y-61910967D01*
X93960203Y-61908930D01*
X94040916Y-61865921D01*
X94054066Y-61854527D01*
X94093111Y-61820694D01*
X94093112Y-61820693D01*
X94094572Y-61819428D01*
X94112527Y-61801835D01*
X94123718Y-61781828D01*
X94174429Y-61732140D01*
X94243954Y-61717757D01*
X94310218Y-61743245D01*
X94337550Y-61772009D01*
X94340750Y-61776669D01*
X94344079Y-61782916D01*
X94348711Y-61788262D01*
X94348712Y-61788263D01*
X94356672Y-61797449D01*
X94390572Y-61836572D01*
X94408165Y-61854527D01*
X94487983Y-61899174D01*
X94508588Y-61905224D01*
X94551781Y-61917907D01*
X94551785Y-61917908D01*
X94556104Y-61919176D01*
X94560552Y-61919816D01*
X94560559Y-61919817D01*
X94609552Y-61926861D01*
X94609559Y-61926862D01*
X94614000Y-61927500D01*
X103379000Y-61927500D01*
X103382346Y-61927140D01*
X103382351Y-61927140D01*
X103419317Y-61923166D01*
X103419323Y-61923165D01*
X103422681Y-61922804D01*
X103475023Y-61911418D01*
X103475717Y-61911248D01*
X103475736Y-61911244D01*
X103476870Y-61910967D01*
X103485203Y-61908930D01*
X103565916Y-61865921D01*
X103579066Y-61854527D01*
X103618111Y-61820694D01*
X103618112Y-61820693D01*
X103619572Y-61819428D01*
X103637527Y-61801835D01*
X103682174Y-61722017D01*
X103696600Y-61672886D01*
X103700907Y-61658219D01*
X103700908Y-61658215D01*
X103702176Y-61653896D01*
X103703124Y-61647305D01*
X103709861Y-61600448D01*
X103709862Y-61600441D01*
X103710500Y-61596000D01*
X103710500Y-56260000D01*
X103705804Y-56216319D01*
X103694418Y-56163977D01*
X103691930Y-56153797D01*
X103648921Y-56073084D01*
X103624059Y-56044391D01*
X103603694Y-56020889D01*
X103603693Y-56020888D01*
X103602428Y-56019428D01*
X103584835Y-56001473D01*
X103581141Y-55999407D01*
X103540602Y-55944088D01*
X103536257Y-55873225D01*
X103545896Y-55845933D01*
X103592536Y-55750518D01*
X103599329Y-55703952D01*
X103601840Y-55686744D01*
X103601840Y-55686740D01*
X103602500Y-55682218D01*
X103602500Y-55315782D01*
X103596367Y-55274117D01*
X103593784Y-55256574D01*
X103593784Y-55256573D01*
X103592358Y-55246888D01*
X103563083Y-55187262D01*
X103545522Y-55151493D01*
X103545521Y-55151491D01*
X103540932Y-55142145D01*
X103458350Y-55059707D01*
X103353518Y-55008464D01*
X103306266Y-55001571D01*
X103241747Y-54971946D01*
X103203486Y-54912141D01*
X103203632Y-54841144D01*
X103235360Y-54787796D01*
X103884251Y-54138905D01*
X103946563Y-54104879D01*
X103973346Y-54102000D01*
X108776598Y-54102000D01*
X108844719Y-54122002D01*
X108853301Y-54128036D01*
X108917159Y-54177036D01*
X109063238Y-54237544D01*
X109071426Y-54238622D01*
X109141619Y-54247863D01*
X109220000Y-54258182D01*
X109228188Y-54257104D01*
X109368574Y-54238622D01*
X109376762Y-54237544D01*
X109522841Y-54177036D01*
X109586698Y-54128037D01*
X109652919Y-54102437D01*
X109663402Y-54102000D01*
X110883385Y-54102000D01*
X110951506Y-54122002D01*
X110997999Y-54175658D01*
X111008103Y-54245932D01*
X110988580Y-54292276D01*
X110990621Y-54293454D01*
X110986491Y-54300607D01*
X110981464Y-54307159D01*
X110920956Y-54453238D01*
X110900318Y-54610000D01*
X110920956Y-54766762D01*
X110981464Y-54912841D01*
X111077718Y-55038282D01*
X111203159Y-55134536D01*
X111208450Y-55136728D01*
X111256636Y-55187262D01*
X111270074Y-55256975D01*
X111243688Y-55322886D01*
X111208776Y-55353137D01*
X111203159Y-55355464D01*
X111117602Y-55421114D01*
X111091345Y-55441262D01*
X111077718Y-55451718D01*
X111072695Y-55458264D01*
X111056026Y-55479987D01*
X110981464Y-55577159D01*
X110920956Y-55723238D01*
X110900318Y-55880000D01*
X110920956Y-56036762D01*
X110981464Y-56182841D01*
X111077718Y-56308282D01*
X111203159Y-56404536D01*
X111208450Y-56406728D01*
X111256636Y-56457262D01*
X111270074Y-56526975D01*
X111243688Y-56592886D01*
X111208776Y-56623137D01*
X111203159Y-56625464D01*
X111117602Y-56691114D01*
X111091345Y-56711262D01*
X111077718Y-56721718D01*
X111072695Y-56728264D01*
X111056026Y-56749987D01*
X110981464Y-56847159D01*
X110920956Y-56993238D01*
X110900318Y-57150000D01*
X110920956Y-57306762D01*
X110981464Y-57452841D01*
X111077718Y-57578282D01*
X111203159Y-57674536D01*
X111208450Y-57676728D01*
X111256636Y-57727262D01*
X111270074Y-57796975D01*
X111243688Y-57862886D01*
X111208776Y-57893137D01*
X111203159Y-57895464D01*
X111117602Y-57961114D01*
X111091345Y-57981262D01*
X111077718Y-57991718D01*
X111072695Y-57998264D01*
X111056026Y-58019987D01*
X110981464Y-58117159D01*
X110920956Y-58263238D01*
X110900318Y-58420000D01*
X110920956Y-58576762D01*
X110981464Y-58722841D01*
X111077718Y-58848282D01*
X111203159Y-58944536D01*
X111208450Y-58946728D01*
X111256636Y-58997262D01*
X111270074Y-59066975D01*
X111243688Y-59132886D01*
X111208776Y-59163137D01*
X111203159Y-59165464D01*
X111117602Y-59231114D01*
X111091345Y-59251262D01*
X111077718Y-59261718D01*
X111072695Y-59268264D01*
X111056026Y-59289987D01*
X110981464Y-59387159D01*
X110920956Y-59533238D01*
X110919878Y-59541426D01*
X110917286Y-59561112D01*
X110900318Y-59690000D01*
X110920956Y-59846762D01*
X110981464Y-59992841D01*
X111077718Y-60118282D01*
X111203159Y-60214536D01*
X111208450Y-60216728D01*
X111256636Y-60267262D01*
X111270074Y-60336975D01*
X111243688Y-60402886D01*
X111208776Y-60433137D01*
X111203159Y-60435464D01*
X111100101Y-60514543D01*
X111091345Y-60521262D01*
X111077718Y-60531718D01*
X111072695Y-60538264D01*
X111056026Y-60559987D01*
X110981464Y-60657159D01*
X110920956Y-60803238D01*
X110900318Y-60960000D01*
X110920956Y-61116762D01*
X110981464Y-61262841D01*
X111077718Y-61388282D01*
X111203159Y-61484536D01*
X111208450Y-61486728D01*
X111256636Y-61537262D01*
X111270074Y-61606975D01*
X111243688Y-61672886D01*
X111208776Y-61703137D01*
X111203159Y-61705464D01*
X111153922Y-61743245D01*
X111091345Y-61791262D01*
X111077718Y-61801718D01*
X111072695Y-61808264D01*
X111063157Y-61820694D01*
X110981464Y-61927159D01*
X110920956Y-62073238D01*
X110900318Y-62230000D01*
X110920956Y-62386762D01*
X110981464Y-62532841D01*
X111077718Y-62658282D01*
X111203159Y-62754536D01*
X111208450Y-62756728D01*
X111256636Y-62807262D01*
X111270074Y-62876975D01*
X111243688Y-62942886D01*
X111208776Y-62973137D01*
X111203159Y-62975464D01*
X111117602Y-63041114D01*
X111091345Y-63061262D01*
X111077718Y-63071718D01*
X111072695Y-63078264D01*
X111056026Y-63099987D01*
X110981464Y-63197159D01*
X110920956Y-63343238D01*
X110900318Y-63500000D01*
X110920956Y-63656762D01*
X110981464Y-63802841D01*
X111077718Y-63928282D01*
X111203159Y-64024536D01*
X111349238Y-64085044D01*
X111506000Y-64105682D01*
X111514188Y-64104604D01*
X111654574Y-64086122D01*
X111662762Y-64085044D01*
X111808841Y-64024536D01*
X111934282Y-63928282D01*
X111935637Y-63930048D01*
X111987717Y-63901610D01*
X112058532Y-63906675D01*
X112115368Y-63949222D01*
X112140179Y-64015742D01*
X112140500Y-64024731D01*
X112140500Y-73759570D01*
X112120498Y-73827691D01*
X112066842Y-73874184D01*
X111996568Y-73884288D01*
X111931988Y-73854794D01*
X111896988Y-73805032D01*
X111783929Y-73512792D01*
X111783927Y-73512787D01*
X111782794Y-73509859D01*
X111734363Y-73414188D01*
X111605516Y-73159668D01*
X111604097Y-73156865D01*
X111391225Y-72823365D01*
X111146282Y-72512657D01*
X111144107Y-72510401D01*
X111144102Y-72510395D01*
X110946288Y-72305195D01*
X110871691Y-72227812D01*
X110782870Y-72152353D01*
X110572561Y-71973682D01*
X110572553Y-71973675D01*
X110570166Y-71971648D01*
X110376011Y-71837459D01*
X110247263Y-71748475D01*
X110247254Y-71748470D01*
X110244691Y-71746698D01*
X110241956Y-71745185D01*
X110241951Y-71745182D01*
X110034200Y-71630261D01*
X109898482Y-71555186D01*
X109895613Y-71553953D01*
X109895602Y-71553948D01*
X109673141Y-71458372D01*
X109618448Y-71413104D01*
X109596911Y-71345453D01*
X109615368Y-71276897D01*
X109667959Y-71229203D01*
X109721761Y-71216861D01*
X109728000Y-71217682D01*
X109736188Y-71216604D01*
X109740389Y-71216051D01*
X109884762Y-71197044D01*
X110030841Y-71136536D01*
X110156282Y-71040282D01*
X110252536Y-70914841D01*
X110313044Y-70768762D01*
X110333682Y-70612000D01*
X110313044Y-70455238D01*
X110252536Y-70309159D01*
X110156282Y-70183718D01*
X110030841Y-70087464D01*
X109884762Y-70026956D01*
X109826085Y-70019231D01*
X109736188Y-70007396D01*
X109728000Y-70006318D01*
X109629916Y-70019231D01*
X109559768Y-70008292D01*
X109524375Y-69983404D01*
X109329905Y-69788934D01*
X109295879Y-69726622D01*
X109293000Y-69699839D01*
X109293000Y-69624868D01*
X109313002Y-69556747D01*
X109366658Y-69510254D01*
X109377230Y-69505993D01*
X109499768Y-69462961D01*
X109507343Y-69457366D01*
X109507345Y-69457365D01*
X109598140Y-69390303D01*
X109605711Y-69384711D01*
X109632304Y-69348707D01*
X109678365Y-69286345D01*
X109678366Y-69286343D01*
X109683961Y-69278768D01*
X109687507Y-69268673D01*
X109725056Y-69161748D01*
X109725057Y-69161746D01*
X109727601Y-69154500D01*
X109728325Y-69146849D01*
X109729560Y-69133778D01*
X109755886Y-69067843D01*
X109813680Y-69026607D01*
X109884593Y-69023163D01*
X109946111Y-69058604D01*
X109978702Y-69121678D01*
X109980441Y-69133778D01*
X109982399Y-69154500D01*
X109984944Y-69161748D01*
X109984945Y-69161751D01*
X110022494Y-69268673D01*
X110026039Y-69278768D01*
X110031634Y-69286343D01*
X110031635Y-69286345D01*
X110077696Y-69348707D01*
X110104289Y-69384711D01*
X110111860Y-69390303D01*
X110202655Y-69457365D01*
X110202657Y-69457366D01*
X110210232Y-69462961D01*
X110219122Y-69466083D01*
X110307749Y-69497207D01*
X110365394Y-69538650D01*
X110391482Y-69604680D01*
X110392000Y-69616089D01*
X110392000Y-69803790D01*
X110391520Y-69814772D01*
X110389885Y-69833464D01*
X110388236Y-69852307D01*
X110396887Y-69884591D01*
X110397991Y-69888710D01*
X110400370Y-69899442D01*
X110406912Y-69936545D01*
X110412423Y-69946090D01*
X110413615Y-69949366D01*
X110415092Y-69952534D01*
X110417946Y-69963184D01*
X110424270Y-69972215D01*
X110439555Y-69994044D01*
X110445461Y-70003315D01*
X110457567Y-70024282D01*
X110464306Y-70035955D01*
X110476948Y-70046563D01*
X110493182Y-70060185D01*
X110501285Y-70067611D01*
X110619291Y-70185617D01*
X110653317Y-70247929D01*
X110655118Y-70291157D01*
X110646318Y-70358000D01*
X110666956Y-70514762D01*
X110727464Y-70660841D01*
X110823718Y-70786282D01*
X110949159Y-70882536D01*
X111095238Y-70943044D01*
X111103426Y-70944122D01*
X111122522Y-70946636D01*
X111252000Y-70963682D01*
X111260188Y-70962604D01*
X111400574Y-70944122D01*
X111408762Y-70943044D01*
X111554841Y-70882536D01*
X111680282Y-70786282D01*
X111776536Y-70660841D01*
X111837044Y-70514762D01*
X111857682Y-70358000D01*
X111837044Y-70201238D01*
X111776536Y-70055159D01*
X111680282Y-69929718D01*
X111554841Y-69833464D01*
X111408762Y-69772956D01*
X111252000Y-69752318D01*
X111185446Y-69761080D01*
X111115298Y-69750141D01*
X111062199Y-69703013D01*
X111043000Y-69636158D01*
X111043000Y-69616089D01*
X111063002Y-69547968D01*
X111116658Y-69501475D01*
X111127251Y-69497207D01*
X111215878Y-69466083D01*
X111224768Y-69462961D01*
X111232343Y-69457366D01*
X111232345Y-69457365D01*
X111323140Y-69390303D01*
X111330711Y-69384711D01*
X111357304Y-69348707D01*
X111403365Y-69286345D01*
X111403366Y-69286343D01*
X111408961Y-69278768D01*
X111412507Y-69268673D01*
X111450056Y-69161748D01*
X111450057Y-69161746D01*
X111452601Y-69154500D01*
X111455500Y-69123833D01*
X111455499Y-68544168D01*
X111453951Y-68527781D01*
X111453324Y-68521150D01*
X111453324Y-68521149D01*
X111452601Y-68513500D01*
X111450055Y-68506249D01*
X111412083Y-68398121D01*
X111412082Y-68398119D01*
X111408961Y-68389232D01*
X111394298Y-68369379D01*
X111336303Y-68290860D01*
X111330711Y-68283289D01*
X111249535Y-68223332D01*
X111232345Y-68210635D01*
X111232343Y-68210634D01*
X111224768Y-68205039D01*
X111215878Y-68201917D01*
X111153751Y-68180099D01*
X111096106Y-68138656D01*
X111070018Y-68072626D01*
X111069500Y-68061217D01*
X111069500Y-67725141D01*
X111089502Y-67657020D01*
X111143158Y-67610527D01*
X111153752Y-67606258D01*
X111168152Y-67601201D01*
X111188768Y-67593961D01*
X111294711Y-67515711D01*
X111309531Y-67495646D01*
X111367365Y-67417345D01*
X111367366Y-67417343D01*
X111372961Y-67409768D01*
X111386007Y-67372621D01*
X111414056Y-67292748D01*
X111414057Y-67292746D01*
X111416601Y-67285500D01*
X111419500Y-67254833D01*
X111419499Y-66575168D01*
X111416601Y-66544500D01*
X111414055Y-66537249D01*
X111376083Y-66429121D01*
X111376082Y-66429119D01*
X111372961Y-66420232D01*
X111356397Y-66397805D01*
X111300303Y-66321860D01*
X111294711Y-66314289D01*
X111287140Y-66308697D01*
X111196345Y-66241635D01*
X111196343Y-66241634D01*
X111188768Y-66236039D01*
X111179881Y-66232918D01*
X111179879Y-66232917D01*
X111071748Y-66194944D01*
X111071746Y-66194943D01*
X111064500Y-66192399D01*
X111056856Y-66191676D01*
X111056854Y-66191676D01*
X111048879Y-66190922D01*
X111033833Y-66189500D01*
X110744147Y-66189500D01*
X110454168Y-66189501D01*
X110451218Y-66189780D01*
X110451213Y-66189780D01*
X110431150Y-66191676D01*
X110431149Y-66191676D01*
X110423500Y-66192399D01*
X110416252Y-66194944D01*
X110416249Y-66194945D01*
X110308121Y-66232917D01*
X110308119Y-66232918D01*
X110299232Y-66236039D01*
X110291657Y-66241634D01*
X110291655Y-66241635D01*
X110200860Y-66308697D01*
X110193289Y-66314289D01*
X110187697Y-66321860D01*
X110131604Y-66397805D01*
X110115039Y-66420232D01*
X110111918Y-66429119D01*
X110111917Y-66429121D01*
X110073945Y-66537249D01*
X110071399Y-66544500D01*
X110068500Y-66575167D01*
X110068501Y-67254832D01*
X110071399Y-67285500D01*
X110073944Y-67292748D01*
X110073945Y-67292751D01*
X110101994Y-67372621D01*
X110115039Y-67409768D01*
X110120634Y-67417343D01*
X110120635Y-67417345D01*
X110178469Y-67495646D01*
X110193289Y-67515711D01*
X110299232Y-67593961D01*
X110319848Y-67601201D01*
X110334248Y-67606258D01*
X110391894Y-67647701D01*
X110417982Y-67713731D01*
X110418500Y-67725141D01*
X110418500Y-68042605D01*
X110398498Y-68110726D01*
X110344842Y-68157219D01*
X110334249Y-68161487D01*
X110210232Y-68205039D01*
X110202657Y-68210634D01*
X110202655Y-68210635D01*
X110185465Y-68223332D01*
X110104289Y-68283289D01*
X110098697Y-68290860D01*
X110040703Y-68369379D01*
X110026039Y-68389232D01*
X110022918Y-68398119D01*
X110022917Y-68398121D01*
X109984945Y-68506249D01*
X109982399Y-68513500D01*
X109981677Y-68521143D01*
X109981676Y-68521145D01*
X109980440Y-68534222D01*
X109954114Y-68600157D01*
X109896320Y-68641393D01*
X109825407Y-68644837D01*
X109763889Y-68609396D01*
X109731298Y-68546322D01*
X109729558Y-68534212D01*
X109728324Y-68521151D01*
X109728324Y-68521150D01*
X109727601Y-68513500D01*
X109725055Y-68506249D01*
X109687083Y-68398121D01*
X109687082Y-68398119D01*
X109683961Y-68389232D01*
X109669298Y-68369379D01*
X109611303Y-68290860D01*
X109605711Y-68283289D01*
X109524535Y-68223332D01*
X109507345Y-68210635D01*
X109507343Y-68210634D01*
X109499768Y-68205039D01*
X109490881Y-68201918D01*
X109490879Y-68201917D01*
X109382748Y-68163944D01*
X109382746Y-68163943D01*
X109375500Y-68161399D01*
X109367856Y-68160676D01*
X109367854Y-68160676D01*
X109359879Y-68159922D01*
X109344833Y-68158500D01*
X108992679Y-68158500D01*
X108640168Y-68158501D01*
X108637218Y-68158780D01*
X108637213Y-68158780D01*
X108617150Y-68160676D01*
X108617149Y-68160676D01*
X108609500Y-68161399D01*
X108602252Y-68163944D01*
X108602249Y-68163945D01*
X108494121Y-68201917D01*
X108494119Y-68201918D01*
X108485232Y-68205039D01*
X108477657Y-68210634D01*
X108477655Y-68210635D01*
X108460465Y-68223332D01*
X108379289Y-68283289D01*
X108373697Y-68290860D01*
X108315703Y-68369379D01*
X108301039Y-68389232D01*
X108297918Y-68398119D01*
X108297917Y-68398121D01*
X108259945Y-68506249D01*
X108257399Y-68513500D01*
X108254500Y-68544167D01*
X108254501Y-69123832D01*
X108257399Y-69154500D01*
X108268092Y-69184949D01*
X108271792Y-69255847D01*
X108236573Y-69317492D01*
X108173616Y-69350311D01*
X108100992Y-69343106D01*
X108070839Y-69330616D01*
X108070836Y-69330615D01*
X108063209Y-69327456D01*
X107906447Y-69306818D01*
X107749685Y-69327456D01*
X107603606Y-69387964D01*
X107597053Y-69392992D01*
X107597050Y-69392994D01*
X107504883Y-69463716D01*
X107438663Y-69489317D01*
X107369114Y-69475052D01*
X107340061Y-69453572D01*
X107335879Y-69448121D01*
X107210438Y-69351867D01*
X107064359Y-69291359D01*
X106907597Y-69270721D01*
X106750835Y-69291359D01*
X106604756Y-69351867D01*
X106479315Y-69448121D01*
X106383061Y-69573562D01*
X106322553Y-69719641D01*
X106321475Y-69727829D01*
X106318688Y-69748996D01*
X106301915Y-69876403D01*
X106322553Y-70033165D01*
X106383061Y-70179244D01*
X106479315Y-70304685D01*
X106604756Y-70400939D01*
X106750835Y-70461447D01*
X106907597Y-70482085D01*
X106915785Y-70481007D01*
X107056171Y-70462525D01*
X107064359Y-70461447D01*
X107210438Y-70400939D01*
X107216991Y-70395911D01*
X107216994Y-70395909D01*
X107309161Y-70325187D01*
X107375381Y-70299586D01*
X107444930Y-70313851D01*
X107473983Y-70335331D01*
X107478165Y-70340782D01*
X107603606Y-70437036D01*
X107749685Y-70497544D01*
X107906447Y-70518182D01*
X107914635Y-70517104D01*
X107932425Y-70514762D01*
X108063209Y-70497544D01*
X108209288Y-70437036D01*
X108334729Y-70340782D01*
X108342158Y-70331101D01*
X108373248Y-70290583D01*
X108430983Y-70215341D01*
X108491491Y-70069262D01*
X108492569Y-70061074D01*
X108494706Y-70053098D01*
X108497368Y-70053811D01*
X108520612Y-70001257D01*
X108579874Y-69962160D01*
X108650865Y-69961309D01*
X108711047Y-69998974D01*
X108732585Y-70032880D01*
X108733207Y-70034326D01*
X108738464Y-70046563D01*
X108742478Y-70051449D01*
X108744663Y-70053634D01*
X108746715Y-70055897D01*
X108746555Y-70056042D01*
X108753675Y-70065049D01*
X108759927Y-70071944D01*
X108766032Y-70081848D01*
X108787820Y-70098416D01*
X108800639Y-70109610D01*
X109099404Y-70408375D01*
X109133430Y-70470687D01*
X109135231Y-70513916D01*
X109122318Y-70612000D01*
X109142956Y-70768762D01*
X109203464Y-70914841D01*
X109299718Y-71040282D01*
X109306264Y-71045305D01*
X109306267Y-71045308D01*
X109361690Y-71087835D01*
X109403558Y-71145173D01*
X109407780Y-71216044D01*
X109373016Y-71277947D01*
X109310304Y-71311228D01*
X109246993Y-71307933D01*
X109203828Y-71294282D01*
X109157733Y-71279704D01*
X108770517Y-71198458D01*
X108767399Y-71198122D01*
X108379598Y-71156335D01*
X108379595Y-71156335D01*
X108377147Y-71156071D01*
X108374684Y-71156000D01*
X108374683Y-71156000D01*
X108371034Y-71155895D01*
X108319829Y-71154420D01*
X108048768Y-71154420D01*
X108047205Y-71154498D01*
X108047197Y-71154498D01*
X107950829Y-71159296D01*
X107752962Y-71169146D01*
X107749877Y-71169610D01*
X107749875Y-71169610D01*
X107567400Y-71197044D01*
X107361711Y-71227968D01*
X107358676Y-71228739D01*
X107358675Y-71228739D01*
X106981281Y-71324585D01*
X106981278Y-71324586D01*
X106978238Y-71325358D01*
X106975291Y-71326428D01*
X106975290Y-71326428D01*
X106609271Y-71459286D01*
X106609261Y-71459290D01*
X106606333Y-71460353D01*
X106249674Y-71631618D01*
X105911789Y-71837459D01*
X105596019Y-72075841D01*
X105593737Y-72077951D01*
X105593728Y-72077958D01*
X105506918Y-72158205D01*
X105305486Y-72344407D01*
X105303414Y-72346745D01*
X105303409Y-72346750D01*
X105045148Y-72638149D01*
X105045143Y-72638155D01*
X105043064Y-72640501D01*
X104811347Y-72961194D01*
X104612627Y-73303316D01*
X104611337Y-73306153D01*
X104611335Y-73306157D01*
X104517384Y-73512792D01*
X104448869Y-73663483D01*
X104321692Y-74038133D01*
X104232354Y-74423563D01*
X104181739Y-74815959D01*
X104170347Y-75211442D01*
X104198290Y-75606102D01*
X104265293Y-75996035D01*
X104370692Y-76377385D01*
X104371822Y-76380305D01*
X104371823Y-76380309D01*
X104455113Y-76595599D01*
X104513446Y-76746381D01*
X104514861Y-76749175D01*
X104514864Y-76749183D01*
X104618005Y-76952924D01*
X104692143Y-77099375D01*
X104693834Y-77102024D01*
X104693835Y-77102026D01*
X104713555Y-77132920D01*
X104905015Y-77432875D01*
X105149958Y-77743583D01*
X105152133Y-77745839D01*
X105152138Y-77745845D01*
X105239051Y-77836003D01*
X105424549Y-78028428D01*
X105426942Y-78030461D01*
X105723679Y-78282558D01*
X105723687Y-78282565D01*
X105726074Y-78284592D01*
X105728654Y-78286375D01*
X106048977Y-78507765D01*
X106048986Y-78507770D01*
X106051549Y-78509542D01*
X106054284Y-78511055D01*
X106054289Y-78511058D01*
X106090123Y-78530880D01*
X106397758Y-78701054D01*
X106400627Y-78702287D01*
X106400638Y-78702292D01*
X106758407Y-78856001D01*
X106761275Y-78857233D01*
X106764252Y-78858174D01*
X106764256Y-78858176D01*
X106815446Y-78874365D01*
X106874364Y-78913977D01*
X106902514Y-78979154D01*
X106890957Y-79049204D01*
X106843364Y-79101886D01*
X106777452Y-79120500D01*
X81575962Y-79120500D01*
X81507841Y-79100498D01*
X81461348Y-79046842D01*
X81451244Y-78976568D01*
X81480738Y-78911988D01*
X81532971Y-78876061D01*
X81537644Y-78874365D01*
X81591883Y-78854677D01*
X81750909Y-78796954D01*
X81750919Y-78796950D01*
X81753847Y-78795887D01*
X82110506Y-78624622D01*
X82448391Y-78418781D01*
X82764161Y-78180399D01*
X82766443Y-78178289D01*
X82766452Y-78178282D01*
X83052397Y-77913956D01*
X83054694Y-77911833D01*
X83056771Y-77909490D01*
X83108609Y-77851000D01*
X91342318Y-77851000D01*
X91362956Y-78007762D01*
X91423464Y-78153841D01*
X91519718Y-78279282D01*
X91645159Y-78375536D01*
X91791238Y-78436044D01*
X91948000Y-78456682D01*
X91956188Y-78455604D01*
X92096574Y-78437122D01*
X92104762Y-78436044D01*
X92250841Y-78375536D01*
X92376282Y-78279282D01*
X92472536Y-78153841D01*
X92533044Y-78007762D01*
X92553682Y-77851000D01*
X92536962Y-77724000D01*
X95914318Y-77724000D01*
X95934956Y-77880762D01*
X95995464Y-78026841D01*
X96091718Y-78152282D01*
X96217159Y-78248536D01*
X96363238Y-78309044D01*
X96520000Y-78329682D01*
X96528188Y-78328604D01*
X96668574Y-78310122D01*
X96676762Y-78309044D01*
X96822841Y-78248536D01*
X96948282Y-78152282D01*
X97044536Y-78026841D01*
X97105044Y-77880762D01*
X97125682Y-77724000D01*
X97105044Y-77567238D01*
X97044536Y-77421159D01*
X96948282Y-77295718D01*
X96822841Y-77199464D01*
X96726143Y-77159410D01*
X96670863Y-77114863D01*
X96648442Y-77047499D01*
X96666000Y-76978708D01*
X96717962Y-76930330D01*
X96757915Y-76918080D01*
X96795574Y-76913122D01*
X96803762Y-76912044D01*
X96949841Y-76851536D01*
X97075282Y-76755282D01*
X97171536Y-76629841D01*
X97232044Y-76483762D01*
X97252682Y-76327000D01*
X97232044Y-76170238D01*
X97171536Y-76024159D01*
X97075282Y-75898718D01*
X96949841Y-75802464D01*
X96803762Y-75741956D01*
X96647000Y-75721318D01*
X96490238Y-75741956D01*
X96344159Y-75802464D01*
X96218718Y-75898718D01*
X96122464Y-76024159D01*
X96061956Y-76170238D01*
X96041318Y-76327000D01*
X96061956Y-76483762D01*
X96122464Y-76629841D01*
X96218718Y-76755282D01*
X96344159Y-76851536D01*
X96440857Y-76891590D01*
X96496137Y-76936137D01*
X96518558Y-77003501D01*
X96501000Y-77072292D01*
X96449038Y-77120670D01*
X96409085Y-77132920D01*
X96371426Y-77137878D01*
X96363238Y-77138956D01*
X96217159Y-77199464D01*
X96091718Y-77295718D01*
X95995464Y-77421159D01*
X95934956Y-77567238D01*
X95914318Y-77724000D01*
X92536962Y-77724000D01*
X92533044Y-77694238D01*
X92472536Y-77548159D01*
X92376282Y-77422718D01*
X92250841Y-77326464D01*
X92104762Y-77265956D01*
X91948000Y-77245318D01*
X91791238Y-77265956D01*
X91645159Y-77326464D01*
X91519718Y-77422718D01*
X91423464Y-77548159D01*
X91362956Y-77694238D01*
X91342318Y-77851000D01*
X83108609Y-77851000D01*
X83315032Y-77618091D01*
X83315037Y-77618085D01*
X83317116Y-77615739D01*
X83548833Y-77295046D01*
X83747553Y-76952924D01*
X83754044Y-76938649D01*
X83910019Y-76595599D01*
X83910020Y-76595596D01*
X83911311Y-76592757D01*
X84001524Y-76327000D01*
X91088318Y-76327000D01*
X91108956Y-76483762D01*
X91169464Y-76629841D01*
X91265718Y-76755282D01*
X91391159Y-76851536D01*
X91537238Y-76912044D01*
X91694000Y-76932682D01*
X91702188Y-76931604D01*
X91842574Y-76913122D01*
X91850762Y-76912044D01*
X91996841Y-76851536D01*
X92122282Y-76755282D01*
X92218536Y-76629841D01*
X92279044Y-76483762D01*
X92299682Y-76327000D01*
X92279044Y-76170238D01*
X92218536Y-76024159D01*
X92122282Y-75898718D01*
X91996841Y-75802464D01*
X91850762Y-75741956D01*
X91694000Y-75721318D01*
X91537238Y-75741956D01*
X91391159Y-75802464D01*
X91265718Y-75898718D01*
X91169464Y-76024159D01*
X91108956Y-76170238D01*
X91088318Y-76327000D01*
X84001524Y-76327000D01*
X84038488Y-76218107D01*
X84111001Y-75905264D01*
X84127121Y-75835719D01*
X84127121Y-75835717D01*
X84127826Y-75832677D01*
X84178441Y-75440281D01*
X84189833Y-75044798D01*
X84187237Y-75008122D01*
X84162112Y-74653274D01*
X84161890Y-74650138D01*
X84122689Y-74422000D01*
X91596318Y-74422000D01*
X91616956Y-74578762D01*
X91677464Y-74724841D01*
X91773718Y-74850282D01*
X91899159Y-74946536D01*
X92045238Y-75007044D01*
X92202000Y-75027682D01*
X92210188Y-75026604D01*
X92350574Y-75008122D01*
X92358762Y-75007044D01*
X92504841Y-74946536D01*
X92630282Y-74850282D01*
X92726536Y-74724841D01*
X92787044Y-74578762D01*
X92790962Y-74549000D01*
X95533318Y-74549000D01*
X95553956Y-74705762D01*
X95614464Y-74851841D01*
X95710718Y-74977282D01*
X95836159Y-75073536D01*
X95982238Y-75134044D01*
X96139000Y-75154682D01*
X96147188Y-75153604D01*
X96287574Y-75135122D01*
X96295762Y-75134044D01*
X96441841Y-75073536D01*
X96567282Y-74977282D01*
X96663536Y-74851841D01*
X96724044Y-74705762D01*
X96744682Y-74549000D01*
X96724044Y-74392238D01*
X96663536Y-74246159D01*
X96567282Y-74120718D01*
X96441841Y-74024464D01*
X96295762Y-73963956D01*
X96139000Y-73943318D01*
X95982238Y-73963956D01*
X95836159Y-74024464D01*
X95710718Y-74120718D01*
X95614464Y-74246159D01*
X95553956Y-74392238D01*
X95533318Y-74549000D01*
X92790962Y-74549000D01*
X92807682Y-74422000D01*
X92787044Y-74265238D01*
X92726536Y-74119159D01*
X92630282Y-73993718D01*
X92504841Y-73897464D01*
X92358762Y-73836956D01*
X92202000Y-73816318D01*
X92045238Y-73836956D01*
X91899159Y-73897464D01*
X91773718Y-73993718D01*
X91677464Y-74119159D01*
X91616956Y-74265238D01*
X91596318Y-74422000D01*
X84122689Y-74422000D01*
X84094887Y-74260205D01*
X84089195Y-74239608D01*
X84013882Y-73967116D01*
X83989488Y-73878855D01*
X83987681Y-73874184D01*
X83847869Y-73512792D01*
X83847867Y-73512787D01*
X83846734Y-73509859D01*
X83798303Y-73414188D01*
X83794158Y-73406000D01*
X93628318Y-73406000D01*
X93629396Y-73414188D01*
X93646228Y-73542037D01*
X93648956Y-73562762D01*
X93709464Y-73708841D01*
X93714491Y-73715392D01*
X93800661Y-73827691D01*
X93805718Y-73834282D01*
X93931159Y-73930536D01*
X94077238Y-73991044D01*
X94234000Y-74011682D01*
X94242188Y-74010604D01*
X94382574Y-73992122D01*
X94390762Y-73991044D01*
X94536841Y-73930536D01*
X94662282Y-73834282D01*
X94667340Y-73827691D01*
X94753509Y-73715392D01*
X94758536Y-73708841D01*
X94792312Y-73627299D01*
X102559617Y-73627299D01*
X102580255Y-73784061D01*
X102640763Y-73930140D01*
X102737017Y-74055581D01*
X102862458Y-74151835D01*
X103008537Y-74212343D01*
X103165299Y-74232981D01*
X103173487Y-74231903D01*
X103313873Y-74213421D01*
X103322061Y-74212343D01*
X103468140Y-74151835D01*
X103593581Y-74055581D01*
X103689835Y-73930140D01*
X103750343Y-73784061D01*
X103770981Y-73627299D01*
X103750343Y-73470537D01*
X103689835Y-73324458D01*
X103593581Y-73199017D01*
X103468140Y-73102763D01*
X103322061Y-73042255D01*
X103165299Y-73021617D01*
X103008537Y-73042255D01*
X102862458Y-73102763D01*
X102737017Y-73199017D01*
X102640763Y-73324458D01*
X102580255Y-73470537D01*
X102559617Y-73627299D01*
X94792312Y-73627299D01*
X94819044Y-73562762D01*
X94821773Y-73542037D01*
X94838604Y-73414188D01*
X94839682Y-73406000D01*
X94819044Y-73249238D01*
X94758536Y-73103159D01*
X94662282Y-72977718D01*
X94640748Y-72961194D01*
X94543392Y-72886491D01*
X94536841Y-72881464D01*
X94390762Y-72820956D01*
X94234000Y-72800318D01*
X94077238Y-72820956D01*
X93931159Y-72881464D01*
X93924608Y-72886491D01*
X93827253Y-72961194D01*
X93805718Y-72977718D01*
X93709464Y-73103159D01*
X93648956Y-73249238D01*
X93628318Y-73406000D01*
X83794158Y-73406000D01*
X83669456Y-73159668D01*
X83668037Y-73156865D01*
X83455165Y-72823365D01*
X83210222Y-72512657D01*
X83208047Y-72510401D01*
X83208042Y-72510395D01*
X83010228Y-72305195D01*
X82935631Y-72227812D01*
X82846810Y-72152353D01*
X82636501Y-71973682D01*
X82636493Y-71973675D01*
X82634106Y-71971648D01*
X82552988Y-71915584D01*
X89418757Y-71915584D01*
X89435175Y-72111104D01*
X89489258Y-72299712D01*
X89492076Y-72305195D01*
X89576123Y-72468734D01*
X89576126Y-72468738D01*
X89578944Y-72474222D01*
X89700818Y-72627990D01*
X89850238Y-72755156D01*
X89855616Y-72758162D01*
X89855618Y-72758163D01*
X89891932Y-72778458D01*
X90021513Y-72850878D01*
X90208118Y-72911510D01*
X90402946Y-72934742D01*
X90409081Y-72934270D01*
X90409083Y-72934270D01*
X90592434Y-72920162D01*
X90592438Y-72920161D01*
X90598576Y-72919689D01*
X90787556Y-72866924D01*
X90962689Y-72778458D01*
X90992515Y-72755156D01*
X91112453Y-72661450D01*
X91117303Y-72657661D01*
X91129919Y-72643046D01*
X91241485Y-72513794D01*
X91241485Y-72513793D01*
X91245509Y-72509132D01*
X91342425Y-72338530D01*
X91404358Y-72152353D01*
X91428949Y-71957692D01*
X91429341Y-71929621D01*
X91427965Y-71915584D01*
X97038757Y-71915584D01*
X97055175Y-72111104D01*
X97109258Y-72299712D01*
X97112076Y-72305195D01*
X97196123Y-72468734D01*
X97196126Y-72468738D01*
X97198944Y-72474222D01*
X97320818Y-72627990D01*
X97470238Y-72755156D01*
X97475616Y-72758162D01*
X97475618Y-72758163D01*
X97511932Y-72778458D01*
X97641513Y-72850878D01*
X97828118Y-72911510D01*
X98022946Y-72934742D01*
X98029081Y-72934270D01*
X98029083Y-72934270D01*
X98212434Y-72920162D01*
X98212438Y-72920161D01*
X98218576Y-72919689D01*
X98407556Y-72866924D01*
X98582689Y-72778458D01*
X98612515Y-72755156D01*
X98732453Y-72661450D01*
X98737303Y-72657661D01*
X98749919Y-72643046D01*
X98861485Y-72513794D01*
X98861485Y-72513793D01*
X98865509Y-72509132D01*
X98962425Y-72338530D01*
X99024358Y-72152353D01*
X99048949Y-71957692D01*
X99049341Y-71929621D01*
X99030194Y-71734349D01*
X99028413Y-71728450D01*
X99028412Y-71728445D01*
X98975265Y-71552414D01*
X98973484Y-71546515D01*
X98881370Y-71373274D01*
X98757361Y-71221223D01*
X98635003Y-71120000D01*
X102772318Y-71120000D01*
X102792956Y-71276762D01*
X102853464Y-71422841D01*
X102949718Y-71548282D01*
X103075159Y-71644536D01*
X103221238Y-71705044D01*
X103378000Y-71725682D01*
X103386188Y-71724604D01*
X103526574Y-71706122D01*
X103534762Y-71705044D01*
X103680841Y-71644536D01*
X103806282Y-71548282D01*
X103902536Y-71422841D01*
X103963044Y-71276762D01*
X103983682Y-71120000D01*
X103963044Y-70963238D01*
X103902536Y-70817159D01*
X103806282Y-70691718D01*
X103680841Y-70595464D01*
X103534762Y-70534956D01*
X103378000Y-70514318D01*
X103221238Y-70534956D01*
X103075159Y-70595464D01*
X102949718Y-70691718D01*
X102853464Y-70817159D01*
X102792956Y-70963238D01*
X102772318Y-71120000D01*
X98635003Y-71120000D01*
X98606180Y-71096156D01*
X98433585Y-71002834D01*
X98305671Y-70963238D01*
X98252039Y-70946636D01*
X98252036Y-70946635D01*
X98246152Y-70944814D01*
X98240027Y-70944170D01*
X98240026Y-70944170D01*
X98057147Y-70924948D01*
X98057146Y-70924948D01*
X98051019Y-70924304D01*
X97928383Y-70935465D01*
X97861759Y-70941528D01*
X97861758Y-70941528D01*
X97855618Y-70942087D01*
X97849704Y-70943828D01*
X97849702Y-70943828D01*
X97782245Y-70963682D01*
X97667393Y-70997485D01*
X97661928Y-71000342D01*
X97498972Y-71085533D01*
X97498968Y-71085536D01*
X97493512Y-71088388D01*
X97488712Y-71092248D01*
X97488711Y-71092248D01*
X97464378Y-71111812D01*
X97340600Y-71211332D01*
X97214480Y-71361637D01*
X97211516Y-71367029D01*
X97211513Y-71367033D01*
X97177231Y-71429392D01*
X97119956Y-71533575D01*
X97118095Y-71539442D01*
X97118094Y-71539444D01*
X97112618Y-71556707D01*
X97060628Y-71720599D01*
X97038757Y-71915584D01*
X91427965Y-71915584D01*
X91410194Y-71734349D01*
X91408413Y-71728450D01*
X91408412Y-71728445D01*
X91355265Y-71552414D01*
X91353484Y-71546515D01*
X91261370Y-71373274D01*
X91137361Y-71221223D01*
X90986180Y-71096156D01*
X90813585Y-71002834D01*
X90685671Y-70963238D01*
X90632039Y-70946636D01*
X90632036Y-70946635D01*
X90626152Y-70944814D01*
X90620027Y-70944170D01*
X90620026Y-70944170D01*
X90437147Y-70924948D01*
X90437146Y-70924948D01*
X90431019Y-70924304D01*
X90308383Y-70935465D01*
X90241759Y-70941528D01*
X90241758Y-70941528D01*
X90235618Y-70942087D01*
X90229704Y-70943828D01*
X90229702Y-70943828D01*
X90162245Y-70963682D01*
X90047393Y-70997485D01*
X90041928Y-71000342D01*
X89878972Y-71085533D01*
X89878968Y-71085536D01*
X89873512Y-71088388D01*
X89868712Y-71092248D01*
X89868711Y-71092248D01*
X89844378Y-71111812D01*
X89720600Y-71211332D01*
X89594480Y-71361637D01*
X89591516Y-71367029D01*
X89591513Y-71367033D01*
X89557231Y-71429392D01*
X89499956Y-71533575D01*
X89498095Y-71539442D01*
X89498094Y-71539444D01*
X89492618Y-71556707D01*
X89440628Y-71720599D01*
X89418757Y-71915584D01*
X82552988Y-71915584D01*
X82439951Y-71837459D01*
X82311203Y-71748475D01*
X82311194Y-71748470D01*
X82308631Y-71746698D01*
X82305896Y-71745185D01*
X82305891Y-71745182D01*
X82098140Y-71630261D01*
X81962422Y-71555186D01*
X81959553Y-71553953D01*
X81959542Y-71553948D01*
X81601773Y-71400239D01*
X81601770Y-71400238D01*
X81598905Y-71399007D01*
X81595928Y-71398066D01*
X81595924Y-71398064D01*
X81429569Y-71345453D01*
X81221673Y-71279704D01*
X80834457Y-71198458D01*
X80831339Y-71198122D01*
X80443538Y-71156335D01*
X80443535Y-71156335D01*
X80441087Y-71156071D01*
X80438624Y-71156000D01*
X80438623Y-71156000D01*
X80434974Y-71155895D01*
X80383769Y-71154420D01*
X80112708Y-71154420D01*
X80111145Y-71154498D01*
X80111137Y-71154498D01*
X80014769Y-71159296D01*
X79816902Y-71169146D01*
X79813817Y-71169610D01*
X79813815Y-71169610D01*
X79631340Y-71197044D01*
X79425651Y-71227968D01*
X79422616Y-71228739D01*
X79422615Y-71228739D01*
X79045221Y-71324585D01*
X79045218Y-71324586D01*
X79042178Y-71325358D01*
X79039231Y-71326428D01*
X79039230Y-71326428D01*
X78673211Y-71459286D01*
X78673201Y-71459290D01*
X78670273Y-71460353D01*
X78313614Y-71631618D01*
X77975729Y-71837459D01*
X77659959Y-72075841D01*
X77657677Y-72077951D01*
X77657668Y-72077958D01*
X77570858Y-72158205D01*
X77369426Y-72344407D01*
X77367354Y-72346745D01*
X77367349Y-72346750D01*
X77109088Y-72638149D01*
X77109083Y-72638155D01*
X77107004Y-72640501D01*
X76875287Y-72961194D01*
X76676567Y-73303316D01*
X76675277Y-73306153D01*
X76675275Y-73306157D01*
X76608884Y-73452177D01*
X76591913Y-73489504D01*
X76568201Y-73541655D01*
X76521797Y-73595388D01*
X76453710Y-73615504D01*
X76385556Y-73595615D01*
X76338974Y-73542037D01*
X76327500Y-73489504D01*
X76327500Y-68679780D01*
X76347502Y-68611659D01*
X76401158Y-68565166D01*
X76471432Y-68555062D01*
X76536012Y-68584556D01*
X76572381Y-68638028D01*
X76587039Y-68679768D01*
X76592634Y-68687343D01*
X76592635Y-68687345D01*
X76615803Y-68718712D01*
X76665289Y-68785711D01*
X76672860Y-68791303D01*
X76763655Y-68858365D01*
X76763657Y-68858366D01*
X76771232Y-68863961D01*
X76780122Y-68867083D01*
X76804249Y-68875556D01*
X76861894Y-68916999D01*
X76887982Y-68983029D01*
X76888500Y-68994438D01*
X76888500Y-69043206D01*
X76888020Y-69054189D01*
X76886069Y-69076491D01*
X76884713Y-69091984D01*
X76894039Y-69126787D01*
X76894534Y-69128635D01*
X76896913Y-69139367D01*
X76903503Y-69176739D01*
X76909014Y-69186285D01*
X76910240Y-69189653D01*
X76911754Y-69192899D01*
X76914606Y-69203543D01*
X76936377Y-69234635D01*
X76942275Y-69243894D01*
X76961250Y-69276760D01*
X76969695Y-69283846D01*
X76990329Y-69301160D01*
X76998433Y-69308587D01*
X77115962Y-69426116D01*
X77149988Y-69488428D01*
X77151789Y-69531656D01*
X77143318Y-69596000D01*
X77144396Y-69604188D01*
X77160674Y-69727829D01*
X77163956Y-69752762D01*
X77224464Y-69898841D01*
X77320718Y-70024282D01*
X77327264Y-70029305D01*
X77335931Y-70035955D01*
X77446159Y-70120536D01*
X77592238Y-70181044D01*
X77600426Y-70182122D01*
X77662271Y-70190264D01*
X77749000Y-70201682D01*
X77757188Y-70200604D01*
X77897574Y-70182122D01*
X77905762Y-70181044D01*
X78051841Y-70120536D01*
X78124153Y-70065049D01*
X78170731Y-70029309D01*
X78170732Y-70029308D01*
X78177282Y-70024282D01*
X78182308Y-70017732D01*
X78182311Y-70017729D01*
X78216789Y-69972796D01*
X78274127Y-69930929D01*
X78316751Y-69923500D01*
X78466614Y-69923500D01*
X78534735Y-69943502D01*
X78581228Y-69997158D01*
X78585489Y-70007733D01*
X78619039Y-70103268D01*
X78697289Y-70209211D01*
X78704860Y-70214803D01*
X78795655Y-70281865D01*
X78795657Y-70281866D01*
X78803232Y-70287461D01*
X78812119Y-70290582D01*
X78812121Y-70290583D01*
X78920252Y-70328556D01*
X78920254Y-70328557D01*
X78927500Y-70331101D01*
X78935144Y-70331824D01*
X78935146Y-70331824D01*
X78943121Y-70332578D01*
X78958167Y-70334000D01*
X79247853Y-70334000D01*
X79537832Y-70333999D01*
X79540782Y-70333720D01*
X79540787Y-70333720D01*
X79560850Y-70331824D01*
X79560851Y-70331824D01*
X79568500Y-70331101D01*
X79575748Y-70328556D01*
X79575751Y-70328555D01*
X79683879Y-70290583D01*
X79683881Y-70290582D01*
X79692768Y-70287461D01*
X79700343Y-70281866D01*
X79700345Y-70281865D01*
X79791140Y-70214803D01*
X79798711Y-70209211D01*
X79876961Y-70103268D01*
X79884484Y-70081848D01*
X79918056Y-69986248D01*
X79918057Y-69986246D01*
X79920601Y-69979000D01*
X79923500Y-69948333D01*
X79923499Y-69313845D01*
X79943501Y-69245724D01*
X79997157Y-69199231D01*
X80067430Y-69189127D01*
X80132011Y-69218620D01*
X80138594Y-69224750D01*
X80145347Y-69231503D01*
X80152773Y-69239606D01*
X80177163Y-69268673D01*
X80186709Y-69274184D01*
X80186711Y-69274186D01*
X80210025Y-69287646D01*
X80219294Y-69293551D01*
X80250380Y-69315317D01*
X80261031Y-69318171D01*
X80264281Y-69319686D01*
X80267636Y-69320907D01*
X80277184Y-69326420D01*
X80288038Y-69328334D01*
X80288041Y-69328335D01*
X80308710Y-69331979D01*
X80314566Y-69333012D01*
X80325281Y-69335387D01*
X80361939Y-69345209D01*
X80372914Y-69344249D01*
X80372916Y-69344249D01*
X80399738Y-69341902D01*
X80410720Y-69341423D01*
X80636269Y-69341423D01*
X80704390Y-69361425D01*
X80750883Y-69415081D01*
X80760987Y-69485355D01*
X80752678Y-69515640D01*
X80720952Y-69592234D01*
X80700314Y-69748996D01*
X80720952Y-69905758D01*
X80781460Y-70051837D01*
X80877714Y-70177278D01*
X81003155Y-70273532D01*
X81149234Y-70334040D01*
X81305996Y-70354678D01*
X81314184Y-70353600D01*
X81454570Y-70335118D01*
X81462758Y-70334040D01*
X81470385Y-70330881D01*
X81470388Y-70330880D01*
X81543673Y-70300524D01*
X81614263Y-70292935D01*
X81677750Y-70324714D01*
X81713977Y-70385772D01*
X81713602Y-70448850D01*
X81710956Y-70455238D01*
X81690318Y-70612000D01*
X81710956Y-70768762D01*
X81771464Y-70914841D01*
X81867718Y-71040282D01*
X81993159Y-71136536D01*
X82139238Y-71197044D01*
X82296000Y-71217682D01*
X82304188Y-71216604D01*
X82308389Y-71216051D01*
X82452762Y-71197044D01*
X82598841Y-71136536D01*
X82724282Y-71040282D01*
X82820536Y-70914841D01*
X82840767Y-70866000D01*
X84992318Y-70866000D01*
X85012956Y-71022762D01*
X85073464Y-71168841D01*
X85169718Y-71294282D01*
X85176264Y-71299305D01*
X85205918Y-71322059D01*
X85295159Y-71390536D01*
X85441238Y-71451044D01*
X85449426Y-71452122D01*
X85511947Y-71460353D01*
X85598000Y-71471682D01*
X85606188Y-71470604D01*
X85746574Y-71452122D01*
X85754762Y-71451044D01*
X85900841Y-71390536D01*
X85990082Y-71322059D01*
X86019736Y-71299305D01*
X86026282Y-71294282D01*
X86122536Y-71168841D01*
X86183044Y-71022762D01*
X86203682Y-70866000D01*
X86183044Y-70709238D01*
X86122536Y-70563159D01*
X86026282Y-70437718D01*
X85900841Y-70341464D01*
X85754762Y-70280956D01*
X85598000Y-70260318D01*
X85441238Y-70280956D01*
X85295159Y-70341464D01*
X85169718Y-70437718D01*
X85073464Y-70563159D01*
X85012956Y-70709238D01*
X84992318Y-70866000D01*
X82840767Y-70866000D01*
X82881044Y-70768762D01*
X82901682Y-70612000D01*
X82881044Y-70455238D01*
X82820536Y-70309159D01*
X82724282Y-70183718D01*
X82598841Y-70087464D01*
X82452762Y-70026956D01*
X82394085Y-70019231D01*
X82304188Y-70007396D01*
X82296000Y-70006318D01*
X82287812Y-70007396D01*
X82197916Y-70019231D01*
X82139238Y-70026956D01*
X82131611Y-70030115D01*
X82131608Y-70030116D01*
X82058323Y-70060472D01*
X81987733Y-70068061D01*
X81924246Y-70036282D01*
X81888019Y-69975224D01*
X81888394Y-69912146D01*
X81891040Y-69905758D01*
X81911678Y-69748996D01*
X81910938Y-69743376D01*
X81930602Y-69676406D01*
X81984258Y-69629913D01*
X82031965Y-69619535D01*
X82032496Y-69619605D01*
X82040684Y-69618527D01*
X82181070Y-69600045D01*
X82189258Y-69598967D01*
X82335337Y-69538459D01*
X82424578Y-69469982D01*
X82454232Y-69447228D01*
X82460778Y-69442205D01*
X82473124Y-69426116D01*
X82510704Y-69377140D01*
X82557032Y-69316764D01*
X82617540Y-69170685D01*
X82638178Y-69013923D01*
X82617540Y-68857161D01*
X82557032Y-68711082D01*
X82477032Y-68606824D01*
X82465801Y-68592187D01*
X82460778Y-68585641D01*
X82335337Y-68489387D01*
X82189258Y-68428879D01*
X82032496Y-68408241D01*
X81875734Y-68428879D01*
X81729655Y-68489387D01*
X81723104Y-68494414D01*
X81630898Y-68565166D01*
X81604214Y-68585641D01*
X81599188Y-68592191D01*
X81599185Y-68592194D01*
X81564707Y-68637127D01*
X81507369Y-68678994D01*
X81464745Y-68686423D01*
X80578768Y-68686423D01*
X80510647Y-68666421D01*
X80489673Y-68649518D01*
X79960405Y-68120250D01*
X79926379Y-68057938D01*
X79923500Y-68031155D01*
X79923499Y-67521634D01*
X79923499Y-67518668D01*
X79922835Y-67511635D01*
X79921324Y-67495650D01*
X79921324Y-67495649D01*
X79920601Y-67488000D01*
X79912505Y-67464945D01*
X79880083Y-67372621D01*
X79880082Y-67372619D01*
X79876961Y-67363732D01*
X79819179Y-67285500D01*
X79804303Y-67265360D01*
X79798711Y-67257789D01*
X79790692Y-67251866D01*
X79700345Y-67185135D01*
X79700343Y-67185134D01*
X79692768Y-67179539D01*
X79683881Y-67176418D01*
X79683879Y-67176417D01*
X79575748Y-67138444D01*
X79575746Y-67138443D01*
X79568500Y-67135899D01*
X79560856Y-67135176D01*
X79560854Y-67135176D01*
X79552879Y-67134422D01*
X79537833Y-67133000D01*
X79248147Y-67133000D01*
X78958168Y-67133001D01*
X78955218Y-67133280D01*
X78955213Y-67133280D01*
X78935150Y-67135176D01*
X78935149Y-67135176D01*
X78927500Y-67135899D01*
X78920252Y-67138444D01*
X78920249Y-67138445D01*
X78812121Y-67176417D01*
X78812119Y-67176418D01*
X78803232Y-67179539D01*
X78795657Y-67185134D01*
X78795655Y-67185135D01*
X78705308Y-67251866D01*
X78697289Y-67257789D01*
X78691697Y-67265360D01*
X78676822Y-67285500D01*
X78619039Y-67363732D01*
X78615918Y-67372619D01*
X78615917Y-67372621D01*
X78583495Y-67464945D01*
X78575399Y-67488000D01*
X78574676Y-67495644D01*
X78574676Y-67495646D01*
X78573165Y-67511635D01*
X78572500Y-67518667D01*
X78572501Y-68223332D01*
X78575399Y-68254000D01*
X78577944Y-68261248D01*
X78577945Y-68261251D01*
X78585685Y-68283289D01*
X78619039Y-68378268D01*
X78624634Y-68385843D01*
X78624635Y-68385845D01*
X78691697Y-68476640D01*
X78697289Y-68484211D01*
X78704860Y-68489803D01*
X78795655Y-68556865D01*
X78795657Y-68556866D01*
X78803232Y-68562461D01*
X78812119Y-68565582D01*
X78812121Y-68565583D01*
X78920252Y-68603556D01*
X78920254Y-68603557D01*
X78927500Y-68606101D01*
X78935143Y-68606823D01*
X78935145Y-68606824D01*
X78948222Y-68608060D01*
X79014157Y-68634386D01*
X79055393Y-68692180D01*
X79058837Y-68763093D01*
X79023396Y-68824611D01*
X78960322Y-68857202D01*
X78948216Y-68858941D01*
X78927500Y-68860899D01*
X78920252Y-68863444D01*
X78920249Y-68863445D01*
X78812121Y-68901417D01*
X78812119Y-68901418D01*
X78803232Y-68904539D01*
X78795657Y-68910134D01*
X78795655Y-68910135D01*
X78710579Y-68972973D01*
X78697289Y-68982789D01*
X78691697Y-68990360D01*
X78624751Y-69080999D01*
X78619039Y-69088732D01*
X78585495Y-69184251D01*
X78544054Y-69241894D01*
X78478024Y-69267982D01*
X78466614Y-69268500D01*
X78316751Y-69268500D01*
X78248630Y-69248498D01*
X78216789Y-69219204D01*
X78182311Y-69174271D01*
X78182308Y-69174268D01*
X78177282Y-69167718D01*
X78150092Y-69146854D01*
X78092459Y-69102631D01*
X78051841Y-69071464D01*
X77905762Y-69010956D01*
X77835414Y-69001695D01*
X77770487Y-68972973D01*
X77731395Y-68913708D01*
X77730550Y-68842717D01*
X77761788Y-68789347D01*
X77766711Y-68785711D01*
X77816197Y-68718712D01*
X77839365Y-68687345D01*
X77839366Y-68687343D01*
X77844961Y-68679768D01*
X77849649Y-68666421D01*
X77886056Y-68562748D01*
X77886057Y-68562746D01*
X77888601Y-68555500D01*
X77891500Y-68524833D01*
X77891499Y-67845168D01*
X77888601Y-67814500D01*
X77879862Y-67789614D01*
X77848083Y-67699121D01*
X77848082Y-67699119D01*
X77844961Y-67690232D01*
X77820431Y-67657020D01*
X77772303Y-67591860D01*
X77766711Y-67584289D01*
X77759140Y-67578697D01*
X77668345Y-67511635D01*
X77668343Y-67511634D01*
X77660768Y-67506039D01*
X77651881Y-67502918D01*
X77651879Y-67502917D01*
X77543748Y-67464944D01*
X77543746Y-67464943D01*
X77536500Y-67462399D01*
X77528856Y-67461676D01*
X77528854Y-67461676D01*
X77520879Y-67460922D01*
X77505833Y-67459500D01*
X77216147Y-67459500D01*
X76926168Y-67459501D01*
X76923218Y-67459780D01*
X76923213Y-67459780D01*
X76903150Y-67461676D01*
X76903149Y-67461676D01*
X76895500Y-67462399D01*
X76888252Y-67464944D01*
X76888249Y-67464945D01*
X76780121Y-67502917D01*
X76780119Y-67502918D01*
X76771232Y-67506039D01*
X76763657Y-67511634D01*
X76763655Y-67511635D01*
X76672860Y-67578697D01*
X76665289Y-67584289D01*
X76659697Y-67591860D01*
X76611570Y-67657020D01*
X76587039Y-67690232D01*
X76572381Y-67731972D01*
X76530939Y-67789614D01*
X76464910Y-67815702D01*
X76395258Y-67801951D01*
X76344097Y-67752726D01*
X76327500Y-67690220D01*
X76327500Y-65548731D01*
X76347502Y-65480610D01*
X76401158Y-65434117D01*
X76471432Y-65424013D01*
X76533617Y-65452413D01*
X76533718Y-65452282D01*
X76659159Y-65548536D01*
X76805238Y-65609044D01*
X76962000Y-65629682D01*
X76970188Y-65628604D01*
X77110574Y-65610122D01*
X77118762Y-65609044D01*
X77264841Y-65548536D01*
X77390282Y-65452282D01*
X77404221Y-65434117D01*
X77481509Y-65333392D01*
X77486536Y-65326841D01*
X77547044Y-65180762D01*
X77567682Y-65024000D01*
X77547044Y-64867238D01*
X77506767Y-64770000D01*
X78388318Y-64770000D01*
X78408956Y-64926762D01*
X78469464Y-65072841D01*
X78565718Y-65198282D01*
X78691159Y-65294536D01*
X78837238Y-65355044D01*
X78994000Y-65375682D01*
X79002188Y-65374604D01*
X79142574Y-65356122D01*
X79150762Y-65355044D01*
X79296841Y-65294536D01*
X79422282Y-65198282D01*
X79518536Y-65072841D01*
X79579044Y-64926762D01*
X79599682Y-64770000D01*
X79596462Y-64745541D01*
X95417833Y-64745541D01*
X95423929Y-65004190D01*
X95424763Y-65008895D01*
X95459218Y-65203305D01*
X95469078Y-65258942D01*
X95470615Y-65263469D01*
X95470615Y-65263470D01*
X95492127Y-65326841D01*
X95552241Y-65503933D01*
X95671505Y-65733525D01*
X95824125Y-65942436D01*
X96006589Y-66125858D01*
X96010435Y-66128699D01*
X96010440Y-66128703D01*
X96158012Y-66237701D01*
X96214698Y-66279570D01*
X96218928Y-66281796D01*
X96218932Y-66281798D01*
X96439426Y-66397805D01*
X96443663Y-66400034D01*
X96688215Y-66484479D01*
X96942726Y-66530961D01*
X97025519Y-66535300D01*
X99286782Y-66535300D01*
X99289161Y-66535119D01*
X99289162Y-66535119D01*
X99474209Y-66521043D01*
X99474214Y-66521042D01*
X99478976Y-66520680D01*
X99483630Y-66519601D01*
X99483632Y-66519601D01*
X99726351Y-66463342D01*
X99726350Y-66463342D01*
X99731015Y-66462261D01*
X99971318Y-66366390D01*
X100194354Y-66235273D01*
X100198065Y-66232252D01*
X100198069Y-66232249D01*
X100391279Y-66074951D01*
X100394991Y-66071929D01*
X100568613Y-65880115D01*
X100711222Y-65664247D01*
X100764566Y-65548536D01*
X100817532Y-65433643D01*
X100817533Y-65433640D01*
X100819538Y-65429291D01*
X100891068Y-65180655D01*
X100892111Y-65172574D01*
X100923556Y-64928796D01*
X100924167Y-64924059D01*
X100918071Y-64665410D01*
X100902009Y-64574778D01*
X100873756Y-64415362D01*
X100873755Y-64415358D01*
X100872922Y-64410658D01*
X100789759Y-64165667D01*
X100670495Y-63936075D01*
X100517875Y-63727164D01*
X100439696Y-63648574D01*
X100389058Y-63597671D01*
X100335411Y-63543742D01*
X100331565Y-63540901D01*
X100331560Y-63540897D01*
X100131154Y-63392875D01*
X100131153Y-63392874D01*
X100127302Y-63390030D01*
X100123072Y-63387804D01*
X100123068Y-63387802D01*
X99902574Y-63271795D01*
X99902572Y-63271794D01*
X99898337Y-63269566D01*
X99653785Y-63185121D01*
X99399274Y-63138639D01*
X99316481Y-63134300D01*
X97055218Y-63134300D01*
X97052839Y-63134481D01*
X97052838Y-63134481D01*
X96867791Y-63148557D01*
X96867786Y-63148558D01*
X96863024Y-63148920D01*
X96858370Y-63149999D01*
X96858368Y-63149999D01*
X96776582Y-63168956D01*
X96610985Y-63207339D01*
X96370682Y-63303210D01*
X96147646Y-63434327D01*
X96143935Y-63437348D01*
X96143931Y-63437351D01*
X96009083Y-63547135D01*
X95947009Y-63597671D01*
X95773387Y-63789485D01*
X95770746Y-63793483D01*
X95770745Y-63793484D01*
X95760236Y-63809392D01*
X95630778Y-64005353D01*
X95628777Y-64009693D01*
X95628775Y-64009697D01*
X95546897Y-64187305D01*
X95522462Y-64240309D01*
X95450932Y-64488945D01*
X95450321Y-64493683D01*
X95450320Y-64493687D01*
X95428776Y-64660705D01*
X95417833Y-64745541D01*
X79596462Y-64745541D01*
X79579044Y-64613238D01*
X79518536Y-64467159D01*
X79422282Y-64341718D01*
X79408656Y-64331262D01*
X79341693Y-64279880D01*
X79296841Y-64245464D01*
X79150762Y-64184956D01*
X78994000Y-64164318D01*
X78837238Y-64184956D01*
X78691159Y-64245464D01*
X78646307Y-64279880D01*
X78579345Y-64331262D01*
X78565718Y-64341718D01*
X78469464Y-64467159D01*
X78408956Y-64613238D01*
X78388318Y-64770000D01*
X77506767Y-64770000D01*
X77486536Y-64721159D01*
X77390282Y-64595718D01*
X77264841Y-64499464D01*
X77259550Y-64497272D01*
X77211364Y-64446738D01*
X77197926Y-64377025D01*
X77224312Y-64311114D01*
X77259224Y-64280863D01*
X77264841Y-64278536D01*
X77390282Y-64182282D01*
X77404221Y-64164117D01*
X77481509Y-64063392D01*
X77486536Y-64056841D01*
X77547044Y-63910762D01*
X77567682Y-63754000D01*
X77547044Y-63597238D01*
X77486536Y-63451159D01*
X77390282Y-63325718D01*
X77264841Y-63229464D01*
X77259550Y-63227272D01*
X77211364Y-63176738D01*
X77197926Y-63107025D01*
X77224312Y-63041114D01*
X77259224Y-63010863D01*
X77264841Y-63008536D01*
X77367899Y-62929457D01*
X77383736Y-62917305D01*
X77390282Y-62912282D01*
X77404221Y-62894117D01*
X77481509Y-62793392D01*
X77486536Y-62786841D01*
X77547044Y-62640762D01*
X77567682Y-62484000D01*
X77547044Y-62327238D01*
X77486536Y-62181159D01*
X77390282Y-62055718D01*
X77264841Y-61959464D01*
X77259550Y-61957272D01*
X77211364Y-61906738D01*
X77197926Y-61837025D01*
X77224312Y-61771114D01*
X77259224Y-61740863D01*
X77264841Y-61738536D01*
X77375146Y-61653896D01*
X77383736Y-61647305D01*
X77390282Y-61642282D01*
X77404221Y-61624117D01*
X77481509Y-61523392D01*
X77486536Y-61516841D01*
X77547044Y-61370762D01*
X77567682Y-61214000D01*
X77547044Y-61057238D01*
X77486536Y-60911159D01*
X77390282Y-60785718D01*
X77264841Y-60689464D01*
X77259550Y-60687272D01*
X77211364Y-60636738D01*
X77197926Y-60567025D01*
X77224312Y-60501114D01*
X77259224Y-60470863D01*
X77264841Y-60468536D01*
X77367899Y-60389457D01*
X77383736Y-60377305D01*
X77390282Y-60372282D01*
X77404221Y-60354117D01*
X77481509Y-60253392D01*
X77486536Y-60246841D01*
X77547044Y-60100762D01*
X77567682Y-59944000D01*
X77547044Y-59787238D01*
X77486536Y-59641159D01*
X77390282Y-59515718D01*
X77264841Y-59419464D01*
X77259550Y-59417272D01*
X77211364Y-59366738D01*
X77197926Y-59297025D01*
X77224312Y-59231114D01*
X77259224Y-59200863D01*
X77264841Y-59198536D01*
X77367899Y-59119457D01*
X77383736Y-59107305D01*
X77390282Y-59102282D01*
X77404221Y-59084117D01*
X77481509Y-58983392D01*
X77486536Y-58976841D01*
X77547044Y-58830762D01*
X77567682Y-58674000D01*
X77547044Y-58517238D01*
X77486536Y-58371159D01*
X77390282Y-58245718D01*
X77264841Y-58149464D01*
X77259550Y-58147272D01*
X77211364Y-58096738D01*
X77197926Y-58027025D01*
X77224312Y-57961114D01*
X77259224Y-57930863D01*
X77264841Y-57928536D01*
X77367899Y-57849457D01*
X77383736Y-57837305D01*
X77390282Y-57832282D01*
X77404221Y-57814117D01*
X77481509Y-57713392D01*
X77486536Y-57706841D01*
X77547044Y-57560762D01*
X77567682Y-57404000D01*
X77547044Y-57247238D01*
X77486536Y-57101159D01*
X77390282Y-56975718D01*
X77264841Y-56879464D01*
X77259550Y-56877272D01*
X77211364Y-56826738D01*
X77197926Y-56757025D01*
X77224312Y-56691114D01*
X77259224Y-56660863D01*
X77264841Y-56658536D01*
X77367899Y-56579457D01*
X77383736Y-56567305D01*
X77390282Y-56562282D01*
X77404221Y-56544117D01*
X77481509Y-56443392D01*
X77486536Y-56436841D01*
X77547044Y-56290762D01*
X77567682Y-56134000D01*
X77547044Y-55977238D01*
X77486536Y-55831159D01*
X77390282Y-55705718D01*
X77264841Y-55609464D01*
X77259550Y-55607272D01*
X77211364Y-55556738D01*
X77197926Y-55487025D01*
X77224312Y-55421114D01*
X77259224Y-55390863D01*
X77264841Y-55388536D01*
X77367899Y-55309457D01*
X77383736Y-55297305D01*
X77390282Y-55292282D01*
X77404221Y-55274117D01*
X77481509Y-55173392D01*
X77486536Y-55166841D01*
X77547044Y-55020762D01*
X77567682Y-54864000D01*
X77547044Y-54707238D01*
X77486536Y-54561159D01*
X77390282Y-54435718D01*
X77352818Y-54406971D01*
X77310951Y-54349633D01*
X77306729Y-54278762D01*
X77341493Y-54216859D01*
X77381304Y-54190599D01*
X77386195Y-54188573D01*
X77513166Y-54135980D01*
X77519717Y-54130953D01*
X77519721Y-54130951D01*
X77523520Y-54128036D01*
X77589741Y-54102437D01*
X77600222Y-54102000D01*
X77607850Y-54102000D01*
X77675971Y-54122002D01*
G37*
G04 #@! TD.AperFunction*
M02*
