G04 #@! TF.GenerationSoftware,KiCad,Pcbnew,(6.0.7)*
G04 #@! TF.CreationDate,2023-03-21T11:33:27-05:00*
G04 #@! TF.ProjectId,RoveSoMoCo,526f7665-536f-44d6-9f43-6f2e6b696361,rev?*
G04 #@! TF.SameCoordinates,Original*
G04 #@! TF.FileFunction,Legend,Top*
G04 #@! TF.FilePolarity,Positive*
%FSLAX46Y46*%
G04 Gerber Fmt 4.6, Leading zero omitted, Abs format (unit mm)*
G04 Created by KiCad (PCBNEW (6.0.7)) date 2023-03-21 11:33:27*
%MOMM*%
%LPD*%
G01*
G04 APERTURE LIST*
G04 Aperture macros list*
%AMRoundRect*
0 Rectangle with rounded corners*
0 $1 Rounding radius*
0 $2 $3 $4 $5 $6 $7 $8 $9 X,Y pos of 4 corners*
0 Add a 4 corners polygon primitive as box body*
4,1,4,$2,$3,$4,$5,$6,$7,$8,$9,$2,$3,0*
0 Add four circle primitives for the rounded corners*
1,1,$1+$1,$2,$3*
1,1,$1+$1,$4,$5*
1,1,$1+$1,$6,$7*
1,1,$1+$1,$8,$9*
0 Add four rect primitives between the rounded corners*
20,1,$1+$1,$2,$3,$4,$5,0*
20,1,$1+$1,$4,$5,$6,$7,0*
20,1,$1+$1,$6,$7,$8,$9,0*
20,1,$1+$1,$8,$9,$2,$3,0*%
G04 Aperture macros list end*
%ADD10C,0.203200*%
%ADD11C,0.127000*%
%ADD12C,0.150000*%
%ADD13C,0.120000*%
%ADD14C,2.946400*%
%ADD15RoundRect,0.237500X-0.300000X-0.237500X0.300000X-0.237500X0.300000X0.237500X-0.300000X0.237500X0*%
%ADD16C,1.524000*%
%ADD17RoundRect,0.150000X-0.825000X-0.150000X0.825000X-0.150000X0.825000X0.150000X-0.825000X0.150000X0*%
%ADD18RoundRect,0.237500X0.237500X-0.250000X0.237500X0.250000X-0.237500X0.250000X-0.237500X-0.250000X0*%
%ADD19RoundRect,0.237500X0.237500X-0.287500X0.237500X0.287500X-0.237500X0.287500X-0.237500X-0.287500X0*%
%ADD20R,1.600000X1.600000*%
%ADD21C,1.600000*%
%ADD22RoundRect,0.237500X-0.287500X-0.237500X0.287500X-0.237500X0.287500X0.237500X-0.287500X0.237500X0*%
%ADD23RoundRect,0.150000X0.825000X0.150000X-0.825000X0.150000X-0.825000X-0.150000X0.825000X-0.150000X0*%
%ADD24RoundRect,0.150000X-0.837500X-0.150000X0.837500X-0.150000X0.837500X0.150000X-0.837500X0.150000X0*%
%ADD25RoundRect,0.237500X0.250000X0.237500X-0.250000X0.237500X-0.250000X-0.237500X0.250000X-0.237500X0*%
%ADD26RoundRect,0.237500X0.287500X0.237500X-0.287500X0.237500X-0.287500X-0.237500X0.287500X-0.237500X0*%
%ADD27RoundRect,0.237500X-0.250000X-0.237500X0.250000X-0.237500X0.250000X0.237500X-0.250000X0.237500X0*%
%ADD28R,0.650000X1.560000*%
%ADD29O,5.100000X3.000000*%
G04 APERTURE END LIST*
D10*
X97076380Y-61341000D02*
X96955428Y-61280523D01*
X96774000Y-61280523D01*
X96592571Y-61341000D01*
X96471619Y-61461952D01*
X96411142Y-61582904D01*
X96350666Y-61824809D01*
X96350666Y-62006238D01*
X96411142Y-62248142D01*
X96471619Y-62369095D01*
X96592571Y-62490047D01*
X96774000Y-62550523D01*
X96894952Y-62550523D01*
X97076380Y-62490047D01*
X97136857Y-62429571D01*
X97136857Y-62006238D01*
X96894952Y-62006238D01*
X97681142Y-62550523D02*
X97681142Y-61280523D01*
X98406857Y-62550523D01*
X98406857Y-61280523D01*
X99011619Y-62550523D02*
X99011619Y-61280523D01*
X99314000Y-61280523D01*
X99495428Y-61341000D01*
X99616380Y-61461952D01*
X99676857Y-61582904D01*
X99737333Y-61824809D01*
X99737333Y-62006238D01*
X99676857Y-62248142D01*
X99616380Y-62369095D01*
X99495428Y-62490047D01*
X99314000Y-62550523D01*
X99011619Y-62550523D01*
X99253523Y-59369476D02*
X99253523Y-60639476D01*
X98830190Y-59732333D01*
X98406857Y-60639476D01*
X98406857Y-59369476D01*
X97802095Y-59853285D02*
X96834476Y-59853285D01*
X88851619Y-76520523D02*
X89637809Y-76520523D01*
X89214476Y-77004333D01*
X89395904Y-77004333D01*
X89516857Y-77064809D01*
X89577333Y-77125285D01*
X89637809Y-77246238D01*
X89637809Y-77548619D01*
X89577333Y-77669571D01*
X89516857Y-77730047D01*
X89395904Y-77790523D01*
X89033047Y-77790523D01*
X88912095Y-77730047D01*
X88851619Y-77669571D01*
X90000666Y-76520523D02*
X90424000Y-77790523D01*
X90847333Y-76520523D01*
X91149714Y-76520523D02*
X91935904Y-76520523D01*
X91512571Y-77004333D01*
X91694000Y-77004333D01*
X91814952Y-77064809D01*
X91875428Y-77125285D01*
X91935904Y-77246238D01*
X91935904Y-77548619D01*
X91875428Y-77669571D01*
X91814952Y-77730047D01*
X91694000Y-77790523D01*
X91331142Y-77790523D01*
X91210190Y-77730047D01*
X91149714Y-77669571D01*
X91633523Y-59369476D02*
X91633523Y-60639476D01*
X91210190Y-59732333D01*
X90786857Y-60639476D01*
X90786857Y-59369476D01*
X90182095Y-59853285D02*
X89214476Y-59853285D01*
X89698285Y-59369476D02*
X89698285Y-60337095D01*
X89637809Y-62550523D02*
X88912095Y-62550523D01*
X89274952Y-62550523D02*
X89274952Y-61280523D01*
X89154000Y-61461952D01*
X89033047Y-61582904D01*
X88912095Y-61643380D01*
X90121619Y-61401476D02*
X90182095Y-61341000D01*
X90303047Y-61280523D01*
X90605428Y-61280523D01*
X90726380Y-61341000D01*
X90786857Y-61401476D01*
X90847333Y-61522428D01*
X90847333Y-61643380D01*
X90786857Y-61824809D01*
X90061142Y-62550523D01*
X90847333Y-62550523D01*
X91210190Y-61280523D02*
X91633523Y-62550523D01*
X92056857Y-61280523D01*
X97257809Y-77790523D02*
X96532095Y-77790523D01*
X96894952Y-77790523D02*
X96894952Y-76520523D01*
X96774000Y-76701952D01*
X96653047Y-76822904D01*
X96532095Y-76883380D01*
X97741619Y-76641476D02*
X97802095Y-76581000D01*
X97923047Y-76520523D01*
X98225428Y-76520523D01*
X98346380Y-76581000D01*
X98406857Y-76641476D01*
X98467333Y-76762428D01*
X98467333Y-76883380D01*
X98406857Y-77064809D01*
X97681142Y-77790523D01*
X98467333Y-77790523D01*
X98830190Y-76520523D02*
X99253523Y-77790523D01*
X99676857Y-76520523D01*
D11*
X101647473Y-61591437D02*
X101452740Y-61313247D01*
X101313645Y-61591437D02*
X101313645Y-61007237D01*
X101536197Y-61007237D01*
X101591835Y-61035057D01*
X101619654Y-61062876D01*
X101647473Y-61118514D01*
X101647473Y-61201971D01*
X101619654Y-61257609D01*
X101591835Y-61285428D01*
X101536197Y-61313247D01*
X101313645Y-61313247D01*
X101981302Y-61591437D02*
X101925664Y-61563618D01*
X101897845Y-61535799D01*
X101870026Y-61480161D01*
X101870026Y-61313247D01*
X101897845Y-61257609D01*
X101925664Y-61229790D01*
X101981302Y-61201971D01*
X102064759Y-61201971D01*
X102120397Y-61229790D01*
X102148216Y-61257609D01*
X102176035Y-61313247D01*
X102176035Y-61480161D01*
X102148216Y-61535799D01*
X102120397Y-61563618D01*
X102064759Y-61591437D01*
X101981302Y-61591437D01*
X102370769Y-61201971D02*
X102509864Y-61591437D01*
X102648959Y-61201971D01*
X103094064Y-61563618D02*
X103038426Y-61591437D01*
X102927150Y-61591437D01*
X102871511Y-61563618D01*
X102843692Y-61507980D01*
X102843692Y-61285428D01*
X102871511Y-61229790D01*
X102927150Y-61201971D01*
X103038426Y-61201971D01*
X103094064Y-61229790D01*
X103121883Y-61285428D01*
X103121883Y-61341066D01*
X102843692Y-61396704D01*
X103344435Y-61563618D02*
X103427892Y-61591437D01*
X103566988Y-61591437D01*
X103622626Y-61563618D01*
X103650445Y-61535799D01*
X103678264Y-61480161D01*
X103678264Y-61424523D01*
X103650445Y-61368885D01*
X103622626Y-61341066D01*
X103566988Y-61313247D01*
X103455711Y-61285428D01*
X103400073Y-61257609D01*
X103372254Y-61229790D01*
X103344435Y-61174152D01*
X103344435Y-61118514D01*
X103372254Y-61062876D01*
X103400073Y-61035057D01*
X103455711Y-61007237D01*
X103594807Y-61007237D01*
X103678264Y-61035057D01*
X104012092Y-61591437D02*
X103956454Y-61563618D01*
X103928635Y-61535799D01*
X103900816Y-61480161D01*
X103900816Y-61313247D01*
X103928635Y-61257609D01*
X103956454Y-61229790D01*
X104012092Y-61201971D01*
X104095550Y-61201971D01*
X104151188Y-61229790D01*
X104179007Y-61257609D01*
X104206826Y-61313247D01*
X104206826Y-61480161D01*
X104179007Y-61535799D01*
X104151188Y-61563618D01*
X104095550Y-61591437D01*
X104012092Y-61591437D01*
X104457197Y-61591437D02*
X104457197Y-61007237D01*
X104651930Y-61424523D01*
X104846664Y-61007237D01*
X104846664Y-61591437D01*
X105208311Y-61591437D02*
X105152673Y-61563618D01*
X105124854Y-61535799D01*
X105097035Y-61480161D01*
X105097035Y-61313247D01*
X105124854Y-61257609D01*
X105152673Y-61229790D01*
X105208311Y-61201971D01*
X105291769Y-61201971D01*
X105347407Y-61229790D01*
X105375226Y-61257609D01*
X105403045Y-61313247D01*
X105403045Y-61480161D01*
X105375226Y-61535799D01*
X105347407Y-61563618D01*
X105291769Y-61591437D01*
X105208311Y-61591437D01*
X105987245Y-61535799D02*
X105959426Y-61563618D01*
X105875969Y-61591437D01*
X105820330Y-61591437D01*
X105736873Y-61563618D01*
X105681235Y-61507980D01*
X105653416Y-61452342D01*
X105625597Y-61341066D01*
X105625597Y-61257609D01*
X105653416Y-61146333D01*
X105681235Y-61090695D01*
X105736873Y-61035057D01*
X105820330Y-61007237D01*
X105875969Y-61007237D01*
X105959426Y-61035057D01*
X105987245Y-61062876D01*
X106321073Y-61591437D02*
X106265435Y-61563618D01*
X106237616Y-61535799D01*
X106209797Y-61480161D01*
X106209797Y-61313247D01*
X106237616Y-61257609D01*
X106265435Y-61229790D01*
X106321073Y-61201971D01*
X106404530Y-61201971D01*
X106460169Y-61229790D01*
X106487988Y-61257609D01*
X106515807Y-61313247D01*
X106515807Y-61480161D01*
X106487988Y-61535799D01*
X106460169Y-61563618D01*
X106404530Y-61591437D01*
X106321073Y-61591437D01*
X106793997Y-61563618D02*
X106793997Y-61591437D01*
X106766178Y-61647076D01*
X106738359Y-61674895D01*
X107823302Y-61591437D02*
X107628569Y-61313247D01*
X107489473Y-61591437D02*
X107489473Y-61007237D01*
X107712026Y-61007237D01*
X107767664Y-61035057D01*
X107795483Y-61062876D01*
X107823302Y-61118514D01*
X107823302Y-61201971D01*
X107795483Y-61257609D01*
X107767664Y-61285428D01*
X107712026Y-61313247D01*
X107489473Y-61313247D01*
X108296226Y-61563618D02*
X108240588Y-61591437D01*
X108129311Y-61591437D01*
X108073673Y-61563618D01*
X108045854Y-61507980D01*
X108045854Y-61285428D01*
X108073673Y-61229790D01*
X108129311Y-61201971D01*
X108240588Y-61201971D01*
X108296226Y-61229790D01*
X108324045Y-61285428D01*
X108324045Y-61341066D01*
X108045854Y-61396704D01*
X108518778Y-61201971D02*
X108657873Y-61591437D01*
X108796969Y-61201971D01*
X109325530Y-61591437D02*
X108991702Y-61591437D01*
X109158616Y-61591437D02*
X109158616Y-61007237D01*
X109102978Y-61090695D01*
X109047340Y-61146333D01*
X108991702Y-61174152D01*
X101313645Y-62531999D02*
X101313645Y-61947799D01*
X101508378Y-62365085D01*
X101703111Y-61947799D01*
X101703111Y-62531999D01*
X102231673Y-62531999D02*
X102231673Y-62225990D01*
X102203854Y-62170352D01*
X102148216Y-62142533D01*
X102036940Y-62142533D01*
X101981302Y-62170352D01*
X102231673Y-62504180D02*
X102176035Y-62531999D01*
X102036940Y-62531999D01*
X101981302Y-62504180D01*
X101953483Y-62448542D01*
X101953483Y-62392904D01*
X101981302Y-62337266D01*
X102036940Y-62309447D01*
X102176035Y-62309447D01*
X102231673Y-62281628D01*
X102509864Y-62531999D02*
X102509864Y-62142533D01*
X102509864Y-62253809D02*
X102537683Y-62198171D01*
X102565502Y-62170352D01*
X102621140Y-62142533D01*
X102676778Y-62142533D01*
X102843692Y-62504180D02*
X102899330Y-62531999D01*
X103010607Y-62531999D01*
X103066245Y-62504180D01*
X103094064Y-62448542D01*
X103094064Y-62420723D01*
X103066245Y-62365085D01*
X103010607Y-62337266D01*
X102927150Y-62337266D01*
X102871511Y-62309447D01*
X102843692Y-62253809D01*
X102843692Y-62225990D01*
X102871511Y-62170352D01*
X102927150Y-62142533D01*
X103010607Y-62142533D01*
X103066245Y-62170352D01*
X104123369Y-62531999D02*
X103928635Y-62253809D01*
X103789540Y-62531999D02*
X103789540Y-61947799D01*
X104012092Y-61947799D01*
X104067730Y-61975619D01*
X104095550Y-62003438D01*
X104123369Y-62059076D01*
X104123369Y-62142533D01*
X104095550Y-62198171D01*
X104067730Y-62225990D01*
X104012092Y-62253809D01*
X103789540Y-62253809D01*
X104457197Y-62531999D02*
X104401559Y-62504180D01*
X104373740Y-62476361D01*
X104345921Y-62420723D01*
X104345921Y-62253809D01*
X104373740Y-62198171D01*
X104401559Y-62170352D01*
X104457197Y-62142533D01*
X104540654Y-62142533D01*
X104596292Y-62170352D01*
X104624111Y-62198171D01*
X104651930Y-62253809D01*
X104651930Y-62420723D01*
X104624111Y-62476361D01*
X104596292Y-62504180D01*
X104540654Y-62531999D01*
X104457197Y-62531999D01*
X104846664Y-62142533D02*
X104985759Y-62531999D01*
X105124854Y-62142533D01*
X105569959Y-62504180D02*
X105514321Y-62531999D01*
X105403045Y-62531999D01*
X105347407Y-62504180D01*
X105319588Y-62448542D01*
X105319588Y-62225990D01*
X105347407Y-62170352D01*
X105403045Y-62142533D01*
X105514321Y-62142533D01*
X105569959Y-62170352D01*
X105597778Y-62225990D01*
X105597778Y-62281628D01*
X105319588Y-62337266D01*
X105848150Y-62531999D02*
X105848150Y-62142533D01*
X105848150Y-62253809D02*
X105875969Y-62198171D01*
X105903788Y-62170352D01*
X105959426Y-62142533D01*
X106015064Y-62142533D01*
X106654902Y-62531999D02*
X106654902Y-61947799D01*
X106793997Y-61947799D01*
X106877454Y-61975619D01*
X106933092Y-62031257D01*
X106960911Y-62086895D01*
X106988730Y-62198171D01*
X106988730Y-62281628D01*
X106960911Y-62392904D01*
X106933092Y-62448542D01*
X106877454Y-62504180D01*
X106793997Y-62531999D01*
X106654902Y-62531999D01*
X107461654Y-62504180D02*
X107406016Y-62531999D01*
X107294740Y-62531999D01*
X107239102Y-62504180D01*
X107211283Y-62448542D01*
X107211283Y-62225990D01*
X107239102Y-62170352D01*
X107294740Y-62142533D01*
X107406016Y-62142533D01*
X107461654Y-62170352D01*
X107489473Y-62225990D01*
X107489473Y-62281628D01*
X107211283Y-62337266D01*
X107712026Y-62504180D02*
X107767664Y-62531999D01*
X107878940Y-62531999D01*
X107934578Y-62504180D01*
X107962397Y-62448542D01*
X107962397Y-62420723D01*
X107934578Y-62365085D01*
X107878940Y-62337266D01*
X107795483Y-62337266D01*
X107739845Y-62309447D01*
X107712026Y-62253809D01*
X107712026Y-62225990D01*
X107739845Y-62170352D01*
X107795483Y-62142533D01*
X107878940Y-62142533D01*
X107934578Y-62170352D01*
X108212769Y-62531999D02*
X108212769Y-62142533D01*
X108212769Y-61947799D02*
X108184950Y-61975619D01*
X108212769Y-62003438D01*
X108240588Y-61975619D01*
X108212769Y-61947799D01*
X108212769Y-62003438D01*
X108741330Y-62142533D02*
X108741330Y-62615457D01*
X108713511Y-62671095D01*
X108685692Y-62698914D01*
X108630054Y-62726733D01*
X108546597Y-62726733D01*
X108490959Y-62698914D01*
X108741330Y-62504180D02*
X108685692Y-62531999D01*
X108574416Y-62531999D01*
X108518778Y-62504180D01*
X108490959Y-62476361D01*
X108463140Y-62420723D01*
X108463140Y-62253809D01*
X108490959Y-62198171D01*
X108518778Y-62170352D01*
X108574416Y-62142533D01*
X108685692Y-62142533D01*
X108741330Y-62170352D01*
X109019521Y-62142533D02*
X109019521Y-62531999D01*
X109019521Y-62198171D02*
X109047340Y-62170352D01*
X109102978Y-62142533D01*
X109186435Y-62142533D01*
X109242073Y-62170352D01*
X109269892Y-62225990D01*
X109269892Y-62531999D01*
X109909730Y-61947799D02*
X110243559Y-61947799D01*
X110076645Y-62531999D02*
X110076645Y-61947799D01*
X110660845Y-62504180D02*
X110605207Y-62531999D01*
X110493930Y-62531999D01*
X110438292Y-62504180D01*
X110410473Y-62448542D01*
X110410473Y-62225990D01*
X110438292Y-62170352D01*
X110493930Y-62142533D01*
X110605207Y-62142533D01*
X110660845Y-62170352D01*
X110688664Y-62225990D01*
X110688664Y-62281628D01*
X110410473Y-62337266D01*
X111189407Y-62531999D02*
X111189407Y-62225990D01*
X111161588Y-62170352D01*
X111105950Y-62142533D01*
X110994673Y-62142533D01*
X110939035Y-62170352D01*
X111189407Y-62504180D02*
X111133769Y-62531999D01*
X110994673Y-62531999D01*
X110939035Y-62504180D01*
X110911216Y-62448542D01*
X110911216Y-62392904D01*
X110939035Y-62337266D01*
X110994673Y-62309447D01*
X111133769Y-62309447D01*
X111189407Y-62281628D01*
X111467597Y-62531999D02*
X111467597Y-62142533D01*
X111467597Y-62198171D02*
X111495416Y-62170352D01*
X111551054Y-62142533D01*
X111634511Y-62142533D01*
X111690150Y-62170352D01*
X111717969Y-62225990D01*
X111717969Y-62531999D01*
X111717969Y-62225990D02*
X111745788Y-62170352D01*
X111801426Y-62142533D01*
X111884883Y-62142533D01*
X111940521Y-62170352D01*
X111968340Y-62225990D01*
X111968340Y-62531999D01*
X101313645Y-63472561D02*
X101313645Y-62888361D01*
X101508378Y-63305647D01*
X101703111Y-62888361D01*
X101703111Y-63472561D01*
X101981302Y-63472561D02*
X101981302Y-63083095D01*
X101981302Y-62888361D02*
X101953483Y-62916181D01*
X101981302Y-62944000D01*
X102009121Y-62916181D01*
X101981302Y-62888361D01*
X101981302Y-62944000D01*
X102231673Y-63444742D02*
X102287311Y-63472561D01*
X102398588Y-63472561D01*
X102454226Y-63444742D01*
X102482045Y-63389104D01*
X102482045Y-63361285D01*
X102454226Y-63305647D01*
X102398588Y-63277828D01*
X102315130Y-63277828D01*
X102259492Y-63250009D01*
X102231673Y-63194371D01*
X102231673Y-63166552D01*
X102259492Y-63110914D01*
X102315130Y-63083095D01*
X102398588Y-63083095D01*
X102454226Y-63110914D01*
X102704597Y-63444742D02*
X102760235Y-63472561D01*
X102871511Y-63472561D01*
X102927150Y-63444742D01*
X102954969Y-63389104D01*
X102954969Y-63361285D01*
X102927150Y-63305647D01*
X102871511Y-63277828D01*
X102788054Y-63277828D01*
X102732416Y-63250009D01*
X102704597Y-63194371D01*
X102704597Y-63166552D01*
X102732416Y-63110914D01*
X102788054Y-63083095D01*
X102871511Y-63083095D01*
X102927150Y-63110914D01*
X103288797Y-63472561D02*
X103233159Y-63444742D01*
X103205340Y-63416923D01*
X103177521Y-63361285D01*
X103177521Y-63194371D01*
X103205340Y-63138733D01*
X103233159Y-63110914D01*
X103288797Y-63083095D01*
X103372254Y-63083095D01*
X103427892Y-63110914D01*
X103455711Y-63138733D01*
X103483530Y-63194371D01*
X103483530Y-63361285D01*
X103455711Y-63416923D01*
X103427892Y-63444742D01*
X103372254Y-63472561D01*
X103288797Y-63472561D01*
X103984273Y-63083095D02*
X103984273Y-63472561D01*
X103733902Y-63083095D02*
X103733902Y-63389104D01*
X103761721Y-63444742D01*
X103817359Y-63472561D01*
X103900816Y-63472561D01*
X103956454Y-63444742D01*
X103984273Y-63416923D01*
X104262464Y-63472561D02*
X104262464Y-63083095D01*
X104262464Y-63194371D02*
X104290283Y-63138733D01*
X104318102Y-63110914D01*
X104373740Y-63083095D01*
X104429378Y-63083095D01*
X104624111Y-63472561D02*
X104624111Y-63083095D01*
X104624111Y-62888361D02*
X104596292Y-62916181D01*
X104624111Y-62944000D01*
X104651930Y-62916181D01*
X104624111Y-62888361D01*
X104624111Y-62944000D01*
X105319588Y-63444742D02*
X105403045Y-63472561D01*
X105542140Y-63472561D01*
X105597778Y-63444742D01*
X105625597Y-63416923D01*
X105653416Y-63361285D01*
X105653416Y-63305647D01*
X105625597Y-63250009D01*
X105597778Y-63222190D01*
X105542140Y-63194371D01*
X105430864Y-63166552D01*
X105375226Y-63138733D01*
X105347407Y-63110914D01*
X105319588Y-63055276D01*
X105319588Y-62999638D01*
X105347407Y-62944000D01*
X105375226Y-62916181D01*
X105430864Y-62888361D01*
X105569959Y-62888361D01*
X105653416Y-62916181D01*
X106376711Y-63472561D02*
X106348892Y-63472561D01*
X106293254Y-63444742D01*
X106209797Y-63361285D01*
X106070702Y-63194371D01*
X106015064Y-63110914D01*
X105987245Y-63027457D01*
X105987245Y-62971819D01*
X106015064Y-62916181D01*
X106070702Y-62888361D01*
X106098521Y-62888361D01*
X106154159Y-62916181D01*
X106181978Y-62971819D01*
X106181978Y-62999638D01*
X106154159Y-63055276D01*
X106126340Y-63083095D01*
X105959426Y-63194371D01*
X105931607Y-63222190D01*
X105903788Y-63277828D01*
X105903788Y-63361285D01*
X105931607Y-63416923D01*
X105959426Y-63444742D01*
X106015064Y-63472561D01*
X106098521Y-63472561D01*
X106154159Y-63444742D01*
X106181978Y-63416923D01*
X106265435Y-63305647D01*
X106293254Y-63222190D01*
X106293254Y-63166552D01*
X106543626Y-62888361D02*
X106877454Y-62888361D01*
X106710540Y-63472561D02*
X106710540Y-62888361D01*
X107100007Y-63444742D02*
X107100007Y-63472561D01*
X107072188Y-63528200D01*
X107044369Y-63556019D01*
X107767664Y-62944000D02*
X107795483Y-62916181D01*
X107851121Y-62888361D01*
X107990216Y-62888361D01*
X108045854Y-62916181D01*
X108073673Y-62944000D01*
X108101492Y-62999638D01*
X108101492Y-63055276D01*
X108073673Y-63138733D01*
X107739845Y-63472561D01*
X108101492Y-63472561D01*
X108463140Y-62888361D02*
X108518778Y-62888361D01*
X108574416Y-62916181D01*
X108602235Y-62944000D01*
X108630054Y-62999638D01*
X108657873Y-63110914D01*
X108657873Y-63250009D01*
X108630054Y-63361285D01*
X108602235Y-63416923D01*
X108574416Y-63444742D01*
X108518778Y-63472561D01*
X108463140Y-63472561D01*
X108407502Y-63444742D01*
X108379683Y-63416923D01*
X108351864Y-63361285D01*
X108324045Y-63250009D01*
X108324045Y-63110914D01*
X108351864Y-62999638D01*
X108379683Y-62944000D01*
X108407502Y-62916181D01*
X108463140Y-62888361D01*
X108880426Y-62944000D02*
X108908245Y-62916181D01*
X108963883Y-62888361D01*
X109102978Y-62888361D01*
X109158616Y-62916181D01*
X109186435Y-62944000D01*
X109214254Y-62999638D01*
X109214254Y-63055276D01*
X109186435Y-63138733D01*
X108852607Y-63472561D01*
X109214254Y-63472561D01*
X109408988Y-62888361D02*
X109770635Y-62888361D01*
X109575902Y-63110914D01*
X109659359Y-63110914D01*
X109714997Y-63138733D01*
X109742816Y-63166552D01*
X109770635Y-63222190D01*
X109770635Y-63361285D01*
X109742816Y-63416923D01*
X109714997Y-63444742D01*
X109659359Y-63472561D01*
X109492445Y-63472561D01*
X109436807Y-63444742D01*
X109408988Y-63416923D01*
X101313645Y-64413123D02*
X101313645Y-63828923D01*
X101508378Y-64246209D01*
X101703111Y-63828923D01*
X101703111Y-64413123D01*
X102231673Y-64413123D02*
X102231673Y-64107114D01*
X102203854Y-64051476D01*
X102148216Y-64023657D01*
X102036940Y-64023657D01*
X101981302Y-64051476D01*
X102231673Y-64385304D02*
X102176035Y-64413123D01*
X102036940Y-64413123D01*
X101981302Y-64385304D01*
X101953483Y-64329666D01*
X101953483Y-64274028D01*
X101981302Y-64218390D01*
X102036940Y-64190571D01*
X102176035Y-64190571D01*
X102231673Y-64162752D01*
X102593321Y-64413123D02*
X102537683Y-64385304D01*
X102509864Y-64329666D01*
X102509864Y-63828923D01*
X103066245Y-64413123D02*
X103066245Y-64107114D01*
X103038426Y-64051476D01*
X102982788Y-64023657D01*
X102871511Y-64023657D01*
X102815873Y-64051476D01*
X103066245Y-64385304D02*
X103010607Y-64413123D01*
X102871511Y-64413123D01*
X102815873Y-64385304D01*
X102788054Y-64329666D01*
X102788054Y-64274028D01*
X102815873Y-64218390D01*
X102871511Y-64190571D01*
X103010607Y-64190571D01*
X103066245Y-64162752D01*
X103594807Y-64385304D02*
X103539169Y-64413123D01*
X103427892Y-64413123D01*
X103372254Y-64385304D01*
X103344435Y-64357485D01*
X103316616Y-64301847D01*
X103316616Y-64134933D01*
X103344435Y-64079295D01*
X103372254Y-64051476D01*
X103427892Y-64023657D01*
X103539169Y-64023657D01*
X103594807Y-64051476D01*
X103845178Y-64413123D02*
X103845178Y-63828923D01*
X103900816Y-64190571D02*
X104067730Y-64413123D01*
X104067730Y-64023657D02*
X103845178Y-64246209D01*
X104318102Y-64413123D02*
X104318102Y-64023657D01*
X104318102Y-63828923D02*
X104290283Y-63856743D01*
X104318102Y-63884562D01*
X104345921Y-63856743D01*
X104318102Y-63828923D01*
X104318102Y-63884562D01*
X105041397Y-64107114D02*
X105236130Y-64107114D01*
X105319588Y-64413123D02*
X105041397Y-64413123D01*
X105041397Y-63828923D01*
X105319588Y-63828923D01*
X105569959Y-64413123D02*
X105569959Y-63828923D01*
X105820330Y-64413123D02*
X105820330Y-64107114D01*
X105792511Y-64051476D01*
X105736873Y-64023657D01*
X105653416Y-64023657D01*
X105597778Y-64051476D01*
X105569959Y-64079295D01*
X106181978Y-64413123D02*
X106126340Y-64385304D01*
X106098521Y-64329666D01*
X106098521Y-63828923D01*
X106627083Y-64385304D02*
X106571445Y-64413123D01*
X106460169Y-64413123D01*
X106404530Y-64385304D01*
X106376711Y-64329666D01*
X106376711Y-64107114D01*
X106404530Y-64051476D01*
X106460169Y-64023657D01*
X106571445Y-64023657D01*
X106627083Y-64051476D01*
X106654902Y-64107114D01*
X106654902Y-64162752D01*
X106376711Y-64218390D01*
X106905273Y-64413123D02*
X106905273Y-64023657D01*
X106905273Y-64134933D02*
X106933092Y-64079295D01*
X106960911Y-64051476D01*
X107016550Y-64023657D01*
X107072188Y-64023657D01*
X107239102Y-64385304D02*
X107294740Y-64413123D01*
X107406016Y-64413123D01*
X107461654Y-64385304D01*
X107489473Y-64329666D01*
X107489473Y-64301847D01*
X107461654Y-64246209D01*
X107406016Y-64218390D01*
X107322559Y-64218390D01*
X107266921Y-64190571D01*
X107239102Y-64134933D01*
X107239102Y-64107114D01*
X107266921Y-64051476D01*
X107322559Y-64023657D01*
X107406016Y-64023657D01*
X107461654Y-64051476D01*
D12*
X94067333Y-58617142D02*
X94019714Y-58664761D01*
X93876857Y-58712380D01*
X93781619Y-58712380D01*
X93638761Y-58664761D01*
X93543523Y-58569523D01*
X93495904Y-58474285D01*
X93448285Y-58283809D01*
X93448285Y-58140952D01*
X93495904Y-57950476D01*
X93543523Y-57855238D01*
X93638761Y-57760000D01*
X93781619Y-57712380D01*
X93876857Y-57712380D01*
X94019714Y-57760000D01*
X94067333Y-57807619D01*
X95019714Y-58712380D02*
X94448285Y-58712380D01*
X94734000Y-58712380D02*
X94734000Y-57712380D01*
X94638761Y-57855238D01*
X94543523Y-57950476D01*
X94448285Y-57998095D01*
X99417142Y-50291809D02*
X99464761Y-50339428D01*
X99512380Y-50482285D01*
X99512380Y-50577523D01*
X99464761Y-50720380D01*
X99369523Y-50815619D01*
X99274285Y-50863238D01*
X99083809Y-50910857D01*
X98940952Y-50910857D01*
X98750476Y-50863238D01*
X98655238Y-50815619D01*
X98560000Y-50720380D01*
X98512380Y-50577523D01*
X98512380Y-50482285D01*
X98560000Y-50339428D01*
X98607619Y-50291809D01*
X99512380Y-49720380D02*
X99464761Y-49815619D01*
X99417142Y-49863238D01*
X99321904Y-49910857D01*
X99036190Y-49910857D01*
X98940952Y-49863238D01*
X98893333Y-49815619D01*
X98845714Y-49720380D01*
X98845714Y-49577523D01*
X98893333Y-49482285D01*
X98940952Y-49434666D01*
X99036190Y-49387047D01*
X99321904Y-49387047D01*
X99417142Y-49434666D01*
X99464761Y-49482285D01*
X99512380Y-49577523D01*
X99512380Y-49720380D01*
X98845714Y-48958476D02*
X99512380Y-48958476D01*
X98940952Y-48958476D02*
X98893333Y-48910857D01*
X98845714Y-48815619D01*
X98845714Y-48672761D01*
X98893333Y-48577523D01*
X98988571Y-48529904D01*
X99512380Y-48529904D01*
X98845714Y-48053714D02*
X99512380Y-48053714D01*
X98940952Y-48053714D02*
X98893333Y-48006095D01*
X98845714Y-47910857D01*
X98845714Y-47768000D01*
X98893333Y-47672761D01*
X98988571Y-47625142D01*
X99512380Y-47625142D01*
X98512380Y-47244190D02*
X98512380Y-46625142D01*
X98893333Y-46958476D01*
X98893333Y-46815619D01*
X98940952Y-46720380D01*
X98988571Y-46672761D01*
X99083809Y-46625142D01*
X99321904Y-46625142D01*
X99417142Y-46672761D01*
X99464761Y-46720380D01*
X99512380Y-46815619D01*
X99512380Y-47101333D01*
X99464761Y-47196571D01*
X99417142Y-47244190D01*
X101814380Y-68325904D02*
X102623904Y-68325904D01*
X102719142Y-68278285D01*
X102766761Y-68230666D01*
X102814380Y-68135428D01*
X102814380Y-67944952D01*
X102766761Y-67849714D01*
X102719142Y-67802095D01*
X102623904Y-67754476D01*
X101814380Y-67754476D01*
X101814380Y-67373523D02*
X101814380Y-66754476D01*
X102195333Y-67087809D01*
X102195333Y-66944952D01*
X102242952Y-66849714D01*
X102290571Y-66802095D01*
X102385809Y-66754476D01*
X102623904Y-66754476D01*
X102719142Y-66802095D01*
X102766761Y-66849714D01*
X102814380Y-66944952D01*
X102814380Y-67230666D01*
X102766761Y-67325904D01*
X102719142Y-67373523D01*
X87717333Y-75128380D02*
X87384000Y-74652190D01*
X87145904Y-75128380D02*
X87145904Y-74128380D01*
X87526857Y-74128380D01*
X87622095Y-74176000D01*
X87669714Y-74223619D01*
X87717333Y-74318857D01*
X87717333Y-74461714D01*
X87669714Y-74556952D01*
X87622095Y-74604571D01*
X87526857Y-74652190D01*
X87145904Y-74652190D01*
X88288761Y-74556952D02*
X88193523Y-74509333D01*
X88145904Y-74461714D01*
X88098285Y-74366476D01*
X88098285Y-74318857D01*
X88145904Y-74223619D01*
X88193523Y-74176000D01*
X88288761Y-74128380D01*
X88479238Y-74128380D01*
X88574476Y-74176000D01*
X88622095Y-74223619D01*
X88669714Y-74318857D01*
X88669714Y-74366476D01*
X88622095Y-74461714D01*
X88574476Y-74509333D01*
X88479238Y-74556952D01*
X88288761Y-74556952D01*
X88193523Y-74604571D01*
X88145904Y-74652190D01*
X88098285Y-74747428D01*
X88098285Y-74937904D01*
X88145904Y-75033142D01*
X88193523Y-75080761D01*
X88288761Y-75128380D01*
X88479238Y-75128380D01*
X88574476Y-75080761D01*
X88622095Y-75033142D01*
X88669714Y-74937904D01*
X88669714Y-74747428D01*
X88622095Y-74652190D01*
X88574476Y-74604571D01*
X88479238Y-74556952D01*
X85113904Y-75128380D02*
X85113904Y-74128380D01*
X85352000Y-74128380D01*
X85494857Y-74176000D01*
X85590095Y-74271238D01*
X85637714Y-74366476D01*
X85685333Y-74556952D01*
X85685333Y-74699809D01*
X85637714Y-74890285D01*
X85590095Y-74985523D01*
X85494857Y-75080761D01*
X85352000Y-75128380D01*
X85113904Y-75128380D01*
X86542476Y-74128380D02*
X86352000Y-74128380D01*
X86256761Y-74176000D01*
X86209142Y-74223619D01*
X86113904Y-74366476D01*
X86066285Y-74556952D01*
X86066285Y-74937904D01*
X86113904Y-75033142D01*
X86161523Y-75080761D01*
X86256761Y-75128380D01*
X86447238Y-75128380D01*
X86542476Y-75080761D01*
X86590095Y-75033142D01*
X86637714Y-74937904D01*
X86637714Y-74699809D01*
X86590095Y-74604571D01*
X86542476Y-74556952D01*
X86447238Y-74509333D01*
X86256761Y-74509333D01*
X86161523Y-74556952D01*
X86113904Y-74604571D01*
X86066285Y-74699809D01*
X99909333Y-70207142D02*
X99861714Y-70254761D01*
X99718857Y-70302380D01*
X99623619Y-70302380D01*
X99480761Y-70254761D01*
X99385523Y-70159523D01*
X99337904Y-70064285D01*
X99290285Y-69873809D01*
X99290285Y-69730952D01*
X99337904Y-69540476D01*
X99385523Y-69445238D01*
X99480761Y-69350000D01*
X99623619Y-69302380D01*
X99718857Y-69302380D01*
X99861714Y-69350000D01*
X99909333Y-69397619D01*
X100814095Y-69302380D02*
X100337904Y-69302380D01*
X100290285Y-69778571D01*
X100337904Y-69730952D01*
X100433142Y-69683333D01*
X100671238Y-69683333D01*
X100766476Y-69730952D01*
X100814095Y-69778571D01*
X100861714Y-69873809D01*
X100861714Y-70111904D01*
X100814095Y-70207142D01*
X100766476Y-70254761D01*
X100671238Y-70302380D01*
X100433142Y-70302380D01*
X100337904Y-70254761D01*
X100290285Y-70207142D01*
X110539304Y-51658780D02*
X110539304Y-50658780D01*
X110777400Y-50658780D01*
X110920257Y-50706400D01*
X111015495Y-50801638D01*
X111063114Y-50896876D01*
X111110733Y-51087352D01*
X111110733Y-51230209D01*
X111063114Y-51420685D01*
X111015495Y-51515923D01*
X110920257Y-51611161D01*
X110777400Y-51658780D01*
X110539304Y-51658780D01*
X111967876Y-50992114D02*
X111967876Y-51658780D01*
X111729780Y-50611161D02*
X111491685Y-51325447D01*
X112110733Y-51325447D01*
X110275619Y-57499238D02*
X110228000Y-57594476D01*
X110132761Y-57689714D01*
X109989904Y-57832571D01*
X109942285Y-57927809D01*
X109942285Y-58023047D01*
X110180380Y-57975428D02*
X110132761Y-58070666D01*
X110037523Y-58165904D01*
X109847047Y-58213523D01*
X109513714Y-58213523D01*
X109323238Y-58165904D01*
X109228000Y-58070666D01*
X109180380Y-57975428D01*
X109180380Y-57784952D01*
X109228000Y-57689714D01*
X109323238Y-57594476D01*
X109513714Y-57546857D01*
X109847047Y-57546857D01*
X110037523Y-57594476D01*
X110132761Y-57689714D01*
X110180380Y-57784952D01*
X110180380Y-57975428D01*
X109513714Y-56689714D02*
X110180380Y-56689714D01*
X109132761Y-56927809D02*
X109847047Y-57165904D01*
X109847047Y-56546857D01*
X89154095Y-48220380D02*
X89154095Y-49029904D01*
X89201714Y-49125142D01*
X89249333Y-49172761D01*
X89344571Y-49220380D01*
X89535047Y-49220380D01*
X89630285Y-49172761D01*
X89677904Y-49125142D01*
X89725523Y-49029904D01*
X89725523Y-48220380D01*
X90630285Y-48553714D02*
X90630285Y-49220380D01*
X90392190Y-48172761D02*
X90154095Y-48887047D01*
X90773142Y-48887047D01*
X105092833Y-51760380D02*
X104759500Y-51284190D01*
X104521404Y-51760380D02*
X104521404Y-50760380D01*
X104902357Y-50760380D01*
X104997595Y-50808000D01*
X105045214Y-50855619D01*
X105092833Y-50950857D01*
X105092833Y-51093714D01*
X105045214Y-51188952D01*
X104997595Y-51236571D01*
X104902357Y-51284190D01*
X104521404Y-51284190D01*
X105949976Y-50760380D02*
X105759500Y-50760380D01*
X105664261Y-50808000D01*
X105616642Y-50855619D01*
X105521404Y-50998476D01*
X105473785Y-51188952D01*
X105473785Y-51569904D01*
X105521404Y-51665142D01*
X105569023Y-51712761D01*
X105664261Y-51760380D01*
X105854738Y-51760380D01*
X105949976Y-51712761D01*
X105997595Y-51665142D01*
X106045214Y-51569904D01*
X106045214Y-51331809D01*
X105997595Y-51236571D01*
X105949976Y-51188952D01*
X105854738Y-51141333D01*
X105664261Y-51141333D01*
X105569023Y-51188952D01*
X105521404Y-51236571D01*
X105473785Y-51331809D01*
X76401704Y-51709580D02*
X76401704Y-50709580D01*
X76639800Y-50709580D01*
X76782657Y-50757200D01*
X76877895Y-50852438D01*
X76925514Y-50947676D01*
X76973133Y-51138152D01*
X76973133Y-51281009D01*
X76925514Y-51471485D01*
X76877895Y-51566723D01*
X76782657Y-51661961D01*
X76639800Y-51709580D01*
X76401704Y-51709580D01*
X77306466Y-50709580D02*
X77925514Y-50709580D01*
X77592180Y-51090533D01*
X77735038Y-51090533D01*
X77830276Y-51138152D01*
X77877895Y-51185771D01*
X77925514Y-51281009D01*
X77925514Y-51519104D01*
X77877895Y-51614342D01*
X77830276Y-51661961D01*
X77735038Y-51709580D01*
X77449323Y-51709580D01*
X77354085Y-51661961D01*
X77306466Y-51614342D01*
X85812380Y-68325904D02*
X86621904Y-68325904D01*
X86717142Y-68278285D01*
X86764761Y-68230666D01*
X86812380Y-68135428D01*
X86812380Y-67944952D01*
X86764761Y-67849714D01*
X86717142Y-67802095D01*
X86621904Y-67754476D01*
X85812380Y-67754476D01*
X85907619Y-67325904D02*
X85860000Y-67278285D01*
X85812380Y-67183047D01*
X85812380Y-66944952D01*
X85860000Y-66849714D01*
X85907619Y-66802095D01*
X86002857Y-66754476D01*
X86098095Y-66754476D01*
X86240952Y-66802095D01*
X86812380Y-67373523D01*
X86812380Y-66754476D01*
X83145333Y-51760380D02*
X82812000Y-51284190D01*
X82573904Y-51760380D02*
X82573904Y-50760380D01*
X82954857Y-50760380D01*
X83050095Y-50808000D01*
X83097714Y-50855619D01*
X83145333Y-50950857D01*
X83145333Y-51093714D01*
X83097714Y-51188952D01*
X83050095Y-51236571D01*
X82954857Y-51284190D01*
X82573904Y-51284190D01*
X84050095Y-50760380D02*
X83573904Y-50760380D01*
X83526285Y-51236571D01*
X83573904Y-51188952D01*
X83669142Y-51141333D01*
X83907238Y-51141333D01*
X84002476Y-51188952D01*
X84050095Y-51236571D01*
X84097714Y-51331809D01*
X84097714Y-51569904D01*
X84050095Y-51665142D01*
X84002476Y-51712761D01*
X83907238Y-51760380D01*
X83669142Y-51760380D01*
X83573904Y-51712761D01*
X83526285Y-51665142D01*
X100436083Y-75128380D02*
X100102750Y-74652190D01*
X99864654Y-75128380D02*
X99864654Y-74128380D01*
X100245607Y-74128380D01*
X100340845Y-74176000D01*
X100388464Y-74223619D01*
X100436083Y-74318857D01*
X100436083Y-74461714D01*
X100388464Y-74556952D01*
X100340845Y-74604571D01*
X100245607Y-74652190D01*
X99864654Y-74652190D01*
X100769416Y-74128380D02*
X101436083Y-74128380D01*
X101007511Y-75128380D01*
X79287619Y-57499238D02*
X79240000Y-57594476D01*
X79144761Y-57689714D01*
X79001904Y-57832571D01*
X78954285Y-57927809D01*
X78954285Y-58023047D01*
X79192380Y-57975428D02*
X79144761Y-58070666D01*
X79049523Y-58165904D01*
X78859047Y-58213523D01*
X78525714Y-58213523D01*
X78335238Y-58165904D01*
X78240000Y-58070666D01*
X78192380Y-57975428D01*
X78192380Y-57784952D01*
X78240000Y-57689714D01*
X78335238Y-57594476D01*
X78525714Y-57546857D01*
X78859047Y-57546857D01*
X79049523Y-57594476D01*
X79144761Y-57689714D01*
X79192380Y-57784952D01*
X79192380Y-57975428D01*
X78192380Y-57213523D02*
X78192380Y-56594476D01*
X78573333Y-56927809D01*
X78573333Y-56784952D01*
X78620952Y-56689714D01*
X78668571Y-56642095D01*
X78763809Y-56594476D01*
X79001904Y-56594476D01*
X79097142Y-56642095D01*
X79144761Y-56689714D01*
X79192380Y-56784952D01*
X79192380Y-57070666D01*
X79144761Y-57165904D01*
X79097142Y-57213523D01*
X93472095Y-72858380D02*
X93472095Y-73667904D01*
X93519714Y-73763142D01*
X93567333Y-73810761D01*
X93662571Y-73858380D01*
X93853047Y-73858380D01*
X93948285Y-73810761D01*
X93995904Y-73763142D01*
X94043523Y-73667904D01*
X94043523Y-72858380D01*
X95043523Y-73858380D02*
X94472095Y-73858380D01*
X94757809Y-73858380D02*
X94757809Y-72858380D01*
X94662571Y-73001238D01*
X94567333Y-73096476D01*
X94472095Y-73144095D01*
X101896654Y-75128380D02*
X101896654Y-74128380D01*
X102134750Y-74128380D01*
X102277607Y-74176000D01*
X102372845Y-74271238D01*
X102420464Y-74366476D01*
X102468083Y-74556952D01*
X102468083Y-74699809D01*
X102420464Y-74890285D01*
X102372845Y-74985523D01*
X102277607Y-75080761D01*
X102134750Y-75128380D01*
X101896654Y-75128380D01*
X103372845Y-74128380D02*
X102896654Y-74128380D01*
X102849035Y-74604571D01*
X102896654Y-74556952D01*
X102991892Y-74509333D01*
X103229988Y-74509333D01*
X103325226Y-74556952D01*
X103372845Y-74604571D01*
X103420464Y-74699809D01*
X103420464Y-74937904D01*
X103372845Y-75033142D01*
X103325226Y-75080761D01*
X103229988Y-75128380D01*
X102991892Y-75128380D01*
X102896654Y-75080761D01*
X102849035Y-75033142D01*
X88225333Y-70207142D02*
X88177714Y-70254761D01*
X88034857Y-70302380D01*
X87939619Y-70302380D01*
X87796761Y-70254761D01*
X87701523Y-70159523D01*
X87653904Y-70064285D01*
X87606285Y-69873809D01*
X87606285Y-69730952D01*
X87653904Y-69540476D01*
X87701523Y-69445238D01*
X87796761Y-69350000D01*
X87939619Y-69302380D01*
X88034857Y-69302380D01*
X88177714Y-69350000D01*
X88225333Y-69397619D01*
X89082476Y-69635714D02*
X89082476Y-70302380D01*
X88844380Y-69254761D02*
X88606285Y-69969047D01*
X89225333Y-69969047D01*
X112161320Y-47197140D02*
G75*
G03*
X112161320Y-47197140I-4013200J0D01*
G01*
D13*
X94087733Y-60200000D02*
X94380267Y-60200000D01*
X94087733Y-59180000D02*
X94380267Y-59180000D01*
D12*
X84225260Y-75128120D02*
G75*
G03*
X84225260Y-75128120I-4013200J0D01*
G01*
X98044000Y-43688000D02*
X98044000Y-53848000D01*
X96520000Y-43688000D02*
X96520000Y-53848000D01*
X103124000Y-53848000D02*
X103124000Y-43688000D01*
X103124000Y-43688000D02*
X98044000Y-43688000D01*
X98044000Y-43688000D02*
X96520000Y-43688000D01*
X96520000Y-53848000D02*
X98044000Y-53848000D01*
X103124000Y-53848000D02*
X98044000Y-53848000D01*
D13*
X106680000Y-70124000D02*
X104730000Y-70124000D01*
X106680000Y-65004000D02*
X108630000Y-65004000D01*
X106680000Y-65004000D02*
X103230000Y-65004000D01*
X106680000Y-70124000D02*
X108630000Y-70124000D01*
X88406500Y-77367224D02*
X88406500Y-76857776D01*
X87361500Y-77367224D02*
X87361500Y-76857776D01*
X85117000Y-78772500D02*
X86587000Y-78772500D01*
X85117000Y-76312500D02*
X85117000Y-78772500D01*
X86587000Y-78772500D02*
X86587000Y-76312500D01*
X97004000Y-72320621D02*
X95254000Y-72320621D01*
X100198000Y-67494380D02*
X99568000Y-67494380D01*
X101274000Y-70759621D02*
X94814000Y-70759621D01*
X97004000Y-72520621D02*
X95380000Y-72520621D01*
X101266000Y-70919621D02*
X99084000Y-70919621D01*
X101274000Y-70719621D02*
X94814000Y-70719621D01*
X99306000Y-73680621D02*
X96782000Y-73680621D01*
X97004000Y-71720621D02*
X94983000Y-71720621D01*
X97004000Y-71440621D02*
X94903000Y-71440621D01*
X100810000Y-72360621D02*
X99084000Y-72360621D01*
X97004000Y-72440621D02*
X95328000Y-72440621D01*
X101203000Y-71359621D02*
X99084000Y-71359621D01*
X101130000Y-71640621D02*
X99084000Y-71640621D01*
X100560000Y-72720621D02*
X99084000Y-72720621D01*
X97004000Y-71560621D02*
X94934000Y-71560621D01*
X97004000Y-72000621D02*
X95092000Y-72000621D01*
X100494000Y-72800621D02*
X99084000Y-72800621D01*
X100760000Y-72440621D02*
X99084000Y-72440621D01*
X101226000Y-71239621D02*
X99084000Y-71239621D01*
X97004000Y-71680621D02*
X94970000Y-71680621D01*
X97004000Y-72080621D02*
X95128000Y-72080621D01*
X100708000Y-72520621D02*
X99084000Y-72520621D01*
X101233000Y-71199621D02*
X99084000Y-71199621D01*
X101030000Y-71920621D02*
X99084000Y-71920621D01*
X99476000Y-73600621D02*
X96612000Y-73600621D01*
X97004000Y-72240621D02*
X95210000Y-72240621D01*
X100136000Y-73160621D02*
X95952000Y-73160621D01*
X99209000Y-73720621D02*
X96879000Y-73720621D01*
X101274000Y-70679621D02*
X94814000Y-70679621D01*
X100680000Y-72560621D02*
X99084000Y-72560621D01*
X101165000Y-71520621D02*
X99084000Y-71520621D01*
X101219000Y-71279621D02*
X99084000Y-71279621D01*
X97004000Y-72480621D02*
X95354000Y-72480621D01*
X100834000Y-72320621D02*
X99084000Y-72320621D01*
X97004000Y-71279621D02*
X94869000Y-71279621D01*
X99883000Y-67179380D02*
X99883000Y-67809380D01*
X97004000Y-72720621D02*
X95528000Y-72720621D01*
X97004000Y-71960621D02*
X95074000Y-71960621D01*
X97004000Y-72800621D02*
X95594000Y-72800621D01*
X97004000Y-70959621D02*
X94826000Y-70959621D01*
X101046000Y-71880621D02*
X99084000Y-71880621D01*
X97004000Y-71480621D02*
X94913000Y-71480621D01*
X100268000Y-73040621D02*
X95820000Y-73040621D01*
X97004000Y-70999621D02*
X94829000Y-70999621D01*
X101255000Y-71039621D02*
X99084000Y-71039621D01*
X97004000Y-71920621D02*
X95058000Y-71920621D01*
X101091000Y-71760621D02*
X99084000Y-71760621D01*
X97004000Y-72960621D02*
X95739000Y-72960621D01*
X97004000Y-72600621D02*
X95437000Y-72600621D01*
X97004000Y-71880621D02*
X95042000Y-71880621D01*
X99988000Y-73280621D02*
X96100000Y-73280621D01*
X100528000Y-72760621D02*
X99084000Y-72760621D01*
X100978000Y-72040621D02*
X99084000Y-72040621D01*
X97004000Y-71079621D02*
X94838000Y-71079621D01*
X101245000Y-71119621D02*
X99084000Y-71119621D01*
X100088000Y-73200621D02*
X96000000Y-73200621D01*
X97004000Y-72840621D02*
X95628000Y-72840621D01*
X97004000Y-72560621D02*
X95408000Y-72560621D01*
X97004000Y-71159621D02*
X94849000Y-71159621D01*
X97004000Y-72880621D02*
X95664000Y-72880621D01*
X99625000Y-73520621D02*
X96463000Y-73520621D01*
X97004000Y-71039621D02*
X94833000Y-71039621D01*
X101062000Y-71840621D02*
X99084000Y-71840621D01*
X101194000Y-71400621D02*
X99084000Y-71400621D01*
X97004000Y-71520621D02*
X94923000Y-71520621D01*
X99934000Y-73320621D02*
X96154000Y-73320621D01*
X99820000Y-73400621D02*
X96268000Y-73400621D01*
X97004000Y-71640621D02*
X94958000Y-71640621D01*
X100734000Y-72480621D02*
X99084000Y-72480621D01*
X100651000Y-72600621D02*
X99084000Y-72600621D01*
X100592000Y-72680621D02*
X99084000Y-72680621D01*
X101259000Y-70999621D02*
X99084000Y-70999621D01*
X101014000Y-71960621D02*
X99084000Y-71960621D01*
X100960000Y-72080621D02*
X99084000Y-72080621D01*
X101105000Y-71720621D02*
X99084000Y-71720621D01*
X99553000Y-73560621D02*
X96535000Y-73560621D01*
X97004000Y-71359621D02*
X94885000Y-71359621D01*
X97004000Y-72920621D02*
X95701000Y-72920621D01*
X101185000Y-71440621D02*
X99084000Y-71440621D01*
X97004000Y-71600621D02*
X94946000Y-71600621D01*
X99103000Y-73760621D02*
X96985000Y-73760621D01*
X100878000Y-72240621D02*
X99084000Y-72240621D01*
X100996000Y-72000621D02*
X99084000Y-72000621D01*
X101077000Y-71800621D02*
X99084000Y-71800621D01*
X99694000Y-73480621D02*
X96394000Y-73480621D01*
X101262000Y-70959621D02*
X99084000Y-70959621D01*
X101154000Y-71560621D02*
X99084000Y-71560621D01*
X97004000Y-72400621D02*
X95302000Y-72400621D01*
X101118000Y-71680621D02*
X99084000Y-71680621D01*
X97004000Y-72360621D02*
X95278000Y-72360621D01*
X98846000Y-73840621D02*
X97242000Y-73840621D01*
X100940000Y-72120621D02*
X99084000Y-72120621D01*
X97004000Y-71800621D02*
X95011000Y-71800621D01*
X99758000Y-73440621D02*
X96330000Y-73440621D01*
X99394000Y-73640621D02*
X96694000Y-73640621D01*
X101175000Y-71480621D02*
X99084000Y-71480621D01*
X100460000Y-72840621D02*
X99084000Y-72840621D01*
X100424000Y-72880621D02*
X99084000Y-72880621D01*
X100387000Y-72920621D02*
X99084000Y-72920621D01*
X97004000Y-71199621D02*
X94855000Y-71199621D01*
X100309000Y-73000621D02*
X95779000Y-73000621D01*
X97004000Y-71400621D02*
X94894000Y-71400621D01*
X97004000Y-72120621D02*
X95148000Y-72120621D01*
X100226000Y-73080621D02*
X95862000Y-73080621D01*
X97004000Y-71119621D02*
X94843000Y-71119621D01*
X97004000Y-72040621D02*
X95110000Y-72040621D01*
X97004000Y-71319621D02*
X94877000Y-71319621D01*
X101211000Y-71319621D02*
X99084000Y-71319621D01*
X100900000Y-72200621D02*
X99084000Y-72200621D01*
X97004000Y-71760621D02*
X94997000Y-71760621D01*
X97004000Y-71840621D02*
X95026000Y-71840621D01*
X98984000Y-73800621D02*
X97104000Y-73800621D01*
X100349000Y-72960621D02*
X99084000Y-72960621D01*
X97004000Y-72680621D02*
X95496000Y-72680621D01*
X101142000Y-71600621D02*
X99084000Y-71600621D01*
X98446000Y-73920621D02*
X97642000Y-73920621D01*
X97004000Y-72640621D02*
X95466000Y-72640621D01*
X97004000Y-70919621D02*
X94822000Y-70919621D01*
X97004000Y-72280621D02*
X95232000Y-72280621D01*
X100039000Y-73240621D02*
X96049000Y-73240621D01*
X98677000Y-73880621D02*
X97411000Y-73880621D01*
X101239000Y-71159621D02*
X99084000Y-71159621D01*
X100856000Y-72280621D02*
X99084000Y-72280621D01*
X97004000Y-71239621D02*
X94862000Y-71239621D01*
X100181000Y-73120621D02*
X95907000Y-73120621D01*
X101268000Y-70879621D02*
X94820000Y-70879621D01*
X97004000Y-72200621D02*
X95188000Y-72200621D01*
X100786000Y-72400621D02*
X99084000Y-72400621D01*
X100622000Y-72640621D02*
X99084000Y-72640621D01*
X101271000Y-70839621D02*
X94817000Y-70839621D01*
X101250000Y-71079621D02*
X99084000Y-71079621D01*
X100920000Y-72160621D02*
X99084000Y-72160621D01*
X97004000Y-72760621D02*
X95560000Y-72760621D01*
X97004000Y-72160621D02*
X95168000Y-72160621D01*
X101272000Y-70799621D02*
X94816000Y-70799621D01*
X99878000Y-73360621D02*
X96210000Y-73360621D01*
X101314000Y-70679621D02*
G75*
G03*
X101314000Y-70679621I-3270000J0D01*
G01*
X108171500Y-51843000D02*
X108171500Y-53313000D01*
X110631500Y-51843000D02*
X108171500Y-51843000D01*
X108171500Y-53313000D02*
X110631500Y-53313000D01*
X104902000Y-59964000D02*
X108352000Y-59964000D01*
X104902000Y-54844000D02*
X102952000Y-54844000D01*
X104902000Y-59964000D02*
X102952000Y-59964000D01*
X104902000Y-54844000D02*
X106852000Y-54844000D01*
X89916000Y-53978000D02*
X87156000Y-53978000D01*
X92676000Y-53978000D02*
X92676000Y-53138000D01*
X89916000Y-53978000D02*
X92676000Y-53978000D01*
X92676000Y-43558000D02*
X92676000Y-44398000D01*
X87156000Y-53978000D02*
X87156000Y-53138000D01*
X89916000Y-43558000D02*
X92676000Y-43558000D01*
X87156000Y-44398000D02*
X85466000Y-44398000D01*
X89916000Y-43558000D02*
X87156000Y-43558000D01*
X87156000Y-43558000D02*
X87156000Y-44398000D01*
X106276224Y-53100500D02*
X105766776Y-53100500D01*
X106276224Y-52055500D02*
X105766776Y-52055500D01*
X80291750Y-53313000D02*
X80291750Y-51843000D01*
X80291750Y-51843000D02*
X77831750Y-51843000D01*
X77831750Y-53313000D02*
X80291750Y-53313000D01*
D12*
X84225260Y-47197140D02*
G75*
G03*
X84225260Y-47197140I-4013200J0D01*
G01*
X112161320Y-75128120D02*
G75*
G03*
X112161320Y-75128120I-4013200J0D01*
G01*
D13*
X81788000Y-65004000D02*
X79838000Y-65004000D01*
X81788000Y-70124000D02*
X79838000Y-70124000D01*
X81788000Y-70124000D02*
X85238000Y-70124000D01*
X81788000Y-65004000D02*
X83738000Y-65004000D01*
X82187026Y-53100500D02*
X82696474Y-53100500D01*
X82187026Y-52055500D02*
X82696474Y-52055500D01*
G36*
X79587661Y-63473091D02*
G01*
X79629016Y-63423248D01*
X79664504Y-63378233D01*
X79712233Y-63315859D01*
X79751501Y-63264019D01*
X79784085Y-63220165D01*
X79811762Y-63181749D01*
X79836310Y-63146221D01*
X79859507Y-63111034D01*
X79883128Y-63073639D01*
X79908952Y-63031488D01*
X79925897Y-63003430D01*
X79959948Y-62947016D01*
X79987760Y-62901540D01*
X80011578Y-62863658D01*
X80033649Y-62830027D01*
X80056220Y-62797304D01*
X80081537Y-62762145D01*
X80111847Y-62721206D01*
X80147276Y-62673965D01*
X80181510Y-62627553D01*
X80221155Y-62572380D01*
X80262564Y-62513609D01*
X80302089Y-62456402D01*
X80326295Y-62420629D01*
X80363302Y-62366671D01*
X80405753Y-62306939D01*
X80449703Y-62246850D01*
X80491209Y-62191824D01*
X80514967Y-62161392D01*
X80549731Y-62117454D01*
X80584865Y-62072657D01*
X80617463Y-62030734D01*
X80644617Y-61995418D01*
X80658864Y-61976581D01*
X80685163Y-61943633D01*
X80706291Y-61921752D01*
X80720765Y-61912436D01*
X80722535Y-61912209D01*
X80743386Y-61919357D01*
X80759309Y-61936560D01*
X80764192Y-61953540D01*
X80759535Y-61966702D01*
X80746541Y-61990982D01*
X80726678Y-62024092D01*
X80701412Y-62063738D01*
X80672212Y-62107630D01*
X80640545Y-62153477D01*
X80607878Y-62198988D01*
X80601127Y-62208155D01*
X80582707Y-62233725D01*
X80557056Y-62270291D01*
X80526135Y-62315007D01*
X80491903Y-62365031D01*
X80456320Y-62417519D01*
X80433752Y-62451076D01*
X80392412Y-62511887D01*
X80345464Y-62579506D01*
X80296359Y-62649060D01*
X80248545Y-62715671D01*
X80205471Y-62774463D01*
X80195770Y-62787473D01*
X80139258Y-62864666D01*
X80077374Y-62952248D01*
X80012876Y-63046121D01*
X79948522Y-63142186D01*
X79887069Y-63236345D01*
X79831277Y-63324501D01*
X79800175Y-63375279D01*
X79770738Y-63426510D01*
X79745704Y-63474804D01*
X79726303Y-63517456D01*
X79713765Y-63551764D01*
X79709320Y-63575000D01*
X79715785Y-63587249D01*
X79733655Y-63590436D01*
X79760641Y-63584905D01*
X79794452Y-63570997D01*
X79816868Y-63558890D01*
X79879342Y-63514028D01*
X79937488Y-63456245D01*
X79987819Y-63389211D01*
X80004549Y-63361401D01*
X80022893Y-63330011D01*
X80042736Y-63299056D01*
X80065961Y-63265953D01*
X80094454Y-63228115D01*
X80130100Y-63182959D01*
X80174784Y-63127899D01*
X80175109Y-63127502D01*
X80199059Y-63096754D01*
X80227871Y-63057518D01*
X80257536Y-63015349D01*
X80278888Y-62983694D01*
X80310893Y-62938685D01*
X80347508Y-62893043D01*
X80386129Y-62849517D01*
X80424153Y-62810860D01*
X80458977Y-62779823D01*
X80487999Y-62759156D01*
X80494645Y-62755643D01*
X80530404Y-62744186D01*
X80559239Y-62746596D01*
X80576018Y-62758007D01*
X80586672Y-62773573D01*
X80588525Y-62790421D01*
X80581439Y-62813520D01*
X80573995Y-62830031D01*
X80562020Y-62857893D01*
X80549251Y-62891609D01*
X80543396Y-62908726D01*
X80530877Y-62941270D01*
X80513779Y-62978432D01*
X80500186Y-63004246D01*
X80460780Y-63076337D01*
X80422684Y-63151152D01*
X80386771Y-63226571D01*
X80353910Y-63300475D01*
X80324971Y-63370745D01*
X80300825Y-63435261D01*
X80282342Y-63491905D01*
X80270392Y-63538556D01*
X80265846Y-63573097D01*
X80265827Y-63574921D01*
X80273228Y-63618369D01*
X80294131Y-63655500D01*
X80304765Y-63666599D01*
X80313345Y-63672754D01*
X80323026Y-63675159D01*
X80335285Y-63672865D01*
X80351602Y-63664924D01*
X80373456Y-63650386D01*
X80402324Y-63628303D01*
X80439687Y-63597726D01*
X80487022Y-63557706D01*
X80524574Y-63525548D01*
X80565817Y-63489463D01*
X80597115Y-63459630D01*
X80621437Y-63432062D01*
X80641750Y-63402771D01*
X80661023Y-63367773D01*
X80682223Y-63323080D01*
X80692809Y-63299580D01*
X80717661Y-63247964D01*
X80744890Y-63198045D01*
X80771336Y-63155449D01*
X80782949Y-63139092D01*
X80803976Y-63112964D01*
X80834426Y-63077491D01*
X80872049Y-63035147D01*
X80914591Y-62988405D01*
X80959801Y-62939739D01*
X81005428Y-62891622D01*
X81049220Y-62846527D01*
X81050047Y-62845688D01*
X81076548Y-62825754D01*
X81100576Y-62822095D01*
X81120929Y-62833759D01*
X81131853Y-62846324D01*
X81136656Y-62858994D01*
X81135573Y-62876420D01*
X81128837Y-62903254D01*
X81125077Y-62916101D01*
X81100985Y-62975769D01*
X81062499Y-63040624D01*
X81009335Y-63111077D01*
X80941207Y-63187544D01*
X80929589Y-63199652D01*
X80893895Y-63238063D01*
X80855864Y-63281632D01*
X80817565Y-63327719D01*
X80781063Y-63373686D01*
X80748426Y-63416893D01*
X80721723Y-63454701D01*
X80703018Y-63484471D01*
X80696649Y-63497019D01*
X80681477Y-63540747D01*
X80674576Y-63580197D01*
X80676220Y-63612059D01*
X80685400Y-63631695D01*
X80701007Y-63644167D01*
X80712737Y-63648180D01*
X80729145Y-63643103D01*
X80755877Y-63628977D01*
X80790554Y-63607457D01*
X80830799Y-63580200D01*
X80874232Y-63548862D01*
X80918475Y-63515099D01*
X80961151Y-63480567D01*
X80993428Y-63452730D01*
X81018548Y-63427788D01*
X81051575Y-63391177D01*
X81066587Y-63373539D01*
X81181533Y-63373539D01*
X81182669Y-63374080D01*
X81190249Y-63368232D01*
X81191956Y-63365773D01*
X81194072Y-63358008D01*
X81192936Y-63357467D01*
X81185356Y-63363315D01*
X81183650Y-63365773D01*
X81181533Y-63373539D01*
X81066587Y-63373539D01*
X81090968Y-63344894D01*
X81135190Y-63290936D01*
X81182702Y-63231301D01*
X81231966Y-63167985D01*
X81281443Y-63102986D01*
X81329594Y-63038301D01*
X81374881Y-62975928D01*
X81415765Y-62917862D01*
X81450709Y-62866103D01*
X81475917Y-62826381D01*
X81524435Y-62748112D01*
X81571325Y-62676128D01*
X81620336Y-62604890D01*
X81675216Y-62528859D01*
X81698217Y-62497788D01*
X81732893Y-62450829D01*
X81768990Y-62401292D01*
X81803374Y-62353518D01*
X81832916Y-62311849D01*
X81848009Y-62290136D01*
X81890318Y-62228592D01*
X81924246Y-62179418D01*
X81950759Y-62141252D01*
X81970825Y-62112731D01*
X81985411Y-62092493D01*
X81995484Y-62079175D01*
X82002010Y-62071415D01*
X82005627Y-62068075D01*
X82026387Y-62061963D01*
X82047039Y-62068693D01*
X82062630Y-62085216D01*
X82068247Y-62106622D01*
X82063648Y-62120558D01*
X82051133Y-62144487D01*
X82032632Y-62175015D01*
X82010753Y-62207778D01*
X81981764Y-62250222D01*
X81948862Y-62299830D01*
X81916699Y-62349530D01*
X81896545Y-62381503D01*
X81869326Y-62424693D01*
X81836750Y-62475376D01*
X81802845Y-62527335D01*
X81771637Y-62574356D01*
X81770675Y-62575789D01*
X81712399Y-62664173D01*
X81650121Y-62761558D01*
X81587259Y-62862454D01*
X81527230Y-62961370D01*
X81473451Y-63052817D01*
X81470059Y-63058710D01*
X81444398Y-63102931D01*
X81415010Y-63152872D01*
X81383380Y-63206075D01*
X81350994Y-63260086D01*
X81319340Y-63312445D01*
X81289903Y-63360698D01*
X81264169Y-63402386D01*
X81243625Y-63435054D01*
X81229758Y-63456244D01*
X81228246Y-63458423D01*
X81215684Y-63478268D01*
X81214533Y-63486157D01*
X81224897Y-63482298D01*
X81236183Y-63474789D01*
X81256138Y-63452952D01*
X81269946Y-63423702D01*
X81280099Y-63395034D01*
X81293551Y-63368821D01*
X81312740Y-63341472D01*
X81340104Y-63309400D01*
X81367494Y-63280047D01*
X81472832Y-63179854D01*
X81582910Y-63095205D01*
X81609787Y-63077348D01*
X81648930Y-63053288D01*
X81692330Y-63028583D01*
X81737313Y-63004537D01*
X81781207Y-62982453D01*
X81821337Y-62963637D01*
X81855030Y-62949390D01*
X81879611Y-62941018D01*
X81892083Y-62939691D01*
X81915515Y-62952565D01*
X81925791Y-62972025D01*
X81927039Y-62986787D01*
X81920689Y-63013567D01*
X81901345Y-63045366D01*
X81868552Y-63082680D01*
X81821855Y-63126004D01*
X81760799Y-63175834D01*
X81734960Y-63195653D01*
X81691175Y-63229146D01*
X81647156Y-63263478D01*
X81606626Y-63295697D01*
X81573310Y-63322856D01*
X81557423Y-63336279D01*
X81522219Y-63366011D01*
X81481403Y-63399388D01*
X81442682Y-63430126D01*
X81435336Y-63435813D01*
X81408515Y-63457421D01*
X81388143Y-63475694D01*
X81376870Y-63488148D01*
X81375608Y-63491850D01*
X81389133Y-63498669D01*
X81415123Y-63498315D01*
X81451365Y-63491401D01*
X81495648Y-63478540D01*
X81545761Y-63460341D01*
X81599492Y-63437418D01*
X81636541Y-63419658D01*
X81708033Y-63379452D01*
X81766036Y-63336601D01*
X81813674Y-63288477D01*
X81848436Y-63241327D01*
X81871477Y-63208552D01*
X81898922Y-63173773D01*
X81928399Y-63139523D01*
X81957537Y-63108335D01*
X81983967Y-63082741D01*
X82005315Y-63065273D01*
X82019212Y-63058464D01*
X82019650Y-63058448D01*
X82046896Y-63064317D01*
X82063971Y-63080264D01*
X82068247Y-63097585D01*
X82064075Y-63114119D01*
X82052885Y-63140236D01*
X82036668Y-63171560D01*
X82026908Y-63188457D01*
X81980524Y-63273879D01*
X81946893Y-63355339D01*
X81924408Y-63437230D01*
X81914655Y-63495482D01*
X81912979Y-63530110D01*
X81915596Y-63567203D01*
X81921673Y-63602027D01*
X81930378Y-63629844D01*
X81940878Y-63645917D01*
X81941125Y-63646104D01*
X81966487Y-63655116D01*
X82000230Y-63652838D01*
X82039660Y-63640355D01*
X82082079Y-63618755D01*
X82124792Y-63589126D01*
X82159881Y-63557876D01*
X82178261Y-63538529D01*
X82194483Y-63518698D01*
X82210232Y-63495628D01*
X82227195Y-63466564D01*
X82247057Y-63428753D01*
X82271505Y-63379440D01*
X82280691Y-63360533D01*
X82303920Y-63312400D01*
X82325626Y-63267094D01*
X82344387Y-63227610D01*
X82358781Y-63196941D01*
X82367386Y-63178081D01*
X82367611Y-63177566D01*
X82385111Y-63150478D01*
X82406502Y-63136135D01*
X82428557Y-63135082D01*
X82448051Y-63147860D01*
X82457225Y-63162501D01*
X82460332Y-63184019D01*
X82453869Y-63215115D01*
X82437503Y-63256824D01*
X82410899Y-63310185D01*
X82407805Y-63315937D01*
X82393489Y-63343721D01*
X82375344Y-63380790D01*
X82356236Y-63421226D01*
X82346170Y-63443163D01*
X82302173Y-63527199D01*
X82252310Y-63596884D01*
X82195068Y-63653896D01*
X82128938Y-63699915D01*
X82101935Y-63714481D01*
X82042861Y-63737859D01*
X81987626Y-63747144D01*
X81937689Y-63742402D01*
X81894510Y-63723699D01*
X81870685Y-63704010D01*
X81850098Y-63672880D01*
X81834838Y-63629715D01*
X81825364Y-63578363D01*
X81822132Y-63522673D01*
X81825603Y-63466492D01*
X81836139Y-63413998D01*
X81842938Y-63390292D01*
X81808160Y-63420361D01*
X81783952Y-63437773D01*
X81747877Y-63459301D01*
X81703581Y-63483131D01*
X81654713Y-63507448D01*
X81604922Y-63530438D01*
X81557855Y-63550285D01*
X81517163Y-63565175D01*
X81516843Y-63565279D01*
X81460338Y-63579521D01*
X81408574Y-63584674D01*
X81364477Y-63580738D01*
X81330969Y-63567712D01*
X81327453Y-63565285D01*
X81308411Y-63552771D01*
X81294240Y-63546175D01*
X81292169Y-63545866D01*
X81281511Y-63550015D01*
X81260537Y-63560995D01*
X81232996Y-63576796D01*
X81219975Y-63584628D01*
X81189488Y-63602057D01*
X81162516Y-63615399D01*
X81143408Y-63622580D01*
X81138991Y-63623262D01*
X81117030Y-63616050D01*
X81098385Y-63598413D01*
X81088878Y-63576346D01*
X81088594Y-63571349D01*
X81093462Y-63547512D01*
X81105901Y-63514185D01*
X81123977Y-63475508D01*
X81145758Y-63435618D01*
X81169072Y-63398998D01*
X81168868Y-63397069D01*
X81158685Y-63405579D01*
X81140118Y-63423053D01*
X81114765Y-63448015D01*
X81100526Y-63462353D01*
X80993010Y-63561050D01*
X80878808Y-63646360D01*
X80822427Y-63681926D01*
X80779357Y-63705858D01*
X80745792Y-63720193D01*
X80718436Y-63725926D01*
X80693997Y-63724051D01*
X80687986Y-63722519D01*
X80657281Y-63707433D01*
X80628441Y-63682602D01*
X80605316Y-63652553D01*
X80591757Y-63621812D01*
X80589765Y-63607062D01*
X80588141Y-63593322D01*
X80585817Y-63590038D01*
X80578360Y-63595086D01*
X80560694Y-63608916D01*
X80535272Y-63629558D01*
X80504547Y-63655041D01*
X80496527Y-63661767D01*
X80443245Y-63704524D01*
X80398771Y-63735157D01*
X80361216Y-63754252D01*
X80328689Y-63762395D01*
X80299302Y-63760171D01*
X80271165Y-63748166D01*
X80254460Y-63736790D01*
X80230222Y-63711673D01*
X80207096Y-63676548D01*
X80188752Y-63637820D01*
X80179512Y-63606025D01*
X80174252Y-63576328D01*
X80072607Y-63678032D01*
X80030128Y-63719772D01*
X79996728Y-63750369D01*
X79970390Y-63771040D01*
X79949094Y-63783003D01*
X79930825Y-63787476D01*
X79913562Y-63785679D01*
X79901276Y-63781457D01*
X79876835Y-63762907D01*
X79862503Y-63733130D01*
X79858922Y-63694549D01*
X79861610Y-63678933D01*
X79943903Y-63678933D01*
X79946572Y-63681974D01*
X79955129Y-63676906D01*
X79971384Y-63662569D01*
X79997144Y-63637801D01*
X80003519Y-63631568D01*
X80037246Y-63597510D01*
X80073182Y-63559552D01*
X80105419Y-63523986D01*
X80116558Y-63511130D01*
X80146802Y-63472402D01*
X80179579Y-63425248D01*
X80212017Y-63374293D01*
X80241243Y-63324161D01*
X80264386Y-63279477D01*
X80273923Y-63257794D01*
X80278206Y-63246149D01*
X80279186Y-63239583D01*
X80275594Y-63239094D01*
X80266165Y-63245679D01*
X80249629Y-63260334D01*
X80224721Y-63284057D01*
X80190173Y-63317845D01*
X80160851Y-63346759D01*
X80118375Y-63388866D01*
X80085809Y-63421868D01*
X80061166Y-63448257D01*
X80042457Y-63470521D01*
X80027695Y-63491152D01*
X80014894Y-63512640D01*
X80002067Y-63537474D01*
X79991824Y-63558564D01*
X79974672Y-63595427D01*
X79959974Y-63629201D01*
X79949496Y-63655696D01*
X79945314Y-63668945D01*
X79943903Y-63678933D01*
X79861610Y-63678933D01*
X79866556Y-63650202D01*
X79870980Y-63632166D01*
X79871657Y-63623418D01*
X79871391Y-63623262D01*
X79863008Y-63626678D01*
X79844411Y-63635492D01*
X79827049Y-63644082D01*
X79776183Y-63663974D01*
X79730271Y-63670750D01*
X79690920Y-63664628D01*
X79659736Y-63645828D01*
X79640123Y-63618547D01*
X79631017Y-63596185D01*
X79626401Y-63578458D01*
X79626259Y-63576278D01*
X79620733Y-63576537D01*
X79605309Y-63587282D01*
X79581713Y-63607133D01*
X79551673Y-63634713D01*
X79544731Y-63641335D01*
X79497879Y-63684494D01*
X79459498Y-63715581D01*
X79427943Y-63735700D01*
X79401567Y-63745953D01*
X79385791Y-63747853D01*
X79354842Y-63740456D01*
X79322889Y-63720086D01*
X79296522Y-63692414D01*
X79283434Y-63672819D01*
X79276378Y-63653531D01*
X79273606Y-63628102D01*
X79273272Y-63606656D01*
X79273293Y-63551435D01*
X79230256Y-63609370D01*
X79192476Y-63654743D01*
X79154396Y-63690657D01*
X79117536Y-63716736D01*
X79083412Y-63732604D01*
X79053542Y-63737886D01*
X79029442Y-63732205D01*
X79012632Y-63715186D01*
X79004627Y-63686452D01*
X79004544Y-63665287D01*
X79006007Y-63641451D01*
X79006253Y-63634908D01*
X79091718Y-63634908D01*
X79099916Y-63633584D01*
X79114378Y-63623149D01*
X79132647Y-63605194D01*
X79143957Y-63592039D01*
X79181438Y-63544921D01*
X79220249Y-63494598D01*
X79258632Y-63443494D01*
X79294825Y-63394038D01*
X79327069Y-63348657D01*
X79353605Y-63309776D01*
X79372672Y-63279824D01*
X79380322Y-63266100D01*
X79379133Y-63264302D01*
X79368607Y-63273758D01*
X79350085Y-63293000D01*
X79324911Y-63320559D01*
X79294428Y-63354966D01*
X79259979Y-63394753D01*
X79224650Y-63436375D01*
X79177259Y-63494726D01*
X79138957Y-63546083D01*
X79110720Y-63589053D01*
X79093525Y-63622242D01*
X79092239Y-63625531D01*
X79091718Y-63634908D01*
X79006253Y-63634908D01*
X79006579Y-63626220D01*
X79006394Y-63623257D01*
X78998879Y-63626118D01*
X78981495Y-63633230D01*
X78975513Y-63635721D01*
X78940508Y-63645478D01*
X78904643Y-63647615D01*
X78874831Y-63641878D01*
X78869860Y-63639582D01*
X78857712Y-63624238D01*
X78853877Y-63597950D01*
X78858332Y-63564141D01*
X78870609Y-63527268D01*
X78880169Y-63508718D01*
X78897380Y-63479056D01*
X78920611Y-63440944D01*
X78948229Y-63397045D01*
X78978600Y-63350020D01*
X78989480Y-63333463D01*
X79026415Y-63277521D01*
X79055682Y-63233073D01*
X79078738Y-63197730D01*
X79097041Y-63169102D01*
X79112047Y-63144802D01*
X79125213Y-63122441D01*
X79137997Y-63099630D01*
X79151855Y-63073981D01*
X79168245Y-63043104D01*
X79179039Y-63022702D01*
X79206193Y-62973319D01*
X79237853Y-62918719D01*
X79269977Y-62865729D01*
X79297071Y-62823356D01*
X79324708Y-62780323D01*
X79356498Y-62728597D01*
X79388832Y-62674171D01*
X79418099Y-62623040D01*
X79422824Y-62614536D01*
X79442702Y-62577970D01*
X79466896Y-62532485D01*
X79494544Y-62479790D01*
X79524781Y-62421592D01*
X79556742Y-62359599D01*
X79589562Y-62295518D01*
X79622378Y-62231058D01*
X79654325Y-62167925D01*
X79684538Y-62107826D01*
X79712153Y-62052471D01*
X79736305Y-62003566D01*
X79756131Y-61962819D01*
X79770764Y-61931938D01*
X79779342Y-61912629D01*
X79781221Y-61906587D01*
X79769948Y-61906448D01*
X79749254Y-61916719D01*
X79721269Y-61935868D01*
X79688121Y-61962362D01*
X79651939Y-61994671D01*
X79631666Y-62014216D01*
X79554145Y-62094739D01*
X79478322Y-62181336D01*
X79403201Y-62275415D01*
X79327790Y-62378382D01*
X79251094Y-62491647D01*
X79172118Y-62616616D01*
X79089870Y-62754698D01*
X79012062Y-62891641D01*
X78970374Y-62967000D01*
X78935496Y-63031431D01*
X78905742Y-63088283D01*
X78879424Y-63140901D01*
X78854855Y-63192632D01*
X78830347Y-63246823D01*
X78812822Y-63286866D01*
X78790184Y-63335465D01*
X78762860Y-63388279D01*
X78732327Y-63442978D01*
X78700064Y-63497235D01*
X78667552Y-63548722D01*
X78636267Y-63595111D01*
X78607690Y-63634073D01*
X78583299Y-63663281D01*
X78564573Y-63680406D01*
X78561744Y-63682120D01*
X78540455Y-63686232D01*
X78523504Y-63676321D01*
X78514139Y-63654938D01*
X78513244Y-63643998D01*
X78514241Y-63632797D01*
X78517746Y-63618804D01*
X78524534Y-63600372D01*
X78535379Y-63575855D01*
X78551056Y-63543607D01*
X78572337Y-63501980D01*
X78599997Y-63449329D01*
X78634810Y-63384006D01*
X78640125Y-63374080D01*
X78677042Y-63301513D01*
X78715037Y-63219387D01*
X78754955Y-63125770D01*
X78797637Y-63018729D01*
X78815858Y-62971235D01*
X78837439Y-62916683D01*
X78842421Y-62904786D01*
X78911936Y-62904786D01*
X78916089Y-62908939D01*
X78920242Y-62904786D01*
X78916089Y-62900633D01*
X78911936Y-62904786D01*
X78842421Y-62904786D01*
X78849378Y-62888174D01*
X78920242Y-62888174D01*
X78924395Y-62892327D01*
X78928548Y-62888174D01*
X78924395Y-62884021D01*
X78920242Y-62888174D01*
X78849378Y-62888174D01*
X78862713Y-62856331D01*
X78888760Y-62796965D01*
X78912659Y-62745371D01*
X78916138Y-62738188D01*
X78961364Y-62641643D01*
X79003930Y-62543251D01*
X79041451Y-62448700D01*
X79064944Y-62383438D01*
X79082054Y-62328414D01*
X79097693Y-62269038D01*
X79111323Y-62208371D01*
X79122400Y-62149473D01*
X79130384Y-62095407D01*
X79134735Y-62049232D01*
X79134909Y-62014009D01*
X79132818Y-61999537D01*
X79127387Y-61977897D01*
X79085245Y-62000834D01*
X79046978Y-62023779D01*
X79012182Y-62049729D01*
X78979744Y-62080275D01*
X78948555Y-62117007D01*
X78917503Y-62161514D01*
X78885478Y-62215388D01*
X78851370Y-62280218D01*
X78814067Y-62357596D01*
X78772976Y-62447951D01*
X78730271Y-62544608D01*
X78693795Y-62629247D01*
X78662509Y-62704792D01*
X78635373Y-62774164D01*
X78611351Y-62840284D01*
X78589403Y-62906074D01*
X78568491Y-62974456D01*
X78547576Y-63048352D01*
X78525620Y-63130684D01*
X78513168Y-63178887D01*
X78488049Y-63276837D01*
X78466596Y-63360220D01*
X78448392Y-63430570D01*
X78433020Y-63489423D01*
X78420062Y-63538314D01*
X78409101Y-63578778D01*
X78399720Y-63612349D01*
X78391501Y-63640562D01*
X78384027Y-63664954D01*
X78376881Y-63687058D01*
X78369645Y-63708410D01*
X78367609Y-63714280D01*
X78351748Y-63757329D01*
X78333948Y-63801702D01*
X78316966Y-63840671D01*
X78309013Y-63857285D01*
X78273266Y-63923746D01*
X78240596Y-63974536D01*
X78210358Y-64010170D01*
X78181907Y-64031168D01*
X78154594Y-64038045D01*
X78127775Y-64031319D01*
X78108114Y-64018098D01*
X78089164Y-63997845D01*
X78074829Y-63971707D01*
X78064669Y-63937583D01*
X78058241Y-63893371D01*
X78055105Y-63836973D01*
X78054820Y-63766285D01*
X78054843Y-63764465D01*
X78060350Y-63612843D01*
X78073154Y-63472294D01*
X78093996Y-63338629D01*
X78123619Y-63207655D01*
X78162765Y-63075184D01*
X78191582Y-62992000D01*
X78208959Y-62945105D01*
X78222243Y-62911735D01*
X78232568Y-62889648D01*
X78241070Y-62876601D01*
X78248884Y-62870353D01*
X78253893Y-62868907D01*
X78264470Y-62869443D01*
X78270320Y-62875892D01*
X78271188Y-62889974D01*
X78266818Y-62913412D01*
X78256955Y-62947925D01*
X78241346Y-62995236D01*
X78230575Y-63026317D01*
X78193521Y-63139448D01*
X78164288Y-63246330D01*
X78142194Y-63351096D01*
X78126555Y-63457877D01*
X78116689Y-63570806D01*
X78111911Y-63694016D01*
X78111267Y-63747934D01*
X78111130Y-63805351D01*
X78111555Y-63848849D01*
X78112744Y-63881118D01*
X78114901Y-63904848D01*
X78118230Y-63922728D01*
X78122934Y-63937448D01*
X78126196Y-63945203D01*
X78137843Y-63966158D01*
X78149190Y-63978769D01*
X78153372Y-63980424D01*
X78164223Y-63973336D01*
X78180554Y-63953739D01*
X78200722Y-63924132D01*
X78223087Y-63887015D01*
X78246005Y-63844887D01*
X78257725Y-63821565D01*
X78272284Y-63789928D01*
X78286728Y-63754524D01*
X78301533Y-63713783D01*
X78317175Y-63666133D01*
X78334131Y-63610005D01*
X78352876Y-63543825D01*
X78373887Y-63466025D01*
X78397638Y-63375032D01*
X78422259Y-63278560D01*
X78440610Y-63206531D01*
X78458788Y-63136039D01*
X78476134Y-63069572D01*
X78491991Y-63009621D01*
X78505701Y-62958676D01*
X78516605Y-62919228D01*
X78523212Y-62896480D01*
X78541012Y-62842180D01*
X78563999Y-62778637D01*
X78591210Y-62708027D01*
X78621678Y-62632532D01*
X78654440Y-62554329D01*
X78688532Y-62475597D01*
X78722988Y-62398517D01*
X78756845Y-62325266D01*
X78789136Y-62258024D01*
X78818899Y-62198969D01*
X78845168Y-62150282D01*
X78866979Y-62114140D01*
X78874018Y-62103985D01*
X78905906Y-62065328D01*
X78944880Y-62025302D01*
X78986836Y-61987583D01*
X79027669Y-61955846D01*
X79063273Y-61933766D01*
X79065245Y-61932783D01*
X79094031Y-61919862D01*
X79114771Y-61914380D01*
X79133590Y-61915105D01*
X79143098Y-61917137D01*
X79167476Y-61926826D01*
X79184570Y-61943376D01*
X79195194Y-61968986D01*
X79200162Y-62005852D01*
X79200287Y-62056173D01*
X79199710Y-62070025D01*
X79189357Y-62167793D01*
X79167422Y-62275593D01*
X79134355Y-62392003D01*
X79090607Y-62515602D01*
X79036629Y-62644970D01*
X78978211Y-62768082D01*
X78959982Y-62805192D01*
X78945204Y-62836718D01*
X78935137Y-62859857D01*
X78931041Y-62871806D01*
X78931136Y-62872765D01*
X78936341Y-62867420D01*
X78947851Y-62850205D01*
X78963966Y-62823806D01*
X78982985Y-62790909D01*
X78982989Y-62790902D01*
X79077947Y-62627574D01*
X79169971Y-62479337D01*
X79259849Y-62345093D01*
X79348373Y-62223743D01*
X79436331Y-62114189D01*
X79524514Y-62015334D01*
X79585232Y-61953445D01*
X79644626Y-61899691D01*
X79698609Y-61859898D01*
X79746754Y-61834258D01*
X79788633Y-61822961D01*
X79823818Y-61826201D01*
X79844294Y-61837266D01*
X79854703Y-61846814D01*
X79861884Y-61857659D01*
X79865374Y-61871171D01*
X79864709Y-61888720D01*
X79859427Y-61911677D01*
X79849064Y-61941411D01*
X79833157Y-61979293D01*
X79811244Y-62026693D01*
X79782860Y-62084981D01*
X79747544Y-62155528D01*
X79715095Y-62219534D01*
X79651745Y-62343341D01*
X79594734Y-62453116D01*
X79543477Y-62549927D01*
X79497388Y-62634842D01*
X79455882Y-62708929D01*
X79418374Y-62773256D01*
X79384278Y-62828892D01*
X79363289Y-62861476D01*
X79332369Y-62910125D01*
X79297962Y-62967011D01*
X79263988Y-63025500D01*
X79234366Y-63078960D01*
X79230774Y-63085696D01*
X79205933Y-63130577D01*
X79174382Y-63184610D01*
X79138853Y-63243280D01*
X79102081Y-63302073D01*
X79066802Y-63356474D01*
X79066173Y-63357423D01*
X79035496Y-63403919D01*
X79007182Y-63447357D01*
X78982805Y-63485283D01*
X78963939Y-63515237D01*
X78952159Y-63534763D01*
X78949900Y-63538875D01*
X78935651Y-63566621D01*
X78954941Y-63561041D01*
X78970873Y-63553854D01*
X78995595Y-63539875D01*
X79024302Y-63521857D01*
X79030212Y-63517935D01*
X79069657Y-63488031D01*
X79097178Y-63458319D01*
X79109120Y-63439889D01*
X79147827Y-63371678D01*
X79180171Y-63315426D01*
X79207871Y-63268575D01*
X79232643Y-63228570D01*
X79256205Y-63192854D01*
X79280275Y-63158870D01*
X79306571Y-63124064D01*
X79336810Y-63085877D01*
X79372711Y-63041755D01*
X79394287Y-63015494D01*
X79429369Y-62972780D01*
X79466273Y-62927706D01*
X79501287Y-62884813D01*
X79530698Y-62848645D01*
X79538751Y-62838701D01*
X79570918Y-62800882D01*
X79596265Y-62776200D01*
X79616594Y-62763594D01*
X79633706Y-62762000D01*
X79649401Y-62770357D01*
X79651512Y-62772191D01*
X79663597Y-62786286D01*
X79666600Y-62801579D01*
X79660404Y-62822614D01*
X79649649Y-62844898D01*
X79638251Y-62873633D01*
X79628896Y-62908971D01*
X79625414Y-62929512D01*
X79621896Y-62949020D01*
X79615323Y-62971692D01*
X79604802Y-62999656D01*
X79589441Y-63035043D01*
X79568347Y-63079981D01*
X79540629Y-63136601D01*
X79527943Y-63162082D01*
X79481862Y-63255646D01*
X79443735Y-63336053D01*
X79413091Y-63404462D01*
X79389456Y-63462031D01*
X79372358Y-63509919D01*
X79361323Y-63549285D01*
X79355879Y-63581286D01*
X79355606Y-63584352D01*
X79355415Y-63624699D01*
X79362689Y-63650545D01*
X79377670Y-63662347D01*
X79396694Y-63661670D01*
X79413128Y-63652482D01*
X79438010Y-63631974D01*
X79469623Y-63601963D01*
X79506247Y-63564267D01*
X79516883Y-63552660D01*
X79626259Y-63552660D01*
X79630412Y-63556813D01*
X79634565Y-63552660D01*
X79630412Y-63548507D01*
X79626259Y-63552660D01*
X79516883Y-63552660D01*
X79546166Y-63520703D01*
X79587661Y-63473091D01*
G37*
G36*
X85415186Y-63815112D02*
G01*
X85431684Y-63789358D01*
X85455911Y-63763129D01*
X85489956Y-63734577D01*
X85535912Y-63701852D01*
X85564922Y-63682759D01*
X85634788Y-63640734D01*
X85698616Y-63608459D01*
X85755189Y-63586349D01*
X85803289Y-63574820D01*
X85841701Y-63574291D01*
X85862590Y-63580909D01*
X85876113Y-63592426D01*
X85894479Y-63613477D01*
X85913717Y-63639511D01*
X85913775Y-63639597D01*
X85947160Y-63688758D01*
X86021032Y-63655110D01*
X86058401Y-63636495D01*
X86088674Y-63618331D01*
X86108107Y-63602930D01*
X86111029Y-63599520D01*
X86195690Y-63478989D01*
X86268299Y-63363637D01*
X86330897Y-63249846D01*
X86385522Y-63133998D01*
X86418337Y-63054295D01*
X86438875Y-63001487D01*
X86453510Y-62962895D01*
X86462370Y-62937255D01*
X86465585Y-62923305D01*
X86463284Y-62919783D01*
X86455595Y-62925424D01*
X86442647Y-62938968D01*
X86428509Y-62954735D01*
X86387625Y-62999000D01*
X86345841Y-63041425D01*
X86306546Y-63078717D01*
X86273132Y-63107583D01*
X86263299Y-63115200D01*
X86244358Y-63129878D01*
X86216974Y-63151869D01*
X86185381Y-63177748D01*
X86164168Y-63195390D01*
X86118781Y-63233129D01*
X86083087Y-63261943D01*
X86054229Y-63283789D01*
X86029348Y-63300621D01*
X86005586Y-63314396D01*
X85980084Y-63327070D01*
X85955494Y-63338178D01*
X85917994Y-63353837D01*
X85888656Y-63363266D01*
X85860955Y-63367994D01*
X85828362Y-63369547D01*
X85821246Y-63369609D01*
X85785912Y-63368931D01*
X85761991Y-63365774D01*
X85744348Y-63359088D01*
X85732714Y-63351550D01*
X85715664Y-63340167D01*
X85705649Y-63338665D01*
X85696978Y-63346247D01*
X85696756Y-63346514D01*
X85674075Y-63367850D01*
X85640425Y-63392259D01*
X85600389Y-63416975D01*
X85558552Y-63439232D01*
X85519495Y-63456266D01*
X85508412Y-63460136D01*
X85453945Y-63476329D01*
X85412026Y-63485097D01*
X85380248Y-63486253D01*
X85356207Y-63479611D01*
X85337497Y-63464984D01*
X85323810Y-63445832D01*
X85307186Y-63417656D01*
X85280408Y-63442840D01*
X85256611Y-63463864D01*
X85228896Y-63486528D01*
X85219560Y-63493730D01*
X85199180Y-63509461D01*
X85170062Y-63532390D01*
X85136354Y-63559234D01*
X85107428Y-63582486D01*
X85049365Y-63627527D01*
X84998642Y-63663069D01*
X84956357Y-63688436D01*
X84923606Y-63702957D01*
X84905893Y-63706323D01*
X84882923Y-63701457D01*
X84859037Y-63689646D01*
X84857615Y-63688660D01*
X84832810Y-63670997D01*
X84773272Y-63729706D01*
X84723356Y-63776771D01*
X84675320Y-63817995D01*
X84631045Y-63852015D01*
X84592409Y-63877468D01*
X84561291Y-63892992D01*
X84542135Y-63897363D01*
X84517460Y-63889938D01*
X84498927Y-63870752D01*
X84489992Y-63844437D01*
X84490497Y-63828155D01*
X84497171Y-63800853D01*
X84509180Y-63762634D01*
X84524965Y-63717696D01*
X84542972Y-63670239D01*
X84561645Y-63624460D01*
X84579427Y-63584560D01*
X84585103Y-63572859D01*
X84601609Y-63542990D01*
X84625337Y-63504244D01*
X84653494Y-63460993D01*
X84683284Y-63417612D01*
X84692906Y-63404139D01*
X84725948Y-63356793D01*
X84761750Y-63302694D01*
X84799478Y-63243343D01*
X84838300Y-63180242D01*
X84877386Y-63114894D01*
X84915904Y-63048800D01*
X84953020Y-62983461D01*
X84987904Y-62920379D01*
X85019724Y-62861057D01*
X85047649Y-62806995D01*
X85070845Y-62759696D01*
X85088481Y-62720661D01*
X85099726Y-62691392D01*
X85103748Y-62673391D01*
X85100626Y-62668063D01*
X85090218Y-62673089D01*
X85070736Y-62686376D01*
X85045599Y-62705237D01*
X85018230Y-62726986D01*
X84992047Y-62748936D01*
X84970471Y-62768400D01*
X84961703Y-62777184D01*
X84948071Y-62794711D01*
X84928906Y-62823301D01*
X84906497Y-62859361D01*
X84883131Y-62899297D01*
X84877005Y-62910189D01*
X84797499Y-63049546D01*
X84722941Y-63173449D01*
X84653376Y-63281829D01*
X84588851Y-63374615D01*
X84529413Y-63451738D01*
X84486338Y-63501271D01*
X84433500Y-63562817D01*
X84393682Y-63620013D01*
X84378383Y-63647143D01*
X84355103Y-63687372D01*
X84334629Y-63712259D01*
X84315836Y-63722603D01*
X84297598Y-63719204D01*
X84287350Y-63711724D01*
X84279346Y-63706156D01*
X84270565Y-63706141D01*
X84257887Y-63713217D01*
X84238197Y-63728921D01*
X84219160Y-63745358D01*
X84159639Y-63793535D01*
X84100785Y-63832474D01*
X84037048Y-63865381D01*
X83962882Y-63895463D01*
X83953728Y-63898781D01*
X83921969Y-63907151D01*
X83881160Y-63913683D01*
X83836304Y-63918035D01*
X83792401Y-63919868D01*
X83754453Y-63918839D01*
X83727462Y-63914608D01*
X83726421Y-63914284D01*
X83689237Y-63896550D01*
X83653351Y-63869843D01*
X83625488Y-63839398D01*
X83620698Y-63832041D01*
X83605066Y-63792226D01*
X83598232Y-63743473D01*
X83600558Y-63691157D01*
X83608663Y-63652352D01*
X83619115Y-63622946D01*
X83635672Y-63583696D01*
X83656163Y-63539165D01*
X83678418Y-63493913D01*
X83700265Y-63452501D01*
X83719362Y-63419763D01*
X83735087Y-63394845D01*
X83694847Y-63367595D01*
X83649934Y-63328580D01*
X83619904Y-63282941D01*
X83605192Y-63231725D01*
X83606231Y-63175973D01*
X83609052Y-63161233D01*
X83616625Y-63139581D01*
X83631582Y-63106556D01*
X83652456Y-63064845D01*
X83677783Y-63017134D01*
X83706097Y-62966111D01*
X83735935Y-62914463D01*
X83765830Y-62864876D01*
X83794318Y-62820038D01*
X83798690Y-62813419D01*
X83814863Y-62791964D01*
X83840408Y-62761543D01*
X83872898Y-62724889D01*
X83909907Y-62684730D01*
X83949008Y-62643797D01*
X83953697Y-62638991D01*
X83992838Y-62598409D01*
X84030218Y-62558611D01*
X84063418Y-62522250D01*
X84090019Y-62491983D01*
X84107600Y-62470465D01*
X84109076Y-62468477D01*
X84158516Y-62407602D01*
X84214384Y-62352831D01*
X84280208Y-62301011D01*
X84344114Y-62258494D01*
X84414184Y-62215831D01*
X84472799Y-62182696D01*
X84521540Y-62158325D01*
X84561989Y-62141948D01*
X84595729Y-62132801D01*
X84606975Y-62131078D01*
X84633093Y-62128949D01*
X84647880Y-62131123D01*
X84656299Y-62138660D01*
X84658277Y-62142036D01*
X84660945Y-62162824D01*
X84652506Y-62187630D01*
X84635631Y-62211187D01*
X84615146Y-62227123D01*
X84593725Y-62240823D01*
X84568602Y-62259886D01*
X84559013Y-62267978D01*
X84539399Y-62282825D01*
X84523941Y-62290344D01*
X84518723Y-62290248D01*
X84515694Y-62279935D01*
X84523179Y-62262466D01*
X84538883Y-62241266D01*
X84560514Y-62219761D01*
X84572091Y-62210512D01*
X84591829Y-62194844D01*
X84598711Y-62186733D01*
X84594274Y-62185438D01*
X84580052Y-62190216D01*
X84557582Y-62200327D01*
X84528399Y-62215029D01*
X84494038Y-62233581D01*
X84456034Y-62255240D01*
X84415924Y-62279265D01*
X84375243Y-62304915D01*
X84371260Y-62307504D01*
X84317889Y-62343586D01*
X84274959Y-62376253D01*
X84238071Y-62409558D01*
X84202824Y-62447554D01*
X84164821Y-62494292D01*
X84155697Y-62506094D01*
X84132958Y-62533920D01*
X84101416Y-62570051D01*
X84064106Y-62611135D01*
X84024064Y-62653822D01*
X83989740Y-62689277D01*
X83947235Y-62732944D01*
X83914026Y-62768591D01*
X83887377Y-62799653D01*
X83864555Y-62829566D01*
X83842825Y-62861767D01*
X83819453Y-62899690D01*
X83811052Y-62913813D01*
X83784355Y-62959571D01*
X83756800Y-63007870D01*
X83731372Y-63053411D01*
X83711058Y-63090896D01*
X83708429Y-63095893D01*
X83690433Y-63131250D01*
X83679301Y-63156693D01*
X83673687Y-63176751D01*
X83672244Y-63195951D01*
X83673230Y-63214250D01*
X83677941Y-63244974D01*
X83688207Y-63267458D01*
X83704446Y-63286763D01*
X83726162Y-63305890D01*
X83747936Y-63320124D01*
X83754642Y-63323089D01*
X83765998Y-63325953D01*
X83776095Y-63324089D01*
X83784313Y-63318013D01*
X83895663Y-63318013D01*
X83896898Y-63322264D01*
X83902733Y-63323522D01*
X83916150Y-63321358D01*
X83940134Y-63315340D01*
X83969167Y-63307398D01*
X84017650Y-63292379D01*
X84060561Y-63275010D01*
X84101511Y-63253200D01*
X84144109Y-63224858D01*
X84191964Y-63187894D01*
X84229581Y-63156572D01*
X84261797Y-63130283D01*
X84295913Y-63104160D01*
X84325323Y-63083235D01*
X84329254Y-63080638D01*
X84377653Y-63044586D01*
X84419462Y-63004530D01*
X84452651Y-62963078D01*
X84475189Y-62922839D01*
X84485046Y-62886422D01*
X84485317Y-62880134D01*
X84483147Y-62865844D01*
X84473355Y-62860050D01*
X84456676Y-62859102D01*
X84424340Y-62865309D01*
X84382882Y-62883177D01*
X84333782Y-62911577D01*
X84278522Y-62949383D01*
X84218580Y-62995466D01*
X84155437Y-63048698D01*
X84090574Y-63107952D01*
X84025470Y-63172099D01*
X83972495Y-63228050D01*
X83944482Y-63259036D01*
X83921038Y-63285780D01*
X83904223Y-63305870D01*
X83896100Y-63316889D01*
X83895663Y-63318013D01*
X83784313Y-63318013D01*
X83787878Y-63315377D01*
X83804290Y-63297696D01*
X83826049Y-63271634D01*
X83880464Y-63208744D01*
X83942714Y-63142416D01*
X84009801Y-63075471D01*
X84078730Y-63010728D01*
X84146506Y-62951006D01*
X84210132Y-62899126D01*
X84263299Y-62860148D01*
X84322639Y-62824277D01*
X84378902Y-62799036D01*
X84430521Y-62784621D01*
X84475931Y-62781228D01*
X84513565Y-62789053D01*
X84541858Y-62808293D01*
X84552928Y-62823920D01*
X84561934Y-62855126D01*
X84562244Y-62894576D01*
X84554180Y-62936565D01*
X84545156Y-62961283D01*
X84526093Y-62993611D01*
X84496681Y-63031064D01*
X84460549Y-63069790D01*
X84421327Y-63105938D01*
X84382642Y-63135655D01*
X84377923Y-63138793D01*
X84345845Y-63161105D01*
X84310383Y-63187869D01*
X84285971Y-63207658D01*
X84211302Y-63267047D01*
X84141357Y-63313710D01*
X84072563Y-63349310D01*
X84001344Y-63375513D01*
X83924126Y-63393981D01*
X83866390Y-63402968D01*
X83843503Y-63406762D01*
X83827846Y-63413288D01*
X83814522Y-63426118D01*
X83798633Y-63448823D01*
X83794257Y-63455575D01*
X83753846Y-63523497D01*
X83721725Y-63588505D01*
X83698504Y-63648731D01*
X83684795Y-63702310D01*
X83681209Y-63747375D01*
X83687779Y-63780706D01*
X83708445Y-63810211D01*
X83740826Y-63829751D01*
X83783364Y-63839349D01*
X83834500Y-63839029D01*
X83892677Y-63828815D01*
X83956335Y-63808729D01*
X84023917Y-63778795D01*
X84030324Y-63775524D01*
X84066060Y-63754685D01*
X84105712Y-63727646D01*
X84146703Y-63696620D01*
X84186454Y-63663816D01*
X84222389Y-63631446D01*
X84251928Y-63601722D01*
X84272495Y-63576856D01*
X84281253Y-63560263D01*
X84286479Y-63546385D01*
X84297949Y-63520130D01*
X84314510Y-63483992D01*
X84335012Y-63440469D01*
X84356959Y-63394845D01*
X84443787Y-63394845D01*
X84447940Y-63398998D01*
X84452093Y-63394845D01*
X84447940Y-63390692D01*
X84443787Y-63394845D01*
X84356959Y-63394845D01*
X84358300Y-63392057D01*
X84365043Y-63378233D01*
X84452093Y-63378233D01*
X84456246Y-63382386D01*
X84460399Y-63378233D01*
X84456246Y-63374080D01*
X84452093Y-63378233D01*
X84365043Y-63378233D01*
X84368683Y-63370770D01*
X84371389Y-63365233D01*
X84462436Y-63365233D01*
X84463572Y-63365773D01*
X84471152Y-63359926D01*
X84472858Y-63357467D01*
X84474975Y-63349702D01*
X84473839Y-63349161D01*
X84466259Y-63355009D01*
X84464552Y-63357467D01*
X84462436Y-63365233D01*
X84371389Y-63365233D01*
X84385335Y-63336702D01*
X84477011Y-63336702D01*
X84481164Y-63340855D01*
X84485317Y-63336702D01*
X84481164Y-63332549D01*
X84477011Y-63336702D01*
X84385335Y-63336702D01*
X84393455Y-63320090D01*
X84485317Y-63320090D01*
X84489470Y-63324243D01*
X84493623Y-63320090D01*
X84489470Y-63315937D01*
X84485317Y-63320090D01*
X84393455Y-63320090D01*
X84397187Y-63312454D01*
X84401560Y-63303478D01*
X84494374Y-63303478D01*
X84497783Y-63301734D01*
X84506548Y-63288381D01*
X84514389Y-63274407D01*
X84525899Y-63251389D01*
X84533135Y-63233993D01*
X84534403Y-63228723D01*
X84530994Y-63230467D01*
X84522229Y-63243820D01*
X84514389Y-63257794D01*
X84502878Y-63280812D01*
X84495642Y-63298208D01*
X84494374Y-63303478D01*
X84401560Y-63303478D01*
X84427616Y-63249994D01*
X84446018Y-63212111D01*
X84535154Y-63212111D01*
X84539307Y-63216264D01*
X84543460Y-63212111D01*
X84539307Y-63207958D01*
X84535154Y-63212111D01*
X84446018Y-63212111D01*
X84452473Y-63198822D01*
X84548865Y-63198822D01*
X84553886Y-63192765D01*
X84565185Y-63172405D01*
X84569318Y-63164351D01*
X84582259Y-63141950D01*
X84603317Y-63109084D01*
X84630549Y-63068509D01*
X84662014Y-63022982D01*
X84695770Y-62975259D01*
X84729876Y-62928095D01*
X84762389Y-62884247D01*
X84791369Y-62846472D01*
X84807143Y-62826781D01*
X84826554Y-62801614D01*
X84846310Y-62772620D01*
X84867197Y-62738289D01*
X84890001Y-62697112D01*
X84915509Y-62647580D01*
X84944507Y-62588184D01*
X84977782Y-62517415D01*
X85016120Y-62433764D01*
X85043484Y-62373197D01*
X85080126Y-62290995D01*
X85109468Y-62223517D01*
X85131576Y-62170598D01*
X85146515Y-62132072D01*
X85154355Y-62107774D01*
X85155160Y-62097538D01*
X85155084Y-62097455D01*
X85148494Y-62100226D01*
X85135999Y-62116145D01*
X85117421Y-62145522D01*
X85092582Y-62188669D01*
X85061303Y-62245898D01*
X85023406Y-62317521D01*
X84978711Y-62403849D01*
X84971314Y-62418273D01*
X84938172Y-62482344D01*
X84904583Y-62546142D01*
X84872012Y-62606968D01*
X84841921Y-62662125D01*
X84815772Y-62708916D01*
X84795029Y-62744643D01*
X84788545Y-62755276D01*
X84748505Y-62820512D01*
X84708900Y-62886851D01*
X84671200Y-62951704D01*
X84636870Y-63012479D01*
X84607380Y-63066583D01*
X84584198Y-63111427D01*
X84570929Y-63139460D01*
X84557439Y-63171343D01*
X84550067Y-63191406D01*
X84548865Y-63198822D01*
X84452473Y-63198822D01*
X84457678Y-63188106D01*
X84485083Y-63131509D01*
X84507540Y-63084918D01*
X84508285Y-63083367D01*
X84529144Y-63041950D01*
X84556794Y-62990061D01*
X84589221Y-62931312D01*
X84624409Y-62869318D01*
X84660344Y-62807691D01*
X84684242Y-62767736D01*
X84720678Y-62706408D01*
X84758741Y-62640364D01*
X84796154Y-62573695D01*
X84830637Y-62510494D01*
X84859913Y-62454853D01*
X84873841Y-62427186D01*
X84920567Y-62333237D01*
X84961619Y-62253225D01*
X84997819Y-62185801D01*
X85029993Y-62129614D01*
X85058967Y-62083315D01*
X85059552Y-62082484D01*
X85158110Y-62082484D01*
X85162263Y-62086637D01*
X85166416Y-62082484D01*
X85162263Y-62078331D01*
X85158110Y-62082484D01*
X85059552Y-62082484D01*
X85085565Y-62045554D01*
X85110612Y-62014981D01*
X85134933Y-61990246D01*
X85147598Y-61979217D01*
X85178963Y-61960089D01*
X85209051Y-61953914D01*
X85234629Y-61961039D01*
X85244037Y-61968929D01*
X85254923Y-61992446D01*
X85257320Y-62028061D01*
X85251354Y-62073667D01*
X85237152Y-62127161D01*
X85233893Y-62136992D01*
X85223593Y-62164666D01*
X85207682Y-62204291D01*
X85187521Y-62252738D01*
X85164468Y-62306879D01*
X85139884Y-62363586D01*
X85115128Y-62419730D01*
X85091559Y-62472183D01*
X85070538Y-62517817D01*
X85053424Y-62553502D01*
X85049284Y-62561744D01*
X85039805Y-62582309D01*
X85035459Y-62595844D01*
X85035694Y-62598252D01*
X85044451Y-62597048D01*
X85064228Y-62590695D01*
X85090766Y-62580563D01*
X85091100Y-62580428D01*
X85119424Y-62569419D01*
X85137357Y-62564568D01*
X85149709Y-62565329D01*
X85161287Y-62571152D01*
X85162968Y-62572241D01*
X85182337Y-62594505D01*
X85191260Y-62627932D01*
X85190003Y-62670988D01*
X85178834Y-62722141D01*
X85158021Y-62779858D01*
X85127831Y-62842606D01*
X85110375Y-62873575D01*
X85094351Y-62901299D01*
X85072824Y-62939320D01*
X85048211Y-62983332D01*
X85022928Y-63029031D01*
X85013622Y-63045989D01*
X84969511Y-63125831D01*
X84930839Y-63193995D01*
X84895651Y-63253678D01*
X84861996Y-63308080D01*
X84827917Y-63360398D01*
X84791464Y-63413831D01*
X84771877Y-63441764D01*
X84737239Y-63490878D01*
X84710407Y-63529541D01*
X84689631Y-63560891D01*
X84673161Y-63588065D01*
X84659247Y-63614203D01*
X84646139Y-63642441D01*
X84632087Y-63675917D01*
X84615342Y-63717770D01*
X84608918Y-63733978D01*
X84593018Y-63774092D01*
X84644009Y-63734031D01*
X84709162Y-63677700D01*
X84762151Y-63621005D01*
X84801770Y-63565445D01*
X84826814Y-63512523D01*
X84829844Y-63502824D01*
X84842181Y-63467056D01*
X84860958Y-63421741D01*
X84884041Y-63371247D01*
X84909299Y-63319943D01*
X84934602Y-63272197D01*
X84957815Y-63232379D01*
X84972528Y-63210407D01*
X84988412Y-63189129D01*
X85011926Y-63157935D01*
X85040594Y-63120094D01*
X85071942Y-63078876D01*
X85093644Y-63050431D01*
X85125730Y-63007371D01*
X85163865Y-62954488D01*
X85205124Y-62895940D01*
X85246585Y-62835885D01*
X85285324Y-62778482D01*
X85293883Y-62765575D01*
X85387695Y-62630659D01*
X85488683Y-62498299D01*
X85533275Y-62443675D01*
X85580415Y-62388190D01*
X85628048Y-62333950D01*
X85674760Y-62282414D01*
X85719134Y-62235040D01*
X85759756Y-62193286D01*
X85795210Y-62158611D01*
X85824081Y-62132474D01*
X85844952Y-62116332D01*
X85855585Y-62111555D01*
X85873473Y-62116557D01*
X85882144Y-62121938D01*
X85894961Y-62135287D01*
X85899300Y-62150111D01*
X85894542Y-62169300D01*
X85880069Y-62195744D01*
X85859933Y-62225703D01*
X85838684Y-62256478D01*
X85811426Y-62296625D01*
X85781220Y-62341600D01*
X85751130Y-62386857D01*
X85741855Y-62400916D01*
X85686492Y-62483518D01*
X85625516Y-62571884D01*
X85562341Y-62661198D01*
X85500376Y-62746647D01*
X85443034Y-62823416D01*
X85434814Y-62834184D01*
X85401637Y-62878499D01*
X85364607Y-62929551D01*
X85328899Y-62980135D01*
X85306547Y-63012765D01*
X85282854Y-63047735D01*
X85255540Y-63087548D01*
X85223716Y-63133475D01*
X85186494Y-63186785D01*
X85142984Y-63248749D01*
X85092296Y-63320638D01*
X85033542Y-63403721D01*
X84979081Y-63480586D01*
X84945382Y-63528987D01*
X84921478Y-63565485D01*
X84906784Y-63591150D01*
X84900719Y-63607052D01*
X84902700Y-63614262D01*
X84905932Y-63614956D01*
X84918555Y-63610102D01*
X84941030Y-63596946D01*
X84970266Y-63577593D01*
X85003169Y-63554148D01*
X85036644Y-63528718D01*
X85058437Y-63511134D01*
X85093725Y-63482007D01*
X85132071Y-63450649D01*
X85166515Y-63422746D01*
X85174225Y-63416557D01*
X85230900Y-63366133D01*
X85277804Y-63314034D01*
X85312906Y-63262781D01*
X85332559Y-63219967D01*
X85348807Y-63181650D01*
X85373615Y-63135480D01*
X85404229Y-63085769D01*
X85437896Y-63036827D01*
X85471862Y-62992967D01*
X85492481Y-62969559D01*
X85523665Y-62938781D01*
X85557800Y-62908866D01*
X85591048Y-62882870D01*
X85619570Y-62863849D01*
X85634804Y-62856270D01*
X85656941Y-62855628D01*
X85675886Y-62868051D01*
X85687686Y-62890006D01*
X85689699Y-62905308D01*
X85686119Y-62932800D01*
X85674463Y-62962367D01*
X85653360Y-62996422D01*
X85621440Y-63037376D01*
X85601215Y-63060944D01*
X85546842Y-63123261D01*
X85502817Y-63174631D01*
X85468186Y-63216278D01*
X85441998Y-63249432D01*
X85423297Y-63275317D01*
X85411130Y-63295162D01*
X85404545Y-63310192D01*
X85403126Y-63315838D01*
X85398443Y-63340706D01*
X85394336Y-63360927D01*
X85394184Y-63361620D01*
X85392595Y-63380801D01*
X85399641Y-63390904D01*
X85417203Y-63392489D01*
X85447161Y-63386117D01*
X85461886Y-63381817D01*
X85532628Y-63353407D01*
X85592842Y-63313809D01*
X85635730Y-63272629D01*
X85657283Y-63246636D01*
X85668801Y-63226316D01*
X85672908Y-63206588D01*
X85673087Y-63200261D01*
X85679517Y-63150598D01*
X85697709Y-63095730D01*
X85726022Y-63040264D01*
X85735558Y-63025224D01*
X85770896Y-62976423D01*
X85810472Y-62929217D01*
X85852132Y-62885546D01*
X85893723Y-62847348D01*
X85933091Y-62816562D01*
X85968082Y-62795127D01*
X85996542Y-62784981D01*
X86003062Y-62784428D01*
X86029529Y-62791435D01*
X86047062Y-62810187D01*
X86052915Y-62837010D01*
X86051399Y-62849041D01*
X86043897Y-62865639D01*
X86027071Y-62892763D01*
X86002430Y-62928345D01*
X85971484Y-62970316D01*
X85935742Y-63016607D01*
X85896711Y-63065150D01*
X85872433Y-63094389D01*
X85831459Y-63145819D01*
X85800819Y-63190140D01*
X85781115Y-63226306D01*
X85772950Y-63253271D01*
X85774038Y-63265161D01*
X85779541Y-63276117D01*
X85788599Y-63281429D01*
X85805820Y-63282424D01*
X85828925Y-63280977D01*
X85878689Y-63271325D01*
X85933039Y-63249436D01*
X85993073Y-63214720D01*
X86059889Y-63166586D01*
X86096697Y-63136874D01*
X86134962Y-63105037D01*
X86173019Y-63073423D01*
X86207009Y-63045238D01*
X86233069Y-63023684D01*
X86237901Y-63019701D01*
X86278445Y-62982989D01*
X86323834Y-62936429D01*
X86370247Y-62884344D01*
X86413862Y-62831060D01*
X86450857Y-62780899D01*
X86457064Y-62771715D01*
X86488963Y-62727193D01*
X86519227Y-62693910D01*
X86552352Y-62667663D01*
X86592832Y-62644253D01*
X86594191Y-62643559D01*
X86619682Y-62632402D01*
X86637518Y-62630053D01*
X86649537Y-62633548D01*
X86666645Y-62645293D01*
X86673559Y-62661896D01*
X86670244Y-62685747D01*
X86656662Y-62719233D01*
X86647967Y-62736594D01*
X86619649Y-62791738D01*
X86597640Y-62836344D01*
X86580143Y-62874378D01*
X86565361Y-62909803D01*
X86551498Y-62946584D01*
X86546590Y-62960345D01*
X86506885Y-63066535D01*
X86463957Y-63169784D01*
X86419201Y-63267142D01*
X86374009Y-63355657D01*
X86329776Y-63432379D01*
X86307013Y-63467523D01*
X86288818Y-63495226D01*
X86275759Y-63516950D01*
X86269548Y-63529738D01*
X86269745Y-63531895D01*
X86278877Y-63527911D01*
X86299569Y-63516961D01*
X86329093Y-63500545D01*
X86364716Y-63480165D01*
X86379582Y-63471519D01*
X86516701Y-63385432D01*
X86656415Y-63286106D01*
X86735772Y-63224584D01*
X86799284Y-63174807D01*
X86851977Y-63135587D01*
X86893542Y-63107136D01*
X86923670Y-63089665D01*
X86942052Y-63083383D01*
X86942704Y-63083367D01*
X86959626Y-63089878D01*
X86973753Y-63104132D01*
X86982519Y-63120522D01*
X86981002Y-63133427D01*
X86974285Y-63144850D01*
X86961886Y-63158426D01*
X86939621Y-63178081D01*
X86911339Y-63200519D01*
X86896498Y-63211495D01*
X86861929Y-63236929D01*
X86820520Y-63268131D01*
X86778387Y-63300466D01*
X86752878Y-63320391D01*
X86635857Y-63407795D01*
X86513285Y-63490344D01*
X86389464Y-63565344D01*
X86268697Y-63630098D01*
X86224443Y-63651485D01*
X86188449Y-63669467D01*
X86164385Y-63684856D01*
X86148459Y-63700426D01*
X86139873Y-63713357D01*
X86114950Y-63747894D01*
X86080706Y-63782659D01*
X86047089Y-63808894D01*
X86023999Y-63818388D01*
X85995812Y-63822233D01*
X85968929Y-63820346D01*
X85949753Y-63812649D01*
X85947188Y-63810149D01*
X85934553Y-63799672D01*
X85928292Y-63797690D01*
X85917819Y-63800686D01*
X85895099Y-63808898D01*
X85863223Y-63821156D01*
X85825281Y-63836296D01*
X85815100Y-63840439D01*
X85754473Y-63864811D01*
X85705770Y-63883188D01*
X85665770Y-63896390D01*
X85631249Y-63905242D01*
X85598984Y-63910564D01*
X85565751Y-63913179D01*
X85528328Y-63913910D01*
X85527102Y-63913911D01*
X85488415Y-63913623D01*
X85462648Y-63912234D01*
X85446114Y-63909059D01*
X85435125Y-63903415D01*
X85426590Y-63895286D01*
X85408497Y-63869969D01*
X85404345Y-63846442D01*
X85410985Y-63826025D01*
X85519303Y-63826025D01*
X85524936Y-63829781D01*
X85543640Y-63830838D01*
X85549555Y-63830851D01*
X85578071Y-63828209D01*
X85612876Y-63821479D01*
X85635710Y-63815323D01*
X85659253Y-63807415D01*
X85691015Y-63795934D01*
X85727588Y-63782208D01*
X85765563Y-63767570D01*
X85801530Y-63753348D01*
X85832081Y-63740874D01*
X85853807Y-63731477D01*
X85863266Y-63726521D01*
X85861019Y-63718395D01*
X85851642Y-63701252D01*
X85843965Y-63689133D01*
X85831421Y-63671920D01*
X85819283Y-63662111D01*
X85804272Y-63659713D01*
X85783110Y-63664732D01*
X85752519Y-63677175D01*
X85725784Y-63689358D01*
X85697109Y-63703993D01*
X85662410Y-63723727D01*
X85625231Y-63746301D01*
X85589120Y-63769454D01*
X85557621Y-63790923D01*
X85534280Y-63808449D01*
X85523844Y-63818134D01*
X85519303Y-63826025D01*
X85410985Y-63826025D01*
X85413306Y-63818890D01*
X85415186Y-63815112D01*
G37*
G36*
X82376952Y-62631507D02*
G01*
X82394699Y-62646187D01*
X82398845Y-62670204D01*
X82396833Y-62681507D01*
X82385934Y-62704743D01*
X82368553Y-62722446D01*
X82348488Y-62733015D01*
X82329534Y-62734852D01*
X82315486Y-62726358D01*
X82311420Y-62717476D01*
X82304768Y-62705599D01*
X82290455Y-62704248D01*
X82284154Y-62705451D01*
X82263468Y-62704469D01*
X82244901Y-62695303D01*
X82234902Y-62681542D01*
X82234496Y-62677852D01*
X82242530Y-62661310D01*
X82263294Y-62646215D01*
X82292907Y-62634354D01*
X82327492Y-62627513D01*
X82345942Y-62626532D01*
X82376952Y-62631507D01*
G37*
X101125250Y-77574224D02*
X101125250Y-77064776D01*
X100080250Y-77574224D02*
X100080250Y-77064776D01*
X83566000Y-59964000D02*
X85516000Y-59964000D01*
X83566000Y-54844000D02*
X80116000Y-54844000D01*
X83566000Y-59964000D02*
X81616000Y-59964000D01*
X83566000Y-54844000D02*
X85516000Y-54844000D01*
X92624000Y-75554000D02*
X92624000Y-78504000D01*
X95844000Y-77354000D02*
X95844000Y-75554000D01*
X103369750Y-78979500D02*
X103369750Y-76519500D01*
X101899750Y-78979500D02*
X103369750Y-78979500D01*
X101899750Y-76519500D02*
X101899750Y-78979500D01*
X93300000Y-72160621D02*
X91464000Y-72160621D01*
X93648000Y-70879621D02*
X87200000Y-70879621D01*
X93214000Y-72320621D02*
X91464000Y-72320621D01*
X93166000Y-72400621D02*
X91464000Y-72400621D01*
X89384000Y-71119621D02*
X87223000Y-71119621D01*
X91686000Y-73680621D02*
X89162000Y-73680621D01*
X92258000Y-73360621D02*
X88590000Y-73360621D01*
X89384000Y-71600621D02*
X87326000Y-71600621D01*
X89384000Y-71239621D02*
X87242000Y-71239621D01*
X89384000Y-71319621D02*
X87257000Y-71319621D01*
X89384000Y-71400621D02*
X87274000Y-71400621D01*
X89384000Y-72160621D02*
X87548000Y-72160621D01*
X89384000Y-71760621D02*
X87377000Y-71760621D01*
X93358000Y-72040621D02*
X91464000Y-72040621D01*
X89384000Y-71159621D02*
X87229000Y-71159621D01*
X89384000Y-72240621D02*
X87590000Y-72240621D01*
X89384000Y-71079621D02*
X87218000Y-71079621D01*
X93140000Y-72440621D02*
X91464000Y-72440621D01*
X89384000Y-72200621D02*
X87568000Y-72200621D01*
X90826000Y-73920621D02*
X90022000Y-73920621D01*
X89384000Y-71840621D02*
X87406000Y-71840621D01*
X93485000Y-71720621D02*
X91464000Y-71720621D01*
X89384000Y-71560621D02*
X87314000Y-71560621D01*
X89384000Y-70999621D02*
X87209000Y-70999621D01*
X93613000Y-71199621D02*
X91464000Y-71199621D01*
X89384000Y-71039621D02*
X87213000Y-71039621D01*
X92516000Y-73160621D02*
X88332000Y-73160621D01*
X93190000Y-72360621D02*
X91464000Y-72360621D01*
X93522000Y-71600621D02*
X91464000Y-71600621D01*
X89384000Y-71359621D02*
X87265000Y-71359621D01*
X93625000Y-71119621D02*
X91464000Y-71119621D01*
X93498000Y-71680621D02*
X91464000Y-71680621D01*
X93619000Y-71159621D02*
X91464000Y-71159621D01*
X89384000Y-72840621D02*
X88008000Y-72840621D01*
X89384000Y-72320621D02*
X87634000Y-72320621D01*
X92468000Y-73200621D02*
X88380000Y-73200621D01*
X89384000Y-72800621D02*
X87974000Y-72800621D01*
X89384000Y-72040621D02*
X87490000Y-72040621D01*
X93635000Y-71039621D02*
X91464000Y-71039621D01*
X92419000Y-73240621D02*
X88429000Y-73240621D01*
X92263000Y-67179380D02*
X92263000Y-67809380D01*
X89384000Y-72600621D02*
X87817000Y-72600621D01*
X89384000Y-72560621D02*
X87788000Y-72560621D01*
X89384000Y-72680621D02*
X87876000Y-72680621D01*
X89384000Y-72400621D02*
X87682000Y-72400621D01*
X93639000Y-70999621D02*
X91464000Y-70999621D01*
X89384000Y-71520621D02*
X87303000Y-71520621D01*
X91856000Y-73600621D02*
X88992000Y-73600621D01*
X89384000Y-72880621D02*
X88044000Y-72880621D01*
X89384000Y-72280621D02*
X87612000Y-72280621D01*
X93114000Y-72480621D02*
X91464000Y-72480621D01*
X93545000Y-71520621D02*
X91464000Y-71520621D01*
X93376000Y-72000621D02*
X91464000Y-72000621D01*
X93654000Y-70719621D02*
X87194000Y-70719621D01*
X93565000Y-71440621D02*
X91464000Y-71440621D01*
X92874000Y-72800621D02*
X91464000Y-72800621D01*
X93652000Y-70799621D02*
X87196000Y-70799621D01*
X93583000Y-71359621D02*
X91464000Y-71359621D01*
X93630000Y-71079621D02*
X91464000Y-71079621D01*
X93654000Y-70759621D02*
X87194000Y-70759621D01*
X92972000Y-72680621D02*
X91464000Y-72680621D01*
X91933000Y-73560621D02*
X88915000Y-73560621D01*
X89384000Y-71880621D02*
X87422000Y-71880621D01*
X92908000Y-72760621D02*
X91464000Y-72760621D01*
X89384000Y-71920621D02*
X87438000Y-71920621D01*
X92005000Y-73520621D02*
X88843000Y-73520621D01*
X93471000Y-71760621D02*
X91464000Y-71760621D01*
X93426000Y-71880621D02*
X91464000Y-71880621D01*
X93646000Y-70919621D02*
X91464000Y-70919621D01*
X92200000Y-73400621D02*
X88648000Y-73400621D01*
X89384000Y-72120621D02*
X87528000Y-72120621D01*
X92314000Y-73320621D02*
X88534000Y-73320621D01*
X91774000Y-73640621D02*
X89074000Y-73640621D01*
X92804000Y-72880621D02*
X91464000Y-72880621D01*
X92606000Y-73080621D02*
X88242000Y-73080621D01*
X93642000Y-70959621D02*
X91464000Y-70959621D01*
X92767000Y-72920621D02*
X91464000Y-72920621D01*
X89384000Y-72440621D02*
X87708000Y-72440621D01*
X89384000Y-72960621D02*
X88119000Y-72960621D01*
X89384000Y-72760621D02*
X87940000Y-72760621D01*
X89384000Y-72520621D02*
X87760000Y-72520621D01*
X89384000Y-72720621D02*
X87908000Y-72720621D01*
X93510000Y-71640621D02*
X91464000Y-71640621D01*
X93236000Y-72280621D02*
X91464000Y-72280621D01*
X89384000Y-71199621D02*
X87235000Y-71199621D01*
X93534000Y-71560621D02*
X91464000Y-71560621D01*
X89384000Y-72080621D02*
X87508000Y-72080621D01*
X92074000Y-73480621D02*
X88774000Y-73480621D01*
X92648000Y-73040621D02*
X88200000Y-73040621D01*
X91589000Y-73720621D02*
X89259000Y-73720621D01*
X89384000Y-70959621D02*
X87206000Y-70959621D01*
X92561000Y-73120621D02*
X88287000Y-73120621D01*
X91226000Y-73840621D02*
X89622000Y-73840621D01*
X93574000Y-71400621D02*
X91464000Y-71400621D01*
X93320000Y-72120621D02*
X91464000Y-72120621D01*
X92138000Y-73440621D02*
X88710000Y-73440621D01*
X92940000Y-72720621D02*
X91464000Y-72720621D01*
X93340000Y-72080621D02*
X91464000Y-72080621D01*
X93031000Y-72600621D02*
X91464000Y-72600621D01*
X93060000Y-72560621D02*
X91464000Y-72560621D01*
X89384000Y-70919621D02*
X87202000Y-70919621D01*
X89384000Y-72000621D02*
X87472000Y-72000621D01*
X89384000Y-72640621D02*
X87846000Y-72640621D01*
X89384000Y-71480621D02*
X87293000Y-71480621D01*
X93591000Y-71319621D02*
X91464000Y-71319621D01*
X93442000Y-71840621D02*
X91464000Y-71840621D01*
X93002000Y-72640621D02*
X91464000Y-72640621D01*
X93555000Y-71480621D02*
X91464000Y-71480621D01*
X93457000Y-71800621D02*
X91464000Y-71800621D01*
X92689000Y-73000621D02*
X88159000Y-73000621D01*
X93394000Y-71960621D02*
X91464000Y-71960621D01*
X93606000Y-71239621D02*
X91464000Y-71239621D01*
X92578000Y-67494380D02*
X91948000Y-67494380D01*
X91057000Y-73880621D02*
X89791000Y-73880621D01*
X93088000Y-72520621D02*
X91464000Y-72520621D01*
X89384000Y-71960621D02*
X87454000Y-71960621D01*
X93258000Y-72240621D02*
X91464000Y-72240621D01*
X89384000Y-71279621D02*
X87249000Y-71279621D01*
X93410000Y-71920621D02*
X91464000Y-71920621D01*
X89384000Y-72480621D02*
X87734000Y-72480621D01*
X89384000Y-71440621D02*
X87283000Y-71440621D01*
X93280000Y-72200621D02*
X91464000Y-72200621D01*
X91483000Y-73760621D02*
X89365000Y-73760621D01*
X92729000Y-72960621D02*
X91464000Y-72960621D01*
X92368000Y-73280621D02*
X88480000Y-73280621D01*
X89384000Y-71800621D02*
X87391000Y-71800621D01*
X89384000Y-71720621D02*
X87363000Y-71720621D01*
X89384000Y-72360621D02*
X87658000Y-72360621D01*
X92840000Y-72840621D02*
X91464000Y-72840621D01*
X89384000Y-71680621D02*
X87350000Y-71680621D01*
X93654000Y-70679621D02*
X87194000Y-70679621D01*
X93599000Y-71279621D02*
X91464000Y-71279621D01*
X89384000Y-71640621D02*
X87338000Y-71640621D01*
X93651000Y-70839621D02*
X87197000Y-70839621D01*
X91364000Y-73800621D02*
X89484000Y-73800621D01*
X89384000Y-72920621D02*
X88081000Y-72920621D01*
X93694000Y-70679621D02*
G75*
G03*
X93694000Y-70679621I-3270000J0D01*
G01*
%LPC*%
D14*
X108148120Y-47197140D03*
D15*
X93371500Y-59690000D03*
X95096500Y-59690000D03*
D14*
X80212060Y-75128120D03*
D16*
X100584000Y-51308000D03*
X100584000Y-48768000D03*
X100584000Y-46228000D03*
D17*
X104205000Y-65659000D03*
X104205000Y-66929000D03*
X104205000Y-68199000D03*
X104205000Y-69469000D03*
X109155000Y-69469000D03*
X109155000Y-68199000D03*
X109155000Y-66929000D03*
X109155000Y-65659000D03*
D18*
X87884000Y-78025000D03*
X87884000Y-76200000D03*
D19*
X85852000Y-77987500D03*
X85852000Y-76237500D03*
D20*
X98044000Y-69429621D03*
D21*
X98044000Y-71929621D03*
D22*
X108956500Y-52578000D03*
X110706500Y-52578000D03*
D23*
X107377000Y-59309000D03*
X107377000Y-58039000D03*
X107377000Y-56769000D03*
X107377000Y-55499000D03*
X102427000Y-55499000D03*
X102427000Y-56769000D03*
X102427000Y-58039000D03*
X102427000Y-59309000D03*
D24*
X86453500Y-44958000D03*
X86453500Y-46228000D03*
X86453500Y-47498000D03*
X86453500Y-48768000D03*
X86453500Y-50038000D03*
X86453500Y-51308000D03*
X86453500Y-52578000D03*
X93378500Y-52578000D03*
X93378500Y-51308000D03*
X93378500Y-50038000D03*
X93378500Y-48768000D03*
X93378500Y-47498000D03*
X93378500Y-46228000D03*
X93378500Y-44958000D03*
D25*
X106934000Y-52578000D03*
X105109000Y-52578000D03*
D26*
X79506750Y-52578000D03*
X77756750Y-52578000D03*
D14*
X80212060Y-47197140D03*
X108148120Y-75128120D03*
D23*
X84263000Y-69469000D03*
X84263000Y-68199000D03*
X84263000Y-66929000D03*
X84263000Y-65659000D03*
X79313000Y-65659000D03*
X79313000Y-66929000D03*
X79313000Y-68199000D03*
X79313000Y-69469000D03*
D27*
X81529250Y-52578000D03*
X83354250Y-52578000D03*
D18*
X100602750Y-78232000D03*
X100602750Y-76407000D03*
D17*
X81091000Y-55499000D03*
X81091000Y-56769000D03*
X81091000Y-58039000D03*
X81091000Y-59309000D03*
X86041000Y-59309000D03*
X86041000Y-58039000D03*
X86041000Y-56769000D03*
X86041000Y-55499000D03*
D28*
X93284000Y-77804000D03*
X94234000Y-77804000D03*
X95184000Y-77804000D03*
X95184000Y-75104000D03*
X94234000Y-75104000D03*
X93284000Y-75104000D03*
D19*
X102634750Y-78194500D03*
X102634750Y-76444500D03*
D20*
X90424000Y-69429621D03*
D21*
X90424000Y-71929621D03*
D29*
X98171000Y-64834800D03*
X90297000Y-64834800D03*
X90297000Y-57283400D03*
X98171000Y-57283400D03*
M02*
