G04 #@! TF.GenerationSoftware,KiCad,Pcbnew,(6.0.7)*
G04 #@! TF.CreationDate,2023-03-21T01:22:40-05:00*
G04 #@! TF.ProjectId,RoveSoMoCo,526f7665-536f-44d6-9f43-6f2e6b696361,rev?*
G04 #@! TF.SameCoordinates,Original*
G04 #@! TF.FileFunction,Copper,L1,Top*
G04 #@! TF.FilePolarity,Positive*
%FSLAX46Y46*%
G04 Gerber Fmt 4.6, Leading zero omitted, Abs format (unit mm)*
G04 Created by KiCad (PCBNEW (6.0.7)) date 2023-03-21 01:22:40*
%MOMM*%
%LPD*%
G01*
G04 APERTURE LIST*
G04 Aperture macros list*
%AMRoundRect*
0 Rectangle with rounded corners*
0 $1 Rounding radius*
0 $2 $3 $4 $5 $6 $7 $8 $9 X,Y pos of 4 corners*
0 Add a 4 corners polygon primitive as box body*
4,1,4,$2,$3,$4,$5,$6,$7,$8,$9,$2,$3,0*
0 Add four circle primitives for the rounded corners*
1,1,$1+$1,$2,$3*
1,1,$1+$1,$4,$5*
1,1,$1+$1,$6,$7*
1,1,$1+$1,$8,$9*
0 Add four rect primitives between the rounded corners*
20,1,$1+$1,$2,$3,$4,$5,0*
20,1,$1+$1,$4,$5,$6,$7,0*
20,1,$1+$1,$6,$7,$8,$9,0*
20,1,$1+$1,$8,$9,$2,$3,0*%
G04 Aperture macros list end*
G04 #@! TA.AperFunction,SMDPad,CuDef*
%ADD10RoundRect,0.237500X-0.300000X-0.237500X0.300000X-0.237500X0.300000X0.237500X-0.300000X0.237500X0*%
G04 #@! TD*
G04 #@! TA.AperFunction,ComponentPad*
%ADD11C,1.524000*%
G04 #@! TD*
G04 #@! TA.AperFunction,SMDPad,CuDef*
%ADD12RoundRect,0.150000X-0.825000X-0.150000X0.825000X-0.150000X0.825000X0.150000X-0.825000X0.150000X0*%
G04 #@! TD*
G04 #@! TA.AperFunction,SMDPad,CuDef*
%ADD13RoundRect,0.237500X0.237500X-0.250000X0.237500X0.250000X-0.237500X0.250000X-0.237500X-0.250000X0*%
G04 #@! TD*
G04 #@! TA.AperFunction,SMDPad,CuDef*
%ADD14RoundRect,0.237500X0.237500X-0.287500X0.237500X0.287500X-0.237500X0.287500X-0.237500X-0.287500X0*%
G04 #@! TD*
G04 #@! TA.AperFunction,ComponentPad*
%ADD15R,1.600000X1.600000*%
G04 #@! TD*
G04 #@! TA.AperFunction,ComponentPad*
%ADD16C,1.600000*%
G04 #@! TD*
G04 #@! TA.AperFunction,SMDPad,CuDef*
%ADD17RoundRect,0.237500X-0.287500X-0.237500X0.287500X-0.237500X0.287500X0.237500X-0.287500X0.237500X0*%
G04 #@! TD*
G04 #@! TA.AperFunction,SMDPad,CuDef*
%ADD18RoundRect,0.150000X0.825000X0.150000X-0.825000X0.150000X-0.825000X-0.150000X0.825000X-0.150000X0*%
G04 #@! TD*
G04 #@! TA.AperFunction,SMDPad,CuDef*
%ADD19RoundRect,0.150000X-0.837500X-0.150000X0.837500X-0.150000X0.837500X0.150000X-0.837500X0.150000X0*%
G04 #@! TD*
G04 #@! TA.AperFunction,SMDPad,CuDef*
%ADD20RoundRect,0.237500X0.250000X0.237500X-0.250000X0.237500X-0.250000X-0.237500X0.250000X-0.237500X0*%
G04 #@! TD*
G04 #@! TA.AperFunction,SMDPad,CuDef*
%ADD21RoundRect,0.237500X0.287500X0.237500X-0.287500X0.237500X-0.287500X-0.237500X0.287500X-0.237500X0*%
G04 #@! TD*
G04 #@! TA.AperFunction,SMDPad,CuDef*
%ADD22RoundRect,0.237500X-0.250000X-0.237500X0.250000X-0.237500X0.250000X0.237500X-0.250000X0.237500X0*%
G04 #@! TD*
G04 #@! TA.AperFunction,SMDPad,CuDef*
%ADD23R,0.650000X1.560000*%
G04 #@! TD*
G04 #@! TA.AperFunction,ComponentPad*
%ADD24O,5.100000X3.000000*%
G04 #@! TD*
G04 #@! TA.AperFunction,ViaPad*
%ADD25C,0.800000*%
G04 #@! TD*
G04 #@! TA.AperFunction,Conductor*
%ADD26C,0.254000*%
G04 #@! TD*
G04 #@! TA.AperFunction,Conductor*
%ADD27C,0.200000*%
G04 #@! TD*
G04 #@! TA.AperFunction,Conductor*
%ADD28C,0.250000*%
G04 #@! TD*
G04 APERTURE END LIST*
D10*
X93371500Y-59690000D03*
X95096500Y-59690000D03*
D11*
X100584000Y-51308000D03*
X100584000Y-48768000D03*
X100584000Y-46228000D03*
D12*
X104205000Y-65659000D03*
X104205000Y-66929000D03*
X104205000Y-68199000D03*
X104205000Y-69469000D03*
X109155000Y-69469000D03*
X109155000Y-68199000D03*
X109155000Y-66929000D03*
X109155000Y-65659000D03*
D13*
X87884000Y-78025000D03*
X87884000Y-76200000D03*
D14*
X85852000Y-77987500D03*
X85852000Y-76237500D03*
D15*
X98044000Y-69429621D03*
D16*
X98044000Y-71929621D03*
D17*
X108956500Y-52578000D03*
X110706500Y-52578000D03*
D18*
X107377000Y-59309000D03*
X107377000Y-58039000D03*
X107377000Y-56769000D03*
X107377000Y-55499000D03*
X102427000Y-55499000D03*
X102427000Y-56769000D03*
X102427000Y-58039000D03*
X102427000Y-59309000D03*
D19*
X86453500Y-44958000D03*
X86453500Y-46228000D03*
X86453500Y-47498000D03*
X86453500Y-48768000D03*
X86453500Y-50038000D03*
X86453500Y-51308000D03*
X86453500Y-52578000D03*
X93378500Y-52578000D03*
X93378500Y-51308000D03*
X93378500Y-50038000D03*
X93378500Y-48768000D03*
X93378500Y-47498000D03*
X93378500Y-46228000D03*
X93378500Y-44958000D03*
D20*
X106934000Y-52578000D03*
X105109000Y-52578000D03*
D21*
X79506750Y-52578000D03*
X77756750Y-52578000D03*
D18*
X84263000Y-69469000D03*
X84263000Y-68199000D03*
X84263000Y-66929000D03*
X84263000Y-65659000D03*
X79313000Y-65659000D03*
X79313000Y-66929000D03*
X79313000Y-68199000D03*
X79313000Y-69469000D03*
D22*
X81529250Y-52578000D03*
X83354250Y-52578000D03*
D13*
X100602750Y-78232000D03*
X100602750Y-76407000D03*
D12*
X81091000Y-55499000D03*
X81091000Y-56769000D03*
X81091000Y-58039000D03*
X81091000Y-59309000D03*
X86041000Y-59309000D03*
X86041000Y-58039000D03*
X86041000Y-56769000D03*
X86041000Y-55499000D03*
D23*
X93284000Y-77804000D03*
X94234000Y-77804000D03*
X95184000Y-77804000D03*
X95184000Y-75104000D03*
X94234000Y-75104000D03*
X93284000Y-75104000D03*
D14*
X102634750Y-78194500D03*
X102634750Y-76444500D03*
D15*
X90424000Y-69429621D03*
D16*
X90424000Y-71929621D03*
D24*
X98171000Y-64834800D03*
X90297000Y-64834800D03*
X90297000Y-57283400D03*
X98171000Y-57283400D03*
D25*
X82032496Y-69013923D03*
X85598000Y-61214000D03*
X102616000Y-59944000D03*
X109728000Y-70612000D03*
X77749000Y-69596000D03*
X111252000Y-70358000D03*
X84714714Y-70225286D03*
X103124000Y-75184000D03*
X76962000Y-59944000D03*
X96647000Y-76327000D03*
X111506000Y-62230000D03*
X76962000Y-63754000D03*
X111506000Y-60960000D03*
X111506000Y-57150000D03*
X111506000Y-59690000D03*
X76962000Y-54864000D03*
X76962000Y-56134000D03*
X76962000Y-57404000D03*
X111506000Y-58420000D03*
X76962000Y-62484000D03*
X111506000Y-54610000D03*
X111506000Y-63500000D03*
X76962000Y-58674000D03*
X111506000Y-55880000D03*
X76962000Y-61214000D03*
X91694000Y-76327000D03*
X94234000Y-73406000D03*
X94996000Y-44958000D03*
X84836000Y-44958000D03*
X84836000Y-48768000D03*
X84836000Y-46228000D03*
X94742000Y-50800000D03*
X92202000Y-74422000D03*
X82296000Y-70612000D03*
X79350049Y-53754549D03*
X96139000Y-74549000D03*
X103165299Y-73627299D03*
X111760000Y-53340000D03*
X82496310Y-53390808D03*
X85341500Y-60214497D03*
X77210325Y-53611444D03*
X76962000Y-65024000D03*
X109220000Y-53652500D03*
X84582000Y-52832000D03*
X81305996Y-69748996D03*
X103632000Y-52832000D03*
X106907597Y-69876403D03*
X78232000Y-53848000D03*
X78994000Y-64770000D03*
X108113743Y-53441806D03*
X107906447Y-69912500D03*
X85598000Y-70866000D03*
X84698666Y-51800149D03*
X91948000Y-77851000D03*
X84836000Y-47498000D03*
X103378000Y-71120000D03*
X96520000Y-77724000D03*
X95087500Y-52837714D03*
X84836000Y-50038000D03*
D26*
X79313000Y-66929000D02*
X79947573Y-66929000D01*
D27*
X86041000Y-60771000D02*
X85598000Y-61214000D01*
D26*
X79947573Y-66929000D02*
X82032496Y-69013923D01*
D27*
X86041000Y-59309000D02*
X86041000Y-60771000D01*
X110430000Y-69132604D02*
X109496396Y-68199000D01*
X110430000Y-69910000D02*
X110430000Y-69132604D01*
X102427000Y-59755000D02*
X102616000Y-59944000D01*
X109496396Y-68199000D02*
X109155000Y-68199000D01*
X109728000Y-70612000D02*
X110430000Y-69910000D01*
X102427000Y-59309000D02*
X102427000Y-59755000D01*
D26*
X77876000Y-69469000D02*
X77749000Y-69596000D01*
X79313000Y-69469000D02*
X77876000Y-69469000D01*
X110109000Y-65659000D02*
X111252000Y-66802000D01*
X109155000Y-65659000D02*
X110109000Y-65659000D01*
X111252000Y-66802000D02*
X111252000Y-70358000D01*
X84263000Y-69773572D02*
X84714714Y-70225286D01*
D28*
X102634750Y-76444500D02*
X102634750Y-75673250D01*
X102634750Y-75673250D02*
X103124000Y-75184000D01*
X98044000Y-69429621D02*
X99725074Y-69429621D01*
X104205000Y-65659000D02*
X103495695Y-65659000D01*
D26*
X84263000Y-69469000D02*
X84263000Y-69773572D01*
D28*
X103495695Y-65659000D02*
X99725074Y-69429621D01*
D26*
X94234000Y-77804000D02*
X94234000Y-76770000D01*
X86453500Y-52578000D02*
X85864134Y-52578000D01*
X83354250Y-52632384D02*
X83354250Y-52578000D01*
X94234000Y-76770000D02*
X93791000Y-76327000D01*
X94234000Y-76770000D02*
X94677000Y-76327000D01*
X84883134Y-53559000D02*
X84280866Y-53559000D01*
X93791000Y-76327000D02*
X91694000Y-76327000D01*
X85864134Y-52578000D02*
X84883134Y-53559000D01*
X94677000Y-76327000D02*
X96647000Y-76327000D01*
X84280866Y-53559000D02*
X83354250Y-52632384D01*
X94996000Y-44958000D02*
X93378500Y-44958000D01*
D28*
X88683500Y-73406000D02*
X94234000Y-73406000D01*
X85852000Y-76237500D02*
X88683500Y-73406000D01*
D26*
X94234000Y-75104000D02*
X94234000Y-73406000D01*
X86453500Y-44958000D02*
X84836000Y-44958000D01*
X86453500Y-48768000D02*
X84836000Y-48768000D01*
X94581500Y-50639500D02*
X94742000Y-50800000D01*
X93378500Y-50038000D02*
X93378500Y-50639500D01*
X93378500Y-50639500D02*
X93378500Y-51308000D01*
X84836000Y-46228000D02*
X86453500Y-46228000D01*
X93378500Y-50639500D02*
X94581500Y-50639500D01*
X81529250Y-52578000D02*
X79506750Y-52578000D01*
X93284000Y-75104000D02*
X92884000Y-75104000D01*
D28*
X78173500Y-52578000D02*
X79350049Y-53754549D01*
D26*
X82296000Y-69786420D02*
X82296000Y-70612000D01*
X92884000Y-75104000D02*
X92202000Y-74422000D01*
X83883420Y-68199000D02*
X82296000Y-69786420D01*
D28*
X77756750Y-52578000D02*
X78173500Y-52578000D01*
D26*
X108956500Y-52578000D02*
X106934000Y-52578000D01*
D28*
X106114000Y-68461249D02*
X106114000Y-70678598D01*
X104581751Y-66929000D02*
X106114000Y-68461249D01*
X106114000Y-70678598D02*
X103165299Y-73627299D01*
X110998000Y-52578000D02*
X111760000Y-53340000D01*
D26*
X95184000Y-75104000D02*
X95584000Y-75104000D01*
D28*
X110706500Y-52578000D02*
X110998000Y-52578000D01*
D26*
X95584000Y-75104000D02*
X96139000Y-74549000D01*
D28*
X104205000Y-66929000D02*
X104581751Y-66929000D01*
D26*
X100602750Y-78232000D02*
X102597250Y-78232000D01*
X87884000Y-78025000D02*
X85889500Y-78025000D01*
X81091000Y-60895000D02*
X81091000Y-59309000D01*
X77724000Y-64262000D02*
X76962000Y-65024000D01*
X77724000Y-64262000D02*
X81091000Y-60895000D01*
D28*
X109220000Y-53656000D02*
X107377000Y-55499000D01*
X109220000Y-53652500D02*
X109220000Y-53656000D01*
D26*
X79756000Y-68199000D02*
X81305996Y-69748996D01*
X108775420Y-66929000D02*
X107696000Y-68008420D01*
D28*
X106907597Y-69876403D02*
X107696000Y-69088000D01*
D26*
X109155000Y-66929000D02*
X108775420Y-66929000D01*
X107696000Y-68008420D02*
X107696000Y-69088000D01*
X79313000Y-65089000D02*
X78994000Y-64770000D01*
X79313000Y-65659000D02*
X79313000Y-65089000D01*
D28*
X108349947Y-69469000D02*
X107906447Y-69912500D01*
X109155000Y-69469000D02*
X108349947Y-69469000D01*
D26*
X93237000Y-77851000D02*
X93284000Y-77804000D01*
X91948000Y-77851000D02*
X93237000Y-77851000D01*
X85190815Y-51308000D02*
X86453500Y-51308000D01*
X85190815Y-51308000D02*
X84698666Y-51800149D01*
X84263000Y-66929000D02*
X84642580Y-66929000D01*
X84642580Y-66929000D02*
X85598000Y-67884420D01*
X85598000Y-67884420D02*
X85598000Y-70866000D01*
D28*
X95184000Y-77804000D02*
X96440000Y-77804000D01*
X105664000Y-70104000D02*
X105156000Y-70612000D01*
X105664000Y-69281249D02*
X105664000Y-70104000D01*
X104581751Y-68199000D02*
X105664000Y-69281249D01*
D26*
X86453500Y-47498000D02*
X84836000Y-47498000D01*
D28*
X104205000Y-68199000D02*
X104581751Y-68199000D01*
X103886000Y-70612000D02*
X103378000Y-71120000D01*
X96440000Y-77804000D02*
X96520000Y-77724000D01*
X105156000Y-70612000D02*
X103886000Y-70612000D01*
D26*
X94827786Y-52578000D02*
X95087500Y-52837714D01*
X86453500Y-50038000D02*
X84836000Y-50038000D01*
X93378500Y-52578000D02*
X94827786Y-52578000D01*
G04 #@! TA.AperFunction,Conductor*
G36*
X106583031Y-43327502D02*
G01*
X106629524Y-43381158D01*
X106639628Y-43451432D01*
X106610134Y-43516012D01*
X106569452Y-43547083D01*
X106249674Y-43700638D01*
X105911789Y-43906479D01*
X105596019Y-44144861D01*
X105593737Y-44146971D01*
X105593728Y-44146978D01*
X105458183Y-44272275D01*
X105305486Y-44413427D01*
X105303414Y-44415765D01*
X105303409Y-44415770D01*
X105045148Y-44707169D01*
X105045143Y-44707175D01*
X105043064Y-44709521D01*
X104811347Y-45030214D01*
X104612627Y-45372336D01*
X104611337Y-45375173D01*
X104611335Y-45375177D01*
X104451144Y-45727500D01*
X104448869Y-45732503D01*
X104447867Y-45735456D01*
X104447865Y-45735460D01*
X104426052Y-45799718D01*
X104321692Y-46107153D01*
X104232354Y-46492583D01*
X104181739Y-46884979D01*
X104170347Y-47280462D01*
X104198290Y-47675122D01*
X104265293Y-48065055D01*
X104266125Y-48068064D01*
X104266126Y-48068070D01*
X104291512Y-48159921D01*
X104370692Y-48446405D01*
X104371822Y-48449325D01*
X104371823Y-48449329D01*
X104498306Y-48776266D01*
X104513446Y-48815401D01*
X104514861Y-48818195D01*
X104514864Y-48818203D01*
X104618005Y-49021944D01*
X104692143Y-49168395D01*
X104905015Y-49501895D01*
X105149958Y-49812603D01*
X105152133Y-49814859D01*
X105152138Y-49814865D01*
X105208768Y-49873609D01*
X105424549Y-50097448D01*
X105426942Y-50099481D01*
X105723679Y-50351578D01*
X105723687Y-50351585D01*
X105726074Y-50353612D01*
X105728654Y-50355395D01*
X106048977Y-50576785D01*
X106048986Y-50576790D01*
X106051549Y-50578562D01*
X106054284Y-50580075D01*
X106054289Y-50580078D01*
X106121294Y-50617143D01*
X106397758Y-50770074D01*
X106400627Y-50771307D01*
X106400638Y-50771312D01*
X106758407Y-50925021D01*
X106761275Y-50926253D01*
X106764252Y-50927194D01*
X106764256Y-50927196D01*
X106893031Y-50967922D01*
X107138507Y-51045556D01*
X107525723Y-51126802D01*
X107528841Y-51127138D01*
X107916642Y-51168925D01*
X107916645Y-51168925D01*
X107919093Y-51169189D01*
X107921556Y-51169260D01*
X107921557Y-51169260D01*
X107925206Y-51169365D01*
X107976411Y-51170840D01*
X108247472Y-51170840D01*
X108249035Y-51170762D01*
X108249043Y-51170762D01*
X108345411Y-51165964D01*
X108543278Y-51156114D01*
X108546363Y-51155650D01*
X108546365Y-51155650D01*
X108931436Y-51097757D01*
X108934529Y-51097292D01*
X109135704Y-51046200D01*
X109314959Y-51000675D01*
X109314962Y-51000674D01*
X109318002Y-50999902D01*
X109421721Y-50962254D01*
X109686969Y-50865974D01*
X109686979Y-50865970D01*
X109689907Y-50864907D01*
X110046566Y-50693642D01*
X110384451Y-50487801D01*
X110700221Y-50249419D01*
X110702503Y-50247309D01*
X110702512Y-50247302D01*
X110988457Y-49982976D01*
X110990754Y-49980853D01*
X111079041Y-49881238D01*
X111251092Y-49687111D01*
X111251097Y-49687105D01*
X111253176Y-49684759D01*
X111484893Y-49364066D01*
X111683613Y-49021944D01*
X111724331Y-48932391D01*
X111846079Y-48664619D01*
X111846080Y-48664616D01*
X111847371Y-48661777D01*
X111848377Y-48658814D01*
X111895187Y-48520917D01*
X111936024Y-48462840D01*
X112001777Y-48436062D01*
X112071569Y-48449083D01*
X112123242Y-48497770D01*
X112140500Y-48561418D01*
X112140500Y-52659059D01*
X112120498Y-52727180D01*
X112066842Y-52773673D01*
X111996568Y-52783777D01*
X111966282Y-52775468D01*
X111924391Y-52758116D01*
X111916762Y-52754956D01*
X111760000Y-52734318D01*
X111693157Y-52743118D01*
X111623010Y-52732179D01*
X111587617Y-52707291D01*
X111468904Y-52588578D01*
X111434878Y-52526266D01*
X111431999Y-52499483D01*
X111431999Y-52288168D01*
X111431428Y-52282118D01*
X111429824Y-52265150D01*
X111429824Y-52265149D01*
X111429101Y-52257500D01*
X111426000Y-52248670D01*
X111388583Y-52142121D01*
X111388582Y-52142119D01*
X111385461Y-52133232D01*
X111367967Y-52109546D01*
X111312803Y-52034860D01*
X111307211Y-52027289D01*
X111211926Y-51956911D01*
X111208845Y-51954635D01*
X111208843Y-51954634D01*
X111201268Y-51949039D01*
X111192381Y-51945918D01*
X111192379Y-51945917D01*
X111084248Y-51907944D01*
X111084246Y-51907943D01*
X111077000Y-51905399D01*
X111069356Y-51904676D01*
X111069354Y-51904676D01*
X111061379Y-51903922D01*
X111046333Y-51902500D01*
X110706672Y-51902500D01*
X110366668Y-51902501D01*
X110363718Y-51902780D01*
X110363713Y-51902780D01*
X110343650Y-51904676D01*
X110343649Y-51904676D01*
X110336000Y-51905399D01*
X110328752Y-51907944D01*
X110328749Y-51907945D01*
X110220621Y-51945917D01*
X110220619Y-51945918D01*
X110211732Y-51949039D01*
X110204157Y-51954634D01*
X110204155Y-51954635D01*
X110201074Y-51956911D01*
X110105789Y-52027289D01*
X110100197Y-52034860D01*
X110045034Y-52109546D01*
X110027539Y-52133232D01*
X110024418Y-52142119D01*
X110024417Y-52142121D01*
X109987000Y-52248670D01*
X109983899Y-52257500D01*
X109983176Y-52265144D01*
X109983176Y-52265146D01*
X109982422Y-52273121D01*
X109981000Y-52288167D01*
X109981001Y-52867832D01*
X109981280Y-52870781D01*
X109981280Y-52870787D01*
X109983176Y-52890850D01*
X109983899Y-52898500D01*
X109986444Y-52905748D01*
X109986445Y-52905751D01*
X110024293Y-53013524D01*
X110027539Y-53022768D01*
X110033134Y-53030343D01*
X110033135Y-53030345D01*
X110072579Y-53083748D01*
X110105789Y-53128711D01*
X110113360Y-53134303D01*
X110204155Y-53201365D01*
X110204157Y-53201366D01*
X110211732Y-53206961D01*
X110220619Y-53210082D01*
X110220621Y-53210083D01*
X110328752Y-53248056D01*
X110328754Y-53248057D01*
X110336000Y-53250601D01*
X110343644Y-53251324D01*
X110343646Y-53251324D01*
X110351032Y-53252022D01*
X110366667Y-53253500D01*
X110486084Y-53253500D01*
X111032431Y-53253499D01*
X111100552Y-53273501D01*
X111147045Y-53327157D01*
X111157353Y-53363053D01*
X111174956Y-53496762D01*
X111235464Y-53642841D01*
X111303941Y-53732082D01*
X111323680Y-53757806D01*
X111331718Y-53768282D01*
X111457159Y-53864536D01*
X111603238Y-53925044D01*
X111760000Y-53945682D01*
X111768188Y-53944604D01*
X111908574Y-53926122D01*
X111916762Y-53925044D01*
X111966282Y-53904532D01*
X112036871Y-53896943D01*
X112100358Y-53928722D01*
X112136586Y-53989780D01*
X112140500Y-54020941D01*
X112140500Y-73759570D01*
X112120498Y-73827691D01*
X112066842Y-73874184D01*
X111996568Y-73884288D01*
X111931988Y-73854794D01*
X111896988Y-73805032D01*
X111783929Y-73512792D01*
X111783927Y-73512787D01*
X111782794Y-73509859D01*
X111777223Y-73498853D01*
X111605516Y-73159668D01*
X111604097Y-73156865D01*
X111589478Y-73133961D01*
X111392912Y-72826008D01*
X111391225Y-72823365D01*
X111146282Y-72512657D01*
X111144107Y-72510401D01*
X111144102Y-72510395D01*
X110982042Y-72342284D01*
X110871691Y-72227812D01*
X110869119Y-72225627D01*
X110572561Y-71973682D01*
X110572553Y-71973675D01*
X110570166Y-71971648D01*
X110376011Y-71837459D01*
X110247263Y-71748475D01*
X110247254Y-71748470D01*
X110244691Y-71746698D01*
X110241956Y-71745185D01*
X110241951Y-71745182D01*
X110034200Y-71630261D01*
X109898482Y-71555186D01*
X109895613Y-71553953D01*
X109895602Y-71553948D01*
X109673141Y-71458372D01*
X109618448Y-71413104D01*
X109596911Y-71345453D01*
X109615368Y-71276897D01*
X109667959Y-71229203D01*
X109721761Y-71216861D01*
X109728000Y-71217682D01*
X109736188Y-71216604D01*
X109876574Y-71198122D01*
X109884762Y-71197044D01*
X110030841Y-71136536D01*
X110156282Y-71040282D01*
X110252536Y-70914841D01*
X110313044Y-70768762D01*
X110315538Y-70749822D01*
X110332604Y-70620188D01*
X110333682Y-70612000D01*
X110320769Y-70513916D01*
X110331708Y-70443768D01*
X110356596Y-70408375D01*
X110437806Y-70327165D01*
X110500118Y-70293139D01*
X110570933Y-70298204D01*
X110627769Y-70340751D01*
X110651823Y-70399814D01*
X110666956Y-70514762D01*
X110727464Y-70660841D01*
X110823718Y-70786282D01*
X110830264Y-70791305D01*
X110847115Y-70804235D01*
X110949159Y-70882536D01*
X111095238Y-70943044D01*
X111252000Y-70963682D01*
X111260188Y-70962604D01*
X111400574Y-70944122D01*
X111408762Y-70943044D01*
X111554841Y-70882536D01*
X111656885Y-70804235D01*
X111673736Y-70791305D01*
X111680282Y-70786282D01*
X111776536Y-70660841D01*
X111837044Y-70514762D01*
X111857682Y-70358000D01*
X111837044Y-70201238D01*
X111832501Y-70190269D01*
X111819146Y-70158029D01*
X111776536Y-70055159D01*
X111692261Y-69945329D01*
X111685309Y-69936269D01*
X111685308Y-69936268D01*
X111680282Y-69929718D01*
X111673732Y-69924692D01*
X111673729Y-69924689D01*
X111628796Y-69890211D01*
X111586929Y-69832873D01*
X111579500Y-69790249D01*
X111579500Y-66821794D01*
X111579980Y-66810811D01*
X111582326Y-66783999D01*
X111583287Y-66773016D01*
X111573464Y-66736356D01*
X111571087Y-66725633D01*
X111566411Y-66699117D01*
X111564497Y-66688261D01*
X111558986Y-66678715D01*
X111557760Y-66675347D01*
X111556246Y-66672101D01*
X111553394Y-66661457D01*
X111531628Y-66630371D01*
X111525723Y-66621102D01*
X111512263Y-66597788D01*
X111512261Y-66597786D01*
X111506750Y-66588240D01*
X111477677Y-66563845D01*
X111469573Y-66556418D01*
X110354587Y-65441433D01*
X110347160Y-65433329D01*
X110323683Y-65405350D01*
X110307102Y-65379889D01*
X110273522Y-65311493D01*
X110273521Y-65311491D01*
X110268932Y-65302145D01*
X110186350Y-65219707D01*
X110081518Y-65168464D01*
X110051027Y-65164016D01*
X110017744Y-65159160D01*
X110017740Y-65159160D01*
X110013218Y-65158500D01*
X108296782Y-65158500D01*
X108292232Y-65159170D01*
X108292229Y-65159170D01*
X108237574Y-65167216D01*
X108237573Y-65167216D01*
X108227888Y-65168642D01*
X108187664Y-65188391D01*
X108132493Y-65215478D01*
X108132491Y-65215479D01*
X108123145Y-65220068D01*
X108040707Y-65302650D01*
X107989464Y-65407482D01*
X107985578Y-65434117D01*
X107982196Y-65457305D01*
X107979500Y-65475782D01*
X107979500Y-65842218D01*
X107980170Y-65846768D01*
X107980170Y-65846771D01*
X107988216Y-65901426D01*
X107989642Y-65911112D01*
X108041068Y-66015855D01*
X108123650Y-66098293D01*
X108228482Y-66149536D01*
X108258973Y-66153984D01*
X108292256Y-66158840D01*
X108292260Y-66158840D01*
X108296782Y-66159500D01*
X110013218Y-66159500D01*
X110017767Y-66158830D01*
X110017785Y-66158829D01*
X110066602Y-66151642D01*
X110136909Y-66161509D01*
X110174048Y-66187203D01*
X110221702Y-66234857D01*
X110255728Y-66297169D01*
X110250663Y-66367984D01*
X110208116Y-66424820D01*
X110141596Y-66449631D01*
X110095402Y-66444334D01*
X110090302Y-66442758D01*
X110081518Y-66438464D01*
X110071843Y-66437052D01*
X110071841Y-66437052D01*
X110017744Y-66429160D01*
X110017740Y-66429160D01*
X110013218Y-66428500D01*
X108296782Y-66428500D01*
X108292232Y-66429170D01*
X108292229Y-66429170D01*
X108237574Y-66437216D01*
X108237573Y-66437216D01*
X108227888Y-66438642D01*
X108177992Y-66463140D01*
X108132493Y-66485478D01*
X108132491Y-66485479D01*
X108123145Y-66490068D01*
X108040707Y-66572650D01*
X108036134Y-66582006D01*
X108036133Y-66582007D01*
X108028419Y-66597788D01*
X107989464Y-66677482D01*
X107979500Y-66745782D01*
X107979500Y-67112218D01*
X107980170Y-67116769D01*
X107980171Y-67116783D01*
X107989465Y-67179913D01*
X107979598Y-67250221D01*
X107953905Y-67287360D01*
X107478427Y-67762839D01*
X107470323Y-67770265D01*
X107441250Y-67794660D01*
X107435737Y-67804209D01*
X107422275Y-67827526D01*
X107416377Y-67836785D01*
X107394606Y-67867877D01*
X107391754Y-67878521D01*
X107390240Y-67881767D01*
X107389014Y-67885135D01*
X107383503Y-67894681D01*
X107381589Y-67905537D01*
X107376913Y-67932053D01*
X107374536Y-67942776D01*
X107364713Y-67979436D01*
X107365674Y-67990419D01*
X107368020Y-68017231D01*
X107368500Y-68028214D01*
X107368500Y-68902983D01*
X107348498Y-68971104D01*
X107331595Y-68992078D01*
X107079979Y-69243694D01*
X107017667Y-69277720D01*
X106974439Y-69279521D01*
X106907597Y-69270721D01*
X106899409Y-69271799D01*
X106786923Y-69286608D01*
X106750835Y-69291359D01*
X106702998Y-69311174D01*
X106613718Y-69348155D01*
X106543129Y-69355744D01*
X106479641Y-69323965D01*
X106443414Y-69262907D01*
X106439500Y-69231746D01*
X106439500Y-68480959D01*
X106439980Y-68469977D01*
X106442303Y-68443424D01*
X106442303Y-68443419D01*
X106443263Y-68432442D01*
X106433508Y-68396032D01*
X106431133Y-68385321D01*
X106430351Y-68380885D01*
X106424588Y-68348204D01*
X106419078Y-68338660D01*
X106417886Y-68335384D01*
X106416407Y-68332213D01*
X106413554Y-68321565D01*
X106391940Y-68290697D01*
X106386036Y-68281428D01*
X106372707Y-68258341D01*
X106372704Y-68258337D01*
X106367194Y-68248794D01*
X106338324Y-68224569D01*
X106330221Y-68217143D01*
X105404884Y-67291806D01*
X105370858Y-67229494D01*
X105372937Y-67180868D01*
X105370536Y-67180518D01*
X105379840Y-67116744D01*
X105379840Y-67116740D01*
X105380500Y-67112218D01*
X105380500Y-66745782D01*
X105373631Y-66699117D01*
X105371784Y-66686574D01*
X105371784Y-66686573D01*
X105370358Y-66676888D01*
X105329057Y-66592767D01*
X105323522Y-66581493D01*
X105323521Y-66581491D01*
X105318932Y-66572145D01*
X105236350Y-66489707D01*
X105131518Y-66438464D01*
X105101027Y-66434016D01*
X105067744Y-66429160D01*
X105067740Y-66429160D01*
X105063218Y-66428500D01*
X103490712Y-66428500D01*
X103422591Y-66408498D01*
X103376098Y-66354842D01*
X103365994Y-66284568D01*
X103395488Y-66219988D01*
X103401617Y-66213405D01*
X103418617Y-66196405D01*
X103480929Y-66162379D01*
X103507712Y-66159500D01*
X105063218Y-66159500D01*
X105067768Y-66158830D01*
X105067771Y-66158830D01*
X105122426Y-66150784D01*
X105122427Y-66150784D01*
X105132112Y-66149358D01*
X105226804Y-66102867D01*
X105227507Y-66102522D01*
X105227509Y-66102521D01*
X105236855Y-66097932D01*
X105319293Y-66015350D01*
X105370536Y-65910518D01*
X105380500Y-65842218D01*
X105380500Y-65475782D01*
X105375444Y-65441433D01*
X105371784Y-65416574D01*
X105371784Y-65416573D01*
X105370358Y-65406888D01*
X105345860Y-65356992D01*
X105323522Y-65311493D01*
X105323521Y-65311491D01*
X105318932Y-65302145D01*
X105236350Y-65219707D01*
X105131518Y-65168464D01*
X105101027Y-65164016D01*
X105067744Y-65159160D01*
X105067740Y-65159160D01*
X105063218Y-65158500D01*
X103346782Y-65158500D01*
X103342232Y-65159170D01*
X103342229Y-65159170D01*
X103287574Y-65167216D01*
X103287573Y-65167216D01*
X103277888Y-65168642D01*
X103237664Y-65188391D01*
X103182493Y-65215478D01*
X103182491Y-65215479D01*
X103173145Y-65220068D01*
X103090707Y-65302650D01*
X103039464Y-65407482D01*
X103035578Y-65434117D01*
X103032196Y-65457305D01*
X103029500Y-65475782D01*
X103029500Y-65612678D01*
X103009498Y-65680799D01*
X102992595Y-65701773D01*
X99627153Y-69067216D01*
X99564841Y-69101242D01*
X99538058Y-69104121D01*
X99170500Y-69104121D01*
X99102379Y-69084119D01*
X99055886Y-69030463D01*
X99044500Y-68978121D01*
X99044500Y-68609873D01*
X99032867Y-68551390D01*
X98988552Y-68485069D01*
X98922231Y-68440754D01*
X98910062Y-68438333D01*
X98910061Y-68438333D01*
X98869816Y-68430328D01*
X98863748Y-68429121D01*
X97224252Y-68429121D01*
X97218184Y-68430328D01*
X97177939Y-68438333D01*
X97177938Y-68438333D01*
X97165769Y-68440754D01*
X97099448Y-68485069D01*
X97055133Y-68551390D01*
X97043500Y-68609873D01*
X97043500Y-70249369D01*
X97055133Y-70307852D01*
X97062026Y-70318168D01*
X97073352Y-70335118D01*
X97099448Y-70374173D01*
X97165769Y-70418488D01*
X97177938Y-70420909D01*
X97177939Y-70420909D01*
X97218184Y-70428914D01*
X97224252Y-70430121D01*
X98863748Y-70430121D01*
X98869816Y-70428914D01*
X98910061Y-70420909D01*
X98910062Y-70420909D01*
X98922231Y-70418488D01*
X98988552Y-70374173D01*
X99014648Y-70335118D01*
X99025974Y-70318168D01*
X99032867Y-70307852D01*
X99044500Y-70249369D01*
X99044500Y-69881121D01*
X99064502Y-69813000D01*
X99118158Y-69766507D01*
X99170500Y-69755121D01*
X99705364Y-69755121D01*
X99716346Y-69755601D01*
X99742894Y-69757924D01*
X99742896Y-69757924D01*
X99753881Y-69758885D01*
X99790289Y-69749129D01*
X99801016Y-69746751D01*
X99804375Y-69746159D01*
X99838119Y-69740209D01*
X99847664Y-69734698D01*
X99850940Y-69733506D01*
X99854108Y-69732029D01*
X99864758Y-69729175D01*
X99895618Y-69707566D01*
X99904889Y-69701660D01*
X99927980Y-69688328D01*
X99937529Y-69682815D01*
X99961759Y-69653938D01*
X99969185Y-69645836D01*
X102814405Y-66800617D01*
X102876717Y-66766591D01*
X102947533Y-66771656D01*
X103004368Y-66814203D01*
X103029179Y-66880723D01*
X103029500Y-66889712D01*
X103029500Y-67112218D01*
X103030170Y-67116768D01*
X103030170Y-67116771D01*
X103038216Y-67171426D01*
X103039642Y-67181112D01*
X103091068Y-67285855D01*
X103173650Y-67368293D01*
X103278482Y-67419536D01*
X103308973Y-67423984D01*
X103342256Y-67428840D01*
X103342260Y-67428840D01*
X103346782Y-67429500D01*
X104569735Y-67429500D01*
X104637856Y-67449502D01*
X104658830Y-67466405D01*
X104675830Y-67483405D01*
X104709856Y-67545717D01*
X104704791Y-67616532D01*
X104662244Y-67673368D01*
X104595724Y-67698179D01*
X104586735Y-67698500D01*
X103346782Y-67698500D01*
X103342232Y-67699170D01*
X103342229Y-67699170D01*
X103287574Y-67707216D01*
X103287573Y-67707216D01*
X103277888Y-67708642D01*
X103230798Y-67731762D01*
X103182493Y-67755478D01*
X103182491Y-67755479D01*
X103173145Y-67760068D01*
X103090707Y-67842650D01*
X103039464Y-67947482D01*
X103029500Y-68015782D01*
X103029500Y-68382218D01*
X103030170Y-68386768D01*
X103030170Y-68386771D01*
X103038216Y-68441426D01*
X103039642Y-68451112D01*
X103091068Y-68555855D01*
X103173650Y-68638293D01*
X103278482Y-68689536D01*
X103308973Y-68693984D01*
X103342256Y-68698840D01*
X103342260Y-68698840D01*
X103346782Y-68699500D01*
X104569734Y-68699500D01*
X104637855Y-68719502D01*
X104658830Y-68736405D01*
X105301596Y-69379172D01*
X105335621Y-69441484D01*
X105338500Y-69468267D01*
X105338500Y-69916982D01*
X105318498Y-69985103D01*
X105301596Y-70006077D01*
X105058079Y-70249595D01*
X104995766Y-70283620D01*
X104968983Y-70286500D01*
X103905698Y-70286500D01*
X103894716Y-70286020D01*
X103868180Y-70283698D01*
X103868178Y-70283698D01*
X103857193Y-70282737D01*
X103846543Y-70285591D01*
X103846541Y-70285591D01*
X103820804Y-70292488D01*
X103810069Y-70294868D01*
X103805453Y-70295682D01*
X103772955Y-70301412D01*
X103763407Y-70306924D01*
X103760130Y-70308117D01*
X103756962Y-70309594D01*
X103746316Y-70312447D01*
X103737287Y-70318769D01*
X103715453Y-70334057D01*
X103706185Y-70339961D01*
X103673545Y-70358806D01*
X103666462Y-70367247D01*
X103666461Y-70367248D01*
X103649320Y-70387676D01*
X103641894Y-70395779D01*
X103550382Y-70487291D01*
X103488070Y-70521317D01*
X103444842Y-70523118D01*
X103378000Y-70514318D01*
X103221238Y-70534956D01*
X103075159Y-70595464D01*
X102949718Y-70691718D01*
X102853464Y-70817159D01*
X102792956Y-70963238D01*
X102772318Y-71120000D01*
X102792956Y-71276762D01*
X102853464Y-71422841D01*
X102949718Y-71548282D01*
X103075159Y-71644536D01*
X103221238Y-71705044D01*
X103378000Y-71725682D01*
X103386188Y-71724604D01*
X103526574Y-71706122D01*
X103534762Y-71705044D01*
X103680841Y-71644536D01*
X103806282Y-71548282D01*
X103902536Y-71422841D01*
X103963044Y-71276762D01*
X103983682Y-71120000D01*
X103982604Y-71111811D01*
X103978409Y-71079946D01*
X103989349Y-71009797D01*
X104036477Y-70956699D01*
X104103331Y-70937500D01*
X105090582Y-70937500D01*
X105158703Y-70957502D01*
X105205196Y-71011158D01*
X105215300Y-71081432D01*
X105185806Y-71146012D01*
X105179677Y-71152595D01*
X103337682Y-72994590D01*
X103275370Y-73028616D01*
X103232142Y-73030417D01*
X103165299Y-73021617D01*
X103008537Y-73042255D01*
X102862458Y-73102763D01*
X102737017Y-73199017D01*
X102640763Y-73324458D01*
X102580255Y-73470537D01*
X102559617Y-73627299D01*
X102580255Y-73784061D01*
X102640763Y-73930140D01*
X102737017Y-74055581D01*
X102862458Y-74151835D01*
X103008537Y-74212343D01*
X103165299Y-74232981D01*
X103173487Y-74231903D01*
X103313873Y-74213421D01*
X103322061Y-74212343D01*
X103468140Y-74151835D01*
X103593581Y-74055581D01*
X103689835Y-73930140D01*
X103750343Y-73784061D01*
X103770981Y-73627299D01*
X103762181Y-73560456D01*
X103773120Y-73490309D01*
X103798008Y-73454916D01*
X106330215Y-70922709D01*
X106338319Y-70915282D01*
X106358749Y-70898139D01*
X106367194Y-70891053D01*
X106372707Y-70881504D01*
X106386039Y-70858413D01*
X106391945Y-70849142D01*
X106413554Y-70818282D01*
X106416408Y-70807632D01*
X106417885Y-70804464D01*
X106419077Y-70801188D01*
X106424588Y-70791643D01*
X106431130Y-70754540D01*
X106433509Y-70743808D01*
X106440410Y-70718054D01*
X106443264Y-70707405D01*
X106439980Y-70669870D01*
X106439500Y-70658888D01*
X106439500Y-70521060D01*
X106459502Y-70452939D01*
X106513158Y-70406446D01*
X106583432Y-70396342D01*
X106613717Y-70404651D01*
X106681407Y-70432689D01*
X106730194Y-70452897D01*
X106750835Y-70461447D01*
X106907597Y-70482085D01*
X106915785Y-70481007D01*
X107056171Y-70462525D01*
X107064359Y-70461447D01*
X107210438Y-70400939D01*
X107216991Y-70395911D01*
X107216994Y-70395909D01*
X107309161Y-70325187D01*
X107375381Y-70299586D01*
X107444930Y-70313851D01*
X107473983Y-70335331D01*
X107478165Y-70340782D01*
X107603606Y-70437036D01*
X107749685Y-70497544D01*
X107906447Y-70518182D01*
X107914635Y-70517104D01*
X107932425Y-70514762D01*
X108063209Y-70497544D01*
X108209288Y-70437036D01*
X108334729Y-70340782D01*
X108430983Y-70215341D01*
X108479501Y-70098209D01*
X108488332Y-70076889D01*
X108488332Y-70076888D01*
X108491491Y-70069262D01*
X108492398Y-70062374D01*
X108529032Y-70002268D01*
X108592892Y-69971245D01*
X108613789Y-69969500D01*
X109211269Y-69969500D01*
X109279390Y-69989502D01*
X109325883Y-70043158D01*
X109335987Y-70113432D01*
X109306493Y-70178012D01*
X109304839Y-70179789D01*
X109299718Y-70183718D01*
X109203464Y-70309159D01*
X109164139Y-70404099D01*
X109147500Y-70444269D01*
X109142956Y-70455238D01*
X109122318Y-70612000D01*
X109123396Y-70620188D01*
X109140463Y-70749822D01*
X109142956Y-70768762D01*
X109203464Y-70914841D01*
X109299718Y-71040282D01*
X109306264Y-71045305D01*
X109306267Y-71045308D01*
X109361690Y-71087835D01*
X109403558Y-71145173D01*
X109407780Y-71216044D01*
X109373016Y-71277947D01*
X109310304Y-71311228D01*
X109246993Y-71307933D01*
X109203828Y-71294282D01*
X109157733Y-71279704D01*
X108770517Y-71198458D01*
X108767399Y-71198122D01*
X108379598Y-71156335D01*
X108379595Y-71156335D01*
X108377147Y-71156071D01*
X108374684Y-71156000D01*
X108374683Y-71156000D01*
X108371034Y-71155895D01*
X108319829Y-71154420D01*
X108048768Y-71154420D01*
X108047205Y-71154498D01*
X108047197Y-71154498D01*
X107950829Y-71159296D01*
X107752962Y-71169146D01*
X107749877Y-71169610D01*
X107749875Y-71169610D01*
X107567400Y-71197044D01*
X107361711Y-71227968D01*
X107358676Y-71228739D01*
X107358675Y-71228739D01*
X106981281Y-71324585D01*
X106981278Y-71324586D01*
X106978238Y-71325358D01*
X106975291Y-71326428D01*
X106975290Y-71326428D01*
X106609271Y-71459286D01*
X106609261Y-71459290D01*
X106606333Y-71460353D01*
X106249674Y-71631618D01*
X105911789Y-71837459D01*
X105596019Y-72075841D01*
X105593737Y-72077951D01*
X105593728Y-72077958D01*
X105433817Y-72225779D01*
X105305486Y-72344407D01*
X105303414Y-72346745D01*
X105303409Y-72346750D01*
X105045148Y-72638149D01*
X105045143Y-72638155D01*
X105043064Y-72640501D01*
X104811347Y-72961194D01*
X104612627Y-73303316D01*
X104611337Y-73306153D01*
X104611335Y-73306157D01*
X104517384Y-73512792D01*
X104448869Y-73663483D01*
X104321692Y-74038133D01*
X104232354Y-74423563D01*
X104181739Y-74815959D01*
X104170347Y-75211442D01*
X104170568Y-75214561D01*
X104170568Y-75214568D01*
X104186036Y-75433036D01*
X104198290Y-75606102D01*
X104265293Y-75996035D01*
X104266125Y-75999044D01*
X104266126Y-75999050D01*
X104289410Y-76083293D01*
X104370692Y-76377385D01*
X104371822Y-76380305D01*
X104371823Y-76380309D01*
X104462716Y-76615251D01*
X104513446Y-76746381D01*
X104514861Y-76749175D01*
X104514864Y-76749183D01*
X104640917Y-76998184D01*
X104692143Y-77099375D01*
X104693834Y-77102024D01*
X104693835Y-77102026D01*
X104800488Y-77269116D01*
X104905015Y-77432875D01*
X105149958Y-77743583D01*
X105152133Y-77745839D01*
X105152138Y-77745845D01*
X105220490Y-77816749D01*
X105424549Y-78028428D01*
X105426942Y-78030461D01*
X105723679Y-78282558D01*
X105723687Y-78282565D01*
X105726074Y-78284592D01*
X105756881Y-78305884D01*
X106048977Y-78507765D01*
X106048986Y-78507770D01*
X106051549Y-78509542D01*
X106054284Y-78511055D01*
X106054289Y-78511058D01*
X106189957Y-78586105D01*
X106397758Y-78701054D01*
X106400627Y-78702287D01*
X106400638Y-78702292D01*
X106758407Y-78856001D01*
X106761275Y-78857233D01*
X106764252Y-78858174D01*
X106764256Y-78858176D01*
X106794893Y-78867865D01*
X106812588Y-78873461D01*
X106815446Y-78874365D01*
X106874364Y-78913977D01*
X106902514Y-78979154D01*
X106890957Y-79049204D01*
X106843364Y-79101886D01*
X106777452Y-79120500D01*
X103115125Y-79120500D01*
X103047004Y-79100498D01*
X103000511Y-79046842D01*
X102990407Y-78976568D01*
X103019901Y-78911988D01*
X103063150Y-78882573D01*
X103062310Y-78880987D01*
X103070629Y-78876583D01*
X103079518Y-78873461D01*
X103087093Y-78867866D01*
X103087095Y-78867865D01*
X103177890Y-78800803D01*
X103185461Y-78795211D01*
X103242313Y-78718239D01*
X103258115Y-78696845D01*
X103258116Y-78696843D01*
X103263711Y-78689268D01*
X103271721Y-78666461D01*
X103304806Y-78572248D01*
X103304807Y-78572246D01*
X103307351Y-78565000D01*
X103310250Y-78534333D01*
X103310249Y-77854668D01*
X103309903Y-77851000D01*
X103308074Y-77831650D01*
X103308074Y-77831649D01*
X103307351Y-77824000D01*
X103293171Y-77783621D01*
X103266833Y-77708621D01*
X103266832Y-77708619D01*
X103263711Y-77699732D01*
X103258001Y-77692000D01*
X103191053Y-77601360D01*
X103185461Y-77593789D01*
X103160599Y-77575426D01*
X103087095Y-77521135D01*
X103087093Y-77521134D01*
X103079518Y-77515539D01*
X103070631Y-77512418D01*
X103070629Y-77512417D01*
X102962498Y-77474444D01*
X102962496Y-77474443D01*
X102955250Y-77471899D01*
X102947606Y-77471176D01*
X102947604Y-77471176D01*
X102939629Y-77470422D01*
X102924583Y-77469000D01*
X102634897Y-77469000D01*
X102344918Y-77469001D01*
X102341968Y-77469280D01*
X102341963Y-77469280D01*
X102321900Y-77471176D01*
X102321899Y-77471176D01*
X102314250Y-77471899D01*
X102307002Y-77474444D01*
X102306999Y-77474445D01*
X102198871Y-77512417D01*
X102198869Y-77512418D01*
X102189982Y-77515539D01*
X102182407Y-77521134D01*
X102182405Y-77521135D01*
X102108901Y-77575426D01*
X102084039Y-77593789D01*
X102078447Y-77601360D01*
X102011500Y-77692000D01*
X102005789Y-77699732D01*
X102002667Y-77708622D01*
X101963466Y-77820249D01*
X101922023Y-77877894D01*
X101855993Y-77903982D01*
X101844584Y-77904500D01*
X101366578Y-77904500D01*
X101298457Y-77884498D01*
X101251964Y-77830842D01*
X101247696Y-77820250D01*
X101242980Y-77806821D01*
X101231711Y-77774732D01*
X101208705Y-77743583D01*
X101159053Y-77676360D01*
X101153461Y-77668789D01*
X101145890Y-77663197D01*
X101055095Y-77596135D01*
X101055093Y-77596134D01*
X101047518Y-77590539D01*
X101038631Y-77587418D01*
X101038629Y-77587417D01*
X100930498Y-77549444D01*
X100930496Y-77549443D01*
X100923250Y-77546899D01*
X100915606Y-77546176D01*
X100915604Y-77546176D01*
X100907629Y-77545422D01*
X100892583Y-77544000D01*
X100602897Y-77544000D01*
X100312918Y-77544001D01*
X100309968Y-77544280D01*
X100309963Y-77544280D01*
X100289900Y-77546176D01*
X100289899Y-77546176D01*
X100282250Y-77546899D01*
X100275002Y-77549444D01*
X100274999Y-77549445D01*
X100166871Y-77587417D01*
X100166869Y-77587418D01*
X100157982Y-77590539D01*
X100150407Y-77596134D01*
X100150405Y-77596135D01*
X100059610Y-77663197D01*
X100052039Y-77668789D01*
X100046447Y-77676360D01*
X99996796Y-77743583D01*
X99973789Y-77774732D01*
X99970668Y-77783619D01*
X99970667Y-77783621D01*
X99932694Y-77891752D01*
X99930149Y-77899000D01*
X99927250Y-77929667D01*
X99927251Y-78534332D01*
X99930149Y-78565000D01*
X99932694Y-78572248D01*
X99932695Y-78572251D01*
X99965780Y-78666461D01*
X99973789Y-78689268D01*
X99979384Y-78696843D01*
X99979385Y-78696845D01*
X99995187Y-78718239D01*
X100052039Y-78795211D01*
X100059610Y-78800803D01*
X100150405Y-78867865D01*
X100150407Y-78867866D01*
X100157982Y-78873461D01*
X100166871Y-78876583D01*
X100175190Y-78880987D01*
X100174198Y-78882860D01*
X100221770Y-78917062D01*
X100247857Y-78983092D01*
X100234105Y-79052744D01*
X100184880Y-79103904D01*
X100122375Y-79120500D01*
X81575962Y-79120500D01*
X81507841Y-79100498D01*
X81461348Y-79046842D01*
X81451244Y-78976568D01*
X81480738Y-78911988D01*
X81532971Y-78876061D01*
X81537644Y-78874365D01*
X81591883Y-78854677D01*
X81750909Y-78796954D01*
X81750919Y-78796950D01*
X81753847Y-78795887D01*
X82110506Y-78624622D01*
X82448391Y-78418781D01*
X82764161Y-78180399D01*
X82766443Y-78178289D01*
X82766452Y-78178282D01*
X83052397Y-77913956D01*
X83054694Y-77911833D01*
X83056771Y-77909490D01*
X83288819Y-77647667D01*
X85176500Y-77647667D01*
X85176501Y-78327332D01*
X85179399Y-78358000D01*
X85181944Y-78365248D01*
X85181945Y-78365251D01*
X85214054Y-78456682D01*
X85223039Y-78482268D01*
X85228634Y-78489843D01*
X85228635Y-78489845D01*
X85284145Y-78565000D01*
X85301289Y-78588211D01*
X85308860Y-78593803D01*
X85399655Y-78660865D01*
X85399657Y-78660866D01*
X85407232Y-78666461D01*
X85416119Y-78669582D01*
X85416121Y-78669583D01*
X85524252Y-78707556D01*
X85524254Y-78707557D01*
X85531500Y-78710101D01*
X85539144Y-78710824D01*
X85539146Y-78710824D01*
X85547121Y-78711578D01*
X85562167Y-78713000D01*
X85851853Y-78713000D01*
X86141832Y-78712999D01*
X86144782Y-78712720D01*
X86144787Y-78712720D01*
X86164850Y-78710824D01*
X86164851Y-78710824D01*
X86172500Y-78710101D01*
X86179748Y-78707556D01*
X86179751Y-78707555D01*
X86287879Y-78669583D01*
X86287881Y-78669582D01*
X86296768Y-78666461D01*
X86304343Y-78660866D01*
X86304345Y-78660865D01*
X86395140Y-78593803D01*
X86402711Y-78588211D01*
X86419855Y-78565000D01*
X86475365Y-78489845D01*
X86475366Y-78489843D01*
X86480961Y-78482268D01*
X86496946Y-78436750D01*
X86538390Y-78379105D01*
X86604420Y-78353018D01*
X86615828Y-78352500D01*
X87120172Y-78352500D01*
X87188293Y-78372502D01*
X87234786Y-78426158D01*
X87239054Y-78436750D01*
X87255039Y-78482268D01*
X87260634Y-78489843D01*
X87260635Y-78489845D01*
X87316145Y-78565000D01*
X87333289Y-78588211D01*
X87340860Y-78593803D01*
X87431655Y-78660865D01*
X87431657Y-78660866D01*
X87439232Y-78666461D01*
X87448119Y-78669582D01*
X87448121Y-78669583D01*
X87556252Y-78707556D01*
X87556254Y-78707557D01*
X87563500Y-78710101D01*
X87571144Y-78710824D01*
X87571146Y-78710824D01*
X87579121Y-78711578D01*
X87594167Y-78713000D01*
X87883853Y-78713000D01*
X88173832Y-78712999D01*
X88176782Y-78712720D01*
X88176787Y-78712720D01*
X88196850Y-78710824D01*
X88196851Y-78710824D01*
X88204500Y-78710101D01*
X88211748Y-78707556D01*
X88211751Y-78707555D01*
X88319879Y-78669583D01*
X88319881Y-78669582D01*
X88328768Y-78666461D01*
X88336343Y-78660866D01*
X88336345Y-78660865D01*
X88427140Y-78593803D01*
X88434711Y-78588211D01*
X88451855Y-78565000D01*
X88507365Y-78489845D01*
X88507366Y-78489843D01*
X88512961Y-78482268D01*
X88521947Y-78456682D01*
X88554056Y-78365248D01*
X88554057Y-78365246D01*
X88556601Y-78358000D01*
X88559500Y-78327333D01*
X88559499Y-77851000D01*
X91342318Y-77851000D01*
X91362956Y-78007762D01*
X91423464Y-78153841D01*
X91519718Y-78279282D01*
X91645159Y-78375536D01*
X91791238Y-78436044D01*
X91948000Y-78456682D01*
X91956188Y-78455604D01*
X92096574Y-78437122D01*
X92104762Y-78436044D01*
X92250841Y-78375536D01*
X92317527Y-78324366D01*
X92369731Y-78284309D01*
X92369732Y-78284308D01*
X92376282Y-78279282D01*
X92381308Y-78272732D01*
X92381311Y-78272729D01*
X92415789Y-78227796D01*
X92473127Y-78185929D01*
X92515751Y-78178500D01*
X92632500Y-78178500D01*
X92700621Y-78198502D01*
X92747114Y-78252158D01*
X92758500Y-78304500D01*
X92758500Y-78603748D01*
X92770133Y-78662231D01*
X92814448Y-78728552D01*
X92880769Y-78772867D01*
X92892938Y-78775288D01*
X92892939Y-78775288D01*
X92933184Y-78783293D01*
X92939252Y-78784500D01*
X93628748Y-78784500D01*
X93634816Y-78783293D01*
X93675061Y-78775288D01*
X93675062Y-78775288D01*
X93687231Y-78772867D01*
X93753552Y-78728552D01*
X93797867Y-78662231D01*
X93809500Y-78603748D01*
X94658500Y-78603748D01*
X94670133Y-78662231D01*
X94714448Y-78728552D01*
X94780769Y-78772867D01*
X94792938Y-78775288D01*
X94792939Y-78775288D01*
X94833184Y-78783293D01*
X94839252Y-78784500D01*
X95528748Y-78784500D01*
X95534816Y-78783293D01*
X95575061Y-78775288D01*
X95575062Y-78775288D01*
X95587231Y-78772867D01*
X95653552Y-78728552D01*
X95697867Y-78662231D01*
X95709500Y-78603748D01*
X95709500Y-78255500D01*
X95729502Y-78187379D01*
X95783158Y-78140886D01*
X95835500Y-78129500D01*
X96019256Y-78129500D01*
X96087377Y-78149502D01*
X96095960Y-78155537D01*
X96217159Y-78248536D01*
X96363238Y-78309044D01*
X96520000Y-78329682D01*
X96528188Y-78328604D01*
X96537843Y-78327333D01*
X96676762Y-78309044D01*
X96822841Y-78248536D01*
X96948282Y-78152282D01*
X96957027Y-78140886D01*
X97039509Y-78033392D01*
X97044536Y-78026841D01*
X97105044Y-77880762D01*
X97125682Y-77724000D01*
X97108848Y-77596135D01*
X97106122Y-77575426D01*
X97105044Y-77567238D01*
X97044536Y-77421159D01*
X96948282Y-77295718D01*
X96822841Y-77199464D01*
X96676762Y-77138956D01*
X96520000Y-77118318D01*
X96363238Y-77138956D01*
X96217159Y-77199464D01*
X96091718Y-77295718D01*
X96086695Y-77302264D01*
X96000491Y-77414608D01*
X95999345Y-77416101D01*
X95999343Y-77416103D01*
X95995464Y-77421159D01*
X95994675Y-77420554D01*
X95948590Y-77464494D01*
X95890856Y-77478500D01*
X95835500Y-77478500D01*
X95767379Y-77458498D01*
X95720886Y-77404842D01*
X95709500Y-77352500D01*
X95709500Y-77004252D01*
X95708293Y-76998184D01*
X95700288Y-76957939D01*
X95700288Y-76957938D01*
X95697867Y-76945769D01*
X95653552Y-76879448D01*
X95587231Y-76835133D01*
X95575062Y-76832712D01*
X95575061Y-76832712D01*
X95534816Y-76824707D01*
X95528748Y-76823500D01*
X94839252Y-76823500D01*
X94833184Y-76824707D01*
X94792939Y-76832712D01*
X94792938Y-76832712D01*
X94780769Y-76835133D01*
X94714448Y-76879448D01*
X94670133Y-76945769D01*
X94667712Y-76957938D01*
X94667712Y-76957939D01*
X94659707Y-76998184D01*
X94658500Y-77004252D01*
X94658500Y-78603748D01*
X93809500Y-78603748D01*
X93809500Y-77004252D01*
X93808293Y-76998184D01*
X93800288Y-76957939D01*
X93800288Y-76957938D01*
X93797867Y-76945769D01*
X93753552Y-76879448D01*
X93687231Y-76835133D01*
X93675062Y-76832712D01*
X93675061Y-76832712D01*
X93634816Y-76824707D01*
X93628748Y-76823500D01*
X92939252Y-76823500D01*
X92933184Y-76824707D01*
X92892939Y-76832712D01*
X92892938Y-76832712D01*
X92880769Y-76835133D01*
X92814448Y-76879448D01*
X92770133Y-76945769D01*
X92767712Y-76957938D01*
X92767712Y-76957939D01*
X92759707Y-76998184D01*
X92758500Y-77004252D01*
X92758500Y-77397500D01*
X92738498Y-77465621D01*
X92684842Y-77512114D01*
X92632500Y-77523500D01*
X92515751Y-77523500D01*
X92447630Y-77503498D01*
X92415789Y-77474204D01*
X92381311Y-77429271D01*
X92381308Y-77429268D01*
X92376282Y-77422718D01*
X92352986Y-77404842D01*
X92271668Y-77342445D01*
X92250841Y-77326464D01*
X92104762Y-77265956D01*
X92091242Y-77264176D01*
X91956188Y-77246396D01*
X91948000Y-77245318D01*
X91939812Y-77246396D01*
X91804759Y-77264176D01*
X91791238Y-77265956D01*
X91645159Y-77326464D01*
X91624332Y-77342445D01*
X91543015Y-77404842D01*
X91519718Y-77422718D01*
X91423464Y-77548159D01*
X91362956Y-77694238D01*
X91342318Y-77851000D01*
X88559499Y-77851000D01*
X88559499Y-77722668D01*
X88558552Y-77712641D01*
X88557324Y-77699650D01*
X88557324Y-77699649D01*
X88556601Y-77692000D01*
X88554055Y-77684749D01*
X88516083Y-77576621D01*
X88516082Y-77576619D01*
X88512961Y-77567732D01*
X88506962Y-77559609D01*
X88440303Y-77469360D01*
X88434711Y-77461789D01*
X88390685Y-77429271D01*
X88336345Y-77389135D01*
X88336343Y-77389134D01*
X88328768Y-77383539D01*
X88319881Y-77380418D01*
X88319879Y-77380417D01*
X88211748Y-77342444D01*
X88211746Y-77342443D01*
X88204500Y-77339899D01*
X88196856Y-77339176D01*
X88196854Y-77339176D01*
X88188879Y-77338422D01*
X88173833Y-77337000D01*
X87884147Y-77337000D01*
X87594168Y-77337001D01*
X87591218Y-77337280D01*
X87591213Y-77337280D01*
X87571150Y-77339176D01*
X87571149Y-77339176D01*
X87563500Y-77339899D01*
X87556252Y-77342444D01*
X87556249Y-77342445D01*
X87448121Y-77380417D01*
X87448119Y-77380418D01*
X87439232Y-77383539D01*
X87431657Y-77389134D01*
X87431655Y-77389135D01*
X87377315Y-77429271D01*
X87333289Y-77461789D01*
X87327697Y-77469360D01*
X87261039Y-77559609D01*
X87255039Y-77567732D01*
X87248126Y-77587417D01*
X87239054Y-77613250D01*
X87197610Y-77670895D01*
X87131580Y-77696982D01*
X87120172Y-77697500D01*
X86642166Y-77697500D01*
X86574045Y-77677498D01*
X86527552Y-77623842D01*
X86523284Y-77613249D01*
X86484083Y-77501622D01*
X86480961Y-77492732D01*
X86470450Y-77478500D01*
X86408303Y-77394360D01*
X86402711Y-77386789D01*
X86356287Y-77352500D01*
X86304345Y-77314135D01*
X86304343Y-77314134D01*
X86296768Y-77308539D01*
X86287881Y-77305418D01*
X86287879Y-77305417D01*
X86179748Y-77267444D01*
X86179746Y-77267443D01*
X86172500Y-77264899D01*
X86164856Y-77264176D01*
X86164854Y-77264176D01*
X86156879Y-77263422D01*
X86141833Y-77262000D01*
X85852147Y-77262000D01*
X85562168Y-77262001D01*
X85559218Y-77262280D01*
X85559213Y-77262280D01*
X85539150Y-77264176D01*
X85539149Y-77264176D01*
X85531500Y-77264899D01*
X85524252Y-77267444D01*
X85524249Y-77267445D01*
X85416121Y-77305417D01*
X85416119Y-77305418D01*
X85407232Y-77308539D01*
X85399657Y-77314134D01*
X85399655Y-77314135D01*
X85347713Y-77352500D01*
X85301289Y-77386789D01*
X85295697Y-77394360D01*
X85233551Y-77478500D01*
X85223039Y-77492732D01*
X85219918Y-77501619D01*
X85219917Y-77501621D01*
X85193579Y-77576621D01*
X85179399Y-77617000D01*
X85176500Y-77647667D01*
X83288819Y-77647667D01*
X83315032Y-77618091D01*
X83315037Y-77618085D01*
X83317116Y-77615739D01*
X83337017Y-77588197D01*
X83432393Y-77456197D01*
X83548833Y-77295046D01*
X83747553Y-76952924D01*
X83754044Y-76938649D01*
X83910019Y-76595599D01*
X83910020Y-76595596D01*
X83911311Y-76592757D01*
X84038488Y-76218107D01*
X84112762Y-75897667D01*
X85176500Y-75897667D01*
X85176501Y-76577332D01*
X85176780Y-76580281D01*
X85176780Y-76580287D01*
X85178227Y-76595599D01*
X85179399Y-76608000D01*
X85181944Y-76615248D01*
X85181945Y-76615251D01*
X85211624Y-76699762D01*
X85223039Y-76732268D01*
X85228634Y-76739843D01*
X85228635Y-76739845D01*
X85261494Y-76784333D01*
X85301289Y-76838211D01*
X85308860Y-76843803D01*
X85399655Y-76910865D01*
X85399657Y-76910866D01*
X85407232Y-76916461D01*
X85416119Y-76919582D01*
X85416121Y-76919583D01*
X85524252Y-76957556D01*
X85524254Y-76957557D01*
X85531500Y-76960101D01*
X85539144Y-76960824D01*
X85539146Y-76960824D01*
X85547121Y-76961578D01*
X85562167Y-76963000D01*
X85851853Y-76963000D01*
X86141832Y-76962999D01*
X86144782Y-76962720D01*
X86144787Y-76962720D01*
X86164850Y-76960824D01*
X86164851Y-76960824D01*
X86172500Y-76960101D01*
X86179748Y-76957556D01*
X86179751Y-76957555D01*
X86287879Y-76919583D01*
X86287881Y-76919582D01*
X86296768Y-76916461D01*
X86304343Y-76910866D01*
X86304345Y-76910865D01*
X86395140Y-76843803D01*
X86402711Y-76838211D01*
X86442506Y-76784333D01*
X86475365Y-76739845D01*
X86475366Y-76739843D01*
X86480961Y-76732268D01*
X86492377Y-76699762D01*
X86522056Y-76615248D01*
X86522057Y-76615246D01*
X86524601Y-76608000D01*
X86527500Y-76577333D01*
X86527499Y-76104667D01*
X101959250Y-76104667D01*
X101959251Y-76784332D01*
X101962149Y-76815000D01*
X101964694Y-76822248D01*
X101964695Y-76822251D01*
X101997780Y-76916461D01*
X102005789Y-76939268D01*
X102011384Y-76946843D01*
X102011385Y-76946845D01*
X102053786Y-77004252D01*
X102084039Y-77045211D01*
X102091610Y-77050803D01*
X102182405Y-77117865D01*
X102182407Y-77117866D01*
X102189982Y-77123461D01*
X102198869Y-77126582D01*
X102198871Y-77126583D01*
X102307002Y-77164556D01*
X102307004Y-77164557D01*
X102314250Y-77167101D01*
X102321894Y-77167824D01*
X102321896Y-77167824D01*
X102329871Y-77168578D01*
X102344917Y-77170000D01*
X102634603Y-77170000D01*
X102924582Y-77169999D01*
X102927532Y-77169720D01*
X102927537Y-77169720D01*
X102947600Y-77167824D01*
X102947601Y-77167824D01*
X102955250Y-77167101D01*
X102962498Y-77164556D01*
X102962501Y-77164555D01*
X103070629Y-77126583D01*
X103070631Y-77126582D01*
X103079518Y-77123461D01*
X103087093Y-77117866D01*
X103087095Y-77117865D01*
X103177890Y-77050803D01*
X103185461Y-77045211D01*
X103215714Y-77004252D01*
X103258115Y-76946845D01*
X103258116Y-76946843D01*
X103263711Y-76939268D01*
X103271721Y-76916461D01*
X103304806Y-76822248D01*
X103304807Y-76822246D01*
X103307351Y-76815000D01*
X103310250Y-76784333D01*
X103310249Y-76104668D01*
X103307351Y-76074000D01*
X103304805Y-76066749D01*
X103266833Y-75958621D01*
X103266832Y-75958619D01*
X103263711Y-75949732D01*
X103258115Y-75942155D01*
X103253707Y-75933830D01*
X103256172Y-75932525D01*
X103236860Y-75879707D01*
X103252399Y-75810431D01*
X103302924Y-75760555D01*
X103314375Y-75755121D01*
X103426841Y-75708536D01*
X103552282Y-75612282D01*
X103648536Y-75486841D01*
X103709044Y-75340762D01*
X103729682Y-75184000D01*
X103709044Y-75027238D01*
X103648536Y-74881159D01*
X103552282Y-74755718D01*
X103426841Y-74659464D01*
X103280762Y-74598956D01*
X103124000Y-74578318D01*
X102967238Y-74598956D01*
X102821159Y-74659464D01*
X102695718Y-74755718D01*
X102599464Y-74881159D01*
X102538956Y-75027238D01*
X102518318Y-75184000D01*
X102519396Y-75192188D01*
X102527118Y-75250842D01*
X102516179Y-75320990D01*
X102491291Y-75356383D01*
X102418535Y-75429139D01*
X102410431Y-75436566D01*
X102381556Y-75460795D01*
X102376043Y-75470344D01*
X102362711Y-75493435D01*
X102356805Y-75502706D01*
X102335196Y-75533566D01*
X102332342Y-75544216D01*
X102330865Y-75547384D01*
X102329673Y-75550660D01*
X102324162Y-75560205D01*
X102318212Y-75593949D01*
X102317620Y-75597308D01*
X102315242Y-75608035D01*
X102305486Y-75644443D01*
X102305916Y-75649358D01*
X102281419Y-75711982D01*
X102223512Y-75753763D01*
X102198871Y-75762417D01*
X102198869Y-75762418D01*
X102189982Y-75765539D01*
X102182409Y-75771133D01*
X102182408Y-75771133D01*
X102103275Y-75829581D01*
X102084039Y-75843789D01*
X102005789Y-75949732D01*
X102002668Y-75958619D01*
X102002667Y-75958621D01*
X101964695Y-76066749D01*
X101962149Y-76074000D01*
X101961426Y-76081644D01*
X101961426Y-76081646D01*
X101961156Y-76084500D01*
X101959250Y-76104667D01*
X86527499Y-76104667D01*
X86527499Y-76074517D01*
X86547501Y-76006396D01*
X86564404Y-75985422D01*
X88781421Y-73768405D01*
X88843733Y-73734379D01*
X88870516Y-73731500D01*
X91744263Y-73731500D01*
X91812384Y-73751502D01*
X91858877Y-73805158D01*
X91868981Y-73875432D01*
X91839487Y-73940012D01*
X91820966Y-73957463D01*
X91780267Y-73988692D01*
X91780264Y-73988695D01*
X91773718Y-73993718D01*
X91677464Y-74119159D01*
X91616956Y-74265238D01*
X91596318Y-74422000D01*
X91616956Y-74578762D01*
X91677464Y-74724841D01*
X91773718Y-74850282D01*
X91899159Y-74946536D01*
X92045238Y-75007044D01*
X92202000Y-75027682D01*
X92266342Y-75019211D01*
X92336490Y-75030150D01*
X92371883Y-75055038D01*
X92638418Y-75321573D01*
X92645840Y-75329671D01*
X92670240Y-75358750D01*
X92679783Y-75364260D01*
X92679787Y-75364263D01*
X92695502Y-75373336D01*
X92744494Y-75424719D01*
X92758500Y-75482453D01*
X92758500Y-75903748D01*
X92759707Y-75909816D01*
X92766140Y-75942155D01*
X92770133Y-75962231D01*
X92814448Y-76028552D01*
X92880769Y-76072867D01*
X92892938Y-76075288D01*
X92892939Y-76075288D01*
X92924904Y-76081646D01*
X92939252Y-76084500D01*
X93628748Y-76084500D01*
X93643096Y-76081646D01*
X93675061Y-76075288D01*
X93675062Y-76075288D01*
X93687231Y-76072867D01*
X93697547Y-76065974D01*
X93709017Y-76061223D01*
X93710555Y-76064937D01*
X93756751Y-76050472D01*
X93807289Y-76065312D01*
X93808983Y-76061223D01*
X93820453Y-76065974D01*
X93830769Y-76072867D01*
X93842938Y-76075288D01*
X93842939Y-76075288D01*
X93874904Y-76081646D01*
X93889252Y-76084500D01*
X94578748Y-76084500D01*
X94593096Y-76081646D01*
X94625061Y-76075288D01*
X94625062Y-76075288D01*
X94637231Y-76072867D01*
X94647547Y-76065974D01*
X94659017Y-76061223D01*
X94660555Y-76064937D01*
X94706751Y-76050472D01*
X94757289Y-76065312D01*
X94758983Y-76061223D01*
X94770453Y-76065974D01*
X94780769Y-76072867D01*
X94792938Y-76075288D01*
X94792939Y-76075288D01*
X94824904Y-76081646D01*
X94839252Y-76084500D01*
X95528748Y-76084500D01*
X95543096Y-76081646D01*
X95575061Y-76075288D01*
X95575062Y-76075288D01*
X95587231Y-76072867D01*
X95653552Y-76028552D01*
X95697867Y-75962231D01*
X95701861Y-75942155D01*
X95708293Y-75909816D01*
X95709500Y-75903748D01*
X95709500Y-75482453D01*
X95729502Y-75414332D01*
X95772501Y-75373333D01*
X95788213Y-75364262D01*
X95797760Y-75358750D01*
X95822160Y-75329671D01*
X95829587Y-75321567D01*
X95969116Y-75182038D01*
X96031428Y-75148012D01*
X96074656Y-75146211D01*
X96139000Y-75154682D01*
X96147188Y-75153604D01*
X96287574Y-75135122D01*
X96295762Y-75134044D01*
X96441841Y-75073536D01*
X96567282Y-74977282D01*
X96663536Y-74851841D01*
X96724044Y-74705762D01*
X96744682Y-74549000D01*
X96724044Y-74392238D01*
X96663536Y-74246159D01*
X96567282Y-74120718D01*
X96441841Y-74024464D01*
X96295762Y-73963956D01*
X96139000Y-73943318D01*
X95982238Y-73963956D01*
X95836159Y-74024464D01*
X95721287Y-74112608D01*
X95710722Y-74120715D01*
X95644502Y-74146315D01*
X95591626Y-74138069D01*
X95587231Y-74135133D01*
X95528748Y-74123500D01*
X94839252Y-74123500D01*
X94833184Y-74124707D01*
X94792939Y-74132712D01*
X94792938Y-74132712D01*
X94780769Y-74135133D01*
X94770453Y-74142026D01*
X94758983Y-74146777D01*
X94757445Y-74143063D01*
X94711249Y-74157528D01*
X94660710Y-74142688D01*
X94659016Y-74146777D01*
X94647549Y-74142027D01*
X94637231Y-74135133D01*
X94634237Y-74134537D01*
X94584001Y-74094055D01*
X94561500Y-74022194D01*
X94561500Y-73973751D01*
X94581502Y-73905630D01*
X94610796Y-73873789D01*
X94655729Y-73839311D01*
X94655732Y-73839308D01*
X94662282Y-73834282D01*
X94667340Y-73827691D01*
X94753509Y-73715392D01*
X94758536Y-73708841D01*
X94819044Y-73562762D01*
X94821773Y-73542037D01*
X94838604Y-73414188D01*
X94839682Y-73406000D01*
X94819044Y-73249238D01*
X94758536Y-73103159D01*
X94662282Y-72977718D01*
X94640748Y-72961194D01*
X94543392Y-72886491D01*
X94536841Y-72881464D01*
X94390762Y-72820956D01*
X94234000Y-72800318D01*
X94077238Y-72820956D01*
X93931159Y-72881464D01*
X93924608Y-72886491D01*
X93827253Y-72961194D01*
X93805718Y-72977718D01*
X93800695Y-72984264D01*
X93764677Y-73031204D01*
X93707339Y-73073071D01*
X93664714Y-73080500D01*
X88703210Y-73080500D01*
X88692228Y-73080020D01*
X88665680Y-73077697D01*
X88665678Y-73077697D01*
X88654693Y-73076736D01*
X88618285Y-73086492D01*
X88607558Y-73088870D01*
X88604199Y-73089462D01*
X88570455Y-73095412D01*
X88560910Y-73100923D01*
X88557634Y-73102115D01*
X88554466Y-73103592D01*
X88543816Y-73106446D01*
X88534785Y-73112770D01*
X88512956Y-73128055D01*
X88503685Y-73133961D01*
X88480594Y-73147293D01*
X88471045Y-73152806D01*
X88463959Y-73161251D01*
X88446815Y-73181682D01*
X88439389Y-73189785D01*
X86154079Y-75475095D01*
X86091767Y-75509121D01*
X86064984Y-75512000D01*
X85592013Y-75512001D01*
X85562168Y-75512001D01*
X85559218Y-75512280D01*
X85559213Y-75512280D01*
X85539150Y-75514176D01*
X85539149Y-75514176D01*
X85531500Y-75514899D01*
X85524252Y-75517444D01*
X85524249Y-75517445D01*
X85416121Y-75555417D01*
X85416119Y-75555418D01*
X85407232Y-75558539D01*
X85399657Y-75564134D01*
X85399655Y-75564135D01*
X85354742Y-75597308D01*
X85301289Y-75636789D01*
X85223039Y-75742732D01*
X85219918Y-75751619D01*
X85219917Y-75751621D01*
X85191452Y-75832677D01*
X85179399Y-75867000D01*
X85176500Y-75897667D01*
X84112762Y-75897667D01*
X84127826Y-75832677D01*
X84173001Y-75482453D01*
X84178040Y-75443391D01*
X84178040Y-75443388D01*
X84178441Y-75440281D01*
X84189833Y-75044798D01*
X84189170Y-75035426D01*
X84162112Y-74653274D01*
X84161890Y-74650138D01*
X84094887Y-74260205D01*
X84089195Y-74239608D01*
X84028859Y-74021304D01*
X83989488Y-73878855D01*
X83987528Y-73873789D01*
X83847869Y-73512792D01*
X83847867Y-73512787D01*
X83846734Y-73509859D01*
X83841163Y-73498853D01*
X83669456Y-73159668D01*
X83668037Y-73156865D01*
X83653418Y-73133961D01*
X83456852Y-72826008D01*
X83455165Y-72823365D01*
X83210222Y-72512657D01*
X83208047Y-72510401D01*
X83208042Y-72510395D01*
X83045982Y-72342284D01*
X82935631Y-72227812D01*
X82933059Y-72225627D01*
X82636501Y-71973682D01*
X82636493Y-71973675D01*
X82634106Y-71971648D01*
X82439951Y-71837459D01*
X82311203Y-71748475D01*
X82311194Y-71748470D01*
X82308631Y-71746698D01*
X82305896Y-71745185D01*
X82305891Y-71745182D01*
X82098140Y-71630261D01*
X81962422Y-71555186D01*
X81959553Y-71553953D01*
X81959542Y-71553948D01*
X81601773Y-71400239D01*
X81601770Y-71400238D01*
X81598905Y-71399007D01*
X81595928Y-71398066D01*
X81595924Y-71398064D01*
X81429569Y-71345453D01*
X81221673Y-71279704D01*
X80834457Y-71198458D01*
X80831339Y-71198122D01*
X80443538Y-71156335D01*
X80443535Y-71156335D01*
X80441087Y-71156071D01*
X80438624Y-71156000D01*
X80438623Y-71156000D01*
X80434974Y-71155895D01*
X80383769Y-71154420D01*
X80112708Y-71154420D01*
X80111145Y-71154498D01*
X80111137Y-71154498D01*
X80014769Y-71159296D01*
X79816902Y-71169146D01*
X79813817Y-71169610D01*
X79813815Y-71169610D01*
X79631340Y-71197044D01*
X79425651Y-71227968D01*
X79422616Y-71228739D01*
X79422615Y-71228739D01*
X79045221Y-71324585D01*
X79045218Y-71324586D01*
X79042178Y-71325358D01*
X79039231Y-71326428D01*
X79039230Y-71326428D01*
X78673211Y-71459286D01*
X78673201Y-71459290D01*
X78670273Y-71460353D01*
X78313614Y-71631618D01*
X77975729Y-71837459D01*
X77659959Y-72075841D01*
X77657677Y-72077951D01*
X77657668Y-72077958D01*
X77497757Y-72225779D01*
X77369426Y-72344407D01*
X77367354Y-72346745D01*
X77367349Y-72346750D01*
X77109088Y-72638149D01*
X77109083Y-72638155D01*
X77107004Y-72640501D01*
X76875287Y-72961194D01*
X76676567Y-73303316D01*
X76675277Y-73306153D01*
X76675275Y-73306157D01*
X76608884Y-73452177D01*
X76591547Y-73490309D01*
X76568201Y-73541655D01*
X76521797Y-73595388D01*
X76453710Y-73615504D01*
X76385556Y-73595615D01*
X76338974Y-73542037D01*
X76327500Y-73489504D01*
X76327500Y-69596000D01*
X77143318Y-69596000D01*
X77163956Y-69752762D01*
X77224464Y-69898841D01*
X77320718Y-70024282D01*
X77327264Y-70029305D01*
X77345318Y-70043158D01*
X77446159Y-70120536D01*
X77592238Y-70181044D01*
X77600426Y-70182122D01*
X77662271Y-70190264D01*
X77749000Y-70201682D01*
X77757188Y-70200604D01*
X77897574Y-70182122D01*
X77905762Y-70181044D01*
X78051841Y-70120536D01*
X78152682Y-70043158D01*
X78170736Y-70029305D01*
X78177282Y-70024282D01*
X78182305Y-70017736D01*
X78182308Y-70017733D01*
X78207749Y-69984577D01*
X78265087Y-69942709D01*
X78335957Y-69938487D01*
X78363044Y-69948080D01*
X78377288Y-69955042D01*
X78386482Y-69959536D01*
X78416973Y-69963984D01*
X78450256Y-69968840D01*
X78450260Y-69968840D01*
X78454782Y-69969500D01*
X80171218Y-69969500D01*
X80175768Y-69968830D01*
X80175771Y-69968830D01*
X80230426Y-69960784D01*
X80230427Y-69960784D01*
X80240112Y-69959358D01*
X80316051Y-69922074D01*
X80335507Y-69912522D01*
X80335509Y-69912521D01*
X80344855Y-69907932D01*
X80427293Y-69825350D01*
X80466740Y-69744650D01*
X80514626Y-69692234D01*
X80583249Y-69674027D01*
X80650821Y-69695811D01*
X80695889Y-69750669D01*
X80704861Y-69783535D01*
X80720952Y-69905758D01*
X80781460Y-70051837D01*
X80877714Y-70177278D01*
X81003155Y-70273532D01*
X81149234Y-70334040D01*
X81305996Y-70354678D01*
X81314184Y-70353600D01*
X81454570Y-70335118D01*
X81462758Y-70334040D01*
X81470385Y-70330881D01*
X81470388Y-70330880D01*
X81543673Y-70300524D01*
X81614263Y-70292935D01*
X81677750Y-70324714D01*
X81713977Y-70385772D01*
X81713602Y-70448850D01*
X81710956Y-70455238D01*
X81690318Y-70612000D01*
X81691396Y-70620188D01*
X81708463Y-70749822D01*
X81710956Y-70768762D01*
X81771464Y-70914841D01*
X81867718Y-71040282D01*
X81993159Y-71136536D01*
X82139238Y-71197044D01*
X82296000Y-71217682D01*
X82304188Y-71216604D01*
X82444574Y-71198122D01*
X82452762Y-71197044D01*
X82598841Y-71136536D01*
X82724282Y-71040282D01*
X82820536Y-70914841D01*
X82881044Y-70768762D01*
X82883538Y-70749822D01*
X82900604Y-70620188D01*
X82901682Y-70612000D01*
X82881044Y-70455238D01*
X82876501Y-70444269D01*
X82859861Y-70404099D01*
X82820536Y-70309159D01*
X82748547Y-70215341D01*
X82729309Y-70190269D01*
X82729308Y-70190268D01*
X82724282Y-70183718D01*
X82717732Y-70178692D01*
X82717729Y-70178689D01*
X82672796Y-70144211D01*
X82630929Y-70086873D01*
X82623500Y-70044249D01*
X82623500Y-69974264D01*
X82643502Y-69906143D01*
X82660405Y-69885169D01*
X82886573Y-69659001D01*
X82948885Y-69624975D01*
X83019700Y-69630040D01*
X83076536Y-69672587D01*
X83095992Y-69710705D01*
X83096216Y-69711426D01*
X83097642Y-69721112D01*
X83101957Y-69729900D01*
X83101957Y-69729901D01*
X83142757Y-69813000D01*
X83149068Y-69825855D01*
X83156438Y-69833212D01*
X83204431Y-69881121D01*
X83231650Y-69908293D01*
X83241006Y-69912866D01*
X83241007Y-69912867D01*
X83255375Y-69919890D01*
X83336482Y-69959536D01*
X83366973Y-69963984D01*
X83400256Y-69968840D01*
X83400260Y-69968840D01*
X83404782Y-69969500D01*
X83941138Y-69969500D01*
X84009259Y-69989502D01*
X84022129Y-69998978D01*
X84037330Y-70011733D01*
X84045434Y-70019160D01*
X84081676Y-70055402D01*
X84115702Y-70117714D01*
X84117503Y-70160942D01*
X84109032Y-70225286D01*
X84110110Y-70233474D01*
X84127276Y-70363860D01*
X84129670Y-70382048D01*
X84190178Y-70528127D01*
X84286432Y-70653568D01*
X84411873Y-70749822D01*
X84557952Y-70810330D01*
X84714714Y-70830968D01*
X84722902Y-70829890D01*
X84858133Y-70812087D01*
X84928282Y-70823027D01*
X84981380Y-70870155D01*
X84999501Y-70920562D01*
X85011249Y-71009797D01*
X85012956Y-71022762D01*
X85073464Y-71168841D01*
X85169718Y-71294282D01*
X85176264Y-71299305D01*
X85205918Y-71322059D01*
X85295159Y-71390536D01*
X85441238Y-71451044D01*
X85449426Y-71452122D01*
X85511947Y-71460353D01*
X85598000Y-71471682D01*
X85606188Y-71470604D01*
X85746574Y-71452122D01*
X85754762Y-71451044D01*
X85900841Y-71390536D01*
X85990082Y-71322059D01*
X86019736Y-71299305D01*
X86026282Y-71294282D01*
X86122536Y-71168841D01*
X86183044Y-71022762D01*
X86203682Y-70866000D01*
X86183044Y-70709238D01*
X86122536Y-70563159D01*
X86046011Y-70463429D01*
X86031309Y-70444269D01*
X86031308Y-70444268D01*
X86026282Y-70437718D01*
X86019732Y-70432692D01*
X86019729Y-70432689D01*
X85974796Y-70398211D01*
X85932929Y-70340873D01*
X85925500Y-70298249D01*
X85925500Y-70249369D01*
X89423500Y-70249369D01*
X89435133Y-70307852D01*
X89442026Y-70318168D01*
X89453352Y-70335118D01*
X89479448Y-70374173D01*
X89545769Y-70418488D01*
X89557938Y-70420909D01*
X89557939Y-70420909D01*
X89598184Y-70428914D01*
X89604252Y-70430121D01*
X91243748Y-70430121D01*
X91249816Y-70428914D01*
X91290061Y-70420909D01*
X91290062Y-70420909D01*
X91302231Y-70418488D01*
X91368552Y-70374173D01*
X91394648Y-70335118D01*
X91405974Y-70318168D01*
X91412867Y-70307852D01*
X91424500Y-70249369D01*
X91424500Y-68609873D01*
X91412867Y-68551390D01*
X91368552Y-68485069D01*
X91302231Y-68440754D01*
X91290062Y-68438333D01*
X91290061Y-68438333D01*
X91249816Y-68430328D01*
X91243748Y-68429121D01*
X89604252Y-68429121D01*
X89598184Y-68430328D01*
X89557939Y-68438333D01*
X89557938Y-68438333D01*
X89545769Y-68440754D01*
X89479448Y-68485069D01*
X89435133Y-68551390D01*
X89423500Y-68609873D01*
X89423500Y-70249369D01*
X85925500Y-70249369D01*
X85925500Y-67904214D01*
X85925980Y-67893231D01*
X85928326Y-67866419D01*
X85929287Y-67855436D01*
X85919464Y-67818776D01*
X85917087Y-67808053D01*
X85912411Y-67781537D01*
X85910497Y-67770681D01*
X85904986Y-67761135D01*
X85903760Y-67757767D01*
X85902246Y-67754521D01*
X85899394Y-67743877D01*
X85893071Y-67734846D01*
X85877626Y-67712787D01*
X85871721Y-67703519D01*
X85869210Y-67699170D01*
X85852750Y-67670660D01*
X85823677Y-67646265D01*
X85815573Y-67638838D01*
X85464174Y-67287439D01*
X85430148Y-67225127D01*
X85428589Y-67180155D01*
X85437840Y-67116744D01*
X85437840Y-67116740D01*
X85438500Y-67112218D01*
X85438500Y-66745782D01*
X85431631Y-66699117D01*
X85429784Y-66686574D01*
X85429784Y-66686573D01*
X85428358Y-66676888D01*
X85387057Y-66592767D01*
X85381522Y-66581493D01*
X85381521Y-66581491D01*
X85376932Y-66572145D01*
X85294350Y-66489707D01*
X85189518Y-66438464D01*
X85159027Y-66434016D01*
X85125744Y-66429160D01*
X85125740Y-66429160D01*
X85121218Y-66428500D01*
X83404782Y-66428500D01*
X83400232Y-66429170D01*
X83400229Y-66429170D01*
X83345574Y-66437216D01*
X83345573Y-66437216D01*
X83335888Y-66438642D01*
X83285992Y-66463140D01*
X83240493Y-66485478D01*
X83240491Y-66485479D01*
X83231145Y-66490068D01*
X83148707Y-66572650D01*
X83144134Y-66582006D01*
X83144133Y-66582007D01*
X83136419Y-66597788D01*
X83097464Y-66677482D01*
X83087500Y-66745782D01*
X83087500Y-67112218D01*
X83088170Y-67116768D01*
X83088170Y-67116771D01*
X83096216Y-67171426D01*
X83097642Y-67181112D01*
X83149068Y-67285855D01*
X83231650Y-67368293D01*
X83336482Y-67419536D01*
X83366973Y-67423984D01*
X83400256Y-67428840D01*
X83400260Y-67428840D01*
X83404782Y-67429500D01*
X84627735Y-67429500D01*
X84695856Y-67449502D01*
X84716830Y-67466405D01*
X84733830Y-67483405D01*
X84767856Y-67545717D01*
X84762791Y-67616532D01*
X84720244Y-67673368D01*
X84653724Y-67698179D01*
X84644735Y-67698500D01*
X83404782Y-67698500D01*
X83400232Y-67699170D01*
X83400229Y-67699170D01*
X83345574Y-67707216D01*
X83345573Y-67707216D01*
X83335888Y-67708642D01*
X83288798Y-67731762D01*
X83240493Y-67755478D01*
X83240491Y-67755479D01*
X83231145Y-67760068D01*
X83148707Y-67842650D01*
X83097464Y-67947482D01*
X83087500Y-68015782D01*
X83087500Y-68382218D01*
X83088170Y-68386769D01*
X83088171Y-68386783D01*
X83097465Y-68449913D01*
X83087598Y-68520221D01*
X83061904Y-68557360D01*
X82793222Y-68826042D01*
X82730910Y-68860068D01*
X82660095Y-68855003D01*
X82603259Y-68812456D01*
X82587718Y-68785165D01*
X82557032Y-68711082D01*
X82460778Y-68585641D01*
X82335337Y-68489387D01*
X82189258Y-68428879D01*
X82032496Y-68408241D01*
X81968154Y-68416712D01*
X81898006Y-68405773D01*
X81862613Y-68380885D01*
X80525405Y-67043678D01*
X80491380Y-66981366D01*
X80488500Y-66954583D01*
X80488500Y-66745782D01*
X80481631Y-66699117D01*
X80479784Y-66686574D01*
X80479784Y-66686573D01*
X80478358Y-66676888D01*
X80437057Y-66592767D01*
X80431522Y-66581493D01*
X80431521Y-66581491D01*
X80426932Y-66572145D01*
X80344350Y-66489707D01*
X80239518Y-66438464D01*
X80209027Y-66434016D01*
X80175744Y-66429160D01*
X80175740Y-66429160D01*
X80171218Y-66428500D01*
X78454782Y-66428500D01*
X78450232Y-66429170D01*
X78450229Y-66429170D01*
X78395574Y-66437216D01*
X78395573Y-66437216D01*
X78385888Y-66438642D01*
X78335992Y-66463140D01*
X78290493Y-66485478D01*
X78290491Y-66485479D01*
X78281145Y-66490068D01*
X78198707Y-66572650D01*
X78194134Y-66582006D01*
X78194133Y-66582007D01*
X78186419Y-66597788D01*
X78147464Y-66677482D01*
X78137500Y-66745782D01*
X78137500Y-67112218D01*
X78138170Y-67116768D01*
X78138170Y-67116771D01*
X78146216Y-67171426D01*
X78147642Y-67181112D01*
X78199068Y-67285855D01*
X78281650Y-67368293D01*
X78386482Y-67419536D01*
X78416973Y-67423984D01*
X78450256Y-67428840D01*
X78450260Y-67428840D01*
X78454782Y-67429500D01*
X79932729Y-67429500D01*
X80000850Y-67449502D01*
X80021824Y-67466405D01*
X80038824Y-67483405D01*
X80072850Y-67545717D01*
X80067785Y-67616532D01*
X80025238Y-67673368D01*
X79958718Y-67698179D01*
X79949729Y-67698500D01*
X78454782Y-67698500D01*
X78450232Y-67699170D01*
X78450229Y-67699170D01*
X78395574Y-67707216D01*
X78395573Y-67707216D01*
X78385888Y-67708642D01*
X78338798Y-67731762D01*
X78290493Y-67755478D01*
X78290491Y-67755479D01*
X78281145Y-67760068D01*
X78198707Y-67842650D01*
X78147464Y-67947482D01*
X78137500Y-68015782D01*
X78137500Y-68382218D01*
X78138170Y-68386768D01*
X78138170Y-68386771D01*
X78146216Y-68441426D01*
X78147642Y-68451112D01*
X78199068Y-68555855D01*
X78281650Y-68638293D01*
X78386482Y-68689536D01*
X78416973Y-68693984D01*
X78450256Y-68698840D01*
X78450260Y-68698840D01*
X78454782Y-68699500D01*
X79741156Y-68699500D01*
X79809277Y-68719502D01*
X79830251Y-68736405D01*
X79847251Y-68753405D01*
X79881277Y-68815717D01*
X79876212Y-68886532D01*
X79833665Y-68943368D01*
X79767145Y-68968179D01*
X79758156Y-68968500D01*
X78454782Y-68968500D01*
X78450232Y-68969170D01*
X78450229Y-68969170D01*
X78395574Y-68977216D01*
X78395573Y-68977216D01*
X78385888Y-68978642D01*
X78362107Y-68990318D01*
X78290493Y-69025478D01*
X78290491Y-69025479D01*
X78281145Y-69030068D01*
X78273787Y-69037438D01*
X78273788Y-69037438D01*
X78236421Y-69074870D01*
X78174138Y-69108949D01*
X78103318Y-69103946D01*
X78070545Y-69085815D01*
X78058397Y-69076493D01*
X78058389Y-69076488D01*
X78051841Y-69071464D01*
X77905762Y-69010956D01*
X77749000Y-68990318D01*
X77592238Y-69010956D01*
X77446159Y-69071464D01*
X77320718Y-69167718D01*
X77224464Y-69293159D01*
X77163956Y-69439238D01*
X77143318Y-69596000D01*
X76327500Y-69596000D01*
X76327500Y-65842218D01*
X78137500Y-65842218D01*
X78138170Y-65846768D01*
X78138170Y-65846771D01*
X78146216Y-65901426D01*
X78147642Y-65911112D01*
X78199068Y-66015855D01*
X78281650Y-66098293D01*
X78386482Y-66149536D01*
X78416973Y-66153984D01*
X78450256Y-66158840D01*
X78450260Y-66158840D01*
X78454782Y-66159500D01*
X80171218Y-66159500D01*
X80175768Y-66158830D01*
X80175771Y-66158830D01*
X80230426Y-66150784D01*
X80230427Y-66150784D01*
X80240112Y-66149358D01*
X80334804Y-66102867D01*
X80335507Y-66102522D01*
X80335509Y-66102521D01*
X80344855Y-66097932D01*
X80427293Y-66015350D01*
X80478536Y-65910518D01*
X80488500Y-65842218D01*
X80488500Y-65475782D01*
X80483444Y-65441433D01*
X80479784Y-65416574D01*
X80479784Y-65416573D01*
X80478358Y-65406888D01*
X80453860Y-65356992D01*
X80431522Y-65311493D01*
X80431521Y-65311491D01*
X80426932Y-65302145D01*
X80344350Y-65219707D01*
X80239518Y-65168464D01*
X80209027Y-65164016D01*
X80175744Y-65159160D01*
X80175740Y-65159160D01*
X80171218Y-65158500D01*
X79766440Y-65158500D01*
X79698319Y-65138498D01*
X79651826Y-65084842D01*
X79645214Y-65059769D01*
X79644287Y-65060017D01*
X79644221Y-65059769D01*
X79634464Y-65023356D01*
X79632087Y-65012633D01*
X79627411Y-64986117D01*
X79625497Y-64975261D01*
X79619986Y-64965715D01*
X79618760Y-64962347D01*
X79617246Y-64959101D01*
X79614394Y-64948457D01*
X79608072Y-64939428D01*
X79603413Y-64929438D01*
X79605543Y-64928445D01*
X79587651Y-64875393D01*
X79588630Y-64853949D01*
X79598604Y-64778189D01*
X79598604Y-64778188D01*
X79599682Y-64770000D01*
X79596462Y-64745541D01*
X87543833Y-64745541D01*
X87546388Y-64853949D01*
X87548949Y-64962589D01*
X87549929Y-65004190D01*
X87550763Y-65008895D01*
X87589495Y-65227438D01*
X87595078Y-65258942D01*
X87596615Y-65263469D01*
X87596615Y-65263470D01*
X87618127Y-65326841D01*
X87678241Y-65503933D01*
X87797505Y-65733525D01*
X87950125Y-65942436D01*
X87953499Y-65945828D01*
X87953501Y-65945830D01*
X88029991Y-66022721D01*
X88132589Y-66125858D01*
X88136435Y-66128699D01*
X88136440Y-66128703D01*
X88284012Y-66237701D01*
X88340698Y-66279570D01*
X88344928Y-66281796D01*
X88344932Y-66281798D01*
X88565426Y-66397805D01*
X88569663Y-66400034D01*
X88574191Y-66401597D01*
X88574192Y-66401598D01*
X88621064Y-66417783D01*
X88814215Y-66484479D01*
X89068726Y-66530961D01*
X89151519Y-66535300D01*
X91412782Y-66535300D01*
X91415161Y-66535119D01*
X91415162Y-66535119D01*
X91600209Y-66521043D01*
X91600214Y-66521042D01*
X91604976Y-66520680D01*
X91609630Y-66519601D01*
X91609632Y-66519601D01*
X91852351Y-66463342D01*
X91852350Y-66463342D01*
X91857015Y-66462261D01*
X92097318Y-66366390D01*
X92320354Y-66235273D01*
X92324065Y-66232252D01*
X92324069Y-66232249D01*
X92517279Y-66074951D01*
X92520991Y-66071929D01*
X92694613Y-65880115D01*
X92837222Y-65664247D01*
X92890566Y-65548536D01*
X92943532Y-65433643D01*
X92943533Y-65433640D01*
X92945538Y-65429291D01*
X93017068Y-65180655D01*
X93018087Y-65172760D01*
X93049556Y-64928796D01*
X93050167Y-64924059D01*
X93044071Y-64665410D01*
X93028009Y-64574778D01*
X92999756Y-64415362D01*
X92999755Y-64415358D01*
X92998922Y-64410658D01*
X92915759Y-64165667D01*
X92796495Y-63936075D01*
X92643875Y-63727164D01*
X92461411Y-63543742D01*
X92457565Y-63540901D01*
X92457560Y-63540897D01*
X92257154Y-63392875D01*
X92257153Y-63392874D01*
X92253302Y-63390030D01*
X92249072Y-63387804D01*
X92249068Y-63387802D01*
X92028574Y-63271795D01*
X92028572Y-63271794D01*
X92024337Y-63269566D01*
X91779785Y-63185121D01*
X91525274Y-63138639D01*
X91442481Y-63134300D01*
X89181218Y-63134300D01*
X89178839Y-63134481D01*
X89178838Y-63134481D01*
X88993791Y-63148557D01*
X88993786Y-63148558D01*
X88989024Y-63148920D01*
X88984370Y-63149999D01*
X88984368Y-63149999D01*
X88836551Y-63184261D01*
X88736985Y-63207339D01*
X88496682Y-63303210D01*
X88273646Y-63434327D01*
X88269935Y-63437348D01*
X88269931Y-63437351D01*
X88135083Y-63547135D01*
X88073009Y-63597671D01*
X87899387Y-63789485D01*
X87756778Y-64005353D01*
X87648462Y-64240309D01*
X87576932Y-64488945D01*
X87576321Y-64493683D01*
X87576320Y-64493687D01*
X87554776Y-64660705D01*
X87543833Y-64745541D01*
X79596462Y-64745541D01*
X79579044Y-64613238D01*
X79518536Y-64467159D01*
X79422282Y-64341718D01*
X79296841Y-64245464D01*
X79150762Y-64184956D01*
X78994000Y-64164318D01*
X78837238Y-64184956D01*
X78691159Y-64245464D01*
X78565718Y-64341718D01*
X78469464Y-64467159D01*
X78408956Y-64613238D01*
X78388318Y-64770000D01*
X78408956Y-64926762D01*
X78412115Y-64934389D01*
X78412116Y-64934392D01*
X78443075Y-65009133D01*
X78450664Y-65079723D01*
X78418885Y-65143210D01*
X78382197Y-65170454D01*
X78290493Y-65215478D01*
X78290491Y-65215479D01*
X78281145Y-65220068D01*
X78198707Y-65302650D01*
X78147464Y-65407482D01*
X78143578Y-65434117D01*
X78140196Y-65457305D01*
X78137500Y-65475782D01*
X78137500Y-65842218D01*
X76327500Y-65842218D01*
X76327500Y-65548731D01*
X76347502Y-65480610D01*
X76401158Y-65434117D01*
X76471432Y-65424013D01*
X76533617Y-65452413D01*
X76533718Y-65452282D01*
X76539279Y-65456549D01*
X76539281Y-65456551D01*
X76570636Y-65480610D01*
X76659159Y-65548536D01*
X76805238Y-65609044D01*
X76962000Y-65629682D01*
X76970188Y-65628604D01*
X77110574Y-65610122D01*
X77118762Y-65609044D01*
X77264841Y-65548536D01*
X77390282Y-65452282D01*
X77404221Y-65434117D01*
X77481509Y-65333392D01*
X77486536Y-65326841D01*
X77547044Y-65180762D01*
X77567682Y-65024000D01*
X77559211Y-64959658D01*
X77570150Y-64889510D01*
X77595038Y-64854117D01*
X77975838Y-64473317D01*
X77975840Y-64473314D01*
X81308566Y-61140588D01*
X81316670Y-61133161D01*
X81337305Y-61115846D01*
X81345750Y-61108760D01*
X81364725Y-61075894D01*
X81370623Y-61066635D01*
X81392394Y-61035543D01*
X81395246Y-61024899D01*
X81396760Y-61021653D01*
X81397986Y-61018285D01*
X81403497Y-61008739D01*
X81410087Y-60971367D01*
X81412466Y-60960635D01*
X81419434Y-60934631D01*
X81422287Y-60923984D01*
X81418980Y-60886189D01*
X81418500Y-60875206D01*
X81418500Y-59935500D01*
X81438502Y-59867379D01*
X81492158Y-59820886D01*
X81544500Y-59809500D01*
X81949218Y-59809500D01*
X81953768Y-59808830D01*
X81953771Y-59808830D01*
X82008426Y-59800784D01*
X82008427Y-59800784D01*
X82018112Y-59799358D01*
X82068008Y-59774860D01*
X82113507Y-59752522D01*
X82113509Y-59752521D01*
X82122855Y-59747932D01*
X82205293Y-59665350D01*
X82256536Y-59560518D01*
X82266500Y-59492218D01*
X82266500Y-59125782D01*
X82257871Y-59067162D01*
X82257784Y-59066574D01*
X82257784Y-59066573D01*
X82256358Y-59056888D01*
X82204932Y-58952145D01*
X82122350Y-58869707D01*
X82017518Y-58818464D01*
X81987027Y-58814016D01*
X81953744Y-58809160D01*
X81953740Y-58809160D01*
X81949218Y-58808500D01*
X80232782Y-58808500D01*
X80228232Y-58809170D01*
X80228229Y-58809170D01*
X80173574Y-58817216D01*
X80173573Y-58817216D01*
X80163888Y-58818642D01*
X80113992Y-58843140D01*
X80068493Y-58865478D01*
X80068491Y-58865479D01*
X80059145Y-58870068D01*
X79976707Y-58952650D01*
X79925464Y-59057482D01*
X79915500Y-59125782D01*
X79915500Y-59492218D01*
X79916170Y-59496768D01*
X79916170Y-59496771D01*
X79924216Y-59551426D01*
X79925642Y-59561112D01*
X79977068Y-59665855D01*
X80059650Y-59748293D01*
X80069006Y-59752866D01*
X80069007Y-59752867D01*
X80091435Y-59763830D01*
X80164482Y-59799536D01*
X80194973Y-59803984D01*
X80228256Y-59808840D01*
X80228260Y-59808840D01*
X80232782Y-59809500D01*
X80637500Y-59809500D01*
X80705621Y-59829502D01*
X80752114Y-59883158D01*
X80763500Y-59935500D01*
X80763500Y-60707156D01*
X80743498Y-60775277D01*
X80726595Y-60796251D01*
X77512686Y-64010160D01*
X77512683Y-64010162D01*
X77131883Y-64390962D01*
X77069571Y-64424988D01*
X77026343Y-64426789D01*
X76962000Y-64418318D01*
X76805238Y-64438956D01*
X76659159Y-64499464D01*
X76533718Y-64595718D01*
X76532363Y-64593952D01*
X76480283Y-64622390D01*
X76409468Y-64617325D01*
X76352632Y-64574778D01*
X76327821Y-64508258D01*
X76327500Y-64499269D01*
X76327500Y-53611444D01*
X76604643Y-53611444D01*
X76625281Y-53768206D01*
X76685789Y-53914285D01*
X76782043Y-54039726D01*
X76907484Y-54135980D01*
X77053563Y-54196488D01*
X77210325Y-54217126D01*
X77218513Y-54216048D01*
X77358899Y-54197566D01*
X77367087Y-54196488D01*
X77513166Y-54135980D01*
X77519715Y-54130955D01*
X77519718Y-54130953D01*
X77528742Y-54124028D01*
X77594961Y-54098426D01*
X77664511Y-54112689D01*
X77705562Y-54152300D01*
X77707464Y-54150841D01*
X77789503Y-54257756D01*
X77803718Y-54276282D01*
X77929159Y-54372536D01*
X78075238Y-54433044D01*
X78232000Y-54453682D01*
X78240188Y-54452604D01*
X78380574Y-54434122D01*
X78388762Y-54433044D01*
X78534841Y-54372536D01*
X78660282Y-54276282D01*
X78727584Y-54188573D01*
X78784921Y-54146706D01*
X78855792Y-54142484D01*
X78916641Y-54176182D01*
X78916744Y-54176285D01*
X78921767Y-54182831D01*
X79047208Y-54279085D01*
X79193287Y-54339593D01*
X79350049Y-54360231D01*
X79358237Y-54359153D01*
X79498623Y-54340671D01*
X79506811Y-54339593D01*
X79652890Y-54279085D01*
X79778331Y-54182831D01*
X79874585Y-54057390D01*
X79935093Y-53911311D01*
X79955731Y-53754549D01*
X79935093Y-53597787D01*
X79874585Y-53451708D01*
X79869558Y-53445157D01*
X79869556Y-53445153D01*
X79859456Y-53431990D01*
X79833857Y-53365769D01*
X79848123Y-53296221D01*
X79897725Y-53245426D01*
X79917660Y-53236410D01*
X80001518Y-53206961D01*
X80009093Y-53201366D01*
X80009095Y-53201365D01*
X80099890Y-53134303D01*
X80107461Y-53128711D01*
X80140671Y-53083748D01*
X80180115Y-53030345D01*
X80180116Y-53030343D01*
X80185711Y-53022768D01*
X80197306Y-52989751D01*
X80238749Y-52932106D01*
X80304779Y-52906018D01*
X80316188Y-52905500D01*
X80757312Y-52905500D01*
X80825433Y-52925502D01*
X80871926Y-52979158D01*
X80876194Y-52989751D01*
X80887789Y-53022768D01*
X80893384Y-53030343D01*
X80893385Y-53030345D01*
X80932829Y-53083748D01*
X80966039Y-53128711D01*
X80973610Y-53134303D01*
X81064405Y-53201365D01*
X81064407Y-53201366D01*
X81071982Y-53206961D01*
X81080869Y-53210082D01*
X81080871Y-53210083D01*
X81189002Y-53248056D01*
X81189004Y-53248057D01*
X81196250Y-53250601D01*
X81203894Y-53251324D01*
X81203896Y-53251324D01*
X81211282Y-53252022D01*
X81226917Y-53253500D01*
X81252943Y-53253500D01*
X81765706Y-53253499D01*
X81833827Y-53273501D01*
X81880320Y-53327156D01*
X81891706Y-53379499D01*
X81891706Y-53382620D01*
X81890628Y-53390808D01*
X81911266Y-53547570D01*
X81971774Y-53693649D01*
X81976801Y-53700200D01*
X82054555Y-53801531D01*
X82068028Y-53819090D01*
X82193469Y-53915344D01*
X82339548Y-53975852D01*
X82496310Y-53996490D01*
X82504498Y-53995412D01*
X82644884Y-53976930D01*
X82653072Y-53975852D01*
X82799151Y-53915344D01*
X82924592Y-53819090D01*
X82938066Y-53801531D01*
X83015819Y-53700200D01*
X83020846Y-53693649D01*
X83081354Y-53547570D01*
X83101992Y-53390808D01*
X83083629Y-53251324D01*
X83082432Y-53242234D01*
X83081354Y-53234046D01*
X83020846Y-53087967D01*
X82937354Y-52979158D01*
X82929615Y-52969072D01*
X82924592Y-52962526D01*
X82799151Y-52866272D01*
X82653072Y-52805764D01*
X82496310Y-52785126D01*
X82359695Y-52803112D01*
X82289548Y-52792173D01*
X82236449Y-52745045D01*
X82217250Y-52678190D01*
X82217249Y-52291134D01*
X82217249Y-52288168D01*
X82216678Y-52282118D01*
X82215074Y-52265150D01*
X82215074Y-52265149D01*
X82214351Y-52257500D01*
X82211250Y-52248670D01*
X82173833Y-52142121D01*
X82173832Y-52142119D01*
X82170711Y-52133232D01*
X82153217Y-52109546D01*
X82098053Y-52034860D01*
X82092461Y-52027289D01*
X81997176Y-51956911D01*
X81994095Y-51954635D01*
X81994093Y-51954634D01*
X81986518Y-51949039D01*
X81977631Y-51945918D01*
X81977629Y-51945917D01*
X81869498Y-51907944D01*
X81869496Y-51907943D01*
X81862250Y-51905399D01*
X81854606Y-51904676D01*
X81854604Y-51904676D01*
X81846629Y-51903922D01*
X81831583Y-51902500D01*
X81529403Y-51902500D01*
X81226918Y-51902501D01*
X81223968Y-51902780D01*
X81223963Y-51902780D01*
X81203900Y-51904676D01*
X81203899Y-51904676D01*
X81196250Y-51905399D01*
X81189002Y-51907944D01*
X81188999Y-51907945D01*
X81080871Y-51945917D01*
X81080869Y-51945918D01*
X81071982Y-51949039D01*
X81064407Y-51954634D01*
X81064405Y-51954635D01*
X81061324Y-51956911D01*
X80966039Y-52027289D01*
X80960447Y-52034860D01*
X80905284Y-52109546D01*
X80887789Y-52133232D01*
X80884667Y-52142122D01*
X80876194Y-52166249D01*
X80834751Y-52223894D01*
X80768721Y-52249982D01*
X80757312Y-52250500D01*
X80316188Y-52250500D01*
X80248067Y-52230498D01*
X80201574Y-52176842D01*
X80197306Y-52166249D01*
X80188833Y-52142122D01*
X80185711Y-52133232D01*
X80168217Y-52109546D01*
X80113053Y-52034860D01*
X80107461Y-52027289D01*
X80012176Y-51956911D01*
X80009095Y-51954635D01*
X80009093Y-51954634D01*
X80001518Y-51949039D01*
X79992631Y-51945918D01*
X79992629Y-51945917D01*
X79884498Y-51907944D01*
X79884496Y-51907943D01*
X79877250Y-51905399D01*
X79869606Y-51904676D01*
X79869604Y-51904676D01*
X79861629Y-51903922D01*
X79846583Y-51902500D01*
X79506922Y-51902500D01*
X79166918Y-51902501D01*
X79163968Y-51902780D01*
X79163963Y-51902780D01*
X79143900Y-51904676D01*
X79143899Y-51904676D01*
X79136250Y-51905399D01*
X79129002Y-51907944D01*
X79128999Y-51907945D01*
X79020871Y-51945917D01*
X79020869Y-51945918D01*
X79011982Y-51949039D01*
X79004407Y-51954634D01*
X79004405Y-51954635D01*
X79001324Y-51956911D01*
X78906039Y-52027289D01*
X78900447Y-52034860D01*
X78845284Y-52109546D01*
X78827789Y-52133232D01*
X78824668Y-52142119D01*
X78824667Y-52142121D01*
X78787250Y-52248670D01*
X78784149Y-52257500D01*
X78783426Y-52265144D01*
X78783426Y-52265146D01*
X78782672Y-52273121D01*
X78781250Y-52288167D01*
X78781250Y-52421234D01*
X78761248Y-52489355D01*
X78707592Y-52535848D01*
X78637318Y-52545952D01*
X78572738Y-52516458D01*
X78566155Y-52510329D01*
X78519154Y-52463328D01*
X78485128Y-52401016D01*
X78482249Y-52374233D01*
X78482249Y-52288168D01*
X78481678Y-52282118D01*
X78480074Y-52265150D01*
X78480074Y-52265149D01*
X78479351Y-52257500D01*
X78476250Y-52248670D01*
X78438833Y-52142121D01*
X78438832Y-52142119D01*
X78435711Y-52133232D01*
X78418217Y-52109546D01*
X78363053Y-52034860D01*
X78357461Y-52027289D01*
X78262176Y-51956911D01*
X78259095Y-51954635D01*
X78259093Y-51954634D01*
X78251518Y-51949039D01*
X78242631Y-51945918D01*
X78242629Y-51945917D01*
X78134498Y-51907944D01*
X78134496Y-51907943D01*
X78127250Y-51905399D01*
X78119606Y-51904676D01*
X78119604Y-51904676D01*
X78111629Y-51903922D01*
X78096583Y-51902500D01*
X77756922Y-51902500D01*
X77416918Y-51902501D01*
X77413968Y-51902780D01*
X77413963Y-51902780D01*
X77393900Y-51904676D01*
X77393899Y-51904676D01*
X77386250Y-51905399D01*
X77379002Y-51907944D01*
X77378999Y-51907945D01*
X77270871Y-51945917D01*
X77270869Y-51945918D01*
X77261982Y-51949039D01*
X77254407Y-51954634D01*
X77254405Y-51954635D01*
X77251324Y-51956911D01*
X77156039Y-52027289D01*
X77150447Y-52034860D01*
X77095284Y-52109546D01*
X77077789Y-52133232D01*
X77074668Y-52142119D01*
X77074667Y-52142121D01*
X77037250Y-52248670D01*
X77034149Y-52257500D01*
X77033426Y-52265144D01*
X77033426Y-52265146D01*
X77032672Y-52273121D01*
X77031250Y-52288167D01*
X77031251Y-52867832D01*
X77031530Y-52870781D01*
X77031530Y-52870787D01*
X77033426Y-52890850D01*
X77034149Y-52898500D01*
X77036695Y-52905751D01*
X77038340Y-52913247D01*
X77036780Y-52913589D01*
X77040008Y-52975568D01*
X77004783Y-53037210D01*
X76965647Y-53062816D01*
X76907484Y-53086908D01*
X76845016Y-53134841D01*
X76801197Y-53168465D01*
X76782043Y-53183162D01*
X76685789Y-53308603D01*
X76625281Y-53454682D01*
X76604643Y-53611444D01*
X76327500Y-53611444D01*
X76327500Y-48844387D01*
X76347502Y-48776266D01*
X76401158Y-48729773D01*
X76471432Y-48719669D01*
X76536012Y-48749163D01*
X76571011Y-48798922D01*
X76577386Y-48815401D01*
X76578801Y-48818195D01*
X76578804Y-48818203D01*
X76681945Y-49021944D01*
X76756083Y-49168395D01*
X76968955Y-49501895D01*
X77213898Y-49812603D01*
X77216073Y-49814859D01*
X77216078Y-49814865D01*
X77272708Y-49873609D01*
X77488489Y-50097448D01*
X77490882Y-50099481D01*
X77787619Y-50351578D01*
X77787627Y-50351585D01*
X77790014Y-50353612D01*
X77792594Y-50355395D01*
X78112917Y-50576785D01*
X78112926Y-50576790D01*
X78115489Y-50578562D01*
X78118224Y-50580075D01*
X78118229Y-50580078D01*
X78185234Y-50617143D01*
X78461698Y-50770074D01*
X78464567Y-50771307D01*
X78464578Y-50771312D01*
X78822347Y-50925021D01*
X78825215Y-50926253D01*
X78828192Y-50927194D01*
X78828196Y-50927196D01*
X78956971Y-50967922D01*
X79202447Y-51045556D01*
X79589663Y-51126802D01*
X79592781Y-51127138D01*
X79980582Y-51168925D01*
X79980585Y-51168925D01*
X79983033Y-51169189D01*
X79985496Y-51169260D01*
X79985497Y-51169260D01*
X79989146Y-51169365D01*
X80040351Y-51170840D01*
X80311412Y-51170840D01*
X80312975Y-51170762D01*
X80312983Y-51170762D01*
X80409351Y-51165964D01*
X80607218Y-51156114D01*
X80610303Y-51155650D01*
X80610305Y-51155650D01*
X80995376Y-51097757D01*
X80998469Y-51097292D01*
X81199644Y-51046200D01*
X81378899Y-51000675D01*
X81378902Y-51000674D01*
X81381942Y-50999902D01*
X81485661Y-50962254D01*
X81750909Y-50865974D01*
X81750919Y-50865970D01*
X81753847Y-50864907D01*
X82110506Y-50693642D01*
X82448391Y-50487801D01*
X82764161Y-50249419D01*
X82766443Y-50247309D01*
X82766452Y-50247302D01*
X83052397Y-49982976D01*
X83054694Y-49980853D01*
X83142981Y-49881238D01*
X83315032Y-49687111D01*
X83315037Y-49687105D01*
X83317116Y-49684759D01*
X83548833Y-49364066D01*
X83747553Y-49021944D01*
X83788271Y-48932391D01*
X83910019Y-48664619D01*
X83910020Y-48664616D01*
X83911311Y-48661777D01*
X83931057Y-48603609D01*
X83980278Y-48458608D01*
X84038488Y-48287127D01*
X84127826Y-47901697D01*
X84129045Y-47901980D01*
X84158583Y-47842942D01*
X84219634Y-47806703D01*
X84290586Y-47809223D01*
X84350781Y-47852080D01*
X84402692Y-47919733D01*
X84402695Y-47919736D01*
X84407718Y-47926282D01*
X84533159Y-48022536D01*
X84538450Y-48024728D01*
X84586636Y-48075262D01*
X84600074Y-48144975D01*
X84573688Y-48210886D01*
X84538776Y-48241137D01*
X84533159Y-48243464D01*
X84407718Y-48339718D01*
X84311464Y-48465159D01*
X84250956Y-48611238D01*
X84230318Y-48768000D01*
X84250956Y-48924762D01*
X84311464Y-49070841D01*
X84407718Y-49196282D01*
X84533159Y-49292536D01*
X84538450Y-49294728D01*
X84586636Y-49345262D01*
X84600074Y-49414975D01*
X84573688Y-49480886D01*
X84538776Y-49511137D01*
X84533159Y-49513464D01*
X84407718Y-49609718D01*
X84311464Y-49735159D01*
X84250956Y-49881238D01*
X84230318Y-50038000D01*
X84250956Y-50194762D01*
X84311464Y-50340841D01*
X84407718Y-50466282D01*
X84533159Y-50562536D01*
X84560605Y-50573905D01*
X84615885Y-50618451D01*
X84638307Y-50685814D01*
X84637104Y-50708245D01*
X84631140Y-50749722D01*
X84631139Y-50749737D01*
X84630500Y-50754181D01*
X84630500Y-50914597D01*
X84636102Y-50962254D01*
X84649655Y-51019102D01*
X84649938Y-51020125D01*
X84649945Y-51020154D01*
X84651348Y-51025232D01*
X84653530Y-51033132D01*
X84657254Y-51039498D01*
X84665273Y-51109659D01*
X84633921Y-51173358D01*
X84573107Y-51209994D01*
X84557574Y-51213042D01*
X84541904Y-51215105D01*
X84395825Y-51275613D01*
X84270384Y-51371867D01*
X84174130Y-51497308D01*
X84113622Y-51643387D01*
X84092984Y-51800149D01*
X84113622Y-51956911D01*
X84174130Y-52102990D01*
X84179158Y-52109543D01*
X84179160Y-52109546D01*
X84235101Y-52182450D01*
X84260702Y-52248670D01*
X84246437Y-52318219D01*
X84211843Y-52359116D01*
X84160268Y-52398691D01*
X84160264Y-52398695D01*
X84153718Y-52403718D01*
X84148695Y-52410264D01*
X84138511Y-52423536D01*
X84057464Y-52529159D01*
X83996956Y-52675238D01*
X83976318Y-52832000D01*
X83996956Y-52988762D01*
X84057464Y-53134841D01*
X84121120Y-53217799D01*
X84146290Y-53250601D01*
X84153718Y-53260282D01*
X84160264Y-53265305D01*
X84170945Y-53273501D01*
X84279159Y-53356536D01*
X84425238Y-53417044D01*
X84582000Y-53437682D01*
X84590188Y-53436604D01*
X84730574Y-53418122D01*
X84738762Y-53417044D01*
X84884841Y-53356536D01*
X84891392Y-53351509D01*
X84891396Y-53351507D01*
X84964061Y-53295750D01*
X85026123Y-53271757D01*
X85035125Y-53230378D01*
X85045750Y-53214060D01*
X85101506Y-53141397D01*
X85101509Y-53141392D01*
X85106536Y-53134841D01*
X85167044Y-52988762D01*
X85187682Y-52832000D01*
X85167044Y-52675238D01*
X85106536Y-52529159D01*
X85051067Y-52456870D01*
X85025467Y-52390649D01*
X85039732Y-52321101D01*
X85089333Y-52270305D01*
X85158523Y-52254389D01*
X85224733Y-52277971D01*
X85240819Y-52289572D01*
X85306200Y-52317246D01*
X85329908Y-52325612D01*
X85338904Y-52326095D01*
X85338906Y-52326095D01*
X85414162Y-52330132D01*
X85414165Y-52330132D01*
X85421233Y-52330511D01*
X85491197Y-52318443D01*
X85495473Y-52317056D01*
X85495478Y-52317055D01*
X85522441Y-52308310D01*
X85546834Y-52300399D01*
X85550870Y-52298417D01*
X85550876Y-52298415D01*
X85556007Y-52295896D01*
X85611536Y-52283000D01*
X87295448Y-52283000D01*
X87350781Y-52295800D01*
X87357534Y-52299101D01*
X87391215Y-52323125D01*
X87395696Y-52327598D01*
X87419786Y-52361248D01*
X87423106Y-52368011D01*
X87436000Y-52423536D01*
X87436000Y-52732448D01*
X87423200Y-52787781D01*
X87419900Y-52794533D01*
X87395875Y-52828215D01*
X87391402Y-52832696D01*
X87357752Y-52856786D01*
X87350989Y-52860106D01*
X87295464Y-52873000D01*
X85878980Y-52873000D01*
X85867423Y-52873619D01*
X85858710Y-52874086D01*
X85858700Y-52874087D01*
X85857017Y-52874177D01*
X85830234Y-52877056D01*
X85753711Y-52901016D01*
X85691399Y-52935041D01*
X85644575Y-52970093D01*
X85641391Y-52973277D01*
X85234807Y-53379860D01*
X85172495Y-53413885D01*
X85162947Y-53413202D01*
X85142523Y-53470017D01*
X85129864Y-53484804D01*
X84983405Y-53631262D01*
X84977205Y-53637739D01*
X84976770Y-53638214D01*
X84974217Y-53640999D01*
X84908610Y-53678879D01*
X84904995Y-53679681D01*
X84904953Y-53679691D01*
X84904289Y-53679838D01*
X84903670Y-53679990D01*
X84903642Y-53679996D01*
X84896213Y-53681814D01*
X84896186Y-53681821D01*
X84895585Y-53681968D01*
X84894963Y-53682135D01*
X84894950Y-53682138D01*
X84880466Y-53686019D01*
X84876204Y-53687161D01*
X84874975Y-53687546D01*
X84874964Y-53687549D01*
X84861119Y-53691884D01*
X84861111Y-53691887D01*
X84859874Y-53692274D01*
X84858664Y-53692709D01*
X84858643Y-53692716D01*
X84845613Y-53697400D01*
X84845610Y-53697402D01*
X84840142Y-53699367D01*
X84835128Y-53702302D01*
X84835123Y-53702304D01*
X84800380Y-53722639D01*
X84775084Y-53737445D01*
X84721428Y-53783938D01*
X84703473Y-53801531D01*
X84658826Y-53881349D01*
X84656832Y-53888141D01*
X84640253Y-53944604D01*
X84638824Y-53949470D01*
X84638184Y-53953918D01*
X84638183Y-53953925D01*
X84631139Y-54002918D01*
X84631138Y-54002925D01*
X84630500Y-54007366D01*
X84630500Y-59589972D01*
X84634213Y-59628862D01*
X84634781Y-59631808D01*
X84641343Y-59665855D01*
X84643238Y-59675690D01*
X84683490Y-59763830D01*
X84727377Y-59819638D01*
X84744095Y-59838411D01*
X84750912Y-59842662D01*
X84789830Y-59901450D01*
X84790794Y-59972440D01*
X84785836Y-59986803D01*
X84759617Y-60050102D01*
X84759616Y-60050107D01*
X84756456Y-60057735D01*
X84735818Y-60214497D01*
X84756456Y-60371259D01*
X84759615Y-60378886D01*
X84759616Y-60378889D01*
X84786910Y-60444782D01*
X84794499Y-60515372D01*
X84762719Y-60578859D01*
X84753014Y-60588224D01*
X84722892Y-60614325D01*
X84722884Y-60614332D01*
X84721428Y-60615594D01*
X84703473Y-60633187D01*
X84658826Y-60713005D01*
X84638824Y-60781126D01*
X84638184Y-60785574D01*
X84638183Y-60785581D01*
X84631139Y-60834574D01*
X84631138Y-60834581D01*
X84630500Y-60839022D01*
X84630500Y-61596000D01*
X84635196Y-61639681D01*
X84646582Y-61692023D01*
X84649070Y-61702203D01*
X84692079Y-61782916D01*
X84738572Y-61836572D01*
X84756165Y-61854527D01*
X84835983Y-61899174D01*
X84856588Y-61905224D01*
X84899781Y-61917907D01*
X84899785Y-61917908D01*
X84904104Y-61919176D01*
X84908552Y-61919816D01*
X84908559Y-61919817D01*
X84957552Y-61926861D01*
X84957559Y-61926862D01*
X84962000Y-61927500D01*
X93854000Y-61927500D01*
X93857346Y-61927140D01*
X93857351Y-61927140D01*
X93894317Y-61923166D01*
X93894323Y-61923165D01*
X93897681Y-61922804D01*
X93950023Y-61911418D01*
X93950717Y-61911248D01*
X93950736Y-61911244D01*
X93951870Y-61910967D01*
X93960203Y-61908930D01*
X94040916Y-61865921D01*
X94054066Y-61854527D01*
X94093111Y-61820694D01*
X94093112Y-61820693D01*
X94094572Y-61819428D01*
X94112527Y-61801835D01*
X94123718Y-61781828D01*
X94174429Y-61732140D01*
X94243954Y-61717757D01*
X94310218Y-61743245D01*
X94337550Y-61772009D01*
X94340750Y-61776669D01*
X94344079Y-61782916D01*
X94390572Y-61836572D01*
X94408165Y-61854527D01*
X94487983Y-61899174D01*
X94508588Y-61905224D01*
X94551781Y-61917907D01*
X94551785Y-61917908D01*
X94556104Y-61919176D01*
X94560552Y-61919816D01*
X94560559Y-61919817D01*
X94609552Y-61926861D01*
X94609559Y-61926862D01*
X94614000Y-61927500D01*
X103379000Y-61927500D01*
X103382346Y-61927140D01*
X103382351Y-61927140D01*
X103419317Y-61923166D01*
X103419323Y-61923165D01*
X103422681Y-61922804D01*
X103475023Y-61911418D01*
X103475717Y-61911248D01*
X103475736Y-61911244D01*
X103476870Y-61910967D01*
X103485203Y-61908930D01*
X103565916Y-61865921D01*
X103579066Y-61854527D01*
X103618111Y-61820694D01*
X103618112Y-61820693D01*
X103619572Y-61819428D01*
X103637527Y-61801835D01*
X103682174Y-61722017D01*
X103702176Y-61653896D01*
X103702817Y-61649441D01*
X103709861Y-61600448D01*
X103709862Y-61600441D01*
X103710500Y-61596000D01*
X103710500Y-55682218D01*
X106201500Y-55682218D01*
X106202170Y-55686768D01*
X106202170Y-55686771D01*
X106210216Y-55741426D01*
X106211642Y-55751112D01*
X106263068Y-55855855D01*
X106345650Y-55938293D01*
X106450482Y-55989536D01*
X106480973Y-55993984D01*
X106514256Y-55998840D01*
X106514260Y-55998840D01*
X106518782Y-55999500D01*
X108235218Y-55999500D01*
X108239768Y-55998830D01*
X108239771Y-55998830D01*
X108294426Y-55990784D01*
X108294427Y-55990784D01*
X108304112Y-55989358D01*
X108398804Y-55942867D01*
X108399507Y-55942522D01*
X108399509Y-55942521D01*
X108408855Y-55937932D01*
X108491293Y-55855350D01*
X108542536Y-55750518D01*
X108552500Y-55682218D01*
X108552500Y-55315782D01*
X108543871Y-55257162D01*
X108543784Y-55256574D01*
X108543784Y-55256573D01*
X108542358Y-55246888D01*
X108490932Y-55142145D01*
X108431677Y-55082994D01*
X108397598Y-55020712D01*
X108402601Y-54949892D01*
X108431600Y-54904726D01*
X109050710Y-54285616D01*
X109113022Y-54251590D01*
X109156249Y-54249789D01*
X109220000Y-54258182D01*
X109228188Y-54257104D01*
X109283752Y-54249789D01*
X109298381Y-54247863D01*
X109368574Y-54238622D01*
X109376762Y-54237544D01*
X109522841Y-54177036D01*
X109648282Y-54080782D01*
X109744536Y-53955341D01*
X109805044Y-53809262D01*
X109825682Y-53652500D01*
X109805044Y-53495738D01*
X109744536Y-53349659D01*
X109668526Y-53250601D01*
X109653309Y-53230769D01*
X109653308Y-53230768D01*
X109648282Y-53224218D01*
X109641729Y-53219190D01*
X109635891Y-53213352D01*
X109637196Y-53212047D01*
X109601413Y-53163051D01*
X109597185Y-53092180D01*
X109618629Y-53045557D01*
X109629865Y-53030345D01*
X109629866Y-53030343D01*
X109635461Y-53022768D01*
X109638708Y-53013524D01*
X109676556Y-52905748D01*
X109676557Y-52905746D01*
X109679101Y-52898500D01*
X109682000Y-52867833D01*
X109681999Y-52288168D01*
X109681428Y-52282118D01*
X109679824Y-52265150D01*
X109679824Y-52265149D01*
X109679101Y-52257500D01*
X109676000Y-52248670D01*
X109638583Y-52142121D01*
X109638582Y-52142119D01*
X109635461Y-52133232D01*
X109617967Y-52109546D01*
X109562803Y-52034860D01*
X109557211Y-52027289D01*
X109461926Y-51956911D01*
X109458845Y-51954635D01*
X109458843Y-51954634D01*
X109451268Y-51949039D01*
X109442381Y-51945918D01*
X109442379Y-51945917D01*
X109334248Y-51907944D01*
X109334246Y-51907943D01*
X109327000Y-51905399D01*
X109319356Y-51904676D01*
X109319354Y-51904676D01*
X109311379Y-51903922D01*
X109296333Y-51902500D01*
X108956672Y-51902500D01*
X108616668Y-51902501D01*
X108613718Y-51902780D01*
X108613713Y-51902780D01*
X108593650Y-51904676D01*
X108593649Y-51904676D01*
X108586000Y-51905399D01*
X108578752Y-51907944D01*
X108578749Y-51907945D01*
X108470621Y-51945917D01*
X108470619Y-51945918D01*
X108461732Y-51949039D01*
X108454157Y-51954634D01*
X108454155Y-51954635D01*
X108451074Y-51956911D01*
X108355789Y-52027289D01*
X108350197Y-52034860D01*
X108295034Y-52109546D01*
X108277539Y-52133232D01*
X108274417Y-52142122D01*
X108265944Y-52166249D01*
X108224501Y-52223894D01*
X108158471Y-52249982D01*
X108147062Y-52250500D01*
X107705938Y-52250500D01*
X107637817Y-52230498D01*
X107591324Y-52176842D01*
X107587056Y-52166249D01*
X107578583Y-52142122D01*
X107575461Y-52133232D01*
X107557967Y-52109546D01*
X107502803Y-52034860D01*
X107497211Y-52027289D01*
X107401926Y-51956911D01*
X107398845Y-51954635D01*
X107398843Y-51954634D01*
X107391268Y-51949039D01*
X107382381Y-51945918D01*
X107382379Y-51945917D01*
X107274248Y-51907944D01*
X107274246Y-51907943D01*
X107267000Y-51905399D01*
X107259356Y-51904676D01*
X107259354Y-51904676D01*
X107251379Y-51903922D01*
X107236333Y-51902500D01*
X106934153Y-51902500D01*
X106631668Y-51902501D01*
X106628718Y-51902780D01*
X106628713Y-51902780D01*
X106608650Y-51904676D01*
X106608649Y-51904676D01*
X106601000Y-51905399D01*
X106593752Y-51907944D01*
X106593749Y-51907945D01*
X106485621Y-51945917D01*
X106485619Y-51945918D01*
X106476732Y-51949039D01*
X106469157Y-51954634D01*
X106469155Y-51954635D01*
X106466074Y-51956911D01*
X106370789Y-52027289D01*
X106365197Y-52034860D01*
X106310034Y-52109546D01*
X106292539Y-52133232D01*
X106289418Y-52142119D01*
X106289417Y-52142121D01*
X106252000Y-52248670D01*
X106248899Y-52257500D01*
X106248176Y-52265144D01*
X106248176Y-52265146D01*
X106247422Y-52273121D01*
X106246000Y-52288167D01*
X106246001Y-52867832D01*
X106246280Y-52870781D01*
X106246280Y-52870787D01*
X106248176Y-52890850D01*
X106248899Y-52898500D01*
X106251444Y-52905748D01*
X106251445Y-52905751D01*
X106289293Y-53013524D01*
X106292539Y-53022768D01*
X106298134Y-53030343D01*
X106298135Y-53030345D01*
X106337579Y-53083748D01*
X106370789Y-53128711D01*
X106378360Y-53134303D01*
X106469155Y-53201365D01*
X106469157Y-53201366D01*
X106476732Y-53206961D01*
X106485619Y-53210082D01*
X106485621Y-53210083D01*
X106593752Y-53248056D01*
X106593754Y-53248057D01*
X106601000Y-53250601D01*
X106608644Y-53251324D01*
X106608646Y-53251324D01*
X106616032Y-53252022D01*
X106631667Y-53253500D01*
X106933847Y-53253500D01*
X107236332Y-53253499D01*
X107239282Y-53253220D01*
X107239287Y-53253220D01*
X107259350Y-53251324D01*
X107259351Y-53251324D01*
X107267000Y-53250601D01*
X107274248Y-53248056D01*
X107274251Y-53248055D01*
X107352709Y-53220502D01*
X107423609Y-53216803D01*
X107485254Y-53252022D01*
X107518072Y-53314979D01*
X107519380Y-53355829D01*
X107508061Y-53441806D01*
X107528699Y-53598568D01*
X107589207Y-53744647D01*
X107685461Y-53870088D01*
X107810902Y-53966342D01*
X107956981Y-54026850D01*
X108085270Y-54043739D01*
X108150196Y-54072461D01*
X108189288Y-54131726D01*
X108190133Y-54202718D01*
X108157918Y-54257756D01*
X107454079Y-54961595D01*
X107391767Y-54995621D01*
X107364984Y-54998500D01*
X106518782Y-54998500D01*
X106514232Y-54999170D01*
X106514229Y-54999170D01*
X106459574Y-55007216D01*
X106459573Y-55007216D01*
X106449888Y-55008642D01*
X106399992Y-55033140D01*
X106354493Y-55055478D01*
X106354491Y-55055479D01*
X106345145Y-55060068D01*
X106262707Y-55142650D01*
X106211464Y-55247482D01*
X106201500Y-55315782D01*
X106201500Y-55682218D01*
X103710500Y-55682218D01*
X103710500Y-53533582D01*
X103730502Y-53465461D01*
X103784158Y-53418968D01*
X103788858Y-53417276D01*
X103788762Y-53417044D01*
X103798037Y-53413202D01*
X103934841Y-53356536D01*
X104043055Y-53273501D01*
X104053736Y-53265305D01*
X104060282Y-53260282D01*
X104067711Y-53250601D01*
X104092880Y-53217799D01*
X104156536Y-53134841D01*
X104217044Y-52988762D01*
X104237682Y-52832000D01*
X104217044Y-52675238D01*
X104156536Y-52529159D01*
X104075489Y-52423536D01*
X104065305Y-52410264D01*
X104060282Y-52403718D01*
X103934841Y-52307464D01*
X103788762Y-52246956D01*
X103790096Y-52243735D01*
X103743203Y-52215104D01*
X103712229Y-52151220D01*
X103710500Y-52130418D01*
X103710500Y-43433500D01*
X103730502Y-43365379D01*
X103784158Y-43318886D01*
X103836500Y-43307500D01*
X106514910Y-43307500D01*
X106583031Y-43327502D01*
G37*
G04 #@! TD.AperFunction*
G04 #@! TA.AperFunction,Conductor*
G36*
X93922121Y-43327502D02*
G01*
X93968614Y-43381158D01*
X93980000Y-43433500D01*
X93980000Y-44331500D01*
X93959998Y-44399621D01*
X93906342Y-44446114D01*
X93854000Y-44457500D01*
X92507782Y-44457500D01*
X92503232Y-44458170D01*
X92503229Y-44458170D01*
X92448574Y-44466216D01*
X92448573Y-44466216D01*
X92438888Y-44467642D01*
X92388992Y-44492140D01*
X92343493Y-44514478D01*
X92343491Y-44514479D01*
X92334145Y-44519068D01*
X92251707Y-44601650D01*
X92200464Y-44706482D01*
X92190500Y-44774782D01*
X92190500Y-45141218D01*
X92191170Y-45145768D01*
X92191170Y-45145771D01*
X92199216Y-45200426D01*
X92200642Y-45210112D01*
X92252068Y-45314855D01*
X92334650Y-45397293D01*
X92439482Y-45448536D01*
X92469973Y-45452984D01*
X92503256Y-45457840D01*
X92503260Y-45457840D01*
X92507782Y-45458500D01*
X93854000Y-45458500D01*
X93922121Y-45478502D01*
X93968614Y-45532158D01*
X93980000Y-45584500D01*
X93980000Y-45601500D01*
X93959998Y-45669621D01*
X93906342Y-45716114D01*
X93854000Y-45727500D01*
X92507782Y-45727500D01*
X92503232Y-45728170D01*
X92503229Y-45728170D01*
X92448574Y-45736216D01*
X92448573Y-45736216D01*
X92438888Y-45737642D01*
X92388992Y-45762140D01*
X92343493Y-45784478D01*
X92343491Y-45784479D01*
X92334145Y-45789068D01*
X92251707Y-45871650D01*
X92200464Y-45976482D01*
X92190500Y-46044782D01*
X92190500Y-46411218D01*
X92191170Y-46415768D01*
X92191170Y-46415771D01*
X92199216Y-46470426D01*
X92200642Y-46480112D01*
X92252068Y-46584855D01*
X92334650Y-46667293D01*
X92439482Y-46718536D01*
X92469973Y-46722984D01*
X92503256Y-46727840D01*
X92503260Y-46727840D01*
X92507782Y-46728500D01*
X93854000Y-46728500D01*
X93922121Y-46748502D01*
X93968614Y-46802158D01*
X93980000Y-46854500D01*
X93980000Y-46871500D01*
X93959998Y-46939621D01*
X93906342Y-46986114D01*
X93854000Y-46997500D01*
X92507782Y-46997500D01*
X92503232Y-46998170D01*
X92503229Y-46998170D01*
X92448574Y-47006216D01*
X92448573Y-47006216D01*
X92438888Y-47007642D01*
X92388992Y-47032140D01*
X92343493Y-47054478D01*
X92343491Y-47054479D01*
X92334145Y-47059068D01*
X92251707Y-47141650D01*
X92200464Y-47246482D01*
X92190500Y-47314782D01*
X92190500Y-47681218D01*
X92191170Y-47685768D01*
X92191170Y-47685771D01*
X92199216Y-47740426D01*
X92200642Y-47750112D01*
X92252068Y-47854855D01*
X92334650Y-47937293D01*
X92439482Y-47988536D01*
X92469973Y-47992984D01*
X92503256Y-47997840D01*
X92503260Y-47997840D01*
X92507782Y-47998500D01*
X93854000Y-47998500D01*
X93922121Y-48018502D01*
X93968614Y-48072158D01*
X93980000Y-48124500D01*
X93980000Y-48141500D01*
X93959998Y-48209621D01*
X93906342Y-48256114D01*
X93854000Y-48267500D01*
X92507782Y-48267500D01*
X92503232Y-48268170D01*
X92503229Y-48268170D01*
X92448574Y-48276216D01*
X92448573Y-48276216D01*
X92438888Y-48277642D01*
X92388992Y-48302140D01*
X92343493Y-48324478D01*
X92343491Y-48324479D01*
X92334145Y-48329068D01*
X92251707Y-48411650D01*
X92200464Y-48516482D01*
X92190500Y-48584782D01*
X92190500Y-48951218D01*
X92191170Y-48955768D01*
X92191170Y-48955771D01*
X92199216Y-49010426D01*
X92200642Y-49020112D01*
X92252068Y-49124855D01*
X92334650Y-49207293D01*
X92439482Y-49258536D01*
X92469973Y-49262984D01*
X92503256Y-49267840D01*
X92503260Y-49267840D01*
X92507782Y-49268500D01*
X93854000Y-49268500D01*
X93922121Y-49288502D01*
X93968614Y-49342158D01*
X93980000Y-49394500D01*
X93980000Y-49411500D01*
X93959998Y-49479621D01*
X93906342Y-49526114D01*
X93854000Y-49537500D01*
X92507782Y-49537500D01*
X92503232Y-49538170D01*
X92503229Y-49538170D01*
X92448574Y-49546216D01*
X92448573Y-49546216D01*
X92438888Y-49547642D01*
X92388992Y-49572140D01*
X92343493Y-49594478D01*
X92343491Y-49594479D01*
X92334145Y-49599068D01*
X92251707Y-49681650D01*
X92200464Y-49786482D01*
X92190500Y-49854782D01*
X92190500Y-50221218D01*
X92191170Y-50225768D01*
X92191170Y-50225771D01*
X92199216Y-50280426D01*
X92200642Y-50290112D01*
X92252068Y-50394855D01*
X92334650Y-50477293D01*
X92344006Y-50481866D01*
X92344007Y-50481867D01*
X92376460Y-50497730D01*
X92439482Y-50528536D01*
X92469973Y-50532984D01*
X92503256Y-50537840D01*
X92503260Y-50537840D01*
X92507782Y-50538500D01*
X92925000Y-50538500D01*
X92993121Y-50558502D01*
X93039614Y-50612158D01*
X93051000Y-50664500D01*
X93051000Y-50681500D01*
X93030998Y-50749621D01*
X92977342Y-50796114D01*
X92925000Y-50807500D01*
X92507782Y-50807500D01*
X92503232Y-50808170D01*
X92503229Y-50808170D01*
X92448574Y-50816216D01*
X92448573Y-50816216D01*
X92438888Y-50817642D01*
X92388992Y-50842140D01*
X92343493Y-50864478D01*
X92343491Y-50864479D01*
X92334145Y-50869068D01*
X92251707Y-50951650D01*
X92200464Y-51056482D01*
X92190500Y-51124782D01*
X92190500Y-51491218D01*
X92191170Y-51495768D01*
X92191170Y-51495771D01*
X92199216Y-51550426D01*
X92200642Y-51560112D01*
X92252068Y-51664855D01*
X92334650Y-51747293D01*
X92439482Y-51798536D01*
X92469973Y-51802984D01*
X92503256Y-51807840D01*
X92503260Y-51807840D01*
X92507782Y-51808500D01*
X93854000Y-51808500D01*
X93922121Y-51828502D01*
X93968614Y-51882158D01*
X93980000Y-51934500D01*
X93980000Y-51951500D01*
X93959998Y-52019621D01*
X93906342Y-52066114D01*
X93854000Y-52077500D01*
X92507782Y-52077500D01*
X92503232Y-52078170D01*
X92503229Y-52078170D01*
X92448574Y-52086216D01*
X92448573Y-52086216D01*
X92438888Y-52087642D01*
X92413052Y-52100327D01*
X92343493Y-52134478D01*
X92343491Y-52134479D01*
X92334145Y-52139068D01*
X92251707Y-52221650D01*
X92200464Y-52326482D01*
X92190500Y-52394782D01*
X92190500Y-52761218D01*
X92191170Y-52765768D01*
X92191170Y-52765771D01*
X92199216Y-52820426D01*
X92200642Y-52830112D01*
X92252068Y-52934855D01*
X92334650Y-53017293D01*
X92439482Y-53068536D01*
X92469973Y-53072984D01*
X92503256Y-53077840D01*
X92503260Y-53077840D01*
X92507782Y-53078500D01*
X93854000Y-53078500D01*
X93922121Y-53098502D01*
X93968614Y-53152158D01*
X93980000Y-53204500D01*
X93980000Y-61596000D01*
X93959998Y-61664121D01*
X93906342Y-61710614D01*
X93854000Y-61722000D01*
X84962000Y-61722000D01*
X84893879Y-61701998D01*
X84847386Y-61648342D01*
X84836000Y-61596000D01*
X84836000Y-60839022D01*
X84856002Y-60770901D01*
X84909658Y-60724408D01*
X84979932Y-60714304D01*
X85024999Y-60729902D01*
X85032107Y-60734006D01*
X85038659Y-60739033D01*
X85184738Y-60799541D01*
X85341500Y-60820179D01*
X85349688Y-60819101D01*
X85490074Y-60800619D01*
X85498262Y-60799541D01*
X85644341Y-60739033D01*
X85769782Y-60642779D01*
X85866036Y-60517338D01*
X85926544Y-60371259D01*
X85947182Y-60214497D01*
X85926544Y-60057735D01*
X85866036Y-59911656D01*
X85769782Y-59786215D01*
X85644341Y-59689961D01*
X85498262Y-59629453D01*
X85341500Y-59608815D01*
X85184738Y-59629453D01*
X85038659Y-59689961D01*
X85032107Y-59694988D01*
X85024999Y-59699092D01*
X84956003Y-59715829D01*
X84888912Y-59692608D01*
X84845025Y-59636800D01*
X84836000Y-59589972D01*
X84836000Y-54007366D01*
X84856002Y-53939245D01*
X84909658Y-53892752D01*
X84929390Y-53885659D01*
X84948771Y-53880466D01*
X84959501Y-53878087D01*
X84961824Y-53877677D01*
X84996873Y-53871497D01*
X85006419Y-53865986D01*
X85009787Y-53864760D01*
X85013033Y-53863246D01*
X85023677Y-53860394D01*
X85054769Y-53838623D01*
X85064028Y-53832725D01*
X85087345Y-53819263D01*
X85096894Y-53813750D01*
X85121289Y-53784677D01*
X85128715Y-53776573D01*
X85789885Y-53115404D01*
X85852197Y-53081379D01*
X85878980Y-53078500D01*
X87324218Y-53078500D01*
X87328768Y-53077830D01*
X87328771Y-53077830D01*
X87383426Y-53069784D01*
X87383427Y-53069784D01*
X87393112Y-53068358D01*
X87487804Y-53021867D01*
X87488507Y-53021522D01*
X87488509Y-53021521D01*
X87497855Y-53016932D01*
X87580293Y-52934350D01*
X87631536Y-52829518D01*
X87641500Y-52761218D01*
X87641500Y-52394782D01*
X87632871Y-52336162D01*
X87632784Y-52335574D01*
X87632784Y-52335573D01*
X87631358Y-52325888D01*
X87592485Y-52246713D01*
X87584522Y-52230493D01*
X87584521Y-52230491D01*
X87579932Y-52221145D01*
X87497350Y-52138707D01*
X87486150Y-52133232D01*
X87450759Y-52115933D01*
X87392518Y-52087464D01*
X87362027Y-52083016D01*
X87328744Y-52078160D01*
X87328740Y-52078160D01*
X87324218Y-52077500D01*
X85582782Y-52077500D01*
X85578232Y-52078170D01*
X85578229Y-52078170D01*
X85523574Y-52086216D01*
X85523573Y-52086216D01*
X85513888Y-52087642D01*
X85488052Y-52100327D01*
X85456266Y-52115933D01*
X85386302Y-52128001D01*
X85320921Y-52100327D01*
X85280880Y-52041699D01*
X85279028Y-51970220D01*
X85280550Y-51964540D01*
X85283710Y-51956911D01*
X85294387Y-51875814D01*
X85323108Y-51810888D01*
X85382373Y-51771796D01*
X85453364Y-51770951D01*
X85474635Y-51779058D01*
X85514482Y-51798536D01*
X85544973Y-51802984D01*
X85578256Y-51807840D01*
X85578260Y-51807840D01*
X85582782Y-51808500D01*
X87324218Y-51808500D01*
X87328768Y-51807830D01*
X87328771Y-51807830D01*
X87383426Y-51799784D01*
X87383427Y-51799784D01*
X87393112Y-51798358D01*
X87487804Y-51751867D01*
X87488507Y-51751522D01*
X87488509Y-51751521D01*
X87497855Y-51746932D01*
X87580293Y-51664350D01*
X87631536Y-51559518D01*
X87641500Y-51491218D01*
X87641500Y-51124782D01*
X87632871Y-51066162D01*
X87632784Y-51065574D01*
X87632784Y-51065573D01*
X87631358Y-51055888D01*
X87579932Y-50951145D01*
X87497350Y-50868707D01*
X87392518Y-50817464D01*
X87362027Y-50813016D01*
X87328744Y-50808160D01*
X87328740Y-50808160D01*
X87324218Y-50807500D01*
X85582782Y-50807500D01*
X85578232Y-50808170D01*
X85578229Y-50808170D01*
X85523574Y-50816216D01*
X85523573Y-50816216D01*
X85513888Y-50817642D01*
X85463992Y-50842140D01*
X85418493Y-50864478D01*
X85418491Y-50864479D01*
X85409145Y-50869068D01*
X85363696Y-50914597D01*
X85334825Y-50943518D01*
X85272543Y-50977597D01*
X85245652Y-50980500D01*
X85210609Y-50980500D01*
X85199626Y-50980020D01*
X85172816Y-50977674D01*
X85172815Y-50977674D01*
X85161831Y-50976713D01*
X85125162Y-50986538D01*
X85114448Y-50988913D01*
X85077076Y-50995503D01*
X85067527Y-51001017D01*
X85064155Y-51002244D01*
X85060921Y-51003752D01*
X85050272Y-51006605D01*
X85034270Y-51017810D01*
X84966998Y-51040498D01*
X84898138Y-51023214D01*
X84849553Y-50971445D01*
X84836000Y-50914597D01*
X84836000Y-50754181D01*
X84856002Y-50686060D01*
X84909658Y-50639567D01*
X84945554Y-50629259D01*
X84984574Y-50624122D01*
X84992762Y-50623044D01*
X85138841Y-50562536D01*
X85243971Y-50481867D01*
X85254327Y-50473921D01*
X85320548Y-50448321D01*
X85390096Y-50462586D01*
X85402761Y-50470416D01*
X85409650Y-50477293D01*
X85419001Y-50481864D01*
X85419004Y-50481866D01*
X85476835Y-50510134D01*
X85514482Y-50528536D01*
X85544973Y-50532984D01*
X85578256Y-50537840D01*
X85578260Y-50537840D01*
X85582782Y-50538500D01*
X87324218Y-50538500D01*
X87328768Y-50537830D01*
X87328771Y-50537830D01*
X87383426Y-50529784D01*
X87383427Y-50529784D01*
X87393112Y-50528358D01*
X87487806Y-50481866D01*
X87488507Y-50481522D01*
X87488509Y-50481521D01*
X87497855Y-50476932D01*
X87580293Y-50394350D01*
X87631536Y-50289518D01*
X87641500Y-50221218D01*
X87641500Y-49854782D01*
X87632871Y-49796162D01*
X87632784Y-49795574D01*
X87632784Y-49795573D01*
X87631358Y-49785888D01*
X87579932Y-49681145D01*
X87497350Y-49598707D01*
X87392518Y-49547464D01*
X87362027Y-49543016D01*
X87328744Y-49538160D01*
X87328740Y-49538160D01*
X87324218Y-49537500D01*
X85582782Y-49537500D01*
X85578232Y-49538170D01*
X85578229Y-49538170D01*
X85523574Y-49546216D01*
X85523573Y-49546216D01*
X85513888Y-49547642D01*
X85409145Y-49599068D01*
X85403249Y-49604974D01*
X85337357Y-49627967D01*
X85268319Y-49611404D01*
X85254338Y-49602088D01*
X85138841Y-49513464D01*
X85133550Y-49511272D01*
X85085364Y-49460738D01*
X85071926Y-49391025D01*
X85098312Y-49325114D01*
X85133224Y-49294863D01*
X85138841Y-49292536D01*
X85243971Y-49211867D01*
X85254327Y-49203921D01*
X85320548Y-49178321D01*
X85390096Y-49192586D01*
X85402761Y-49200416D01*
X85409650Y-49207293D01*
X85419001Y-49211864D01*
X85419004Y-49211866D01*
X85476835Y-49240134D01*
X85514482Y-49258536D01*
X85544973Y-49262984D01*
X85578256Y-49267840D01*
X85578260Y-49267840D01*
X85582782Y-49268500D01*
X87324218Y-49268500D01*
X87328768Y-49267830D01*
X87328771Y-49267830D01*
X87383426Y-49259784D01*
X87383427Y-49259784D01*
X87393112Y-49258358D01*
X87487806Y-49211866D01*
X87488507Y-49211522D01*
X87488509Y-49211521D01*
X87497855Y-49206932D01*
X87580293Y-49124350D01*
X87631536Y-49019518D01*
X87641500Y-48951218D01*
X87641500Y-48584782D01*
X87632871Y-48526162D01*
X87632784Y-48525574D01*
X87632784Y-48525573D01*
X87631358Y-48515888D01*
X87579932Y-48411145D01*
X87497350Y-48328707D01*
X87392518Y-48277464D01*
X87362027Y-48273016D01*
X87328744Y-48268160D01*
X87328740Y-48268160D01*
X87324218Y-48267500D01*
X85582782Y-48267500D01*
X85578232Y-48268170D01*
X85578229Y-48268170D01*
X85523574Y-48276216D01*
X85523573Y-48276216D01*
X85513888Y-48277642D01*
X85409145Y-48329068D01*
X85403249Y-48334974D01*
X85337357Y-48357967D01*
X85268319Y-48341404D01*
X85254338Y-48332088D01*
X85138841Y-48243464D01*
X85133550Y-48241272D01*
X85085364Y-48190738D01*
X85071926Y-48121025D01*
X85098312Y-48055114D01*
X85133224Y-48024863D01*
X85138841Y-48022536D01*
X85243971Y-47941867D01*
X85254327Y-47933921D01*
X85320548Y-47908321D01*
X85390096Y-47922586D01*
X85402761Y-47930416D01*
X85409650Y-47937293D01*
X85419001Y-47941864D01*
X85419004Y-47941866D01*
X85476835Y-47970134D01*
X85514482Y-47988536D01*
X85544973Y-47992984D01*
X85578256Y-47997840D01*
X85578260Y-47997840D01*
X85582782Y-47998500D01*
X87324218Y-47998500D01*
X87328768Y-47997830D01*
X87328771Y-47997830D01*
X87383426Y-47989784D01*
X87383427Y-47989784D01*
X87393112Y-47988358D01*
X87487806Y-47941866D01*
X87488507Y-47941522D01*
X87488509Y-47941521D01*
X87497855Y-47936932D01*
X87580293Y-47854350D01*
X87631536Y-47749518D01*
X87641500Y-47681218D01*
X87641500Y-47314782D01*
X87632871Y-47256162D01*
X87632784Y-47255574D01*
X87632784Y-47255573D01*
X87631358Y-47245888D01*
X87579932Y-47141145D01*
X87497350Y-47058707D01*
X87392518Y-47007464D01*
X87362027Y-47003016D01*
X87328744Y-46998160D01*
X87328740Y-46998160D01*
X87324218Y-46997500D01*
X85582782Y-46997500D01*
X85578232Y-46998170D01*
X85578229Y-46998170D01*
X85523574Y-47006216D01*
X85523573Y-47006216D01*
X85513888Y-47007642D01*
X85409145Y-47059068D01*
X85403249Y-47064974D01*
X85337357Y-47087967D01*
X85268319Y-47071404D01*
X85254338Y-47062088D01*
X85138841Y-46973464D01*
X85133550Y-46971272D01*
X85085364Y-46920738D01*
X85071926Y-46851025D01*
X85098312Y-46785114D01*
X85133224Y-46754863D01*
X85138841Y-46752536D01*
X85243971Y-46671867D01*
X85254327Y-46663921D01*
X85320548Y-46638321D01*
X85390096Y-46652586D01*
X85402761Y-46660416D01*
X85409650Y-46667293D01*
X85419001Y-46671864D01*
X85419004Y-46671866D01*
X85476835Y-46700134D01*
X85514482Y-46718536D01*
X85544973Y-46722984D01*
X85578256Y-46727840D01*
X85578260Y-46727840D01*
X85582782Y-46728500D01*
X87324218Y-46728500D01*
X87328768Y-46727830D01*
X87328771Y-46727830D01*
X87383426Y-46719784D01*
X87383427Y-46719784D01*
X87393112Y-46718358D01*
X87487806Y-46671866D01*
X87488507Y-46671522D01*
X87488509Y-46671521D01*
X87497855Y-46666932D01*
X87580293Y-46584350D01*
X87631536Y-46479518D01*
X87641500Y-46411218D01*
X87641500Y-46044782D01*
X87632871Y-45986162D01*
X87632784Y-45985574D01*
X87632784Y-45985573D01*
X87631358Y-45975888D01*
X87579932Y-45871145D01*
X87497350Y-45788707D01*
X87392518Y-45737464D01*
X87362027Y-45733016D01*
X87328744Y-45728160D01*
X87328740Y-45728160D01*
X87324218Y-45727500D01*
X85582782Y-45727500D01*
X85578232Y-45728170D01*
X85578229Y-45728170D01*
X85523574Y-45736216D01*
X85523573Y-45736216D01*
X85513888Y-45737642D01*
X85409145Y-45789068D01*
X85403249Y-45794974D01*
X85337357Y-45817967D01*
X85268319Y-45801404D01*
X85254338Y-45792088D01*
X85138841Y-45703464D01*
X85133550Y-45701272D01*
X85085364Y-45650738D01*
X85071926Y-45581025D01*
X85098312Y-45515114D01*
X85133224Y-45484863D01*
X85138841Y-45482536D01*
X85243971Y-45401867D01*
X85254327Y-45393921D01*
X85320548Y-45368321D01*
X85390096Y-45382586D01*
X85402761Y-45390416D01*
X85409650Y-45397293D01*
X85419001Y-45401864D01*
X85419004Y-45401866D01*
X85476835Y-45430134D01*
X85514482Y-45448536D01*
X85544973Y-45452984D01*
X85578256Y-45457840D01*
X85578260Y-45457840D01*
X85582782Y-45458500D01*
X87324218Y-45458500D01*
X87328768Y-45457830D01*
X87328771Y-45457830D01*
X87383426Y-45449784D01*
X87383427Y-45449784D01*
X87393112Y-45448358D01*
X87487806Y-45401866D01*
X87488507Y-45401522D01*
X87488509Y-45401521D01*
X87497855Y-45396932D01*
X87580293Y-45314350D01*
X87631536Y-45209518D01*
X87641500Y-45141218D01*
X87641500Y-44774782D01*
X87632871Y-44716162D01*
X87632784Y-44715574D01*
X87632784Y-44715573D01*
X87631358Y-44705888D01*
X87579932Y-44601145D01*
X87497350Y-44518707D01*
X87392518Y-44467464D01*
X87362027Y-44463016D01*
X87328744Y-44458160D01*
X87328740Y-44458160D01*
X87324218Y-44457500D01*
X85582782Y-44457500D01*
X85578232Y-44458170D01*
X85578229Y-44458170D01*
X85523574Y-44466216D01*
X85523573Y-44466216D01*
X85513888Y-44467642D01*
X85409145Y-44519068D01*
X85403249Y-44524974D01*
X85337357Y-44547967D01*
X85268319Y-44531404D01*
X85254338Y-44522088D01*
X85250403Y-44519068D01*
X85138841Y-44433464D01*
X84992762Y-44372956D01*
X84945554Y-44366741D01*
X84880627Y-44338019D01*
X84841535Y-44278754D01*
X84836000Y-44241819D01*
X84836000Y-43433500D01*
X84856002Y-43365379D01*
X84909658Y-43318886D01*
X84962000Y-43307500D01*
X93854000Y-43307500D01*
X93922121Y-43327502D01*
G37*
G04 #@! TD.AperFunction*
G04 #@! TA.AperFunction,Conductor*
G36*
X103447121Y-43327502D02*
G01*
X103493614Y-43381158D01*
X103505000Y-43433500D01*
X103505000Y-52150438D01*
X103484998Y-52218559D01*
X103427219Y-52266846D01*
X103329159Y-52307464D01*
X103203718Y-52403718D01*
X103107464Y-52529159D01*
X103046956Y-52675238D01*
X103026318Y-52832000D01*
X103046956Y-52988762D01*
X103107464Y-53134841D01*
X103175941Y-53224082D01*
X103196290Y-53250601D01*
X103203718Y-53260282D01*
X103329159Y-53356536D01*
X103427219Y-53397154D01*
X103482499Y-53441701D01*
X103505000Y-53513562D01*
X103505000Y-61596000D01*
X103484998Y-61664121D01*
X103431342Y-61710614D01*
X103379000Y-61722000D01*
X94614000Y-61722000D01*
X94545879Y-61701998D01*
X94499386Y-61648342D01*
X94488000Y-61596000D01*
X94488000Y-53390119D01*
X94508002Y-53321998D01*
X94561658Y-53275505D01*
X94631932Y-53265401D01*
X94690704Y-53290156D01*
X94784659Y-53362250D01*
X94930738Y-53422758D01*
X95087500Y-53443396D01*
X95095688Y-53442318D01*
X95236074Y-53423836D01*
X95244262Y-53422758D01*
X95390341Y-53362250D01*
X95515782Y-53265996D01*
X95525371Y-53253500D01*
X95607009Y-53147106D01*
X95612036Y-53140555D01*
X95672544Y-52994476D01*
X95693182Y-52837714D01*
X95672544Y-52680952D01*
X95612036Y-52534873D01*
X95515782Y-52409432D01*
X95390341Y-52313178D01*
X95244262Y-52252670D01*
X95206314Y-52247674D01*
X95095688Y-52233110D01*
X95087500Y-52232032D01*
X94930738Y-52252670D01*
X94930574Y-52251423D01*
X94874344Y-52251421D01*
X94867423Y-52249567D01*
X94867420Y-52249567D01*
X94856770Y-52246713D01*
X94845786Y-52247674D01*
X94845785Y-52247674D01*
X94818975Y-52250020D01*
X94807992Y-52250500D01*
X94614000Y-52250500D01*
X94545879Y-52230498D01*
X94499386Y-52176842D01*
X94488000Y-52124500D01*
X94488000Y-51725982D01*
X94507399Y-51665379D01*
X94505293Y-51664350D01*
X94552240Y-51568306D01*
X94556536Y-51559518D01*
X94564114Y-51507574D01*
X94593740Y-51443055D01*
X94653546Y-51404795D01*
X94705238Y-51400842D01*
X94742000Y-51405682D01*
X94750188Y-51404604D01*
X94778764Y-51400842D01*
X94898762Y-51385044D01*
X95044841Y-51324536D01*
X95083990Y-51294496D01*
X99616937Y-51294496D01*
X99632732Y-51482590D01*
X99634431Y-51488515D01*
X99657311Y-51568306D01*
X99684760Y-51664034D01*
X99687576Y-51669513D01*
X99753885Y-51798536D01*
X99771040Y-51831917D01*
X99774865Y-51836743D01*
X99774867Y-51836746D01*
X99884456Y-51975014D01*
X99884460Y-51975019D01*
X99888285Y-51979844D01*
X100032030Y-52102180D01*
X100037408Y-52105186D01*
X100037410Y-52105187D01*
X100087591Y-52133232D01*
X100196800Y-52194267D01*
X100376317Y-52252595D01*
X100563745Y-52274945D01*
X100569880Y-52274473D01*
X100569882Y-52274473D01*
X100745803Y-52260937D01*
X100745807Y-52260936D01*
X100751945Y-52260464D01*
X100757877Y-52258808D01*
X100757881Y-52258807D01*
X100927804Y-52211363D01*
X100927808Y-52211362D01*
X100933748Y-52209703D01*
X101074298Y-52138707D01*
X101096728Y-52127377D01*
X101096730Y-52127376D01*
X101102229Y-52124598D01*
X101250970Y-52008388D01*
X101254996Y-52003724D01*
X101254999Y-52003721D01*
X101370278Y-51870169D01*
X101370279Y-51870167D01*
X101374307Y-51865501D01*
X101467542Y-51701378D01*
X101527123Y-51522272D01*
X101550780Y-51335005D01*
X101551157Y-51308000D01*
X101532738Y-51120145D01*
X101478181Y-50939445D01*
X101389566Y-50772783D01*
X101270266Y-50626508D01*
X101264475Y-50621717D01*
X101129577Y-50510120D01*
X101129574Y-50510118D01*
X101124827Y-50506191D01*
X100958788Y-50416414D01*
X100778474Y-50360597D01*
X100772356Y-50359954D01*
X100772351Y-50359953D01*
X100596881Y-50341511D01*
X100596879Y-50341511D01*
X100590752Y-50340867D01*
X100475125Y-50351390D01*
X100408914Y-50357415D01*
X100408913Y-50357415D01*
X100402773Y-50357974D01*
X100221697Y-50411268D01*
X100054420Y-50498718D01*
X99907316Y-50616993D01*
X99785986Y-50761588D01*
X99695052Y-50926996D01*
X99637978Y-51106917D01*
X99637292Y-51113036D01*
X99637291Y-51113039D01*
X99624364Y-51228282D01*
X99616937Y-51294496D01*
X95083990Y-51294496D01*
X95170282Y-51228282D01*
X95266536Y-51102841D01*
X95327044Y-50956762D01*
X95347682Y-50800000D01*
X95327044Y-50643238D01*
X95322093Y-50631284D01*
X95283660Y-50538500D01*
X95266536Y-50497159D01*
X95170282Y-50371718D01*
X95044841Y-50275464D01*
X94898762Y-50214956D01*
X94742000Y-50194318D01*
X94708946Y-50198670D01*
X94638799Y-50187731D01*
X94585700Y-50140604D01*
X94566500Y-50073748D01*
X94566500Y-49854782D01*
X94556358Y-49785888D01*
X94504932Y-49681145D01*
X94507270Y-49679997D01*
X94488000Y-49619978D01*
X94488000Y-49185982D01*
X94507399Y-49125379D01*
X94505293Y-49124350D01*
X94552240Y-49028306D01*
X94556536Y-49019518D01*
X94566500Y-48951218D01*
X94566500Y-48754496D01*
X99616937Y-48754496D01*
X99632732Y-48942590D01*
X99634431Y-48948515D01*
X99657311Y-49028306D01*
X99684760Y-49124034D01*
X99687576Y-49129513D01*
X99753885Y-49258536D01*
X99771040Y-49291917D01*
X99774865Y-49296743D01*
X99774867Y-49296746D01*
X99884456Y-49435014D01*
X99884460Y-49435019D01*
X99888285Y-49439844D01*
X100032030Y-49562180D01*
X100037408Y-49565186D01*
X100037410Y-49565187D01*
X100097387Y-49598707D01*
X100196800Y-49654267D01*
X100376317Y-49712595D01*
X100563745Y-49734945D01*
X100569880Y-49734473D01*
X100569882Y-49734473D01*
X100745803Y-49720937D01*
X100745807Y-49720936D01*
X100751945Y-49720464D01*
X100757877Y-49718808D01*
X100757881Y-49718807D01*
X100927804Y-49671363D01*
X100927808Y-49671362D01*
X100933748Y-49669703D01*
X101074298Y-49598707D01*
X101096728Y-49587377D01*
X101096730Y-49587376D01*
X101102229Y-49584598D01*
X101250970Y-49468388D01*
X101254996Y-49463724D01*
X101254999Y-49463721D01*
X101370278Y-49330169D01*
X101370279Y-49330167D01*
X101374307Y-49325501D01*
X101467542Y-49161378D01*
X101527123Y-48982272D01*
X101550780Y-48795005D01*
X101551157Y-48768000D01*
X101532738Y-48580145D01*
X101478181Y-48399445D01*
X101389566Y-48232783D01*
X101270266Y-48086508D01*
X101264475Y-48081717D01*
X101129577Y-47970120D01*
X101129574Y-47970118D01*
X101124827Y-47966191D01*
X100958788Y-47876414D01*
X100778474Y-47820597D01*
X100772356Y-47819954D01*
X100772351Y-47819953D01*
X100596881Y-47801511D01*
X100596879Y-47801511D01*
X100590752Y-47800867D01*
X100475125Y-47811390D01*
X100408914Y-47817415D01*
X100408913Y-47817415D01*
X100402773Y-47817974D01*
X100221697Y-47871268D01*
X100054420Y-47958718D01*
X99907316Y-48076993D01*
X99785986Y-48221588D01*
X99695052Y-48386996D01*
X99637978Y-48566917D01*
X99637292Y-48573036D01*
X99637291Y-48573039D01*
X99635974Y-48584782D01*
X99616937Y-48754496D01*
X94566500Y-48754496D01*
X94566500Y-48584782D01*
X94565818Y-48580145D01*
X94557784Y-48525574D01*
X94557784Y-48525573D01*
X94556358Y-48515888D01*
X94504932Y-48411145D01*
X94507270Y-48409997D01*
X94488000Y-48349978D01*
X94488000Y-47915982D01*
X94507399Y-47855379D01*
X94505293Y-47854350D01*
X94552240Y-47758306D01*
X94556536Y-47749518D01*
X94566500Y-47681218D01*
X94566500Y-47314782D01*
X94556358Y-47245888D01*
X94504932Y-47141145D01*
X94507270Y-47139997D01*
X94488000Y-47079978D01*
X94488000Y-46645982D01*
X94507399Y-46585379D01*
X94505293Y-46584350D01*
X94552240Y-46488306D01*
X94556536Y-46479518D01*
X94566500Y-46411218D01*
X94566500Y-46214496D01*
X99616937Y-46214496D01*
X99632732Y-46402590D01*
X99634431Y-46408515D01*
X99657311Y-46488306D01*
X99684760Y-46584034D01*
X99687576Y-46589513D01*
X99753885Y-46718536D01*
X99771040Y-46751917D01*
X99774865Y-46756743D01*
X99774867Y-46756746D01*
X99884456Y-46895014D01*
X99884460Y-46895019D01*
X99888285Y-46899844D01*
X100032030Y-47022180D01*
X100037408Y-47025186D01*
X100037410Y-47025187D01*
X100097387Y-47058707D01*
X100196800Y-47114267D01*
X100376317Y-47172595D01*
X100563745Y-47194945D01*
X100569880Y-47194473D01*
X100569882Y-47194473D01*
X100745803Y-47180937D01*
X100745807Y-47180936D01*
X100751945Y-47180464D01*
X100757877Y-47178808D01*
X100757881Y-47178807D01*
X100927804Y-47131363D01*
X100927808Y-47131362D01*
X100933748Y-47129703D01*
X101074298Y-47058707D01*
X101096728Y-47047377D01*
X101096730Y-47047376D01*
X101102229Y-47044598D01*
X101250970Y-46928388D01*
X101254996Y-46923724D01*
X101254999Y-46923721D01*
X101370278Y-46790169D01*
X101370279Y-46790167D01*
X101374307Y-46785501D01*
X101467542Y-46621378D01*
X101527123Y-46442272D01*
X101550780Y-46255005D01*
X101551157Y-46228000D01*
X101532738Y-46040145D01*
X101478181Y-45859445D01*
X101389566Y-45692783D01*
X101270266Y-45546508D01*
X101262259Y-45539884D01*
X101129577Y-45430120D01*
X101129574Y-45430118D01*
X101124827Y-45426191D01*
X100958788Y-45336414D01*
X100778474Y-45280597D01*
X100772356Y-45279954D01*
X100772351Y-45279953D01*
X100596881Y-45261511D01*
X100596879Y-45261511D01*
X100590752Y-45260867D01*
X100475125Y-45271390D01*
X100408914Y-45277415D01*
X100408913Y-45277415D01*
X100402773Y-45277974D01*
X100221697Y-45331268D01*
X100216232Y-45334125D01*
X100116465Y-45386282D01*
X100054420Y-45418718D01*
X99907316Y-45536993D01*
X99785986Y-45681588D01*
X99695052Y-45846996D01*
X99637978Y-46026917D01*
X99637292Y-46033036D01*
X99637291Y-46033039D01*
X99635974Y-46044782D01*
X99616937Y-46214496D01*
X94566500Y-46214496D01*
X94566500Y-46044782D01*
X94565818Y-46040145D01*
X94557784Y-45985574D01*
X94557784Y-45985573D01*
X94556358Y-45975888D01*
X94504932Y-45871145D01*
X94507270Y-45869997D01*
X94488000Y-45809978D01*
X94488000Y-45580615D01*
X94508002Y-45512494D01*
X94561658Y-45466001D01*
X94631932Y-45455897D01*
X94678276Y-45475420D01*
X94679454Y-45473379D01*
X94686607Y-45477509D01*
X94693159Y-45482536D01*
X94839238Y-45543044D01*
X94996000Y-45563682D01*
X95004188Y-45562604D01*
X95144574Y-45544122D01*
X95152762Y-45543044D01*
X95298841Y-45482536D01*
X95424282Y-45386282D01*
X95520536Y-45260841D01*
X95581044Y-45114762D01*
X95601682Y-44958000D01*
X95581044Y-44801238D01*
X95520536Y-44655159D01*
X95424282Y-44529718D01*
X95298841Y-44433464D01*
X95152762Y-44372956D01*
X94996000Y-44352318D01*
X94839238Y-44372956D01*
X94693159Y-44433464D01*
X94686607Y-44438491D01*
X94679454Y-44442621D01*
X94678073Y-44440229D01*
X94624490Y-44460948D01*
X94554941Y-44446687D01*
X94504142Y-44397088D01*
X94488000Y-44335385D01*
X94488000Y-43433500D01*
X94508002Y-43365379D01*
X94561658Y-43318886D01*
X94614000Y-43307500D01*
X103379000Y-43307500D01*
X103447121Y-43327502D01*
G37*
G04 #@! TD.AperFunction*
M02*
