G04 #@! TF.GenerationSoftware,KiCad,Pcbnew,(6.0.7)*
G04 #@! TF.CreationDate,2023-03-21T11:33:27-05:00*
G04 #@! TF.ProjectId,RoveSoMoCo,526f7665-536f-44d6-9f43-6f2e6b696361,rev?*
G04 #@! TF.SameCoordinates,Original*
G04 #@! TF.FileFunction,Copper,L3,Inr*
G04 #@! TF.FilePolarity,Positive*
%FSLAX46Y46*%
G04 Gerber Fmt 4.6, Leading zero omitted, Abs format (unit mm)*
G04 Created by KiCad (PCBNEW (6.0.7)) date 2023-03-21 11:33:27*
%MOMM*%
%LPD*%
G01*
G04 APERTURE LIST*
G04 #@! TA.AperFunction,ComponentPad*
%ADD10C,1.524000*%
G04 #@! TD*
G04 #@! TA.AperFunction,ComponentPad*
%ADD11R,1.600000X1.600000*%
G04 #@! TD*
G04 #@! TA.AperFunction,ComponentPad*
%ADD12C,1.600000*%
G04 #@! TD*
G04 #@! TA.AperFunction,ComponentPad*
%ADD13O,5.100000X3.000000*%
G04 #@! TD*
G04 #@! TA.AperFunction,ViaPad*
%ADD14C,0.800000*%
G04 #@! TD*
G04 #@! TA.AperFunction,Conductor*
%ADD15C,0.254000*%
G04 #@! TD*
G04 #@! TA.AperFunction,Conductor*
%ADD16C,0.250000*%
G04 #@! TD*
G04 APERTURE END LIST*
D10*
X100584000Y-51308000D03*
X100584000Y-48768000D03*
X100584000Y-46228000D03*
D11*
X98044000Y-69429621D03*
D12*
X98044000Y-71929621D03*
D11*
X90424000Y-69429621D03*
D12*
X90424000Y-71929621D03*
D13*
X98171000Y-64834800D03*
X90297000Y-64834800D03*
X90297000Y-57283400D03*
X98171000Y-57283400D03*
D14*
X82032496Y-69013923D03*
X85598000Y-61214000D03*
X102616000Y-59944000D03*
X109728000Y-70612000D03*
X77749000Y-69596000D03*
X111252000Y-70358000D03*
X84714714Y-70225286D03*
X103124000Y-75184000D03*
X76962000Y-59944000D03*
X96647000Y-76327000D03*
X111506000Y-62230000D03*
X76962000Y-63754000D03*
X111506000Y-60960000D03*
X111506000Y-57150000D03*
X111506000Y-59690000D03*
X76962000Y-54864000D03*
X76962000Y-56134000D03*
X76962000Y-57404000D03*
X111506000Y-58420000D03*
X76962000Y-62484000D03*
X111506000Y-54610000D03*
X111506000Y-63500000D03*
X76962000Y-58674000D03*
X111506000Y-55880000D03*
X76962000Y-61214000D03*
X91694000Y-76327000D03*
X94234000Y-73406000D03*
X94996000Y-44958000D03*
X84836000Y-44958000D03*
X84836000Y-48768000D03*
X84836000Y-46228000D03*
X94742000Y-50800000D03*
X92202000Y-74422000D03*
X82296000Y-70612000D03*
X79350049Y-53754549D03*
X96139000Y-74549000D03*
X103165299Y-73627299D03*
X111760000Y-53340000D03*
X82496310Y-53390808D03*
X85341500Y-60214497D03*
X77210325Y-53611444D03*
X76962000Y-65024000D03*
X109220000Y-53652500D03*
X84582000Y-52832000D03*
X81305996Y-69748996D03*
X103632000Y-52832000D03*
X106907597Y-69876403D03*
X78232000Y-53848000D03*
X78994000Y-64770000D03*
X108113743Y-53441806D03*
X107906447Y-69912500D03*
X85598000Y-70866000D03*
X84698666Y-51800149D03*
X91948000Y-77851000D03*
X84836000Y-47498000D03*
X103378000Y-71120000D03*
X96520000Y-77724000D03*
X95087500Y-52837714D03*
X84836000Y-50038000D03*
D15*
X85852000Y-45974000D02*
X84836000Y-44958000D01*
X84836000Y-48768000D02*
X85852000Y-47752000D01*
X85852000Y-47752000D02*
X85852000Y-45974000D01*
X85598000Y-77343000D02*
X86106000Y-77851000D01*
X86106000Y-77851000D02*
X91948000Y-77851000D01*
X85598000Y-70866000D02*
X85598000Y-77343000D01*
D16*
X102108000Y-76708000D02*
X101092000Y-77724000D01*
X103378000Y-71120000D02*
X102108000Y-72390000D01*
X102108000Y-72390000D02*
X102108000Y-76708000D01*
X96520000Y-77724000D02*
X101092000Y-77724000D01*
D15*
X95087500Y-52837714D02*
X87635714Y-52837714D01*
X87635714Y-52837714D02*
X84836000Y-50038000D01*
G04 #@! TA.AperFunction,Conductor*
G36*
X106583031Y-43327502D02*
G01*
X106629524Y-43381158D01*
X106639628Y-43451432D01*
X106610134Y-43516012D01*
X106569452Y-43547083D01*
X106249674Y-43700638D01*
X105911789Y-43906479D01*
X105596019Y-44144861D01*
X105593737Y-44146971D01*
X105593728Y-44146978D01*
X105433817Y-44294799D01*
X105305486Y-44413427D01*
X105303414Y-44415765D01*
X105303409Y-44415770D01*
X105045148Y-44707169D01*
X105045143Y-44707175D01*
X105043064Y-44709521D01*
X104811347Y-45030214D01*
X104612627Y-45372336D01*
X104611337Y-45375173D01*
X104611335Y-45375177D01*
X104450808Y-45728238D01*
X104448869Y-45732503D01*
X104447867Y-45735456D01*
X104447865Y-45735460D01*
X104426681Y-45797867D01*
X104321692Y-46107153D01*
X104232354Y-46492583D01*
X104207103Y-46688344D01*
X104193969Y-46790169D01*
X104181739Y-46884979D01*
X104170347Y-47280462D01*
X104198290Y-47675122D01*
X104265293Y-48065055D01*
X104266125Y-48068064D01*
X104266126Y-48068070D01*
X104292175Y-48162318D01*
X104370692Y-48446405D01*
X104371822Y-48449325D01*
X104371823Y-48449329D01*
X104504192Y-48791480D01*
X104513446Y-48815401D01*
X104514861Y-48818195D01*
X104514864Y-48818203D01*
X104618005Y-49021944D01*
X104692143Y-49168395D01*
X104905015Y-49501895D01*
X105149958Y-49812603D01*
X105152133Y-49814859D01*
X105152138Y-49814865D01*
X105208768Y-49873609D01*
X105424549Y-50097448D01*
X105426942Y-50099481D01*
X105723679Y-50351578D01*
X105723687Y-50351585D01*
X105726074Y-50353612D01*
X105791183Y-50398612D01*
X106048977Y-50576785D01*
X106048986Y-50576790D01*
X106051549Y-50578562D01*
X106054284Y-50580075D01*
X106054289Y-50580078D01*
X106167322Y-50642604D01*
X106397758Y-50770074D01*
X106400627Y-50771307D01*
X106400638Y-50771312D01*
X106758407Y-50925021D01*
X106761275Y-50926253D01*
X106764252Y-50927194D01*
X106764256Y-50927196D01*
X106821643Y-50945345D01*
X107138507Y-51045556D01*
X107525723Y-51126802D01*
X107528841Y-51127138D01*
X107916642Y-51168925D01*
X107916645Y-51168925D01*
X107919093Y-51169189D01*
X107921556Y-51169260D01*
X107921557Y-51169260D01*
X107925206Y-51169365D01*
X107976411Y-51170840D01*
X108247472Y-51170840D01*
X108249035Y-51170762D01*
X108249043Y-51170762D01*
X108345411Y-51165964D01*
X108543278Y-51156114D01*
X108546363Y-51155650D01*
X108546365Y-51155650D01*
X108931436Y-51097757D01*
X108934529Y-51097292D01*
X109135704Y-51046200D01*
X109314959Y-51000675D01*
X109314962Y-51000674D01*
X109318002Y-50999902D01*
X109320950Y-50998832D01*
X109686969Y-50865974D01*
X109686979Y-50865970D01*
X109689907Y-50864907D01*
X110046566Y-50693642D01*
X110384451Y-50487801D01*
X110578345Y-50341426D01*
X110697727Y-50251302D01*
X110697730Y-50251300D01*
X110700221Y-50249419D01*
X110702503Y-50247309D01*
X110702512Y-50247302D01*
X110988457Y-49982976D01*
X110990754Y-49980853D01*
X111079041Y-49881238D01*
X111251092Y-49687111D01*
X111251097Y-49687105D01*
X111253176Y-49684759D01*
X111484893Y-49364066D01*
X111683613Y-49021944D01*
X111724331Y-48932391D01*
X111846079Y-48664619D01*
X111846080Y-48664616D01*
X111847371Y-48661777D01*
X111848377Y-48658814D01*
X111895187Y-48520917D01*
X111936024Y-48462840D01*
X112001777Y-48436062D01*
X112071569Y-48449083D01*
X112123242Y-48497770D01*
X112140500Y-48561418D01*
X112140500Y-52659059D01*
X112120498Y-52727180D01*
X112066842Y-52773673D01*
X111996568Y-52783777D01*
X111966282Y-52775468D01*
X111924391Y-52758116D01*
X111916762Y-52754956D01*
X111760000Y-52734318D01*
X111603238Y-52754956D01*
X111457159Y-52815464D01*
X111331718Y-52911718D01*
X111235464Y-53037159D01*
X111174956Y-53183238D01*
X111154318Y-53340000D01*
X111174956Y-53496762D01*
X111235464Y-53642841D01*
X111268596Y-53686019D01*
X111323680Y-53757806D01*
X111331718Y-53768282D01*
X111457159Y-53864536D01*
X111603238Y-53925044D01*
X111760000Y-53945682D01*
X111768188Y-53944604D01*
X111908574Y-53926122D01*
X111916762Y-53925044D01*
X111966282Y-53904532D01*
X112036871Y-53896943D01*
X112100358Y-53928722D01*
X112136586Y-53989780D01*
X112140500Y-54020941D01*
X112140500Y-73759570D01*
X112120498Y-73827691D01*
X112066842Y-73874184D01*
X111996568Y-73884288D01*
X111931988Y-73854794D01*
X111896988Y-73805032D01*
X111783929Y-73512792D01*
X111783927Y-73512787D01*
X111782794Y-73509859D01*
X111734363Y-73414188D01*
X111605516Y-73159668D01*
X111604097Y-73156865D01*
X111391225Y-72823365D01*
X111146282Y-72512657D01*
X111144107Y-72510401D01*
X111144102Y-72510395D01*
X110929528Y-72287809D01*
X110871691Y-72227812D01*
X110804182Y-72170459D01*
X110572561Y-71973682D01*
X110572553Y-71973675D01*
X110570166Y-71971648D01*
X110376011Y-71837459D01*
X110247263Y-71748475D01*
X110247254Y-71748470D01*
X110244691Y-71746698D01*
X110241956Y-71745185D01*
X110241951Y-71745182D01*
X110034200Y-71630261D01*
X109898482Y-71555186D01*
X109895613Y-71553953D01*
X109895602Y-71553948D01*
X109673141Y-71458372D01*
X109618448Y-71413104D01*
X109596911Y-71345453D01*
X109615368Y-71276897D01*
X109667959Y-71229203D01*
X109721761Y-71216861D01*
X109728000Y-71217682D01*
X109736188Y-71216604D01*
X109876574Y-71198122D01*
X109884762Y-71197044D01*
X110030841Y-71136536D01*
X110156282Y-71040282D01*
X110252536Y-70914841D01*
X110313044Y-70768762D01*
X110315538Y-70749822D01*
X110332604Y-70620188D01*
X110333682Y-70612000D01*
X110313044Y-70455238D01*
X110272767Y-70358000D01*
X110646318Y-70358000D01*
X110666956Y-70514762D01*
X110727464Y-70660841D01*
X110823718Y-70786282D01*
X110949159Y-70882536D01*
X111095238Y-70943044D01*
X111252000Y-70963682D01*
X111260188Y-70962604D01*
X111400574Y-70944122D01*
X111408762Y-70943044D01*
X111554841Y-70882536D01*
X111680282Y-70786282D01*
X111776536Y-70660841D01*
X111837044Y-70514762D01*
X111857682Y-70358000D01*
X111837044Y-70201238D01*
X111776536Y-70055159D01*
X111680282Y-69929718D01*
X111554841Y-69833464D01*
X111408762Y-69772956D01*
X111252000Y-69752318D01*
X111095238Y-69772956D01*
X110949159Y-69833464D01*
X110823718Y-69929718D01*
X110727464Y-70055159D01*
X110666956Y-70201238D01*
X110646318Y-70358000D01*
X110272767Y-70358000D01*
X110252536Y-70309159D01*
X110156282Y-70183718D01*
X110030841Y-70087464D01*
X109884762Y-70026956D01*
X109728000Y-70006318D01*
X109571238Y-70026956D01*
X109425159Y-70087464D01*
X109299718Y-70183718D01*
X109203464Y-70309159D01*
X109142956Y-70455238D01*
X109122318Y-70612000D01*
X109123396Y-70620188D01*
X109140463Y-70749822D01*
X109142956Y-70768762D01*
X109203464Y-70914841D01*
X109299718Y-71040282D01*
X109306264Y-71045305D01*
X109306267Y-71045308D01*
X109361690Y-71087835D01*
X109403558Y-71145173D01*
X109407780Y-71216044D01*
X109373016Y-71277947D01*
X109310304Y-71311228D01*
X109246993Y-71307933D01*
X109197817Y-71292381D01*
X109157733Y-71279704D01*
X108770517Y-71198458D01*
X108767399Y-71198122D01*
X108379598Y-71156335D01*
X108379595Y-71156335D01*
X108377147Y-71156071D01*
X108374684Y-71156000D01*
X108374683Y-71156000D01*
X108371034Y-71155895D01*
X108319829Y-71154420D01*
X108048768Y-71154420D01*
X108047205Y-71154498D01*
X108047197Y-71154498D01*
X107950829Y-71159296D01*
X107752962Y-71169146D01*
X107749877Y-71169610D01*
X107749875Y-71169610D01*
X107567400Y-71197044D01*
X107361711Y-71227968D01*
X107358676Y-71228739D01*
X107358675Y-71228739D01*
X106981281Y-71324585D01*
X106981278Y-71324586D01*
X106978238Y-71325358D01*
X106975291Y-71326428D01*
X106975290Y-71326428D01*
X106609271Y-71459286D01*
X106609261Y-71459290D01*
X106606333Y-71460353D01*
X106249674Y-71631618D01*
X105911789Y-71837459D01*
X105596019Y-72075841D01*
X105593737Y-72077951D01*
X105593728Y-72077958D01*
X105445536Y-72214946D01*
X105305486Y-72344407D01*
X105303414Y-72346745D01*
X105303409Y-72346750D01*
X105045148Y-72638149D01*
X105045143Y-72638155D01*
X105043064Y-72640501D01*
X104811347Y-72961194D01*
X104612627Y-73303316D01*
X104611337Y-73306153D01*
X104611335Y-73306157D01*
X104517384Y-73512792D01*
X104448869Y-73663483D01*
X104321692Y-74038133D01*
X104232354Y-74423563D01*
X104181739Y-74815959D01*
X104170347Y-75211442D01*
X104198290Y-75606102D01*
X104265293Y-75996035D01*
X104370692Y-76377385D01*
X104371822Y-76380305D01*
X104371823Y-76380309D01*
X104505492Y-76725820D01*
X104513446Y-76746381D01*
X104514861Y-76749175D01*
X104514864Y-76749183D01*
X104617593Y-76952111D01*
X104692143Y-77099375D01*
X104693834Y-77102024D01*
X104693835Y-77102026D01*
X104784617Y-77244251D01*
X104905015Y-77432875D01*
X105149958Y-77743583D01*
X105152133Y-77745839D01*
X105152138Y-77745845D01*
X105239051Y-77836003D01*
X105424549Y-78028428D01*
X105426942Y-78030461D01*
X105723679Y-78282558D01*
X105723687Y-78282565D01*
X105726074Y-78284592D01*
X105728654Y-78286375D01*
X106048977Y-78507765D01*
X106048986Y-78507770D01*
X106051549Y-78509542D01*
X106054284Y-78511055D01*
X106054289Y-78511058D01*
X106090123Y-78530880D01*
X106397758Y-78701054D01*
X106400627Y-78702287D01*
X106400638Y-78702292D01*
X106758407Y-78856001D01*
X106761275Y-78857233D01*
X106764252Y-78858174D01*
X106764256Y-78858176D01*
X106815446Y-78874365D01*
X106874364Y-78913977D01*
X106902514Y-78979154D01*
X106890957Y-79049204D01*
X106843364Y-79101886D01*
X106777452Y-79120500D01*
X81575962Y-79120500D01*
X81507841Y-79100498D01*
X81461348Y-79046842D01*
X81451244Y-78976568D01*
X81480738Y-78911988D01*
X81532971Y-78876061D01*
X81537644Y-78874365D01*
X81591883Y-78854677D01*
X81750909Y-78796954D01*
X81750919Y-78796950D01*
X81753847Y-78795887D01*
X82110506Y-78624622D01*
X82448391Y-78418781D01*
X82740181Y-78198502D01*
X82761667Y-78182282D01*
X82761670Y-78182280D01*
X82764161Y-78180399D01*
X82766443Y-78178289D01*
X82766452Y-78178282D01*
X83019777Y-77944110D01*
X83054694Y-77911833D01*
X83056771Y-77909490D01*
X83315032Y-77618091D01*
X83315037Y-77618085D01*
X83317116Y-77615739D01*
X83339551Y-77584690D01*
X83439846Y-77445883D01*
X83548833Y-77295046D01*
X83747553Y-76952924D01*
X83754044Y-76938649D01*
X83910019Y-76595599D01*
X83910020Y-76595596D01*
X83911311Y-76592757D01*
X84038488Y-76218107D01*
X84127826Y-75832677D01*
X84172435Y-75486841D01*
X84178040Y-75443391D01*
X84178040Y-75443388D01*
X84178441Y-75440281D01*
X84189833Y-75044798D01*
X84189170Y-75035426D01*
X84162112Y-74653274D01*
X84161890Y-74650138D01*
X84094887Y-74260205D01*
X84089195Y-74239608D01*
X84013882Y-73967116D01*
X83989488Y-73878855D01*
X83987681Y-73874184D01*
X83847869Y-73512792D01*
X83847867Y-73512787D01*
X83846734Y-73509859D01*
X83798303Y-73414188D01*
X83669456Y-73159668D01*
X83668037Y-73156865D01*
X83455165Y-72823365D01*
X83210222Y-72512657D01*
X83208047Y-72510401D01*
X83208042Y-72510395D01*
X82993468Y-72287809D01*
X82935631Y-72227812D01*
X82868122Y-72170459D01*
X82636501Y-71973682D01*
X82636493Y-71973675D01*
X82634106Y-71971648D01*
X82439951Y-71837459D01*
X82311203Y-71748475D01*
X82311194Y-71748470D01*
X82308631Y-71746698D01*
X82305896Y-71745185D01*
X82305891Y-71745182D01*
X82098140Y-71630261D01*
X81962422Y-71555186D01*
X81959553Y-71553953D01*
X81959542Y-71553948D01*
X81601773Y-71400239D01*
X81601770Y-71400238D01*
X81598905Y-71399007D01*
X81595928Y-71398066D01*
X81595924Y-71398064D01*
X81429569Y-71345453D01*
X81221673Y-71279704D01*
X80834457Y-71198458D01*
X80831339Y-71198122D01*
X80443538Y-71156335D01*
X80443535Y-71156335D01*
X80441087Y-71156071D01*
X80438624Y-71156000D01*
X80438623Y-71156000D01*
X80434974Y-71155895D01*
X80383769Y-71154420D01*
X80112708Y-71154420D01*
X80111145Y-71154498D01*
X80111137Y-71154498D01*
X80014769Y-71159296D01*
X79816902Y-71169146D01*
X79813817Y-71169610D01*
X79813815Y-71169610D01*
X79631340Y-71197044D01*
X79425651Y-71227968D01*
X79422616Y-71228739D01*
X79422615Y-71228739D01*
X79045221Y-71324585D01*
X79045218Y-71324586D01*
X79042178Y-71325358D01*
X79039231Y-71326428D01*
X79039230Y-71326428D01*
X78673211Y-71459286D01*
X78673201Y-71459290D01*
X78670273Y-71460353D01*
X78313614Y-71631618D01*
X77975729Y-71837459D01*
X77659959Y-72075841D01*
X77657677Y-72077951D01*
X77657668Y-72077958D01*
X77509476Y-72214946D01*
X77369426Y-72344407D01*
X77367354Y-72346745D01*
X77367349Y-72346750D01*
X77109088Y-72638149D01*
X77109083Y-72638155D01*
X77107004Y-72640501D01*
X76875287Y-72961194D01*
X76676567Y-73303316D01*
X76675277Y-73306153D01*
X76675275Y-73306157D01*
X76608884Y-73452177D01*
X76591913Y-73489504D01*
X76568201Y-73541655D01*
X76521797Y-73595388D01*
X76453710Y-73615504D01*
X76385556Y-73595615D01*
X76338974Y-73542037D01*
X76327500Y-73489504D01*
X76327500Y-69596000D01*
X77143318Y-69596000D01*
X77144396Y-69604188D01*
X77160674Y-69727829D01*
X77163956Y-69752762D01*
X77224464Y-69898841D01*
X77320718Y-70024282D01*
X77327264Y-70029305D01*
X77336357Y-70036282D01*
X77446159Y-70120536D01*
X77592238Y-70181044D01*
X77600426Y-70182122D01*
X77662271Y-70190264D01*
X77749000Y-70201682D01*
X77757188Y-70200604D01*
X77897574Y-70182122D01*
X77905762Y-70181044D01*
X78051841Y-70120536D01*
X78161643Y-70036282D01*
X78170736Y-70029305D01*
X78177282Y-70024282D01*
X78273536Y-69898841D01*
X78334044Y-69752762D01*
X78334540Y-69748996D01*
X80700314Y-69748996D01*
X80720952Y-69905758D01*
X80781460Y-70051837D01*
X80877714Y-70177278D01*
X81003155Y-70273532D01*
X81149234Y-70334040D01*
X81305996Y-70354678D01*
X81314184Y-70353600D01*
X81454570Y-70335118D01*
X81462758Y-70334040D01*
X81470385Y-70330881D01*
X81470388Y-70330880D01*
X81543673Y-70300524D01*
X81614263Y-70292935D01*
X81677750Y-70324714D01*
X81713977Y-70385772D01*
X81713602Y-70448850D01*
X81710956Y-70455238D01*
X81690318Y-70612000D01*
X81691396Y-70620188D01*
X81708463Y-70749822D01*
X81710956Y-70768762D01*
X81771464Y-70914841D01*
X81867718Y-71040282D01*
X81993159Y-71136536D01*
X82139238Y-71197044D01*
X82296000Y-71217682D01*
X82304188Y-71216604D01*
X82444574Y-71198122D01*
X82452762Y-71197044D01*
X82598841Y-71136536D01*
X82724282Y-71040282D01*
X82820536Y-70914841D01*
X82881044Y-70768762D01*
X82883538Y-70749822D01*
X82900604Y-70620188D01*
X82901682Y-70612000D01*
X82881044Y-70455238D01*
X82820536Y-70309159D01*
X82756178Y-70225286D01*
X84109032Y-70225286D01*
X84110110Y-70233474D01*
X84127276Y-70363860D01*
X84129670Y-70382048D01*
X84190178Y-70528127D01*
X84286432Y-70653568D01*
X84411873Y-70749822D01*
X84557952Y-70810330D01*
X84714714Y-70830968D01*
X84722902Y-70829890D01*
X84858133Y-70812087D01*
X84928282Y-70823027D01*
X84981380Y-70870155D01*
X84999501Y-70920562D01*
X85011878Y-71014574D01*
X85012956Y-71022762D01*
X85073464Y-71168841D01*
X85092680Y-71193884D01*
X85159259Y-71280651D01*
X85169718Y-71294282D01*
X85176268Y-71299308D01*
X85176271Y-71299311D01*
X85221204Y-71333789D01*
X85263071Y-71391127D01*
X85270500Y-71433751D01*
X85270500Y-77323206D01*
X85270020Y-77334189D01*
X85266713Y-77371984D01*
X85269566Y-77382631D01*
X85276534Y-77408635D01*
X85278913Y-77419367D01*
X85285503Y-77456739D01*
X85291014Y-77466285D01*
X85292240Y-77469653D01*
X85293754Y-77472899D01*
X85296606Y-77483543D01*
X85318377Y-77514635D01*
X85324275Y-77523894D01*
X85343250Y-77556760D01*
X85372322Y-77581154D01*
X85380427Y-77588581D01*
X85860424Y-78068579D01*
X85867849Y-78076682D01*
X85892240Y-78105750D01*
X85901786Y-78111261D01*
X85901788Y-78111263D01*
X85925102Y-78124723D01*
X85934371Y-78130628D01*
X85965457Y-78152394D01*
X85976106Y-78155248D01*
X85979353Y-78156762D01*
X85982712Y-78157984D01*
X85992261Y-78163497D01*
X86022267Y-78168787D01*
X86029637Y-78170087D01*
X86040370Y-78172467D01*
X86066366Y-78179433D01*
X86066369Y-78179433D01*
X86077015Y-78182286D01*
X86114814Y-78178979D01*
X86125796Y-78178500D01*
X91380249Y-78178500D01*
X91448370Y-78198502D01*
X91480211Y-78227796D01*
X91514689Y-78272729D01*
X91514692Y-78272732D01*
X91519718Y-78279282D01*
X91526268Y-78284308D01*
X91526269Y-78284309D01*
X91579814Y-78325395D01*
X91645159Y-78375536D01*
X91791238Y-78436044D01*
X91948000Y-78456682D01*
X91956188Y-78455604D01*
X92096574Y-78437122D01*
X92104762Y-78436044D01*
X92250841Y-78375536D01*
X92376282Y-78279282D01*
X92472536Y-78153841D01*
X92533044Y-78007762D01*
X92553682Y-77851000D01*
X92536962Y-77724000D01*
X95914318Y-77724000D01*
X95934956Y-77880762D01*
X95995464Y-78026841D01*
X96091718Y-78152282D01*
X96217159Y-78248536D01*
X96363238Y-78309044D01*
X96520000Y-78329682D01*
X96528188Y-78328604D01*
X96668574Y-78310122D01*
X96676762Y-78309044D01*
X96822841Y-78248536D01*
X96948282Y-78152282D01*
X96989323Y-78098796D01*
X97046661Y-78056929D01*
X97089286Y-78049500D01*
X101072290Y-78049500D01*
X101083272Y-78049980D01*
X101109820Y-78052303D01*
X101109822Y-78052303D01*
X101120807Y-78053264D01*
X101157215Y-78043508D01*
X101167942Y-78041130D01*
X101171301Y-78040538D01*
X101205045Y-78034588D01*
X101214590Y-78029077D01*
X101217866Y-78027885D01*
X101221034Y-78026408D01*
X101231684Y-78023554D01*
X101262544Y-78001945D01*
X101271815Y-77996039D01*
X101294906Y-77982707D01*
X101304455Y-77977194D01*
X101328685Y-77948317D01*
X101336111Y-77940215D01*
X102324215Y-76952111D01*
X102332319Y-76944684D01*
X102352749Y-76927541D01*
X102361194Y-76920455D01*
X102366707Y-76910906D01*
X102380039Y-76887815D01*
X102385945Y-76878544D01*
X102401230Y-76856715D01*
X102407554Y-76847684D01*
X102410408Y-76837034D01*
X102411885Y-76833866D01*
X102413077Y-76830590D01*
X102418588Y-76821045D01*
X102425130Y-76783942D01*
X102427509Y-76773210D01*
X102437264Y-76736807D01*
X102433980Y-76699272D01*
X102433500Y-76688290D01*
X102433500Y-75641737D01*
X102453502Y-75573616D01*
X102507158Y-75527123D01*
X102577432Y-75517019D01*
X102642012Y-75546513D01*
X102659463Y-75565034D01*
X102690692Y-75605733D01*
X102690695Y-75605736D01*
X102695718Y-75612282D01*
X102821159Y-75708536D01*
X102967238Y-75769044D01*
X103124000Y-75789682D01*
X103132188Y-75788604D01*
X103272574Y-75770122D01*
X103280762Y-75769044D01*
X103426841Y-75708536D01*
X103552282Y-75612282D01*
X103648536Y-75486841D01*
X103709044Y-75340762D01*
X103729682Y-75184000D01*
X103709044Y-75027238D01*
X103648536Y-74881159D01*
X103552282Y-74755718D01*
X103426841Y-74659464D01*
X103280762Y-74598956D01*
X103124000Y-74578318D01*
X102967238Y-74598956D01*
X102821159Y-74659464D01*
X102695718Y-74755718D01*
X102690695Y-74762264D01*
X102690692Y-74762267D01*
X102659463Y-74802966D01*
X102602125Y-74844834D01*
X102531254Y-74849056D01*
X102469351Y-74814292D01*
X102436070Y-74751580D01*
X102433500Y-74726263D01*
X102433500Y-74031214D01*
X102453502Y-73963093D01*
X102507158Y-73916600D01*
X102577432Y-73906496D01*
X102642012Y-73935990D01*
X102659461Y-73954508D01*
X102737017Y-74055581D01*
X102862458Y-74151835D01*
X103008537Y-74212343D01*
X103165299Y-74232981D01*
X103173487Y-74231903D01*
X103313873Y-74213421D01*
X103322061Y-74212343D01*
X103468140Y-74151835D01*
X103593581Y-74055581D01*
X103689835Y-73930140D01*
X103750343Y-73784061D01*
X103770981Y-73627299D01*
X103750343Y-73470537D01*
X103689835Y-73324458D01*
X103593581Y-73199017D01*
X103468140Y-73102763D01*
X103322061Y-73042255D01*
X103165299Y-73021617D01*
X103008537Y-73042255D01*
X102862458Y-73102763D01*
X102737017Y-73199017D01*
X102731994Y-73205563D01*
X102659463Y-73300088D01*
X102602125Y-73341955D01*
X102531254Y-73346177D01*
X102469351Y-73311413D01*
X102436070Y-73248701D01*
X102433500Y-73223384D01*
X102433500Y-72577017D01*
X102453502Y-72508896D01*
X102470405Y-72487921D01*
X103205619Y-71752708D01*
X103267931Y-71718683D01*
X103311158Y-71716882D01*
X103378000Y-71725682D01*
X103386188Y-71724604D01*
X103526574Y-71706122D01*
X103534762Y-71705044D01*
X103680841Y-71644536D01*
X103806282Y-71548282D01*
X103902536Y-71422841D01*
X103956574Y-71292381D01*
X103959884Y-71284391D01*
X103963044Y-71276762D01*
X103983682Y-71120000D01*
X103963044Y-70963238D01*
X103902536Y-70817159D01*
X103806282Y-70691718D01*
X103680841Y-70595464D01*
X103534762Y-70534956D01*
X103378000Y-70514318D01*
X103221238Y-70534956D01*
X103075159Y-70595464D01*
X102949718Y-70691718D01*
X102853464Y-70817159D01*
X102792956Y-70963238D01*
X102772318Y-71120000D01*
X102781118Y-71186841D01*
X102770179Y-71256988D01*
X102745292Y-71292381D01*
X101891779Y-72145895D01*
X101883675Y-72153321D01*
X101854806Y-72177545D01*
X101849293Y-72187094D01*
X101835961Y-72210185D01*
X101830055Y-72219456D01*
X101808446Y-72250316D01*
X101805592Y-72260966D01*
X101804115Y-72264134D01*
X101802923Y-72267410D01*
X101797412Y-72276955D01*
X101791462Y-72310699D01*
X101790870Y-72314058D01*
X101788492Y-72324785D01*
X101778736Y-72361193D01*
X101779697Y-72372178D01*
X101779697Y-72372180D01*
X101782020Y-72398728D01*
X101782500Y-72409710D01*
X101782500Y-76520984D01*
X101762498Y-76589105D01*
X101745595Y-76610079D01*
X100994079Y-77361595D01*
X100931767Y-77395621D01*
X100904984Y-77398500D01*
X97089286Y-77398500D01*
X97021165Y-77378498D01*
X96989323Y-77349204D01*
X96953305Y-77302264D01*
X96948282Y-77295718D01*
X96822841Y-77199464D01*
X96676762Y-77138956D01*
X96520000Y-77118318D01*
X96363238Y-77138956D01*
X96217159Y-77199464D01*
X96091718Y-77295718D01*
X95995464Y-77421159D01*
X95934956Y-77567238D01*
X95914318Y-77724000D01*
X92536962Y-77724000D01*
X92533044Y-77694238D01*
X92472536Y-77548159D01*
X92376282Y-77422718D01*
X92250841Y-77326464D01*
X92104762Y-77265956D01*
X91948000Y-77245318D01*
X91791238Y-77265956D01*
X91645159Y-77326464D01*
X91638608Y-77331491D01*
X91551280Y-77398500D01*
X91519718Y-77422718D01*
X91514692Y-77429268D01*
X91514689Y-77429271D01*
X91480211Y-77474204D01*
X91422873Y-77516071D01*
X91380249Y-77523500D01*
X86293846Y-77523500D01*
X86225725Y-77503498D01*
X86204751Y-77486596D01*
X85962405Y-77244251D01*
X85928380Y-77181938D01*
X85925500Y-77155155D01*
X85925500Y-74422000D01*
X91596318Y-74422000D01*
X91616956Y-74578762D01*
X91677464Y-74724841D01*
X91773718Y-74850282D01*
X91899159Y-74946536D01*
X92045238Y-75007044D01*
X92202000Y-75027682D01*
X92210188Y-75026604D01*
X92350574Y-75008122D01*
X92358762Y-75007044D01*
X92504841Y-74946536D01*
X92630282Y-74850282D01*
X92726536Y-74724841D01*
X92787044Y-74578762D01*
X92790962Y-74549000D01*
X95533318Y-74549000D01*
X95553956Y-74705762D01*
X95614464Y-74851841D01*
X95710718Y-74977282D01*
X95836159Y-75073536D01*
X95982238Y-75134044D01*
X96139000Y-75154682D01*
X96147188Y-75153604D01*
X96287574Y-75135122D01*
X96295762Y-75134044D01*
X96441841Y-75073536D01*
X96567282Y-74977282D01*
X96663536Y-74851841D01*
X96724044Y-74705762D01*
X96744682Y-74549000D01*
X96724044Y-74392238D01*
X96663536Y-74246159D01*
X96567282Y-74120718D01*
X96441841Y-74024464D01*
X96295762Y-73963956D01*
X96139000Y-73943318D01*
X95982238Y-73963956D01*
X95836159Y-74024464D01*
X95710718Y-74120718D01*
X95614464Y-74246159D01*
X95553956Y-74392238D01*
X95533318Y-74549000D01*
X92790962Y-74549000D01*
X92807682Y-74422000D01*
X92787044Y-74265238D01*
X92726536Y-74119159D01*
X92630282Y-73993718D01*
X92504841Y-73897464D01*
X92358762Y-73836956D01*
X92202000Y-73816318D01*
X92045238Y-73836956D01*
X91899159Y-73897464D01*
X91773718Y-73993718D01*
X91677464Y-74119159D01*
X91616956Y-74265238D01*
X91596318Y-74422000D01*
X85925500Y-74422000D01*
X85925500Y-73406000D01*
X93628318Y-73406000D01*
X93629396Y-73414188D01*
X93646228Y-73542037D01*
X93648956Y-73562762D01*
X93709464Y-73708841D01*
X93714491Y-73715392D01*
X93800661Y-73827691D01*
X93805718Y-73834282D01*
X93931159Y-73930536D01*
X94077238Y-73991044D01*
X94234000Y-74011682D01*
X94242188Y-74010604D01*
X94382574Y-73992122D01*
X94390762Y-73991044D01*
X94536841Y-73930536D01*
X94662282Y-73834282D01*
X94667340Y-73827691D01*
X94753509Y-73715392D01*
X94758536Y-73708841D01*
X94819044Y-73562762D01*
X94821773Y-73542037D01*
X94838604Y-73414188D01*
X94839682Y-73406000D01*
X94825808Y-73300615D01*
X94820122Y-73257426D01*
X94819044Y-73249238D01*
X94758536Y-73103159D01*
X94662282Y-72977718D01*
X94640748Y-72961194D01*
X94543392Y-72886491D01*
X94536841Y-72881464D01*
X94390762Y-72820956D01*
X94234000Y-72800318D01*
X94077238Y-72820956D01*
X93931159Y-72881464D01*
X93924608Y-72886491D01*
X93827253Y-72961194D01*
X93805718Y-72977718D01*
X93709464Y-73103159D01*
X93648956Y-73249238D01*
X93647878Y-73257426D01*
X93642192Y-73300615D01*
X93628318Y-73406000D01*
X85925500Y-73406000D01*
X85925500Y-71433751D01*
X85945502Y-71365630D01*
X85974796Y-71333789D01*
X86019729Y-71299311D01*
X86019732Y-71299308D01*
X86026282Y-71294282D01*
X86036742Y-71280651D01*
X86103320Y-71193884D01*
X86122536Y-71168841D01*
X86183044Y-71022762D01*
X86203682Y-70866000D01*
X86183044Y-70709238D01*
X86122536Y-70563159D01*
X86026282Y-70437718D01*
X85900841Y-70341464D01*
X85754762Y-70280956D01*
X85598000Y-70260318D01*
X85589812Y-70261396D01*
X85454581Y-70279199D01*
X85384432Y-70268259D01*
X85363149Y-70249369D01*
X89423500Y-70249369D01*
X89424707Y-70255437D01*
X89430412Y-70284116D01*
X89435133Y-70307852D01*
X89442026Y-70318168D01*
X89453352Y-70335118D01*
X89479448Y-70374173D01*
X89545769Y-70418488D01*
X89557938Y-70420909D01*
X89557939Y-70420909D01*
X89598184Y-70428914D01*
X89604252Y-70430121D01*
X91243748Y-70430121D01*
X91249816Y-70428914D01*
X91290061Y-70420909D01*
X91290062Y-70420909D01*
X91302231Y-70418488D01*
X91368552Y-70374173D01*
X91394648Y-70335118D01*
X91405974Y-70318168D01*
X91412867Y-70307852D01*
X91417589Y-70284116D01*
X91423293Y-70255437D01*
X91424500Y-70249369D01*
X97043500Y-70249369D01*
X97044707Y-70255437D01*
X97050412Y-70284116D01*
X97055133Y-70307852D01*
X97062026Y-70318168D01*
X97073352Y-70335118D01*
X97099448Y-70374173D01*
X97165769Y-70418488D01*
X97177938Y-70420909D01*
X97177939Y-70420909D01*
X97218184Y-70428914D01*
X97224252Y-70430121D01*
X98863748Y-70430121D01*
X98869816Y-70428914D01*
X98910061Y-70420909D01*
X98910062Y-70420909D01*
X98922231Y-70418488D01*
X98988552Y-70374173D01*
X99014648Y-70335118D01*
X99025974Y-70318168D01*
X99032867Y-70307852D01*
X99037589Y-70284116D01*
X99043293Y-70255437D01*
X99044500Y-70249369D01*
X99044500Y-69876403D01*
X106301915Y-69876403D01*
X106322553Y-70033165D01*
X106383061Y-70179244D01*
X106479315Y-70304685D01*
X106604756Y-70400939D01*
X106750835Y-70461447D01*
X106907597Y-70482085D01*
X106915785Y-70481007D01*
X107056171Y-70462525D01*
X107064359Y-70461447D01*
X107210438Y-70400939D01*
X107216991Y-70395911D01*
X107216994Y-70395909D01*
X107309161Y-70325187D01*
X107375381Y-70299586D01*
X107444930Y-70313851D01*
X107473983Y-70335331D01*
X107478165Y-70340782D01*
X107603606Y-70437036D01*
X107749685Y-70497544D01*
X107906447Y-70518182D01*
X107914635Y-70517104D01*
X107932425Y-70514762D01*
X108063209Y-70497544D01*
X108209288Y-70437036D01*
X108334729Y-70340782D01*
X108430983Y-70215341D01*
X108491491Y-70069262D01*
X108498275Y-70017736D01*
X108509862Y-69929718D01*
X108512129Y-69912500D01*
X108491491Y-69755738D01*
X108430983Y-69609659D01*
X108334729Y-69484218D01*
X108209288Y-69387964D01*
X108063209Y-69327456D01*
X107906447Y-69306818D01*
X107749685Y-69327456D01*
X107603606Y-69387964D01*
X107597055Y-69392991D01*
X107597050Y-69392994D01*
X107504883Y-69463716D01*
X107438663Y-69489317D01*
X107369114Y-69475052D01*
X107340061Y-69453572D01*
X107335879Y-69448121D01*
X107324303Y-69439238D01*
X107264032Y-69392991D01*
X107210438Y-69351867D01*
X107064359Y-69291359D01*
X107028272Y-69286608D01*
X106915785Y-69271799D01*
X106907597Y-69270721D01*
X106899409Y-69271799D01*
X106786923Y-69286608D01*
X106750835Y-69291359D01*
X106604756Y-69351867D01*
X106551162Y-69392991D01*
X106490892Y-69439238D01*
X106479315Y-69448121D01*
X106383061Y-69573562D01*
X106322553Y-69719641D01*
X106321475Y-69727829D01*
X106318805Y-69748109D01*
X106301915Y-69876403D01*
X99044500Y-69876403D01*
X99044500Y-68609873D01*
X99032867Y-68551390D01*
X98988552Y-68485069D01*
X98922231Y-68440754D01*
X98910062Y-68438333D01*
X98910061Y-68438333D01*
X98869816Y-68430328D01*
X98863748Y-68429121D01*
X97224252Y-68429121D01*
X97218184Y-68430328D01*
X97177939Y-68438333D01*
X97177938Y-68438333D01*
X97165769Y-68440754D01*
X97099448Y-68485069D01*
X97055133Y-68551390D01*
X97043500Y-68609873D01*
X97043500Y-70249369D01*
X91424500Y-70249369D01*
X91424500Y-68609873D01*
X91412867Y-68551390D01*
X91368552Y-68485069D01*
X91302231Y-68440754D01*
X91290062Y-68438333D01*
X91290061Y-68438333D01*
X91249816Y-68430328D01*
X91243748Y-68429121D01*
X89604252Y-68429121D01*
X89598184Y-68430328D01*
X89557939Y-68438333D01*
X89557938Y-68438333D01*
X89545769Y-68440754D01*
X89479448Y-68485069D01*
X89435133Y-68551390D01*
X89423500Y-68609873D01*
X89423500Y-70249369D01*
X85363149Y-70249369D01*
X85331334Y-70221131D01*
X85313213Y-70170724D01*
X85300836Y-70076712D01*
X85299758Y-70068524D01*
X85239250Y-69922445D01*
X85142996Y-69797004D01*
X85017555Y-69700750D01*
X84871476Y-69640242D01*
X84714714Y-69619604D01*
X84557952Y-69640242D01*
X84411873Y-69700750D01*
X84286432Y-69797004D01*
X84190178Y-69922445D01*
X84129670Y-70068524D01*
X84128592Y-70076712D01*
X84119351Y-70146905D01*
X84109032Y-70225286D01*
X82756178Y-70225286D01*
X82724282Y-70183718D01*
X82598841Y-70087464D01*
X82452762Y-70026956D01*
X82296000Y-70006318D01*
X82139238Y-70026956D01*
X82131611Y-70030115D01*
X82131608Y-70030116D01*
X82058323Y-70060472D01*
X81987733Y-70068061D01*
X81924246Y-70036282D01*
X81888019Y-69975224D01*
X81888394Y-69912146D01*
X81891040Y-69905758D01*
X81911678Y-69748996D01*
X81910938Y-69743376D01*
X81930602Y-69676406D01*
X81984258Y-69629913D01*
X82031965Y-69619535D01*
X82032496Y-69619605D01*
X82040684Y-69618527D01*
X82181070Y-69600045D01*
X82189258Y-69598967D01*
X82335337Y-69538459D01*
X82445687Y-69453785D01*
X82454232Y-69447228D01*
X82460778Y-69442205D01*
X82557032Y-69316764D01*
X82617540Y-69170685D01*
X82638178Y-69013923D01*
X82617540Y-68857161D01*
X82557032Y-68711082D01*
X82460778Y-68585641D01*
X82335337Y-68489387D01*
X82189258Y-68428879D01*
X82032496Y-68408241D01*
X81875734Y-68428879D01*
X81729655Y-68489387D01*
X81604214Y-68585641D01*
X81507960Y-68711082D01*
X81447452Y-68857161D01*
X81426814Y-69013923D01*
X81427554Y-69019543D01*
X81407890Y-69086513D01*
X81354234Y-69133006D01*
X81306527Y-69143384D01*
X81305996Y-69143314D01*
X81149234Y-69163952D01*
X81003155Y-69224460D01*
X80877714Y-69320714D01*
X80781460Y-69446155D01*
X80720952Y-69592234D01*
X80700314Y-69748996D01*
X78334540Y-69748996D01*
X78337327Y-69727829D01*
X78353604Y-69604188D01*
X78354682Y-69596000D01*
X78344363Y-69517619D01*
X78335122Y-69447426D01*
X78334044Y-69439238D01*
X78273536Y-69293159D01*
X78177282Y-69167718D01*
X78051841Y-69071464D01*
X77905762Y-69010956D01*
X77866105Y-69005735D01*
X77757188Y-68991396D01*
X77749000Y-68990318D01*
X77740812Y-68991396D01*
X77631896Y-69005735D01*
X77592238Y-69010956D01*
X77446159Y-69071464D01*
X77320718Y-69167718D01*
X77224464Y-69293159D01*
X77163956Y-69439238D01*
X77162878Y-69447426D01*
X77153637Y-69517619D01*
X77143318Y-69596000D01*
X76327500Y-69596000D01*
X76327500Y-65548731D01*
X76347502Y-65480610D01*
X76401158Y-65434117D01*
X76471432Y-65424013D01*
X76533617Y-65452413D01*
X76533718Y-65452282D01*
X76659159Y-65548536D01*
X76805238Y-65609044D01*
X76962000Y-65629682D01*
X76970188Y-65628604D01*
X77110574Y-65610122D01*
X77118762Y-65609044D01*
X77264841Y-65548536D01*
X77390282Y-65452282D01*
X77404221Y-65434117D01*
X77481509Y-65333392D01*
X77486536Y-65326841D01*
X77547044Y-65180762D01*
X77567682Y-65024000D01*
X77547044Y-64867238D01*
X77506767Y-64770000D01*
X78388318Y-64770000D01*
X78408956Y-64926762D01*
X78469464Y-65072841D01*
X78565718Y-65198282D01*
X78691159Y-65294536D01*
X78837238Y-65355044D01*
X78994000Y-65375682D01*
X79002188Y-65374604D01*
X79142574Y-65356122D01*
X79150762Y-65355044D01*
X79296841Y-65294536D01*
X79422282Y-65198282D01*
X79518536Y-65072841D01*
X79579044Y-64926762D01*
X79599682Y-64770000D01*
X79596462Y-64745541D01*
X87543833Y-64745541D01*
X87549929Y-65004190D01*
X87550763Y-65008895D01*
X87585218Y-65203305D01*
X87595078Y-65258942D01*
X87596615Y-65263469D01*
X87596615Y-65263470D01*
X87618127Y-65326841D01*
X87678241Y-65503933D01*
X87797505Y-65733525D01*
X87950125Y-65942436D01*
X88132589Y-66125858D01*
X88136435Y-66128699D01*
X88136440Y-66128703D01*
X88284012Y-66237701D01*
X88340698Y-66279570D01*
X88344928Y-66281796D01*
X88344932Y-66281798D01*
X88565426Y-66397805D01*
X88569663Y-66400034D01*
X88814215Y-66484479D01*
X89068726Y-66530961D01*
X89151519Y-66535300D01*
X91412782Y-66535300D01*
X91415161Y-66535119D01*
X91415162Y-66535119D01*
X91600209Y-66521043D01*
X91600214Y-66521042D01*
X91604976Y-66520680D01*
X91609630Y-66519601D01*
X91609632Y-66519601D01*
X91852351Y-66463342D01*
X91852350Y-66463342D01*
X91857015Y-66462261D01*
X92097318Y-66366390D01*
X92320354Y-66235273D01*
X92324065Y-66232252D01*
X92324069Y-66232249D01*
X92517279Y-66074951D01*
X92520991Y-66071929D01*
X92694613Y-65880115D01*
X92837222Y-65664247D01*
X92890566Y-65548536D01*
X92943532Y-65433643D01*
X92943533Y-65433640D01*
X92945538Y-65429291D01*
X93017068Y-65180655D01*
X93018111Y-65172574D01*
X93049556Y-64928796D01*
X93050167Y-64924059D01*
X93044071Y-64665410D01*
X93028009Y-64574778D01*
X92999756Y-64415362D01*
X92999755Y-64415358D01*
X92998922Y-64410658D01*
X92915759Y-64165667D01*
X92796495Y-63936075D01*
X92643875Y-63727164D01*
X92461411Y-63543742D01*
X92457565Y-63540901D01*
X92457560Y-63540897D01*
X92257154Y-63392875D01*
X92257153Y-63392874D01*
X92253302Y-63390030D01*
X92249072Y-63387804D01*
X92249068Y-63387802D01*
X92028574Y-63271795D01*
X92028572Y-63271794D01*
X92024337Y-63269566D01*
X91779785Y-63185121D01*
X91525274Y-63138639D01*
X91442481Y-63134300D01*
X89181218Y-63134300D01*
X89178839Y-63134481D01*
X89178838Y-63134481D01*
X88993791Y-63148557D01*
X88993786Y-63148558D01*
X88989024Y-63148920D01*
X88984370Y-63149999D01*
X88984368Y-63149999D01*
X88836551Y-63184261D01*
X88736985Y-63207339D01*
X88496682Y-63303210D01*
X88273646Y-63434327D01*
X88269935Y-63437348D01*
X88269931Y-63437351D01*
X88135083Y-63547135D01*
X88073009Y-63597671D01*
X87899387Y-63789485D01*
X87756778Y-64005353D01*
X87648462Y-64240309D01*
X87576932Y-64488945D01*
X87576321Y-64493683D01*
X87576320Y-64493687D01*
X87554776Y-64660705D01*
X87543833Y-64745541D01*
X79596462Y-64745541D01*
X79579044Y-64613238D01*
X79518536Y-64467159D01*
X79422282Y-64341718D01*
X79296841Y-64245464D01*
X79150762Y-64184956D01*
X78994000Y-64164318D01*
X78837238Y-64184956D01*
X78691159Y-64245464D01*
X78565718Y-64341718D01*
X78469464Y-64467159D01*
X78408956Y-64613238D01*
X78388318Y-64770000D01*
X77506767Y-64770000D01*
X77486536Y-64721159D01*
X77390282Y-64595718D01*
X77264841Y-64499464D01*
X77118762Y-64438956D01*
X76962000Y-64418318D01*
X76805238Y-64438956D01*
X76659159Y-64499464D01*
X76533718Y-64595718D01*
X76532363Y-64593952D01*
X76480283Y-64622390D01*
X76409468Y-64617325D01*
X76352632Y-64574778D01*
X76327821Y-64508258D01*
X76327500Y-64499269D01*
X76327500Y-60214497D01*
X84735818Y-60214497D01*
X84756456Y-60371259D01*
X84816964Y-60517338D01*
X84913218Y-60642779D01*
X84919764Y-60647802D01*
X85038659Y-60739033D01*
X85037782Y-60740175D01*
X85080640Y-60785121D01*
X85094078Y-60854834D01*
X85077938Y-60905328D01*
X85073464Y-60911159D01*
X85070305Y-60918785D01*
X85070304Y-60918787D01*
X85016116Y-61049609D01*
X85012956Y-61057238D01*
X84992318Y-61214000D01*
X85012956Y-61370762D01*
X85073464Y-61516841D01*
X85169718Y-61642282D01*
X85295159Y-61738536D01*
X85441238Y-61799044D01*
X85598000Y-61819682D01*
X85606188Y-61818604D01*
X85746574Y-61800122D01*
X85754762Y-61799044D01*
X85900841Y-61738536D01*
X86026282Y-61642282D01*
X86122536Y-61516841D01*
X86183044Y-61370762D01*
X86203682Y-61214000D01*
X86183044Y-61057238D01*
X86122536Y-60911159D01*
X86026282Y-60785718D01*
X85900841Y-60689464D01*
X85901718Y-60688322D01*
X85858860Y-60643376D01*
X85845422Y-60573663D01*
X85861562Y-60523169D01*
X85866036Y-60517338D01*
X85869197Y-60509708D01*
X85923384Y-60378888D01*
X85926544Y-60371259D01*
X85947182Y-60214497D01*
X85926544Y-60057735D01*
X85879433Y-59944000D01*
X102010318Y-59944000D01*
X102030956Y-60100762D01*
X102091464Y-60246841D01*
X102187718Y-60372282D01*
X102313159Y-60468536D01*
X102459238Y-60529044D01*
X102616000Y-60549682D01*
X102624188Y-60548604D01*
X102764574Y-60530122D01*
X102772762Y-60529044D01*
X102918841Y-60468536D01*
X103044282Y-60372282D01*
X103140536Y-60246841D01*
X103201044Y-60100762D01*
X103221682Y-59944000D01*
X103201044Y-59787238D01*
X103140536Y-59641159D01*
X103044282Y-59515718D01*
X102918841Y-59419464D01*
X102772762Y-59358956D01*
X102616000Y-59338318D01*
X102459238Y-59358956D01*
X102313159Y-59419464D01*
X102187718Y-59515718D01*
X102091464Y-59641159D01*
X102030956Y-59787238D01*
X102010318Y-59944000D01*
X85879433Y-59944000D01*
X85866036Y-59911656D01*
X85769782Y-59786215D01*
X85644341Y-59689961D01*
X85498262Y-59629453D01*
X85341500Y-59608815D01*
X85184738Y-59629453D01*
X85038659Y-59689961D01*
X84913218Y-59786215D01*
X84816964Y-59911656D01*
X84756456Y-60057735D01*
X84735818Y-60214497D01*
X76327500Y-60214497D01*
X76327500Y-57194141D01*
X87543833Y-57194141D01*
X87549929Y-57452790D01*
X87595078Y-57707542D01*
X87678241Y-57952533D01*
X87797505Y-58182125D01*
X87950125Y-58391036D01*
X88132589Y-58574458D01*
X88136435Y-58577299D01*
X88136440Y-58577303D01*
X88284012Y-58686301D01*
X88340698Y-58728170D01*
X88344928Y-58730396D01*
X88344932Y-58730398D01*
X88565426Y-58846405D01*
X88569663Y-58848634D01*
X88814215Y-58933079D01*
X89068726Y-58979561D01*
X89151519Y-58983900D01*
X91412782Y-58983900D01*
X91415161Y-58983719D01*
X91415162Y-58983719D01*
X91600209Y-58969643D01*
X91600214Y-58969642D01*
X91604976Y-58969280D01*
X91609630Y-58968201D01*
X91609632Y-58968201D01*
X91852351Y-58911942D01*
X91852350Y-58911942D01*
X91857015Y-58910861D01*
X92097318Y-58814990D01*
X92320354Y-58683873D01*
X92324065Y-58680852D01*
X92324069Y-58680849D01*
X92517279Y-58523551D01*
X92520991Y-58520529D01*
X92694613Y-58328715D01*
X92837222Y-58112847D01*
X92945538Y-57877891D01*
X93017068Y-57629255D01*
X93050167Y-57372659D01*
X93045960Y-57194141D01*
X95417833Y-57194141D01*
X95423929Y-57452790D01*
X95469078Y-57707542D01*
X95552241Y-57952533D01*
X95671505Y-58182125D01*
X95824125Y-58391036D01*
X96006589Y-58574458D01*
X96010435Y-58577299D01*
X96010440Y-58577303D01*
X96158012Y-58686301D01*
X96214698Y-58728170D01*
X96218928Y-58730396D01*
X96218932Y-58730398D01*
X96439426Y-58846405D01*
X96443663Y-58848634D01*
X96688215Y-58933079D01*
X96942726Y-58979561D01*
X97025519Y-58983900D01*
X99286782Y-58983900D01*
X99289161Y-58983719D01*
X99289162Y-58983719D01*
X99474209Y-58969643D01*
X99474214Y-58969642D01*
X99478976Y-58969280D01*
X99483630Y-58968201D01*
X99483632Y-58968201D01*
X99726351Y-58911942D01*
X99726350Y-58911942D01*
X99731015Y-58910861D01*
X99971318Y-58814990D01*
X100194354Y-58683873D01*
X100198065Y-58680852D01*
X100198069Y-58680849D01*
X100391279Y-58523551D01*
X100394991Y-58520529D01*
X100568613Y-58328715D01*
X100711222Y-58112847D01*
X100819538Y-57877891D01*
X100891068Y-57629255D01*
X100924167Y-57372659D01*
X100918071Y-57114010D01*
X100872922Y-56859258D01*
X100789759Y-56614267D01*
X100670495Y-56384675D01*
X100517875Y-56175764D01*
X100335411Y-55992342D01*
X100331565Y-55989501D01*
X100331560Y-55989497D01*
X100131154Y-55841475D01*
X100131153Y-55841474D01*
X100127302Y-55838630D01*
X100123072Y-55836404D01*
X100123068Y-55836402D01*
X99902574Y-55720395D01*
X99902572Y-55720394D01*
X99898337Y-55718166D01*
X99653785Y-55633721D01*
X99399274Y-55587239D01*
X99316481Y-55582900D01*
X97055218Y-55582900D01*
X97052839Y-55583081D01*
X97052838Y-55583081D01*
X96867791Y-55597157D01*
X96867786Y-55597158D01*
X96863024Y-55597520D01*
X96858370Y-55598599D01*
X96858368Y-55598599D01*
X96710551Y-55632861D01*
X96610985Y-55655939D01*
X96370682Y-55751810D01*
X96147646Y-55882927D01*
X96143935Y-55885948D01*
X96143931Y-55885951D01*
X96009083Y-55995735D01*
X95947009Y-56046271D01*
X95773387Y-56238085D01*
X95630778Y-56453953D01*
X95522462Y-56688909D01*
X95450932Y-56937545D01*
X95417833Y-57194141D01*
X93045960Y-57194141D01*
X93044071Y-57114010D01*
X92998922Y-56859258D01*
X92915759Y-56614267D01*
X92796495Y-56384675D01*
X92643875Y-56175764D01*
X92461411Y-55992342D01*
X92457565Y-55989501D01*
X92457560Y-55989497D01*
X92257154Y-55841475D01*
X92257153Y-55841474D01*
X92253302Y-55838630D01*
X92249072Y-55836404D01*
X92249068Y-55836402D01*
X92028574Y-55720395D01*
X92028572Y-55720394D01*
X92024337Y-55718166D01*
X91779785Y-55633721D01*
X91525274Y-55587239D01*
X91442481Y-55582900D01*
X89181218Y-55582900D01*
X89178839Y-55583081D01*
X89178838Y-55583081D01*
X88993791Y-55597157D01*
X88993786Y-55597158D01*
X88989024Y-55597520D01*
X88984370Y-55598599D01*
X88984368Y-55598599D01*
X88836551Y-55632861D01*
X88736985Y-55655939D01*
X88496682Y-55751810D01*
X88273646Y-55882927D01*
X88269935Y-55885948D01*
X88269931Y-55885951D01*
X88135083Y-55995735D01*
X88073009Y-56046271D01*
X87899387Y-56238085D01*
X87756778Y-56453953D01*
X87648462Y-56688909D01*
X87576932Y-56937545D01*
X87543833Y-57194141D01*
X76327500Y-57194141D01*
X76327500Y-53611444D01*
X76604643Y-53611444D01*
X76625281Y-53768206D01*
X76685789Y-53914285D01*
X76782043Y-54039726D01*
X76907484Y-54135980D01*
X77053563Y-54196488D01*
X77210325Y-54217126D01*
X77218513Y-54216048D01*
X77358899Y-54197566D01*
X77367087Y-54196488D01*
X77513166Y-54135980D01*
X77519715Y-54130955D01*
X77519718Y-54130953D01*
X77528742Y-54124028D01*
X77594961Y-54098426D01*
X77664511Y-54112689D01*
X77705562Y-54152300D01*
X77707464Y-54150841D01*
X77774821Y-54238622D01*
X77803718Y-54276282D01*
X77929159Y-54372536D01*
X78075238Y-54433044D01*
X78232000Y-54453682D01*
X78240188Y-54452604D01*
X78380574Y-54434122D01*
X78388762Y-54433044D01*
X78534841Y-54372536D01*
X78660282Y-54276282D01*
X78727584Y-54188573D01*
X78784921Y-54146706D01*
X78855792Y-54142484D01*
X78916641Y-54176182D01*
X78916744Y-54176285D01*
X78921767Y-54182831D01*
X79047208Y-54279085D01*
X79193287Y-54339593D01*
X79350049Y-54360231D01*
X79358237Y-54359153D01*
X79498623Y-54340671D01*
X79506811Y-54339593D01*
X79652890Y-54279085D01*
X79778331Y-54182831D01*
X79874585Y-54057390D01*
X79935093Y-53911311D01*
X79955731Y-53754549D01*
X79935093Y-53597787D01*
X79874585Y-53451708D01*
X79827855Y-53390808D01*
X81890628Y-53390808D01*
X81911266Y-53547570D01*
X81971774Y-53693649D01*
X82068028Y-53819090D01*
X82193469Y-53915344D01*
X82339548Y-53975852D01*
X82496310Y-53996490D01*
X82504498Y-53995412D01*
X82644884Y-53976930D01*
X82653072Y-53975852D01*
X82799151Y-53915344D01*
X82924592Y-53819090D01*
X83020846Y-53693649D01*
X83081354Y-53547570D01*
X83101992Y-53390808D01*
X83084808Y-53260282D01*
X83082432Y-53242234D01*
X83081354Y-53234046D01*
X83020846Y-53087967D01*
X82924592Y-52962526D01*
X82799151Y-52866272D01*
X82716411Y-52832000D01*
X83976318Y-52832000D01*
X83996956Y-52988762D01*
X84057464Y-53134841D01*
X84153718Y-53260282D01*
X84279159Y-53356536D01*
X84425238Y-53417044D01*
X84433426Y-53418122D01*
X84445549Y-53419718D01*
X84582000Y-53437682D01*
X84590188Y-53436604D01*
X84730574Y-53418122D01*
X84738762Y-53417044D01*
X84884841Y-53356536D01*
X85010282Y-53260282D01*
X85106536Y-53134841D01*
X85167044Y-52988762D01*
X85187682Y-52832000D01*
X85167044Y-52675238D01*
X85106536Y-52529159D01*
X85101508Y-52522606D01*
X85101506Y-52522603D01*
X85045565Y-52449699D01*
X85019964Y-52383479D01*
X85034229Y-52313930D01*
X85068823Y-52273033D01*
X85120398Y-52233458D01*
X85120402Y-52233454D01*
X85126948Y-52228431D01*
X85141319Y-52209703D01*
X85204489Y-52127377D01*
X85223202Y-52102990D01*
X85283710Y-51956911D01*
X85304348Y-51800149D01*
X85283710Y-51643387D01*
X85223202Y-51497308D01*
X85126948Y-51371867D01*
X85001507Y-51275613D01*
X84855428Y-51215105D01*
X84698666Y-51194467D01*
X84541904Y-51215105D01*
X84395825Y-51275613D01*
X84270384Y-51371867D01*
X84174130Y-51497308D01*
X84113622Y-51643387D01*
X84092984Y-51800149D01*
X84113622Y-51956911D01*
X84174130Y-52102990D01*
X84179157Y-52109541D01*
X84179160Y-52109546D01*
X84235101Y-52182450D01*
X84260702Y-52248670D01*
X84246437Y-52318219D01*
X84211843Y-52359116D01*
X84160268Y-52398691D01*
X84160264Y-52398695D01*
X84153718Y-52403718D01*
X84057464Y-52529159D01*
X83996956Y-52675238D01*
X83976318Y-52832000D01*
X82716411Y-52832000D01*
X82653072Y-52805764D01*
X82496310Y-52785126D01*
X82339548Y-52805764D01*
X82193469Y-52866272D01*
X82068028Y-52962526D01*
X81971774Y-53087967D01*
X81911266Y-53234046D01*
X81910188Y-53242234D01*
X81907812Y-53260282D01*
X81890628Y-53390808D01*
X79827855Y-53390808D01*
X79778331Y-53326267D01*
X79652890Y-53230013D01*
X79506811Y-53169505D01*
X79474218Y-53165214D01*
X79374796Y-53152125D01*
X79350049Y-53148867D01*
X79325302Y-53152125D01*
X79225881Y-53165214D01*
X79193287Y-53169505D01*
X79047208Y-53230013D01*
X78921767Y-53326267D01*
X78854537Y-53413884D01*
X78854466Y-53413976D01*
X78797128Y-53455843D01*
X78726257Y-53460065D01*
X78665408Y-53426367D01*
X78665305Y-53426264D01*
X78660282Y-53419718D01*
X78633277Y-53398996D01*
X78583782Y-53361018D01*
X78534841Y-53323464D01*
X78388762Y-53262956D01*
X78232000Y-53242318D01*
X78075238Y-53262956D01*
X77929159Y-53323464D01*
X77922610Y-53328489D01*
X77922607Y-53328491D01*
X77913583Y-53335416D01*
X77847364Y-53361018D01*
X77777814Y-53346755D01*
X77736763Y-53307144D01*
X77734861Y-53308603D01*
X77643630Y-53189708D01*
X77638607Y-53183162D01*
X77513166Y-53086908D01*
X77367087Y-53026400D01*
X77210325Y-53005762D01*
X77053563Y-53026400D01*
X76907484Y-53086908D01*
X76782043Y-53183162D01*
X76685789Y-53308603D01*
X76625281Y-53454682D01*
X76604643Y-53611444D01*
X76327500Y-53611444D01*
X76327500Y-48844387D01*
X76347502Y-48776266D01*
X76401158Y-48729773D01*
X76471432Y-48719669D01*
X76536012Y-48749163D01*
X76571011Y-48798922D01*
X76577386Y-48815401D01*
X76578801Y-48818195D01*
X76578804Y-48818203D01*
X76681945Y-49021944D01*
X76756083Y-49168395D01*
X76968955Y-49501895D01*
X77213898Y-49812603D01*
X77216073Y-49814859D01*
X77216078Y-49814865D01*
X77272708Y-49873609D01*
X77488489Y-50097448D01*
X77490882Y-50099481D01*
X77787619Y-50351578D01*
X77787627Y-50351585D01*
X77790014Y-50353612D01*
X77855123Y-50398612D01*
X78112917Y-50576785D01*
X78112926Y-50576790D01*
X78115489Y-50578562D01*
X78118224Y-50580075D01*
X78118229Y-50580078D01*
X78231262Y-50642604D01*
X78461698Y-50770074D01*
X78464567Y-50771307D01*
X78464578Y-50771312D01*
X78822347Y-50925021D01*
X78825215Y-50926253D01*
X78828192Y-50927194D01*
X78828196Y-50927196D01*
X78885583Y-50945345D01*
X79202447Y-51045556D01*
X79589663Y-51126802D01*
X79592781Y-51127138D01*
X79980582Y-51168925D01*
X79980585Y-51168925D01*
X79983033Y-51169189D01*
X79985496Y-51169260D01*
X79985497Y-51169260D01*
X79989146Y-51169365D01*
X80040351Y-51170840D01*
X80311412Y-51170840D01*
X80312975Y-51170762D01*
X80312983Y-51170762D01*
X80409351Y-51165964D01*
X80607218Y-51156114D01*
X80610303Y-51155650D01*
X80610305Y-51155650D01*
X80995376Y-51097757D01*
X80998469Y-51097292D01*
X81199644Y-51046200D01*
X81378899Y-51000675D01*
X81378902Y-51000674D01*
X81381942Y-50999902D01*
X81384890Y-50998832D01*
X81750909Y-50865974D01*
X81750919Y-50865970D01*
X81753847Y-50864907D01*
X82110506Y-50693642D01*
X82448391Y-50487801D01*
X82642285Y-50341426D01*
X82761667Y-50251302D01*
X82761670Y-50251300D01*
X82764161Y-50249419D01*
X82766443Y-50247309D01*
X82766452Y-50247302D01*
X83052397Y-49982976D01*
X83054694Y-49980853D01*
X83142981Y-49881238D01*
X83315032Y-49687111D01*
X83315037Y-49687105D01*
X83317116Y-49684759D01*
X83548833Y-49364066D01*
X83747553Y-49021944D01*
X83788271Y-48932391D01*
X83910019Y-48664619D01*
X83910020Y-48664616D01*
X83911311Y-48661777D01*
X83918007Y-48642053D01*
X83980278Y-48458608D01*
X84038488Y-48287127D01*
X84127826Y-47901697D01*
X84129045Y-47901980D01*
X84158583Y-47842942D01*
X84219634Y-47806703D01*
X84290586Y-47809223D01*
X84350781Y-47852080D01*
X84402692Y-47919733D01*
X84402695Y-47919736D01*
X84407718Y-47926282D01*
X84533159Y-48022536D01*
X84538450Y-48024728D01*
X84586636Y-48075262D01*
X84600074Y-48144975D01*
X84573688Y-48210886D01*
X84538776Y-48241137D01*
X84533159Y-48243464D01*
X84407718Y-48339718D01*
X84311464Y-48465159D01*
X84250956Y-48611238D01*
X84230318Y-48768000D01*
X84250956Y-48924762D01*
X84254116Y-48932391D01*
X84258341Y-48942590D01*
X84311464Y-49070841D01*
X84407718Y-49196282D01*
X84533159Y-49292536D01*
X84538450Y-49294728D01*
X84586636Y-49345262D01*
X84600074Y-49414975D01*
X84573688Y-49480886D01*
X84538776Y-49511137D01*
X84533159Y-49513464D01*
X84407718Y-49609718D01*
X84311464Y-49735159D01*
X84250956Y-49881238D01*
X84230318Y-50038000D01*
X84250956Y-50194762D01*
X84311464Y-50340841D01*
X84407718Y-50466282D01*
X84533159Y-50562536D01*
X84679238Y-50623044D01*
X84836000Y-50643682D01*
X84900344Y-50635211D01*
X84970491Y-50646150D01*
X85005884Y-50671038D01*
X86200346Y-51865501D01*
X87390132Y-53055287D01*
X87397559Y-53063391D01*
X87421954Y-53092464D01*
X87454828Y-53111444D01*
X87464075Y-53117336D01*
X87495171Y-53139109D01*
X87505820Y-53141962D01*
X87509054Y-53143470D01*
X87512426Y-53144697D01*
X87521975Y-53150211D01*
X87559347Y-53156801D01*
X87570061Y-53159176D01*
X87606730Y-53169001D01*
X87617705Y-53168041D01*
X87617707Y-53168041D01*
X87644541Y-53165693D01*
X87655523Y-53165214D01*
X94519749Y-53165214D01*
X94587870Y-53185216D01*
X94619711Y-53214510D01*
X94654189Y-53259443D01*
X94654192Y-53259446D01*
X94659218Y-53265996D01*
X94665768Y-53271022D01*
X94665769Y-53271023D01*
X94684042Y-53285044D01*
X94784659Y-53362250D01*
X94930738Y-53422758D01*
X95087500Y-53443396D01*
X95095688Y-53442318D01*
X95099577Y-53441806D01*
X107508061Y-53441806D01*
X107528699Y-53598568D01*
X107589207Y-53744647D01*
X107685461Y-53870088D01*
X107810902Y-53966342D01*
X107956981Y-54026850D01*
X108113743Y-54047488D01*
X108121931Y-54046410D01*
X108172702Y-54039726D01*
X108270505Y-54026850D01*
X108416584Y-53966342D01*
X108488302Y-53911311D01*
X108501388Y-53901270D01*
X108567609Y-53875670D01*
X108637157Y-53889935D01*
X108687953Y-53939536D01*
X108689909Y-53943563D01*
X108692303Y-53947709D01*
X108695464Y-53955341D01*
X108791718Y-54080782D01*
X108917159Y-54177036D01*
X109063238Y-54237544D01*
X109220000Y-54258182D01*
X109228188Y-54257104D01*
X109368574Y-54238622D01*
X109376762Y-54237544D01*
X109522841Y-54177036D01*
X109648282Y-54080782D01*
X109744536Y-53955341D01*
X109805044Y-53809262D01*
X109825682Y-53652500D01*
X109805044Y-53495738D01*
X109744536Y-53349659D01*
X109648282Y-53224218D01*
X109522841Y-53127964D01*
X109376762Y-53067456D01*
X109220000Y-53046818D01*
X109063238Y-53067456D01*
X108917159Y-53127964D01*
X108910608Y-53132991D01*
X108832355Y-53193036D01*
X108766134Y-53218636D01*
X108696586Y-53204371D01*
X108645790Y-53154770D01*
X108643834Y-53150743D01*
X108641439Y-53146595D01*
X108638279Y-53138965D01*
X108542025Y-53013524D01*
X108527144Y-53002105D01*
X108423135Y-52922297D01*
X108416584Y-52917270D01*
X108270505Y-52856762D01*
X108113743Y-52836124D01*
X107956981Y-52856762D01*
X107810902Y-52917270D01*
X107804351Y-52922297D01*
X107700343Y-53002105D01*
X107685461Y-53013524D01*
X107589207Y-53138965D01*
X107528699Y-53285044D01*
X107508061Y-53441806D01*
X95099577Y-53441806D01*
X95236074Y-53423836D01*
X95244262Y-53422758D01*
X95390341Y-53362250D01*
X95490958Y-53285044D01*
X95509236Y-53271019D01*
X95515782Y-53265996D01*
X95612036Y-53140555D01*
X95672544Y-52994476D01*
X95675889Y-52969072D01*
X95692104Y-52845902D01*
X95693182Y-52837714D01*
X95692430Y-52832000D01*
X103026318Y-52832000D01*
X103046956Y-52988762D01*
X103107464Y-53134841D01*
X103203718Y-53260282D01*
X103329159Y-53356536D01*
X103475238Y-53417044D01*
X103483426Y-53418122D01*
X103495549Y-53419718D01*
X103632000Y-53437682D01*
X103640188Y-53436604D01*
X103780574Y-53418122D01*
X103788762Y-53417044D01*
X103934841Y-53356536D01*
X104060282Y-53260282D01*
X104156536Y-53134841D01*
X104217044Y-52988762D01*
X104237682Y-52832000D01*
X104217044Y-52675238D01*
X104156536Y-52529159D01*
X104060282Y-52403718D01*
X103934841Y-52307464D01*
X103788762Y-52246956D01*
X103632000Y-52226318D01*
X103475238Y-52246956D01*
X103329159Y-52307464D01*
X103203718Y-52403718D01*
X103107464Y-52529159D01*
X103046956Y-52675238D01*
X103026318Y-52832000D01*
X95692430Y-52832000D01*
X95672544Y-52680952D01*
X95612036Y-52534873D01*
X95515782Y-52409432D01*
X95390341Y-52313178D01*
X95244262Y-52252670D01*
X95224863Y-52250116D01*
X95165881Y-52242351D01*
X95087500Y-52232032D01*
X95009119Y-52242351D01*
X94950138Y-52250116D01*
X94930738Y-52252670D01*
X94784659Y-52313178D01*
X94769663Y-52324685D01*
X94666665Y-52403718D01*
X94659218Y-52409432D01*
X94654192Y-52415982D01*
X94654189Y-52415985D01*
X94619711Y-52460918D01*
X94562373Y-52502785D01*
X94519749Y-52510214D01*
X87823559Y-52510214D01*
X87755438Y-52490212D01*
X87734464Y-52473309D01*
X86627999Y-51366844D01*
X86061155Y-50800000D01*
X94136318Y-50800000D01*
X94156956Y-50956762D01*
X94217464Y-51102841D01*
X94313718Y-51228282D01*
X94439159Y-51324536D01*
X94585238Y-51385044D01*
X94742000Y-51405682D01*
X94750188Y-51404604D01*
X94890574Y-51386122D01*
X94898762Y-51385044D01*
X95044841Y-51324536D01*
X95083990Y-51294496D01*
X99616937Y-51294496D01*
X99632732Y-51482590D01*
X99634431Y-51488515D01*
X99678840Y-51643387D01*
X99684760Y-51664034D01*
X99687576Y-51669513D01*
X99758922Y-51808337D01*
X99771040Y-51831917D01*
X99774865Y-51836743D01*
X99774867Y-51836746D01*
X99884456Y-51975014D01*
X99884460Y-51975019D01*
X99888285Y-51979844D01*
X100032030Y-52102180D01*
X100037408Y-52105186D01*
X100037410Y-52105187D01*
X100114415Y-52148223D01*
X100196800Y-52194267D01*
X100376317Y-52252595D01*
X100563745Y-52274945D01*
X100569880Y-52274473D01*
X100569882Y-52274473D01*
X100745803Y-52260937D01*
X100745807Y-52260936D01*
X100751945Y-52260464D01*
X100757877Y-52258808D01*
X100757881Y-52258807D01*
X100927804Y-52211363D01*
X100927808Y-52211362D01*
X100933748Y-52209703D01*
X101013297Y-52169520D01*
X101096728Y-52127377D01*
X101096730Y-52127376D01*
X101102229Y-52124598D01*
X101250970Y-52008388D01*
X101254996Y-52003724D01*
X101254999Y-52003721D01*
X101370278Y-51870169D01*
X101370279Y-51870167D01*
X101374307Y-51865501D01*
X101467542Y-51701378D01*
X101527123Y-51522272D01*
X101550780Y-51335005D01*
X101551157Y-51308000D01*
X101532738Y-51120145D01*
X101478181Y-50939445D01*
X101389566Y-50772783D01*
X101270266Y-50626508D01*
X101262259Y-50619884D01*
X101129577Y-50510120D01*
X101129574Y-50510118D01*
X101124827Y-50506191D01*
X100958788Y-50416414D01*
X100778474Y-50360597D01*
X100772356Y-50359954D01*
X100772351Y-50359953D01*
X100596881Y-50341511D01*
X100596879Y-50341511D01*
X100590752Y-50340867D01*
X100475125Y-50351390D01*
X100408914Y-50357415D01*
X100408913Y-50357415D01*
X100402773Y-50357974D01*
X100221697Y-50411268D01*
X100216232Y-50414125D01*
X100116465Y-50466282D01*
X100054420Y-50498718D01*
X99907316Y-50616993D01*
X99785986Y-50761588D01*
X99695052Y-50926996D01*
X99637978Y-51106917D01*
X99637292Y-51113036D01*
X99637291Y-51113039D01*
X99624364Y-51228282D01*
X99616937Y-51294496D01*
X95083990Y-51294496D01*
X95170282Y-51228282D01*
X95266536Y-51102841D01*
X95327044Y-50956762D01*
X95347682Y-50800000D01*
X95327044Y-50643238D01*
X95322093Y-50631284D01*
X95291534Y-50557509D01*
X95266536Y-50497159D01*
X95170282Y-50371718D01*
X95044841Y-50275464D01*
X94898762Y-50214956D01*
X94742000Y-50194318D01*
X94585238Y-50214956D01*
X94439159Y-50275464D01*
X94313718Y-50371718D01*
X94217464Y-50497159D01*
X94192466Y-50557509D01*
X94161908Y-50631284D01*
X94156956Y-50643238D01*
X94136318Y-50800000D01*
X86061155Y-50800000D01*
X85469038Y-50207884D01*
X85435013Y-50145572D01*
X85433211Y-50102343D01*
X85433856Y-50097448D01*
X85441682Y-50038000D01*
X85421044Y-49881238D01*
X85360536Y-49735159D01*
X85264282Y-49609718D01*
X85138841Y-49513464D01*
X85133550Y-49511272D01*
X85085364Y-49460738D01*
X85071926Y-49391025D01*
X85098312Y-49325114D01*
X85133224Y-49294863D01*
X85138841Y-49292536D01*
X85264282Y-49196282D01*
X85360536Y-49070841D01*
X85413659Y-48942590D01*
X85417884Y-48932391D01*
X85421044Y-48924762D01*
X85441682Y-48768000D01*
X85439904Y-48754496D01*
X99616937Y-48754496D01*
X99617453Y-48760639D01*
X99631876Y-48932391D01*
X99632732Y-48942590D01*
X99634431Y-48948515D01*
X99671386Y-49077392D01*
X99684760Y-49124034D01*
X99771040Y-49291917D01*
X99774865Y-49296743D01*
X99774867Y-49296746D01*
X99884456Y-49435014D01*
X99884460Y-49435019D01*
X99888285Y-49439844D01*
X100032030Y-49562180D01*
X100037408Y-49565186D01*
X100037410Y-49565187D01*
X100114415Y-49608224D01*
X100196800Y-49654267D01*
X100376317Y-49712595D01*
X100563745Y-49734945D01*
X100569880Y-49734473D01*
X100569882Y-49734473D01*
X100745803Y-49720937D01*
X100745807Y-49720936D01*
X100751945Y-49720464D01*
X100757877Y-49718808D01*
X100757881Y-49718807D01*
X100927804Y-49671363D01*
X100927808Y-49671362D01*
X100933748Y-49669703D01*
X101039540Y-49616264D01*
X101096728Y-49587377D01*
X101096730Y-49587376D01*
X101102229Y-49584598D01*
X101250970Y-49468388D01*
X101254996Y-49463724D01*
X101254999Y-49463721D01*
X101370278Y-49330169D01*
X101370279Y-49330167D01*
X101374307Y-49325501D01*
X101467542Y-49161378D01*
X101527123Y-48982272D01*
X101550780Y-48795005D01*
X101551157Y-48768000D01*
X101532738Y-48580145D01*
X101478181Y-48399445D01*
X101389566Y-48232783D01*
X101270266Y-48086508D01*
X101264475Y-48081717D01*
X101129577Y-47970120D01*
X101129574Y-47970118D01*
X101124827Y-47966191D01*
X100958788Y-47876414D01*
X100778474Y-47820597D01*
X100772356Y-47819954D01*
X100772351Y-47819953D01*
X100596881Y-47801511D01*
X100596879Y-47801511D01*
X100590752Y-47800867D01*
X100498933Y-47809223D01*
X100408914Y-47817415D01*
X100408913Y-47817415D01*
X100402773Y-47817974D01*
X100221697Y-47871268D01*
X100216232Y-47874125D01*
X100103804Y-47932901D01*
X100054420Y-47958718D01*
X99907316Y-48076993D01*
X99785986Y-48221588D01*
X99783016Y-48226991D01*
X99783015Y-48226992D01*
X99748322Y-48290098D01*
X99695052Y-48386996D01*
X99637978Y-48566917D01*
X99637292Y-48573036D01*
X99637291Y-48573039D01*
X99622639Y-48703659D01*
X99616937Y-48754496D01*
X85439904Y-48754496D01*
X85433211Y-48703657D01*
X85444150Y-48633510D01*
X85469038Y-48598116D01*
X86069580Y-47997575D01*
X86077684Y-47990149D01*
X86098305Y-47972846D01*
X86106750Y-47965760D01*
X86125723Y-47932898D01*
X86131626Y-47923633D01*
X86147071Y-47901574D01*
X86147072Y-47901572D01*
X86153394Y-47892543D01*
X86156246Y-47881899D01*
X86157760Y-47878653D01*
X86158986Y-47875285D01*
X86164497Y-47865739D01*
X86171087Y-47828367D01*
X86173466Y-47817635D01*
X86176396Y-47806703D01*
X86183287Y-47780984D01*
X86179980Y-47743189D01*
X86179500Y-47732206D01*
X86179500Y-46214496D01*
X99616937Y-46214496D01*
X99632732Y-46402590D01*
X99634431Y-46408515D01*
X99680671Y-46569773D01*
X99684760Y-46584034D01*
X99771040Y-46751917D01*
X99774865Y-46756743D01*
X99774867Y-46756746D01*
X99884456Y-46895014D01*
X99884460Y-46895019D01*
X99888285Y-46899844D01*
X100032030Y-47022180D01*
X100037408Y-47025186D01*
X100037410Y-47025187D01*
X100114415Y-47068224D01*
X100196800Y-47114267D01*
X100376317Y-47172595D01*
X100563745Y-47194945D01*
X100569880Y-47194473D01*
X100569882Y-47194473D01*
X100745803Y-47180937D01*
X100745807Y-47180936D01*
X100751945Y-47180464D01*
X100757877Y-47178808D01*
X100757881Y-47178807D01*
X100927804Y-47131363D01*
X100927808Y-47131362D01*
X100933748Y-47129703D01*
X101039540Y-47076264D01*
X101096728Y-47047377D01*
X101096730Y-47047376D01*
X101102229Y-47044598D01*
X101250970Y-46928388D01*
X101254996Y-46923724D01*
X101254999Y-46923721D01*
X101370278Y-46790169D01*
X101370279Y-46790167D01*
X101374307Y-46785501D01*
X101467542Y-46621378D01*
X101527123Y-46442272D01*
X101550780Y-46255005D01*
X101551157Y-46228000D01*
X101532738Y-46040145D01*
X101478181Y-45859445D01*
X101389566Y-45692783D01*
X101270266Y-45546508D01*
X101262259Y-45539884D01*
X101129577Y-45430120D01*
X101129574Y-45430118D01*
X101124827Y-45426191D01*
X100958788Y-45336414D01*
X100778474Y-45280597D01*
X100772356Y-45279954D01*
X100772351Y-45279953D01*
X100596881Y-45261511D01*
X100596879Y-45261511D01*
X100590752Y-45260867D01*
X100475125Y-45271390D01*
X100408914Y-45277415D01*
X100408913Y-45277415D01*
X100402773Y-45277974D01*
X100221697Y-45331268D01*
X100216232Y-45334125D01*
X100116465Y-45386282D01*
X100054420Y-45418718D01*
X99907316Y-45536993D01*
X99785986Y-45681588D01*
X99783016Y-45686991D01*
X99783015Y-45686992D01*
X99756155Y-45735851D01*
X99695052Y-45846996D01*
X99637978Y-46026917D01*
X99637292Y-46033036D01*
X99637291Y-46033039D01*
X99622295Y-46166726D01*
X99616937Y-46214496D01*
X86179500Y-46214496D01*
X86179500Y-45993794D01*
X86179980Y-45982811D01*
X86182326Y-45955999D01*
X86183287Y-45945016D01*
X86173464Y-45908356D01*
X86171087Y-45897633D01*
X86166411Y-45871117D01*
X86164497Y-45860261D01*
X86158986Y-45850715D01*
X86157760Y-45847347D01*
X86156246Y-45844101D01*
X86153394Y-45833457D01*
X86147071Y-45824426D01*
X86131626Y-45802367D01*
X86125721Y-45793099D01*
X86112261Y-45769786D01*
X86106750Y-45760240D01*
X86077683Y-45735850D01*
X86069580Y-45728425D01*
X85771275Y-45430120D01*
X85469038Y-45127884D01*
X85435013Y-45065571D01*
X85433211Y-45022341D01*
X85440604Y-44966187D01*
X85441682Y-44958000D01*
X94390318Y-44958000D01*
X94410956Y-45114762D01*
X94471464Y-45260841D01*
X94567718Y-45386282D01*
X94693159Y-45482536D01*
X94839238Y-45543044D01*
X94996000Y-45563682D01*
X95004188Y-45562604D01*
X95144574Y-45544122D01*
X95152762Y-45543044D01*
X95298841Y-45482536D01*
X95424282Y-45386282D01*
X95520536Y-45260841D01*
X95581044Y-45114762D01*
X95601682Y-44958000D01*
X95581044Y-44801238D01*
X95520536Y-44655159D01*
X95424282Y-44529718D01*
X95298841Y-44433464D01*
X95152762Y-44372956D01*
X94996000Y-44352318D01*
X94839238Y-44372956D01*
X94693159Y-44433464D01*
X94567718Y-44529718D01*
X94471464Y-44655159D01*
X94410956Y-44801238D01*
X94390318Y-44958000D01*
X85441682Y-44958000D01*
X85421044Y-44801238D01*
X85360536Y-44655159D01*
X85264282Y-44529718D01*
X85138841Y-44433464D01*
X84992762Y-44372956D01*
X84836000Y-44352318D01*
X84679238Y-44372956D01*
X84533159Y-44433464D01*
X84407718Y-44529718D01*
X84311464Y-44655159D01*
X84250956Y-44801238D01*
X84230318Y-44958000D01*
X84250956Y-45114762D01*
X84311464Y-45260841D01*
X84407718Y-45386282D01*
X84533159Y-45482536D01*
X84538450Y-45484728D01*
X84586636Y-45535262D01*
X84600074Y-45604975D01*
X84573688Y-45670886D01*
X84538776Y-45701137D01*
X84533159Y-45703464D01*
X84407718Y-45799718D01*
X84311464Y-45925159D01*
X84272990Y-46018042D01*
X84254815Y-46061921D01*
X84210266Y-46117202D01*
X84142903Y-46139623D01*
X84074112Y-46122065D01*
X84025734Y-46070103D01*
X84016959Y-46047269D01*
X83990321Y-45950890D01*
X83989488Y-45947875D01*
X83980700Y-45925159D01*
X83847869Y-45581812D01*
X83847867Y-45581807D01*
X83846734Y-45578879D01*
X83838496Y-45562604D01*
X83669456Y-45228688D01*
X83668037Y-45225885D01*
X83455165Y-44892385D01*
X83210222Y-44581677D01*
X83208047Y-44579421D01*
X83208042Y-44579415D01*
X83012061Y-44376116D01*
X82935631Y-44296832D01*
X82933059Y-44294647D01*
X82636501Y-44042702D01*
X82636493Y-44042695D01*
X82634106Y-44040668D01*
X82439951Y-43906479D01*
X82311203Y-43817495D01*
X82311194Y-43817490D01*
X82308631Y-43815718D01*
X82305896Y-43814205D01*
X82305891Y-43814202D01*
X82056972Y-43676508D01*
X81962422Y-43624206D01*
X81959553Y-43622973D01*
X81959542Y-43622968D01*
X81787999Y-43549268D01*
X81733306Y-43504000D01*
X81711769Y-43436349D01*
X81730226Y-43367793D01*
X81782817Y-43320099D01*
X81837737Y-43307500D01*
X106514910Y-43307500D01*
X106583031Y-43327502D01*
G37*
G04 #@! TD.AperFunction*
M02*
