M48
; DRILL file {KiCad (6.0.7)} date Tue Mar 21 11:34:09 2023
; FORMAT={-:-/ absolute / metric / decimal}
; #@! TF.CreationDate,2023-03-21T11:34:09-05:00
; #@! TF.GenerationSoftware,Kicad,Pcbnew,(6.0.7)
; #@! TF.FileFunction,Plated,1,4,PTH
FMAT,2
METRIC
; #@! TA.AperFunction,Plated,PTH,ViaDrill
T1C0.400
; #@! TA.AperFunction,Plated,PTH,ComponentDrill
T2C0.800
; #@! TA.AperFunction,Plated,PTH,ComponentDrill
T3C0.900
; #@! TA.AperFunction,Plated,PTH,ComponentDrill
T4C2.000
%
G90
G05
T1
X76.962Y-54.864
X76.962Y-56.134
X76.962Y-57.404
X76.962Y-58.674
X76.962Y-59.944
X76.962Y-61.214
X76.962Y-62.484
X76.962Y-63.754
X76.962Y-65.024
X77.21Y-53.611
X77.749Y-69.596
X78.232Y-53.848
X78.994Y-64.77
X79.35Y-53.755
X81.306Y-69.749
X82.032Y-69.014
X82.296Y-70.612
X82.496Y-53.391
X84.582Y-52.832
X84.699Y-51.8
X84.715Y-70.225
X84.836Y-44.958
X84.836Y-46.228
X84.836Y-47.498
X84.836Y-48.768
X84.836Y-50.038
X85.341Y-60.214
X85.598Y-61.214
X85.598Y-70.866
X91.694Y-76.327
X91.948Y-77.851
X92.202Y-74.422
X94.234Y-73.406
X94.742Y-50.8
X94.996Y-44.958
X95.087Y-52.838
X96.139Y-74.549
X96.52Y-77.724
X96.647Y-76.327
X102.616Y-59.944
X103.124Y-75.184
X103.165Y-73.627
X103.378Y-71.12
X103.632Y-52.832
X106.908Y-69.876
X107.906Y-69.912
X108.114Y-53.442
X109.22Y-53.652
X109.728Y-70.612
X111.252Y-70.358
X111.506Y-54.61
X111.506Y-55.88
X111.506Y-57.15
X111.506Y-58.42
X111.506Y-59.69
X111.506Y-60.96
X111.506Y-62.23
X111.506Y-63.5
X111.76Y-53.34
T2
X90.424Y-69.43
X90.424Y-71.93
X98.044Y-69.43
X98.044Y-71.93
T3
X100.584Y-46.228
X100.584Y-48.768
X100.584Y-51.308
T4
X91.347Y-57.283G85X89.247Y-57.283
G05
X89.247Y-64.835G85X91.347Y-64.835
G05
X99.221Y-57.283G85X97.121Y-57.283
G05
X97.121Y-64.835G85X99.221Y-64.835
G05
T0
M30
